<?xml version="1.0" encoding="utf-8" ?>
<svg baseProfile="full" height="200mm" version="1.1" viewBox="0,0,200,200" width="200mm" xmlns="http://www.w3.org/2000/svg" xmlns:ev="http://www.w3.org/2001/xml-events" xmlns:xlink="http://www.w3.org/1999/xlink"><defs /><rect fill="#1a1a1a" height="200" width="200" x="0" y="0" /><text alignment-baseline="middle" fill="#e1ed5e" style="dominant-baseline: central; font-size:9.0px; font-family:Arial;" text-anchor="middle" x="100.0" y="100.0">2014</text><line stroke="#e1ed5e" stroke-width="0.3" x1="100.0" x2="100.0" y1="15.0" y2="10.0" /><path d="M 100.0 14.0 a86.0,86.0 0 0,1 42.46469731375804,11.215312516191453" fill="none" id="id1" stroke="none" /><text fill="#e1ed5e" style="font-size:6.75px; font-family:Arial;" text-anchor="middle"><textPath startOffset="22.20632615414155" xlink:href="#id1">January</textPath></text><line stroke="#e1ed5e" stroke-width="0.3" x1="143.23703022742887" x2="145.7803849466894" y1="26.81831364943548" y2="22.513508569990506" /><path d="M 143.74570117128098 25.957352633546492 a86.0,86.0 0 0,1 28.547481713284135,27.462654790039103" fill="none" id="id2" stroke="none" /><text fill="#e1ed5e" style="font-size:6.75px; font-family:Arial;" text-anchor="middle"><textPath startOffset="19.985693538727396" xlink:href="#id2">February</textPath></text><line stroke="#e1ed5e" stroke-width="0.3" x1="172.23445277983987" x2="176.4835382374775" y1="55.19839476539836" y2="52.563006222186495" /><path d="M 173.08426987136738 54.67131705675599 a86.0,86.0 0 0,1 12.851231095245387,41.99856678651699" fill="none" id="id3" stroke="none" /><text fill="#e1ed5e" style="font-size:6.75px; font-family:Arial;" text-anchor="middle"><textPath startOffset="22.20632615414155" xlink:href="#id3">March</textPath></text><line stroke="#e1ed5e" stroke-width="0.3" x1="184.98032266829074" x2="189.97916517819016" y1="98.17113171792111" y2="98.06355123074" /><path d="M 185.9800911702706 98.14961562048488 a86.0,86.0 0 0,1 -9.607161424134198,41.387399972396054" fill="none" id="id4" stroke="none" /><text fill="#e1ed5e" style="font-size:6.75px; font-family:Arial;" text-anchor="middle"><textPath startOffset="21.466115282336823" xlink:href="#id4">April</textPath></text><line stroke="#e1ed5e" stroke-width="0.3" x1="174.80103733775053" x2="179.2010983576182" y1="140.37084112569926" y2="142.7455964860345" /><path d="M 175.68104954172406 140.8457921977663 a86.0,86.0 0 0,1 -30.038265399797805,32.042727171017184" fill="none" id="id5" stroke="none" /><text fill="#e1ed5e" style="font-size:6.75px; font-family:Arial;" text-anchor="middle"><textPath startOffset="22.206326154141568" xlink:href="#id5">May</textPath></text><line stroke="#e1ed5e" stroke-width="0.3" x1="143.8653032363475" x2="146.44561519142675" y1="172.8068346515853" y2="177.08958963109032" /><path d="M 144.38136562736335 173.6633856474863 a86.0,86.0 0 0,1 -40.68145358897372,12.25698825130547" fill="none" id="id6" stroke="none" /><text fill="#e1ed5e" style="font-size:6.75px; font-family:Arial;" text-anchor="middle"><textPath startOffset="21.466115282336833" xlink:href="#id6">June</textPath></text><line stroke="#e1ed5e" stroke-width="0.3" x1="102.19456741930631" x2="102.32365962044197" y1="184.97166512339345" y2="189.96999836594603" /><path d="M 102.22038585953345 185.97133177190398 a86.0,86.0 0 0,1 -42.740103519485714,-10.115201625700543" fill="none" id="id7" stroke="none" /><text fill="#e1ed5e" style="font-size:6.75px; font-family:Arial;" text-anchor="middle"><textPath startOffset="22.20632615414155" xlink:href="#id7">July</textPath></text><path d="M 98.73552117531835 120.96189622390904 l -0.927601353260229 15.37731033898009 a36.40526265702322,36.40526265702322 0 0,0 -0.625194924654608,-0.043117102409506225 l 1.192159038693767 -15.359064892054299" fill="#ff0400" stroke="none" /><path d="M 95.86986931433489 120.58985236759428 l -3.9442197783259694 19.66303468869514 a41.05472021317092,41.05472021317092 0 0,0 -0.691690979049877,-0.14495056984532398 l 4.282102218805233 -19.592228138123275" fill="#ff5908" stroke="none" /><path d="M 93.76903079525671 120.05430185196036 l -5.497757040519359 17.694467036586456 a39.52888275599543,39.52888275599543 0 0,0 -0.6480452659662871,-0.207483629567409 l 5.801523651576587 -17.597210560359343" fill="#ff3e05" stroke="none" /><path d="M 93.42475214034765 119.94407469862007 l -6.611540624770341 20.05415809531972 a42.11591168633422,42.11591168633422 0 0,0 -0.6865500616750003,-0.23291505653872813 l 6.9557604193825675 -19.937380051882872" fill="#ff6c0a" stroke="none" /><path d="M 93.08242187328487 119.8279376855182 l -5.45085143597271 15.623841267233594 a37.54739246288542,37.54739246288542 0 0,0 -0.6084115811656543,-0.2181547467587812 l 5.718982577768091 -15.527698979434854" fill="#ff1902" stroke="none" /><path d="M 91.07499286063937 119.00905698771935 l -9.31188768294445 19.83306017176066 a42.91030643319375,42.91030643319375 0 0,0 -0.6659012037526458,-0.3196730445507847 l 9.651901554697337 -19.669832850710314" fill="#ff7a0b" stroke="none" /><path d="M 90.7491055286396 118.85261126421891 l -6.806115831565204 13.870340472371181 a36.45022839741149,36.45022839741149 0 0,0 -0.5608928033664,-0.2812432955515073 l 7.043862542614365 -13.751129335910372" fill="#ff0500" stroke="none" /><line stroke="#e1ed5e" stroke-width="0.3" x1="58.666819895761336" x2="56.23545636021788" y1="174.27360380694188" y2="178.64263932499728" /><path d="M 58.180547188652646 175.14741091055294 a86.0,86.0 0 0,1 -31.652253787137756,-30.449443065178592" fill="none" id="id8" stroke="none" /><text fill="#e1ed5e" style="font-size:6.75px; font-family:Arial;" text-anchor="middle"><textPath startOffset="22.20632615414155" xlink:href="#id8">August</textPath></text><path d="M 88.8546689885994 117.79835938074946 l -11.342081953788758 18.11255767396691 a42.37071754853445,42.37071754853445 0 0,0 -0.6148156522556293,-0.39240443826533267 l 11.652179408091312 -17.914638806877775" fill="#ff710a" stroke="none" /><path d="M 88.54995079064634 117.60387380957326 l -10.843113787807233 16.67074117615755 a40.88684811572136,40.88684811572136 0 0,0 -0.5866781821925315,-0.38881830857372635 l 11.128466668739726 -16.481624846492505" fill="#ff5608" stroke="none" /><path d="M 88.24862548938628 117.40417183066458 l -13.805740229684647 20.446754972359557 a45.67120289303388,45.67120289303388 0 0,0 -0.6477549215562463,-0.44553174159111125 l 14.155652035863785 -20.206082441403346" fill="#ffaa0f" stroke="none" /><path d="M 87.95078237400918 117.19931262002967 l -15.09477548806082 21.546607473360357 a47.30795584316711,47.30795584316711 0 0,0 -0.6629256466655123,-0.47297984712824903 l 15.463428462575218 -21.28358336438789" fill="#ffc512" stroke="none" /><path d="M 87.36589467227662 116.77436683061367 l -11.839964999500939 15.719982619382192 a40.68000570993529,40.68000570993529 0 0,0 -0.5557107125191122,-0.4260952776392306 l 12.10880444051354 -15.513847999915594" fill="#ff5307" stroke="none" /><path d="M 87.07902340077011 116.55440617244103 l -18.74697461285295 24.01869780215417 a51.46878568709555,51.46878568709555 0 0,0 -0.6937073403651656,-0.5511230661126633 l 19.157639445935473 -23.692440822036374" fill="#f6ff19" stroke="none" /><path d="M 86.79598089348748 116.32954008644616 l -9.688141160183816 11.981419305909773 a36.4082603730491,36.4082603730491 0 0,0 -0.4839349065638427,-0.39824548198133625 l 9.892946195292348 -11.812878705071256" fill="#ff0400" stroke="none" /><path d="M 85.44109423537348 115.13401014063109 l -18.949576907384557 19.698121116617003 a48.3331747240198,48.3331747240198 0 0,0 -0.5946132377037893,-0.5819542025901839 l 19.285840097464142 -19.36901681110425" fill="#ffd614" stroke="none" /><path d="M 84.9287848128048 114.62390073753433 l -21.88395520805331 21.234438280671746 a51.49276741530262,51.49276741530262 0 0,0 -0.6117670534040522,-0.6414353096816998 l 22.246228812836325 -20.854595854407545" fill="#f6ff19" stroke="none" /><path d="M 84.67929136418377 114.36230785411682 l -24.0811271586847 22.574710475116156 a54.00785116102018,54.00785116102018 0 0,0 -0.629972244682086,-0.6837104505730052 l 24.46614581136252 -22.15684876974181" fill="#cfff1d" stroke="none" /><path d="M 84.19399662182784 113.82643327865904 l -26.705346781125687 23.360724821974923 a56.480966882375334,56.480966882375334 0 0,0 -0.6338172815483998,-0.7372726897122983 l 27.103506572244868 -22.897575033101095" fill="#abff21" stroke="none" /><path d="M 83.72743513129214 113.27417163493432 l -19.528471571834828 15.93014288183663 a46.20179862961553,46.20179862961553 0 0,0 -0.49739995719068303,-0.6205829253350785 l 19.79978944108037 -15.591632122923292" fill="#ffb310" stroke="none" /><path d="M 83.28015986056508 112.70617746262583 l -15.511359116794951 11.787797011268363 a40.482156452226874,40.482156452226874 0 0,0 -0.41684810631813946,-0.5584361587571136 l 15.711968489808175 -11.519047973001944" fill="#ff4f07" stroke="none" /><path d="M 82.85270091963577 112.12312394758628 l -23.280542665589675 16.45932125982487 a49.51127712219262,49.51127712219262 0 0,0 -0.4860099881529991,-0.7001336362721655 l 23.56041356090481 -16.056146361365695" fill="#ffe915" stroke="none" /><line stroke="#e1ed5e" stroke-width="0.3" x1="26.63291911575756" x2="22.317208475507996" y1="142.92168965132927" y2="145.44649492493687" /><path d="M 25.769776987707644 143.4266507060508 a86.0,86.0 0 0,1 -11.730757126820373,-40.83630448921669" fill="none" id="id9" stroke="none" /><text fill="#e1ed5e" style="font-size:6.75px; font-family:Arial;" text-anchor="middle"><textPath startOffset="21.46611528233685" xlink:href="#id9">September</textPath></text><path d="M 80.45479744820244 107.68017299344265 l -19.633554009849565 7.714890181983624 a42.09492767415303,42.09492767415303 0 0,0 -0.2591959499221661,-0.6766788351741321 l 19.76344423936524 -7.375787779976335" fill="#ff6c09" stroke="none" /><path d="M 79.97269907076064 106.31721596034903 l -28.934570713479946 9.126838037879594 a51.33988389798249,51.33988389798249 0 0,0 -0.2585897723357217,-0.8450863378972371 l 29.087387258321797 -8.62742472743031" fill="#f8ff18" stroke="none" /><path d="M 79.4281124754447 104.21870165774334 l -29.615647937543798 6.07331645674842 a51.23196612105063,51.23196612105063 0 0,0 -0.16972434842047038,-0.8654207960363004 l 29.715802218939935 -5.562631933644165" fill="#faff18" stroke="none" /><path d="M 79.10278846688536 102.07522291339032 l -21.281029750272157 2.1133384465349976 a42.38570612866388,42.38570612866388 0 0,0 -0.06585003688232863,-0.7266496698014332 l 21.314254383431564 -1.7467073881849984" fill="#ff710a" stroke="none" /><path d="M 79.0095281055655 100.63252640178507 l -34.9435025551335 1.0529867097855279 a55.95936429387134,55.95936429387134 0 0,0 -0.020726115603074444,-0.9630611503673966 l 34.956450733421576 -0.4513357436280025" fill="#b2ff20" stroke="none" /><line stroke="#e1ed5e" stroke-width="0.3" x1="15.007084014347285" x2="10.007500721073583" y1="101.09737516637583" y2="101.16192664675087" /><path d="M 14.007167355692545 101.11028546245083 a86.0,86.0 0 0,1 10.666146001902534,-42.60595125391555" fill="none" id="id10" stroke="none" /><text fill="#e1ed5e" style="font-size:6.75px; font-family:Arial;" text-anchor="middle"><textPath startOffset="22.20632615414155" xlink:href="#id10">October</textPath></text><path d="M 79.21141760316559 97.0276538004421 l -29.86231985049648 -4.269706862316974 a51.16601636848115,51.16601636848115 0 0,0 0.1321645163894428,-0.8707990316883767 l 29.784399440667734 4.7831050063974425" fill="#fbff18" stroke="none" /><path d="M 79.32604984820605 96.31383870115002 l -26.784845581130828 -4.775732767657374 a48.20727065093263,48.20727065093263 0 0,0 0.15268912902991227,-0.8156714327605464 l 26.698670728191054 5.2360822778804925" fill="#ffd413" stroke="none" /><path d="M 79.54389044137918 95.25157060432595 l -19.26374496929315 -4.471648561561909 a40.775932622763605,40.775932622763605 0 0,0 0.16459341072311245,-0.6823459484047866 l 19.183918758309222 4.802579741626093" fill="#ff5407" stroke="none" /><path d="M 79.62865764111835 94.90015583598534 l -29.216436526410916 -7.314160779766161 a51.118052912067,51.118052912067 0 0,0 0.22103365295540003,-0.8517328301387883 l 29.08620654158521 7.815990035453813" fill="#fcff18" stroke="none" /><path d="M 80.02781315780177 93.51064311812611 l -28.566993551412196 -9.281978867012239 a51.0371145793681,51.0371145793681 0 0,0 0.2786692226547846,-0.8331855060496514 l 28.40298703498564 9.77233747598421" fill="#fdff18" stroke="none" /><path d="M 81.10775173730289 90.83032412892265 l -27.532017869319777 -13.363135844284626 a51.603682908260375,51.603682908260375 0 0,0 0.39474356923519716,-0.7957789479990546 l 27.297914287131167 13.835074380782643" fill="#f4ff19" stroke="none" /><line stroke="#e1ed5e" stroke-width="0.3" x1="26.266209847984243" x2="21.928928074336255" y1="57.711370442889674" y2="55.22380399835377" /><path d="M 25.398753493254645 57.213857153982495 a86.0,86.0 0 0,1 29.58750427330803,-30.492523968695096" fill="none" id="id11" stroke="none" /><text fill="#e1ed5e" style="font-size:6.75px; font-family:Arial;" text-anchor="middle"><textPath startOffset="21.46611528233685" xlink:href="#id11">November</textPath></text><path d="M 81.78341655067845 89.55222093294921 l -29.73023390408639 -17.051216892880422 a55.272887323943664,55.272887323943664 0 0,0 0.48045384976561206,-0.8212513706530489 l 29.432320379850452 17.56044767588736" fill="#bcff1f" stroke="none" /><path d="M 82.7489923806493 88.02491185347247 l -24.783137706672843 -17.2036477598001 a51.16901408450704,51.16901408450704 0 0,0 0.5084917855482967,-0.7192255696140984 l 24.483333301320666 17.627699829745985" fill="#fbff18" stroke="none" /><path d="M 84.31358615837235 86.03803664274999 l -47.05924152488297 -41.885890071750055 a84.0,84.0 0 0,0 0.9706254375358201,-1.071788850921776 l 46.331272446731106 42.68973170994139" fill="#4dd2ff" stroke="none" /><path d="M 85.05521093208273 85.24692304244772 l -11.244858656784158 -11.100609341919222 a36.80096117244005,36.80096117244005 0 0,0 0.44890898913389493,-0.4469812312717471 l 11.052113867482948 11.29252642384108" fill="#ff0b01" stroke="none" /><path d="M 85.31137513191541 84.99185889309783 l -21.31164586399102 -21.775230235613876 a51.46878568709555,51.46878568709555 0 0,0 0.638499100114726,-0.6142356284281972 l 20.933663520263867 22.13884895080438" fill="#f6ff19" stroke="none" /><path d="M 86.10567301691215 84.25364557470407 l -29.812375649428063 -33.78618005804481 a66.05866958507804,66.05866958507804 0 0,0 0.8590967769918372,-0.7450002593271001 l 29.22638507378945 34.29434531079159" fill="#30ff37" stroke="none" /><path d="M 86.65592168130627 83.78471172551755 l -17.549342436732772 -21.32538792436336 a48.61795774647887,48.61795774647887 0 0,0 0.6507782233938061,-0.5262173980592612 l 17.179660814774465 21.624311419686755" fill="#ffda14" stroke="none" /><path d="M 87.22198572758235 83.33499621200491 l -27.56490555073881 -35.949972008590855 a66.30148458317473,66.30148458317473 0 0,0 0.9116575564247864,-0.686641570855898 l 26.942001840555633 36.41913016895261" fill="#30ff3a" stroke="none" /><path d="M 87.51073957382395 83.11751280151077 l -17.89418160889736 -24.18864541462264 a51.08807575180815,51.08807575180815 0 0,0 0.7114736681947185,-0.5169158774994396 l 17.475162624348858 24.493080526938748" fill="#fcff18" stroke="none" /><path d="M 87.80319425747018 82.90503203632743 l -17.489091218649424 -24.512602759101295 a51.112057480015224,51.112057480015224 0 0,0 0.7206042196020267,-0.5048293066131315 l 17.064555859463738 24.810016908478367" fill="#fcff18" stroke="none" /><line stroke="#e1ed5e" stroke-width="0.3" x1="56.76296977257108" x2="54.21961505331056" y1="26.818313649435495" y2="22.513508569990535" /><path d="M 56.25429882871898 25.957352633546506 a86.0,86.0 0 0,1 42.26535254187918,-11.944610805530505" fill="none" id="id12" stroke="none" /><text fill="#e1ed5e" style="font-size:6.75px; font-family:Arial;" text-anchor="middle"><textPath startOffset="22.20632615414155" xlink:href="#id12">December</textPath></text><path d="M 89.3179101791058 81.91981866633112 l -7.73556932737861 -13.09299008931798 a36.20741339931481,36.20741339931481 0 0,0 0.5393236771564066,-0.3124110847436068 l 7.509048917756882 13.224205331451634" fill="#ff0000" stroke="none" /><path d="M 91.23893434514133 80.91482961587045 l -18.199137905810346 -39.645136957059364 a64.6227636086791,64.6227636086791 0 0,0 1.0149401424874744,-0.4553740571390864 l 17.514015644856094 39.95253134471498" fill="#3cff2e" stroke="none" /><path d="M 91.90106846888425 80.62456947434976 l -15.31266865192637 -36.633171485378384 a60.70474876284735,60.70474876284735 0 0,0 0.9675646954052292,-0.3946939333584657 l 14.679820086932759 36.891326304920426" fill="#6fff27" stroke="none" /><path d="M 92.57280143429618 80.3572730644239 l -10.768660425178956 -28.479897813758072 a51.44780167491435,51.44780167491435 0 0,0 0.8310477918227911,-0.306081915229153 l 10.276830307583596 28.661042996793547" fill="#f6ff19" stroke="none" /><path d="M 92.91201910852362 80.23233633223022 l -10.361821323221779 -28.89807436547826 a51.69960982108869,51.69960982108869 0 0,0 0.8402860578497183,-0.2931593061345183 l 9.862853261308775 29.072154524784988" fill="#f2ff19" stroke="none" /><path d="M 93.25333710446033 80.11325718540243 l -7.430125272043472 -21.90134480604591 a44.12737913970308,44.12737913970308 0 0,0 0.7214136794324781,-0.23783874776303637 l 7.052028770368584 22.025997278068182" fill="#ff8f0d" stroke="none" /><path d="M 98.91598698831166 79.02799685794201 l -0.9929736623530735 -19.21069815796338 a40.2363437381043,40.2363437381043 0 0,0 0.6919868767690849,-0.029798410546742638 l 0.6621459531946645 19.22494429503432" fill="#ff4b06" stroke="none" /><path d="M 99.63851952072746 79.00311137660856 l -0.34794388157614337 -20.21060429970429 a41.21359916254282,41.21359916254282 0 0,0 0.7094243608486741,-0.006106239447088434 l 4.950903902731137e-15 20.21359916254282" fill="#ff5c08" stroke="none" /></svg>