<?xml version="1.0" encoding="utf-8" ?>
<svg baseProfile="full" height="200mm" version="1.1" viewBox="0,0,200,200" width="200mm" xmlns="http://www.w3.org/2000/svg" xmlns:ev="http://www.w3.org/2001/xml-events" xmlns:xlink="http://www.w3.org/1999/xlink"><defs /><rect fill="#1a1a1a" height="200" width="200" x="0" y="0" /><text alignment-baseline="middle" fill="#e1ed5e" style="dominant-baseline: central; font-size:9.0px; font-family:Arial;" text-anchor="middle" x="100.0" y="100.0">2019</text><line stroke="#e1ed5e" stroke-width="0.3" x1="100.0" x2="100.0" y1="15.0" y2="10.0" /><path d="M 100.0 14.0 a86.0,86.0 0 0,1 42.46469731375804,11.215312516191453" fill="none" id="id49" stroke="none" /><text fill="#e1ed5e" style="font-size:6.75px; font-family:Arial;" text-anchor="middle"><textPath startOffset="22.20632615414155" xlink:href="#id49">January</textPath></text><line stroke="#e1ed5e" stroke-width="0.3" x1="143.23703022742887" x2="145.7803849466894" y1="26.81831364943548" y2="22.513508569990506" /><path d="M 143.74570117128098 25.957352633546492 a86.0,86.0 0 0,1 28.547481713284135,27.462654790039103" fill="none" id="id50" stroke="none" /><text fill="#e1ed5e" style="font-size:6.75px; font-family:Arial;" text-anchor="middle"><textPath startOffset="19.985693538727396" xlink:href="#id50">February</textPath></text><line stroke="#e1ed5e" stroke-width="0.3" x1="172.23445277983987" x2="176.4835382374775" y1="55.19839476539836" y2="52.563006222186495" /><path d="M 173.08426987136738 54.67131705675599 a86.0,86.0 0 0,1 12.851231095245387,41.99856678651699" fill="none" id="id51" stroke="none" /><text fill="#e1ed5e" style="font-size:6.75px; font-family:Arial;" text-anchor="middle"><textPath startOffset="22.20632615414155" xlink:href="#id51">March</textPath></text><path d="M 120.18372546131832 94.20196356495316 l 15.269633864944607 -4.386400006700812 a36.88717166106819,36.88717166106819 0 0,0 0.17005553396099732,0.6117802351616578 l -15.34287616947197 4.122908468120203" fill="#ff940d" stroke="none" /><path d="M 120.28053869075195 94.5502522615342 l 12.505481871311783 -3.3604492753283726 a33.94911951314693,33.94911951314693 0 0,0 0.14679545626510596,0.5656627746247325 l -12.561473659447191 3.1446900751547897" fill="#ff6909" stroke="none" /><path d="M 120.37134235888165 94.90015583598534 l 12.564141119172321 -3.1453578578012293 a33.95186929041938,33.95186929041938 0 0,0 0.13704785169807288,0.5681518229248976 l -12.616421771131215 2.928620803216926" fill="#ff6909" stroke="none" /><path d="M 120.45610955862082 95.25157060432595 l 9.85882833355652 -2.288507017026373 a31.12095650012961,31.12095650012961 0 0,0 0.11663780754407732,0.5228644208443657 l -9.896760528102634 2.118464426632043" fill="#ff3f05" stroke="none" /><path d="M 120.67395015179393 96.31383870115 l 16.745351371682556 -2.985692898973384 a38.00944310223268,38.00944310223268 0 0,0 0.10930092921889671,0.645100271420776 l -16.794264162421673 2.6970068392367703" fill="#ffa40f" stroke="none" /><path d="M 120.73433829027371 96.67025291283417 l 11.181409684344521 -1.7956332054406003 a32.324673113941714,32.324673113941714 0 0,0 0.08349633394916439,0.5501365172646927 l -11.210661911732984 1.6028975757838249" fill="#ff5107" stroke="none" /><path d="M 120.83666639777658 97.38593545837742 l 15.688369392684814 -1.9681848028084952 a36.81134673642116,36.81134673642116 0 0,0 0.07346431177075714,0.6293973593527149 l -15.71992405745916 1.6978437051309274" fill="#ff930d" stroke="none" /><path d="M 120.91429891909075 98.10471618934814 l 9.890772877600284 -0.8963160458914078 a30.931302561617777,30.931302561617777 0 0,0 0.043488698774626154,0.5306722778850751 l -9.904736060194406 0.725929850798564" fill="#ff3c05" stroke="none" /><path d="M 120.98425023603335 99.18683210126433 l 19.835174745501387 -0.768639679160778 a40.85006206894468,40.85006206894468 0 0,0 0.02118037891964446,0.7028736621453057 l -19.845466818876677 0.42709586959047324" fill="#ffcc13" stroke="none" /><line stroke="#e1ed5e" stroke-width="0.3" x1="184.98032266829074" x2="189.97916517819016" y1="98.17113171792111" y2="98.06355123074" /><path d="M 185.9800911702706 98.14961562048488 a86.0,86.0 0 0,1 -9.607161424134198,41.387399972396054" fill="none" id="id52" stroke="none" /><text fill="#e1ed5e" style="font-size:6.75px; font-family:Arial;" text-anchor="middle"><textPath startOffset="21.466115282336823" xlink:href="#id52">April</textPath></text><path d="M 120.99824983174949 100.27111621757518 l 19.940051158441722 0.25745342072073046 a40.94171312764061,40.94171312764061 0 0,0 -0.01516390848929505,0.7046072420632794 l -19.93266518726742 -0.6006504785741247" fill="#ffcd13" stroke="none" /><path d="M 120.9764740272857 100.99374915477107 l 14.944345914741072 0.7079803355922737 a35.96110660930613,35.96110660930613 0 0,0 -0.034614532890317386,0.6180657374845584 l -14.929945030963225 -0.9651177894122553" fill="#ff870c" stroke="none" /><path d="M 120.95626037817324 101.35467743843564 l 16.34663909681651 1.0566972722753325 a37.38075757975815,37.38075757975815 0 0,0 -0.04703467880911211,0.6417508231240375 l -16.32602785934306 -1.3379212318961404" fill="#ff9b0e" stroke="none" /><path d="M 120.92983693683757 101.71520430193887 l 9.790312474177336 0.8023180554970929 a30.82313252502525,30.82313252502525 0 0,0 -0.04788653060162662,0.5284238748687135 l -9.775051347298634 -0.9707233189143769" fill="#ff3a05" stroke="none" /><path d="M 120.81339534386255 102.79330883721812 l 14.163802579844981 1.9008851877000594 a35.29078962190826,35.29078962190826 0 0,0 -0.08598508292278156,0.6013794696946023 l -14.128983445905599 -2.1444101293750713" fill="#ff7d0b" stroke="none" /><path d="M 120.70491114924044 103.5080841355445 l 11.725230483966953 1.9866347046804977 a32.892339860262524,32.892339860262524 0 0,0 -0.0993874278058176,0.5574174762275136 l -11.689296613821947 -2.1881709316412294" fill="#ff5908" stroke="none" /><path d="M 120.5718875245553 104.21870165774334 l 11.565072267254248 2.3716632461435587 a32.805747883972515,32.805747883972515 0 0,0 -0.11820373566687369,0.5522085009857876 l -11.522534492862931 -2.5703855665455153" fill="#ff5808" stroke="none" /><path d="M 120.41448212921028 104.9243191809786 l 9.633574089987784 2.3237813907033678 a30.909879398815267,30.909879398815267 0 0,0 -0.129216080367627,0.5161540091784985 l -9.592146695325095 -2.489263239279262" fill="#ff3b05" stroke="none" /><path d="M 120.32669344350535 105.2749913415812 l 9.619945943262312 2.4964774373276977 a30.938599476102016,30.938599476102016 0 0,0 -0.13820997772116256,0.5143307424741641 l -9.575547889199372 -2.66169911297741" fill="#ff3c05" stroke="none" /><path d="M 120.02730092923936 106.31721596034902 l 9.637413242871709 3.0399313901286877 a31.105489442405485,31.105489442405485 0 0,0 -0.16546305745947673,0.5092429279537182 l -9.583657934395985 -3.205373218060201" fill="#ff3e05" stroke="none" /><path d="M 119.79798401119884 107.00284435728193 l 12.093743194137039 4.277738644377808 a33.82800344384656,33.82800344384656 0 0,0 -0.19890179637841376,0.5472923187110025 l -12.0183171367534 -4.485278760094942" fill="#ff6709" stroke="none" /><path d="M 119.54520255179757 107.68017299344265 l 8.575871828515409 3.3698386618424756 a30.214195039501416,30.214195039501416 0 0,0 -0.1943742267692368,0.48242089032692154 l -8.516594987488782 -3.5169589200122107" fill="#ff3104" stroke="none" /><path d="M 119.41010516605496 108.01547362559984 l 9.181424922991111 3.7915028633828816 a30.933481644396537,30.933481644396537 0 0,0 -0.20747383513899534,0.4904068594884639 l -9.114800106659803 -3.948984248537509" fill="#ff3c05" stroke="none" /><path d="M 119.12269723197855 108.67885076344098 l 21.116947008742564 9.583942549793012 a44.19002815366498,44.19002815366498 0 0,0 -0.3203259032166806,0.6899534979985836 l -20.94884648868605 -9.946016115070426" fill="#fff917" stroke="none" /><path d="M 118.64920377521936 109.65438752849418 l 12.486981067189292 6.4643057010189855 a35.06100794283861,35.06100794283861 0 0,0 -0.282069969097604,0.5335700806893809 l -12.373858589866794 -6.678290796794501" fill="#ff7a0b" stroke="none" /><line stroke="#e1ed5e" stroke-width="0.3" x1="174.80103733775053" x2="179.2010983576182" y1="140.37084112569926" y2="142.7455964860345" /><path d="M 175.68104954172406 140.8457921977663 a86.0,86.0 0 0,1 -30.038265399797805,32.042727171017184" fill="none" id="id53" stroke="none" /><text fill="#e1ed5e" style="font-size:6.75px; font-family:Arial;" text-anchor="middle"><textPath startOffset="22.206326154141568" xlink:href="#id53">May</textPath></text><path d="M 118.12598468904814 110.60418214915192 l 12.205414430990459 7.140491402396033 a35.14067745548005,35.14067745548005 0 0,0 -0.3099393097940507,0.5194761108906197 l -12.080694245498181 -7.349529607172757" fill="#ff7b0b" stroke="none" /><path d="M 117.94076556474637 110.91462005526583 l 53.8222966942391 32.74386016579747 a84.0,84.0 0 0,0 -0.7621414413281484,1.228814674538906 l -53.25069061324299 -33.665471171701654" fill="#4dd2ff" stroke="none" /><path d="M 116.93607887273984 112.41649034213515 l 8.241569178361434 6.042211120773358 a31.219186746004517,31.219186746004517 0 0,0 -0.3214665427031137,0.4306569672624289 l -8.136341368963228 -6.183180967545102" fill="#ff4006" stroke="none" /><path d="M 116.498646956653 112.99209946851258 l 9.886468470479263 7.785243365607307 a33.58380995881268,33.58380995881268 0 0,0 -0.36155704174482667,0.45109800151326784 l -9.750993516679584 -7.954269200698825" fill="#ff6409" stroke="none" /><path d="M 116.0416608686014 113.55231037782055 l 7.616915828071235 6.434920191200583 a30.971238869821697,30.971238869821697 0 0,0 -0.3475525917879076,0.40428218293127444 l -7.505020726712547 -6.565079473293386" fill="#ff3c05" stroke="none" /><path d="M 115.56566222782051 114.09645910891815 l 7.456318083439463 6.752535255354084 a31.05949361231599,31.05949361231599 0 0,0 -0.36229212029384084,0.3931965430161982 l -7.338979555149898 -6.879883053171617" fill="#ff3e05" stroke="none" /><path d="M 115.32070863581623 114.36230785411682 l 8.360965859355813 7.837938080037836 a32.46032388058124,32.46032388058124 0 0,0 -0.3856494356343794,0.4043518914565214 l -8.22480987234247 -7.980697088076865" fill="#ff5307" stroke="none" /><path d="M 115.07121518719521 114.62390073753431 l 7.191030430038897 6.977600273322638 a31.019871467240364,31.019871467240364 0 0,0 -0.3751327223179995,0.3800074671640729 l -7.069857082665362 -7.100348234467376" fill="#ff3d05" stroke="none" /><path d="M 114.29624159901734 115.38237550388516 l 6.729515045401852 7.240779100608603 a30.8851026666444,30.8851026666444 0 0,0 -0.3925356103090263,0.3585719730878057 l -6.603879885625962 -7.355543840282992" fill="#ff3b05" stroke="none" /><path d="M 112.92097659922987 116.55440617244103 l 7.494910963610253 9.602509482547985 a33.18121006775883,33.18121006775883 0 0,0 -0.4532731391553554,0.3475505145461182 l -7.328509095961404 -9.730099338921475" fill="#ff5e08" stroke="none" /><path d="M 111.1453310114006 117.79835938074945 l 10.54925352498819 16.846462904001505 a40.876872548526705,40.876872548526705 0 0,0 -0.5995679517458211,0.3683036060079867 l -10.257706373310059 -17.025554976837867" fill="#ffcd13" stroke="none" /><line stroke="#e1ed5e" stroke-width="0.3" x1="143.8653032363475" x2="146.44561519142675" y1="172.8068346515853" y2="177.08958963109032" /><path d="M 144.38136562736335 173.6633856474863 a86.0,86.0 0 0,1 -40.68145358897372,12.25698825130547" fill="none" id="id54" stroke="none" /><text fill="#e1ed5e" style="font-size:6.75px; font-family:Arial;" text-anchor="middle"><textPath startOffset="21.466115282336833" xlink:href="#id54">June</textPath></text><path d="M 105.53697534728816 120.25689768951611 l 3.2222286216424725 11.788449726945327 a33.22089621324268,33.22089621324268 0 0,0 -0.5529057488045549,0.14602743354143374 l -3.0188324300264204 -11.842168509790346" fill="#ff5e08" stroke="none" /><path d="M 104.48393922423573 120.51570834832081 l 4.28001340139817 19.58267101288731 a41.044937483442666,41.044937483442666 0 0,0 -0.6915261593685424,0.14491603027858502 l -3.9422957806002494 -19.653443023892436" fill="#ffcf13" stroke="none" /><path d="M 103.7750983002368 120.6578951692458 l 1.9355029220518882 10.591357703456012 a31.766755758529513,31.766755758529513 0 0,0 -0.5387506064950698,0.09366869868305525 l -1.7529033440847686 -10.623104980660074" fill="#ff4806" stroke="none" /><line stroke="#e1ed5e" stroke-width="0.3" x1="102.19456741930631" x2="102.32365962044197" y1="184.97166512339345" y2="189.96999836594603" /><path d="M 102.22038585953345 185.97133177190398 a86.0,86.0 0 0,1 -42.740103519485714,-10.115201625700543" fill="none" id="id55" stroke="none" /><text fill="#e1ed5e" style="font-size:6.75px; font-family:Arial;" text-anchor="middle"><textPath startOffset="22.20632615414155" xlink:href="#id55">July</textPath></text><path d="M 100.54218724476979 120.99299961872073 l 0.35626587040414864 13.794292200166057 a34.79889208139468,34.79889208139468 0 0,0 -0.5989391592995655,0.010311280792216639 l -0.11876702121191515 -13.798380958237432" fill="#ff760a" stroke="none" /><path d="M 100.18074693466247 120.99922214144158 l 0.12430138929654459 14.44136516728457 a35.441900108027376,35.441900108027376 0 0,0 -0.6100966479179901,0.0 l 0.12430138929653464 -14.44136516728457" fill="#ff7f0b" stroke="none" /><path d="M 99.81925306533755 120.99922214144158 l -0.10343853509918023 12.01751377189063 a33.01795892771,33.01795892771 0 0,0 -0.5682867292353645,-0.00978357141064041 l 0.31028495422721264 -12.01395272320083" fill="#ff5b08" stroke="none" /><path d="M 99.45781275523022 120.99299961872073 l -0.3421335493667959 13.247101514640876 a34.251518928213585,34.251518928213585 0 0,0 -0.58925603395211,-0.020295169249344085 l 0.570109934993549 -13.23924954696544" fill="#ff6e0a" stroke="none" /><path d="M 98.37488393609728 120.93702456842531 l -1.3796903650686043 17.77510647509682 a38.82857133099823,38.82857133099823 0 0,0 -0.6659205047065182,-0.05745842319342969 l 1.6854551875166641 -17.748723799624724" fill="#ffb010" stroke="none" /><path d="M 97.2962882734958 120.8252237178851 l -1.5590512588430667 12.008525515046944 a33.10930740683519,33.10930740683519 0 0,0 -0.5645474451425604,-0.07824113172871958 l 1.765527295172458 -11.97990981782562" fill="#ff5d08" stroke="none" /><path d="M 96.93821686468263 120.77559828337769 l -1.751485092497497 11.884627053209268 a33.012995472533675,33.012995472533675 0 0,0 -0.5614789532211154,-0.08769146509525058 l 1.9557999093271297 -11.852717280766912" fill="#ff5b08" stroke="none" /><path d="M 96.58105272829116 120.7198165907248 l -1.0407949350802141 6.307520546416261 a27.39281389846067,27.39281389846067 0 0,0 -0.46457042115292824,-0.08077152261439156 l 1.1492143277051923 -6.288670445280863" fill="#ff0400" stroke="none" /><path d="M 96.22490169976321 120.6578951692458 l -3.2855114185418097 17.978803481048292 a39.27654124531014,39.27654124531014 0 0,0 -0.664021149033127,-0.12726123359584993 l 3.594500182146632 -17.919585049103972" fill="#ffb610" stroke="none" /><path d="M 95.86986931433489 120.58985236759428 l -1.9799696085260874 9.870700235556969 a31.067323516750186,31.067323516750186 0 0,0 -0.5234230633696109,-0.1096883920762241 l 2.149584133325085 -9.835155862754203" fill="#ff3e05" stroke="none" /><path d="M 95.16358092515715 120.4354850818985 l -4.7217575450811 19.951001842407912 a41.502133275108086,41.502133275108086 0 0,0 -0.6937708363036283,-0.17051199220284538 l 5.064481666127938 -19.866768591891038" fill="#ffd513" stroke="none" /><path d="M 94.46302465271185 120.25689768951611 l -2.860849789178739 10.46635353232169 a31.85030035435825,31.85030035435825 0 0,0 -0.5276060371327527,-0.14910673620797524 l 3.0405869944161057 -10.415558002775194" fill="#ff4a06" stroke="none" /><path d="M 93.08242187328487 119.8279376855182 l -6.220495920911333 17.82988254466147 a39.88383650264157,39.88383650264157 0 0,0 -0.6462709242329058,-0.2317297602117899 l 6.526486405773965 -17.72016524340972" fill="#ffbf11" stroke="none" /><path d="M 92.40401165467489 119.57807347666478 l -3.5867695481164836 9.24462157713891 a30.9160447707641,30.9160447707641 0 0,0 -0.4944784690783802,-0.19676318771885457 l 3.745369093236722 -9.181511545013988" fill="#ff3b05" stroke="none" /><line stroke="#e1ed5e" stroke-width="0.3" x1="58.666819895761336" x2="56.23545636021788" y1="174.27360380694188" y2="178.64263932499728" /><path d="M 58.180547188652646 175.14741091055294 a86.0,86.0 0 0,1 -31.652253787137756,-30.449443065178592" fill="none" id="id56" stroke="none" /><text fill="#e1ed5e" style="font-size:6.75px; font-family:Arial;" text-anchor="middle"><textPath startOffset="22.20632615414155" xlink:href="#id56">August</textPath></text><path d="M 87.95078237400918 117.19931262002967 l -5.674528149135354 8.099943634316405 a30.88986130309381,30.88986130309381 0 0,0 -0.43285914419232147,-0.30883350625813083 l 5.8131146211765605 -8.001065866214056" fill="#ff3b05" stroke="none" /><path d="M 87.07902340077011 116.55440617244103 l -6.183616734318557 7.92247414492756 a31.050010571834747,31.050010571834747 0 0,0 -0.4184987068287926,-0.3324806832089426 l 6.319072933864708 -7.814859547713487" fill="#ff3d05" stroke="none" /><path d="M 86.51685102203217 116.09983520530335 l -7.200446498023156 8.59784329404099 a32.21469299980073,32.21469299980073 0 0,0 -0.4220654383674574,-0.35969332309089014 l 7.3473774129676706 -8.472625580727149" fill="#ff4f07" stroke="none" /><path d="M 85.97065885151581 115.62618273729859 l -4.26387750246772 4.749198719871157 a27.382439959519886,27.382439959519886 0 0,0 -0.34801836009012366,-0.31790652050665097 l 4.3449954120247 -4.6750994327779285" fill="#ff0400" stroke="none" /><path d="M 85.70375840098266 115.38237550388516 l -8.177489836878076 8.798761442217751 a33.01205823118178,33.01205823118178 0 0,0 -0.4129087966826287,-0.39043103973104887 l 8.327734467951519 -8.656695765740775" fill="#ff5b08" stroke="none" /><path d="M 82.6465618267979 111.8261652097733 l -7.2731775641862075 4.956585468285397 a29.80152551462527,29.80152551462527 0 0,0 -0.28523876583155067,-0.4263932532142 l 7.357419435428489 -4.830655300865374" fill="#ff2a04" stroke="none" /><path d="M 82.24976979558568 111.22182372390057 l -16.880617564608322 10.672048332843842 a40.971175853742764,40.971175853742764 0 0,0 -0.37173608354859156,-0.5993569300261277 l 17.06181828782487 -10.37989507145245" fill="#ffce13" stroke="none" /><line stroke="#e1ed5e" stroke-width="0.3" x1="26.63291911575756" x2="22.317208475507996" y1="142.92168965132927" y2="145.44649492493687" /><path d="M 25.769776987707644 143.4266507060508 a86.0,86.0 0 0,1 -11.730757126820373,-40.83630448921669" fill="none" id="id57" stroke="none" /><text fill="#e1ed5e" style="font-size:6.75px; font-family:Arial;" text-anchor="middle"><textPath startOffset="21.46611528233685" xlink:href="#id57">September</textPath></text><path d="M 81.87401531095188 110.60418214915194 l -19.13871968841774 11.196659004140422 a43.173311980099584,43.173311980099584 0 0,0 -0.369744475195789,-0.64468065835843 l 19.328616159765907 -10.865558499923685" fill="#ffec16" stroke="none" /><path d="M 81.69416730710424 110.29060199501025 l -8.793501382245507 4.943256304444381 a31.087688013166485,31.087688013166485 0 0,0 -0.25821076976702606,-0.4687275495151967 l 8.87728856146405 -4.791158236531361" fill="#ff3e05" stroke="none" /><path d="M 81.51974371655577 109.97397251340807 l -14.628359556683487 7.895066707777218 a37.622905330894035,37.622905330894035 0 0,0 -0.30268073756891,-0.5725578872661844 l 14.762092802477284 -7.642093805424907" fill="#ff9f0e" stroke="none" /><path d="M 81.35079622478065 109.6543875284942 l -11.739574505349017 6.077385558136885 a34.21938821537863,34.21938821537863 0 0,0 -0.2662941876789202,-0.5254236956266483 l 11.842447362814204 -5.874407650807552" fill="#ff6d0a" stroke="none" /><path d="M 81.02952815118164 109.00673069616217 l -9.049053012744688 4.296276033121598 a31.01715269825906,31.01715269825906 0 0,0 -0.22483799781095662,-0.4842810447575013 l 9.121665627395473 -4.139874921085269" fill="#ff3d05" stroke="none" /><path d="M 80.58989483394504 108.01547362559985 l -14.720138183348167 6.0787346778602425 a36.92587465166938,36.92587465166938 0 0,0 -0.23755186341428214,-0.5895842435077178 l 14.822592661019836 -5.824451066509719" fill="#ff950d" stroke="none" /><path d="M 80.45479744820244 107.68017299344265 l -9.338491320299797 3.6695055294307477 a31.033578173804074,31.033578173804074 0 0,0 -0.19108662774070898,-0.4988668870627211 l 9.400272227634016 -3.508215075534869" fill="#ff3d05" stroke="none" /><path d="M 79.97269907076064 106.31721596034903 l -12.167854807251109 3.838109132287143 a33.75883115029311,33.75883115029311 0 0,0 -0.17003716796128981,-0.5556913031821931 l 12.232118747718529 -3.6280908565529018" fill="#ff6609" stroke="none" /><path d="M 79.67330655649465 105.27499134158121 l -12.804778022835173 3.3229749535533277 a34.22892674240905,34.22892674240905 0 0,0 -0.14309107103841592,-0.5715776998032845 l 12.860080408168649 -3.102069414352651" fill="#ff6d0a" stroke="none" /><path d="M 79.50377843672027 104.57218783832718 l -12.913647997805857 2.8807077510220904 a34.23105369039193,34.23105369039193 0 0,0 -0.12333931347422787,-0.5762002107798512 l 12.961321350004525 -2.6579937208260755" fill="#ff6d0a" stroke="none" /><path d="M 79.4281124754447 104.21870165774334 l -19.782607469273483 4.056843049792727 a41.19429458569936,41.19429458569936 0 0,0 -0.136470944540345,-0.6958624060664628 l 19.849508346789495 -3.7157169166583093" fill="#ffd113" stroke="none" /><path d="M 79.29508885075956 103.50808413554451 l -42.70242484759822 7.235177107371291 a64.31102487404107,64.31102487404107 0 0,0 -0.17553310100035363,-1.093044787488649 l 42.82063970295987 -6.4990530901894275" fill="#32ff4c" stroke="none" /><path d="M 79.23777060512086 103.15116336523772 l -7.814374615217262 1.18601767379517 a28.903865418230907,28.903865418230907 0 0,0 -0.07042350968629955,-0.49254186272300204 l 7.83363217592016 -1.0513303390917674" fill="#ff1c02" stroke="none" /><path d="M 79.10278846688536 102.07522291339032 l -10.256458659138664 1.018530055359625 a31.30690776616786,31.30690776616786 0 0,0 -0.04863811929464724,-0.5367175934673268 l 10.272471374710387 -0.841831073343732" fill="#ff4106" stroke="none" /><path d="M 79.07016306316243 101.71520430193888 l -10.002141990693717 0.8196775265289551 a31.03567215733431,31.03567215733431 0 0,0 -0.03905091726486876,-0.5328187399808835 l 10.014769466622921 -0.6473856500513109" fill="#ff3d05" stroke="none" /><path d="M 79.04373962182676 101.35467743843564 l -17.785465923448964 1.1497074851988678 a38.82258750618682,38.82258750618682 0 0,0 -0.037368864832769466,-0.667246184572633 l 17.802621139169265 -0.8433895842907972" fill="#ffb010" stroke="none" /><line stroke="#e1ed5e" stroke-width="0.3" x1="15.007084014347285" x2="10.007500721073583" y1="101.09737516637583" y2="101.16192664675087" /><path d="M 14.007167355692545 101.11028546245083 a86.0,86.0 0 0,1 10.666146001902534,-42.60595125391555" fill="none" id="id58" stroke="none" /><text fill="#e1ed5e" style="font-size:6.75px; font-family:Arial;" text-anchor="middle"><textPath startOffset="22.20632615414155" xlink:href="#id58">October</textPath></text><path d="M 79.00019446554 99.90962569577889 l -16.543996313412773 -0.07119838102347957 a37.544149516601806,37.544149516601806 0 0,0 0.008343727550733511,-0.6462308939146671 l 16.540319578744324 0.3559655329986187" fill="#ff9e0e" stroke="none" /><path d="M 79.21141760316559 97.0276538004421 l -9.914859326519744 -1.4176240532312487 a31.015692358542935,31.015692358542935 0 0,0 0.08011516768336299,-0.5278588561293834 l 9.888988265397078 1.5880820217527243" fill="#ff3d05" stroke="none" /><path d="M 79.26566170972629 96.67025291283419 l -6.04296217985023 -0.9704450382990176 a27.120388507232153,27.120388507232153 0 0,0 0.07798808460952797,-0.46029009001779175 l 6.025362233720479 1.0743209166326373" fill="#ff0000" stroke="none" /><path d="M 79.3925641242962 95.95851677861259 l -48.119030986575325 -9.436994371092434 a70.03568094609298,70.03568094609298 0 0,0 0.2421924029227653,-1.181016169532594 l 47.94945928773756 10.26388619678843" fill="#3aff94" stroke="none" /><line stroke="#e1ed5e" stroke-width="0.3" x1="26.266209847984243" x2="21.928928074336255" y1="57.711370442889674" y2="55.22380399835377" /><path d="M 25.398753493254645 57.213857153982495 a86.0,86.0 0 0,1 29.58750427330803,-30.492523968695096" fill="none" id="id59" stroke="none" /><text fill="#e1ed5e" style="font-size:6.75px; font-family:Arial;" text-anchor="middle"><textPath startOffset="21.46611528233685" xlink:href="#id59">November</textPath></text><line stroke="#e1ed5e" stroke-width="0.3" x1="56.76296977257108" x2="54.21961505331056" y1="26.818313649435495" y2="22.513508569990535" /><path d="M 56.25429882871898 25.957352633546506 a86.0,86.0 0 0,1 42.26535254187918,-11.944610805530505" fill="none" id="id60" stroke="none" /><text fill="#e1ed5e" style="font-size:6.75px; font-family:Arial;" text-anchor="middle"><textPath startOffset="22.20632615414155" xlink:href="#id60">December</textPath></text></svg>