<?xml version="1.0" encoding="utf-8" ?>
<svg baseProfile="full" height="200mm" version="1.1" viewBox="0,0,200,200" width="200mm" xmlns="http://www.w3.org/2000/svg" xmlns:ev="http://www.w3.org/2001/xml-events" xmlns:xlink="http://www.w3.org/1999/xlink"><defs /><rect fill="#1a1a1a" height="200" width="200" x="0" y="0" /><text alignment-baseline="middle" fill="#e1ed5e" style="dominant-baseline: central; font-size:9.0px; font-family:Arial;" text-anchor="middle" x="100.0" y="100.0">2016</text><line stroke="#e1ed5e" stroke-width="0.3" x1="100.0" x2="100.0" y1="15.0" y2="10.0" /><path d="M 100.0 14.0 a86.0,86.0 0 0,1 42.35913384403234,11.155469271406648" fill="none" id="id25" stroke="none" /><text fill="#e1ed5e" style="font-size:6.75px; font-family:Arial;" text-anchor="middle"><textPath startOffset="22.145653131862478" xlink:href="#id25">January</textPath></text><path d="M 100.0 79.0 l 0.0 -9.60853388112806 a30.60853388112806,30.60853388112806 0 0,0 0.5254361859115773,0.004510237713145832 l -0.16494326106272253 9.60711804160935" fill="#ff6f0a" stroke="none" /><path d="M 100.36049292484886 79.00309439819443 l 1.0693175328956748 -62.28238544759176 a83.29156425254183,83.29156425254183 0 0,0 1.429389086039879,0.036815992464236794 l -2.1383199330062954 62.25485173777747" fill="#4cd9ff" stroke="none" /><path d="M 101.80034050326958 79.07731436759882 l 1.2370640279416905 -14.376559165763709 a35.42968401788244,35.42968401788244 0 0,0 0.6055109077690017,0.05734251251304161 l -1.4836744990957051 14.353204897745483" fill="#ffb010" stroke="none" /><path d="M 102.15924093988457 79.11130261209362 l 0.23519704379133635 -2.275318045122853 a23.287441771033716,23.287441771033716 0 0,0 0.3972883014344448,0.04451698283982611 l -0.27422124682657784 2.270945301776056" fill="#ff0701" stroke="none" /><path d="M 102.87502721639298 79.19773525538626 l 4.699957697242048 -34.00655261593542 a55.32980080303771,55.32980080303771 0 0,0 0.939750040865308,0.13811089393723194 l -5.283032843715038 33.9208606486993" fill="#63ff29" stroke="none" /><path d="M 103.23170211078529 79.25015418208739 l 2.2346560161519604 -14.348094657758077 a35.52107116636063,35.52107116636063 0 0,0 0.601697339501304,0.09900906824224877 l -2.480630858706335 14.30761959102016" fill="#ffb110" stroke="none" /><path d="M 103.94208987418118 79.37332000966035 l 3.03502906037168 -15.880554525071885 a37.1679749325969,37.1679749325969 0 0,0 0.6256671316366809,0.12515094915731684 l -3.3071926775393177 15.826114179251709" fill="#ffc712" stroke="none" /><path d="M 104.29559338865022 79.4440306129975 l 2.939093636528185 -14.064627014660589 a35.36843778793648,35.36843778793648 0 0,0 0.5932425263990115,0.12929444747943641 l -3.1800985795463306 14.012101109047434" fill="#ffaf10" stroke="none" /><path d="M 104.64783097203109 79.52079915486377 l 3.2085482769353013 -14.137455725064694 a35.49698025188656,35.49698025188656 0 0,0 0.593083286177013,0.13996604065571022 l -3.4507637168521996 14.080293540762755" fill="#ffb110" stroke="none" /><path d="M 105.3480935250658 79.69241777938227 l 5.612224754130782 -21.310531519490333 a43.0371463745665,43.0371463745665 0 0,0 0.7128152361795373,0.19428096236929202 l -5.9772213912450125 21.2110500629769" fill="#eeff19" stroke="none" /><path d="M 105.69591212413111 79.78721728523813 l 1.8718482580374347 -6.642529113892851 a27.901232421099287,27.901232421099287 0 0,0 0.45989201165606114,0.1338678620550873 l -1.9856002820751002 6.609417557535249" fill="#ff4a06" stroke="none" /><path d="M 106.04205211174951 79.88797359093562 l 2.241829441349238 -7.462321094741196 a28.791792820982838,28.791792820982838 0 0,0 0.47212969306308533,0.14626698577650205 l -2.3695997672839537 7.422737521158048" fill="#ff5608" stroke="none" /><path d="M 107.74402155503746 80.48000691201159 l 3.1709828858248272 -7.9929483116128415 a29.59897407684827,29.59897407684827 0 0,0 0.47068787363349057,0.1914246605626254 l -3.3077252206487575 7.937336394470923" fill="#ff6109" stroke="none" /><path d="M 108.4095320186766 80.7573450057729 l 2.4700902364356647 -5.6520498547100235 a27.168226109365836,27.168226109365836 0 0,0 0.42574757527523743,0.19043147513007902 l -2.566751214566534 5.608814628670093" fill="#ff3f05" stroke="none" /><path d="M 109.06512990194946 81.05736502329252 l 6.196064457784336 -12.947391662939022 a35.353611588675555,35.353611588675555 0 0,0 0.5451859411696376,0.2666777634419771 l -6.41741064821604 12.839120149399825" fill="#ffaf10" stroke="none" /><path d="M 110.34350942703115 81.72400993836675 l 1.3367676081428002 -2.361940276990043 a23.713984065953156,23.713984065953156 0 0,0 0.35255640202043304,0.20354853361102296 l -1.3771164780236307 2.338644846102848" fill="#ff0d01" stroke="none" /><line stroke="#e1ed5e" stroke-width="0.3" x1="143.13028292997686" x2="145.6673583964461" y1="26.7553504044142" y2="22.446841604673864" /><path d="M 143.63769802327073 25.89364864446614 a86.0,86.0 0 0,1 29.32050498858742,28.57503671076993" fill="none" id="id26" stroke="none" /><text fill="#e1ed5e" style="font-size:6.75px; font-family:Arial;" text-anchor="middle"><textPath startOffset="20.669276256404974" xlink:href="#id26">February</textPath></text><path d="M 111.27062007382361 82.28071324371311 l 3.8588029876675196 -6.066679226753563 a28.189920537666254,28.189920537666254 0 0,0 0.40608838038939576,0.2632215819477836 l -3.9623770003139227 5.999543803101885" fill="#ff4e07" stroke="none" /><path d="M 111.5731344415666 82.4767994020092 l 6.12287660076537 -9.270815564588904 a32.110249281668885,32.110249281668885 0 0,0 0.4573473690608462,0.3077237206687157 l -6.281120257923217 9.164342169863069" fill="#ff840c" stroke="none" /><path d="M 112.16784306229584 82.88440491214696 l 5.939350150586709 -8.354439791997171 a31.25048996143014,31.25048996143014 0 0,0 0.43455888113596614,0.3145871177171335 l -6.081890042096643 8.251251902906963" fill="#ff780b" stroke="none" /><path d="M 112.7482090630111 83.31218511350987 l 9.261025685426155 -12.122979905141158 a36.25559695739827,36.25559695739827 0 0,0 0.4913324926375669,0.3820631180729853 l -9.467768122698947 11.962215735447382" fill="#ffbb11" stroke="none" /><path d="M 113.31354834802062 83.75963576809568 l 5.706726094519898 -6.961277934630782 a30.001450616486864,30.001450616486864 0 0,0 0.39548435919133673,0.32992711832606436 l -5.825384787873128 6.862288632392847" fill="#ff6709" stroke="none" /><path d="M 113.59037401385872 83.9905735841838 l 6.911353354502486 -8.14155687325311 a31.679501557245437,31.679501557245437 0 0,0 0.4115627664619514,0.35549811535990133 l -7.050095600727297 8.021714625428489" fill="#ff7e0b" stroke="none" /><path d="M 114.65682725009322 84.96080404539774 l 10.055564629063372 -10.317895156312883 a35.40740575072193,35.40740575072193 0 0,0 0.4316467599724592,0.42795749359418783 l -10.231203309165794 10.143757652490036" fill="#ffb010" stroke="none" /><path d="M 114.91283532996326 85.21462403516908 l 10.142208123276875 -10.055523104644939 a35.282084249993474,35.282084249993474 0 0,0 0.42273514667654377,0.4337635014239255 l -10.31333007110423 9.879936911153273" fill="#ffae10" stroke="none" /><path d="M 116.1254893667686 86.54754324733833 l 11.262868427691602 -9.395885420176972 a35.667476539902374,35.667476539902374 0 0,0 0.388186438710777,0.4735243369951063 l -11.422501685641006 9.201158801483372" fill="#ffb310" stroke="none" /><path d="M 116.7966241395341 87.39550010848427 l 5.706225071101847 -4.282057673742919 a28.13421491709718,28.13421491709718 0 0,0 0.2865643691124614,0.3887796029816715 l -5.7788914597981345 4.183471761492373" fill="#ff4d07" stroke="none" /><path d="M 117.42321728460499 88.27688183743584 l 12.07026518305309 -8.121413093978038 a35.54814944356366,35.54814944356366 0 0,0 0.33631183504904527,0.5092189828778163 l -12.20790145702286 7.913014232761164" fill="#ffb210" stroke="none" /><path d="M 117.62189284568427 88.57770195909679 l 10.995513571803741 -7.127159053217005 a34.10334746839804,34.10334746839804 0 0,0 0.31420925673666744,0.49398914036040076 l -11.116240520166297 6.937356238177933" fill="#ff9f0e" stroke="none" /><path d="M 117.81537515405839 88.88188828441811 l 6.412964508814692 -4.002164154304727 a28.559327464088227,28.559327464088227 0 0,0 0.2559895401119076,0.41813967541198926 l -6.480722013382002 3.8914873627681827" fill="#ff5307" stroke="none" /><line stroke="#e1ed5e" stroke-width="0.3" x1="172.87174338648825" x2="177.1583165268699" y1="56.24261187166439" y2="53.66864786411523" /><path d="M 173.72905801456457 55.72781907015455 a86.0,86.0 0 0,1 12.242430191666344,42.057860355516425" fill="none" id="id27" stroke="none" /><text fill="#e1ed5e" style="font-size:6.75px; font-family:Arial;" text-anchor="middle"><textPath startOffset="22.145653131862474" xlink:href="#id27">March</textPath></text><path d="M 118.00360718960297 89.18935116829356 l 6.219973535339769 -3.734915393616113 a28.255181856976275,28.255181856976275 0 0,0 0.2461245517478748,0.4179732968344181 l -6.2831717972174115 3.6275909284881385" fill="#ff4f07" stroke="none" /><path d="M 118.18653347947321 89.5 l 8.820742412963984 -5.092658006577106 a31.18531601315421,31.18531601315421 0 0,0 0.26368912500956154,0.4659134176879379 l -8.90686490299492 4.94048781879005" fill="#ff770b" stroke="none" /><path d="M 118.53625476483649 90.13048839642627 l 8.110862330232123 -4.3185773447110405 a30.188917130012108,30.188917130012108 0 0,0 0.2396308996170044,0.4595238465340638 l -8.183801298824074 4.178707255072479" fill="#ff6a09" stroke="none" /><path d="M 118.70294669586156 90.45014215332178 l 9.048250261233258 -4.620101054721328 a31.159535744597036,31.159535744597036 0 0,0 0.23915698455219686,0.47847417401711795 l -9.126227158997192 4.464095024540459" fill="#ff770b" stroke="none" /><path d="M 118.8641267826498 90.77261029715802 l 6.504015532134599 -3.181439917141653 a28.24042664410257,28.24042664410257 0 0,0 0.20927600713732927,0.43730636576236664 l -6.55767079723184 3.0693210493141825" fill="#ff4e07" stroke="none" /><path d="M 119.16976305983485 91.42560881287824 l 6.640371300955843 -2.970153620804459 a28.274362071394016,28.274362071394016 0 0,0 0.19437428050922703,0.44476639262250134 l -6.690379463482041 2.8557251584061083" fill="#ff4f07" stroke="none" /><path d="M 119.4528033332814 92.08871423366111 l 6.739151687472709 -2.7407543225960347 a28.27515633671161,28.27515633671161 0 0,0 0.17899698804487738,0.4511893393599749 l -6.78520735048371 2.6246639660224944" fill="#ff4f07" stroke="none" /><path d="M 119.58574465831526 92.42381321644754 l 14.797436680887436 -5.7239663933123595 a36.86593595085529,36.86593595085529 0 0,0 0.22324837454337604,0.5921928369787639 l -14.893515739245254 5.469105276139437" fill="#ffc312" stroke="none" /><path d="M 119.71291397450082 92.76114493625339 l 25.735634673420538 -9.450481527764111 a48.415953259924706,48.415953259924706 0 0,0 0.27979770737070736,0.7826439850114206 l -25.89407255083519 9.007302586371774" fill="#afff20" stroke="none" /><path d="M 120.05942366710727 93.78553927170692 l 12.101755957270514 -3.7491549302667333 a33.669201235297976,33.669201235297976 0 0,0 0.1662996883173106,0.5535575763659597 l -12.164331965591453 3.54085975031005" fill="#ff990e" stroke="none" /><path d="M 120.16314734710363 94.1308016681162 l 6.996397160503465 -2.0365492468377995 a28.286776108972784,28.286776108972784 0 0,0 0.13171064868019264,0.46739462705443396 l -7.030326301258239 1.9161466958803521" fill="#ff4f07" stroke="none" /><path d="M 120.26092885502905 94.47779374421319 l 11.27894596842657 -3.0741268789395457 a32.69037545276047,32.69037545276047 0 0,0 0.14292001633363044,0.5426905810573905 l -11.33005546556493 2.8800557935093565" fill="#ff8c0c" stroke="none" /><path d="M 120.35273937422433 94.82641323984039 l 8.659870970728896 -2.201305336597279 a29.935273382197362,29.935273382197362 0 0,0 0.12232475492082785,0.49912674350194003 l -8.696383252166015 2.0523227684872443" fill="#ff6609" stroke="none" /><path d="M 120.82617615685814 97.30363454192243 l 25.099661209056883 -3.2496536562360703 a46.309153318412754,46.309153318412754 0 0,0 0.0953040473096749,0.7892542280468113 l -25.151747342626223 2.818305751265846" fill="#c7ff1e" stroke="none" /><path d="M 120.86939407059847 97.66154086499901 l 15.554944012741283 -1.7429639211360486 a36.652290773873894,36.652290773873894 0 0,0 0.0646958442406576,0.6258736056896292 l -15.582572249463606 1.475685793163488" fill="#ffc011" stroke="none" /><path d="M 120.9064616781168 98.02013634271609 l 18.626807551365054 -1.7639780413330652 a39.7101463940263,39.7101463940263 0 0,0 0.058442703199129746,0.6791927995412143 l -18.654343877261926 1.443964194416189" fill="#ffe715" stroke="none" /><path d="M 120.96210409425399 98.7389718711861 l 20.404610399378765 -1.227490692509186 a41.4414984516946,41.4414984516946 0 0,0 0.03662325437149316,0.7104813508259333 l -20.42267524320683 0.8770375483065219" fill="#fffd17" stroke="none" /><path d="M 120.98066250479742 99.09900007780936 l 7.251064531212369 -0.3113919103807036 a28.257747705566555,28.257747705566555 0 0,0 0.01665230822002298,0.48481378456396396 l -7.255341526429239 0.1868718612526197" fill="#ff4f07" stroke="none" /><line stroke="#e1ed5e" stroke-width="0.3" x1="184.99686870605535" x2="189.99668451229388" y1="99.2704041080226" y2="99.22748670261217" /><path d="M 185.99683186730306 99.26182062694052 a86.0,86.0 0 0,1 -10.086455211305974,41.156179273409016" fill="none" id="id28" stroke="none" /><text fill="#e1ed5e" style="font-size:6.75px; font-family:Arial;" text-anchor="middle"><textPath startOffset="21.40746469413373" xlink:href="#id28">April</textPath></text><path d="M 120.99922638620191 99.81974689727618 l 14.82781126256982 -0.12727892625786158 a35.8283575207594,35.8283575207594 0 0,0 0.0,0.6150640579633752 l -14.82781126256982 -0.12727892625785978" fill="#ffb510" stroke="none" /><path d="M 120.99303781780057 100.54070618675476 l 15.422772387457558 0.3972359083608981 a36.4278872332609,36.4278872332609 0 0,0 -0.021466976502628972,0.6249875983480434 l -15.413680723958082 -0.6619297712730522" fill="#ffbd11" stroke="none" /><path d="M 120.96210409425399 101.26102812881392 l 14.54769783820497 0.8751533768258721 a35.57399759244811,35.57399759244811 0 0,0 -0.041902846950506764,0.609258198249596 l -14.530531030089398 -1.1247549992298116" fill="#ffb210" stroke="none" /><path d="M 120.93736805541906 101.62068470465957 l 7.255423118632916 0.5616156358849685 a28.27712695731382,28.27712695731382 0 0,0 -0.0416163597507917,0.483645183035883 l -7.244713136184384 -0.6860818662965089" fill="#ff4f07" stroke="none" /><path d="M 120.86939407059847 102.33845913500097 l 7.262538355178975 0.8137825709031834 a28.307989151138056,28.307989151138056 0 0,0 -0.05825772539506007,0.48245753860837437 l -7.247498543524252 -0.9383337864349663" fill="#ff4f07" stroke="none" /><path d="M 120.7213421655516 103.40968896794604 l 14.645218991541691 2.409865211898748 a35.84216593525801,35.84216593525801 0 0,0 -0.10511173002840411,0.6062565264485721 l -14.601692444021053 -2.660914771267908" fill="#ffb610" stroke="none" /><path d="M 120.65975698304385 103.76489593502545 l 6.7731659086652 1.234296454586348 a27.88471235158804,27.88471235158804 0 0,0 -0.08986008921321109,0.4701859580229132 l -6.75097952716983 -1.3503849776425756" fill="#ff4906" stroke="none" /><path d="M 120.592083275326 104.11899336999214 l 7.754547715958125 1.5511267219665756 a28.908160619680796,28.908160619680796 0 0,0 -0.10151209237867716,0.4857721098230641 l -7.726777912755084 -1.6840152830750488" fill="#ff5808" stroke="none" /><path d="M 120.51834098615036 104.47187691870673 l 7.67168222176312 1.6720074336571322 a28.851771581619083,28.851771581619083 0 0,0 -0.10962180938249802,0.48301391872053595 l -7.641849550822958 -1.803455686316685" fill="#ff5708" stroke="none" /><path d="M 120.35273937422433 105.17358676015961 l 7.078252068381742 1.7992639964932378 a28.303355617291768,28.303355617291768 0 0,0 -0.12374027496151957,0.4698619790408306 l -7.046322312615492 -1.9205064799068716" fill="#ff4f07" stroke="none" /><path d="M 120.05942366710727 106.21446072829308 l 14.244151975305586 4.412874693081351 a35.912053130016666,35.912053130016666 0 0,0 -0.18748705485389056,0.5873005289794285 l -14.16630020467444 -4.656744255752163" fill="#ffb710" stroke="none" /><path d="M 119.94978838288452 106.5578916946017 l 13.946246357685533 4.5844081854221255 a35.68041504453544,35.68041504453544 0 0,0 -0.19626705247583606,0.5802286662750392 l -13.865493883637333 -4.823138526171325" fill="#ffb410" stroke="none" /><path d="M 119.83427380445688 106.89939002012753 l 11.281570216064079 3.9243157439215266 a32.94462559471725,32.94462559471725 0 0,0 -0.19038829334004007,0.5325499411678525 l -11.212541752680096 -4.117400641470301" fill="#ff8f0d" stroke="none" /><path d="M 119.58574465831526 107.57618678355244 l 25.391697017958673 9.822053882324745 a48.22519090693584,48.22519090693584 0 0,0 -0.3052914656752218,0.7695339246474228 l -25.219346877317328 -10.256488824185732" fill="#b1ff20" stroke="none" /><path d="M 119.16976305983485 108.57439118712176 l 13.467659071172953 6.023912600827978 a35.75348649912153,35.75348649912153 0 0,0 -0.25540849573634494,0.558113657078591 l -13.362266110581551 -6.254215240121257" fill="#ffb510" stroke="none" /><path d="M 119.0197475246899 108.90220220490707 l 9.161880288336056 4.288222585396788 a31.11577497573507,31.11577497573507 0 0,0 -0.2305838090893473,0.481831476698312 l -9.086917221286797 -4.444866564160204" fill="#ff760a" stroke="none" /><path d="M 118.8641267826498 109.22738970284198 l 9.067951073610791 4.435589270926089 a31.09466140362091,31.09466140362091 0 0,0 -0.2386590582708293,0.47747798790678336 l -8.990472102128228 -4.590599114996618" fill="#ff760a" stroke="none" /><path d="M 118.70294669586154 109.54985784667822 l 9.057934592015648 4.625045943022406 a31.17040948282328,31.17040948282328 0 0,0 -0.24742170226349364,0.4744637378645472 l -8.977204820777207 -4.779855923991456" fill="#ff770b" stroke="none" /><line stroke="#e1ed5e" stroke-width="0.3" x1="174.33088141563837" x2="178.70328620479359" y1="141.23008692659167" y2="143.65538615756765" /><path d="M 175.20536237346943 141.71514677278685 a86.0,86.0 0 0,1 -30.301960400862466,31.631185727798858" fill="none" id="id29" stroke="none" /><text fill="#e1ed5e" style="font-size:6.75px; font-family:Arial;" text-anchor="middle"><textPath startOffset="22.145653131862474" xlink:href="#id29">May</textPath></text><path d="M 118.36410011445183 110.18625677009912 l 16.428153123286336 9.11241960833187 a39.78617593232997,39.78617593232997 0 0,0 -0.33641416090339327,0.5944115877339882 l -16.269305597361566 -9.39308796616498" fill="#ffe815" stroke="none" /><path d="M 118.18653347947321 110.5 l 9.696926748673567 5.598523268658764 a32.19704653731753,32.19704653731753 0 0,0 -0.2804612508500372,0.476284518629329 l -9.599391787693765 -5.764158955581642" fill="#ff850c" stroke="none" /><path d="M 118.00360718960297 110.81064883170644 l 12.612999748724716 7.573743948191056 a35.7122180535122,35.7122180535122 0 0,0 -0.3201039760964309,0.5228657882057867 l -12.48112780817288 -7.7891468525214" fill="#ffb410" stroke="none" /><path d="M 117.62189284568427 111.42229804090321 l 9.716061106593582 6.2978334231739215 a32.5786246701889,32.5786246701889 0 0,0 -0.3082179302638493,0.4666812303253473 l -9.606518737409006 -6.463694531838329" fill="#ff8a0c" stroke="none" /><path d="M 117.21940702142032 112.02048342749411 l 8.600890504349403 6.004089550854681 a31.489252061157178,31.489252061157178 0 0,0 -0.31322044353143097,0.44058377949774613 l -8.49655496228801 -6.150850557061932" fill="#ff7c0b" stroke="none" /><path d="M 117.01052211995028 112.31430620078461 l 12.907657624969444 9.34414871030605 a36.93489066431728,36.93489066431728 0 0,0 -0.37620469142807567,0.510393916125177 l -12.74535091395754 -9.564348935700103" fill="#ffc412" stroke="none" /><path d="M 116.79662413953412 112.60449989151573 l 8.137399703744405 6.106456442140249 a31.1737939933073,31.1737939933073 0 0,0 -0.32487253208569356,0.42526857304855714 l -8.031375194304406 -6.245245928429684" fill="#ff770b" stroke="none" /><path d="M 116.35404254752997 113.17365903436017 l 7.828827758608427 6.306349468695642 a31.052889519699082,31.052889519699082 0 0,0 -0.3379636510266053,0.4122607021314708 l -7.719417288343194 -6.439812452525606" fill="#ff760a" stroke="none" /><path d="M 116.1254893667686 113.45245675266167 l 8.615441481490773 7.187307702654057 a32.2197693351344,32.2197693351344 0 0,0 -0.3579546356396961,0.4216696607194331 l -8.490792282343962 -7.334144145823047" fill="#ff850c" stroke="none" /><path d="M 115.89218393027572 113.72728997021213 l 5.476581284349309 4.730540476093986 a28.236777995769156,28.236777995769156 0 0,0 -0.32000194059289166,0.36410346644869185 l -5.394568279797832 -4.823856220353971" fill="#ff4e07" stroke="none" /><path d="M 115.6541949942343 113.99807769240083 l 15.626120374435212 13.972973194259785 a41.96233808151757,41.96233808151757 0 0,0 -0.4847695093631668,0.5328466099088625 l -15.383953164230165 -14.23915737972632" fill="#fbff18" stroke="none" /><path d="M 114.91283532996324 114.78537596483092 l 12.163416000774355 12.05945580494331 a38.12831466079703,38.12831466079703 0 0,0 -0.4648169821424361,0.46084421129532704 l -11.954607098501954 -12.266480026467299" fill="#ffd313" stroke="none" /><path d="M 114.65682725009322 115.03919595460226 l 7.040517787269164 7.224191485502448 a31.08750877729777,31.08750877729777 0 0,0 -0.38537780383972475,0.3691832184798509 l -6.915467497564127 -7.34398683428788" fill="#ff760a" stroke="none" /><path d="M 114.39649973595853 115.28858382429668 l 14.148303532276088 15.02500805695975 a41.63795920029695,41.63795920029695 0 0,0 -0.5245792565543935,0.485542728353178 l -13.888294504407726 -15.265668531445307" fill="#ffff18" stroke="none" /><path d="M 113.59037401385872 116.0094264158162 l 9.461504552738653 11.145628572511335 a35.620024099770674,35.620024099770674 0 0,0 -0.4695493756470649,0.39171478926702813 l -9.268780842929692 -11.306405545690232" fill="#ffb310" stroke="none" /><path d="M 113.03279911837588 116.46651593811092 l 9.166426046049104 11.581479865669287 a35.770038670788594,35.770038670788594 0 0,0 -0.4847522517009365,0.37694628292043225 l -8.966263849712936 -11.737127200210512" fill="#ffb510" stroke="none" /><path d="M 112.7482090630111 116.68781488649013 l 4.714944467265827 6.172013659401689 a28.766881867341723,28.766881867341723 0 0,0 -0.3949925907050028,0.2964098038588845 l -4.608298887650058 -6.2520424905245875" fill="#ff5607" stroke="none" /><path d="M 112.45986205192187 116.90419585922612 l 4.294059136400399 5.825715916462768 a28.237258445449587,28.237258445449587 0 0,0 -0.3926578895737777,0.2842540311384337 l -4.193420236452654 -5.898570718974279" fill="#ff4e07" stroke="none" /><path d="M 112.16784306229584 117.11559508785304 l 7.33789471136421 10.321667861264407 a33.66418280953514,33.66418280953514 0 0,0 -0.473871318577265,0.3307989830681747 l -7.1596283016131865 -10.446111660137703" fill="#ff990e" stroke="none" /><path d="M 111.5731344415666 117.5232005979908 l 6.379929090602996 9.660025796819472 a32.576683186316366,32.576683186316366 0 0,0 -0.46928165320343806,0.30418269790638586 l -6.213161805142549 -9.768122336429752" fill="#ff8a0c" stroke="none" /><path d="M 111.27062007382361 117.71928675628689 l 3.1362953166193392 4.930777162531423 a26.84370702034161,26.84370702034161 0 0,0 -0.39094135824189635,0.24397632144078352 l -3.0511898295877278 -4.983889280813754" fill="#ff3b05" stroke="none" /><path d="M 110.96478420261333 117.91015095944535 l 5.908905920645457 9.65175374985468 a32.316868808414846,32.316868808414846 0 0,0 -0.4756231218719874,0.2855980189218625 l -5.7423500422160325 -9.751765769312467" fill="#ff870c" stroke="none" /><line stroke="#e1ed5e" stroke-width="0.3" x1="143.1302829299769" x2="145.66735839644613" y1="173.24464959558577" y2="177.55315839532614" /><path d="M 143.63769802327073 174.10635135553383 a86.0,86.0 0 0,1 -40.68552437913181,11.842963189579606" fill="none" id="id30" stroke="none" /><text fill="#e1ed5e" style="font-size:6.75px; font-family:Arial;" text-anchor="middle"><textPath startOffset="21.407464694133747" xlink:href="#id30">June</textPath></text><path d="M 110.34350942703117 118.27599006163325 l 7.243880858889245 12.79924338239948 a35.70695213358903,35.70695213358903 0 0,0 -0.536039246826004,0.2973319342080477 l -7.023097423907147 -12.92170823204067" fill="#ffb410" stroke="none" /><path d="M 109.71004243097381 118.62028667847754 l 10.673132730320683 20.467139315691103 a44.0828844394922,44.0828844394922 0 0,0 -0.673991151517469,0.344144684341905 l -10.32021435708963 -20.647341951705844" fill="#e1ff1b" stroke="none" /><path d="M 109.3889696526874 118.78422872680471 l 7.1997654281384085 14.40435378793484 a37.10347882503063,37.10347882503063 0 0,0 -0.5721705397241906,0.2798772828104847 l -6.951434639152148 -14.525824820842548" fill="#ffc612" stroke="none" /><path d="M 108.73861861582097 119.09545874513695 l 7.838583247010939 17.12871903376423 a39.83710176906091,39.83710176906091 0 0,0 -0.6242788695844923,0.27923199785849206 l -7.54339097457082 -17.260754782532572" fill="#ffe915" stroke="none" /><path d="M 108.4095320186766 119.2426549942271 l 3.195743737094151 7.312487073750642 a28.98030358050035,28.98030358050035 0 0,0 -0.4575643894384135,0.19530702939081637 l -3.0697442724853063 -7.366268752800862" fill="#ff5908" stroke="none" /><path d="M 108.07796709384702 119.3841803445677 l 5.551868113534066 13.322462385860913 a35.43299149770259,35.43299149770259 0 0,0 -0.5634614017778485,0.2291548468050302 l -5.322352250565777 -13.415804489245234" fill="#ffb010" stroke="none" /><path d="M 107.407793817531 119.65005319985036 l 7.179858615682624 19.045427996616514 a41.35383741006831,41.35383741006831 0 0,0 -0.6664089142999293,0.24471458405621638 l -6.851860549728568 -19.165873429681454" fill="#fffc17" stroke="none" /><path d="M 107.06938296918513 119.77432235084164 l 4.894916197096989 13.691951784712694 a35.54062406678268,35.54062406678268 0 0,0 -0.5762560644122516,0.20045177247429607 l -4.659154360639715 -13.77396198975558" fill="#ffb210" stroke="none" /><path d="M 106.38641147887787 120.00534299687104 l 2.1575884854211016 6.758615200367985 a28.094650625581707,28.094650625581707 0 0,0 -0.4606979099580067,0.1427253901484405 l -2.0412499425914707 -6.79465717832307" fill="#ff4c07" stroke="none" /><path d="M 106.0420521117495 120.11202640906438 l 4.196453121289975 13.968627618365 a35.58536171439481,35.58536171439481 0 0,0 -0.5865484125341268,0.17073569444052503 l -3.956044696374242 -14.038607007108043" fill="#ffb210" stroke="none" /><path d="M 104.9986988182912 120.39639698878246 l 2.7596902789721067 11.260478084823038 a32.59371627799443,32.59371627799443 0 0,0 -0.5445755729558738,0.12851835241517828 l -2.5659825522763535 -11.30619258088444" fill="#ff8b0c" stroke="none" /><path d="M 104.64783097203109 120.47920084513623 l 1.920384465240322 8.461568288562345 a29.676751373431202,29.676751373431202 0 0,0 -0.4977746279224832,0.1084876633460225 l -1.7748474206987028 -8.493287410042086" fill="#ff6309" stroke="none" /><path d="M 104.29559338865022 120.5559693870025 l 2.3789407534598537 11.384092691552333 a32.63000109709055,32.63000109709055 0 0,0 -0.5492771459500088,0.10987081259365546 l -2.1831671219788866 -11.42325290080885" fill="#ff8b0c" stroke="none" /><path d="M 103.94208987418118 120.62667999033965 l 1.8823779751634961 9.849396983275497 a31.027660134624483,31.027660134624483 0 0,0 -0.5240206356635159,0.09549401586370534 l -1.713022605948923 -9.880259173070566" fill="#ff750a" stroke="none" /><path d="M 103.2317021107853 120.74984581791261 l 1.877180457727962 12.052845137013167 a33.19815077656026,33.19815077656026 0 0,0 -0.563854615345227,0.08286721105567439 l -1.6700007367750498 -12.083293421367724" fill="#ff930d" stroke="none" /><path d="M 102.51750503828377 120.84855314841334 l 2.2548439031441805 18.673342154709275 a39.808987964651074,39.808987964651074 0 0,0 -0.6791491038733499,0.0761000736584794 l -1.9339588976700313 -18.709297988874727" fill="#ffe815" stroke="none" /><path d="M 102.15924093988457 120.88869738790638 l 0.8779303515780652 8.493179757305297 a29.538434522330334,29.538434522330334 0 0,0 -0.5048265260470236,0.04780759688281361 l -0.7320042621460263 -8.506999109693293" fill="#ff6108" stroke="none" /><path d="M 101.80034050326958 120.92268563240118 l 1.0003559107092168 11.625652037640842 a32.668611624713265,32.668611624713265 0 0,0 -0.559148186455624,0.04328160593194626 l -0.800638729478357 -11.641111410567841" fill="#ff8c0c" stroke="none" /><path d="M 101.44090949804482 120.95050786540614 l 0.9734814361650067 14.154206432031925 a35.18764342049559,35.18764342049559 0 0,0 -0.6029748676197257,0.03627347071732039 l -0.7303622164128157 -14.168831880573936" fill="#ffad10" stroke="none" /><path d="M 101.08105385017728 120.97215588758144 l 0.7421832219333799 14.39815622966587 a35.41727223675774,35.41727223675774 0 0,0 -0.607447099498456,0.026086392136465165 l -0.4949103618340945 -14.408775190228166" fill="#ffb010" stroke="none" /><line stroke="#e1ed5e" stroke-width="0.3" x1="101.45913802915013" x2="101.54496967792366" y1="184.9874750549273" y2="189.98673829345242" /><path d="M 101.47630435890484 185.9873277026323 a86.0,86.0 0 0,1 -42.54439059252881,-10.42667462771756" fill="none" id="id31" stroke="none" /><text fill="#e1ed5e" style="font-size:6.75px; font-family:Arial;" text-anchor="middle"><textPath startOffset="22.145653131862474" xlink:href="#id31">July</textPath></text><path d="M 100.0 121.0 l 1.8574645667013008e-15 15.167349214439135 a36.167349214439135,36.167349214439135 0 0,0 -0.6208606429687142,-0.005329341909840826 l 0.26036771811986026 -15.165114270723729" fill="#ffba11" stroke="none" /><path d="M 99.27912038922189 120.98762331915562 l -0.3719713270464701 10.82953933063973 a31.835925654138528,31.835925654138528 0 0,0 -0.54602287181179,-0.023448571507418848 l 0.5578199594590988 -10.821558190706481" fill="#ff800b" stroke="none" /><path d="M 98.55909050195518 120.95050786540614 l -0.7150609340311155 10.39682904650931 a31.421389847890595,31.421389847890595 0 0,0 -0.537801035170786,-0.04162920141367942 l 0.8934309639771377 -10.383022078100577" fill="#ff7b0b" stroke="none" /><path d="M 97.84075906011543 120.88869738790638 l -1.635825788734075 15.825130604473468 a36.90945268259503,36.90945268259503 0 0,0 -0.6296824660827557,-0.07055723371651057 l 1.9072441564176301 -15.794717610249986" fill="#ffc412" stroke="none" /><path d="M 97.48249496171623 120.84855314841334 l -1.5047536477005057 12.461518814174717 a33.55204105698744,33.55204105698744 0 0,0 -0.5712189904144598,-0.07395573451174726 l 1.7184504600057595 -12.433851483462572" fill="#ff970e" stroke="none" /><path d="M 97.12497278360702 120.80226474461374 l -1.2011223551667063 8.690723023554344 a29.773332410448084,29.773332410448084 0 0,0 -0.5056857234858982,-0.07431838710815651 l 1.3501331842602895 -8.668823563147306" fill="#ff6409" stroke="none" /><path d="M 96.41257539226777 120.69131181640829 l -1.4723283427184986 8.491998624768875 a29.618688496044435,29.618688496044435 0 0,0 -0.5002247641579922,-0.09115761539320934 l 1.6178878404275479 -8.4654728354443" fill="#ff6209" stroke="none" /><path d="M 96.05791012581884 120.62667999033965 l -1.3737692301406863 7.188141111717568 a28.318238486114375,28.318238486114375 0 0,0 -0.47669508706732916,-0.09535236803800588 l 1.4969608027389736 -7.163499347016701" fill="#ff5007" stroke="none" /><path d="M 94.30408787586889 120.21278271476187 l -1.582388218639662 5.6153375502859735 a26.834035333981213,26.834035333981213 0 0,0 -0.4423015551550373,-0.1287475365337 l 1.6785497861763061 -5.5873463194497575" fill="#ff3b05" stroke="none" /><path d="M 93.61358852112213 120.00534299687104 l -1.7391919039143917 5.447993867958837 a26.71886576726176,26.71886576726176 0 0,0 -0.43574304767282046,-0.14323739472673322 l 1.8324576892349558 -5.417335551830082" fill="#ff3905" stroke="none" /><path d="M 92.25597844496254 119.51999308798841 l -4.263374525337083 10.746488846218499 a32.561288200939885,32.561288200939885 0 0,0 -0.5177950920283909,-0.21058275618485706 l 4.447224078555915 -10.671718833454351" fill="#ff8a0c" stroke="none" /><path d="M 91.59046798132341 119.24265499422711 l -3.4962681009516183 8.000145630520002 a29.730762895833337,29.730762895833337 0 0,0 -0.46590455199503505,-0.2083931800407203 l 3.6330860558022886 -7.938948699569426" fill="#ff6309" stroke="none" /><path d="M 91.26138138417905 119.09545874513695 l -2.992555380274502 6.539273576159033 a28.19148709293576,28.19148709293576 0 0,0 -0.438325652789988,-0.2051585378653954 l 3.10436974693598 -6.486938806723111" fill="#ff4e07" stroke="none" /><path d="M 90.93487009805054 118.94263497670748 l -3.78040808454945 7.899598922814572 a29.75757662981375,29.75757662981375 0 0,0 -0.45888981896970255,-0.22446600572016043 l 3.915458152781222 -7.83353916699719" fill="#ff6409" stroke="none" /><path d="M 90.6110303473126 118.78422872680471 l -3.8061702860972972 7.614890224589779 a29.513136048444366,29.513136048444366 0 0,0 -0.45123164700090757,-0.23040209411143928 l 3.936329154811787 -7.5484301788055035" fill="#ff6008" stroke="none" /><path d="M 90.28995756902619 118.62028667847754 l -3.9332676330801775 7.5425593072083705 a29.50651486662968,29.50651486662968 0 0,0 -0.4471096684629356,-0.23806071490428612 l 4.062166117329675 -7.473928124581511" fill="#ff6008" stroke="none" /><line stroke="#e1ed5e" stroke-width="0.3" x1="58.13341422392154" x2="55.67067388415222" y1="173.97424548756322" y2="178.32567169271397" /><path d="M 57.64086615596768 174.84453072859336 a86.0,86.0 0 0,1 -31.369924170532247,-30.572349798747897" fill="none" id="id32" stroke="none" /><text fill="#e1ed5e" style="font-size:6.75px; font-family:Arial;" text-anchor="middle"><textPath startOffset="22.145653131862474" xlink:href="#id32">August</textPath></text><path d="M 88.72937992617639 117.7192867562869 l -3.7957840402963074 5.967602974317079 a28.07250038809799,28.07250038809799 0 0,0 -0.40439689075572927,-0.262125178803241 l 3.8976665633090466 -5.901563953809943" fill="#ff4c07" stroke="none" /><path d="M 88.1277618465304 117.32195027204791 l -9.513957117898336 13.881147763066846 a37.828595997922825,37.828595997922825 0 0,0 -0.532491365285259,-0.3717203283326059 l 9.750843574357361 -13.715782618929111" fill="#ffcf13" stroke="none" /><path d="M 87.54013794807813 116.9041958592261 l -5.105634706628874 6.926774045078978 a29.605097583939017,29.605097583939017 0 0,0 -0.4065019714920909,-0.3050466577693565 l 5.223789667031731 -6.838108360045607" fill="#ff6209" stroke="none" /><path d="M 87.2517909369889 116.68781488649013 l -6.776424868907123 8.870557679560049 a32.16273835357367,32.16273835357367 0 0,0 -0.4358664518441046,-0.3389323892686398 l 6.927701265386456 -8.752924238670616" fill="#ff850c" stroke="none" /><path d="M 86.96720088162412 116.46651593811092 l -7.095914749971226 8.965456481342478 a32.43378397809339,32.43378397809339 0 0,0 -0.43360761268159853,-0.34928359930389347 l 7.248773133008087 -8.842324588245173" fill="#ff880c" stroke="none" /><path d="M 86.68645165197938 116.24036423190432 l -8.141333051723608 9.93110256086538 a33.84165495306248,33.84165495306248 0 0,0 -0.44610660311642875,-0.37215799465087096 l 8.31061398900193 -9.78988238230264" fill="#ff9b0e" stroke="none" /><path d="M 86.40962598614128 116.0094264158162 l -7.751514405464165 9.131264478731058 a32.97772793807966,32.97772793807966 0 0,0 -0.4284286139193178,-0.37006643269478695 l 7.907122499146345 -8.996853913571549" fill="#ff900d" stroke="none" /><path d="M 86.13680546590413 115.77377054828092 l -16.681936481316043 18.980981454895055 a46.269836995076425,46.269836995076425 0 0,0 -0.5921106382742316,-0.5294689838801959 l 17.005312146413644 -18.691816941131478" fill="#c7ff1e" stroke="none" /><path d="M 85.86807049272751 115.53346607816431 l -9.936791783663885 10.922274839956751 a35.766039368478005,35.766039368478005 0 0,0 -0.4506013911862798,-0.4170699205938581 l 10.122822946164131 -10.750087173230515" fill="#ffb510" stroke="none" /><path d="M 85.60350026404147 115.28858382429668 l -5.029357754181012 5.341003647929663 a28.336263312254996,28.336263312254996 0 0,0 -0.3512718565688207,-0.3365104925020644 l 5.120302096615148 -5.253881025122016" fill="#ff5007" stroke="none" /><path d="M 85.34317274990678 115.03919595460226 l -10.195437591791691 10.461417138207613 a35.60781284887314,35.60781284887314 0 0,0 -0.43408989503865053,-0.4303797472895614 l 10.373519406960305 -10.284857380689392" fill="#ffb310" stroke="none" /><path d="M 84.83555147118756 114.52719865689866 l -5.829451294481503 5.584482472590104 a29.07272858960328,29.07272858960328 0 0,0 -0.3421502508709383,-0.3633517095741599 l 5.924457379088694 -5.483589303071454" fill="#ff5a08" stroke="none" /><path d="M 84.58840730492382 114.26474011684316 l -6.7164063902703175 6.21660548470893 a30.151846729036556,30.151846729036556 0 0,0 -0.3483289209679768,-0.382874502389443 l 6.822133012080174 -6.100393406761813" fill="#ff6909" stroke="none" /><path d="M 84.1078160697243 113.72728997021213 l -6.744804209012611 5.826001232784439 a29.91261320726531,29.91261320726531 0 0,0 -0.33232263242685495,-0.391475225385461 l 6.843821404946578 -5.709359224949423" fill="#ff6609" stroke="none" /><path d="M 83.8745106332314 113.45245675266167 l -5.625192270277621 4.692735458761495 a28.32560947386008,28.32560947386008 0 0,0 -0.30828134010738667,-0.3760531090862704 l 5.7049204296236375 -4.59548006797673" fill="#ff5007" stroke="none" /><path d="M 83.64595745247003 113.17365903436017 l -8.882606825176573 7.155199291616754 a32.40603265440821,32.40603265440821 0 0,0 -0.34525320735794557,-0.43621614896432404 l 9.00412646317608 -7.0016631987377504" fill="#ff880c" stroke="none" /><path d="M 83.4222238831116 112.89097897827486 l -7.95501754020121 6.185869754753899 a31.077067464678798,31.077067464678798 0 0,0 -0.3238645125843869,-0.4239490431634783 l 8.060034030139892 -6.048399798349551" fill="#ff760a" stroke="none" /><path d="M 82.98947788004972 112.3143062007846 l -12.013694984000857 8.696988698677819 a35.83126695847449,35.83126695847449 0 0,0 -0.3564100318175057,-0.5013353442024329 l 12.161220114348325 -8.489476127765883" fill="#ffb610" stroke="none" /><path d="M 82.576782715395 111.72311816256416 l -14.570951880366989 9.803986706032246 a38.56219787019914,38.56219787019914 0 0,0 -0.3648269665862749,-0.5523945264203098 l 14.73710328587399 -9.552412301272875" fill="#ffd914" stroke="none" /><path d="M 82.18462484594161 111.11811171558189 l -6.154177426144039 3.8406618749083594 a28.2542803523048,28.2542803523048 0 0,0 -0.2532552715981904,-0.4136734532830905 l 6.2192006621976335 -3.734451305500712" fill="#ff4f07" stroke="none" /><line stroke="#e1ed5e" stroke-width="0.3" x1="26.387840678322732" x2="22.057713659400548" y1="142.50000000000003" y2="145.00000000000006" /><path d="M 25.521815274538298 143.00000000000003 a86.0,86.0 0 0,1 -11.493303480769221,-40.785679425670985" fill="none" id="id33" stroke="none" /><text fill="#e1ed5e" style="font-size:6.75px; font-family:Arial;" text-anchor="middle"><textPath startOffset="21.40746469413373" xlink:href="#id33">September</textPath></text><path d="M 81.81346652052679 110.50000000000001 l -6.340406397172992 3.6606353401794567 a28.321270680358907,28.321270680358907 0 0,0 -0.23947203490619193,-0.4231241399120406 l 6.4023117971005625 -3.5512544301682945" fill="#ff5007" stroke="none" /><path d="M 81.4637452351635 109.86951160357371 l -24.69864973766609 13.150639828328266 a48.981469345949776,48.981469345949776 0 0,0 -0.388800748081938,-0.745576699747356 l 24.92075855472298 -12.724716885476408" fill="#a8ff21" stroke="none" /><path d="M 80.9802524753101 108.90220220490708 l -8.415976019892117 3.939101724850589 a30.29221043488147,30.29221043488147 0 0,0 -0.21639534091009513,-0.472862873029777 l 8.482355825657269 -3.7940498696061233" fill="#ff6b09" stroke="none" /><path d="M 80.68587082218212 108.24405325689762 l -6.73296385756457 2.8739019040153457 a28.32066352601824,28.32066352601824 0 0,0 -0.18701638555413988,-0.44877124440528204 l 6.781306087655196 -2.7578981501687823" fill="#ff5007" stroke="none" /><path d="M 80.41425534168474 107.57618678355246 l -28.229710209726104 10.919858352367594 a51.26813249873349,51.26813249873349 0 0,0 -0.3104634929511824,-0.8235413003348676 l 28.413004386491725 -10.433648771838582" fill="#8fff24" stroke="none" /><path d="M 80.28708602549918 107.23885506374661 l -2.493390346084829 0.9156074721373159 a23.656187580157454,23.656187580157454 0 0,0 -0.1367100429588805,-0.38240232136948826 l 2.508740559087653 -0.8726701943869061" fill="#ff0c01" stroke="none" /><path d="M 79.48165901384964 104.47187691870673 l -7.142316528073765 1.5566346445626127 a28.30997926151971,28.30997926151971 0 0,0 -0.09941155605996024,-0.4757202831353119 l 7.167985794958093 -1.4337979101418916" fill="#ff4f07" stroke="none" /><path d="M 79.03789590574601 101.26102812881392 l -7.187841157698965 0.4324026750630144 a28.200835547470366,28.200835547470366 0 0,0 -0.024922032559887345,-0.48348077368730935 l 7.194204779715425 -0.30895010799897427" fill="#ff4e07" stroke="none" /><path d="M 79.00696218219943 100.54070618675478 l -9.34445011901182 0.24067988801919787 a30.347549135211697,30.347549135211697 0 0,0 -0.008943232554100056,-0.5208984608841797 l 9.347204783164585 -0.0802345111659658" fill="#ff6c09" stroke="none" /><line stroke="#e1ed5e" stroke-width="0.3" x1="15.003131293944662" x2="10.003315487706104" y1="100.72959589197737" y2="100.7725132973878" /><path d="M 14.003168132696942 100.73817937305945 a86.0,86.0 0 0,1 10.791469493833604,-42.45332614584628" fill="none" id="id34" stroke="none" /><text fill="#e1ed5e" style="font-size:6.75px; font-family:Arial;" text-anchor="middle"><textPath startOffset="22.145653131862435" xlink:href="#id34">October</textPath></text><path d="M 79.00077361379809 100.18025310272382 l -16.360112226441693 0.14043188713198182 a37.36071493476646,37.36071493476646 0 0,0 0.0,-0.6413699797115927 l 16.360112226441693 0.1404318871319758" fill="#ffc912" stroke="none" /><path d="M 79.00696218219943 99.45929381324524 l -12.925840626418136 -0.3329238034232516 a33.9301273836899,33.9301273836899 0 0,0 0.019995045076661798,-0.5821339208992499 l 12.918220894344625 0.55476398888664" fill="#ff9c0e" stroke="none" /><path d="M 79.06263194458094 98.37931529534042 l -26.608361709953513 -2.059655479391071 a47.68795783834923,47.68795783834923 0 0,0 0.07018390560600662,-0.8156433690081417 l 26.569084181649764 2.5161198957748936" fill="#b7ff1f" stroke="none" /><path d="M 79.0935383218832 98.0201363427161 l -5.63778505118356 -0.5339041059300982 a26.66300925989688,26.66300925989688 0 0,0 0.047063522023982056,-0.45529688299656396 l 5.627789136677913 0.6306055112095749" fill="#ff3805" stroke="none" /><path d="M 79.34024301695615 96.23510406497455 l -7.341629896932567 -1.337889529780441 a28.46253830391712,28.46253830391712 0 0,0 0.09172216657557783,-0.47992913362181366 l 7.317581438074829 1.4637212284355692" fill="#ff5207" stroke="none" /><path d="M 79.64726062577567 94.8264132398404 l -61.05821812267299 -15.520760280478791 a84.0,84.0 0 0,0 0.36724207678109755,-1.3944779825088616 l 60.782786565087164 16.56661876736044" fill="#4dd2ff" stroke="none" /><path d="M 80.16572619554312 93.10060997987247 l -6.300081901441409 -2.1914955205984716 a27.670358654650645,27.670358654650645 0 0,0 0.1599080962453098,-0.44729140512650134 l 6.261533635152156 2.2993218821058945" fill="#ff4606" stroke="none" /><path d="M 80.83023694016515 91.42560881287825 l -13.917661793401798 -6.225193094677375 a36.246453320741026,36.246453320741026 0 0,0 0.2589300520008349,-0.5658088930562152 l 13.808747276545917 6.463190969948261" fill="#ffbb11" stroke="none" /><path d="M 80.9802524753101 91.09779779509293 l -7.955918613572851 -3.723771629032924 a29.784253874461136,29.784253874461136 0 0,0 0.2207165566216294,-0.46121271406163095 l 7.890822798991317 3.8597968451596425" fill="#ff6409" stroke="none" /><path d="M 81.29705330413844 90.45014215332179 l -13.683385587831149 -6.986834179128978 a36.36394783224384,36.36394783224384 0 0,0 0.2886465087548225,-0.5535177400061526 l 13.561431010101387 7.220698162239618" fill="#ffbc11" stroke="none" /><path d="M 81.63589988554816 89.8137432299009 l -17.946903578290744 -9.954844884166915 a41.52292095965604,41.52292095965604 0 0,0 0.35109930234713294,-0.6203588255620023 l 17.773370910922242 10.261460479828022" fill="#fffe18" stroke="none" /><line stroke="#e1ed5e" stroke-width="0.3" x1="26.387840678322718" x2="22.05771365940052" y1="57.49999999999999" y2="54.99999999999999" /><path d="M 25.521815274538284 56.99999999999999 a86.0,86.0 0 0,1 29.574782752854787,-30.34633250058573" fill="none" id="id35" stroke="none" /><text fill="#e1ed5e" style="font-size:6.75px; font-family:Arial;" text-anchor="middle"><textPath startOffset="21.40746469413373" xlink:href="#id35">November</textPath></text><path d="M 81.81346652052679 89.5 l -2.0696300654684907 -1.1949014754211762 a23.389802950842352,23.389802950842352 0 0,0 0.20374332736157763,-0.34600071240584385 l 2.048813027977134 1.2302533561205928" fill="#ff0901" stroke="none" /><path d="M 82.37810715431573 88.57770195909679 l -8.48531447858768 -5.500078328359407 a31.111944591354252,31.111944591354252 0 0,0 0.29434204990259505,-0.44567137890855135 l 8.389647989764356 5.644929585607018" fill="#ff760a" stroke="none" /><path d="M 82.576782715395 88.27688183743585 l -42.604974675935374 -28.666528361576763 a72.35127764177031,72.35127764177031 0 0,0 0.7021872827579781,-1.0245122306650716 l 42.106597656362084 29.393675327311872" fill="#3effb8" stroke="none" /><path d="M 82.98947788004972 87.6856937992154 l -5.927026316925772 -4.290709974218348 a28.317091843375174,28.317091843375174 0 0,0 0.2884270836455937,-0.39130673299055274 l 5.85249721369636 4.3918230164777645" fill="#ff5007" stroke="none" /><path d="M 83.2033758604659 87.39550010848427 l -11.939360429478285 -8.959518650174456 a35.92720006926335,35.92720006926335 0 0,0 0.37440936639783323,-0.4901138793168859 l 11.783799085726145 9.163153442732225" fill="#ffb711" stroke="none" /><path d="M 83.42222388311158 87.10902102172516 l -5.515521907806078 -4.288903195846021 a27.986821347281396,27.986821347281396 0 0,0 0.29817102071543833,-0.3767293441952026 l 5.441084456449079 4.382952483955907" fill="#ff4b07" stroke="none" /><path d="M 84.10781606972428 86.27271002978789 l -8.642312288552075 -7.465023518389621 a32.419988521139956,32.419988521139956 0 0,0 0.367409455934321,-0.4180445164296802 l 8.512891768659163 7.612280312630602" fill="#ff880c" stroke="none" /><path d="M 84.34580500576568 86.00192230759919 l -6.607511515145599 -5.908477540781086 a29.863933397352227,29.863933397352227 0 0,0 0.3450028049572875,-0.3792185182439323 l 6.505111009346445 6.021033634582676" fill="#ff6509" stroke="none" /><path d="M 84.83555147118756 85.47280134310135 l -9.774416783574384 -9.363670172411425 a34.53578747457007,34.53578747457007 0 0,0 0.41379333148822023,-0.4245884113097857 l 9.612236650935362 9.53008127578894" fill="#ffa40f" stroke="none" /><path d="M 85.08716467003674 85.21462403516908 l -6.051747887035879 -6.000023856926547 a29.52196801049681,29.52196801049681 0 0,0 0.35989820687388313,-0.3568221723073205 l 5.9478577600320195 6.1030260394625415" fill="#ff6008" stroke="none" /><path d="M 85.34317274990677 84.96080404539775 l -9.823711246418426 -10.079993160550954 a35.075211002672816,35.075211002672816 0 0,0 0.43481154705123226,-0.41653962623996466 l 9.649227213501893 10.247144917096486" fill="#ffac0f" stroke="none" /><path d="M 85.60350026404147 84.71141617570332 l -4.955245635390667 -5.262299146050475 a28.22815686116328,28.22815686116328 0 0,0 0.3556347579115985,-0.32917022260432344 l 4.864181106165115 5.346587114787164" fill="#ff4e07" stroke="none" /><path d="M 85.86807049272753 84.46653392183569 l -13.94928957887971 -15.332712803054392 a41.728597677035225,41.728597677035225 0 0,0 0.5339968370207396,-0.47750326445184266 l 13.68402771503558 15.569911597389634" fill="#feff18" stroke="none" /><path d="M 86.40962598614128 83.9905735841838 l -7.951208377319896 -9.36650347545376 a33.28629732731751,33.28629732731751 0 0,0 0.43878578194853995,-0.36605070525859384 l 7.789248261209446 9.501616364624235" fill="#ff940d" stroke="none" /><path d="M 87.25179093698888 83.31218511350988 l -8.705110201308349 -11.395268691304148 a35.33984282214904,35.33984282214904 0 0,0 0.4852446690538323,-0.3641366460092345 l 8.508212543343765 11.543024364577384" fill="#ffaf10" stroke="none" /><path d="M 87.83215693770416 82.88440491214696 l -35.018919769475254 -49.25849619523778 a81.43777121334969,81.43777121334969 0 0,0 1.1463526159301898,-0.8002431561500346 l 34.1681720623713 49.852384167192945" fill="#4aeaff" stroke="none" /><path d="M 88.72937992617638 82.28071324371311 l -12.038311884808383 -18.926225793375494 a43.43040293480593,43.43040293480593 0 0,0 0.6325035770752764,-0.39472901185727377 l 11.711644178943407 19.130090602074304" fill="#e9ff1a" stroke="none" /><line stroke="#e1ed5e" stroke-width="0.3" x1="56.869717070023135" x2="54.33264160355391" y1="26.7553504044142" y2="22.446841604673864" /><path d="M 56.362301976729285 25.89364864446614 a86.0,86.0 0 0,1 42.16139366436587,-11.88097634709845" fill="none" id="id36" stroke="none" /><text fill="#e1ed5e" style="font-size:6.75px; font-family:Arial;" text-anchor="middle"><textPath startOffset="22.145653131862474" xlink:href="#id36">December</textPath></text><path d="M 89.34428304082924 81.90426304109057 l -6.471634693533402 -10.990250544102901 a33.75412335790662,33.75412335790662 0 0,0 0.5018234072908412,-0.2897278792850208 l 6.282018818382161 11.099725320664096" fill="#ff9a0e" stroke="none" /><path d="M 89.97174638481275 81.54914285379989 l -14.68735770899776 -27.02308391298083 a51.756552808142516,51.756552808142516 0 0,0 0.7842625695183036,-0.4175756445035909 l 14.221306323692895 27.271230025206997" fill="#89ff24" stroke="none" /><path d="M 90.93487009805054 81.0573650232925 l -3.5234193199221444 -7.362591244590007 a29.162244393481124,29.162244393481124 0 0,0 0.4534191392051668,-0.21222305162250443 l 3.396511466845455 7.421990527783055" fill="#ff5b08" stroke="none" /><path d="M 92.592206182469 80.34994680014964 l -22.033675036529832 -58.44694079246549 a83.46221036445448,83.46221036445448 0 0,0 1.344977019726512,-0.4938941915164862 l 21.027108865149195 58.8165658329907" fill="#4cd7ff" stroke="none" /><path d="M 93.27111125876988 80.10723608172694 l -2.680196804754826 -7.923525613495368 a29.364550977783274,29.364550977783274 0 0,0 0.4788900490035227,-0.15742067107247631 l 2.543784018103542 7.968367205969873" fill="#ff5e08" stroke="none" /><path d="M 93.61358852112211 79.99465700312896 l -5.669707534419658 -17.760278098763877 a39.643311445966,39.643311445966 0 0,0 0.6500736019241079,-0.20139446360474555 l 5.3639932996239335 17.854989150175264" fill="#ffe615" stroke="none" /><path d="M 94.6519064749342 79.69241777938228 l -3.6544323080650396 -13.87647471344462 a35.349614140007304,35.349614140007304 0 0,0 0.5881413365258991,-0.14950322783607892 l 3.4156856783137624 13.937163173115962" fill="#ffaf10" stroke="none" /><path d="M 95.00130118170881 79.60360301121753 l -1.386873845461843 -5.658918561344556 a26.82638638841916,26.82638638841916 0 0,0 0.44821506738313016,-0.1057775354760635 l 1.2895266243388068 5.681892240466851" fill="#ff3a05" stroke="none" /><path d="M 95.35216902796891 79.52079915486377 l -1.2678255296195187 -5.586273213012973 a26.728335708037832,26.728335708037832 0 0,0 0.44832020845677006,-0.09770930280088794 l 1.1717429045436303 5.607213973947575" fill="#ff3905" stroke="none" /><path d="M 95.70440661134978 79.44403061299748 l -3.304345049552536 -15.812487248482048 a37.15405364575436,37.15405364575436 0 0,0 0.6254327876449901,-0.12510407379578709 l 3.032415776376569 15.8668807189407" fill="#ffc712" stroke="none" /><path d="M 96.41257539226777 79.30868818359171 l -1.9961232197327337 -11.513108282315097 a32.684869285904256,32.684869285904256 0 0,0 0.5536544435602757,-0.09110362799761917 l 1.7981912731193852 11.545677908808383" fill="#ff8c0c" stroke="none" /><path d="M 98.5590905019552 79.04949213459386 l -0.12431050917852243 -1.8074475210491565 a22.811717319020538,22.811717319020538 0 0,0 0.3909012054669893,-0.023515645827569848 l 0.09326495157904933 1.8093151447014206" fill="#ff0000" stroke="none" /></svg>