<?xml version="1.0" encoding="utf-8" ?>
<svg baseProfile="full" height="200mm" version="1.1" viewBox="0,0,200,200" width="200mm" xmlns="http://www.w3.org/2000/svg" xmlns:ev="http://www.w3.org/2001/xml-events" xmlns:xlink="http://www.w3.org/1999/xlink"><defs /><rect fill="#1a1a1a" height="200" width="200" x="0" y="0" /><text alignment-baseline="middle" fill="#e1ed5e" style="dominant-baseline: central; font-size:9.0px; font-family:Arial;" text-anchor="middle" x="100.0" y="100.0">2016</text><line stroke="#e1ed5e" stroke-width="0.3" x1="100.0" x2="100.0" y1="15.0" y2="10.0" /><path d="M 100.0 14.0 a86.0,86.0 0 0,1 42.35913384403234,11.155469271406648" fill="none" id="id25" stroke="none" /><text fill="#e1ed5e" style="font-size:6.75px; font-family:Arial;" text-anchor="middle"><textPath startOffset="22.145653131862478" xlink:href="#id25">January</textPath></text><path d="M 100.0 79.0 l 0.0 -16.501400496436133 a37.50140049643613,37.50140049643613 0 0,0 0.6437614071851694,0.005525917427854878 l -0.2832684823363146 16.498968977202715" fill="#ffc512" stroke="none" /><path d="M 100.36049292484886 79.00309439819443 l 1.0401780229487554 -60.585155079215255 a81.59408375651857,81.59408375651857 0 0,0 1.4002581636402895,0.036065683237719005 l -2.0800495006597863 60.558371678627495" fill="#4ae9ff" stroke="none" /><path d="M 101.80034050326958 79.07731436759882 l 1.2594552925202456 -14.636779601197016 a35.69086603056043,35.69086603056043 0 0,0 0.6099746381683404,0.05776523242278198 l -1.510529494073599 14.61300261326905" fill="#ffad10" stroke="none" /><path d="M 102.15924093988457 79.11130261209362 l 0.2506239853936568 -2.424559710932044 a23.437478650968963,23.437478650968963 0 0,0 0.39984795988761773,0.044803797908440746 l -0.2922078468820712 2.419900152516632" fill="#ff0000" stroke="none" /><path d="M 102.87502721639298 79.19773525538626 l 4.761639023092138 -34.45284796326857 a55.78033839637465,55.78033839637465 0 0,0 0.9474022050806995,0.13923549856014752 l -5.35236633378052 34.36603139140954" fill="#61ff29" stroke="none" /><path d="M 103.23170211078529 79.25015418208739 l 2.2106688157465793 -14.194079623899006 a35.36519937148452,35.36519937148452 0 0,0 0.5990570012119264,0.09857460158149825 l -2.454003320011576 14.154039023821838" fill="#ffa90f" stroke="none" /><path d="M 103.94208987418118 79.37332000966035 l 2.9869322611443128 -15.628891747741475 a36.911757338373604,36.911757338373604 0 0,0 0.6213540925877886,0.12428822055383495 l -3.2547828392630582 15.57531413052478" fill="#ffbd11" stroke="none" /><path d="M 104.29559338865022 79.4440306129975 l 3.004753538113286 -14.378833412897235 a35.68943137567463,35.68943137567463 0 0,0 0.5986266219049945,0.1304678860355833 l -3.2511425766374145 14.325134068727932" fill="#ffad10" stroke="none" /><path d="M 104.64783097203109 79.52079915486377 l 3.252095152839183 -14.32933129523503 a35.69373534033202,35.69373534033202 0 0,0 0.5963706687543262,0.14074185399287745 l -3.497597975333394 14.271393297595925" fill="#ffad10" stroke="none" /><path d="M 105.3480935250658 79.69241777938227 l 5.554281267600734 -21.090510663208896 a42.80962357388473,42.80962357388473 0 0,0 0.709046823713416,0.19325386479426473 l -5.915509492248844 20.992056304270488" fill="#f6ff19" stroke="none" /><path d="M 105.69591212413111 79.78721728523813 l 1.8701446270061797 -6.636483528372843 a27.894951381139983,27.894951381139983 0 0,0 0.45978848217540663,0.13383772613212358 l -1.9837931215631908 6.603402107938204" fill="#ff4106" stroke="none" /><path d="M 106.04205211174951 79.88797359093562 l 2.2913099496040927 -7.627025614058462 a28.963769271058684,28.963769271058684 0 0,0 0.4749497740873283,0.14714065408654922 l -2.421900356563051 7.5865683721652655" fill="#ff5107" stroke="none" /><path d="M 107.74402155503746 80.48000691201159 l 3.181691911187711 -8.019942051180443 a29.628014483182657,29.628014483182657 0 0,0 0.4711496790687566,0.19161247281283136 l -3.3188960514469072 7.9641423217883185" fill="#ff5a08" stroke="none" /><path d="M 108.4095320186766 80.7573450057729 l 2.638164395265383 -6.036636422027019 a27.58793523557944,27.58793523557944 0 0,0 0.4323247489960027,0.19337336127710503 l -2.7414025471170174 5.990459309840062" fill="#ff3d05" stroke="none" /><path d="M 109.06512990194946 81.05736502329252 l 6.209117509412609 -12.974667520538517 a35.38384988499989,35.38384988499989 0 0,0 0.5456522441384191,0.26690585559074786 l -6.430930002813095 12.866167914850548" fill="#ffa90f" stroke="none" /><path d="M 110.34350942703115 81.72400993836675 l 2.88943661652338 -5.105357640927635 a26.866303828023593,26.866303828023593 0 0,0 0.39942201980285735,0.23060641065344376 l -2.9766511041866344 5.05500433299802" fill="#ff3304" stroke="none" /><line stroke="#e1ed5e" stroke-width="0.3" x1="143.13028292997686" x2="145.6673583964461" y1="26.7553504044142" y2="22.446841604673864" /><path d="M 143.63769802327073 25.89364864446614 a86.0,86.0 0 0,1 29.32050498858742,28.57503671076993" fill="none" id="id26" stroke="none" /><text fill="#e1ed5e" style="font-size:6.75px; font-family:Arial;" text-anchor="middle"><textPath startOffset="20.669276256404974" xlink:href="#id26">February</textPath></text><path d="M 111.27062007382361 82.28071324371311 l 4.234855992942626 -6.6578970117899905 a28.890601871883042,28.890601871883042 0 0,0 0.41618200757081997,0.2697641491390388 l -4.348523632770454 6.5842190209470575" fill="#ff5007" stroke="none" /><path d="M 111.5731344415666 82.4767994020092 l 5.064844071186823 -7.668819463306698 a30.190399198415047,30.190399198415047 0 0,0 0.4300028792418698,0.2893251275727013 l -5.195743238525693 7.580744661676878" fill="#ff6209" stroke="none" /><path d="M 112.16784306229584 82.88440491214696 l 5.8662675169509075 -8.251639915399464 a31.12435952906884,31.12435952906884 0 0,0 0.4328049534493356,0.3133174093310593 l -6.0070534807742115 8.14972173469533" fill="#ff6f0a" stroke="none" /><path d="M 112.7482090630111 83.31218511350987 l 9.22389375718015 -12.074373019116228 a36.194429895475146,36.194429895475146 0 0,0 0.4905035622785573,0.381418536812079 l -9.429807264093933 11.914253430683358" fill="#ffb410" stroke="none" /><path d="M 113.31354834802062 83.75963576809568 l 5.934750732414175 -7.2394309165743005 a30.361123129824882,30.361123129824882 0 0,0 0.4002256250479302,0.3338824509325982 l -6.0581506916239976 7.136486281729832" fill="#ff6409" stroke="none" /><path d="M 113.59037401385872 83.9905735841838 l 6.969890765060742 -8.21051379570051 a31.769954227677452,31.769954227677452 0 0,0 0.41273787810976575,0.3565131488133079 l -7.109808122933368 8.089656514422483" fill="#ff780b" stroke="none" /><path d="M 114.65682725009322 84.96080404539774 l 10.024104315397478 -10.285614102989312 a35.36233006171293,35.36233006171293 0 0,0 0.43109724851569675,0.42741267878832123 l -10.199193484043137 10.11202141397233" fill="#ffa90f" stroke="none" /><path d="M 114.91283532996326 85.21462403516908 l 10.43046078210305 -10.341312080336502 a35.68799672078883,35.68799672078883 0 0,0 0.4275986197827151,0.438753853279453 l -10.606446203036578 10.160735534989307" fill="#ffad10" stroke="none" /><path d="M 116.1254893667686 86.54754324733833 l 11.02965405734661 -9.201329697878673 a35.36376471659873,35.36376471659873 0 0,0 0.3848809956988302,0.469492233978047 l -11.185981872284069 9.010635182202131" fill="#ffa90f" stroke="none" /><path d="M 116.7966241395341 87.39550010848427 l 5.801726025287577 -4.353723370175362 a28.25361510258921,28.25361510258921 0 0,0 0.2877805338047501,0.39042956395795314 l -5.875608578676153 4.253487496948534" fill="#ff4706" stroke="none" /><path d="M 117.42321728460499 88.27688183743584 l 11.914904813077856 -8.016879703545685 a35.36089540682713,35.36089540682713 0 0,0 0.3345402731055696,0.5065366123010266 l -12.050769525104151 7.8111632129056" fill="#ffa90f" stroke="none" /><path d="M 117.62189284568427 88.57770195909679 l 10.899866861168134 -7.065162010953779 a33.989365336005285,33.989365336005285 0 0,0 0.3131590888276791,0.49233810197921785 l -11.019543641621702 6.877010234295889" fill="#ff960d" stroke="none" /><path d="M 117.81537515405839 88.88188828441811 l 6.334959648182123 -3.953483352055455 a28.46737868057295,28.46737868057295 0 0,0 0.2551653636030061,0.416793445023968 l -6.401892976240531 3.844152790906932" fill="#ff4a06" stroke="none" /><line stroke="#e1ed5e" stroke-width="0.3" x1="172.87174338648825" x2="177.1583165268699" y1="56.24261187166439" y2="53.66864786411523" /><path d="M 173.72905801456457 55.72781907015455 a86.0,86.0 0 0,1 12.242430191666344,42.057860355516425" fill="none" id="id27" stroke="none" /><text fill="#e1ed5e" style="font-size:6.75px; font-family:Arial;" text-anchor="middle"><textPath startOffset="22.145653131862474" xlink:href="#id27">March</textPath></text><path d="M 118.00360718960297 89.18935116829356 l 6.169432309091741 -3.7045668394215516 a28.196228907157334,28.196228907157334 0 0,0 0.24561102582467073,0.41710121754932744 l -6.232117045046179 3.5981144535786678" fill="#ff4606" stroke="none" /><path d="M 118.18653347947321 89.5 l 8.728194226764238 -5.039225286361671 a31.07845057272334,31.07845057272334 0 0,0 0.2627855185022845,0.4643168315714826 l -8.813413110287899 4.888651684691071" fill="#ff6e0a" stroke="none" /><path d="M 118.53625476483649 90.13048839642627 l 8.004531667287463 -4.261962255791417 a30.06845353312231,30.06845353312231 0 0,0 0.23867469439872893,0.4576901969476367 l -8.076514430661137 4.123925815739282" fill="#ff6008" stroke="none" /><path d="M 118.70294669586156 90.45014215332178 l 8.950479921971407 -4.570178822852978 a31.0497574750074,31.0497574750074 0 0,0 0.23831440974172433,0.4767884599776834 l -9.02761424492487 4.415858506711544" fill="#ff6e0a" stroke="none" /><path d="M 118.8641267826498 90.77261029715802 l 6.4643130695993065 -3.1620194531998727 a28.196228907157334,28.196228907157334 0 0,0 0.20894847929828592,0.4366219585484807 l -6.5176408068575045 3.0505849925862885" fill="#ff4606" stroke="none" /><path d="M 119.16976305983485 91.42560881287824 l 6.57559585931939 -2.9411803896708286 a28.20340218158632,28.20340218158632 0 0,0 0.1938864612795108,0.44365016675926283 l -6.625116202615871 2.8278681531357166" fill="#ff4606" stroke="none" /><path d="M 119.4528033332814 92.08871423366111 l 6.644776034413977 -2.7023725660984974 a28.173274428984584,28.173274428984584 0 0,0 0.17835202062534355,0.4495636001388479 l -6.690186730005444 2.5879079487460843" fill="#ff4506" stroke="none" /><path d="M 119.58574465831526 92.42381321644754 l 14.818763606962062 -5.732216106472578 a36.888802860200855,36.888802860200855 0 0,0 0.22338684926836427,0.5925601576385823 l -14.914981140044866 5.476987668639837" fill="#ffbd11" stroke="none" /><path d="M 119.71291397450082 92.76114493625339 l 26.371572070822435 -9.68400654874088 a49.09341197367522,49.09341197367522 0 0,0 0.2837127680518031,0.7935951065263466 l -26.53392500891818 9.229876485833618" fill="#abff21" stroke="none" /><path d="M 120.05942366710727 93.78553927170692 l 11.975904863720338 -3.710165939782287 a33.537449046979255,33.537449046979255 0 0,0 0.16564893489731095,0.5513914298768602 l -12.037830118621276 3.5040369063147034" fill="#ff900d" stroke="none" /><path d="M 120.16314734710363 94.1308016681162 l 6.931498015436806 -2.0176580515591698 a28.219183385330084,28.219183385330084 0 0,0 0.1313959192305465,0.46627776326844206 l -6.965112426741935 1.8983723643877146" fill="#ff4606" stroke="none" /><path d="M 120.26092885502905 94.47779374421319 l 11.125908920141427 -3.0324159509039044 a32.53175597203561,32.53175597203561 0 0,0 0.14222654314887648,0.5400573504208692 l -11.176324944095033 2.8409780961102364" fill="#ff820c" stroke="none" /><path d="M 120.35273937422433 94.82641323984039 l 8.565086048224114 -2.1772113799501196 a29.837474096509006,29.837474096509006 0 0,0 0.121925116891787,0.4974960839666416 l -8.601198691632192 2.0298594713753833" fill="#ff5d08" stroke="none" /><path d="M 120.82617615685814 97.30363454192243 l 24.794783222660712 -3.210181097027155 a46.001730694782864,46.001730694782864 0 0,0 0.09467137281301469,0.7840147756251955 l -24.84623668173339 2.7840726444785466" fill="#cfff1d" stroke="none" /><path d="M 120.86939407059847 97.66154086499901 l 16.964788562342665 -1.900939943573204 a38.07095848609751,38.07095848609751 0 0,0 0.06719996890521177,0.6500987402604201 l -16.99492092372954 1.6094366810298524" fill="#ffcc13" stroke="none" /><path d="M 120.9064616781168 98.02013634271609 l 18.347487535610533 -1.7375261454331865 a39.42957666294719,39.42957666294719 0 0,0 0.05802977967682858,0.6743940022961149 l -18.374610937985103 1.4223110957614096" fill="#ffde14" stroke="none" /><path d="M 120.96210409425399 98.7389718711861 l 20.431284980260177 -1.229095369056184 a41.46822125566461,41.46822125566461 0 0,0 0.036646870217538256,0.7109394919301842 l -20.449373439934288 0.8781840837492693" fill="#fff817" stroke="none" /><path d="M 120.98066250479742 99.09900007780936 l 7.192469048965463 -0.30887556825217866 a28.199098216928927,28.199098216928927 0 0,0 0.0166177460400532,0.4838075444047899 l -7.196711482002365 0.18536175928326884" fill="#ff4606" stroke="none" /><line stroke="#e1ed5e" stroke-width="0.3" x1="184.99686870605535" x2="189.99668451229388" y1="99.2704041080226" y2="99.22748670261217" /><path d="M 185.99683186730306 99.26182062694052 a86.0,86.0 0 0,1 -10.086455211305974,41.156179273409016" fill="none" id="id28" stroke="none" /><text fill="#e1ed5e" style="font-size:6.75px; font-family:Arial;" text-anchor="middle"><textPath startOffset="21.40746469413373" xlink:href="#id28">April</textPath></text><path d="M 120.99922638620191 99.81974689727618 l 14.690324837385802 -0.1260987706527908 a35.69086603056043,35.69086603056043 0 0,0 0.0,0.6127037467532335 l -14.690324837385802 -0.126098770652789" fill="#ffad10" stroke="none" /><path d="M 120.99303781780057 100.54070618675476 l 15.177919014354533 0.39092935402447354 a36.18295265638877,36.18295265638877 0 0,0 -0.02132263640481527,0.6207852938890592 l -15.168971690952871 -0.6514209124776434" fill="#ffb410" stroke="none" /><path d="M 120.96210409425399 101.26102812881392 l 14.670083643217586 0.8825158029446676 a35.696604650103616,35.696604650103616 0 0,0 -0.04204726661429741,0.6113580284653527 l -14.652772415438223 -1.1342172555643637" fill="#ffad10" stroke="none" /><path d="M 120.93736805541906 101.62068470465957 l 7.177627096902478 0.5555937317866045 a28.199098216928927,28.199098216928927 0 0,0 -0.0415015223369462,0.4823105982146429 l -7.167031951867791 -0.6787253773769047" fill="#ff4606" stroke="none" /><path d="M 120.86939407059847 102.33845913500097 l 7.201373815311606 0.8069289566340233 a28.246441828160226,28.246441828160226 0 0,0 -0.05813106125718367,0.4814085778435076 l -7.186460667794759 -0.9304312114009394" fill="#ff4606" stroke="none" /><path d="M 120.7213421655516 103.40968896794604 l 14.514329780935071 2.388327442102615 a35.70951654407578,35.70951654407578 0 0,0 -0.10472271874433262,0.6040128127377735 l -14.471192244698504 -2.6371332877609763" fill="#ffad10" stroke="none" /><path d="M 120.65975698304385 103.76489593502545 l 7.00059626779524 1.2757418421237146 a28.115888233552706,28.115888233552706 0 0,0 -0.09060506678785352,0.4740839954910013 l -6.977664908725227 -1.3957284026480303" fill="#ff4506" stroke="none" /><path d="M 120.592083275326 104.11899336999214 l 7.771092934636725 1.5544362290781693 a28.925033589142167,28.925033589142167 0 0,0 -0.10157134244502344,0.4860556428392966 l -7.743263881367337 -1.687608323202875" fill="#ff5007" stroke="none" /><path d="M 120.51834098615036 104.47187691870673 l 7.59327669177532 1.6549193133218636 a28.771525516361898,28.771525516361898 0 0,0 -0.10931691583915239,0.4816705015119209 l -7.563748914378504 -1.7850241487728014" fill="#ff4e07" stroke="none" /><path d="M 120.35273937422433 105.17358676015961 l 6.973036774649988 1.7725186802678317 a28.194794252271535,28.194794252271535 0 0,0 -0.12326565232880268,0.46805975959711854 l -6.941581641516455 -1.8919589442377533" fill="#ff4606" stroke="none" /><path d="M 120.05942366710727 106.21446072829308 l 14.043834883099445 4.350815945862097 a35.7023432696468,35.7023432696468 0 0,0 -0.1863922167517019,0.5838709642179396 l -13.967077950570488 -4.59125594377142" fill="#ffad10" stroke="none" /><path d="M 119.94978838288452 106.5578916946017 l 13.960263412148077 4.589015869638042 a35.69516999521782,35.69516999521782 0 0,0 -0.19634821494763585,0.5804686087012892 l -13.879429775628076 -4.827986152813492" fill="#ffad10" stroke="none" /><path d="M 119.83427380445688 106.89939002012753 l 11.165332554054023 3.8838822512138216 a32.821556258966595,32.821556258966595 0 0,0 -0.18967707078482554,0.530560525099816 l -11.097015313225254 -4.074977732694559" fill="#ff860c" stroke="none" /><path d="M 119.58574465831526 107.57618678355244 l 25.591302279616823 9.899265485543516 a48.43920934575183,48.43920934575183 0 0,0 -0.3066463178103589,0.7729490370828883 l -25.41759728684034 -10.337115539839969" fill="#b2ff20" stroke="none" /><path d="M 119.16976305983485 108.57439118712176 l 13.414425092015234 6.00010171905961 a35.69516999521782,35.69516999521782 0 0,0 -0.25499190613915934,0.5572033336262882 l -13.309448721021019 -6.229494034900587" fill="#ffad10" stroke="none" /><path d="M 119.0197475246899 108.90220220490707 l 9.105986199054506 4.262061329355005 a31.054061439664792,31.054061439664792 0 0,0 -0.23012648021900567,0.48087583525148303 l -9.031480460875589 -4.417749666671591" fill="#ff6e0a" stroke="none" /><path d="M 118.8641267826498 109.22738970284198 l 9.046945324678457 4.425314306511782 a31.071277298294355,31.071277298294355 0 0,0 -0.23847957959816263,0.47711891033345355 l -8.969645831868561 -4.579965073008982" fill="#ff6e0a" stroke="none" /><path d="M 118.70294669586154 109.54985784667822 l 8.990089469092194 4.59040373984205 a31.094231776467105,31.094231776467105 0 0,0 -0.24681702564570457,0.4733041907203361 l -8.909964374471539 -4.744054173666889" fill="#ff6f0a" stroke="none" /><line stroke="#e1ed5e" stroke-width="0.3" x1="174.33088141563837" x2="178.70328620479359" y1="141.23008692659167" y2="143.65538615756765" /><path d="M 175.20536237346943 141.71514677278685 a86.0,86.0 0 0,1 -30.301960400862466,31.631185727798858" fill="none" id="id29" stroke="none" /><text fill="#e1ed5e" style="font-size:6.75px; font-family:Arial;" text-anchor="middle"><textPath startOffset="22.145653131862474" xlink:href="#id29">May</textPath></text><path d="M 118.36410011445183 110.18625677009912 l 16.48892363110517 9.146127984611347 a39.855669164028875,39.855669164028875 0 0,0 -0.33700176467989634,0.5954498273039627 l -16.329488501403898 -9.427834582014434" fill="#ffe315" stroke="none" /><path d="M 118.18653347947321 110.5 l 9.66251480449046 5.578655523421308 a32.15731104684262,32.15731104684262 0 0,0 -0.28011512390485865,0.4756967194058379 l -9.565325970455836 -5.743703411120696" fill="#ff7d0b" stroke="none" /><path d="M 118.00360718960297 110.81064883170644 l 12.597154248348804 7.564229180493526 a35.69373534033202,35.69373534033202 0 0,0 -0.31993830758575026,0.5225951811440618 l -12.46544797630765 -7.779361477762145" fill="#ffad10" stroke="none" /><path d="M 117.62189284568427 111.42229804090321 l 9.641819493162757 6.249710906309787 a32.49015098034751,32.49015098034751 0 0,0 -0.3073809035986116,0.46541386527097206 l -9.533114150643419 -6.41430464991982" fill="#ff820c" stroke="none" /><path d="M 117.21940702142032 112.02048342749411 l 9.848624023637484 6.8751044511862585 a33.01093070389179,33.01093070389179 0 0,0 -0.3283564289293682,0.46187443849132714 l -9.729152496178155 -7.043156116387089" fill="#ff890c" stroke="none" /><path d="M 117.01052211995028 112.31430620078461 l 12.814544263659398 9.276741817415243 a36.8199394256826,36.8199394256826 0 0,0 -0.37503384200949014,0.5088054340207241 l -12.65340840206608 -9.495353560704844" fill="#ffbc11" stroke="none" /><path d="M 116.79662413953412 112.60449989151573 l 8.058845307672991 6.047507758849199 a31.075581262951744,31.075581262951744 0 0,0 -0.32384902437917223,0.4239287686056819 l -7.953844305939515 -6.184957440695758" fill="#ff6e0a" stroke="none" /><path d="M 116.35404254752997 113.17365903436017 l 7.833092180042309 6.309784584740223 a31.05836540432218,31.05836540432218 0 0,0 -0.33802324773365733,0.41233340042378525 l -7.723622113070024 -6.443320266862502" fill="#ff6e0a" stroke="none" /><path d="M 116.1254893667686 113.45245675266167 l 8.567480983218598 7.147297349221179 a32.15731104684262,32.15731104684262 0 0,0 -0.3572607376295765,0.42085225060829395 l -8.443525682081907 -7.29331638227903" fill="#ff7d0b" stroke="none" /><path d="M 115.89218393027572 113.72728997021213 l 5.446980628392045 4.704972134485521 a28.197663562043132,28.197663562043132 0 0,0 -0.3195586642849717,0.36359909938138846 l -5.365410900148488 -4.797783511678203" fill="#ff4606" stroke="none" /><path d="M 115.6541949942343 113.99807769240083 l 17.253373341059508 15.42807283115496 a44.14528727256166,44.14528727256166 0 0,0 -0.509988009015198,0.5605661586573499 l -16.98598763120243 -15.721976565369982" fill="#e5ff1a" stroke="none" /><path d="M 114.91283532996324 114.78537596483092 l 12.229659233088979 12.125132859187278 a38.22159724910618,38.22159724910618 0 0,0 -0.46595417720521387,0.46197168680058764 l -12.0197131357538 -12.333284556216528" fill="#ffce13" stroke="none" /><path d="M 114.65682725009322 115.03919595460226 l 7.026185194400572 7.209484982586757 a31.066973333636966,31.066973333636966 0 0,0 -0.3851232352206833,0.36893934750138435 l -6.901389473314577 -7.329036460393721" fill="#ff6e0a" stroke="none" /><path d="M 114.39649973595853 115.28858382429668 l 13.800811898183001 14.655983983503587 a41.131077357502335,41.131077357502335 0 0,0 -0.5181932639322522,0.4796319489194581 l -13.547188862936782 -14.890733678555424" fill="#fff316" stroke="none" /><path d="M 113.59037401385872 116.0094264158162 l 9.35694140539259 11.022453447857966 a35.45845193906133,35.45845193906133 0 0,0 -0.46741950321995696,0.38993797393679686 l -9.166347568010737 -11.181453605706633" fill="#ffaa0f" stroke="none" /><path d="M 113.03279911837588 116.46651593811092 l 8.922301821686835 11.273036883096776 a35.376676610570904,35.376676610570904 0 0,0 -0.47942144548685306,0.3728010157652678 l -8.72747043156475 -11.424538950482837" fill="#ffa90f" stroke="none" /><path d="M 112.7482090630111 116.68781488649013 l 4.640251717331303 6.074238452067911 a28.643841231525972,28.643841231525972 0 0,0 -0.3933031431059556,0.29514201088441466 l -4.535295585314581 -6.152999490216342" fill="#ff4c07" stroke="none" /><path d="M 112.45986205192187 116.90419585922612 l 4.263756679211851 5.784604813531093 a28.186186322956758,28.186186322956758 0 0,0 -0.39194769768766274,0.28373990698132306 l -4.16382797115022 -5.856945491885493" fill="#ff4606" stroke="none" /><path d="M 112.16784306229584 117.11559508785304 l 7.383334006739117 10.385583920728074 a33.74260469564821,33.74260469564821 0 0,0 -0.47497521831509526,0.33156959081835435 l -7.203963697250264 -10.51079832735155" fill="#ff930d" stroke="none" /><path d="M 111.5731344415666 117.5232005979908 l 6.336984893937306 9.595002809616481 a32.498758909662286,32.498758909662286 0 0,0 -0.468159119237541,0.303455084951762 l -6.171340142442755 -9.70237173627214" fill="#ff820c" stroke="none" /><path d="M 111.27062007382361 117.71928675628689 l 3.086055058129827 4.851791131500779 a26.750096782274042,26.750096782274042 0 0,0 -0.3895780549698203,0.24312551936953403 l -3.002312874370292 -4.90405244771186" fill="#ff3104" stroke="none" /><path d="M 110.96478420261333 117.91015095944535 l 5.7551820892681995 9.400657424094362 a32.02245348757771,32.02245348757771 0 0,0 -0.4712900679844449,0.2829961445611435 l -5.592959264726319 -9.498067569191429" fill="#ff7b0b" stroke="none" /><line stroke="#e1ed5e" stroke-width="0.3" x1="143.1302829299769" x2="145.66735839644613" y1="173.24464959558577" y2="177.55315839532614" /><path d="M 143.63769802327073 174.10635135553383 a86.0,86.0 0 0,1 -40.68552437913181,11.842963189579606" fill="none" id="id30" stroke="none" /><text fill="#e1ed5e" style="font-size:6.75px; font-family:Arial;" text-anchor="middle"><textPath startOffset="21.407464694133747" xlink:href="#id30">June</textPath></text><path d="M 110.34350942703117 118.27599006163325 l 7.24443731782776 12.80022659202497 a35.70808188918999,35.70808188918999 0 0,0 -0.5360562069221548,0.29734134168748644 l -7.02363692274951 -12.922700849145599" fill="#ffad10" stroke="none" /><path d="M 109.71004243097381 118.62028667847754 l 10.864509935633345 20.834130340908516 a44.4967777195819,44.4967777195819 0 0,0 -0.6803192403437776,0.3473758515860361 l -10.505263473575987 -21.017564144167387" fill="#e1ff1b" stroke="none" /><path d="M 109.3889696526874 118.78422872680471 l 7.138422102663764 14.281626044720895 a36.96627422403388,36.96627422403388 0 0,0 -0.5700547157343391,0.27884232727175606 l -6.892207137667356 -14.402062122089873" fill="#ffbe11" stroke="none" /><path d="M 108.73861861582097 119.09545874513695 l 7.769297201258902 16.97731651965561 a39.67059868376107,39.67059868376107 0 0,0 -0.6216696346437607,0.27806492025763146 l -7.476714163759514 -17.10818519082309" fill="#ffe115" stroke="none" /><path d="M 108.4095320186766 119.2426549942271 l 3.1902715346055466 7.299965603553145 a28.966638580830278,28.966638580830278 0 0,0 -0.4573486354103943,0.1952149368257825 l -3.064487824024721 -7.353655190038332" fill="#ff5107" stroke="none" /><path d="M 108.07796709384702 119.3841803445677 l 5.519720370231453 13.245319504909666 a35.34941816774076,35.34941816774076 0 0,0 -0.5621324046014574,0.22861435522317688 l -5.291533504439554 -13.338121116712134" fill="#ffa90f" stroke="none" /><path d="M 107.407793817531 119.65005319985036 l 7.088121527224679 18.80208447046006 a41.09377633047161,41.09377633047161 0 0,0 -0.6622180814157359,0.24317565217205653 l -6.764314294154817 -18.920990971640837" fill="#fff316" stroke="none" /><path d="M 107.06938296918513 119.77432235084164 l 4.843106078950771 13.547029663259627 a35.38671919477148,35.38671919477148 0 0,0 -0.5737606491468249,0.19958373750875621 l -4.609839657758925 -13.628171833336973" fill="#ffa90f" stroke="none" /><path d="M 106.38641147887787 120.00534299687104 l 2.1902251468107585 6.860849077331946 a28.20196752670052,28.20196752670052 0 0,0 -0.46245769948902826,0.14327057744355345 l -2.072126814450106 -6.897436242582144" fill="#ff4606" stroke="none" /><path d="M 106.0420521117495 120.11202640906438 l 4.128568206798796 13.742660816395736 a35.34941816774076,35.34941816774076 0 0,0 -0.5826593888999614,0.16960365633985724 l -3.8920488055172284 -13.811508167038111" fill="#ffa90f" stroke="none" /><path d="M 104.9986988182912 120.39639698878246 l 2.7343553005755235 11.157102727382401 a32.48728167057591,32.48728167057591 0 0,0 -0.5427972643143272,0.1280986764178567 l -2.542425882521317 -11.202397547446482" fill="#ff820c" stroke="none" /><path d="M 104.64783097203109 120.47920084513623 l 1.9153132163567608 8.43922343027316 a29.653838271127,29.653838271127 0 0,0 -0.49739030145660745,0.10840390118156885 l -1.7701604982810175 -8.470858789588446" fill="#ff5a08" stroke="none" /><path d="M 104.29559338865022 120.5559693870025 l 2.349747199889938 11.24439096953493 a32.48728167057591,32.48728167057591 0 0,0 -0.5468746783854406,0.10939025179571353 l -2.1563760359735387 -11.283070617993504" fill="#ff820c" stroke="none" /><path d="M 103.94208987418118 120.62667999033965 l 1.8867953675572144 9.872510646891783 a31.0511921298932,31.0511921298932 0 0,0 -0.5244180633478994,0.09556644042681275 l -1.7170425706582577 -9.90344526124996" fill="#ff6e0a" stroke="none" /><path d="M 103.2317021107853 120.74984581791261 l 1.8900964477785391 12.135775058443963 a33.2820804773074,33.2820804773074 0 0,0 -0.5652801209238157,0.08307671128574635 l -1.6814912212470379 -12.166432843028591" fill="#ff8d0d" stroke="none" /><path d="M 102.51750503828377 120.84855314841334 l 2.2604401009835495 18.719686700721645 a39.855669164028875,39.855669164028875 0 0,0 -0.6799454942451253,0.07618931086074818 l -1.9387587051376247 -18.755731772089366" fill="#ffe315" stroke="none" /><path d="M 102.15924093988457 120.88869738790638 l 0.8871410524764267 8.582284933222661 a29.628014483182657,29.628014483182657 0 0,0 -0.506357492097588,0.047952580959541455 l -0.7396839969938235 -8.596249269687387" fill="#ff5a08" stroke="none" /><path d="M 101.80034050326958 120.92268563240118 l 0.9849333967287228 11.446419047498603 a32.48871632546171,32.48871632546171 0 0,0 -0.5560691413010909,0.043043268363742865 l -0.7882952606523961 -11.4616400828574" fill="#ff820c" stroke="none" /><path d="M 101.44090949804482 120.95050786540614 l 0.9847784450008205 14.318462461152027 a35.352287477512355,35.352287477512355 0 0,0 -0.6057962054199785,0.0364431953933838 l -0.7388378874483769 -14.333257634370101" fill="#ffa90f" stroke="none" /><path d="M 101.08105385017728 120.97215588758144 l 0.739724138412929 14.350450666318565 a35.36950333614192,35.36950333614192 0 0,0 -0.6066278077153018,0.02605120822210095 l -0.49327057009679776 -14.361034442966497" fill="#ffa90f" stroke="none" /><line stroke="#e1ed5e" stroke-width="0.3" x1="101.45913802915013" x2="101.54496967792366" y1="184.9874750549273" y2="189.98673829345242" /><path d="M 101.47630435890484 185.9873277026323 a86.0,86.0 0 0,1 -42.54439059252881,-10.42667462771756" fill="none" id="id31" stroke="none" /><text fill="#e1ed5e" style="font-size:6.75px; font-family:Arial;" text-anchor="middle"><textPath startOffset="22.145653131862474" xlink:href="#id31">July</textPath></text><path d="M 100.0 121.0 l 1.7604594047998501e-15 14.375241955685105 a35.375241955685105,35.375241955685105 0 0,0 -0.6072630685638454,-0.005212623087398576 l 0.24677014371499145 -14.373123730792141" fill="#ffa90f" stroke="none" /><path d="M 99.27912038922189 120.98762331915562 l -0.37546873266952463 10.931362479350698 a31.937808849315694,31.937808849315694 0 0,0 -0.5477702862084801,-0.023523613000274123 l 0.5630647794788435 -10.923306297924595" fill="#ff7a0b" stroke="none" /><path d="M 98.55909050195518 120.95050786540614 l -0.7318900178509717 10.64152023177382 a31.666659075900075,31.666659075900075 0 0,0 -0.5419990049409836,-0.0419541508237091 l 0.9144580175671915 -10.627388313955057" fill="#ff770a" stroke="none" /><path d="M 97.84075906011543 120.88869738790638 l -1.6564195008742622 16.02435608832013 a37.109739712613575,37.109739712613575 0 0,0 -0.6330994019032626,-0.07094010850224447 l 1.9312548043783242 -15.993560219310913" fill="#ffc011" stroke="none" /><path d="M 97.48249496171623 120.84855314841334 l -1.5597604257642732 12.917053845305075 a34.010885159292236,34.010885159292236 0 0,0 -0.5790307495986776,-0.07496712313501158 l 1.7812689972537448 -12.888375125969667" fill="#ff970d" stroke="none" /><path d="M 97.12497278360702 120.80226474461374 l -1.1839772318277177 8.566669451907062 a29.648099651583813,29.648099651583813 0 0,0 -0.5035587053410233,-0.07400578868875246 l 1.330861042776426 -8.545082589919428" fill="#ff5a08" stroke="none" /><path d="M 96.41257539226777 120.69131181640829 l -1.4741665804324011 8.502601091410003 a29.629449138068452,29.629449138068452 0 0,0 -0.5004064987280213,-0.09119073348576567 l 1.6199078127114797 -8.476042183992872" fill="#ff5a08" stroke="none" /><path d="M 96.05791012581884 120.62667999033965 l -1.3514043897233925 7.071118816172276 a28.199098216928927,28.199098216928927 0 0,0 -0.47468953926390806,-0.0949512023086796 l 1.4725904145182587 -7.046878217200735" fill="#ff4606" stroke="none" /><path d="M 94.30408787586889 120.21278271476187 l -1.5592321099487647 5.533164689594252 a26.748662127388243,26.748662127388243 0 0,0 -0.4408943608372738,-0.12833792277646877 l 1.6539864831676454 -5.505583072515267" fill="#ff3104" stroke="none" /><path d="M 93.61358852112213 120.00534299687104 l -1.747817119148186 5.475012231831032 a26.74722747250245,26.74722747250245 0 0,0 -0.4362055828712239,-0.14338943923356484 l 1.8415454396671533 -5.444201871195446" fill="#ff3104" stroke="none" /><path d="M 92.25597844496254 119.51999308798841 l -4.286872224202529 10.805718397192408 a32.625008539612416,32.625008539612416 0 0,0 -0.5188083835917779,-0.21099485304232435 l 4.4717350689847475 -10.730536287570793" fill="#ff840c" stroke="none" /><path d="M 91.92203290615298 119.3841803445677 l -2.7593083234510356 6.621335485357765 a28.173274428984584,28.173274428984584 0 0,0 -0.4448223627737661,-0.18986821589541908 l 2.872565761395233 -6.572992619802942" fill="#ff4506" stroke="none" /><path d="M 91.59046798132341 119.24265499422711 l -3.4637397950903717 7.925714500958387 a29.64953430646961,29.64953430646961 0 0,0 -0.4646316358014853,-0.20782382081818582 l 3.599284833747492 -7.865086929230346" fill="#ff5a08" stroke="none" /><path d="M 91.26138138417905 119.09545874513695 l -2.997513542916928 6.550108056338625 a28.20340218158632,28.20340218158632 0 0,0 -0.4385109104528275,-0.20524524780581208 l 3.1095131672412455 -6.497686576962287" fill="#ff4606" stroke="none" /><path d="M 90.93487009805054 118.94263497670748 l -3.7250989247074453 7.784024051071129 a29.629449138068452,29.629449138068452 0 0,0 -0.45691397254163235,-0.22349952022126413 l 3.858173146511147 -7.718930780752643" fill="#ff5a08" stroke="none" /><path d="M 90.6110303473126 118.78422872680471 l -3.8722845029904907 7.747162946534284 a29.661011545555986,29.661011545555986 0 0,0 -0.4534925420817701,-0.23155652324924292 l 4.0047042667858435 -7.679548471612206" fill="#ff5b08" stroke="none" /><path d="M 90.28995756902619 118.62028667847754 l -3.9178041079405643 7.512905958810945 a29.47307175551659,29.47307175551659 0 0,0 -0.4466029078919319,-0.2377908934436293 l 4.046195831619058 -7.444544597644743" fill="#ff5808" stroke="none" /><line stroke="#e1ed5e" stroke-width="0.3" x1="58.13341422392154" x2="55.67067388415222" y1="173.97424548756322" y2="178.32567169271397" /><path d="M 57.64086615596768 174.84453072859336 a86.0,86.0 0 0,1 -31.369924170532247,-30.572349798747897" fill="none" id="id32" stroke="none" /><text fill="#e1ed5e" style="font-size:6.75px; font-family:Arial;" text-anchor="middle"><textPath startOffset="22.145653131862474" xlink:href="#id32">August</textPath></text><path d="M 88.72937992617639 117.7192867562869 l -3.869888403732661 6.084107342046635 a28.210575456015302,28.210575456015302 0 0,0 -0.4063859237020186,-0.26341444592821145 l 3.9737599596916895 -6.0167790544145285" fill="#ff4606" stroke="none" /><path d="M 88.1277618465304 117.32195027204791 l -9.88537598987685 14.423058997270967 a38.48557374809282,38.48557374809282 0 0,0 -0.541739262806205,-0.3781760790301421 l 10.13151034385682 -14.251238102435696" fill="#ffd213" stroke="none" /><path d="M 87.54013794807813 116.9041958592261 l -5.1328514225688675 6.963698747373223 a29.650968961355407,29.650968961355407 0 0,0 -0.40713182266221287,-0.3055193098296469 l 5.251636234141847 -6.874560410279561" fill="#ff5a08" stroke="none" /><path d="M 87.2517909369889 116.68781488649013 l -6.716520503764833 8.792140942632836 a32.064058479265825,32.064058479265825 0 0,0 -0.43452915132540654,-0.3378924962967103 l 6.866459599725467 -8.67554739471533" fill="#ff7c0b" stroke="none" /><path d="M 86.96720088162412 116.46651593811092 l -7.195892957077439 9.09177567999083 a32.59488078701068,32.59488078701068 0 0,0 -0.43576131768168214,-0.35101847159918315 l 7.3509050451143825 -8.966908914598237" fill="#ff830c" stroke="none" /><path d="M 86.68645165197938 116.24036423190432 l -8.19222986158689 9.99318839319306 a33.92193655637283,33.92193655637283 0 0,0 -0.447164889225521,-0.3730408545623255 l 8.362569084974304 -9.851085354718865" fill="#ff950d" stroke="none" /><path d="M 86.40962598614128 116.0094264158162 l -7.6541600462449395 9.016581288364865 a32.82729487850978,32.82729487850978 0 0,0 -0.4264742698444265,-0.3683783168300762 l 7.807813795852229 -8.883858839070067" fill="#ff870c" stroke="none" /><path d="M 86.13680546590413 115.77377054828092 l -17.08551199383481 19.440176304806403 a46.88117413977638,46.88117413977638 0 0,0 -0.5999338607115087,-0.5364645576239926 l 17.416710881369692 -19.144016217299026" fill="#c5ff1e" stroke="none" /><path d="M 85.86807049272751 115.53346607816431 l -9.891031207296699 10.871975950456124 a35.69803930498941,35.69803930498941 0 0,0 -0.4497446867887635,-0.41627696779337103 l 10.07620566539943 -10.700581236530375" fill="#ffad10" stroke="none" /><path d="M 85.60350026404147 115.28858382429668 l -4.936308075611492 5.242188113825862 a28.200532871814723,28.200532871814723 0 0,0 -0.34958926760919107,-0.3348986103404413 l 5.025569829085997 -5.156677373179838" fill="#ff4606" stroke="none" /><path d="M 85.34317274990678 115.03919595460226 l -10.03011216934737 10.291778690404954 a35.370937991027716,35.370937991027716 0 0,0 -0.431202186585008,-0.4275167199564465 l 10.205306276062341 -10.118081960219847" fill="#ffa90f" stroke="none" /><path d="M 84.83555147118756 114.52719865689866 l -5.763201819446422 5.5210169741302515 a28.980985129688246,28.980985129688246 0 0,0 -0.34107054320851676,-0.3622050974527818 l 5.857128196391192 -5.4212704167329795" fill="#ff5107" stroke="none" /><path d="M 84.58840730492382 114.26474011684316 l -6.753122461199554 6.25058933182192 a30.201876437501426,30.201876437501426 0 0,0 -0.34890688869653813,-0.3835097901681756 l 6.859427050737972 -6.13374196609607" fill="#ff6209" stroke="none" /><path d="M 84.1078160697243 113.72728997021213 l -6.747654894450179 5.828463586969806 a29.916380115227838,29.916380115227838 0 0,0 -0.33236448195573237,-0.39152452402524945 l 6.846713939913023 -5.711772280495003" fill="#ff5e08" stroke="none" /><path d="M 83.8745106332314 113.45245675266167 l -5.535758253911978 4.6181264214782605 a28.209140801129507,28.209140801129507 0 0,0 -0.30701375507826156,-0.3745068614571805 l 5.61421882822887 -4.522417278322585" fill="#ff4606" stroke="none" /><path d="M 83.64595745247003 113.17365903436017 l -8.944763370905534 7.205268205024995 a32.48584701569011,32.48584701569011 0 0,0 -0.34610354792631054,-0.43729052649401845 l 9.067133349473407 -7.050657734616296" fill="#ff820c" stroke="none" /><path d="M 83.4222238831116 112.89097897827486 l -7.953844305939512 6.18495744069576 a31.075581262951744,31.075581262951744 0 0,0 -0.323849024379186,-0.4239287686056923 l 8.058845307672993 -6.047507758849196" fill="#ff6e0a" stroke="none" /><path d="M 82.98947788004972 112.3143062007846 l -11.903453060003923 8.617182047318792 a35.69516999521782,35.69516999521782 0 0,0 -0.3550562889241609,-0.4994311352890762 l 12.049624447458044 -8.411573685320212" fill="#ffad10" stroke="none" /><path d="M 82.576782715395 111.72311816256416 l -14.420486694349478 9.702747013831768 a38.380843941429646,38.380843941429646 0 0,0 -0.36311122403616963,-0.5497966735195419 l 14.584922357306375 -9.453770461973166" fill="#ffd013" stroke="none" /><path d="M 82.18462484594161 111.11811171558189 l -6.098843957164384 3.806129697819383 a28.189055632728348,28.189055632728348 0 0,0 -0.2526706343727761,-0.4127184923125694 l 6.163282555992565 -3.7008740893822565" fill="#ff4606" stroke="none" /><line stroke="#e1ed5e" stroke-width="0.3" x1="26.387840678322732" x2="22.057713659400548" y1="142.50000000000003" y2="145.00000000000006" /><path d="M 25.521815274538298 143.00000000000003 a86.0,86.0 0 0,1 -11.493303480769221,-40.785679425670985" fill="none" id="id33" stroke="none" /><text fill="#e1ed5e" style="font-size:6.75px; font-family:Arial;" text-anchor="middle"><textPath startOffset="21.40746469413373" xlink:href="#id33">September</textPath></text><path d="M 81.81346652052679 110.50000000000001 l -6.230874597469413 3.5973971261357707 a28.194794252271535,28.194794252271535 0 0,0 -0.23840260663287813,-0.42123456262373304 l 6.291710569123669 -3.489905793412916" fill="#ff4606" stroke="none" /><path d="M 81.4637452351635 109.86951160357371 l -24.79492644288698 13.2019017510514 a49.090542663903626,49.090542663903626 0 0,0 -0.38966654055779687,-0.7472369709788323 l 25.017901052419724 -12.774318536968066" fill="#abff21" stroke="none" /><path d="M 81.29705330413844 109.54985784667822 l -6.397580723670354 3.266650302073498 a28.18331701318516,28.18331701318516 0 0,0 -0.21631378486506256,-0.43277247259001644 l 6.452714421747154 -3.1563459733197288" fill="#ff4506" stroke="none" /><path d="M 80.9802524753101 108.90220220490708 l -8.422517486054693 3.942163461312664 a30.299432969735612,30.299432969735612 0 0,0 -0.21644693578777358,-0.4729756171488973 l 8.488948886697523 -3.7969988619490778" fill="#ff6309" stroke="none" /><path d="M 80.68587082218212 108.24405325689762 l -6.6290746468715644 2.8295577776048293 a28.20770614624371,28.20770614624371 0 0,0 -0.18627046797111108,-0.4469813137477745 l 6.676670959379161 -2.7153439544157734" fill="#ff4606" stroke="none" /><path d="M 80.41425534168474 107.57618678355246 l -28.38378622072109 10.979458263350152 a51.43333409240999,51.43333409240999 0 0,0 -0.31146390122263984,-0.826195002130561 l 28.568080805758164 -10.490594981025446" fill="#90ff24" stroke="none" /><path d="M 80.28708602549918 107.23885506374661 l -2.8954590926497916 1.0632526851084099 a24.08450800446337,24.08450800446337 0 0,0 -0.13918532361890298,-0.3893261219180573 l 2.913284586312638 -1.013391606809431" fill="#ff0a01" stroke="none" /><path d="M 79.48165901384964 104.47187691870673 l -7.03538041647043 1.5333284167551118 a28.200532871814723,28.200532871814723 0 0,0 -0.09902723094953861,-0.47388114835468825 l 7.060665358244336 -1.4123308171150144" fill="#ff4606" stroke="none" /><path d="M 79.03789590574601 101.26102812881392 l -7.170354236781573 0.4313507053244794 a28.18331701318516,28.18331701318516 0 0,0 -0.024906550838392872,-0.48318043242629166 l 7.176702377076538 -0.30819847952145696" fill="#ff4506" stroke="none" /><path d="M 79.00696218219943 100.54070618675478 l -9.273403037590134 0.2388499672231232 a30.276478491562862,30.276478491562862 0 0,0 -0.008922288480788264,-0.5196785736133565 l 9.276136757669587 -0.07962447764071431" fill="#ff6309" stroke="none" /><line stroke="#e1ed5e" stroke-width="0.3" x1="15.003131293944662" x2="10.003315487706104" y1="100.72959589197737" y2="100.7725132973878" /><path d="M 14.003168132696942 100.73817937305945 a86.0,86.0 0 0,1 10.791469493833604,-42.45332614584628" fill="none" id="id34" stroke="none" /><text fill="#e1ed5e" style="font-size:6.75px; font-family:Arial;" text-anchor="middle"><textPath startOffset="22.145653131862435" xlink:href="#id34">October</textPath></text><path d="M 79.00077361379809 100.18025310272382 l -16.922565603691687 0.14525987291213516 a37.92318903286043,37.92318903286043 0 0,0 0.0,-0.6510259512718992 l 16.922565603691687 0.14525987291212894" fill="#ffca12" stroke="none" /><path d="M 79.00696218219943 99.45929381324524 l -12.914784156124208 -0.3326390279684802 a33.91906724660123,33.91906724660123 0 0,0 0.019988527331027035,-0.581944163846578 l 12.90717094179633 0.5542894563791967" fill="#ff950d" stroke="none" /><path d="M 79.06263194458094 98.37931529534042 l -40.91590735490143 -3.1671499995528056 a62.0383030082208,62.0383030082208 0 0,0 0.09130377142684808,-1.0610882236706147 l 40.85550996077684 3.869059270599101" fill="#31ff40" stroke="none" /><path d="M 79.0935383218832 98.0201363427161 l -5.723056403175415 -0.5419793916200173 a26.748662127388243,26.748662127388243 0 0,0 0.04721470997041014,-0.456759489231607 l 5.712909300723341 0.640143403134537" fill="#ff3104" stroke="none" /><path d="M 79.34024301695615 96.23510406497455 l -7.473418797978992 -1.361905857670376 a28.596497620294674,28.596497620294674 0 0,0 0.0921538581766548,-0.48218792649415565 l 7.448938647520178 1.489996349197846" fill="#ff4b07" stroke="none" /><path d="M 79.64726062577567 94.8264132398404 l -61.05821812267299 -15.520760280478791 a84.0,84.0 0 0,0 0.36724207678109755,-1.3944779825088616 l 60.782786565087164 16.56661876736044" fill="#4dd2ff" stroke="none" /><path d="M 80.16572619554312 93.10060997987247 l -6.799470722845035 -2.365208875799871 a28.199098216928927,28.199098216928927 0 0,0 0.16296370307241134,-0.4558384812489742 l 6.75786684972868 2.4815823134297665" fill="#ff4606" stroke="none" /><path d="M 80.83023694016515 91.42560881287825 l -13.912080225761779 -6.222696530466669 a36.240338851820646,36.240338851820646 0 0,0 0.2588863726995388,-0.5657134459000245 l 13.803209388207193 6.460598958581365" fill="#ffb410" stroke="none" /><path d="M 80.9802524753101 91.09779779509293 l -10.585968830436222 -4.954767929545549 a32.68813335458748,32.68813335458748 0 0,0 0.24223578897840398,-0.5061796332257652 l 10.499353783497913 5.1357600648364015" fill="#ff850c" stroke="none" /><path d="M 81.29705330413844 90.45014215332179 l -14.063944682532377 -7.18115036447433 a36.79124632796666,36.79124632796666 0 0,0 0.29203828072511495,-0.560021909981086 l 13.938598332832322 7.421518517559903" fill="#ffbc11" stroke="none" /><path d="M 81.63589988554816 89.8137432299009 l -18.855058453312004 -10.45858308458676 a42.561428278641856,42.561428278641856 0 0,0 0.3598804571106087,-0.6358742846350655 l 18.672744631180027 10.78071413932093" fill="#f9ff18" stroke="none" /><line stroke="#e1ed5e" stroke-width="0.3" x1="26.387840678322718" x2="22.05771365940052" y1="57.49999999999999" y2="54.99999999999999" /><path d="M 25.521815274538284 56.99999999999999 a86.0,86.0 0 0,1 29.574782752854787,-30.34633250058573" fill="none" id="id35" stroke="none" /><text fill="#e1ed5e" style="font-size:6.75px; font-family:Arial;" text-anchor="middle"><textPath startOffset="21.40746469413373" xlink:href="#id35">November</textPath></text><path d="M 81.81346652052679 89.5 l -10.580683563718752 -6.108760503723273 a33.21752100744654,33.21752100744654 0 0,0 0.2893503750751576,-0.49138019491176055 l 10.474259478513815 6.289491866928606" fill="#ff8c0c" stroke="none" /><path d="M 82.37810715431573 88.57770195909679 l -8.468043240717543 -5.48888332063716 a31.09136246669551,31.09136246669551 0 0,0 0.2941473277518913,-0.4453765447540807 l 8.372571474044923 5.633439743730302" fill="#ff6f0a" stroke="none" /><path d="M 82.576782715395 88.27688183743585 l -39.584622823548195 -26.634300841270253 a68.71088288206226,68.71088288206226 0 0,0 0.6668563392307282,-0.9729633281807744 l 39.121576747502154 27.309898904521063" fill="#3aff8f" stroke="none" /><path d="M 82.98947788004972 87.6856937992154 l -5.879094897057488 -4.2560113225994085 a28.2579190672466,28.2579190672466 0 0,0 0.28782437234514036,-0.39048903935743096 l 5.805168505128529 4.356306671225703" fill="#ff4706" stroke="none" /><path d="M 83.2033758604659 87.39550010848427 l -20.26128885057411 -15.204448881959326 a46.33170131851615,46.33170131851615 0 0,0 0.48283815330324376,-0.6320506419868869 l 19.99729871991656 15.550020437187097" fill="#cbff1d" stroke="none" /><path d="M 83.42222388311158 87.10902102172516 l -9.080723856617267 -7.061225795172804 a32.50306287431968,32.50306287431968 0 0,0 0.3462869653311088,-0.4375222683932036 l 8.958170460644595 7.216068007480691" fill="#ff820c" stroke="none" /><path d="M 84.10781606972428 86.27271002978789 l -8.696494884078193 -7.511825153922468 a32.49158563523331,32.49158563523331 0 0,0 0.36822085217273587,-0.4189677364030432 l 8.566262967946864 7.660005168136811" fill="#ff820c" stroke="none" /><path d="M 84.34580500576568 86.00192230759919 l -6.417745826547954 -5.738787891883768 a29.609363969667296,29.609363969667296 0 0,0 0.3420618940786335,-0.37598594201653407 l 6.318286231627455 5.84811140945796" fill="#ff5a08" stroke="none" /><path d="M 84.83555147118756 85.47280134310135 l -9.700992600628501 -9.29333146607148 a34.43410835060233,34.43410835060233 0 0,0 0.4125750548388056,-0.4233383521431712 l 9.540030744638894 9.458492510282381" fill="#ff9c0e" stroke="none" /><path d="M 85.08716467003674 85.21462403516908 l -6.129092797922637 -6.076707704171167 a29.63088379295425,29.63088379295425 0 0,0 0.3612259840326675,-0.35813860101157213 l 6.023874893759993 6.181026315411412" fill="#ff5a08" stroke="none" /><path d="M 85.34317274990677 84.96080404539775 l -10.039123950272225 -10.301025571528395 a35.38384988499989,35.38384988499989 0 0,0 0.4386376038608284,-0.4202049021146513 l 9.860813860546097 10.471842603948616" fill="#ffa90f" stroke="none" /><path d="M 85.60350026404147 84.71141617570332 l -4.933357502942271 -5.239054707900084 a28.196228907157334,28.196228907157334 0 0,0 0.355232510954797,-0.3287979088263064 l 4.84269522067352 5.322970362858756" fill="#ff4606" stroke="none" /><path d="M 85.86807049272753 84.46653392183569 l -13.882199876009679 -15.258969467214126 a41.628902602873865,41.628902602873865 0 0,0 0.5327210487788067,-0.47636244673900546 l 13.618213800407482 15.495027443836532" fill="#fffa17" stroke="none" /><path d="M 86.40962598614128 83.9905735841838 l -7.898342978336448 -9.304228168379414 a33.20460911347437,33.20460911347437 0 0,0 0.43770895365386125,-0.3651523767964474 l 7.737459690520677 9.438442729087743" fill="#ff8c0c" stroke="none" /><path d="M 87.25179093698888 83.31218511350988 l -8.721374004758957 -11.416558532096097 a35.36663402637032,35.36663402637032 0 0,0 0.48561253399005555,-0.3644126987154331 l 8.524108481858148 11.564590258075532" fill="#ffa90f" stroke="none" /><path d="M 87.83215693770416 82.88440491214696 l -34.9498868474825 -49.16139274522531 a81.31863001844556,81.31863001844556 0 0,0 1.1446755339274715,-0.7990724226633851 l 34.10081622238126 49.754109983693816" fill="#4aebff" stroke="none" /><path d="M 88.72937992617638 82.28071324371311 l -11.744410629155263 -18.464164203787757 a42.88279097306037,42.88279097306037 0 0,0 0.6245283684369127,-0.38975189182305425 l 11.425718131928653 18.663051892452348" fill="#f5ff19" stroke="none" /><line stroke="#e1ed5e" stroke-width="0.3" x1="56.869717070023135" x2="54.33264160355391" y1="26.7553504044142" y2="22.446841604673864" /><path d="M 56.362301976729285 25.89364864446614 a86.0,86.0 0 0,1 42.16139366436587,-11.88097634709845" fill="none" id="id36" stroke="none" /><text fill="#e1ed5e" style="font-size:6.75px; font-family:Arial;" text-anchor="middle"><textPath startOffset="22.145653131862474" xlink:href="#id36">December</textPath></text><path d="M 89.34428304082924 81.90426304109057 l -6.4068247414885215 -10.88018907672183 a33.626397649898664,33.626397649898664 0 0,0 0.49992450595331983,-0.2886315480866383 l 6.219107767674802 10.988567522084644" fill="#ff910d" stroke="none" /><path d="M 89.97174638481275 81.54914285379989 l -14.488477725546886 -26.6571671437506 a51.340081524833195,51.340081524833195 0 0,0 0.7779518161729346,-0.41421552380177773 l 14.02873709358739 26.90195313527495" fill="#92ff23" stroke="none" /><path d="M 90.93487009805054 81.0573650232925 l -3.93566145744236 -8.224018760524862 a30.117231799239406,30.117231799239406 0 0,0 0.46826743282853034,-0.21917280277253545 l 3.7939053107423075 8.29036779486794" fill="#ff6108" stroke="none" /><path d="M 92.592206182469 80.34994680014964 l -21.803337123905536 -57.83594211343929 a82.80923644478855,82.80923644478855 0 0,0 1.3344544741026132,-0.4900301670109466 l 20.807293498148795 58.201703129458956" fill="#4bddff" stroke="none" /><path d="M 93.27111125876988 80.10723608172694 l -2.765995734018288 -8.177174902392162 a29.63231844784005,29.63231844784005 0 0,0 0.4832569190079051,-0.15885614797997638 l 2.625216077362622 8.223451971774168" fill="#ff5a08" stroke="none" /><path d="M 93.61358852112211 79.99465700312896 l -5.33987361988385 -16.72707805925611 a38.558741147268464,38.558741147268464 0 0,0 0.6322887475590734,-0.19588467026052545 l 5.05194423945316 16.81627931732328" fill="#ffd313" stroke="none" /><path d="M 94.6519064749342 79.69241777938228 l -3.659497511925339 -13.895708117530605 a35.36950333614192,35.36950333614192 0 0,0 0.588472249852158,-0.14958734470958743 l 3.4204199688478027 13.956480694075456" fill="#ffa90f" stroke="none" /><path d="M 95.00130118170881 79.60360301121753 l -1.3700803629210647 -5.5903954217882115 a26.75583540181723,26.75583540181723 0 0,0 0.4470363020154852,-0.10549935005891098 l 1.2739119071656735 5.613090915493355" fill="#ff3104" stroke="none" /><path d="M 95.35216902796891 79.52079915486377 l -1.2729593309639051 -5.6088936889862575 a26.75153143715984,26.75153143715984 0 0,0 0.44870927548394596,-0.0977940981486128 l 1.1764876388608407 5.629919245268584" fill="#ff3104" stroke="none" /><path d="M 95.70440661134978 79.44403061299748 l -3.2301320630933574 -15.457351242871361 a36.79124632796666,36.79124632796666 0 0,0 0.6193254704110362,-0.12388243930360159 l 2.9643101071513445 15.51052307883783" fill="#ffbc11" stroke="none" /><path d="M 96.41257539226777 79.30868818359171 l -1.9618792146901685 -11.315597961219796 a32.48441236080431,32.48441236080431 0 0,0 0.5502588703256636,-0.0905448877140309 l 1.767342841311432 11.347608847429495" fill="#ff820c" stroke="none" /><path d="M 98.5590905019552 79.04949213459386 l -0.2544634426556487 -3.6998426091641337 a24.70858287978503,24.70858287978503 0 0,0 0.42340586190920293,-0.025471045242950983 l 0.19091322861396195 3.703665632231779" fill="#ff1302" stroke="none" /></svg>