<?xml version="1.0" encoding="utf-8" ?>
<svg baseProfile="full" height="200mm" version="1.1" viewBox="0,0,200,200" width="200mm" xmlns="http://www.w3.org/2000/svg" xmlns:ev="http://www.w3.org/2001/xml-events" xmlns:xlink="http://www.w3.org/1999/xlink"><defs /><rect fill="#1a1a1a" height="200" width="200" x="0" y="0" /><text alignment-baseline="middle" fill="#e1ed5e" style="dominant-baseline: central; font-size:9.0px; font-family:Arial;" text-anchor="middle" x="100.0" y="100.0">2015</text><line stroke="#e1ed5e" stroke-width="0.3" x1="100.0" x2="100.0" y1="15.0" y2="10.0" /><path d="M 100.0 14.0 a86.0,86.0 0 0,1 42.46469731375804,11.215312516191453" fill="none" id="id1" stroke="none" /><text fill="#e1ed5e" style="font-size:6.75px; font-family:Arial;" text-anchor="middle"><textPath startOffset="22.20632615414155" xlink:href="#id1">January</textPath></text><line stroke="#e1ed5e" stroke-width="0.3" x1="143.23703022742887" x2="145.7803849466894" y1="26.81831364943548" y2="22.513508569990506" /><path d="M 143.74570117128098 25.957352633546492 a86.0,86.0 0 0,1 28.547481713284135,27.462654790039103" fill="none" id="id2" stroke="none" /><text fill="#e1ed5e" style="font-size:6.75px; font-family:Arial;" text-anchor="middle"><textPath startOffset="19.985693538727396" xlink:href="#id2">February</textPath></text><line stroke="#e1ed5e" stroke-width="0.3" x1="172.23445277983987" x2="176.4835382374775" y1="55.19839476539836" y2="52.563006222186495" /><path d="M 173.08426987136738 54.67131705675599 a86.0,86.0 0 0,1 12.851231095245387,41.99856678651699" fill="none" id="id3" stroke="none" /><text fill="#e1ed5e" style="font-size:6.75px; font-family:Arial;" text-anchor="middle"><textPath startOffset="22.20632615414155" xlink:href="#id3">March</textPath></text><line stroke="#e1ed5e" stroke-width="0.3" x1="184.98032266829074" x2="189.97916517819016" y1="98.17113171792111" y2="98.06355123074" /><path d="M 185.9800911702706 98.14961562048488 a86.0,86.0 0 0,1 -9.607161424134198,41.387399972396054" fill="none" id="id4" stroke="none" /><text fill="#e1ed5e" style="font-size:6.75px; font-family:Arial;" text-anchor="middle"><textPath startOffset="21.466115282336823" xlink:href="#id4">April</textPath></text><line stroke="#e1ed5e" stroke-width="0.3" x1="174.80103733775053" x2="179.2010983576182" y1="140.37084112569926" y2="142.7455964860345" /><path d="M 175.68104954172406 140.8457921977663 a86.0,86.0 0 0,1 -30.038265399797805,32.042727171017184" fill="none" id="id5" stroke="none" /><text fill="#e1ed5e" style="font-size:6.75px; font-family:Arial;" text-anchor="middle"><textPath startOffset="22.206326154141568" xlink:href="#id5">May</textPath></text><line stroke="#e1ed5e" stroke-width="0.3" x1="143.8653032363475" x2="146.44561519142675" y1="172.8068346515853" y2="177.08958963109032" /><path d="M 144.38136562736335 173.6633856474863 a86.0,86.0 0 0,1 -40.68145358897372,12.25698825130547" fill="none" id="id6" stroke="none" /><text fill="#e1ed5e" style="font-size:6.75px; font-family:Arial;" text-anchor="middle"><textPath startOffset="21.466115282336833" xlink:href="#id6">June</textPath></text><line stroke="#e1ed5e" stroke-width="0.3" x1="102.19456741930631" x2="102.32365962044197" y1="184.97166512339345" y2="189.96999836594603" /><path d="M 102.22038585953345 185.97133177190398 a86.0,86.0 0 0,1 -42.740103519485714,-10.115201625700543" fill="none" id="id7" stroke="none" /><text fill="#e1ed5e" style="font-size:6.75px; font-family:Arial;" text-anchor="middle"><textPath startOffset="22.20632615414155" xlink:href="#id7">July</textPath></text><path d="M 98.01472825383883 120.90594882070398 l -0.1388464071802558 1.4621252168938048 a22.46870299062255,22.46870299062255 0 0,0 -0.3847149139037281,-0.039877273830497134 l 0.1639939176895772 -1.459518574607547" fill="#ff0000" stroke="none" /><path d="M 97.65516085044442 120.86867818915974 l -1.6437113580182154 14.62875753027671 a35.720812949973435,35.720812949973435 0 0,0 -0.6104390568598224,-0.07391566858294366 l 1.8952778379294273 -14.598296332968417" fill="#ffb811" stroke="none" /><path d="M 96.22490169976321 120.6578951692458 l -2.4865547399743297 13.606794595986795 a34.83212975836564,34.83212975836564 0 0,0 -0.5888825770314666,-0.11286074744042351 l 2.7204049315774914 -13.561976650197904" fill="#ffac0f" stroke="none" /><path d="M 95.16358092515715 120.4354850818985 l -0.6794666705794103 2.870973502378711 a23.95028198784268,23.95028198784268 0 0,0 -0.4003651343479058,-0.09840000918739142 l 0.7287850896705268 -2.8588522348772893" fill="#ff1602" stroke="none" /><path d="M 94.81253420990036 120.34920634021253 l -3.6532342391262618 14.330777367821776 a35.789093967244824,35.789093967244824 0 0,0 -0.5956490659366542,-0.15731633208398552 l 3.8993737478744053 -14.265769686434208" fill="#ffb811" stroke="none" /><path d="M 94.11515582081647 120.15858648285463 l -3.9975073255547455 13.693497174163157 a35.26505975019657,35.26505975019657 0 0,0 -0.5812437955906212,-0.17512398759589443 l 4.232626095585613 -13.622657817461537" fill="#ffb210" stroke="none" /><path d="M 93.42475214034765 119.94407469862007 l -3.6461239101766423 11.059441282998636 a32.64497578616874,32.64497578616874 0 0,0 -0.5321601561493783,-0.18053761812327312 l 3.835953799263246 -10.99504067797724" fill="#ff8f0d" stroke="none" /><path d="M 90.42595943632237 118.69057910512821 l -6.639848928443184 12.96240817215602 a35.564052300583285,35.564052300583285 0 0,0 -0.54245188070954,-0.28378518612805825 l 6.86199171167922 -12.846193567083244" fill="#ffb610" stroke="none" /><line stroke="#e1ed5e" stroke-width="0.3" x1="58.666819895761336" x2="56.23545636021788" y1="174.27360380694188" y2="178.64263932499728" /><path d="M 58.180547188652646 175.14741091055294 a86.0,86.0 0 0,1 -31.652253787137756,-30.449443065178592" fill="none" id="id8" stroke="none" /><text fill="#e1ed5e" style="font-size:6.75px; font-family:Arial;" text-anchor="middle"><textPath startOffset="22.20632615414155" xlink:href="#id8">August</textPath></text><path d="M 89.7882731507175 118.34994917583269 l -9.557428200279404 17.174208076190343 a40.65446149981672,40.65446149981672 0 0,0 -0.6085609572676997,-0.3455567940019646 l 9.85163792446831 -17.007148116393747" fill="#fff617" stroke="none" /><path d="M 88.8546689885994 117.79835938074946 l -0.8041288666859026 1.2841408248055164 a22.51513725192464,22.51513725192464 0 0,0 -0.3267034309558409,-0.20851758707385748 l 0.8261140996886669 -1.2701088089078547" fill="#ff0100" stroke="none" /><path d="M 88.24862548938628 117.40417183066458 l -9.69505169362536 14.358690162638625 a38.32529972406605,38.32529972406605 0 0,0 -0.5435679365513008,-0.37387098327705137 l 9.94077651479955 -14.189678389996473" fill="#ffd914" stroke="none" /><path d="M 87.65650970185807 116.9893568818739 l -8.612629730687095 11.854267849030233 a35.65268088489158,35.65268088489158 0 0,0 -0.49339071000096446,-0.36499865195274195 l 8.815405411106623 -11.704259248337724" fill="#ffb710" stroke="none" /><path d="M 87.36589467227662 116.77436683061367 l -21.963689104189672 29.161303347596796 a57.507331482813974,57.507331482813974 0 0,0 -0.7855810144486374,-0.6023500229862644 l 22.462398847131798 -28.778913982783166" fill="#4bff2c" stroke="none" /><path d="M 86.79598089348748 116.32954008644616 l -8.55665294508454 10.58209671960028 a34.608713407431246,34.608713407431246 0 0,0 -0.46001551069761853,-0.37856144760761384 l 8.737538584326847 -10.433240153135486" fill="#ffa90f" stroke="none" /><path d="M 86.51685102203217 116.09983520530335 l -16.12974448071122 19.2600577556061 a46.12207160570793,46.12207160570793 0 0,0 -0.6042749614531105,-0.5149762316156696 l 16.45888491874139 -18.979557133767475" fill="#c7ff1e" stroke="none" /><path d="M 85.18274418774928 114.88116024355367 l -6.289681394373395 6.316807774431689 a29.91415461509657,29.91415461509657 0 0,0 -0.36176095276390763,-0.36646193520313164 l 6.397482972192836 -6.2076053452478925" fill="#ff6a09" stroke="none" /><path d="M 84.43433777217949 114.09645910891817 l -22.13246731014272 20.043440224424007 a50.85943075921901,50.85943075921901 0 0,0 -0.5820768616619707,-0.6539695246316736 l 22.47420302145303 -19.65949653005147" fill="#91ff24" stroke="none" /><path d="M 84.19399662182784 113.82643327865904 l -6.218133996190537 5.439364573008978 a29.2614694427012,29.2614694427012 0 0,0 -0.3283659264351575,-0.38196375649664244 l 6.310842432196473 -5.331523717350806" fill="#ff6109" stroke="none" /><path d="M 83.95833913139862 113.55231037782056 l -7.7918123417907355 6.582676203333024 a31.20019438871678,31.20019438871678 0 0,0 -0.3430595089739974,-0.41323727833733187 l 7.90396785065827 -6.447577667881932" fill="#ff7c0b" stroke="none" /><path d="M 83.72743513129214 113.27417163493432 l -6.810564177281016 5.555645256256533 a29.789139811507674,29.789139811507674 0 0,0 -0.32070432984168196,-0.4001279620224802 l 6.905186419177559 -5.437589460655793" fill="#ff6809" stroke="none" /><path d="M 83.28015986056508 112.70617746262583 l -11.911656360043546 9.052216906521465 a35.96095545620262,35.96095545620262 0 0,0 -0.37029292648970114,-0.49606788743816077 l 12.065710553228332 -8.845836139573997" fill="#ffbb11" stroke="none" /><path d="M 83.06392112726016 112.41649034213515 l -11.793003786003572 8.64590432732132 a35.622810945023126,35.622810945023126 0 0,0 -0.35829797733201274,-0.49764455288748416 l 11.940081555711194 -8.4416261689827" fill="#ffb610" stroke="none" /><path d="M 82.85270091963577 112.12312394758628 l -8.572967284523322 6.061079619698965 a31.499164453319004,31.499164453319004 0 0,0 -0.3092004374075209,-0.44542629134387296 l 8.676028629092977 -5.912612066168079" fill="#ff800b" stroke="none" /><path d="M 82.44556493220864 111.52570212397912 l -1.8047551051763513 1.1849466911731463 a23.158990423920933,23.158990423920933 0 0,0 -0.21592465210006145,-0.33511985511693304 l 1.8248846206534584 -1.153705236134765" fill="#ff0a01" stroke="none" /><path d="M 82.05923443525364 110.91462005526583 l -14.31519998224706 8.708935427393158 a37.75620800808554,37.75620800808554 0 0,0 -0.33300818020061945,-0.558140864610977 l 14.462989038145912 -8.46123246889607" fill="#ffd213" stroke="none" /><line stroke="#e1ed5e" stroke-width="0.3" x1="26.63291911575756" x2="22.317208475507996" y1="142.92168965132927" y2="145.44649492493687" /><path d="M 25.769776987707644 143.4266507060508 a86.0,86.0 0 0,1 -11.730757126820373,-40.83630448921669" fill="none" id="id9" stroke="none" /><text fill="#e1ed5e" style="font-size:6.75px; font-family:Arial;" text-anchor="middle"><textPath startOffset="21.46611528233685" xlink:href="#id9">September</textPath></text><path d="M 81.51974371655577 109.97397251340807 l -27.45131571672835 14.81573979365326 a52.194244344313546,52.194244344313546 0 0,0 -0.4199088889080571,-0.7943093710175471 l 27.702277113861292 -14.341015407549586" fill="#83ff25" stroke="none" /><path d="M 81.02952815118164 109.00673069616217 l -11.761327538955193 5.583999734794334 a34.01959594291501,34.01959594291501 0 0,0 -0.24660219177926263,-0.5311591823316409 l 11.855704347574282 -5.380720485183867" fill="#ffa10e" stroke="none" /><path d="M 80.87730276802145 108.67885076344099 l -9.228586663585807 4.188401115131608 a31.134570326784925,31.134570326784925 0 0,0 -0.21728804068815616,-0.4899271693843442 l 9.299315789005242 -4.028925609254569" fill="#ff7b0b" stroke="none" /><path d="M 80.45479744820244 107.68017299344265 l -29.244596026294893 11.491492912905814 a52.42134316206975,52.42134316206975 0 0,0 -0.3227799782022526,-0.842676668879359 l 29.438070284090657 -10.986392677193297" fill="#80ff25" stroke="none" /><path d="M 80.32549172779594 107.34259656027581 l -7.980159086331967 2.9782237932999522 a29.517790558950402,29.517790558950402 0 0,0 -0.17355861917901957,-0.4775587795197827 l 8.030241966516211 -2.8404172167740525" fill="#ff6509" stroke="none" /><path d="M 80.20201598880116 107.00284435728193 l -23.19523831920249 8.2045042408134 a45.60351540983777,45.60351540983777 0 0,0 -0.2553995977818427,-0.7423107810557352 l 23.33302874792756 -7.804020756668367" fill="#cdff1d" stroke="none" /><path d="M 80.0844068197444 106.66101706037122 l -9.79858749522186 3.277259074458322 a31.332121947723884,31.332121947723884 0 0,0 -0.16666861017450502,-0.5129532376979562 l 9.853548356412613 -3.1081069367825624" fill="#ff7d0b" stroke="none" /><path d="M 79.97269907076064 106.31721596034903 l -7.183274715986595 2.2658219319584387 a28.53215670792079,28.53215670792079 0 0,0 -0.1437113477313164,-0.46965699946887507 l 7.2212128362240415 -2.141837959937516" fill="#ff5708" stroke="none" /><path d="M 79.86692584326677 105.97154293290107 l -17.610999471512724 5.223486419249367 a39.36932532124422,39.36932532124422 0 0,0 -0.18711183561364378,-0.6513608465378059 l 17.698303944012473 -4.919568097206965" fill="#ffe615" stroke="none" /><path d="M 79.67330655649465 105.27499134158121 l -7.060603402988185 1.8323010538146167 a28.294480623464462,28.294480623464462 0 0,0 -0.11828263174466086,-0.47248031682661495 l 7.091097349027904 -1.71049289759061" fill="#ff5407" stroke="none" /><path d="M 79.4281124754447 104.21870165774334 l -61.715662573665874 12.656104973230022 a84.0,84.0 0 0,0 -0.2782802680973342,-1.4189450917281805 l 61.92437277473888 -11.591896154433886" fill="#4dd2ff" stroke="none" /><path d="M 79.35854240842038 103.8639653848113 l -7.533121433795556 1.4101581891988155 a28.663971858956327,28.663971858956327 0 0,0 -0.08661099957810274,-0.4857604816244469 l 7.556278875712848 -1.2802789568411548" fill="#ff5908" stroke="none" /><path d="M 79.29508885075956 103.50808413554451 l -7.12530386217883 1.2072577979046564 a28.226854538385435,28.226854538385435 0 0,0 -0.07704351343044244,-0.47975003167514935 l 7.145029129970564 -1.0844285365362933" fill="#ff5307" stroke="none" /><path d="M 79.23777060512086 103.15116336523772 l -11.462335545004885 1.739682726865075 a32.59360306964298,32.59360306964298 0 0,0 -0.0794134586593607,-0.555417544902155 l 11.490583054680846 -1.5421197099825192" fill="#ff8e0d" stroke="none" /><path d="M 79.18660465613746 102.79330883721812 l -11.086409638090332 1.487876701685277 a32.18580599433765,32.18580599433765 0 0,0 -0.06896727111518776,-0.5497370082913721 l 11.110378418452369 -1.2968219391064963" fill="#ff890c" stroke="none" /><path d="M 79.1416061653843 102.43462659150553 l -14.470507123107382 1.6890217776989513 a35.56874637590492,35.56874637590492 0 0,0 -0.06574747013359195,-0.608739917783217 l 14.497436894742027 -1.4396855380309521" fill="#ffb610" stroke="none" /><path d="M 79.07016306316243 101.71520430193888 l -15.921082273387531 1.304735860544324 a36.9744544952798,36.9744544952798 0 0,0 -0.04652344425115372,-0.6347754337584036 l 15.94118227630302 -1.0304872902891598" fill="#ffc812" stroke="none" /><path d="M 79.0095281055655 100.63252640178507 l -31.6442557996254 0.9535672832305708 a52.65861992689785,52.65861992689785 0 0,0 -0.019503592613591844,-0.9062553108579878 l 31.655981454924 -0.40872215658245414" fill="#7eff26" stroke="none" /><line stroke="#e1ed5e" stroke-width="0.3" x1="15.007084014347285" x2="10.007500721073583" y1="101.09737516637583" y2="101.16192664675087" /><path d="M 14.007167355692545 101.11028546245083 a86.0,86.0 0 0,1 10.666146001902534,-42.60595125391555" fill="none" id="id10" stroke="none" /><text fill="#e1ed5e" style="font-size:6.75px; font-family:Arial;" text-anchor="middle"><textPath startOffset="22.20632615414155" xlink:href="#id10">October</textPath></text><path d="M 79.00019446554 99.90962569577889 l -15.364267172679556 -0.06612132447225631 a36.364409451164356,36.364409451164356 0 0,0 0.008081544765574352,-0.6259245482685242 l 15.360852620796265 0.3305821308012524" fill="#ffc011" stroke="none" /><path d="M 79.00486145842228 99.54816195383935 l -10.865502605809915 -0.23383734564266692 a31.868018530582255,31.868018530582255 0 0,0 0.01652327251686403,-0.5483269732148968 l 10.859867638837407 0.4208344662825581" fill="#ff850c" stroke="none" /><path d="M 79.03285615573316 98.82574320788736 l -18.91729525613708 -1.0594558137203458 a39.94693923643321,39.94693923643321 0 0,0 0.04435900067505908,-0.686214106684714 l 18.896255664457605 1.3849289846580717" fill="#ffed16" stroke="none" /><path d="M 79.05617556472873 98.46500227214037 l -23.93582648302802 -1.7542851058288371 a45.00002720119622,45.00002720119622 0 0,0 0.06326900148819002,-0.7720420726601145 l 23.90208299772033 2.16604109569673" fill="#d4ff1c" stroke="none" /><path d="M 79.26566170972629 96.67025291283419 l -31.301435033754615 -5.026727193731843 a52.70248919962854,52.70248919962854 0 0,0 0.15155262933410088,-0.8944721972323426 l 31.21027054290029 5.564785179280014" fill="#7dff26" stroke="none" /><path d="M 79.81627453868168 94.20196356495316 l -7.182121548807421 -2.063157393848173 a28.472582443415014,28.472582443415014 0 0,0 0.13937207472303853,-0.4698933503963839 l 7.145543576972676 2.186480130991096" fill="#ff5608" stroke="none" /><path d="M 80.02781315780177 93.51064311812611 l -5.123193788067949 -1.6646265693613496 a26.3868447356056,26.3868447356056 0 0,0 0.14407557267659996,-0.430767624018006 l 5.093780921619577 1.7525672963016778" fill="#ff3905" stroke="none" /><path d="M 80.2630227832202 92.82701384747504 l -2.972089573012844 -1.080142978184134 a24.162281657811675,24.162281657811675 0 0,0 0.1454286444227944,-0.3896764644800544 l 2.953056340088422 1.13114257969353" fill="#ff1902" stroke="none" /><path d="M 80.803312248108 91.48605970444005 l -13.388942743934441 -5.9381420699148135 a35.64668286824177,35.64668286824177 0 0,0 0.25359675373607177,-0.5587668313338853 l 13.284743673235017 6.16773091009077" fill="#ffb710" stroke="none" /><path d="M 80.95270993114464 91.15688171328213 l -12.333384322386157 -5.726041659687225 a34.5977910681167,34.5977910681167 0 0,0 0.25543352458507285,-0.53800814644656 l 12.232992603959334 5.937492221774318" fill="#ffa90f" stroke="none" /><path d="M 81.43458229118936 90.18545643968196 l -22.091693142548667 -11.678696815198858 a45.98869474794287,45.98869474794287 0 0,0 0.375994591225514,-0.696660873858984 l 21.88739045210468 12.057238672390316" fill="#c8ff1d" stroke="none" /><line stroke="#e1ed5e" stroke-width="0.3" x1="26.266209847984243" x2="21.928928074336255" y1="57.711370442889674" y2="55.22380399835377" /><path d="M 25.398753493254645 57.213857153982495 a86.0,86.0 0 0,1 29.58750427330803,-30.492523968695096" fill="none" id="id11" stroke="none" /><text fill="#e1ed5e" style="font-size:6.75px; font-family:Arial;" text-anchor="middle"><textPath startOffset="21.46611528233685" xlink:href="#id11">November</textPath></text><path d="M 82.15384107792192 88.93136811851018 l -13.88546358362417 -8.61211006704807 a37.3393555178625,37.3393555178625 0 0,0 0.3434730028577179,-0.5432918053008606 l 13.73516298452049 8.849849520063147" fill="#ffcc13" stroke="none" /><path d="M 82.34701348167596 88.62581576622439 l -4.141305423704726 -2.668328716427508 a25.926498629992487,25.926498629992487 0 0,0 0.24494783626565622,-0.3730723595376902 l 4.09476095208115 2.7392191399428647" fill="#ff3204" stroke="none" /><path d="M 82.54541684631803 88.32363383020206 l -12.153743706625335 -8.130332337527008 a35.62244131480692,35.62244131480692 0 0,0 0.34532654880217895,-0.5067240993091777 l 12.011992692154415 8.338334460106603" fill="#ffb610" stroke="none" /><path d="M 82.7489923806493 88.02491185347247 l -5.952449902893465 -4.131997031581006 a28.246037490618626,28.246037490618626 0 0,0 0.28069483642088755,-0.3970229398983558 l 5.8804424466687 4.233846471811148" fill="#ff5307" stroke="none" /><path d="M 82.95767976084542 87.72973835380427 l -6.131230564873457 -4.414410842445347 a28.55506527606066,28.55506527606066 0 0,0 0.29063262150513663,-0.39642256911350043 l 6.054335330854687 4.519295855230349" fill="#ff5708" stroke="none" /><path d="M 83.17141714833178 87.43820079747576 l -38.04154967133736 -28.396348791593013 a68.47117152641836,68.47117152641836 0 0,0 0.7131567911366489,-0.9384307418364177 l 37.547116939976604 29.046964309310457" fill="#3aff8f" stroke="none" /><path d="M 83.6137871275137 86.86637796730984 l -11.946592499063295 -9.575246683430995 a36.310337076211994,36.310337076211994 0 0,0 0.39509365595851964,-0.48433810580540776 l 11.780000351028383 9.779468958844484" fill="#ffbf11" stroke="none" /><path d="M 84.07557802195018 86.31012108654704 l -9.032931410487452 -7.765414494388015 a32.911990267634636,32.911990267634636 0 0,0 0.3730153080735176,-0.4264209793439771 l 8.89792423883609 7.919751029934934" fill="#ff930d" stroke="none" /><path d="M 84.5562425177563 85.77008943001954 l -22.681262652462607 -20.898563029745958 a51.84136203571852,51.84136203571852 0 0,0 0.6103275604185632,-0.6510548875960075 l 22.318167770073586 21.285887334220014" fill="#86ff25" stroke="none" /><path d="M 84.80347519578584 85.50635884689758 l -5.445251516490507 -5.193392731903701 a28.524765255184533,28.524765255184533 0 0,0 0.34193822781950406,-0.3523974009867944 l 5.355049024967884 5.28635432844062" fill="#ff5708" stroke="none" /><path d="M 85.31137513191541 84.99185889309783 l -2.5798136280313275 -2.635931362310862 a24.68830211644737,24.68830211644737 0 0,0 0.3062722089568242,-0.2946336223573086 l 2.534058175462076 2.679948071430484" fill="#ff2003" stroke="none" /><path d="M 86.65592168130627 83.78471172551755 l -15.323480825680202 -18.62059357136869 a45.11504861212363,45.11504861212363 0 0,0 0.6038898494507287,-0.48830359386513716 l 15.000687577664971 18.88160326249796" fill="#d2ff1c" stroke="none" /><path d="M 86.93701828274178 83.55741782278169 l -9.990323270988727 -12.574978279513836 a37.060405903622225,37.060405903622225 0 0,0 0.5029051988147506,-0.39252548462499415 l 9.77238551701455 12.745082153362052" fill="#ffc912" stroke="none" /><path d="M 87.51073957382395 83.11751280151077 l -5.31889956878438 -7.18987760811278 a29.943435170137715,29.943435170137715 0 0,0 0.4170046599982701,-0.30297161986516 l 5.194349592432328 7.280368462794607" fill="#ff6a09" stroke="none" /><path d="M 87.80319425747018 82.90503203632743 l -8.437196229976808 -11.825522378513835 a35.526846173477104,35.526846173477104 0 0,0 0.5008758505127603,-0.3508955421510942 l 8.232389239880387 11.969002763428872" fill="#ffb510" stroke="none" /><path d="M 88.09926311788651 82.69761687909137 l -7.926767834471171 -11.524662324788597 a34.98754767648742,34.98754767648742 0 0,0 0.49914785895728647,-0.33702686251599573 l 7.727215281107346 11.659401099603258" fill="#ffae10" stroke="none" /><path d="M 88.39885842347998 82.49532879139004 l -20.271177676271808 -30.58667096629752 a57.69421051315218,57.69421051315218 0 0,0 0.8325356288965692,-0.5415043315194552 l 19.741675021590954 30.93107422197651" fill="#49ff2c" stroke="none" /><path d="M 89.00827224532344 82.1063720568725 l -6.0605873723837105 -9.866137333333358 a32.57891986233997,32.57891986233997 0 0,0 0.4803652110017018,-0.2894146647854979 l 5.88986009516436 9.968998607577475" fill="#ff8e0d" stroke="none" /><line stroke="#e1ed5e" stroke-width="0.3" x1="56.762969772571076" x2="54.21961505331055" y1="26.818313649435495" y2="22.513508569990535" /><path d="M 56.25429882871897 25.957352633546506 a86.0,86.0 0 0,1 42.265352541879196,-11.944610805530505" fill="none" id="id12" stroke="none" /><text fill="#e1ed5e" style="font-size:6.75px; font-family:Arial;" text-anchor="middle"><textPath startOffset="22.20632615414155" xlink:href="#id12">December</textPath></text><path d="M 89.3179101791058 81.91981866633112 l -8.812747906322624 -14.916189890349157 a38.325046796627944,38.325046796627944 0 0,0 0.5708666603049874,-0.3306828165419463 l 8.554684513552317 15.065676864281151" fill="#ffd914" stroke="none" /><path d="M 89.63071344664047 81.73862282372117 l -7.082610132104896 -12.473202890993257 a35.34378459972393,35.34378459972393 0 0,0 0.5316309598132954,-0.2958520535514734 l 6.866855083219554 12.593270342104914" fill="#ffb310" stroke="none" /><path d="M 89.94658935756843 81.56283822128135 l -13.649934173249225 -25.03290212367042 a49.51257427289406,49.51257427289406 0 0,0 0.7517775983832125,-0.40157355734933486 l 13.217011528337705 25.264154407521506" fill="#a0ff22" stroke="none" /><path d="M 90.58718382345135 81.22770947309562 l -5.250490214150405 -10.471226236656396 a32.71384763381061,32.71384763381061 0 0,0 0.5055515963721205,-0.24807197275332155 l 5.069467350767859 10.560053369544546" fill="#ff900d" stroke="none" /><path d="M 90.91171255644093 81.06846463323043 l -11.358595294152206 -23.66074465222401 a47.24592396076167,47.24592396076167 0 0,0 0.736185511773482,-0.3456489689476429 l 10.949631571079115 23.85275860381166" fill="#baff1f" stroke="none" /><path d="M 91.56875222667455 80.76684994638697 l -5.161449310487776 -11.774168160114986 a33.85580004695936,33.85580004695936 0 0,0 0.5357539166003924,-0.22938186723232876 l 4.958011636097075 11.861269555310102" fill="#ff9f0e" stroke="none" /><path d="M 92.91201910852362 80.23233633223022 l -10.395416261876216 -28.99176726031364 a51.799143626631476,51.799143626631476 0 0,0 0.8419038044704715,-0.29372370616521154 l 9.89483045334246 29.16641181965106" fill="#87ff25" stroke="none" /><path d="M 93.25333710446033 80.11325718540243 l -1.1001328773520902 -3.2427972069344366 a24.424328557999768,24.424328557999768 0 0,0 0.39929959757888595,-0.13164279937851572 l 1.044150457530795 3.2612537305721863" fill="#ff1d02" stroke="none" /><path d="M 93.59665428221793 80.00007090966166 l -4.5533314900882615 -14.221675814516608 a35.93281254927671,35.93281254927671 0 0,0 0.5906920234120862,-0.18353088701556783 l 4.307854093965447 14.2979468364147" fill="#ffba11" stroke="none" /><path d="M 94.28887869178378 79.79150937346287 l -3.957703367306272 -14.004117069928489 a35.55261869396192,35.55261869396192 0 0,0 0.5903463420099363,-0.16136395573358125 l 3.7160591360726136 14.070167566488365" fill="#ffb510" stroke="none" /><path d="M 94.98787191387505 79.60689891045804 l -2.653727017577335 -10.797354417840424 a32.11868380287334,32.11868380287334 0 0,0 0.5380281984662363,-0.1273338915830477 l 2.467475132148565 10.841434221564342" fill="#ff880c" stroke="none" /><path d="M 95.692805502759 79.44645832069477 l -4.6136865034788945 -22.01609374855111 a43.49432121886265,43.49432121886265 0 0,0 0.7340880208281526,-0.1472511510365794 l 4.234032073183605 22.092248855664902" fill="#e6ff1a" stroke="none" /><path d="M 96.40284397218896 79.31037775812273 l -1.8336687803967964 -10.54664131603426 a31.704857974082735,31.704857974082735 0 0,0 0.53848556489857,-0.0888547321306255 l 1.6518540093593408 10.576642311104512" fill="#ff820c" stroke="none" /><path d="M 97.47563105711357 79.15227682838746 l -0.876592296732504 -7.239414661690159 a28.292293102898785,28.292293102898785 0 0,0 0.48397779602969526,-0.05438054453470819 l 0.7518477971930908 7.253431159695465" fill="#ff5407" stroke="none" /><path d="M 98.19473922651362 79.07773832637324 l -1.6322388023155023 -18.91700514266435 a39.987292778997585,39.987292778997585 0 0,0 0.6862767913519724,-0.05326828720407888 l 1.3063718216011957 18.94229869205689" fill="#ffee16" stroke="none" /><path d="M 98.55514903715128 79.0497635885617 l -0.5070041299129406 -7.351523898568256 a28.36898614593412,28.36898614593412 0 0,0 0.487457468447428,-0.029404765685350824 l 0.38038461262588963 7.359161933633913" fill="#ff5507" stroke="none" /><path d="M 98.91598698831166 79.02799685794201 l -1.3287867530579964 -25.707551163850248 a46.741869805378954,46.741869805378954 0 0,0 0.8038692757846309,-0.03461630199923074 l 0.8860766448840415 25.72661519237367" fill="#bfff1e" stroke="none" /></svg>