<?xml version="1.0" encoding="utf-8" ?>
<svg baseProfile="full" height="200mm" version="1.1" viewBox="0,0,200,200" width="200mm" xmlns="http://www.w3.org/2000/svg" xmlns:ev="http://www.w3.org/2001/xml-events" xmlns:xlink="http://www.w3.org/1999/xlink"><defs /><rect fill="#1a1a1a" height="200" width="200" x="0" y="0" /><text alignment-baseline="middle" fill="#e1ed5e" style="dominant-baseline: central; font-size:9.0px; font-family:Arial;" text-anchor="middle" x="100.0" y="100.0">2017</text><line stroke="#e1ed5e" stroke-width="0.3" x1="100.0" x2="100.0" y1="15.0" y2="10.0" /><path d="M 100.0 14.0 a86.0,86.0 0 0,1 42.46469731375804,11.215312516191453" fill="none" id="id25" stroke="none" /><text fill="#e1ed5e" style="font-size:6.75px; font-family:Arial;" text-anchor="middle"><textPath startOffset="22.20632615414155" xlink:href="#id25">January</textPath></text><path d="M 100.0 79.0 l 0.0 -8.568173148373894 a29.568173148373894,29.568173148373894 0 0,0 0.5089674952803476,0.004380843918650904 l -0.14748701600781922 8.566903681063803" fill="#ff6409" stroke="none" /><path d="M 100.36148047927253 79.00311137660856 l 1.036353337630707 -60.19742932869809 a81.2063495490635,81.2063495490635 0 0,0 1.3974196085755624,0.03609122570007662 l -2.0723995814011373 60.17067131085565" fill="#49ecff" stroke="none" /><path d="M 101.44485096284872 79.0497635885617 l 0.5761936586882374 -8.35476715500801 a29.374612429641935,29.374612429641935 0 0,0 0.504138023967708,0.03913081338260496 l -0.7199218720182866 8.343611079436942" fill="#ff6109" stroke="none" /><path d="M 101.80526077348638 79.07773832637324 l 0.7160734527783983 -8.299009415483837 a29.329845044660996,29.329845044660996 0 0,0 0.5026225837100098,0.04773007065978514 l -0.8588211635786523 8.285453800308874" fill="#ff6008" stroke="none" /><path d="M 102.16513564639614 79.11191278185805 l 0.7509907723695264 -7.245163036036593 a28.283980680845822,28.283980680845822 0 0,0 0.4838356008498805,0.054364567249442296 l -0.8755930767291321 7.23116251531655" fill="#ff5207" stroke="none" /><path d="M 102.52436894288641 79.15227682838746 l 1.3411889216761208 -11.07632679396163 a32.157230972345204,32.157230972345204 0 0,0 0.54894731788367,0.07126911675481451 l -1.531650968067637 11.05159935404268" fill="#ff870c" stroke="none" /><path d="M 103.2404852339499 79.25152402106235 l 1.4479786347162837 -9.271250368823681 a30.38364137891086,30.38364137891086 0 0,0 0.516045594809898,0.08515194479291235 l -1.607353435665057 9.244952161091145" fill="#ff6f0a" stroke="none" /><path d="M 104.307194497241 79.44645832069477 l 2.6786170841691117 -12.782117900093596 a34.05976751307219,34.05976751307219 0 0,0 0.5727835576609878,0.1251883004762835 l -2.8982433659836278 12.734116101521442" fill="#ffa10e" stroke="none" /><path d="M 105.01212808612495 79.60689891045804 l 5.005326449772707 -20.365426924931203 a41.97150225194912,41.97150225194912 0 0,0 0.700106865114011,0.17847282844717485 l -5.355142203571743 20.276251100315157" fill="#f9ff18" stroke="none" /><path d="M 105.71112130821622 79.79150937346287 l 2.677434530455865 -9.473955759623614 a30.845023788705788,30.845023788705788 0 0,0 0.5096916661540241,0.14879297401610667 l -2.840116414333316 9.426464456688803" fill="#ff750a" stroke="none" /><path d="M 106.40334571778207 80.00007090966166 l 4.595485449570391 -14.353337642204352 a36.0710579584956,36.0710579584956 0 0,0 0.5897054198590903,0.19441660535006453 l -4.841873691671898 14.272107312595052" fill="#ffbb11" stroke="none" /><path d="M 107.08798089147638 80.2323363322302 l 7.206834525425717 -20.09913446284883 a42.35213502281553,42.35213502281553 0 0,0 0.684123463857395,0.2519684452940895 l -7.551740315055688 19.972102749748416" fill="#f4ff19" stroke="none" /><path d="M 107.4271985657038 80.35727306442388 l 4.991435994999294 -13.20086078200684 a35.11301380563701,35.11301380563701 0 0,0 0.563508418099942,0.21863251159423794 l -5.2179275780989025 13.112985566522056" fill="#ffae10" stroke="none" /><path d="M 107.76421540070413 80.48803036053334 l 6.358041988866116 -15.978165964066257 a38.196699843499914,38.196699843499914 0 0,0 0.6088119793385779,0.248349692730633 l -6.632137837793081 15.866355385152044" fill="#ffd614" stroke="none" /><path d="M 108.43124777332544 80.76684994638697 l 8.746485398628094 -19.952262184224672 a42.785173239991835,42.785173239991835 0 0,0 0.6719673904307577,0.3014921807069973 l -9.088634907525632 19.798749673001144" fill="#efff19" stroke="none" /><path d="M 109.08828744355905 81.06846463323043 l 6.289163568762028 -13.10076549282102 a35.53215864531259,35.53215864531259 0 0,0 0.5491050678832203,0.269443472073169 l -6.51373990365568 12.990566860613018" fill="#ffb410" stroke="none" /><path d="M 110.05341064243156 81.56283822128135 l 11.606082649759644 -21.284639714969746 a45.243288602603386,45.243288602603386 0 0,0 0.6805364286059122,0.37871778571803233 l -11.970743167437591 21.081706531691534" fill="#d2ff1c" stroke="none" /><line stroke="#e1ed5e" stroke-width="0.3" x1="143.23703022742887" x2="145.7803849466894" y1="26.81831364943548" y2="22.513508569990506" /><path d="M 143.74570117128098 25.957352633546492 a86.0,86.0 0 0,1 28.547481713284135,27.462654790039103" fill="none" id="id26" stroke="none" /><text fill="#e1ed5e" style="font-size:6.75px; font-family:Arial;" text-anchor="middle"><textPath startOffset="19.985693538727396" xlink:href="#id26">February</textPath></text><path d="M 110.68208982089419 81.91981866633111 l 8.666014820691657 -14.667833918780072 a38.03658312988149,38.03658312988149 0 0,0 0.5608366194513129,0.33789778797565023 l -8.917213506360609 14.516489521345807" fill="#ffd413" stroke="none" /><path d="M 111.90073688211348 82.69761687909136 l 3.094654129919437 -4.499292095352935 a26.4608161975233,26.4608161975233 0 0,0 0.3730582712993902,0.26135115962875693 l -3.1716435408024783 4.4453560929602425" fill="#ff3805" stroke="none" /><path d="M 112.77801427241765 83.33499621200491 l 6.007124227460816 -7.834452667789254 a30.872395357155064,30.872395357155064 0 0,0 0.41893464862077834,0.3269851382798042 l -6.1410914312410245 7.729889140286225" fill="#ff760a" stroke="none" /><path d="M 114.16331599549186 84.49514656593476 l 6.858815915181339 -7.5084772188921 a31.169591235883892,31.169591235883892 0 0,0 0.39302200117139485,0.36527111700376685 l -6.98704580014758 7.389301515813693" fill="#ff7a0b" stroke="none" /><path d="M 114.68862486808459 84.99185889309783 l 10.078406646141982 -10.297638508468753 a35.40887363315042,35.40887363315042 0 0,0 0.43192789434344614,0.43007305869890256 l -10.25417034065275 10.12262959911973" fill="#ffb210" stroke="none" /><path d="M 115.4437574822437 85.77008943001954 l 21.69676260295043 -19.991442617060994 a50.50266573311691,50.50266573311691 0 0,0 0.5835615717134971,0.6443832627926825 l -22.03766781527996 19.615006566998765" fill="#96ff23" stroke="none" /><path d="M 115.68641384162765 86.03803664274999 l 5.208045778017614 -4.635511025636536 a27.972209355342464,27.972209355342464 0 0,0 0.3170292104893019,0.3624191916296693 l -5.287066852084764 4.545176277803918" fill="#ff4e07" stroke="none" /><path d="M 116.38621287248628 86.86637796730983 l 11.218017686815154 -8.991290751632267 a35.376620959115726,35.376620959115726 0 0,0 0.376754139041918,0.4784394966013917 l -11.371125906451036 8.796858861077837" fill="#ffb210" stroke="none" /><path d="M 117.45458315368197 88.32363383020206 l 5.8206256139443955 -3.8937484445959423 a28.00292506653462,28.00292506653462 0 0,0 0.264565454905732,0.40295133861397875 l -5.886787704208053 3.7929790420042897" fill="#ff4e07" stroke="none" /><line stroke="#e1ed5e" stroke-width="0.3" x1="172.23445277983987" x2="176.4835382374775" y1="55.19839476539836" y2="52.563006222186495" /><path d="M 173.08426987136738 54.67131705675599 a86.0,86.0 0 0,1 12.851231095245387,41.99856678651699" fill="none" id="id27" stroke="none" /><text fill="#e1ed5e" style="font-size:6.75px; font-family:Arial;" text-anchor="middle"><textPath startOffset="22.20632615414155" xlink:href="#id27">March</textPath></text><path d="M 117.84615892207809 88.93136811851018 l 9.951980434433661 -6.1724659295877435 a32.710732266569494,32.710732266569494 0 0,0 0.2926585628274984,0.48105372790055373 l -10.056754795547382 6.000244428480108" fill="#ff8f0d" stroke="none" /><path d="M 118.3937258080291 89.86733742301442 l 28.32504534038647 -15.603588414190192 a53.33852447058152,53.33852447058152 0 0,0 0.4360853643445985,0.8079999502418562 l -28.589438803949534 15.113707480615876" fill="#77ff27" stroke="none" /><path d="M 118.56541770881063 90.18545643968196 l 8.901526447582928 -4.705761025331794 a31.06883111014134,31.06883111014134 0 0,0 0.24587365015461907,0.47494963208770397 l -8.981209530897662 4.551838670983746" fill="#ff780b" stroke="none" /><path d="M 118.89224826269711 90.83032412892265 l 6.319414327579226 -3.0672358457918656 a28.024452517977764,28.024452517977764 0 0,0 0.20690293976110552,0.4357903579651045 l -6.371275461182088 2.9580030721862207" fill="#ff4e07" stroke="none" /><path d="M 119.04729006885535 91.15688171328212 l 9.434789773018997 -4.3803061575434405 a31.40203538231229,31.40203538231229 0 0,0 0.22339958708345023,0.4922313774009537 l -9.508791677065794 4.217252771300425" fill="#ff7d0b" stroke="none" /><path d="M 119.47837535516314 92.15188598940014 l 25.468514759710015 -10.261626232696411 a48.45808108745274,48.45808108745274 0 0,0 0.30507004191032555,0.7763699810816307 l -25.641378351502038 9.821707246718995" fill="#adff20" stroke="none" /><path d="M 119.61058180528143 92.48833698450437 l 19.675704787841337 -7.536607808282062 a42.06973697401419,42.06973697401419 0 0,0 0.25321055792661495,0.6784784068742951 l -19.80251993426958 7.196806264378433" fill="#f8ff18" stroke="none" /><path d="M 119.85752413597 93.16781622104841 l 6.6036414718964735 -2.2720502232490003 a27.983573075891513,27.983573075891513 0 0,0 0.1527939151817692,0.456834358416884 l -6.641772680850012 2.1580427619098024" fill="#ff4e07" stroke="none" /><path d="M 120.08093135843002 93.85539295169968 l 13.40891612937049 -4.103022867214231 a35.022618457812186,35.022618457812186 0 0,0 0.17143422119856858,0.5779909693650606 l -13.477556247680761 3.871602511102641" fill="#ffad10" stroke="none" /><path d="M 120.18372546131832 94.20196356495316 l 1.52586495911523 -0.43832446318527757 a22.587574315892766,22.587574315892766 0 0,0 0.10413219117113574,0.3746188960671358 l -1.533183920852729 0.4119942636991899" fill="#ff0000" stroke="none" /><path d="M 120.37134235888165 94.90015583598534 l 18.10223002364688 -4.531785412830026 a39.660863079101176,39.660863079101176 0 0,0 0.16009239535497435,0.6636863338633501 l -18.177555219262672 4.21951384730727" fill="#ffe915" stroke="none" /><path d="M 120.53481517161879 95.60439243477599 l 9.556231501509266 -2.0455720264345016 a30.772713309300002,30.772713309300002 0 0,0 0.10641600510130056,0.5189222337489194 l -9.590026802525564 1.8807741365221704" fill="#ff740a" stroke="none" /><path d="M 120.6074358757038 95.95851677861258 l 11.146963619952162 -2.186117026454858 a32.3593092042559,32.3593092042559 0 0,0 0.10249314411895755,0.5475224742114092 l -11.182942487980979 1.993916474780886" fill="#ff8a0c" stroke="none" /><path d="M 120.67395015179393 96.31383870115 l 26.270555832772313 -4.684035005358682 a47.68487001456505,47.68487001456505 0 0,0 0.13712383494427233,0.8093126359763306 l -26.34729152923681 4.231136581066513" fill="#b5ff1f" stroke="none" /><path d="M 120.78858239683441 97.02765380044208 l 17.058244641864675 -2.438983460464163 a38.23172511915515,38.23172511915515 0 0,0 0.08753972888809543,0.6522726600675679 l -17.097700369810607 2.144992458331931" fill="#ffd714" stroke="none" /><path d="M 120.83666639777658 97.38593545837742 l 11.697829353556054 -1.4675514952020166 a32.789525816418035,32.789525816418035 0 0,0 0.06543797391170418,0.5606325981782757 l -11.721357680471348 1.2659751586988879" fill="#ff900d" stroke="none" /><path d="M 120.87857604477298 97.74499172005257 l 8.350283927154484 -0.9018794842744763 a29.398846841575914,29.398846841575914 0 0,0 0.05001006241947737,0.5035945037136902 l -8.36457111525619 0.7580094498563511" fill="#ff6109" stroke="none" /><path d="M 120.91429891909075 98.10471618934814 l 18.794189379448778 -1.7031564387118867 a39.871202830909084,39.871202830909084 0 0,0 0.056057992586676805,0.6840494992458455 l -18.82072185585495 1.3793930222582724" fill="#ffeb16" stroke="none" /><line stroke="#e1ed5e" stroke-width="0.3" x1="184.98032266829074" x2="189.97916517819016" y1="98.17113171792111" y2="98.06355123074" /><path d="M 185.9800911702706 98.14961562048488 a86.0,86.0 0 0,1 -9.607161424134198,41.387399972396054" fill="none" id="id28" stroke="none" /><text fill="#e1ed5e" style="font-size:6.75px; font-family:Arial;" text-anchor="middle"><textPath startOffset="21.466115282336823" xlink:href="#id28">April</textPath></text><path d="M 120.99513854157772 99.54816195383933 l 18.454748707930474 -0.39716611452999695 a39.45902193496157,39.45902193496157 0 0,0 0.008769284500589123,0.6791907486612138 l -18.45885099954878 0.07943910780832046" fill="#ffe615" stroke="none" /><path d="M 120.89721153311464 102.0752229133903 l 2.2463663917516774 0.2230781365564405 a23.257415739512982,23.257415739512982 0 0,0 -0.042990445335290735,0.39803813143978617 l -2.242193644915335 -0.2617125898810181" fill="#ff0a01" stroke="none" /><path d="M 120.8583938346157 102.4346265915055 l 62.575181503847105 7.303879774516526 a84.0,84.0 0 0,0 -0.1799939630126075,1.4347289828504204 l -62.44018603158764 -8.379926511654341" fill="#4dd2ff" stroke="none" /><path d="M 120.49622156327973 104.57218783832717 l 7.268319565081899 1.6213779802263795 a28.44696823243629,28.44696823243629 0 0,0 -0.11072567068147068,0.47700329133573866 l -7.239333328469875 -1.746249928910683" fill="#ff5407" stroke="none" /><path d="M 120.41448212921028 104.9243191809786 l 8.276075640067363 1.9963297505989688 a29.51344586364669,29.51344586364669 0 0,0 -0.12337841061873407,0.4928354203729987 l -8.240485915153567 -2.138493010369363" fill="#ff6309" stroke="none" /><path d="M 120.23288151984713 105.62410040840565 l 9.643279526452481 2.6805263634787058 a31.008899120812536,31.008899120812536 0 0,0 -0.14737697401491665,0.5130385805885169 l -9.595709915551465 -2.8461224195718047" fill="#ff780b" stroke="none" /><path d="M 120.02730092923936 106.31721596034902 l 13.421169678738075 4.233442519320881 a35.07301783946401,35.07301783946401 0 0,0 -0.18656799394826368,0.5741972435383875 l -13.346309433773564 -4.463838662837063" fill="#ffae10" stroke="none" /><path d="M 119.67450827220406 107.3425965602758 l 17.01843122874206 6.351339147723097 a39.16498033185896,39.16498033185896 0 0,0 -0.24115504745319818,0.6295797316894772 l -16.906581901695354 -6.643342446245718" fill="#ffe215" stroke="none" /><line stroke="#e1ed5e" stroke-width="0.3" x1="174.80103733775053" x2="179.2010983576182" y1="140.37084112569926" y2="142.7455964860345" /><path d="M 175.68104954172406 140.8457921977663 a86.0,86.0 0 0,1 -30.038265399797805,32.042727171017184" fill="none" id="id29" stroke="none" /><text fill="#e1ed5e" style="font-size:6.75px; font-family:Arial;" text-anchor="middle"><textPath startOffset="22.206326154141568" xlink:href="#id29">May</textPath></text><line stroke="#e1ed5e" stroke-width="0.3" x1="143.8653032363475" x2="146.44561519142675" y1="172.8068346515853" y2="177.08958963109032" /><path d="M 144.38136562736335 173.6633856474863 a86.0,86.0 0 0,1 -40.68145358897372,12.25698825130547" fill="none" id="id30" stroke="none" /><text fill="#e1ed5e" style="font-size:6.75px; font-family:Arial;" text-anchor="middle"><textPath startOffset="21.466115282336833" xlink:href="#id30">June</textPath></text><path d="M 106.2309692047433 120.05430185196036 l 2.6111049773028268 8.40381097408171 a29.800108413570356,29.800108413570356 0 0,0 -0.49116968030145164,0.1479853955485022 l -2.466060322561129 -8.447511738735939" fill="#ff6709" stroke="none" /><path d="M 104.83641907484287 120.43548508189849 l 2.1497153203472474 9.083264845222727 a30.33418321049007,30.33418321049007 0 0,0 -0.5091518269677663,0.11588129816183225 l -1.9930433439866193 -9.118922876962245" fill="#ff6e0a" stroke="none" /><path d="M 104.48393922423573 120.51570834832081 l 1.9469164349931354 8.907874920111055 a30.11815327778547,30.11815327778547 0 0,0 -0.5074314188409174,0.10633718748138632 l -1.79329355472284 -8.940068088318982" fill="#ff6b09" stroke="none" /><path d="M 103.41894727170886 120.7198165907248 l 1.0274870966938967 6.226871168502403 a27.31107394054284,27.31107394054284 0 0,0 -0.46450172085228175,0.0725456158367538 l -0.9201495122330978 -6.243635091686263" fill="#ff4406" stroke="none" /><path d="M 102.70371172650421 120.8252237178851 l 0.7823688263343299 6.026162359911727 a27.0767370988415,27.0767370988415 0 0,0 -0.46271897228674014,0.05602882354632538 l -0.6785224309962095 -6.038736712183404" fill="#ff4106" stroke="none" /><path d="M 102.34483914955558 120.86867818915974 l 0.9630166766059961 8.57068815090944 a29.624621527902587,29.624621527902587 0 0,0 -0.5072403923490332,0.05257754064781261 l -0.8153436876513602 -8.585995060013012" fill="#ff6509" stroke="none" /><path d="M 101.26447882468166 120.96189622390904 l 0.731170147659798 12.120972259953414 a33.1430053245228,33.1430053245228 0 0,0 -0.5697628747994431,0.02945023256366509 l -0.5224192044468754 -12.13176229927928" fill="#ff940d" stroke="none" /><line stroke="#e1ed5e" stroke-width="0.3" x1="102.19456741930631" x2="102.32365962044197" y1="184.97166512339345" y2="189.96999836594603" /><path d="M 102.22038585953345 185.97133177190398 a86.0,86.0 0 0,1 -42.740103519485714,-10.115201625700543" fill="none" id="id31" stroke="none" /><text fill="#e1ed5e" style="font-size:6.75px; font-family:Arial;" text-anchor="middle"><textPath startOffset="22.20632615414155" xlink:href="#id31">July</textPath></text><path d="M 100.54218724476979 120.99299961872073 l 0.2695491821968597 10.436700482483216 a31.440180732280854,31.440180732280854 0 0,0 -0.5411308892241028,0.00931605899780687 l -0.089858603080089 -10.439794018760184" fill="#ff7d0b" stroke="none" /><path d="M 100.18074693466247 120.99922214144158 l 0.06824366387321305 7.928565206904666 a28.928858898845284,28.928858898845284 0 0,0 -0.49798119707133154,0.0 l 0.0682436638732076 -7.928565206904666" fill="#ff5b08" stroke="none" /><path d="M 99.09653310690486 120.98055641714683 l -0.30301473491958236 7.036691426984739 a28.043212631191743,28.043212631191743 0 0,0 -0.4820921123751322,-0.02491865555746184 l 0.4240949157082035 -7.030432964665076" fill="#ff4f07" stroke="none" /><path d="M 97.2962882734958 120.8252237178851 l -0.9030115427515147 6.955407713509312 a28.013781170487665,28.013781170487665 0 0,0 -0.47766352809049256,-0.06619981251335874 l 1.0226036620288383 -6.9388333355033485" fill="#ff4e07" stroke="none" /><path d="M 96.22490169976321 120.6578951692458 l -0.7824788204008342 4.281839612754356 a25.352748967460478,25.352748967460478 0 0,0 -0.42862128300392804,-0.08214628901495204 l 0.8560677179764573 -4.267736125390936" fill="#ff2803" stroke="none" /><path d="M 95.16358092515715 120.4354850818985 l -1.6876368774322599 7.130829173141766 a28.327812970225086,28.327812970225086 0 0,0 -0.47354217588600916,-0.11638514560888201 l 1.8101323380614796 -7.100722769218854" fill="#ff5307" stroke="none" /><path d="M 94.81253420990036 120.34920634021253 l -1.3080671787078142 5.131239415050425 a26.295343018028166,26.295343018028166 0 0,0 -0.4376416044929058,-0.11558512540922215 l 1.3961992260122094 -5.107962940337622" fill="#ff3605" stroke="none" /><path d="M 93.76903079525671 120.05430185196036 l -4.238717578845442 13.642263185423522 a35.28558964598855,35.28558964598855 0 0,0 -0.5784797781425705,-0.18521095717195477 l 4.472918702078953 -13.567279381591861" fill="#ffb110" stroke="none" /><path d="M 92.40401165467489 119.57807347666478 l -1.5883593499797952 4.093873587943341 a25.39120557236032,25.39120557236032 0 0,0 -0.40611289550687435,-0.16160070233715348 l 1.6585933215285276 -4.065926041200122" fill="#ff2904" stroke="none" /><path d="M 92.06813273071674 119.44442032107085 l -5.479098865192197 13.431629362744793 a35.50617770857294,35.50617770857294 0 0,0 -0.5639201728554321,-0.2357186779888516 l 5.709490497545091 -13.335325641735968" fill="#ffb410" stroke="none" /><line stroke="#e1ed5e" stroke-width="0.3" x1="58.666819895761336" x2="56.23545636021788" y1="174.27360380694188" y2="178.64263932499728" /><path d="M 58.180547188652646 175.14741091055294 a86.0,86.0 0 0,1 -31.652253787137756,-30.449443065178592" fill="none" id="id32" stroke="none" /><text fill="#e1ed5e" style="font-size:6.75px; font-family:Arial;" text-anchor="middle"><textPath startOffset="22.20632615414155" xlink:href="#id32">August</textPath></text><path d="M 89.7882731507175 118.34994917583269 l -6.850288644224865 12.30961719957701 a35.087339355226675,35.087339355226675 0 0,0 -0.5252261138937885,-0.29823709502844475 l 7.061163525039861 -12.189876938753931" fill="#ffae10" stroke="none" /><path d="M 89.4739219176387 118.17145234162733 l -3.5157741431218206 6.069375676845852 a28.01412780979446,28.01412780979446 0 0,0 -0.41518555426311127,-0.24529894369573244 l 3.619727568413314 -6.00795816085637" fill="#ff4e07" stroke="none" /><path d="M 89.1626897886671 117.98757091392108 l -3.733369172829603 6.196578434554187 a28.234336851171392,28.234336851171392 0 0,0 -0.4141315726799291,-0.25439343636638867 l 3.8394799454418407 -6.13139653135942" fill="#ff5107" stroke="none" /><path d="M 88.54995079064634 117.60387380957326 l -6.493001752876301 9.982663079700812 a32.908510986923446,32.908510986923446 0 0,0 -0.47219842795971356,-0.31294736985841437 l 6.663874879575976 -9.86941768875108" fill="#ff910d" stroke="none" /><path d="M 88.24862548938628 117.40417183066458 l -8.977147596128367 13.295450602067143 a37.042387156364256,37.042387156364256 0 0,0 -0.5253723805550746,-0.3613559139469094 l 9.20467686130633 -13.138953898755133" fill="#ffc712" stroke="none" /><line stroke="#e1ed5e" stroke-width="0.3" x1="26.63291911575756" x2="22.317208475507996" y1="142.92168965132927" y2="145.44649492493687" /><path d="M 25.769776987707644 143.4266507060508 a86.0,86.0 0 0,1 -11.730757126820373,-40.83630448921669" fill="none" id="id33" stroke="none" /><text fill="#e1ed5e" style="font-size:6.75px; font-family:Arial;" text-anchor="middle"><textPath startOffset="21.46611528233685" xlink:href="#id33">September</textPath></text><line stroke="#e1ed5e" stroke-width="0.3" x1="15.007084014347285" x2="10.007500721073583" y1="101.09737516637583" y2="101.16192664675087" /><path d="M 14.007167355692545 101.11028546245083 a86.0,86.0 0 0,1 10.666146001902534,-42.60595125391555" fill="none" id="id34" stroke="none" /><text fill="#e1ed5e" style="font-size:6.75px; font-family:Arial;" text-anchor="middle"><textPath startOffset="22.20632615414155" xlink:href="#id34">October</textPath></text><line stroke="#e1ed5e" stroke-width="0.3" x1="26.266209847984243" x2="21.928928074336255" y1="57.711370442889674" y2="55.22380399835377" /><path d="M 25.398753493254645 57.213857153982495 a86.0,86.0 0 0,1 29.58750427330803,-30.492523968695096" fill="none" id="id35" stroke="none" /><text fill="#e1ed5e" style="font-size:6.75px; font-family:Arial;" text-anchor="middle"><textPath startOffset="21.46611528233685" xlink:href="#id35">November</textPath></text><line stroke="#e1ed5e" stroke-width="0.3" x1="56.762969772571076" x2="54.21961505331055" y1="26.818313649435495" y2="22.513508569990535" /><path d="M 56.25429882871897 25.957352633546506 a86.0,86.0 0 0,1 42.265352541879196,-11.944610805530505" fill="none" id="id36" stroke="none" /><text fill="#e1ed5e" style="font-size:6.75px; font-family:Arial;" text-anchor="middle"><textPath startOffset="22.20632615414155" xlink:href="#id36">December</textPath></text></svg>