<?xml version="1.0" encoding="utf-8" ?>
<svg baseProfile="full" height="200mm" version="1.1" viewBox="0,0,200,200" width="200mm" xmlns="http://www.w3.org/2000/svg" xmlns:ev="http://www.w3.org/2001/xml-events" xmlns:xlink="http://www.w3.org/1999/xlink"><defs /><rect fill="#1a1a1a" height="200" width="200" x="0" y="0" /><text alignment-baseline="middle" fill="#e1ed5e" style="dominant-baseline: central; font-size:9.0px; font-family:Arial;" text-anchor="middle" x="100.0" y="100.0">2023</text><line stroke="#e1ed5e" stroke-width="0.3" x1="100.0" x2="100.0" y1="15.0" y2="10.0" /><path d="M 100.0 14.0 a86.0,86.0 0 0,1 42.46469731375804,11.215312516191453" fill="none" id="id109" stroke="none" /><text fill="#e1ed5e" style="font-size:6.75px; font-family:Arial;" text-anchor="middle"><textPath startOffset="22.20632615414155" xlink:href="#id109">January</textPath></text><path d="M 100.36148047927253 79.00311137660856 l 0.05476372095681134 -3.180995421514156 a24.181466790149955,24.181466790149955 0 0,0 0.41612085808952615,0.010747174088337948 l -0.10951121424120527 3.1795814552834583" fill="#ff2303" stroke="none" /><path d="M 102.16513564639614 79.11191278185805 l 0.7232232047246141 -6.977276182957428 a28.014658561691874,28.014658561691874 0 0,0 0.4792284831031462,0.05384690388996961 l -0.8432183913374856 6.963793325596857" fill="#ff5908" stroke="none" /><path d="M 102.52436894288641 79.15227682838746 l 0.688659521623636 -5.68735529200762 a26.728897114999533,26.728897114999533 0 0,0 0.4562817113788789,0.059238461509778434 l -0.786455961510361 5.674658507333705" fill="#ff4706" stroke="none" /><path d="M 103.95276090670814 79.375362276772 l 1.312439777500918 -6.848022327526312 a27.97265429860577,27.97265429860577 0 0,0 0.4721165857042712,0.09470214565003539 l -1.4301227726723145 6.824416225799069" fill="#ff5808" stroke="none" /><path d="M 106.40334571778207 80.00007090966166 l 0.9852735840657828 -3.0773602870101695 a24.231239757666575,24.231239757666575 0 0,0 0.3961428974842579,0.1306020849881813 l -1.0380993037924582 3.0599444777627522" fill="#ff2403" stroke="none" /><path d="M 106.74666289553966 80.11325718540242 l 1.3801033153382216 -4.068049658720846 a25.29577853093317,25.29577853093317 0 0,0 0.4111383063732084,0.14343808218134824 l -1.4499236257747037 4.04369072336729" fill="#ff3304" stroke="none" /><path d="M 107.08798089147638 80.2323363322302 l 3.1385271501261154 -8.753035605734297 a30.29870878064966,30.29870878064966 0 0,0 0.48942178688885685,0.18025817451153262 l -3.288731262787549 8.697714163416439" fill="#ff780b" stroke="none" /><path d="M 108.09893153111575 80.62456947434976 l 2.0585367138094184 -4.924728024885522 a26.337651123967746,26.337651123967746 0 0,0 0.4167823452450782,0.17844444925092684 l -2.143002816844812 4.888564047671805" fill="#ff4106" stroke="none" /><path d="M 110.05341064243156 81.56283822128135 l 2.5464897427260835 -4.670061238355317 a26.319218173735493,26.319218173735493 0 0,0 0.39588604835907226,0.22031015729509434 l -2.626499880157192 4.6255356835000425" fill="#ff4106" stroke="none" /><line stroke="#e1ed5e" stroke-width="0.3" x1="143.23703022742887" x2="145.7803849466894" y1="26.81831364943548" y2="22.513508569990506" /><path d="M 143.74570117128098 25.957352633546492 a86.0,86.0 0 0,1 28.547481713284135,27.462654790039103" fill="none" id="id110" stroke="none" /><text fill="#e1ed5e" style="font-size:6.75px; font-family:Arial;" text-anchor="middle"><textPath startOffset="19.985693538727396" xlink:href="#id110">February</textPath></text><path d="M 112.48926042617603 83.11751280151076 l 3.213493287883204 -4.3438728510628195 a26.403311064289287,26.403311064289287 0 0,0 0.3630503630155893,0.27344200659998236 l -3.287789804657176 4.2879142549569895" fill="#ff4206" stroke="none" /><path d="M 113.6212207817346 84.01681056812373 l 7.625125823770588 -8.947350052988183 a32.75574824496683,32.75574824496683 0 0,0 0.4259903797936101,0.36941465957810643 l -7.778010002210963 8.814770399990403" fill="#ff980e" stroke="none" /><path d="M 113.89432698308785 84.25364557470405 l 2.114149677174308 -2.3959526910106823 a24.1953431983212,24.1953431983212 0 0,0 0.30991816531869043,0.2782475888362697 l -2.1550788300889887 2.3592060934051173" fill="#ff2303" stroke="none" /><path d="M 114.16331599549186 84.49514656593476 l 2.1448354146668946 -2.3479924302464075 a24.180155249119725,24.180155249119725 0 0,0 0.30489116564683594,0.28336311022912253 l -2.184934464108577 2.3107247339426444" fill="#ff2303" stroke="none" /><path d="M 114.94478906791727 85.2469230424477 l 2.2617265804887503 -2.2327130980070957 a24.17811499208285,24.17811499208285 0 0,0 0.2898331228477559,0.2986985101453741 l -2.299823967039615 2.193450392311607" fill="#ff2303" stroke="none" /><path d="M 115.4437574822437 85.77008943001954 l 2.3282385094154874 -2.145243850964289 a24.16587519286932,24.16587519286932 0 0,0 0.279238252172806,0.3083418524343468 l -2.3648204022043293 2.104849211260393" fill="#ff2303" stroke="none" /><path d="M 115.68641384162765 86.03803664274999 l 7.580814891934439 -6.747435124936201 a31.148725791497068,31.148725791497068 0 0,0 0.3530309608361349,0.4035754158079226 l -7.695837716348422 6.615944152925331" fill="#ff830c" stroke="none" /><path d="M 115.9244219780498 86.31012108654704 l 5.755645766230264 -4.948003369731731 a28.590138044410057,28.590138044410057 0 0,0 0.31760836974757395,0.3759481309443921 l -5.839964749464954 4.848196289158233" fill="#ff6008" stroke="none" /><path d="M 116.38621287248628 86.86637796730983 l 4.088981284937281 -3.2773365702627815 a26.240296074016157,26.240296074016157 0 0,0 0.27945405433142567,0.3548782699973721 l -4.144789419862671 3.206465906312371" fill="#ff4006" stroke="none" /><path d="M 116.82858285166822 87.43820079747576 l 7.7037836327316755 -5.7505366879110085 a30.613373729287495,30.613373729287495 0 0,0 0.31158202490675674,0.42499753180989375 l -7.801628270152059 5.617076712429621" fill="#ff7c0b" stroke="none" /><path d="M 117.2510076193507 88.02491185347247 l 7.961254435842171 -5.526443772432327 a30.691395821143242,30.691395821143242 0 0,0 0.2975246335076971,0.43658068706106173 l -8.0552035350186 5.3885850621008595" fill="#ff7d0b" stroke="none" /><path d="M 117.65298651832404 88.62581576622439 l 2.6953757674724437 -1.736686340674582 a24.20642011810108,24.20642011810108 0 0,0 0.22266725526161155,0.35220612416685465 l -2.724870618980011 1.6900325687935212" fill="#ff2303" stroke="none" /><line stroke="#e1ed5e" stroke-width="0.3" x1="172.23445277983987" x2="176.4835382374775" y1="55.19839476539836" y2="52.563006222186495" /><path d="M 173.08426987136738 54.67131705675599 a86.0,86.0 0 0,1 12.851231095245387,41.99856678651699" fill="none" id="id111" stroke="none" /><text fill="#e1ed5e" style="font-size:6.75px; font-family:Arial;" text-anchor="middle"><textPath startOffset="22.20632615414155" xlink:href="#id111">March</textPath></text><path d="M 118.56541770881063 90.18545643968196 l 10.99470108531196 -5.81231052416667 a33.436494907517094,33.436494907517094 0 0,0 0.26461095437234045,0.5111441398721931 l -11.093121472844416 5.622193662034133" fill="#ffa10e" stroke="none" /><path d="M 118.89224826269711 90.83032412892265 l 6.850794827987706 -3.325150461628118 a28.615117554420863,28.615117554420863 0 0,0 0.21126378614608948,0.4449754126063641 l -6.907016807975551 3.2067326333812134" fill="#ff6108" stroke="none" /><path d="M 119.04729006885535 91.15688171328212 l 2.8940586678423177 -1.3436296205872174 a24.190754790050875,24.190754790050875 0 0,0 0.17209727221625792,0.3791935269706283 l -2.9167582570219226 1.2936140847745263" fill="#ff2303" stroke="none" /><path d="M 119.196687751892 91.48605970444005 l 2.9423327956308927 -1.3049566714549707 a24.218731768044666,24.218731768044666 0 0,0 0.1657360357569627,0.38254162116609686 l -2.9643595412305364 1.2541159057022713" fill="#ff2303" stroke="none" /><path d="M 119.47837535516314 92.15188598940014 l 12.463428753014702 -5.021692417007461 a34.43705514659011,34.43705514659011 0 0,0 0.21680003873613318,0.5517324510728092 l -12.548022341632535 4.806410961038868" fill="#ffae10" stroke="none" /><path d="M 119.7369772167798 92.82701384747503 l 6.339635975308819 -2.304006361434035 a27.745326501583026,27.745326501583026 0 0,0 0.1592673157948466,0.45027014891943096 l -6.378356371913475 2.1945385860879894" fill="#ff5507" stroke="none" /><path d="M 120.08093135843002 93.85539295169968 l 6.157148913716615 -1.8840391382930182 a27.43895070801925,27.43895070801925 0 0,0 0.1343124915346219,0.4528349511385699 l -6.188667302362939 1.7777748004079184" fill="#ff5107" stroke="none" /><path d="M 120.18372546131832 94.20196356495316 l 8.761262092812455 -2.516785958492891 a30.115586926787515,30.115586926787515 0 0,0 0.13883748698436743,0.4994723103573369 l -8.803286350363186 2.3656023447166024" fill="#ff750a" stroke="none" /><path d="M 120.45610955862082 95.25157060432595 l 13.144729186671388 -3.0512555815805533 a34.49422343134488,34.49422343134488 0 0,0 0.129280428573937,0.5795388119523631 l -13.195304002247362 2.824538600078226" fill="#ffaf10" stroke="none" /><path d="M 120.6074358757038 95.95851677861258 l 3.4206019125729994 -0.6708406286008833 a24.485763129255872,24.485763129255872 0 0,0 0.07755489566938632,0.41430135380397576 l -3.431642532152245 0.6118611973343447" fill="#ff2703" stroke="none" /><path d="M 120.67395015179393 96.31383870115 l 3.166572804441076 -0.5645993163386207 a24.21651297429932,24.21651297429932 0 0,0 0.06963762566615729,0.4110052086416281 l -3.1758222916274566 0.5100083193811553" fill="#ff2303" stroke="none" /><path d="M 120.83666639777658 97.38593545837742 l 19.052658034824656 -2.3902517246141715 a40.20200722578214,40.20200722578214 0 0,0 0.08023104435141416,0.6873705917298378 l -19.090979432179658 2.0619373945594806" fill="#fff717" stroke="none" /><path d="M 120.96714384426684 98.82574320788733 l 3.180008595199408 -0.17809515304635143 a24.184991765936093,24.184991765936093 0 0,0 0.019700854477036418,0.4158539006235108 l -3.1826030579099407 0.12333014579984088" fill="#ff2303" stroke="none" /><line stroke="#e1ed5e" stroke-width="0.3" x1="184.98032266829074" x2="189.97916517819016" y1="98.17113171792111" y2="98.06355123074" /><path d="M 185.9800911702706 98.14961562048488 a86.0,86.0 0 0,1 -9.607161424134198,41.387399972396054" fill="none" id="id112" stroke="none" /><text fill="#e1ed5e" style="font-size:6.75px; font-family:Arial;" text-anchor="middle"><textPath startOffset="21.466115282336823" xlink:href="#id112">April</textPath></text><path d="M 120.99980553446 99.90962569577887 l 27.415272404401534 -0.1179837672551213 a48.415526279407366,48.415526279407366 0 0,0 -0.0035866745458577203,0.8334168503707706 l -27.41324143256617 -0.3539425613193341" fill="#a8ff21" stroke="none" /><path d="M 120.9904718944345 100.63252640178507 l 6.939896290929846 0.20912667670074178 a27.94304648520876,27.94304648520876 0 0,0 -0.018625859639647892,0.48065067515250987 l -6.935268298438995 -0.32855459886725785" fill="#ff5808" stroke="none" /><path d="M 120.92983693683757 101.71520430193887 l 3.808236490972403 0.3120857382610551 a24.821002836847907,24.821002836847907 0 0,0 -0.03856167801714387,0.42552490362637974 l -3.802300216678184 -0.3775920304360054" fill="#ff2c04" stroke="none" /><path d="M 120.89721153311464 102.0752229133903 l 3.7413706218363716 0.3715413431890993 a24.759773543664437,24.759773543664437 0 0,0 -0.04576749639619992,0.42375017528060144 l -3.73442082393912 -0.4358878403544922" fill="#ff2b04" stroke="none" /><path d="M 120.49622156327973 104.57218783832717 l 34.428222977189776 7.680064440439942 a56.274437304887066,56.274437304887066 0 0,0 -0.21904003132752642,0.9436187221487566 l -34.2909223799317 -8.271551819937264" fill="#54ff2b" stroke="none" /><path d="M 120.32669344350535 105.2749913415812 l 1.1494089975078365 0.2982837580859282 a22.187482313085056,22.187482313085056 0 0,0 -0.09911668556777635,0.36885005930976916 l -1.1441042355982831 -0.31802475057124563" fill="#ff0601" stroke="none" /><path d="M 120.02730092923936 106.31721596034902 l 3.0821876956991043 0.9722151463572808 a24.231885406744098,24.231885406744098 0 0,0 -0.12889949392474465,0.396711850402411 l -3.064995950758113 -1.025125896737487" fill="#ff2403" stroke="none" /><path d="M 119.79798401119884 107.00284435728193 l 9.14324581130711 3.2341033966254034 a30.6983693859354,30.6983693859354 0 0,0 -0.18050018313632846,0.49665898224719496 l -9.086221367165555 -3.3910101758787294" fill="#ff7d0b" stroke="none" /><path d="M 119.54520255179757 107.68017299344265 l 3.0129586238309023 1.183924463907796 a24.23722053699719,24.23722053699719 0 0,0 -0.15592310153406738,0.3869883508470619 l -2.9921329080394448 -1.2356121825976714" fill="#ff2403" stroke="none" /><path d="M 119.26925614724726 108.34839909993367 l 2.9890020180784576 1.2949841741032055 a24.257470963071636,24.257470963071636 0 0,0 -0.16929279197668687,0.38171055391558795 l -2.966268141370498 -1.3462430645114813" fill="#ff2403" stroke="none" /><path d="M 118.97047184881838 109.00673069616215 l 5.78922770105332 2.7485881878787843 a27.408579749148004,27.408579749148004 0 0,0 -0.2060169073437573,0.4244558493204491 l -5.741057537094848 -2.847832993164509" fill="#ff5007" stroke="none" /><path d="M 118.81262510543309 109.33194174019688 l 5.355808137202263 2.6567312763602366 a26.978536767246034,26.978536767246034 0 0,0 -0.20994611265349503,0.4142435978582139 l -5.309283354762498 -2.748529085921145" fill="#ff4a06" stroke="none" /><path d="M 118.64920377521936 109.65438752849418 l 5.956983459394473 3.08383282798612 a27.70788169592042,27.70788169592042 0 0,0 -0.22291319594891196,0.4216677597040906 l -5.9030177552206675 -3.185915602776345" fill="#ff5407" stroke="none" /><line stroke="#e1ed5e" stroke-width="0.3" x1="174.80103733775053" x2="179.2010983576182" y1="140.37084112569926" y2="142.7455964860345" /><path d="M 175.68104954172406 140.8457921977663 a86.0,86.0 0 0,1 -30.038265399797805,32.042727171017184" fill="none" id="id113" stroke="none" /><text fill="#e1ed5e" style="font-size:6.75px; font-family:Arial;" text-anchor="middle"><textPath startOffset="22.206326154141568" xlink:href="#id113">May</textPath></text><path d="M 118.48025628344425 109.97397251340804 l 1.4894479496140272 0.8038694205183152 a22.692531015920796,22.692531015920796 0 0,0 -0.18848155897285435,0.34214877770536695 l -1.4753899811896656 -0.8293887166214884" fill="#ff0e01" stroke="none" /><path d="M 118.30583269289576 110.29060199501023 l 1.470263843613549 0.8265070645026009 a22.68665043726019,22.68665043726019 0 0,0 -0.1942927997680923,0.33876587338450476 l -1.4558190476930748 -0.8516927837454196" fill="#ff0d01" stroke="none" /><path d="M 118.12598468904814 110.60418214915192 l 7.223777004464438 4.226101283561144 a29.369162817698456,29.369162817698456 0 0,0 -0.2590347913604902,0.4341572099735426 l -7.1499613374057205 -4.3498205874207905" fill="#ff6b09" stroke="none" /><path d="M 117.94076556474637 110.91462005526583 l 2.95072485161422 1.7951319037513518 a24.453878356543512,24.453878356543512 0 0,0 -0.2218727868657058,0.35772957826083346 l -2.9193874250805516 -1.8456578133774588" fill="#ff2703" stroke="none" /><path d="M 117.35343817320211 111.8261652097733 l 10.38734439919494 7.078853753914372 a33.57008727641913,33.57008727641913 0 0,0 -0.32952892084042634,0.47471098789890565 l -10.263954571192379 -7.2566060040002975" fill="#ffa30f" stroke="none" /><path d="M 116.93607887273984 112.41649034213515 l 4.219848229959823 3.093732922849566 a26.232427971966587,26.232427971966587 0 0,0 -0.27011747600810904,0.3618665010799191 l -4.165969487256621 -3.1659123034388" fill="#ff4006" stroke="none" /><path d="M 116.71984013943494 112.70617746262583 l 2.5581161118005102 1.9440303863837158 a24.212975596645045,24.212975596645045 0 0,0 -0.2550354827068169,0.3296677405276007 l -2.524273811875625 -1.987776121024569" fill="#ff2303" stroke="none" /><path d="M 116.27256486870786 113.27417163493432 l 4.638111064282007 3.7834897464480703 a26.98555502072221,26.98555502072221 0 0,0 -0.2967177428275063,0.35741563569289786 l -4.572297321560957 -3.8627666392547386" fill="#ff4a06" stroke="none" /><path d="M 115.80600337817218 113.82643327865902 l 3.619000681632563 3.1657510290751683 a25.808237256183126,25.808237256183126 0 0,0 -0.2953705443190374,0.33185193774407384 l -3.563971287665192 -3.2275771365601087" fill="#ff3a05" stroke="none" /><path d="M 115.07121518719521 114.62390073753431 l 1.016767056468651 0.9865893574146284 a22.416747615944256,22.416747615944256 0 0,0 -0.27109253394442934,0.2746153056303777 l -0.9996338974686861 -1.0039451570256708" fill="#ff0a01" stroke="none" /><path d="M 114.81725581225074 114.88116024355365 l 2.274997485084086 2.2848091818207825 a24.22427767949218,24.22427767949218 0 0,0 -0.2980163472456566,0.2916717199064111 l -2.235331185462635 -2.3236310046497657" fill="#ff2403" stroke="none" /><path d="M 114.29624159901734 115.38237550388516 l 9.198584115497097 9.897431712288316 a34.511961524119506,34.511961524119506 0 0,0 -0.4386313371223692,0.4006793266126606 l -9.026853228907862 -10.05430380548756" fill="#ffaf10" stroke="none" /><path d="M 114.0293411484842 115.62618273729858 l 2.315781242242202 2.5793670912902953 a24.466406980369182,24.466406980369182 0 0,0 -0.3158003194727957,0.27865706446120203 l -2.2710385698628186 -2.6188472975237858" fill="#ff2703" stroke="none" /><path d="M 113.48314897796784 116.09983520530334 l 4.200871440706596 5.016138145811323 a27.54285585652074,27.54285585652074 0 0,0 -0.36609684832108264,0.3012727824217126 l -4.113904463840822 -5.087706047090213" fill="#ff5207" stroke="none" /><path d="M 113.20401910651253 116.32954008644616 l 5.980530302895573 7.396180551660322 a30.51158396149719,30.51158396149719 0 0,0 -0.41124167741082013,0.326715260139326 l -5.852331132767402 -7.4980297258047734" fill="#ff7b0b" stroke="none" /><path d="M 112.04921762599082 117.19931262002967 l 1.8364553615524037 2.621395916025052 a24.200669436778405,24.200669436778405 0 0,0 -0.34323822758389777,0.23608238274546267 l -1.7910602493456227 -2.6526190881356086" fill="#ff2303" stroke="none" /><path d="M 111.7513745106137 117.40417183066458 l 1.8001115124607054 2.6660243062568747 a24.21684427021981,24.21684427021981 0 0,0 -0.3474832331091123,0.23029293922315536 l -1.753953580611629 -2.696615266571348" fill="#ff2303" stroke="none" /><path d="M 111.45004920935366 117.60387380957326 l 1.7441996528952117 2.681619094107108 a24.198955047361498,24.198955047361498 0 0,0 -0.3511362844942539,0.22411179020252736 l -1.6977815663540274 -2.711245313133444" fill="#ff2303" stroke="none" /><line stroke="#e1ed5e" stroke-width="0.3" x1="143.8653032363475" x2="146.44561519142675" y1="172.8068346515853" y2="177.08958963109032" /><path d="M 144.38136562736335 173.6633856474863 a86.0,86.0 0 0,1 -40.68145358897372,12.25698825130547" fill="none" id="id114" stroke="none" /><text fill="#e1ed5e" style="font-size:6.75px; font-family:Arial;" text-anchor="middle"><textPath startOffset="21.466115282336833" xlink:href="#id114">June</textPath></text><path d="M 110.8373102113329 117.98757091392108 l 1.895820000571376 3.1466476492152866 a24.673625580115445,24.673625580115445 0 0,0 -0.3656773818451381,0.21604864277909958 l -1.8413747476978557 -3.1788148642881353" fill="#ff2a04" stroke="none" /><path d="M 109.89434966115114 118.52300852407294 l 1.5815870740044644 2.9608566360226947 a24.35679753511254,24.35679753511254 0 0,0 -0.37150970646746545,0.19435631979069992 l -1.5303864650105032 -2.9876423747581113" fill="#ff2503" stroke="none" /><path d="M 109.2508944713604 118.85261126421891 l 2.2603677870351433 4.60645566059189 a26.131149606634484,26.131149606634484 0 0,0 -0.40551479178061334,0.19467174314800803 l -2.1807403272542976 -4.644681680239458" fill="#ff3e05" stroke="none" /><path d="M 108.92500713936063 119.00905698771935 l 2.8037649295913334 5.971639741521672 a27.597088674781272,27.597088674781272 0 0,0 -0.4317393739671496,0.1981903711092429 l -2.7005575598567644 -6.01901718296499" fill="#ff5307" stroke="none" /><path d="M 108.59647513512805 119.15986991738527 l 1.322705077722305 2.9480521760209633 a24.231185595903508,24.231185595903508 0 0,0 -0.3820211704444994,0.1674668545555445 l -1.2717632326200519 -2.9703835838709622" fill="#ff2403" stroke="none" /><path d="M 107.59598834532513 119.57807347666477 l 1.0332259224632958 2.6630600401632543 a23.856474152581193,23.856474152581193 0 0,0 -0.3841230637452614,0.1452424746044493 l -0.9872326379577596 -2.6804507648743345" fill="#ff1e03" stroke="none" /><path d="M 106.91757812671514 119.82793768551818 l 2.0193210328095454 5.788004251224364 a27.13014279162715,27.13014279162715 0 0,0 -0.4422604298718519,0.150038749945095 l -1.9193908700004665 -5.821905988067582" fill="#ff4c07" stroke="none" /><path d="M 105.88484417918355 120.15858648285463 l 0.8944442964930298 3.063926954723948 a24.19181437170348,24.19181437170348 0 0,0 -0.4007418193768905,0.11325364105774886 l -0.8415713090115335 -3.0788693891202157" fill="#ff2303" stroke="none" /><path d="M 105.18746579009965 120.34920634021253 l 1.3077051819316876 5.12981938696927 a26.293877575631758,26.293877575631758 0 0,0 -0.4395418740137937,0.10802869863192632 l -1.2192100231746827 -5.151569343915227" fill="#ff4106" stroke="none" /><path d="M 104.48393922423573 120.51570834832081 l 0.9399102212286257 4.300442759818826 a25.401958558919905,25.401958558919905 0 0,0 -0.4279728492649026,0.08968587166553141 l -0.8657459105343451 -4.315984612210898" fill="#ff3405" stroke="none" /><path d="M 104.13013068566511 120.58985236759428 l 0.6354553750487089 3.167922120202877 a24.231026786232047,24.231026786232047 0 0,0 -0.4096571067282329,0.07851175949659728 l -0.5808306537487715 -3.1783910780479423" fill="#ff2403" stroke="none" /><path d="M 103.06178313531738 120.77559828337769 l 1.130554375977653 7.671328279882161 a28.75418795069877,28.75418795069877 0 0,0 -0.4902882185135892,0.06794947956956181 l -0.9983375662772334 -7.689652324944325" fill="#ff6309" stroke="none" /><path d="M 102.70371172650421 120.8252237178851 l 0.8993560858200964 6.927251713133338 a27.985388870078058,27.985388870078058 0 0,0 -0.4782470771768635,0.05790906079831862 l -0.7799815855918526 -6.941706302657008" fill="#ff5808" stroke="none" /><path d="M 102.34483914955558 120.86867818915974 l 0.7344474560455992 6.536460127752274 a27.577592573836352,27.577592573836352 0 0,0 -0.4721906358877596,0.04894449008079371 l -0.6218242235522369 -6.548133986288826" fill="#ff5307" stroke="none" /><path d="M 101.98527174616119 120.90594882070398 l 1.1079754413486789 11.66756033083225 a32.72005007038119,32.72005007038119 0 0,0 -0.5611577122204312,0.04841904863888892 l -0.906973411386706 -11.684903631749803" fill="#ff980e" stroke="none" /><path d="M 101.62511606390274 120.93702456842531 l 0.6495306417030735 8.36816477625826 a29.39333496157044,29.39333496157044 0 0,0 -0.5047776748590909,0.03481242384198145 l -0.5053902060650522 -8.378105544616526" fill="#ff6b09" stroke="none" /><path d="M 101.26447882468166 120.96189622390904 l 0.38659476968006806 6.408774338138681 a27.4204239761194,27.4204239761194 0 0,0 -0.4713857249781048,0.02436525762174954 l -0.27622097628848363 -6.414479402522632" fill="#ff5007" stroke="none" /><line stroke="#e1ed5e" stroke-width="0.3" x1="102.19456741930631" x2="102.32365962044197" y1="184.97166512339345" y2="189.96999836594603" /><path d="M 102.22038585953345 185.97133177190398 a86.0,86.0 0 0,1 -42.740103519485714,-10.115201625700543" fill="none" id="id115" stroke="none" /><text fill="#e1ed5e" style="font-size:6.75px; font-family:Arial;" text-anchor="middle"><textPath startOffset="22.20632615414155" xlink:href="#id115">July</textPath></text><path d="M 100.18074693466247 120.99922214144158 l 0.06997901508875014 8.130178726583635 a29.130479886743824,29.130479886743824 0 0,0 -0.5014518995024055,0.0 l 0.06997901508874453 -8.130178726583635" fill="#ff6809" stroke="none" /><path d="M 99.45781275523022 120.99299961872073 l -0.1094924298427211 4.239447829351013 a25.240861526857707,25.240861526857707 0 0,0 -0.4342385512310564,-0.014956053708464031 l 0.18245133274842057 -4.236934977216455" fill="#ff3204" stroke="none" /><path d="M 99.09653310690486 120.98055641714683 l -0.1389082322483213 3.2257651340248388 a24.228754589137527,24.228754589137527 0 0,0 -0.41651759496000396,-0.02152920202592828 l 0.1944138956218142 -3.2228961252367085" fill="#ff2403" stroke="none" /><path d="M 98.73552117531835 120.96189622390904 l -0.23645531215369736 3.919837658179612 a24.92696299716826,24.92696299716826 0 0,0 -0.4280757674983109,-0.029522611234327468 l 0.3038938404309383 -3.9151867024289992" fill="#ff2e04" stroke="none" /><path d="M 98.01472825383883 120.90594882070398 l -0.45566319518523446 4.798371536008136 a25.819958334365506,25.819958334365506 0 0,0 -0.4420959701923607,-0.04582505493179745 l 0.5381917619831884 -4.789817112620578" fill="#ff3a05" stroke="none" /><path d="M 97.65516085044442 120.86867818915974 l -0.7247298485735612 6.449975038512383 a27.490563253743566,27.490563253743566 0 0,0 -0.46979091793522554,-0.056885137677799395 l 0.835648189560176 -6.4365443721092355" fill="#ff5107" stroke="none" /><path d="M 97.2962882734958 120.8252237178851 l -0.4467928276187937 3.4414026094188386 a24.470284678657702,24.470284678657702 0 0,0 -0.4172433004260127,-0.05782611950943054 l 0.5059647192316374 -3.433201924416803" fill="#ff2703" stroke="none" /><path d="M 96.93821686468263 120.77559828337769 l -0.9551357974302528 6.481033030913114 a27.551036066098213,27.551036066098213 0 0,0 -0.4685829525351698,-0.07318302029085214 l 1.0665546135739397 -6.463631703275157" fill="#ff5207" stroke="none" /><path d="M 96.22490169976321 120.6578951692458 l -0.5586796647854984 3.057177596568621 a24.10780595031381,24.10780595031381 0 0,0 -0.4075738978086951,-0.07811250754908679 l 0.6112211771658885 -3.0471078906710662" fill="#ff2203" stroke="none" /><path d="M 95.51606077576429 120.51570834832081 l -0.7201107023258568 3.294777294832737 a24.372553460828986,24.372553460828986 0 0,0 -0.40908733346606996,-0.0931069452228646 l 0.7767181851847894 -3.281893616032186" fill="#ff2603" stroke="none" /><path d="M 95.16358092515715 120.4354850818985 l -2.8458948767622 12.024855869342755 a33.357033476043036,33.357033476043036 0 0,0 -0.5576131920226511,-0.13704775593760823 l 3.0524613535280616 -11.974086855091116" fill="#ffa00e" stroke="none" /><path d="M 94.11515582081647 120.15858648285463 l -0.9050279314671993 3.1001812911912574 a24.229581953595247,24.229581953595247 0 0,0 -0.39935546061858634,-0.12032252432158347 l 0.9582583665260315 -3.0841433977639485" fill="#ff2403" stroke="none" /><path d="M 93.76903079525671 120.05430185196036 l -1.639441150806187 5.276522259452744 a26.525346544919785,26.525346544919785 0 0,0 -0.4348624109276979,-0.13922921147672837 l 1.7300249068248252 -5.247520201316309" fill="#ff4406" stroke="none" /><path d="M 93.08242187328487 119.8279376855182 l -4.312009097035987 12.359563724366165 a34.09015805517982,34.09015805517982 0 0,0 -0.5523911410104121,-0.19806781003090382 l 4.524119798676126 -12.283508373295303" fill="#ffaa0f" stroke="none" /><path d="M 92.40401165467489 119.57807347666478 l -1.4046379366847712 3.6203458302368197 a24.883286193893927,24.883286193893927 0 0,0 -0.3979891138736943,-0.15836808196956573 l 1.4667481266003237 -3.5956309038611876" fill="#ff2d04" stroke="none" /><path d="M 92.06813273071674 119.44442032107085 l -1.9139643371852344 4.691950304802868 a26.0673126158504,26.0673126158504 0 0,0 -0.4140091776946654,-0.17305586985350924 l 1.994444974377362 -4.658309391929385" fill="#ff3e05" stroke="none" /><path d="M 90.42595943632237 118.69057910512821 l -4.299999720006601 8.39452103678372 a30.43175386813403,30.43175386813403 0 0,0 -0.4641698864779923,-0.24283174658164677 l 4.443860509011088 -8.319259871257357" fill="#ff790b" stroke="none" /><path d="M 90.10565033884886 118.52300852407294 l -3.1592954688932773 5.914452076637731 a27.705362870614383,27.705362870614383 0 0,0 -0.4187166744778363,-0.22831771624512898 l 3.260634955239754 -5.859193708632836" fill="#ff5407" stroke="none" /><line stroke="#e1ed5e" stroke-width="0.3" x1="58.666819895761336" x2="56.23545636021788" y1="174.27360380694188" y2="178.64263932499728" /><path d="M 58.180547188652646 175.14741091055294 a86.0,86.0 0 0,1 -31.652253787137756,-30.449443065178592" fill="none" id="id116" stroke="none" /><text fill="#e1ed5e" style="font-size:6.75px; font-family:Arial;" text-anchor="middle"><textPath startOffset="22.20632615414155" xlink:href="#id116">August</textPath></text><path d="M 88.54995079064634 117.60387380957326 l -2.4588096013153273 3.780295887982954 a25.509587747923447,25.509587747923447 0 0,0 -0.36603258157916246,-0.2425864359240462 l 2.523516881634452 -3.7374114309675894" fill="#ff3605" stroke="none" /><path d="M 88.24862548938628 117.40417183066458 l -7.435870827355771 11.012769057188967 a34.28808704321654,34.28808704321654 0 0,0 -0.4863081269177641,-0.33448716408829166 l 7.624335838896427 -10.883141103735577" fill="#ffac10" stroke="none" /><path d="M 86.24171649860922 115.8653595955263 l -10.348181187275767 11.933001357269177 a36.79497943263226,36.79497943263226 0 0,0 -0.4749314547552285,-0.4190717894881064 l 10.552054994937583 -11.753106426008781" fill="#ffcc13" stroke="none" /><path d="M 84.19399662182784 113.82643327865904 l -3.899129458512964 3.4107960129525026 a26.180418899685264,26.180418899685264 0 0,0 -0.29379103887073915,-0.34174535114038196 l 3.9572630069544843 -3.3431735626505903" fill="#ff3f05" stroke="none" /><path d="M 83.72743513129214 113.27417163493432 l -1.6441446660690704 1.3411935159669541 a23.12179445994073,23.12179445994073 0 0,0 -0.2489249318353214,-0.310572126422556 l 1.6669875099592528 -1.3126935559661386" fill="#ff1402" stroke="none" /><path d="M 83.28015986056508 112.70617746262583 l -5.307774966788645 4.033622935223757 a27.666527513003402,27.666527513003402 0 0,0 -0.284884517350354,-0.38164936615326317 l 5.376420750834084 -3.9416606895611883" fill="#ff5407" stroke="none" /><line stroke="#e1ed5e" stroke-width="0.3" x1="26.63291911575756" x2="22.317208475507996" y1="142.92168965132927" y2="145.44649492493687" /><path d="M 25.769776987707644 143.4266507060508 a86.0,86.0 0 0,1 -11.730757126820373,-40.83630448921669" fill="none" id="id117" stroke="none" /><text fill="#e1ed5e" style="font-size:6.75px; font-family:Arial;" text-anchor="middle"><textPath startOffset="21.46611528233685" xlink:href="#id117">September</textPath></text><path d="M 81.69416730710424 110.29060199501025 l -30.417735197871227 17.09929352912663 a55.89447597776826,55.89447597776826 0 0,0 -0.4642531043746807,-0.8427542358698155 l 30.707564711697426 -16.573168774858992" fill="#58ff2a" stroke="none" /><path d="M 80.45479744820244 107.68017299344265 l -0.7046045673919147 0.27687024246479525 a21.757050016545843,21.757050016545843 0 0,0 -0.13396719172902455,-0.3497460638484824 l 0.7092660387144483 -0.264700611783155" fill="#ff0000" stroke="none" /><path d="M 79.97269907076064 106.31721596034903 l -3.0503193652135923 0.9621629118258267 a24.198469274307666,24.198469274307666 0 0,0 -0.12188334264546473,-0.3983218158883896 l 3.0664294803651875 -0.9095141233853893" fill="#ff2303" stroke="none" /><path d="M 79.76711848015287 105.62410040840567 l -11.461592298843227 3.185959739134111 a32.89615221339597,32.89615221339597 0 0,0 -0.14695482476631105,-0.5468735714920999 l 11.51473519995131 -2.9881952344664717" fill="#ff9a0e" stroke="none" /><path d="M 79.67330655649465 105.27499134158121 l -1.3846844489940167 0.35934021928192056 a22.430551088384977,22.430551088384977 0 0,0 -0.0937689809374671,-0.3745604673176735 l 1.3906647442265447 -0.3354519125668552" fill="#ff0a01" stroke="none" /><path d="M 79.58551787078972 104.9243191809786 l -1.5095310565556792 0.36412448226858746 a22.552826664278236,22.552826664278236 0 0,0 -0.08778358515258992,-0.37816938732748434 l 1.5155752076388243 -0.3380864375925289" fill="#ff0c01" stroke="none" /><path d="M 79.4281124754447 104.21870165774334 l -4.360008377937392 0.8941121493992297 a25.45074258875837,25.45074258875837 0 0,0 -0.08431475560566572,-0.42991912234709595 l 4.374753066518724 -0.818929299984179" fill="#ff3505" stroke="none" /><path d="M 79.23777060512086 103.15116336523772 l -3.2413240252467745 0.4919482069561231 a24.27844391060291,24.27844391060291 0 0,0 -0.059153791548870044,-0.4137214803180534 l 3.249311867812244 -0.4360812546576691" fill="#ff2403" stroke="none" /><path d="M 79.18660465613746 102.79330883721812 l -6.686979944261033 0.8974412806756541 a27.746932756980023,27.746932756980023 0 0,0 -0.059455718909204404,-0.4739205787099933 l 6.701437172417086 -0.7822029476782523" fill="#ff5507" stroke="none" /><path d="M 79.07016306316243 101.71520430193888 l -6.419622118504471 0.526089310094003 a27.44114260877579,27.44114260877579 0 0,0 -0.03452806770983785,-0.47110805122319216 l 6.427726744878644 -0.4155081223740501" fill="#ff5107" stroke="none" /><path d="M 79.0235259727143 100.99374915477108 l -21.65875905732555 1.0260720404492487 a42.68305024057901,42.68305024057901 0 0,0 -0.028451031751102095,-0.7341947101781827 l 21.673212221927855 -0.6531000832570694" fill="#eaff1a" stroke="none" /><line stroke="#e1ed5e" stroke-width="0.3" x1="15.007084014347285" x2="10.007500721073583" y1="101.09737516637583" y2="101.16192664675087" /><path d="M 14.007167355692545 101.11028546245083 a86.0,86.0 0 0,1 10.666146001902534,-42.60595125391555" fill="none" id="id118" stroke="none" /><text fill="#e1ed5e" style="font-size:6.75px; font-family:Arial;" text-anchor="middle"><textPath startOffset="22.20632615414155" xlink:href="#id118">October</textPath></text><path d="M 79.00175016825051 100.2711162175752 l -7.557125876438912 0.09757286439472349 a28.557755749970276,28.557755749970276 0 0,0 -0.002115589429806651,-0.49158847749470214 l 7.557685763158221 0.032525091303654025" fill="#ff6008" stroke="none" /><path d="M 79.00019446554 99.90962569577889 l -6.612871810967849 -0.02845901062459752 a27.612933048472435,27.612933048472435 0 0,0 0.006136636285534185,-0.47528924312507165 l 6.6114021675645995 0.14228451181014115" fill="#ff5307" stroke="none" /><path d="M 79.00486145842228 99.54816195383935 l -7.8422840428073854 -0.16877441853130262 a28.844099936412203,28.844099936412203 0 0,0 0.014955398726645946,-0.49629687512774046 l 7.838216949625094 0.30374144108403744" fill="#ff6409" stroke="none" /><path d="M 79.05617556472873 98.46500227214037 l -3.281046256671858 -0.2404717707866149 a24.289846685024344,24.289846685024344 0 0,0 0.0341509648247915,-0.4167282720843357 l 3.2764208080275696 0.29691396007872906" fill="#ff2403" stroke="none" /><path d="M 79.12142395522702 97.74499172005258 l -5.179964912753891 -0.5594664953705738 a26.210090139028658,26.210090139028658 0 0,0 0.05230741073670506,-0.4481379515946683 l 5.169567149013598 0.6485481852901039" fill="#ff4006" stroke="none" /><path d="M 79.16333360222342 97.38593545837743 l -5.153632738125559 -0.6465491333448988 a26.194030822136945,26.194030822136945 0 0,0 0.05997684774908389,-0.44689718052212557 l 5.141739891318641 0.7351646559316838" fill="#ff3f05" stroke="none" /><path d="M 79.32604984820605 96.31383870115002 l -17.18129034823324 -3.0634207338681487 a38.45225729305484,38.45225729305484 0 0,0 0.12179162180377556,-0.6506157136796218 l 17.126013002519603 3.358714525010343" fill="#ffe115" stroke="none" /><path d="M 79.46518482838121 95.60439243477599 l -3.166158228191584 -0.6777362710218177 a24.237882700006878,24.237882700006878 0 0,0 0.09084082931794046,-0.4072216257357049 l 3.1540230118716064 0.7321360663074817" fill="#ff2403" stroke="none" /><path d="M 79.62865764111835 94.90015583598534 l -3.3723407069263476 -0.8442453997533986 a24.47641081269134,24.47641081269134 0 0,0 0.10583561354484025,-0.4078277920521495 l 3.3573087615111996 0.9021696173544119" fill="#ff2703" stroke="none" /><path d="M 79.71946130924805 94.55025226153421 l -4.341061587507899 -1.1665218034790132 a25.495062716417706,25.495062716417706 0 0,0 0.11753615981855091,-0.42284010298825886 l 4.320338657122988 1.2410732098862147" fill="#ff3605" stroke="none" /><path d="M 79.81627453868168 94.20196356495316 l -4.449913777092415 -1.2782953405626414 a25.62987814108115,25.62987814108115 0 0,0 0.12545715860231946,-0.42297917071266494 l 4.427250721378389 1.3547038980218455" fill="#ff3705" stroke="none" /><path d="M 79.91906864156998 93.8553929516997 l -4.070207368201231 -1.2454514402885972 a25.256493546368482,25.256493546368482 0 0,0 0.13078596059101533,-0.4146272355601367 l 4.048165923842013 1.3153288422751483" fill="#ff3204" stroke="none" /><path d="M 80.14247586403 93.16781622104843 l -6.300586267673195 -2.1677809882606027 a27.663081999304538,27.663081999304538 0 0,0 0.15879520525341792,-0.44893542884372745 l 6.262337981609967 2.2759140435309413" fill="#ff5407" stroke="none" /><path d="M 80.2630227832202 92.82701384747504 l -23.473419724574804 -8.530917008590055 a45.97554761308565,45.97554761308565 0 0,0 0.2767189647342369,-0.7414692494741904 l 23.32309617133894 8.933709395093587" fill="#c3ff1e" stroke="none" /><path d="M 80.52162464483688 92.15188598940014 l -2.988779090010466 -1.204221534045008 a24.222258517242448,24.222258517242448 0 0,0 0.15914982714359224,-0.38539393007926537 l 2.9676075759806713 1.2554900345775846" fill="#ff2403" stroke="none" /><path d="M 80.65960295795067 91.81776055985345 l -3.990635966288952 -1.6882972424839575 a25.333073158212066,25.333073158212066 0 0,0 0.17336180767000728,-0.40014295413472395 l 3.9609834487762665 1.7567393412052807" fill="#ff3304" stroke="none" /><path d="M 80.803312248108 91.48605970444005 l -17.325276224391892 -7.683948881442772 a39.95279047169848,39.95279047169848 0 0,0 0.2842311584438302,-0.6262656813632074 l 17.190442748984708 7.98103657164805" fill="#fff417" stroke="none" /><path d="M 80.95270993114464 91.15688171328213 l -2.9171065326694143 -1.3543300926326096 a24.216165499900903,24.216165499900903 0 0,0 0.17878657320627142,-0.3765701194331773 l 2.8933617656213912 1.4043426277063191" fill="#ff2303" stroke="none" /><path d="M 81.26839172434947 90.50648371742162 l -9.924748311807877 -5.030041110838262 a32.12663213328527,32.12663213328527 0 0,0 0.2542449145184369,-0.49112025031867623 l 9.836693964129326 5.200134083417274" fill="#ff900d" stroke="none" /><path d="M 81.6062741919709 89.86733742301443 l -2.828098528136688 -1.5579316783970862 a24.22882213808721,24.22882213808721 0 0,0 0.20437860486890197,-0.36356673288421093 l 2.8008622819753555 1.6063819212160817" fill="#ff2403" stroke="none" /><line stroke="#e1ed5e" stroke-width="0.3" x1="26.266209847984243" x2="21.928928074336255" y1="57.711370442889674" y2="55.22380399835377" /><path d="M 25.398753493254645 57.213857153982495 a86.0,86.0 0 0,1 29.58750427330803,-30.492523968695096" fill="none" id="id119" stroke="none" /><text fill="#e1ed5e" style="font-size:6.75px; font-family:Arial;" text-anchor="middle"><textPath startOffset="21.46611528233685" xlink:href="#id119">November</textPath></text><path d="M 81.78341655067845 89.55222093294921 l -2.9333092198123527 -1.6823443731477525 a24.38150640527237,24.38150640527237 0 0,0 0.21193371981534914,-0.36226342648906834 l 2.903915825526681 1.7325872119907126" fill="#ff2603" stroke="none" /><path d="M 82.34701348167596 88.62581576622439 l -6.554178103063572 -4.222992475966641 a28.796852958646127,28.796852958646127 0 0,0 0.2720663103856486,-0.41437565611400645 l 6.480515157320004 4.335186196058314" fill="#ff6309" stroke="none" /><path d="M 82.7489923806493 88.02491185347247 l -3.1386585682265697 -2.178754647015899 a24.820752467747084,24.820752467747084 0 0,0 0.24665608604716968,-0.3488775414430172 l 3.1006898623755217 2.2324586887907025" fill="#ff2c04" stroke="none" /><path d="M 82.95767976084542 87.72973835380427 l -2.930927542499022 -2.1102318996376574 a24.61156682474902,24.61156682474902 0 0,0 0.25049580928895177,-0.34167600235727785 l 2.894169120696437 2.160370345666438" fill="#ff2904" stroke="none" /><path d="M 83.84228863543731 86.58626213691792 l -48.47313409368807 -40.241213589246236 a84.0,84.0 0 0,0 0.9331575460515031,-1.1045642014835364 l 47.77326593414944 41.06963674035889" fill="#4dd2ff" stroke="none" /><path d="M 84.80347519578584 85.50635884689758 l -3.3704164348091705 -3.214524831960027 a25.65756125448924,25.65756125448924 0 0,0 0.3075678606657767,-0.3169757163943045 l 3.31458431044028 3.2720647439044552" fill="#ff3805" stroke="none" /><path d="M 85.57189188830299 84.74124197986013 l -3.717070502044966 -3.93106836290769 a26.410167427263833,26.410167427263833 0 0,0 0.3330097201141595,-0.30949624213572824 l 3.6488528981359503 3.9944691911180676" fill="#ff4206" stroke="none" /><path d="M 86.37877921826538 84.01681056812374 l -2.764169746221333 -3.243486717061397 a25.261553762382803,25.261553762382803 0 0,0 0.33338329666412486,-0.2791989233658587 l 2.7079289125980974 3.2905867978210677" fill="#ff3204" stroke="none" /><path d="M 88.09926311788651 82.69761687909137 l -1.5627744340248588 -2.2721048500533847 a23.757666473901047,23.757666473901047 0 0,0 0.33893739749694735,-0.22885204377388335 l 1.523432342121372 2.2986688061259337" fill="#ff1d02" stroke="none" /><line stroke="#e1ed5e" stroke-width="0.3" x1="56.76296977257108" x2="54.21961505331056" y1="26.818313649435495" y2="22.513508569990535" /><path d="M 56.25429882871898 25.957352633546506 a86.0,86.0 0 0,1 42.26535254187918,-11.944610805530505" fill="none" id="id120" stroke="none" /><text fill="#e1ed5e" style="font-size:6.75px; font-family:Arial;" text-anchor="middle"><textPath startOffset="22.20632615414155" xlink:href="#id120">December</textPath></text><path d="M 89.94658935756843 81.56283822128135 l -6.56591525184182 -12.041370439264616 a34.71516843316059,34.71516843316059 0 0,0 0.5271001626436888,-0.28155865224962756 l 6.357670042669826 12.152607818015994" fill="#ffb210" stroke="none" /><path d="M 90.58718382345135 81.22770947309562 l -0.6027472594936648 -1.2020787888858266 a22.344729591225068,22.344729591225068 0 0,0 0.34530984682071014,-0.16944204217072234 l 0.5819661456625286 1.2122759911913785" fill="#ff0901" stroke="none" /><path d="M 91.23893434514133 80.91482961587045 l -1.339554191053725 -2.918094782323324 a24.210869444463945,24.210869444463945 0 0,0 0.3802465557262191,-0.17060554563329733 l 1.2891255168607314 2.94072065847315" fill="#ff2303" stroke="none" /><path d="M 91.90106846888425 80.62456947434976 l -0.39034630388194963 -0.9338426510647547 a22.012142447436105,22.012142447436105 0 0,0 0.35084853057500803,-0.14311992490351405 l 0.3742139037185611 0.9404234621518457" fill="#ff0400" stroke="none" /><path d="M 92.23578459929587 80.48803036053334 l -2.0760470630792933 -5.217238983508037 a26.615118344180836,26.615118344180836 0 0,0 0.4271306165483261,-0.16572004334847948 l 1.9859332815312896 5.252201730747068" fill="#ff4506" stroke="none" /><path d="M 92.57280143429618 80.3572730644239 l -2.282089730815697 -6.0354472858566 a27.45248459741271,27.45248459741271 0 0,0 0.4434460941380348,-0.16332493886657198 l 2.1778613109050937 6.073835492529494" fill="#ff5107" stroke="none" /><path d="M 92.91201910852362 80.23233633223022 l -3.0597795710397127 -8.533416551751928 a30.06539845065101,30.06539845065101 0 0,0 0.48866007362928615,-0.17048390459719465 l 2.912437493347141 8.584821309521333" fill="#ff750a" stroke="none" /><path d="M 93.59665428221793 80.00007090966166 l -0.9813573859894916 -3.0651286057482845 a24.218396446805855,24.218396446805855 0 0,0 0.39812117632989974,-0.12369818744028219 l 0.9284508369488631 3.081566928071092" fill="#ff2303" stroke="none" /><path d="M 94.63758080256005 79.69619591428918 l -3.4960098873536016 -13.236991965943814 a34.69087438547791,34.69087438547791 0 0,0 0.5786621400465783,-0.1475138639478813 l 3.267638858622024 13.295208826060557" fill="#ffb210" stroke="none" /><path d="M 97.11714578562143 79.19881850522333 l -4.37289980080173 -31.552577983745643 a52.85415875656116,52.85415875656116 0 0,0 0.9022589262540293,-0.11713910363234686 l 3.829126146039843 31.623175410542128" fill="#78ff26" stroke="none" /><path d="M 98.19473922651362 79.07773832637324 l -0.7101231404090171 -8.230047637628537 a29.260627033838258,29.260627033838258 0 0,0 0.5021817642097625,-0.038978969974896215 l 0.5683511868369204 8.241051869791896" fill="#ff6a09" stroke="none" /><path d="M 98.55514903715128 79.0497635885617 l -0.2613665431141532 -3.7897963243806414 a24.798798316592823,24.798798316592823 0 0,0 0.4261117893237505,-0.025704226792827942 l 0.19609270495077968 3.793733820553776" fill="#ff2c04" stroke="none" /><path d="M 99.63851952072746 79.00311137660856 l -0.33751003495740617 -19.60454580435191 a40.60745085977851,40.60745085977851 0 0,0 0.6989905142299371,-0.006016432035158028 l 4.8024403869733544e-15 19.60745085977851" fill="#fffc17" stroke="none" /></svg>