<?xml version="1.0" encoding="utf-8" ?>
<svg baseProfile="full" height="200mm" version="1.1" viewBox="0,0,200,200" width="200mm" xmlns="http://www.w3.org/2000/svg" xmlns:ev="http://www.w3.org/2001/xml-events" xmlns:xlink="http://www.w3.org/1999/xlink"><defs /><rect fill="#1a1a1a" height="200" width="200" x="0" y="0" /><text alignment-baseline="middle" fill="#e1ed5e" style="dominant-baseline: central; font-size:9.0px; font-family:Arial;" text-anchor="middle" x="100.0" y="100.0">2018</text><line stroke="#e1ed5e" stroke-width="0.3" x1="100.0" x2="100.0" y1="15.0" y2="10.0" /><path d="M 100.0 14.0 a86.0,86.0 0 0,1 42.46469731375804,11.215312516191453" fill="none" id="id49" stroke="none" /><text fill="#e1ed5e" style="font-size:6.75px; font-family:Arial;" text-anchor="middle"><textPath startOffset="22.20632615414155" xlink:href="#id49">January</textPath></text><path d="M 102.16513564639614 79.11191278185805 l 0.5368297143985831 -5.179050058278079 a26.206798022624984,26.206798022624984 0 0,0 0.44830259257725646,0.05037201975103815 l -0.6258990104855648 5.16904208505644" fill="#ff4806" stroke="none" /><path d="M 106.74666289553966 80.11325718540242 l 0.19194074423944874 -0.5657724826974697 a21.597444350108738,21.597444350108738 0 0,0 0.35102840109209943,0.12246691651769888 l -0.20165114939482182 0.5623847130075634" fill="#ff0701" stroke="none" /><line stroke="#e1ed5e" stroke-width="0.3" x1="143.23703022742887" x2="145.7803849466894" y1="26.81831364943548" y2="22.513508569990506" /><path d="M 143.74570117128098 25.957352633546492 a86.0,86.0 0 0,1 28.547481713284135,27.462654790039103" fill="none" id="id50" stroke="none" /><text fill="#e1ed5e" style="font-size:6.75px; font-family:Arial;" text-anchor="middle"><textPath startOffset="19.985693538727396" xlink:href="#id50">February</textPath></text><path d="M 116.60985879189232 87.15038557335679 l 0.12303502854528028 -0.09518158447858656 a21.155554338650493,21.155554338650493 0 0,0 0.2203442253218574,0.28994717206379356 l -0.12465519409125118 0.09304963653375946" fill="#ff0000" stroke="none" /><path d="M 117.45458315368197 88.32363383020206 l 1.197339693062313 -0.8009688093227193 a22.44054620685711,22.44054620685711 0 0,0 0.21201332723078126,0.3229108427707879 l -1.2109496556510193 0.7802399025742573" fill="#ff1302" stroke="none" /><line stroke="#e1ed5e" stroke-width="0.3" x1="172.23445277983987" x2="176.4835382374775" y1="55.19839476539836" y2="52.563006222186495" /><path d="M 173.08426987136738 54.67131705675599 a86.0,86.0 0 0,1 12.851231095245387,41.99856678651699" fill="none" id="id51" stroke="none" /><text fill="#e1ed5e" style="font-size:6.75px; font-family:Arial;" text-anchor="middle"><textPath startOffset="22.20632615414155" xlink:href="#id51">March</textPath></text><path d="M 118.21658344932153 89.55222093294921 l 0.9143813063253116 -0.5244262129671716 a22.054094884820277,22.054094884820277 0 0,0 0.18603401843130957,0.33093376055569435 l -0.9232729660490564 0.5086089424766834" fill="#ff0d01" stroke="none" /><path d="M 119.7369772167798 92.82701384747503 l 0.7493945585886453 -0.2723515730141244 a21.79735035195674,21.79735035195674 0 0,0 0.12512397292559993,0.35374232083607265 l -0.7539716123240549 0.25941162575143717" fill="#ff0a01" stroke="none" /><path d="M 120.18372546131832 94.20196356495316 l 60.551176383954946 -17.394109305140535 a84.0,84.0 0 0,0 0.3872529177345476,1.3931547863241924 l -60.84161607225586 16.349243215397394" fill="#4dd2ff" stroke="none" /><path d="M 120.78858239683441 97.02765380044208 l 13.9645527676336 -1.9966481867336092 a35.10657073783738,35.10657073783738 0 0,0 0.08038401811591966,0.5989543032560246 l -13.996852784807356 1.7559755414129203" fill="#ffbd11" stroke="none" /><path d="M 120.91429891909075 98.10471618934814 l 1.1484649207081579 -0.10407554084124081 a22.15317101606769,22.15317101606769 0 0,0 0.03114684806116222,0.38007043841930577 l -1.150086252588815 0.08429118521416624" fill="#ff0f01" stroke="none" /><path d="M 120.94382443527127 98.46500227214037 l 0.597952857764158 -0.04382467399265462 a21.599556688027818,21.599556688027818 0 0,0 0.02398518554911586,0.3710402043504174 l -0.5986186343176894 0.03352540538920196" fill="#ff0701" stroke="none" /><line stroke="#e1ed5e" stroke-width="0.3" x1="184.98032266829074" x2="189.97916517819016" y1="98.17113171792111" y2="98.06355123074" /><path d="M 185.9800911702706 98.14961562048488 a86.0,86.0 0 0,1 -9.607161424134198,41.387399972396054" fill="none" id="id52" stroke="none" /><text fill="#e1ed5e" style="font-size:6.75px; font-family:Arial;" text-anchor="middle"><textPath startOffset="21.466115282336823" xlink:href="#id52">April</textPath></text><path d="M 120.8583938346157 102.4346265915055 l 0.6341328653932404 0.07401704795082613 a21.638437948714827,21.638437948714827 0 0,0 -0.04636652618799499,0.3695868341503757 l -0.6327648299583972 -0.08492163638859676" fill="#ff0701" stroke="none" /><path d="M 120.76222939487914 103.15116336523771 l 0.7089427319489914 0.1075989636026367 a21.717061597180926,21.717061597180926 0 0,0 -0.05927542243705934,0.3691081120983778 l -0.7069855551506435 -0.11978630539421942" fill="#ff0801" stroke="none" /><path d="M 120.49622156327973 104.57218783832717 l 5.092069458295929 1.135911708275482 a26.217227882420655,26.217227882420655 0 0,0 -0.10204673190375214,0.43961465023025836 l -5.071762160461623 -1.2233950158543052" fill="#ff4806" stroke="none" /><path d="M 119.9155931802556 106.66101706037122 l 1.3747404681286015 0.4597989941301769 a22.44959527790124,22.44959527790124 0 0,0 -0.1257275355378445,0.36542307002781843 l -1.3666221016475262 -0.4833947672472957" fill="#ff1302" stroke="none" /><path d="M 119.79798401119884 107.00284435728193 l 1.1192930062391506 0.39591075073367155 a22.187249828958663,22.187249828958663 0 0,0 -0.13045652709011085,0.3589603337030498 l -1.112312218143813 -0.41511888144285247" fill="#ff0f01" stroke="none" /><path d="M 119.67450827220406 107.3425965602758 l 0.38429358059645535 0.14341973298565672 a21.410183831833145,21.410183831833145 0 0,0 -0.13183139259098278,0.3441701662569965 l -0.3817679084119658 -0.15001346607579702" fill="#ff0400" stroke="none" /><path d="M 119.26925614724726 108.34839909993367 l 0.9961922981943147 0.4315999964946416 a22.0856692184804,22.0856692184804 0 0,0 -0.15413579636401922,0.34753553013900434 l -0.9886154170990226 -0.44868386312633357" fill="#ff0e01" stroke="none" /><path d="M 119.12269723197855 108.67885076344098 l 1.1634580726371564 0.5280363360589492 a22.277676429689116,22.277676429689116 0 0,0 -0.1614870395441754,0.347828716616688 l -1.1541964162531495 -0.5479851199544679" fill="#ff1001" stroke="none" /><path d="M 118.81262510543309 109.33194174019688 l 0.5336928463561309 0.2647366075411198 a21.59574619228669,21.59574619228669 0 0,0 -0.16805740808102887,0.3315932097543057 l -0.529056768488833 -0.2738840289981198" fill="#ff0701" stroke="none" /><line stroke="#e1ed5e" stroke-width="0.3" x1="174.80103733775053" x2="179.2010983576182" y1="140.37084112569926" y2="142.7455964860345" /><path d="M 175.68104954172406 140.8457921977663 a86.0,86.0 0 0,1 -30.038265399797805,32.042727171017184" fill="none" id="id53" stroke="none" /><text fill="#e1ed5e" style="font-size:6.75px; font-family:Arial;" text-anchor="middle"><textPath startOffset="22.206326154141568" xlink:href="#id53">May</textPath></text><path d="M 118.48025628344425 109.97397251340804 l 0.53183056067678 0.2870340818126348 a21.604344528718347,21.604344528718347 0 0,0 -0.1794432068640828,0.32574154326110866 l -0.5268109443611899 -0.29614614347154966" fill="#ff0701" stroke="none" /><path d="M 118.12598468904814 110.60418214915192 l 0.21098968576258603 0.1234345663312089 a21.2444437351694,21.2444437351694 0 0,0 -0.1873751078526838,0.3140514585571649 l -0.20883370221167502 -0.1270481187744779" fill="#ff0200" stroke="none" /><path d="M 117.75023020441432 111.22182372390056 l 0.6668548758110256 0.42159046838242603 a21.788944832306957,21.788944832306957 0 0,0 -0.20315092525292638,0.3152947473829126 l -0.659499087181049 -0.43300681568679156" fill="#ff0901" stroke="none" /><path d="M 117.55443506779139 111.5257021239791 l 0.600646949925389 0.39436631254620197 a21.718541263203416,21.718541263203416 0 0,0 -0.20787425471014295,0.3107438060424101 l -0.5937695898045251 -0.40464703279441894" fill="#ff0801" stroke="none" /><path d="M 117.14729908036423 112.12312394758627 l 1.4192153306847377 1.0033838729685376 a22.738088418747427,22.738088418747427 0 0,0 -0.22870208365665395,0.3176471913495868 l -1.401733454652481 -1.0276646697692557" fill="#ff1702" stroke="none" /><path d="M 116.27256486870786 113.27417163493432 l 0.5167678944881152 0.42154791099035716 a21.666897067045593,21.666897067045593 0 0,0 -0.2382368191750324,0.28697159583206644 l -0.5094350754195394 -0.430380763936194" fill="#ff0801" stroke="none" /><path d="M 116.0416608686014 113.55231037782055 l 0.5927221088950024 0.5007432867044375 a21.77592740482116,21.77592740482116 0 0,0 -0.24436478114233373,0.28425144707893124 l -0.5840148181818876 -0.5108718329448967" fill="#ff0901" stroke="none" /><path d="M 115.56566222782051 114.09645910891815 l 0.8980901108307855 0.8133216780730933 a22.21163443298533,22.21163443298533 0 0,0 -0.25908664945931476,0.28118738775336266 l -0.8839570533757464 -0.8286603206277908" fill="#ff1001" stroke="none" /><path d="M 115.32070863581623 114.36230785411682 l 0.6132691586770962 0.57490555193803 a21.840604219971375,21.840604219971375 0 0,0 -0.2594803650860857,0.27206412540393216 l -0.6032822422120461 -0.5853767939244692" fill="#ff0a01" stroke="none" /><path d="M 115.07121518719521 114.62390073753431 l 0.4308729961144578 0.4180846632072064 a21.600371821781913,21.600371821781913 0 0,0 -0.26121985363941697,0.26461433260502787 l -0.42361251741950523 -0.4254394897928989" fill="#ff0701" stroke="none" /><path d="M 114.29624159901734 115.38237550388516 l 0.39590517206751336 0.4259834291756341 a21.58155205029476,21.58155205029476 0 0,0 -0.2742917126394285,0.2505589761023821 l -0.388513909961221 -0.4327351718645991" fill="#ff0601" stroke="none" /><path d="M 113.48314897796784 116.09983520530334 l 0.562017242216026 0.6710884079826306 a21.875341665795002,21.875341665795002 0 0,0 -0.29076482415306293,0.2392796551095264 l -0.550382289518272 -0.6806631819493354" fill="#ff0b01" stroke="none" /><path d="M 113.20401910651253 116.32954008644616 l 0.9786786374735187 1.210341481139629 a22.556514817280675,22.556514817280675 0 0,0 -0.3040215480686354,0.2415331047927279 l -0.9576995966875321 -1.2270084999374826" fill="#ff1402" stroke="none" /><line stroke="#e1ed5e" stroke-width="0.3" x1="143.8653032363475" x2="146.44561519142675" y1="172.8068346515853" y2="177.08958963109032" /><path d="M 144.38136562736335 173.6633856474863 a86.0,86.0 0 0,1 -40.68145358897372,12.25698825130547" fill="none" id="id54" stroke="none" /><text fill="#e1ed5e" style="font-size:6.75px; font-family:Arial;" text-anchor="middle"><textPath startOffset="21.466115282336833" xlink:href="#id54">June</textPath></text><path d="M 110.8373102113329 117.98757091392108 l 0.30647600358826876 0.5086833116758301 a21.593873936414898,21.593873936414898 0 0,0 -0.32003368371310187,0.18908154138746489 l -0.2976744488467848 -0.5138834253570446" fill="#ff0701" stroke="none" /><path d="M 110.21172684928248 118.3499491758327 l 0.30606218258066786 0.5499780377884176 a21.6294044023167,21.6294044023167 0 0,0 -0.32688950238872,0.17824622041377516 l -0.29654986832329805 -0.5551649099619632" fill="#ff0701" stroke="none" /><path d="M 109.89434966115114 118.52300852407294 l 0.27345883852540953 0.511936667942654 a21.580395458589997,21.580395458589997 0 0,0 -0.3291617615458226,0.17220187649517718 l -0.2646061744530913 -0.5165679633825481" fill="#ff0601" stroke="none" /><path d="M 109.57404056367764 118.69057910512821 l 0.71420077851247 1.3942729883947604 a22.56655032418211,22.56655032418211 0 0,0 -0.34725202639713254,0.17411937486933884 l -0.690094844432577 -1.4063602041734014" fill="#ff1502" stroke="none" /><path d="M 101.98527174616119 120.90594882070398 l 0.06818002048882785 0.7179712408087903 a21.721201232543574,21.721201232543574 0 0,0 -0.3725244785419046,0.032142979509852836 l -0.055811224205381565 -0.7190384725973065" fill="#ff0801" stroke="none" /><path d="M 101.26447882468166 120.96189622390904 l 0.31840309286253005 5.278326896171087 a26.28792164771638,26.28792164771638 0 0,0 -0.451916827211295,0.023358937988880175 l -0.22749819723775547 -5.283025640922169" fill="#ff4906" stroke="none" /><line stroke="#e1ed5e" stroke-width="0.3" x1="102.19456741930631" x2="102.32365962044197" y1="184.97166512339345" y2="189.96999836594603" /><path d="M 102.22038585953345 185.97133177190398 a86.0,86.0 0 0,1 -42.740103519485714,-10.115201625700543" fill="none" id="id55" stroke="none" /><text fill="#e1ed5e" style="font-size:6.75px; font-family:Arial;" text-anchor="middle"><textPath startOffset="22.20632615414155" xlink:href="#id55">July</textPath></text><path d="M 97.2962882734958 120.8252237178851 l -0.0767890804623905 0.591464601807829 a21.59642848529388,21.59642848529388 0 0,0 -0.36824112252676344,-0.051034864161456826 l 0.08695879417598498 -0.5900551721537673" fill="#ff0701" stroke="none" /><path d="M 96.93821686468263 120.77559828337769 l -0.08667198600487926 0.5881090475969524 a21.59446134022611,21.59446134022611 0 0,0 -0.36727462549624396,-0.05736074311834759 l 0.09678247510964032 -0.586529997131499" fill="#ff0701" stroke="none" /><path d="M 96.58105272829116 120.7198165907248 l -0.13809978693317623 0.8369249447486826 a21.848242249769235,21.848242249769235 0 0,0 -0.3705368547039584,-0.06442258175824386 l 0.1524856131091846 -0.8344237844694326" fill="#ff0a01" stroke="none" /><path d="M 96.22490169976321 120.6578951692458 l -0.10774821689983688 0.5896141483919429 a21.599378446583668,21.599378446583668 0 0,0 -0.36516565969806264,-0.0699848677827269 l 0.11788149116959457 -0.587672082260748" fill="#ff0701" stroke="none" /><path d="M 95.16358092515715 120.4354850818985 l -0.17620231084848711 0.744513583090874 a21.765080211321113,21.765080211321113 0 0,0 -0.3638361864516584,-0.08942208253938061 l 0.18899178204335604 -0.7413702422374635" fill="#ff0901" stroke="none" /><path d="M 94.81253420990036 120.34920634021253 l -0.14845128560085233 0.58233942437306 a21.60096338438851,21.60096338438851 0 0,0 -0.3595115784439458,-0.09495027541693533 l 0.15845330685628742 -0.579697799652543" fill="#ff0701" stroke="none" /><path d="M 92.40401165467489 119.57807347666478 l -0.3025785857607153 0.7798729428191415 a21.836513961331395,21.836513961331395 0 0,0 -0.3492583243966158,-0.1389770951477583 l 0.3159579861991892 -0.7745490032653167" fill="#ff0a01" stroke="none" /><path d="M 91.7346041902142 119.30500536409082 l -0.43558904689121225 1.0173800602287173 a22.106706828714174,22.106706828714174 0 0,0 -0.34852731344713084,-0.15278413194161977 l 0.4530370349960864 -1.0097313749926453" fill="#ff0e01" stroke="none" /><path d="M 90.7491055286396 118.85261126421891 l -0.057465637586795335 0.11711054858839215 a21.13044991412006,21.13044991412006 0 0,0 -0.3251534437453832,-0.1630386867687012 l 0.059472989014939 -0.11610402091038884" fill="#ff0000" stroke="none" /><path d="M 90.42595943632237 118.69057910512821 l -0.2707253298284847 0.5285138661432139 a21.593817405366657,21.593817405366657 0 0,0 -0.329366484005745,-0.17230897761042757 l 0.27978271636072527 -0.5237754695880695" fill="#ff0701" stroke="none" /><line stroke="#e1ed5e" stroke-width="0.3" x1="58.666819895761336" x2="56.23545636021788" y1="174.27360380694188" y2="178.64263932499728" /><path d="M 58.180547188652646 175.14741091055294 a86.0,86.0 0 0,1 -31.652253787137756,-30.449443065178592" fill="none" id="id56" stroke="none" /><text fill="#e1ed5e" style="font-size:6.75px; font-family:Arial;" text-anchor="middle"><textPath startOffset="22.20632615414155" xlink:href="#id56">August</textPath></text><path d="M 89.4739219176387 118.17145234162733 l -0.11772412625304637 0.20323033260143417 a21.234864935636065,21.234864935636065 0 0,0 -0.3147129629687033,-0.1859379657863884 l 0.12120496025013182 -0.20117379452129625" fill="#ff0200" stroke="none" /><path d="M 89.1626897886671 117.98757091392108 l -0.5612096505194243 0.9314855983118921 a22.08748411100972,22.08748411100972 0 0,0 -0.323971644159792,-0.19900984440704697 l 0.5771604946115251 -0.9216872870764671" fill="#ff0e01" stroke="none" /><path d="M 86.24171649860922 115.8653595955263 l -0.4010179816865013 0.4624337391423413 a21.612095078180737,21.612095078180737 0 0,0 -0.2789582686024184,-0.24614823811989756 l 0.40891860319550744 -0.45546235925015494" fill="#ff0701" stroke="none" /><path d="M 85.70375840098266 115.38237550388516 l -0.4061383651827809 0.4369940726382936 a21.596583767122727,21.596583767122727 0 0,0 -0.27012612643810324,-0.2554211129699248 l 0.4136003260116988 -0.42993832292244033" fill="#ff0701" stroke="none" /><path d="M 84.67929136418377 114.36230785411682 l -0.47366582309648747 0.44403522924401306 a21.649250796518153,21.649250796518153 0 0,0 -0.25252674984801887,-0.27406791232120964 l 0.4812389809402377 -0.4358160621214616" fill="#ff0701" stroke="none" /><path d="M 83.72743513129214 113.27417163493432 l -0.5708193304745288 0.46563979473377687 a21.73665129232433,21.73665129232433 0 0,0 -0.23401273852876617,-0.2919668724180879 l 0.578749981058156 -0.45574508873742936" fill="#ff0901" stroke="none" /><path d="M 82.05923443525364 110.91462005526583 l -1.078976596990878 0.6564167823373263 a22.26296218826539,22.26296218826539 0 0,0 -0.19635839813685196,-0.32910796979132334 l 1.0901158708259617 -0.6377467186598919" fill="#ff1001" stroke="none" /><line stroke="#e1ed5e" stroke-width="0.3" x1="26.63291911575756" x2="22.317208475507996" y1="142.92168965132927" y2="145.44649492493687" /><path d="M 25.769776987707644 143.4266507060508 a86.0,86.0 0 0,1 -11.730757126820373,-40.83630448921669" fill="none" id="id57" stroke="none" /><text fill="#e1ed5e" style="font-size:6.75px; font-family:Arial;" text-anchor="middle"><textPath startOffset="21.46611528233685" xlink:href="#id57">September</textPath></text><path d="M 81.69416730710424 110.29060199501025 l -0.6770207140504259 0.380586386183588 a21.77666147361745,21.77666147361745 0 0,0 -0.18087445163748497,-0.3283396682579811 l 0.6834715751394274 -0.36887619952778433" fill="#ff0901" stroke="none" /><path d="M 81.51974371655577 109.97397251340807 l -0.6303812283313274 0.3402228274278709 a21.716332370715946,21.716332370715946 0 0,0 -0.17471047069462728,-0.33048636919428215 l 0.6361442072508408 -0.32932144314746253" fill="#ff0801" stroke="none" /><path d="M 81.35079622478065 109.6543875284942 l -0.7664214234417857 0.3967638254818798 a21.86303147771188,21.86303147771188 0 0,0 -0.17013741364725704,-0.335697258066658 l 0.7731375068753095 -0.3835123557125368" fill="#ff0b01" stroke="none" /><path d="M 81.18737489456691 109.33194174019688 l -0.7343994555683516 0.3642964708533373 a21.8197892894002,21.8197892894002 0 0,0 -0.1640086990802313,-0.33790649787730176 l 0.7405614112633019 -0.35160101701075075" fill="#ff0a01" stroke="none" /><path d="M 81.02952815118164 109.00673069616217 l -1.1137572927135837 0.5287855819454873 a22.232910985735028,22.232910985735028 0 0,0 -0.16116254255093054,-0.3471297789618394 l 1.122694452104341 -0.5095357357048208" fill="#ff1001" stroke="none" /><path d="M 80.87730276802145 108.67885076344099 l -0.8652985740028439 0.3927164195765484 a21.950246183036995,21.950246183036995 0 0,0 -0.15319067954606028,-0.345404541218068 l 0.8719303382801841 -0.3777635418657845" fill="#ff0c01" stroke="none" /><path d="M 80.58989483394504 108.01547362559985 l -0.5672945972303515 0.23426637017904225 a21.61376208113862,21.61376208113862 0 0,0 -0.139045845391649,-0.34510038519528485 l 0.5712430568793883 -0.22446661714095203" fill="#ff0701" stroke="none" /><path d="M 80.45479744820244 107.68017299344265 l -0.671504409910178 0.2638637292349514 a21.721486133016146,21.721486133016146 0 0,0 -0.13374821012996455,-0.34917437199364826 l 0.6759468996336516 -0.2522657904081453" fill="#ff0801" stroke="none" /><path d="M 80.32549172779594 107.34259656027581 l -0.8461455326829445 0.3157845264447122 a21.90315122190097,21.90315122190097 0 0,0 -0.12878608492564497,-0.35436399429281007 l 0.8514558786138138 -0.301172735145785" fill="#ff0b01" stroke="none" /><path d="M 80.20201598880116 107.00284435728193 l -0.7615787409468754 0.26938184138591786 a21.807817278306608,21.807817278306608 0 0,0 -0.12213329852588312,-0.35497653484600356 l 0.7661028704159869 -0.25623260345061744" fill="#ff0a01" stroke="none" /><path d="M 79.67330655649465 105.27499134158121 l -1.1662246314991116 0.3026475924672413 a22.20485495240774,22.20485495240774 0 0,0 -0.0928254777400326,-0.37079164104896883 l 1.1712614235342051 -0.28252811202088063" fill="#ff0f01" stroke="none" /><path d="M 79.58551787078972 104.9243191809786 l -0.6463875753988624 0.1559196415435106 a21.66492693752703,21.66492693752703 0 0,0 -0.08432756509663478,-0.3632809433788779 l 0.6489757064260523 -0.14477004081605846" fill="#ff0801" stroke="none" /><path d="M 79.4281124754447 104.21870165774334 l -0.6720665008764487 0.13782148371057318 a21.68605258032639,21.68605258032639 0 0,0 -0.07184286340507279,-0.36632521271206403 l 0.674339297257188 -0.12623254393055433" fill="#ff0801" stroke="none" /><path d="M 79.23777060512086 103.15116336523772 l -1.1795882133002253 0.17903063746779915 a22.193096945813267,22.193096945813267 0 0,0 -0.05407289838634066,-0.37818572537320094 l 1.182495162703165 -0.15869944011419762" fill="#ff0f01" stroke="none" /><path d="M 79.18660465613746 102.79330883721812 l -1.8262089909659451 0.24509051160538295 a22.84258205721315,22.84258205721315 0 0,0 -0.04894674845141042,-0.3901537442931123 l 1.8301572486642037 -0.21361901302486205" fill="#ff1902" stroke="none" /><line stroke="#e1ed5e" stroke-width="0.3" x1="15.007084014347285" x2="10.007500721073583" y1="101.09737516637583" y2="101.16192664675087" /><path d="M 14.007167355692545 101.11028546245083 a86.0,86.0 0 0,1 10.666146001902534,-42.60595125391555" fill="none" id="id58" stroke="none" /><text fill="#e1ed5e" style="font-size:6.75px; font-family:Arial;" text-anchor="middle"><textPath startOffset="22.20632615414155" xlink:href="#id58">October</textPath></text><path d="M 79.00175016825051 100.2711162175752 l -3.283292329598864 0.04239180906632545 a24.283565986405428,24.283565986405428 0 0,0 -0.0017989528297896837,-0.41801328283338945 l 3.2835355797181567 0.014130951970739377" fill="#ff2d04" stroke="none" /><path d="M 79.03285615573316 98.82574320788736 l -0.8908738167903638 -0.049893043995472224 a21.892269843310736,21.892269843310736 0 0,0 0.024310228300853068,-0.3760684718524517 l 0.8898829974850976 0.06522058010093572" fill="#ff0b01" stroke="none" /><path d="M 79.08570108090925 98.10471618934814 l -1.1976967256708935 -0.10853699772659967 a22.20260455951168,22.20260455951168 0 0,0 0.037768612009838685,-0.38032476867379694 l 1.1956509879788262 0.12913729710482688" fill="#ff0f01" stroke="none" /><path d="M 79.12142395522702 97.74499172005258 l -0.788453868421164 -0.08515762750455491 a21.793039295464293,21.793039295464293 0 0,0 0.04349231351675352,-0.3726155819032761 l 0.7868712019008216 0.09871694773269275" fill="#ff0a01" stroke="none" /><path d="M 79.26566170972629 96.67025291283419 l -0.7153958834248916 -0.11488610466637653 a21.724561996703315,21.724561996703315 0 0,0 0.06247170753663905,-0.36871155420185403 l 0.7133123143680294 0.12718344718405852" fill="#ff0901" stroke="none" /><path d="M 79.46518482838121 95.60439243477599 l -1.6523449754705626 -0.3536949329145446 a22.689776323521027,22.689776323521027 0 0,0 0.08503870258711316,-0.3812118292841279 l 1.646011885881412 0.38208493174863173" fill="#ff1602" stroke="none" /><path d="M 80.02781315780177 93.51064311812611 l -2.863007890867055 -0.9302476542129366 a24.010344644942784,24.010344644942784 0 0,0 0.13109957592674154,-0.39197104535197014 l 2.846571021168541 0.9793918024872289" fill="#ff2904" stroke="none" /><path d="M 80.14247586403 93.16781622104843 l -0.40750571665654217 -0.14020649946624686 a21.430951008352853,21.430951008352853 0 0,0 0.12302071997013533,-0.3477961415038888 l 0.4050319158765973 0.14720026739674677" fill="#ff0400" stroke="none" /><path d="M 80.2630227832202 92.82701384747504 l -0.6069460842429646 -0.22058169342682896 a21.645786212808012,21.645786212808012 0 0,0 0.1302822883606507,-0.34909176052796903 l 0.6030592073806863 0.23099659098413944" fill="#ff0701" stroke="none" /><path d="M 80.38941819471856 92.48833698450439 l -0.3416528523796709 -0.13086715737662566 a21.365859104600396,21.365859104600396 0 0,0 0.13450973266415087,-0.34231259795236746 l 0.3393495698338289 0.13672876022475655" fill="#ff0300" stroke="none" /><path d="M 81.26839172434947 90.50648371742162 l -0.7521526092448572 -0.38120448269954443 a21.843238047780147,21.843238047780147 0 0,0 0.1728638148942451,-0.3339178689284916 l 0.745479361190498 0.39409507388837156" fill="#ff0a01" stroke="none" /><line stroke="#e1ed5e" stroke-width="0.3" x1="26.266209847984243" x2="21.928928074336255" y1="57.711370442889674" y2="55.22380399835377" /><path d="M 25.398753493254645 57.213857153982495 a86.0,86.0 0 0,1 29.58750427330803,-30.492523968695096" fill="none" id="id59" stroke="none" /><text fill="#e1ed5e" style="font-size:6.75px; font-family:Arial;" text-anchor="middle"><textPath startOffset="21.46611528233685" xlink:href="#id59">November</textPath></text><path d="M 82.34701348167596 88.62581576622439 l -4.4223735244454305 -2.849426705526617 a26.26085735787278,26.26085735787278 0 0,0 0.24810678372322267,-0.3778836532384917 l 4.372670105364287 2.9251284227427754" fill="#ff4806" stroke="none" /><path d="M 83.84228863543731 86.58626213691792 l -0.8038906183118368 -0.6673703831766521 a22.044807807470416,22.044807807470416 0 0,0 0.2448961756761442,-0.2898798277704356 l 0.7922838291485684 0.6811091605762035" fill="#ff0d01" stroke="none" /><path d="M 84.31358615837235 86.03803664274999 l -0.4509813195147922 -0.401403706509406 a21.603745878785762,21.603745878785762 0 0,0 0.24963268209534645,-0.27565064251226007 l 0.4440049968034008 0.40910713629122203" fill="#ff0701" stroke="none" /><path d="M 85.31137513191541 84.99185889309783 l -0.5675219595116082 -0.5798670553648991 a21.811373512277456,21.811373512277456 0 0,0 0.2705822990369684,-0.2602999572914911 l 0.5574564168622123 0.5895500994186991" fill="#ff0a01" stroke="none" /><path d="M 86.37877921826538 84.01681056812374 l -0.1569146109039133 -0.184124168523096 a21.241917143975883,21.241917143975883 0 0,0 0.2803351065234274,-0.23477258970730175 l 0.1537219674213755 0.18679791562421014" fill="#ff0200" stroke="none" /><path d="M 86.93701828274178 83.55741782278169 l -0.4425412186595468 -0.5570336476091459 a21.71142758927485,21.71142758927485 0 0,0 0.2946214306646098,-0.22995669984142603 l 0.4328872328355114 0.5645687366737914" fill="#ff0801" stroke="none" /><line stroke="#e1ed5e" stroke-width="0.3" x1="56.76296977257108" x2="54.21961505331056" y1="26.818313649435495" y2="22.513508569990535" /><path d="M 56.25429882871898 25.957352633546506 a86.0,86.0 0 0,1 42.26535254187918,-11.944610805530505" fill="none" id="id60" stroke="none" /><text fill="#e1ed5e" style="font-size:6.75px; font-family:Arial;" text-anchor="middle"><textPath startOffset="22.20632615414155" xlink:href="#id60">December</textPath></text><path d="M 89.3179101791058 81.91981866633112 l -0.5953866120772107 -1.0077333265761306 a22.170474978516403,22.170474978516403 0 0,0 0.3302379531464638,-0.19129513784738833 l 0.5779519264654244 1.017832621813566" fill="#ff0f01" stroke="none" /><path d="M 89.63071344664047 81.73862282372117 l -0.3053558495894524 -0.5377629708313374 a21.61841022604404,21.61841022604404 0 0,0 0.32517785823646983,-0.18096112604599962 l 0.296053902280937 0.5429394944375215" fill="#ff0701" stroke="none" /><path d="M 90.26544431104013 81.39251694778311 l -0.27959115813899627 -0.5344350479725846 a21.60315175222407,21.60315175222407 0 0,0 0.33098035768126266,-0.16954099455117985 l 0.2703503128689699 0.5391685678362697" fill="#ff0701" stroke="none" /><path d="M 91.56875222667455 80.76684994638697 l -0.49291721613561834 -1.1244303378130134 a22.227725932998556,22.227725932998556 0 0,0 0.35174449309147593,-0.15059863514575494 l 0.47348896525383416 1.1327485009215543" fill="#ff1001" stroke="none" /><path d="M 92.57280143429618 80.3572730644239 l -0.21225831543124557 -0.5613599923225217 a21.600148842746574,21.600148842746574 0 0,0 0.34891201206680206,-0.1285072386338002 l 0.20256397759187522 0.5649304987626442" fill="#ff0701" stroke="none" /><path d="M 94.28887869178378 79.79150937346287 l -0.9505453132939966 -3.3634526421572635 a24.49518956119119,24.49518956119119 0 0,0 0.4067392525644003,-0.11117720239013038 l 0.8925081715058738 3.37931638537369" fill="#ff3004" stroke="none" /><path d="M 95.33964822691252 79.52364482259891 l -0.18895049521397603 -0.8301985857140508 a21.851429375440627,21.851429375440627 0 0,0 0.36747577483725435,-0.08031597119502139 l 0.17463199622320075 0.8333280550049404" fill="#ff0a01" stroke="none" /><path d="M 97.83486435360386 79.11191278185805 l -0.12574343402005844 -1.2131063572351772 a22.21960585648133,22.21960585648133 0 0,0 0.38077513493839327,-0.03615918720155023 l 0.10484317199142883 1.215091088951908" fill="#ff1001" stroke="none" /><path d="M 98.19473922651362 79.07773832637324 l -0.06237611049017281 -0.7229145644914754 a21.725600611020816,21.725600611020816 0 0,0 0.3728628382003604,-0.028941332423404426 l 0.04992308292747819 0.7238811591033419" fill="#ff0901" stroke="none" /><path d="M 99.27714615592234 79.0124445844662 l -0.08449628731338903 -2.4532905606379964 a23.45474524085194,23.45474524085194 0 0,0 0.40361524801588394,-0.010424191075279624 l 0.04225440410262607 2.454381543855636" fill="#ff2103" stroke="none" /></svg>