<?xml version="1.0" encoding="utf-8" ?>
<svg baseProfile="full" height="200mm" version="1.1" viewBox="0,0,200,200" width="200mm" xmlns="http://www.w3.org/2000/svg" xmlns:ev="http://www.w3.org/2001/xml-events" xmlns:xlink="http://www.w3.org/1999/xlink"><defs /><rect fill="#1a1a1a" height="200" width="200" x="0" y="0" /><text alignment-baseline="middle" fill="#e1ed5e" style="dominant-baseline: central; font-size:9.0px; font-family:Arial;" text-anchor="middle" x="100.0" y="100.0">2024</text><line stroke="#e1ed5e" stroke-width="0.3" x1="100.0" x2="100.0" y1="15.0" y2="10.0" /><path d="M 100.0 14.0 a86.0,86.0 0 0,1 42.35913384403234,11.155469271406648" fill="none" id="id121" stroke="none" /><text fill="#e1ed5e" style="font-size:6.75px; font-family:Arial;" text-anchor="middle"><textPath startOffset="22.145653131862478" xlink:href="#id121">January</textPath></text><path d="M 101.44090949804482 79.04949213459386 l 0.2384234120446729 -3.466624084383356 a24.474813414535774,24.474813414535774 0 0,0 0.4189050851559616,0.03242590293199052 l -0.29789749197586796 3.462020414456312" fill="#ff2703" stroke="none" /><path d="M 102.15924093988457 79.11130261209362 l 2.9625459291256093 -28.659944459272356 a49.812655115257165,49.812655115257165 0 0,0 0.8498136177970511,0.09522338841574032 l -3.454095448523457 28.604865310349645" fill="#98ff23" stroke="none" /><path d="M 104.29559338865022 79.4440306129975 l 0.23947725226509634 -1.1459853438296754 a22.170739835584687,22.170739835584687 0 0,0 0.3718746581643927,0.08104835091783391 l -0.25911432704862314 1.1417055347781226" fill="#ff0601" stroke="none" /><path d="M 104.9986988182912 79.60360301121754 l 0.8297613507168843 -3.385709467680118 a24.485904832132153,24.485904832132153 0 0,0 0.4073926447111291,0.10355761718902458 l -0.8877592886534078 3.3709666186558254" fill="#ff2803" stroke="none" /><path d="M 106.72888874123014 80.10723608172694 l 14.390234542436865 -42.54217144760549 a65.910079065437,65.910079065437 0 0,0 1.0686667374208463,0.3717377654304044 l -15.11840705190273 42.28887524960649" fill="#37ff74" stroke="none" /><path d="M 107.74402155503746 80.48000691201159 l 1.2320682561358234 -3.1056168520162197 a24.34108488657572,24.34108488657572 0 0,0 0.38707603369794163,0.1574204531562925 l -1.2851987510242047 3.0840091422806335" fill="#ff2603" stroke="none" /><path d="M 108.73861861582097 80.90454125486305 l 1.9538612002309488 -4.26953933830979 a25.695374292976304,25.695374292976304 0 0,0 0.3995157003787028,0.18699352050753693 l -2.0268656144811565 4.2353695862317196" fill="#ff3905" stroke="none" /><path d="M 109.06512990194946 81.05736502329252 l 3.2544835841920876 -6.8006189916572355 a28.53923617281385,28.53923617281385 0 0,0 0.44010186325976364,0.2152758751059608 l -3.370745696713918 6.743749366454053" fill="#ff6008" stroke="none" /><path d="M 110.02825361518725 81.54914285379988 l 3.208323669095658 -5.902954190110124 a27.718497520742126,27.718497520742126 0 0,0 0.4161151161426038,0.23081204047741644 l -3.3091829733943623 5.847009234199562" fill="#ff5507" stroke="none" /><path d="M 110.34350942703115 81.72400993836675 l 4.4874180752793045 -7.928837762923327 a30.110619586674794,30.110619586674794 0 0,0 0.4476553443976247,0.2584539335921433 l -4.622865887537326 7.850636932055012" fill="#ff750a" stroke="none" /><line stroke="#e1ed5e" stroke-width="0.3" x1="143.13028292997686" x2="145.6673583964461" y1="26.7553504044142" y2="22.446841604673864" /><path d="M 143.63769802327073 25.89364864446614 a86.0,86.0 0 0,1 29.32050498858742,28.57503671076993" fill="none" id="id122" stroke="none" /><text fill="#e1ed5e" style="font-size:6.75px; font-family:Arial;" text-anchor="middle"><textPath startOffset="20.669276256404974" xlink:href="#id122">February</textPath></text><path d="M 110.65571695917076 81.90426304109057 l 4.261157117598089 -7.23637636360796 a29.397773684533348,29.397773684533348 0 0,0 0.43266137504891056,0.25980072434585333 l -4.3847512492044345 7.162161638726185" fill="#ff6c09" stroke="none" /><path d="M 111.27062007382361 82.28071324371311 l 2.4256053325588187 -3.813454465119522 a25.5195128262765,25.5195128262765 0 0,0 0.3676199660833442,0.2382868205567973 l -2.49071093089917 3.77125380285883" fill="#ff3605" stroke="none" /><path d="M 111.8722381534696 82.67804972795209 l 5.263376596609546 -7.6794237523686135 a30.310031276326644,30.310031276326644 0 0,0 0.42665685866471414,0.29783962318946455 l -5.394428546448021 7.587939313374022" fill="#ff780b" stroke="none" /><path d="M 112.16784306229584 82.88440491214696 l 4.569045056175652 -6.426934068699599 a28.88553449353782,28.88553449353782 0 0,0 0.4016725998862292,0.2907799862100161 l -4.6786986664358485 6.347553311116508" fill="#ff6509" stroke="none" /><path d="M 112.7482090630111 83.31218511350987 l 3.320719578448426 -4.346928524719519 a26.470188855762743,26.470188855762743 0 0,0 0.35872154818940677,0.2789440455799694 l -3.3948510712730586 4.289283427518758" fill="#ff4406" stroke="none" /><path d="M 115.16444852881244 85.47280134310134 l 11.620291036004192 -11.131975950874327 a37.09198720892742,37.09198720892742 0 0,0 0.4365270597055084,0.46357661002916967 l -11.80967392944596 10.930857880900662" fill="#ffd013" stroke="none" /><path d="M 115.6541949942343 86.00192230759917 l 6.060902021753136 -5.419695961228155 a29.130660343996915,29.130660343996915 0 0,0 0.3301321362595959,0.3756297695430324 l -6.153045221971323 5.314853913873825" fill="#ff6809" stroke="none" /><path d="M 116.35404254752997 86.82634096563983 l 5.764998120407455 -4.643874402995581 a28.40275440623955,28.40275440623955 0 0,0 0.3026023629961501,0.3823282004063531 l -5.843866914045164 4.544226258674549" fill="#ff5e08" stroke="none" /><path d="M 116.7966241395341 87.39550010848427 l 17.131823774394537 -12.8560399465968 a42.419083755973375,42.419083755973375 0 0,0 0.43206458792891655,0.5861785939323155 l -17.34999038190728 12.560055043395609" fill="#ecff1a" stroke="none" /><path d="M 117.01052211995028 87.68569379921539 l 0.7847452598309413 -0.5680950502888347 a21.968791571489866,21.968791571489866 0 0,0 0.21852137442030914,0.3073776793036203 l -0.794381732781211 0.5545401442757103" fill="#ff0300" stroke="none" /><path d="M 117.42321728460499 88.27688183743584 l 8.856882488087628 -5.9593058080920605 a31.675096867108657,31.675096867108657 0 0,0 0.2996698877292009,0.45373840443741553 l -8.957876814737553 5.806387525315586" fill="#ff8a0c" stroke="none" /><path d="M 117.62189284568427 88.57770195909679 l 2.7054388020018805 -1.7536327452733227 a24.224069930487275,24.224069930487275 0 0,0 0.22318709373174028,0.3508871817372287 l -2.7351435873595107 1.706931888857422" fill="#ff2403" stroke="none" /><path d="M 117.81537515405839 88.88188828441811 l 6.7490449562713435 -4.2119032099201 a28.955484678604247,28.955484678604247 0 0,0 0.2595404676778137,0.4239398487283301 l -6.82035338840456 4.095426245067216" fill="#ff6609" stroke="none" /><line stroke="#e1ed5e" stroke-width="0.3" x1="172.87174338648825" x2="177.1583165268699" y1="56.24261187166439" y2="53.66864786411523" /><path d="M 173.72905801456457 55.72781907015455 a86.0,86.0 0 0,1 12.242430191666344,42.057860355516425" fill="none" id="id123" stroke="none" /><text fill="#e1ed5e" style="font-size:6.75px; font-family:Arial;" text-anchor="middle"><textPath startOffset="22.145653131862474" xlink:href="#id123">March</textPath></text><path d="M 118.18653347947321 89.5 l 4.670066924733235 -2.6962643961283015 a26.392528792256602,26.392528792256602 0 0,0 0.22316345362940251,0.394308439454029 l -4.715663743384013 2.6156991865751547" fill="#ff4206" stroke="none" /><path d="M 118.53625476483649 90.13048839642627 l 2.7976329604797727 -1.4895819741523164 a24.16948018439654,24.16948018439654 0 0,0 0.19185034875280343,0.3678983401501781 l -2.8227913782075205 1.4413373908976401" fill="#ff2303" stroke="none" /><path d="M 118.70294669586156 90.45014215332178 l 3.111582555948637 -1.5887962239708637 a24.49374003666385,24.49374003666385 0 0,0 0.18799538785136344,0.37611670882050585 l -3.138397857011738 1.5351476589866075" fill="#ff2803" stroke="none" /><path d="M 118.8641267826498 90.77261029715802 l 3.007344148150327 -1.4710427227973923 a24.347847893454716,24.347847893454716 0 0,0 0.18043000744088653,0.37702932078914186 l -3.0321534135511254 1.419200899943147" fill="#ff2603" stroke="none" /><path d="M 119.16976305983485 91.42560881287824 l 5.9649270960143665 -2.66803601923758 a27.53442969666944,27.53442969666944 0 0,0 0.18928755838975317,0.4331269769476272 l -6.00984853642109 2.565246972514103" fill="#ff5207" stroke="none" /><path d="M 119.31412917781788 91.75594674310238 l 5.852798525574967 -2.498211661654799 a27.363671274303893,27.363671274303893 0 0,0 0.18069685734978033,0.43360667725828084 l -5.894821227461231 2.39737247495524" fill="#ff5007" stroke="none" /><path d="M 119.71291397450082 92.76114493625339 l 3.1589233843325815 -1.1600004223750247 a24.365174278992612,24.365174278992612 0 0,0 0.14080730511182055,0.39386309282879955 l -3.178370859488345 1.1056023731653082" fill="#ff2603" stroke="none" /><path d="M 119.83427380445688 93.10060997987247 l 3.1669599774369486 -1.101633076052521 a24.3530927414762,24.3530927414762 0 0,0 0.133958916259082,0.39602573298045574 l -3.1854043152683955 1.0471056685979037" fill="#ff2603" stroke="none" /><path d="M 119.94978838288452 93.4421083053983 l 3.2239432342815264 -1.0597741767577178 a24.393660454964834,24.393660454964834 0 0,0 0.12735266177205484,0.3989303991358463 l -3.2416606118308384 1.0042747439304844" fill="#ff2603" stroke="none" /><path d="M 120.16314734710363 94.1308016681162 l 8.092981547269389 -2.3557489800332667 a29.428873209472936,29.428873209472936 0 0,0 0.13702855233181896,0.4862659910547624 l -8.132228591675789 2.216475065075491" fill="#ff6c0a" stroke="none" /><path d="M 120.26092885502905 94.47779374421319 l 3.236008136369191 -0.8819884074564234 a24.354050120307555,24.354050120307555 0 0,0 0.10647418981205037,0.4042998414010097 l -3.250671806985972 0.8263080616826151" fill="#ff2603" stroke="none" /><path d="M 120.43855184770803 95.1765574152323 l 3.259417759122338 -0.7692137162184426 a24.348954145655128,24.348954145655128 0 0,0 0.09251343205970046,0.4076312515288263 l -3.2721420527397047 0.71314813075059" fill="#ff2603" stroke="none" /><path d="M 120.51834098615036 95.52812308129327 l 6.988778277350948 -1.5231716974359708 a28.152836768013266,28.152836768013266 0 0,0 0.09885974428863013,0.4730796640513936 l -7.013895732463945 1.4029755820991727" fill="#ff5b08" stroke="none" /><path d="M 120.592083275326 95.88100663000786 l 6.470639385283703 -1.2943090978817744 a27.59881884091723,27.59881884091723 0 0,0 0.08893878093323493,0.46536528379423914 l -6.4919044584990955 1.1830412490542206" fill="#ff5307" stroke="none" /><path d="M 120.65975698304385 96.23510406497455 l 3.208521577897491 -0.5846995129701654 a24.261362328276537,24.261362328276537 0 0,0 0.07114954413685436,0.4103716633257951 l -3.2180859395265795 0.5295348167237777" fill="#ff2403" stroke="none" /><path d="M 120.7213421655516 96.59031103205396 l 9.924596936416714 -1.633088649135308 a31.05806158691955,31.05806158691955 0 0,0 0.0820502339961981,0.5268213611219943 l -9.951168662551177 1.4624791060818725" fill="#ff820c" stroke="none" /><path d="M 120.86939407059847 97.66154086499901 l 4.070535680470469 -0.456112013321652 a25.096010118966934,25.096010118966934 0 0,0 0.04429757396980968,0.42853884463825404 l -4.077765646921945 0.38616864640046655" fill="#ff3004" stroke="none" /><path d="M 120.93736805541906 98.37931529534042 l 5.164109661572508 -0.39973474791780816 a26.179557554988595,26.179557554988595 0 0,0 0.03083707392198026,0.4483642870181776 l -5.170210696659554 0.3110270367452964" fill="#ff4006" stroke="none" /><path d="M 120.98066250479742 99.09900007780936 l 3.4295415421505213 -0.14727927022898504 a24.432702488240913,24.432702488240913 0 0,0 0.01439820670499375,0.41918807839437333 l -3.431564435852363 0.08838492727049176" fill="#ff2703" stroke="none" /><path d="M 120.99303781780057 99.45929381324524 l 26.165888335640318 -0.673940466730282 a47.17456605458617,47.17456605458617 0 0,0 0.013902048992002581,0.8097246581998371 l -26.17360181623099 0.2246688925613784" fill="#b5ff1f" stroke="none" /><line stroke="#e1ed5e" stroke-width="0.3" x1="184.99686870605535" x2="189.99668451229388" y1="99.2704041080226" y2="99.22748670261217" /><path d="M 185.99683186730306 99.26182062694052 a86.0,86.0 0 0,1 -10.086455211305974,41.156179273409016" fill="none" id="id124" stroke="none" /><text fill="#e1ed5e" style="font-size:6.75px; font-family:Arial;" text-anchor="middle"><textPath startOffset="21.40746469413373" xlink:href="#id124">April</textPath></text><path d="M 120.99922638620191 100.18025310272382 l 3.290405796887965 0.028244176390194706 a24.290527015797604,24.290527015797604 0 0,0 -0.007158266092459885,0.4169331131228973 l -3.2894360991968368 -0.08472420548216308" fill="#ff2503" stroke="none" /><path d="M 120.82617615685814 102.69636545807757 l 3.30784614291578 0.4282669085873514 a24.33545478910954,24.33545478910954 0 0,0 -0.05719467314120602,0.4138321633552024 l -3.300006953219364 -0.48498738014263887" fill="#ff2603" stroke="none" /><path d="M 120.77682067341334 103.0534771498775 l 3.3217506640944885 0.4881829568554752 a24.357432065400033,24.357432065400033 0 0,0 -0.0643482850634243,0.41316215045225374 l -3.312880886892797 -0.5451332892391795" fill="#ff2603" stroke="none" /><path d="M 120.7213421655516 103.40968896794604 l 6.435827312396766 1.0590129351353668 a27.52237545621043,27.52237545621043 0 0,0 -0.08071288169133191,0.46553045298196927 l -6.4166996132132 -1.169336421037924" fill="#ff5207" stroke="none" /><path d="M 120.592083275326 104.11899336999214 l 10.097317210149747 2.01974623389123 a31.297338961678598,31.297338961678598 0 0,0 -0.10990178191142798,0.525919811339075 l -10.061157717413954 -2.192782496515714" fill="#ff850c" stroke="none" /><path d="M 120.43855184770803 104.8234425847677 l 6.592417014888542 1.5557924652928106 a27.773511075746008,27.773511075746008 0 0,0 -0.11349112774937226,0.4630825301597571 l -6.564738360622874 -1.6687308200606674" fill="#ff5607" stroke="none" /><path d="M 120.35273937422433 105.17358676015961 l 5.769416981645086 1.4665632356045732 a26.95289677653843,26.95289677653843 0 0,0 -0.11783616413669072,0.44744310856803454 l -5.743391336703665 -1.565386848545411" fill="#ff4a06" stroke="none" /><path d="M 120.16314734710363 105.8691983318838 l 3.2771850087306498 0.9539407938354165 a24.41320152050714,24.41320152050714 0 0,0 -0.12058224296190401,0.40137906957108993 l -3.2603264457651164 -1.01005746699723" fill="#ff2703" stroke="none" /><path d="M 119.83427380445688 106.89939002012753 l 27.214872171316745 9.466745256669642 a49.81438066410222,49.81438066410222 0 0,0 -0.2878792746077013,0.8052495669046115 l -27.0483527266651 -9.932529779955175" fill="#98ff23" stroke="none" /><path d="M 119.31412917781788 108.2440532568976 l 3.0887383621527116 1.3183987390668652 a24.358344816275856,24.358344816275856 0 0,0 -0.16745331817228157,0.3831659623949928 l -3.0656511619634648 -1.3712267712377029" fill="#ff2603" stroke="none" /><path d="M 119.0197475246899 108.90220220490707 l 9.93207405996948 4.6487121598845835 a31.966157936040197,31.966157936040197 0 0,0 -0.23688558181796304,0.4949997579910784 l -9.850809220191604 -4.818524419940765" fill="#ff8e0d" stroke="none" /><path d="M 118.8641267826498 109.22738970284198 l 4.20251175927315 2.0556590920103135 a25.67833724622261,25.67833724622261 0 0,0 -0.19708745837736033,0.39430694040908365 l -4.166604387684057 -2.1274978885831426" fill="#ff3805" stroke="none" /><line stroke="#e1ed5e" stroke-width="0.3" x1="174.33088141563837" x2="178.70328620479359" y1="141.23008692659167" y2="143.65538615756765" /><path d="M 175.20536237346943 141.71514677278685 a86.0,86.0 0 0,1 -30.301960400862466,31.631185727798858" fill="none" id="id125" stroke="none" /><text fill="#e1ed5e" style="font-size:6.75px; font-family:Arial;" text-anchor="middle"><textPath startOffset="22.145653131862474" xlink:href="#id125">May</textPath></text><path d="M 118.36410011445183 110.18625677009912 l 6.881288043051411 3.816934479701123 a28.868997010659847,28.868997010659847 0 0,0 -0.24410336449479797,0.43130725552967575 l -6.8147513135352344 -3.9344985053299215" fill="#ff6509" stroke="none" /><path d="M 118.18653347947321 110.5 l 10.333260034756165 5.965910462672871 a32.93182092534575,32.93182092534575 0 0,0 -0.28686170574021214,0.4871538903059379 l -10.229324618886189 -6.142415521272358" fill="#ff9b0e" stroke="none" /><path d="M 118.00360718960297 110.81064883170644 l 12.001700833164323 7.206676513441491 a34.99917887799732,34.99917887799732 0 0,0 -0.313712699171183,0.5124261176715023 l -11.876220169537735 -7.411639747237551" fill="#ffb610" stroke="none" /><path d="M 117.21940702142032 112.02048342749411 l 2.7559808269846604 1.9238886574926952 a24.361067967943537,24.361067967943537 0 0,0 -0.24231710867565798,0.34084935955521134 l -2.722548619779042 -1.9709152437574105" fill="#ff2603" stroke="none" /><path d="M 117.01052211995028 112.31430620078461 l 2.7053783451184987 1.9584852890370015 a24.339870748638404,24.339870748638404 0 0,0 -0.24791662841544823,0.3363465202126606 l -2.6713596971192226 -2.0046381185185393" fill="#ff2603" stroke="none" /><path d="M 116.79662413953412 112.60449989151573 l 5.248978915919629 3.938931634515484 a27.562542348903786,27.562542348903786 0 0,0 -0.2872384710545638,0.37600437908921913 l -5.180588467510761 -4.02845692684558" fill="#ff5307" stroke="none" /><path d="M 116.1254893667686 113.45245675266167 l 8.73534831527318 7.287338248029665 a32.37592233317115,32.37592233317115 0 0,0 -0.3596894615142978,0.4237132812375563 l -8.608964290251768 -7.436218311716779" fill="#ff940d" stroke="none" /><path d="M 115.89218393027572 113.72728997021213 l 6.137466225981273 5.301397148187088 a29.11007419188425,29.11007419188425 0 0,0 -0.3298988373815796,0.3753643182459332 l -6.045556324641107 -5.4059737442443145" fill="#ff6809" stroke="none" /><path d="M 115.41159269507618 114.26474011684316 l 2.4597834896002873 2.276738875538796 a24.351727125393687,24.351727125393687 0 0,0 -0.28658987130892977,0.30434851186480066 l -2.4203377845550977 -2.318628847348094" fill="#ff2603" stroke="none" /><path d="M 115.16444852881244 114.52719865689866 l 2.452975404764613 2.3498949492159715 a24.396924286576144,24.396924286576144 0 0,0 -0.29231372199176126,0.299939630196927 l -2.4122748816220443 -2.3916572714806357" fill="#ff2603" stroke="none" /><path d="M 114.65682725009322 115.03919595460226 l 8.42486687761043 8.64465560669111 a33.070975621868904,33.070975621868904 0 0,0 -0.4099659463642855,0.39273810281209415 l -8.275228445380833 -8.788005839808784" fill="#ff9d0e" stroke="none" /><path d="M 113.86319453409587 115.77377054828091 l 2.2998430507138763 2.61679921534658 a24.4838077144635,24.4838077144635 0 0,0 -0.3180802456212449,0.27475014035804446 l -2.254583325329776 -2.655893488169342" fill="#ff2803" stroke="none" /><path d="M 113.31354834802062 116.24036423190432 l 2.140998357348515 2.6116698745018057 a24.377083578999684,24.377083578999684 0 0,0 -0.3258974969423707,0.2625199544634087 l -2.095850090050892 -2.648038122758618" fill="#ff2603" stroke="none" /><path d="M 112.45986205192187 116.90419585922612 l 14.486089071549921 19.65316195951816 a45.41502716762629,45.41502716762629 0 0,0 -0.6315262070156681,0.4571762719669975 l -14.146581854160287 -19.89893900285824" fill="#c9ff1d" stroke="none" /><path d="M 111.27062007382361 117.71928675628689 l 1.833221536516339 2.882128745407505 a24.415752817030466,24.415752817030466 0 0,0 -0.3555815730500707,0.2219092002826789 l -1.7834758346765531 -2.9131737425317312" fill="#ff2703" stroke="none" /><line stroke="#e1ed5e" stroke-width="0.3" x1="143.1302829299769" x2="145.66735839644613" y1="173.24464959558577" y2="177.55315839532614" /><path d="M 143.63769802327073 174.10635135553383 a86.0,86.0 0 0,1 -40.68552437913181,11.842963189579606" fill="none" id="id126" stroke="none" /><text fill="#e1ed5e" style="font-size:6.75px; font-family:Arial;" text-anchor="middle"><textPath startOffset="21.407464694133747" xlink:href="#id126">June</textPath></text><path d="M 110.65571695917076 118.09573695890943 l 2.1524551102207745 3.655339348789035 a25.242000560622426,25.242000560622426 0 0,0 -0.37527346196658873,0.21666423428613363 l -2.089389180393787 -3.691750480351341" fill="#ff3204" stroke="none" /><path d="M 109.71004243097381 118.62028667847754 l 4.060555966531506 7.78665147019717 a29.781802541372606,29.781802541372606 0 0,0 -0.4553393373493332,0.2324995100717979 l -3.926289407468591 -7.855208931941805" fill="#ff710a" stroke="none" /><path d="M 109.06512990194946 118.94263497670748 l 2.975909242575287 6.218505759502793 a27.89389945538912,27.89389945538912 0 0,0 -0.4336987136341902,0.2029928967126289 l -2.8687218150695903 -6.268674887785955" fill="#ff5708" stroke="none" /><path d="M 108.4095320186766 119.2426549942271 l 0.6189784228395282 1.4163437648039612 a22.545692061194586,22.545692061194586 0 0,0 -0.3559695568333614,0.15194223655389333 l -0.5945737908357357 -1.4267606510172584" fill="#ff0c01" stroke="none" /><path d="M 108.07796709384702 119.3841803445677 l 2.530857768453777 6.0731373178687535 a27.57937975236518,27.57937975236518 0 0,0 -0.43857194435414454,0.17836339171477433 l -2.4262313629091916 -6.1156879661628185" fill="#ff5307" stroke="none" /><path d="M 107.407793817531 119.65005319985036 l 1.999900626337603 5.304974013848291 a26.669422528162034,26.669422528162034 0 0,0 -0.4297724715547548,0.15781840452392198 l -1.908539003128721 -5.3385232673809355" fill="#ff4606" stroke="none" /><path d="M 107.06938296918513 119.77432235084164 l 2.4288566072598075 6.793944210588331 a28.215055256560156,28.215055256560156 0 0,0 -0.45747921220426185,0.1591350176071817 l -2.311871623010524 -6.834637660764104" fill="#ff5c08" stroke="none" /><path d="M 106.72888874123015 119.89276391827305 l 2.1157745556022927 6.254911525137068 a27.60306142311478,27.60306142311478 0 0,0 -0.45016290041570417,0.14797748673798714 l -2.008088917538854 -6.290309933277074" fill="#ff5307" stroke="none" /><path d="M 106.0420521117495 120.11202640906438 l 2.3853123974347032 7.939929190247336 a29.290487969926584,29.290487969926584 0 0,0 -0.4827909115831944,0.14053339809173018 l -2.2486614734699018 -7.979706282641585" fill="#ff6a09" stroke="none" /><path d="M 105.69591212413111 120.21278271476187 l 0.9136445222071423 3.2422020922105625 a24.36847453897067,24.36847453897067 0 0,0 -0.40360993692873,0.11000568308359406 l -0.8578531843437172 -3.2574082694382986" fill="#ff2603" stroke="none" /><path d="M 105.3480935250658 120.30758222061773 l 1.7096504668537145 6.491821293219082 a27.71316977454807,27.71316977454807 0 0,0 -0.46108737272252404,0.11720660707791855 l -1.597957800905793 -6.5202131321322705" fill="#ff5507" stroke="none" /><path d="M 104.9986988182912 120.39639698878246 l 0.7882035770823392 3.216139569626145 a24.311316748702914,24.311316748702914 0 0,0 -0.40619330225547595,0.09586051332527223 l -0.7328781210869841 -3.2291962265976424" fill="#ff2503" stroke="none" /><path d="M 104.29559338865022 120.5559693870025 l 2.7281031122655444 13.054960976634284 a34.33696189889575,34.33696189889575 0 0,0 -0.5780112717832959,0.11561844250644077 l -2.50359535495129 -13.099868815803587" fill="#ffad10" stroke="none" /><path d="M 102.875027216393 120.80226474461374 l 0.46351156568917223 3.3537387912986607 a24.385617647016424,24.385617647016424 0 0,0 -0.41516186360476465,0.05375101507370844 l -0.40587188019363224 -3.361201402572764" fill="#ff2603" stroke="none" /><path d="M 102.51750503828377 120.84855314841334 l 0.7477833573020747 6.192718914612152 a27.23770370447756,27.23770370447756 0 0,0 -0.4646805409594868,0.05206842384536735 l -0.6413669147417886 -6.204643098964491" fill="#ff4e07" stroke="none" /><path d="M 102.15924093988457 120.88869738790638 l 0.43406988261066765 4.199232357803949 a25.22160740214167,25.22160740214167 0 0,0 -0.43104980517906555,0.04082086471125046 l -0.3619205140465868 -4.206064978020383" fill="#ff3204" stroke="none" /><path d="M 101.08105385017728 120.97215588758144 l 0.6156686206022042 11.943806762488517 a32.95966420222828,32.95966420222828 0 0,0 -0.5652962849947446,0.024276254797883617 l -0.41054657500663005 -11.952615585712232" fill="#ff9b0e" stroke="none" /><line stroke="#e1ed5e" stroke-width="0.3" x1="101.45913802915013" x2="101.54496967792366" y1="184.9874750549273" y2="189.98673829345242" /><path d="M 101.47630435890484 185.9873277026323 a86.0,86.0 0 0,1 -42.54439059252881,-10.42667462771756" fill="none" id="id127" stroke="none" /><text fill="#e1ed5e" style="font-size:6.75px; font-family:Arial;" text-anchor="middle"><textPath startOffset="22.145653131862474" xlink:href="#id127">July</textPath></text><path d="M 100.36049292484886 120.99690560180557 l 0.07783427732042535 4.533456444857932 a25.534124558517323,25.534124558517323 0 0,0 -0.438327202169277,0.0037625118538262914 l -5.552701127523646e-16 -4.534124558517323" fill="#ff3605" stroke="none" /><path d="M 100.0 121.0 l 9.841153415224656e-16 8.035911596777495 a29.035911596777495,29.035911596777495 0 0,0 -0.4984400331988107,-0.004278508210420951 l 0.13794710834995755 -8.03472748676151" fill="#ff6709" stroke="none" /><path d="M 99.27912038922189 120.98762331915562 l -0.1451011115023717 4.224460542191641 a25.22695176280654,25.22695176280654 0 0,0 -0.4326713411203893,-0.018580769057911093 l 0.21759821322359976 -4.221347204707901" fill="#ff3204" stroke="none" /><path d="M 98.91894614982273 120.97215588758144 l -0.18073755849923803 3.506260350458348 a24.51091550884503,24.51091550884503 0 0,0 -0.4200186371553475,-0.025267278212980204 l 0.24090054778703188 -3.502641094420676" fill="#ff2803" stroke="none" /><path d="M 98.55909050195518 120.95050786540614 l -0.23120174359669907 3.3616226100881637 a24.369563891499627,24.369563891499627 0 0,0 -0.41710365935289617,-0.032286461181820464 l 0.28887439772483137 -3.35715838191129" fill="#ff2603" stroke="none" /><path d="M 97.48249496171623 120.84855314841334 l -0.40787136503696403 3.377760005392504 a24.40229653387918,24.40229653387918 0 0,0 -0.41544581941234343,-0.053787778837992926 l 0.46579500634010146 -3.3702606303541143" fill="#ff2603" stroke="none" /><path d="M 97.12497278360702 120.80226474461374 l -0.7814878888643434 5.6544570660660085 a26.708205325005878,26.708205325005878 0 0,0 -0.4536260149383209,-0.06666740272618484 l 0.8784390094103492 -5.640208590040941" fill="#ff4706" stroke="none" /><path d="M 96.76829788921471 120.74984581791261 l -1.0337368896153787 6.637332384139647 a27.71735015720489,27.71735015720489 0 0,0 -0.46950880984159454,-0.07725749599037704 l 1.1475232025100368 -6.6186088896536015" fill="#ff5507" stroke="none" /><path d="M 96.05791012581884 120.62667999033965 l -1.6849241732191258 8.816235255467767 a29.975799326480676,29.975799326480676 0 0,0 -0.5045976386156981,-0.10093365980421139 l 1.836018297365782 -8.786012199000695" fill="#ff740a" stroke="none" /><path d="M 95.35216902796893 120.47920084513623 l -2.9613938062248724 13.048447524054264 a34.380277876918136,34.380277876918136 0 0,0 -0.5744254310713546,-0.13556283765348157 l 3.184951391036115 -12.995688542754555" fill="#ffae10" stroke="none" /><path d="M 94.30408787586889 120.21278271476187 l -1.3104919903759478 4.650473756202053 a25.831593465303506,25.831593465303506 0 0,0 -0.42577844963064393,-0.12393790132586913 l 1.3901304523881983 -4.627292160573668" fill="#ff3b05" stroke="none" /><path d="M 93.95794788825049 120.11202640906438 l -0.9606072158910852 3.1975490011365 a24.338725181546252,24.338725181546252 0 0,0 -0.399108000010881,-0.12364467860969476 l 1.0153558487735999 -3.1805877347201563" fill="#ff2603" stroke="none" /><path d="M 93.61358852112213 120.00534299687104 l -2.7211752880504663 8.52404283252102 a29.94785455620226,29.94785455620226 0 0,0 -0.48840282103484284,-0.16054770818683434 l 2.8671008467330523 -8.476074202932166" fill="#ff730a" stroke="none" /><path d="M 93.27111125876986 119.89276391827306 l -2.4513166840921534 7.246882206088392 a28.650245433620356,28.650245433620356 0 0,0 -0.46453539045910486,-0.16158952268821802 l 2.57535784659628 -7.203734250831583" fill="#ff6209" stroke="none" /><path d="M 92.59220618246901 119.65005319985036 l -1.169851126965553 3.1031691009510007 a24.316354946075528,24.316354946075528 0 0,0 -0.38932538132968,-0.15059942116008065 l 1.2229487707887612 -3.0826297916528795" fill="#ff2503" stroke="none" /><path d="M 91.92203290615298 119.3841803445677 l -2.1656135959124954 5.196684266242017 a26.629867636970552,26.629867636970552 0 0,0 -0.4204538124415957,-0.17946673080218853 l 2.254502483524522 -5.158742885780425" fill="#ff4606" stroke="none" /><path d="M 91.59046798132341 119.24265499422711 l -1.3624529486980488 3.117558977055867 a24.402271595983724,24.402271595983724 0 0,0 -0.3824028820054702,-0.17104394515275198 l 1.415769233559154 -3.09371128099326" fill="#ff2603" stroke="none" /><path d="M 91.26138138417905 119.09545874513695 l -1.3806049267131948 3.0168709243878506 a24.317767342367688,24.317767342367688 0 0,0 -0.3780964519395407,-0.1769682307167529 l 1.4321900925242255 -2.9927264621005714" fill="#ff2503" stroke="none" /><path d="M 89.97174638481275 118.45085714620012 l -1.997393240360848 3.674978591174732 a25.182708142128952,25.182708142128952 0 0,0 -0.37804738570356133,-0.20969651211009555 l 2.060184814220512 -3.6401491636314884" fill="#ff3204" stroke="none" /><line stroke="#e1ed5e" stroke-width="0.3" x1="58.13341422392154" x2="55.67067388415222" y1="173.97424548756322" y2="178.32567169271397" /><path d="M 57.64086615596768 174.84453072859336 a86.0,86.0 0 0,1 -31.369924170532247,-30.572349798747897" fill="none" id="id128" stroke="none" /><text fill="#e1ed5e" style="font-size:6.75px; font-family:Arial;" text-anchor="middle"><textPath startOffset="22.145653131862474" xlink:href="#id128">August</textPath></text><path d="M 89.65649057296885 118.27599006163327 l -1.6343051698819004 2.887660639084515 a24.3180622891713,24.3180622891713 0 0,0 -0.3615372482723453,-0.2087336276121167 l 1.6836348860146453 -2.859180114196227" fill="#ff2503" stroke="none" /><path d="M 89.03521579738668 117.91015095944536 l -3.449597330061432 5.634657991351505 a27.606745978094537,27.606745978094537 0 0,0 -0.40205396226150675,-0.2509114082336582 l 3.5458154211126516 -5.574610786276299" fill="#ff5307" stroke="none" /><path d="M 87.83215693770417 117.11559508785305 l -5.069373965472711 7.1307093375318376 a29.749032406968,29.749032406968 0 0,0 -0.41368011361120466,-0.2994725001538436 l 5.191035089457869 -7.0426360660049285" fill="#ff710a" stroke="none" /><path d="M 87.54013794807813 116.9041958592261 l -1.9277299755266442 2.615335943063447 a24.24901907560167,24.24901907560167 0 0,0 -0.33295867487121683,-0.24985839692724512 l 1.9723416393086273 -2.581858518872187" fill="#ff2403" stroke="none" /><path d="M 87.2517909369889 116.68781488649013 l -2.0637996838435595 2.7015800350110846 a24.39967701710078,24.39967701710078 0 0,0 -0.3306621634847266,-0.25712489831793833 l 2.109871791963515 -2.665754085072353" fill="#ff2603" stroke="none" /><path d="M 86.96720088162412 116.46651593811092 l -4.874436042923581 6.158690704971591 a28.854272591147826,28.854272591147826 0 0,0 -0.3857530858059064,-0.3107353798970528 l 4.97943989908475 -6.074107031281128" fill="#ff6409" stroke="none" /><path d="M 86.40962598614128 116.0094264158162 l -4.34985173880543 5.124114410766179 a27.721440220980192,27.721440220980192 0 0,0 -0.36014179727669154,-0.3110819068858298 l 4.4371730158449845 -5.0486883714156265" fill="#ff5507" stroke="none" /><path d="M 85.86807049272751 115.53346607816431 l -6.820692414222691 7.497135772676895 a31.135526123659616,31.135526123659616 0 0,0 -0.39226348889507484,-0.36307322916742923 l 6.948385674431733 -7.3789447973770885" fill="#ff830c" stroke="none" /><path d="M 85.60350026404147 115.28858382429668 l -4.738372832273239 5.031987744634666 a27.91180712692264,27.91180712692264 0 0,0 -0.34601006496945574,-0.33146981517641416 l 4.824055383108009 -4.94990579915267" fill="#ff5808" stroke="none" /><path d="M 84.83555147118756 114.52719865689866 l -5.1594663797971645 4.9426520799944225 a28.14492147669451,28.14492147669451 0 0,0 -0.33123110251982346,-0.35175595241667645 l 5.243553316053241 -4.853354667633257" fill="#ff5b08" stroke="none" /><path d="M 84.3458050057657 113.99807769240083 l -2.79106877802511 2.4957909118942045 a24.744200475343206,24.744200475343206 0 0,0 -0.2804212354439152,-0.3190678897189872 l 2.833501077427618 -2.4475107443639175" fill="#ff2b04" stroke="none" /><path d="M 84.1078160697243 113.72728997021213 l -3.8365876557419436 3.3139530399074824 a26.069683381721536,26.069683381721536 0 0,0 -0.28962851717161553,-0.3411816649676149 l 3.8929107364206716 -3.247604592490313" fill="#ff3e05" stroke="none" /><path d="M 83.8745106332314 113.45245675266167 l -1.0237381388185764 0.8540387659110776 a22.33319990644713,22.33319990644713 0 0,0 -0.24306304167609644,-0.29649738934708764 l 1.0382479997333027 -0.8363390948654947" fill="#ff0901" stroke="none" /><path d="M 83.4222238831116 112.89097897827486 l -7.533720545614565 5.858266663571233 a30.54338690198218,30.54338690198218 0 0,0 -0.31830284897150113,-0.4166686469624104 l 7.633175371940361 -5.728077103367952" fill="#ff7b0b" stroke="none" /><path d="M 83.20337586046588 112.60449989151573 l -9.382910210524562 7.041110746313278 a32.730995037106375,32.730995037106375 0 0,0 -0.3333854159737487,-0.45230134529142296 l 9.502397646082143 -6.879003091752975" fill="#ff980e" stroke="none" /><path d="M 82.78059297857968 112.02048342749411 l -10.71482449173983 7.479779650440188 a34.06730911503691,34.06730911503691 0 0,0 -0.33063177317758813,-0.48240163811635317 l 10.841646001732741 -7.294743277253783" fill="#ffaa0f" stroke="none" /><path d="M 82.37810715431573 111.42229804090323 l -1.2084200558922538 0.7832832805124389 a22.440073515141837,22.440073515141837 0 0,0 -0.20675034399020822,-0.3250458810719739 l 1.2216880915083521 -0.762423724761793" fill="#ff0a01" stroke="none" /><path d="M 82.18462484594161 111.11811171558189 l -1.6864170760874884 1.0524489823462644 a22.987876106542146,22.987876106542146 0 0,0 -0.20605022439911405,-0.33656755628042084 l 1.704235264942007 -1.0233443099412864" fill="#ff1202" stroke="none" /><path d="M 81.99639281039703 110.81064883170644 l -3.589950798250888 2.1556623066852447 a25.187436771382433,25.187436771382433 0 0,0 -0.21940211237761867,-0.37259275270046716 l 3.6264266207582767 -2.0937183856912185" fill="#ff3204" stroke="none" /><line stroke="#e1ed5e" stroke-width="0.3" x1="26.387840678322732" x2="22.057713659400548" y1="142.50000000000003" y2="145.00000000000006" /><path d="M 25.521815274538298 143.00000000000003 a86.0,86.0 0 0,1 -11.493303480769221,-40.785679425670985" fill="none" id="id129" stroke="none" /><text fill="#e1ed5e" style="font-size:6.75px; font-family:Arial;" text-anchor="middle"><textPath startOffset="21.40746469413373" xlink:href="#id129">September</textPath></text><path d="M 81.81346652052679 110.50000000000001 l -4.482979455471084 2.588249395387795 a26.176498790775586,26.176498790775586 0 0,0 -0.22133680027618954,-0.39108091800544625 l 4.526749620768651 -2.5109117072832277" fill="#ff3f06" stroke="none" /><path d="M 81.4637452351635 109.86951160357371 l -2.9322135990613423 1.561238583912387 a24.321948600809023,24.321948600809023 0 0,0 -0.19306059897908986,-0.3702191545365611 l 2.958582267015381 -1.510673186271323" fill="#ff2503" stroke="none" /><path d="M 81.29705330413844 109.54985784667822 l -1.2540026771970503 0.6403027020996434 a22.408016429141888,22.408016429141888 0 0,0 -0.17198695394294825,-0.3440891173789294 l 1.2648095443517353 -0.6186817285569611" fill="#ff0a01" stroke="none" /><path d="M 81.1358732173502 109.22738970284198 l -9.672724518182388 4.731414268249839 a31.767909759207907,31.767909759207907 0 0,0 -0.23541646141859468,-0.4919298613913506 l 9.752520237560896 -4.564671904793385" fill="#ff8c0c" stroke="none" /><path d="M 80.83023694016515 108.57439118712176 l -4.655998271448605 2.082568804911825 a26.100530632289573,26.100530632289573 0 0,0 -0.17943010879432655,-0.4105712031820276 l 4.6910622622599 -2.002335531953948" fill="#ff3e05" stroke="none" /><path d="M 80.68587082218212 108.24405325689762 l -1.2181976312120713 0.5199761302556168 a22.32453034873736,22.32453034873736 0 0,0 -0.1474207329633691,-0.35375609247863277 l 1.226944208711926 -0.4989875283357028" fill="#ff0901" stroke="none" /><path d="M 80.5471966667186 107.91128576633889 l -1.154052219858184 0.4693429910410636 a22.245840828275817,22.245840828275817 0 0,0 -0.14082816934303213,-0.3549789825135316 l 1.1619390641673406 -0.4494629913139666" fill="#ff0801" stroke="none" /><path d="M 80.41425534168474 107.57618678355246 l -3.114128544502679 1.2046118201141767 a24.33899479317431,24.33899479317431 0 0,0 -0.14738920592818958,-0.390967379615583 l 3.1343484342453043 -1.1509761603044488" fill="#ff2603" stroke="none" /><path d="M 80.28708602549918 107.23885506374661 l -1.1884913195873412 0.43643047487257985 a22.26608971883195,22.26608971883195 0 0,0 -0.12867661247922615,-0.35993138655379064 l 1.1958081021105105 -0.41596413193786774" fill="#ff0801" stroke="none" /><path d="M 80.16572619554312 106.89939002012753 l -10.901353952273551 3.792056790468082 a32.5420627573621,32.5420627573621 0 0,0 -0.17900393621820235,-0.5291933305140907 l 10.964843310064122 -3.60436178547983" fill="#ff960d" stroke="none" /><path d="M 79.83685265289637 105.86919833188381 l -6.351913351166184 1.8489494027473978 a27.615543599330532,27.615543599330532 0 0,0 -0.12858521406299317,-0.45630356219424006 l 6.3827170573037515 -1.739637916650162" fill="#ff5307" stroke="none" /><path d="M 79.73907114497094 105.5222062557868 l -4.959510420491397 1.351736619068156 a26.140421723778367,26.140421723778367 0 0,0 -0.11428408049730183,-0.43395526842027843 l 4.981983981793431 -1.2664008462750749" fill="#ff3f05" stroke="none" /><path d="M 79.48165901384964 104.47187691870673 l -6.526062467404752 1.4223249402924087 a27.679258908310622,27.679258908310622 0 0,0 -0.09719675783732681,-0.46512167187402886 l 6.549516936066445 -1.310086817132971" fill="#ff5407" stroke="none" /><path d="M 79.34024301695615 103.76489593502545 l -6.617667905865023 1.2059595385651474 a27.726653471152815,27.726653471152815 0 0,0 -0.08131195306431052,-0.46898573746428157 l 6.637394676421568 -1.092180768180273" fill="#ff5507" stroke="none" /><path d="M 79.0935383218832 101.97986365728391 l -8.390263374513912 0.7945666648904076 a29.427802541508946,29.427802541508946 0 0,0 -0.04330984612020275,-0.5033260616616674 l 8.402666843331856 -0.6504195558530782" fill="#ff6c0a" stroke="none" /><path d="M 79.03789590574601 101.26102812881392 l -7.845474043540919 0.4719642364287505 a28.859657321304923,28.859657321304923 0 0,0 -0.025504255652924045,-0.494775746150072 l 7.852419888650416 -0.33721669690194767" fill="#ff6509" stroke="none" /><line stroke="#e1ed5e" stroke-width="0.3" x1="15.003131293944662" x2="10.003315487706104" y1="100.72959589197737" y2="100.7725132973878" /><path d="M 14.003168132696942 100.73817937305945 a86.0,86.0 0 0,1 10.791469493833604,-42.45332614584628" fill="none" id="id130" stroke="none" /><text fill="#e1ed5e" style="font-size:6.75px; font-family:Arial;" text-anchor="middle"><textPath startOffset="22.145653131862435" xlink:href="#id130">October</textPath></text><path d="M 79.00077361379809 99.81974689727619 l -11.643673468685813 -0.09994693286475759 a32.64410242289061,32.64410242289061 0 0,0 0.00962001241639098,-0.5603174949406214 l 11.640242024670757 0.2998113437744314" fill="#ff970d" stroke="none" /><path d="M 79.00696218219943 99.45929381324524 l -5.999649002675284 -0.15452967608874799 a27.001638740885245,27.001638740885245 0 0,0 0.015912082429353495,-0.4632629183258674 l 5.99611223324908 0.2574988589787539" fill="#ff4b07" stroke="none" /><path d="M 79.03789590574601 98.7389718711861 l -1.8851619021021093 -0.11340665876049776 a22.888569953003717,22.888569953003717 0 0,0 0.02696059786826928,-0.39200117596673906 l 1.8829373430687764 0.14575125888156176" fill="#ff1101" stroke="none" /><path d="M 79.0935383218832 98.0201363427161 l -16.66713240476787 -1.578394767483736 a37.74170339720792,37.74170339720792 0 0,0 0.06661879279053151,-0.6444763885513518 l 16.637581219495676 1.8642756783180006" fill="#ffd914" stroke="none" /><path d="M 79.22317932658666 96.9465228501225 l -3.4802786225665447 -0.5114811075408 a24.517662890907093,24.517662890907093 0 0,0 0.0647715882592617,-0.41588006062675414 l 3.4709855421690157 0.5711493500990042" fill="#ff2803" stroke="none" /><path d="M 79.34024301695615 96.23510406497455 l -0.7165731878300956 -0.13058350513144695 a21.728374344227884,21.728374344227884 0 0,0 0.0700209359311956,-0.3663791248231919 l 0.7142259596167407 0.1428651949879534" fill="#ff0000" stroke="none" /><path d="M 79.407916724674 95.88100663000787 l -21.053782560286006 -4.211346157626741 a42.47084526876296,42.47084526876296 0 0,0 0.14913796920679478,-0.7136791712071127 l 20.978386880254845 4.572141780119263" fill="#ecff1a" stroke="none" /><path d="M 79.56144815229197 95.17655741523228 l -11.058564385927967 -2.6097910841693097 a32.36234376265408,32.36234376265408 0 0,0 0.13224251266681883,-0.5395945795487209 l 11.012134346744851 2.7992414883261483" fill="#ff930d" stroke="none" /><path d="M 79.64726062577567 94.8264132398404 l -6.626601307321069 -1.6844561391981734 a27.83734139641072,27.83734139641072 0 0,0 0.12170289364859871,-0.4621257103437767 l 6.596708932867744 1.7979623539147345" fill="#ff5708" stroke="none" /><path d="M 79.73907114497095 94.47779374421319 l -3.2701856123905553 -0.8913036305265313 a24.389474310461132,24.389474310461132 0 0,0 0.11356378931357775,-0.40299782504290643 l 3.2544033310023956 0.9473093794724509" fill="#ff2603" stroke="none" /><path d="M 79.94057633289273 93.78553927170692 l -13.346998027621474 -4.134934106769382 a34.97283208289058,34.97283208289058 0 0,0 0.1825836374039032,-0.571940643655991 l 13.274049674440313 4.363443784116765" fill="#ffb510" stroke="none" /><path d="M 80.28708602549916 92.7611449362534 l -20.41000612658076 -7.494836957722759 a42.74260635503276,42.74260635503276 0 0,0 0.2588356201027743,-0.6865922338441844 l 20.27833982266355 7.8440974717610885" fill="#e9ff1a" stroke="none" /><path d="M 80.5471966667186 92.08871423366112 l -7.991602584168695 -3.2501151988825367 a29.627222071402766,29.627222071402766 0 0,0 0.19564428568961817,-0.46947506385367144 l 7.934632453942598 3.386822772177472" fill="#ff6f0a" stroke="none" /><path d="M 80.9802524753101 91.09779779509293 l -16.553202095566558 -7.747734400897497 a39.276648707121325,39.276648707121325 0 0,0 0.29106005793573136,-0.6082035771589196 l 16.417762779670923 8.030750480121503" fill="#ffec16" stroke="none" /><path d="M 81.29705330413844 90.45014215332179 l -7.5154488659087235 -3.8374417406262706 a29.438479173926396,29.438479173926396 0 0,0 0.2336741399972765,-0.44810097453504305 l 7.448466656936508 3.9658889582658" fill="#ff6c0a" stroke="none" /><path d="M 81.46374523516351 90.13048839642627 l -8.845432900179144 -4.709694798355937 a31.021123104983424,31.021123104983424 0 0,0 0.25430621917512336,-0.4678948001758238 l 8.76328133138867 4.86084443200638" fill="#ff820b" stroke="none" /><line stroke="#e1ed5e" stroke-width="0.3" x1="26.387840678322718" x2="22.05771365940052" y1="57.49999999999999" y2="54.99999999999999" /><path d="M 25.521815274538284 56.99999999999999 a86.0,86.0 0 0,1 29.574782752854787,-30.34633250058573" fill="none" id="id131" stroke="none" /><text fill="#e1ed5e" style="font-size:6.75px; font-family:Arial;" text-anchor="middle"><textPath startOffset="21.40746469413373" xlink:href="#id131">November</textPath></text><path d="M 81.99639281039701 89.18935116829357 l -12.437923997069086 -7.46861598965676 a35.50800393430549,35.50800393430549 0 0,0 0.3182735170800112,-0.5198758709667923 l 12.307882515533683 7.681028976748095" fill="#ffbc11" stroke="none" /><path d="M 82.18462484594161 88.88188828441811 l -5.579418678691898 -3.481969907525053 a27.576779396410227,27.576779396410227 0 0,0 0.25407709214957375,-0.3994513899424256 l 5.5188238949164345 3.577234972146151" fill="#ff5307" stroke="none" /><path d="M 82.78059297857968 87.97951657250589 l -8.955289517684438 -6.251487586176966 a31.921460863166313,31.921460863166313 0 0,0 0.31751958129437335,-0.44663105515709695 l 8.846654837860092 6.404295868043583" fill="#ff8e0d" stroke="none" /><path d="M 82.98947788004972 87.6856937992154 l -3.2130534660055896 -2.326002925770318 a24.966610919425122,24.966610919425122 0 0,0 0.2543003644524577,-0.34500728417887017 l 3.1726510819693132 2.3808165192180515" fill="#ff2e04" stroke="none" /><path d="M 83.42222388311158 87.10902102172516 l -7.372915072925477 -5.733223355384989 a30.339685579038708,30.339685579038708 0 0,0 0.3232383879910033,-0.40840114386159754 l 7.273410254292912 5.858944443161269" fill="#ff790b" stroke="none" /><path d="M 83.8745106332314 86.54754324733833 l -2.8630725339010126 -2.3884769364835075 a24.728539447356297,24.728539447356297 0 0,0 0.274728699504619,-0.323629717220952 l 2.821649270889279 2.437273436154016" fill="#ff2b04" stroke="none" /><path d="M 84.34580500576568 86.00192230759919 l -6.390520677074001 -5.714442995345557 a29.572841610059307,29.572841610059307 0 0,0 0.3416399698685583,-0.3755221733994188 l 6.291483006363577 5.823302744302634" fill="#ff6e0a" stroke="none" /><path d="M 84.83555147118756 85.47280134310135 l -1.8143764095421653 -1.7381315574865588 a23.51258095722979,23.51258095722979 0 0,0 0.28171789084996735,-0.2890673740036731 l 1.7842717175413954 1.769021623557962" fill="#ff1a02" stroke="none" /><path d="M 85.08716467003674 85.21462403516908 l -17.26270685488321 -17.115163238427655 a45.309048945519386,45.309048945519386 0 0,0 0.5523563152990157,-0.5476353495190602 l 16.96635861945422 17.408978598175388" fill="#cbff1d" stroke="none" /><path d="M 85.60350026404147 84.71141617570332 l -2.6991097143149045 -2.866360981843854 a24.937158687193843,24.937158687193843 0 0,0 0.3141728465071958,-0.29079369639880415 l 2.6495070964937555 2.9122724243750238" fill="#ff2e04" stroke="none" /><path d="M 85.86807049272753 84.46653392183569 l -3.482823364688429 -3.8282329786449223 a26.175463875673774,26.175463875673774 0 0,0 0.3349648848816412,-0.2995276655571413 l 3.416593452983396 3.8874561740854645" fill="#ff3f05" stroke="none" /><path d="M 86.96720088162412 83.53348406188908 l -39.09839735512763 -49.399547814332756 a84.0,84.0 0 0,0 1.1383602214590214,-0.8851957935167807 l 38.244627189033366 50.06344465947034" fill="#4dd2ff" stroke="none" /><path d="M 88.4268655584334 82.4767994020092 l -1.631312884178708 -2.470015625575063 a23.960094410094452,23.960094410094452 0 0,0 0.3451558481681757,-0.22372585072795856 l 1.5886714037535061 2.497655318006928" fill="#ff2003" stroke="none" /><path d="M 89.03521579738668 82.08984904055464 l -0.4107950743646161 -0.6710028815262328 a21.786763916393436,21.786763916393436 0 0,0 0.3206464317701751,-0.19253896935770268 l 0.39921588603700675 0.6779558514198589" fill="#ff0100" stroke="none" /><line stroke="#e1ed5e" stroke-width="0.3" x1="56.869717070023135" x2="54.33264160355391" y1="26.7553504044142" y2="22.446841604673864" /><path d="M 56.362301976729285 25.89364864446614 a86.0,86.0 0 0,1 42.16139366436587,-11.88097634709845" fill="none" id="id132" stroke="none" /><text fill="#e1ed5e" style="font-size:6.75px; font-family:Arial;" text-anchor="middle"><textPath startOffset="22.145653131862474" xlink:href="#id132">December</textPath></text><path d="M 89.65649057296885 81.72400993836675 l -2.1964630696582415 -3.880939783059724 a25.45938825581583,25.45938825581583 0 0,0 0.3822009577922003,-0.21200042853095788 l 2.1295179237099386 3.918073127023828" fill="#ff3505" stroke="none" /><path d="M 90.28995756902619 81.37971332152246 l -1.5829955411959389 -3.035602676029084 a24.423559330603336,24.423559330603336 0 0,0 0.373416192853332,-0.19066896876662762 l 1.5306521266290245 3.0623295964685457" fill="#ff2703" stroke="none" /><path d="M 91.5904679813234 80.7573450057729 l -3.307097353280158 -7.5672859393555445 a29.258372078808314,29.258372078808314 0 0,0 0.4619547589974112,-0.19718101708804103 l 3.1767075191123157 7.62294160610299" fill="#ff6a09" stroke="none" /><path d="M 92.25597844496254 80.48000691201159 l -0.5267033437648058 -1.327636494376938 a22.42829796384876,22.42829796384876 0 0,0 0.3590959943098024,-0.1389060448595965 l 0.5038350869614739 1.3364824273745752" fill="#ff0a01" stroke="none" /><path d="M 92.592206182469 80.34994680014964 l -3.5746962581202717 -9.482306524128017 a31.133735261755156,31.133735261755156 0 0,0 0.5017139886717324,-0.18423632610312052 l 3.4113931177944123 9.54227369923986" fill="#ff830c" stroke="none" /><path d="M 93.27111125876988 80.10723608172694 l -4.559068820680341 -13.478076874900717 a35.22826991441451,35.22826991441451 0 0,0 0.5745181636997345,-0.18885553178882972 l 4.3270279193328465 13.554353328091576" fill="#ffb911" stroke="none" /><path d="M 93.61358852112211 79.99465700312896 l -2.551539245666596 -7.992660345854581 a29.390051962078253,29.390051962078253 0 0,0 0.48193998540626587,-0.14930623942164778 l 2.4139586273887144 8.03528317308287" fill="#ff6c09" stroke="none" /><path d="M 94.30408787586887 79.78721728523814 l -1.841033998873525 -6.53318017882802 a27.787624726960054,27.787624726960054 0 0,0 0.46024060494686464,-0.12544062347732846 l 1.7286119929919828 6.563821296449487" fill="#ff5607" stroke="none" /><path d="M 96.41257539226777 79.30868818359171 l -2.45626103318017 -14.16706091341437 a35.378415531188146,35.378415531188146 0 0,0 0.599280871941914,-0.09861143942492555 l 2.2127026581851834 14.207138351334963" fill="#ffbb11" stroke="none" /><path d="M 97.84075906011542 79.11130261209362 l -0.3419956295724372 -3.3084974826880784 a24.32612636615027,24.32612636615027 0 0,0 0.4157455892363151,-0.03937153954973869 l 0.2851504769511065 3.313880777743001" fill="#ff2503" stroke="none" /></svg>