<?xml version="1.0" encoding="utf-8" ?>
<svg baseProfile="full" height="200mm" version="1.1" viewBox="0,0,200,200" width="200mm" xmlns="http://www.w3.org/2000/svg" xmlns:ev="http://www.w3.org/2001/xml-events" xmlns:xlink="http://www.w3.org/1999/xlink"><defs /><rect fill="#1a1a1a" height="200" width="200" x="0" y="0" /><text alignment-baseline="middle" fill="#e1ed5e" style="dominant-baseline: central; font-size:9.0px; font-family:Arial;" text-anchor="middle" x="100.0" y="100.0">2015</text><line stroke="#e1ed5e" stroke-width="0.3" x1="100.0" x2="100.0" y1="15.0" y2="10.0" /><path d="M 100.0 14.0 a86.0,86.0 0 0,1 42.46469731375804,11.215312516191453" fill="none" id="id13" stroke="none" /><text fill="#e1ed5e" style="font-size:6.75px; font-family:Arial;" text-anchor="middle"><textPath startOffset="22.20632615414155" xlink:href="#id13">January</textPath></text><path d="M 100.72285384407766 79.0124445844662 l 1.0545815104415812 -30.619036022186705 a51.637191599265954,51.637191599265954 0 0,0 0.8880592921782616,0.03824170120353985 l -1.5814816350091743 30.59634659445897" fill="#8dff24" stroke="none" /><path d="M 101.80526077348638 79.07773832637324 l 1.273486139333589 -14.759203011661265 a35.814042003670224,35.814042003670224 0 0,0 0.6137416102121656,0.058282161151712655 l -1.527352876635999 14.735095305994374" fill="#ffb110" stroke="none" /><path d="M 102.16513564639614 79.11191278185805 l 0.8076031011637306 -7.791328937209472 a28.8330727927683,28.8330727927683 0 0,0 0.4932285612995337,0.055419975799659675 l -0.9415983659729896 7.776273007939211" fill="#ff5107" stroke="none" /><path d="M 103.2404852339499 79.25152402106235 l 2.6484629197476792 -16.957821222505622 a38.16339291782777,38.16339291782777 0 0,0 0.6481794118302695,0.10695515676750598 l -2.939971537716824 16.90971980279849" fill="#ffd013" stroke="none" /><path d="M 103.59715602781102 79.31037775812273 l 1.7133738491741788 -9.854745644741108 a31.002582749949024,31.002582749949024 0 0,0 0.5249842706806152,0.09593751985187306 l -1.8827532409576948 9.823792643538496" fill="#ff700a" stroke="none" /><path d="M 103.95276090670814 79.375362276772 l 2.772816238573683 -14.467945758270668 a35.73125807109359,35.73125807109359 0 0,0 0.6030646710664028,0.12096909967805117 l -3.021447319107211 14.418072702515408" fill="#ffb010" stroke="none" /><path d="M 107.08798089147638 80.2323363322302 l 2.4116381664331383 -6.725815559087581 a28.145109766872835,28.145109766872835 0 0,0 0.4546342226663879,0.16744562102406602 l -2.5270547148721025 6.683306670257191" fill="#ff4806" stroke="none" /><path d="M 108.76106565485865 80.91482961587045 l 3.8609902607288458 -8.410809812458105 a30.254672738394618,30.254672738394618 0 0,0 0.47142800619060843,0.22134177006591843 l -4.005196478219053 8.343103059752183" fill="#ff6509" stroke="none" /><path d="M 109.08828744355905 81.06846463323043 l 5.829895799110336 -12.144078759707142 a34.470944063073475,34.470944063073475 0 0,0 0.5327053238925482,0.26139618892025235 l -6.038072390013316 12.041927410652058" fill="#ff9f0e" stroke="none" /><path d="M 109.41281617654863 81.2277094730956 l 7.14102182849424 -14.241575943812064 a36.93162509345477,36.93162509345477 0 0,0 0.5658268119106199,0.289838469893227 l -7.385109127993615 14.116544948606336" fill="#ffc011" stroke="none" /><path d="M 109.73455568895987 81.39251694778311 l 4.10541140827812 -7.84744323652592 a29.856453476517366,29.856453476517366 0 0,0 0.4533275278135518,0.24215186563150326 l -4.2398839826199834 7.7756126443926625" fill="#ff6008" stroke="none" /><line stroke="#e1ed5e" stroke-width="0.3" x1="143.23703022742887" x2="145.7803849466894" y1="26.81831364943548" y2="22.513508569990506" /><path d="M 143.74570117128098 25.957352633546492 a86.0,86.0 0 0,1 28.547481713284135,27.462654790039103" fill="none" id="id14" stroke="none" /><text fill="#e1ed5e" style="font-size:6.75px; font-family:Arial;" text-anchor="middle"><textPath startOffset="19.985693538727396" xlink:href="#id14">February</textPath></text><path d="M 110.99172775467656 82.1063720568725 l 7.793495815726625 -12.68716962568518 a35.88968939033508,35.88968939033508 0 0,0 0.5236149265003358,0.3278876189379846 l -8.010729894599224 12.55113766542425" fill="#ffb210" stroke="none" /><path d="M 111.2981086023043 82.29822771554956 l 7.823362362555298 -12.257571945489094 a35.541425949840274,35.541425949840274 0 0,0 0.512867810164184,0.333583490077047 l -8.033197198503762 12.121089531252519" fill="#ffad10" stroke="none" /><path d="M 111.60114157652 82.49532879139004 l 5.3199824792211325 -8.02718797284656 a30.630055053354177,30.630055053354177 0 0,0 0.4369819382882901,0.29505215537759394 l -5.457369111915964 7.934423905170297" fill="#ff6b09" stroke="none" /><path d="M 112.77801427241765 83.33499621200491 l 10.952459592840276 -14.28412715084661 a38.999796098688236,38.999796098688236 0 0,0 0.529222487787924,0.41306654610647897 l -11.196714635787629 14.093482215516905" fill="#ffda14" stroke="none" /><path d="M 113.06298171725822 83.55741782278167 l 5.90954980697823 -7.438444027157286 a30.500169917759806,30.500169917759806 0 0,0 0.40826162414703926,0.33011917403403884 l -6.036714829689761 7.335618755859118" fill="#ff6909" stroke="none" /><path d="M 113.6212207817346 84.01681056812373 l 8.645073041516874 -10.14415978487464 a34.328213144837896,34.328213144837896 0 0,0 0.44644037577289974,0.38714869457374335 l -8.818407215936537 9.993846096881224" fill="#ff9d0e" stroke="none" /><path d="M 114.16331599549186 84.49514656593476 l 9.731323414560398 -10.653066224764865 a35.42866852443417,35.42866852443417 0 0,0 0.4467253387102775,0.4151825164449992 l -9.913256637065523 10.483979122245225" fill="#ffac0f" stroke="none" /><path d="M 114.42810811169701 84.74124197986012 l 30.69098753291519 -32.457918151044495 a65.67049548018758,65.67049548018758 0 0,0 0.8146792606125628,0.7837208032397531 l -31.24515003714017 31.924814261042442" fill="#36ff6c" stroke="none" /><path d="M 117.2510076193507 88.02491185347247 l 13.484934318640144 -9.360802608116167 a37.41548290627337,37.41548290627337 0 0,0 0.36270842499557016,0.5322298578121094 l -13.644067209304447 9.127294727033652" fill="#ffc612" stroke="none" /><path d="M 117.65298651832404 88.62581576622439 l 6.143090530402983 -3.958120252629044 a28.307823013661388,28.307823013661388 0 0,0 0.2603947722187155,0.41188199571019835 l -6.210312898867653 3.8517906092046394" fill="#ff4a06" stroke="none" /><line stroke="#e1ed5e" stroke-width="0.3" x1="172.23445277983987" x2="176.4835382374775" y1="55.19839476539836" y2="52.563006222186495" /><path d="M 173.08426987136738 54.67131705675599 a86.0,86.0 0 0,1 12.851231095245387,41.99856678651699" fill="none" id="id15" stroke="none" /><text fill="#e1ed5e" style="font-size:6.75px; font-family:Arial;" text-anchor="middle"><textPath startOffset="22.20632615414155" xlink:href="#id15">March</textPath></text><path d="M 118.03404312379186 89.2402003453031 l 12.273151213112751 -7.322631274551761 a35.291646842928024,35.291646842928024 0 0,0 0.3067689858660156,0.5243676374728189 l -12.397379873449095 7.110284224725047" fill="#ffaa0f" stroke="none" /><path d="M 118.21658344932153 89.55222093294921 l 12.50881143128495 -7.174193700429157 a35.42010466934004,35.42010466934004 0 0,0 0.29878099460932395,0.5314980505306977 l -12.630450067186707 6.957812139963665" fill="#ffac0f" stroke="none" /><path d="M 118.3937258080291 89.86733742301442 l 12.596695523802161 -6.939217571243579 a35.38156732141643,35.38156732141643 0 0,0 0.2892727879068494,0.535978543068829 l -12.714276410927475 6.721358044842291" fill="#ffab0f" stroke="none" /><path d="M 118.89224826269711 90.83032412892265 l 28.532906181294948 -13.848934108013976 a52.7162373411269,52.7162373411269 0 0,0 0.3892009833921415,0.8197565296494449 l -28.767065358528846 13.35573516272399" fill="#81ff25" stroke="none" /><path d="M 119.04729006885535 91.15688171328212 l 13.11936638060084 -6.090950908556991 a35.464351253993065,35.464351253993065 0 0,0 0.252299614654504,0.555908757309948 l -13.22226831221869 5.86422014240498" fill="#ffac0f" stroke="none" /><path d="M 119.196687751892 91.48605970444005 l 13.05917540329553 -5.7918866592985445 a35.2859376061986,35.2859376061986 0 0,0 0.24147224028201228,0.5573512232399923 l -13.156938353420223 5.56623629147195" fill="#ffaa0f" stroke="none" /><path d="M 119.47837535516314 92.15188598940014 l 13.338179277052168 -5.374141824019133 a35.38014001223408,35.38014001223408 0 0,0 0.22273727217647046,0.5668420625734586 l -13.428710099110338 5.143750756549889" fill="#ffab0f" stroke="none" /><path d="M 119.61058180528143 92.48833698450437 l 14.001846113265918 -5.363285528293458 a35.99388296064705,35.99388296064705 0 0,0 0.2166410308683487,0.5804902555831084 l -14.092091732635891 5.1214721356810164" fill="#ffb310" stroke="none" /><path d="M 119.7369772167798 92.82701384747503 l 6.935374988836513 -2.520515082481757 a28.379188472779177,28.379188472779177 0 0,0 0.16290589235768074,0.4605568948385525 l -6.977733962004003 2.40076056121659" fill="#ff4b07" stroke="none" /><path d="M 119.85752413597 93.16781622104841 l 28.529079398228347 -9.815720840037962 a51.170461496635625,51.170461496635625 0 0,0 0.27939731400722295,0.8353624065202283 l -28.69381400600734 9.32318533059542" fill="#92ff23" stroke="none" /><path d="M 120.08093135843002 93.85539295169968 l 13.799925029911368 -4.222668515283389 a35.43152314279889,35.43152314279889 0 0,0 0.1734357921633319,0.5847392716240156 l -13.870566719186401 3.9844998569128434" fill="#ffac0f" stroke="none" /><path d="M 120.18372546131832 94.20196356495316 l 13.871938548552356 -3.9848939326577657 a35.43295045198124,35.43295045198124 0 0,0 0.1633513505532547,0.5876617204257812 l -13.938476669671974 3.7455209088130323" fill="#ffac0f" stroke="none" /><path d="M 120.6074358757038 95.95851677861258 l 29.561648990185837 -5.797563030694153 a51.12478760280024,51.12478760280024 0 0,0 0.16192991607916468,0.8650360866831008 l -29.65706463017486 5.287848866548489" fill="#93ff23" stroke="none" /><path d="M 120.73433829027371 96.67025291283417 l 20.5849574801895 -3.3057578809373536 a41.84870522667029,41.84870522667029 0 0,0 0.10809741074965862,0.7122268758692416 l -20.63881078437846 2.9509318926760297" fill="#fffe18" stroke="none" /><path d="M 120.83666639777658 97.38593545837742 l 14.391504379406346 -1.8054865677950536 a35.50431591109903,35.50431591109903 0 0,0 0.07085587365158198,0.6070498544939366 l -14.420450606061516 1.5574929749762643" fill="#ffad10" stroke="none" /><path d="M 120.91429891909075 98.10471618934814 l 17.5667033264544 -1.591919889351984 a38.63868687555223,38.63868687555223 0 0,0 0.054325103549409205,0.6629038637442052 l -17.591502913823305 1.28930210840001" fill="#ffd614" stroke="none" /><path d="M 120.94382443527127 98.46500227214037 l 19.94595717984238 -1.4618628534472358 a40.999456263168625,40.999456263168625 0 0,0 0.04552776615225749,0.7042943913091526 l -19.968165536999052 1.1183093978850478" fill="#fff417" stroke="none" /><path d="M 120.96714384426684 98.82574320788733 l 14.351940845212496 -0.8037749033757007 a35.374430775504656,35.374430775504656 0 0,0 0.028815660541087706,0.6082530505984893 l -14.363650113987081 0.5566107461542116" fill="#ffab0f" stroke="none" /><path d="M 120.98425023603335 99.18683210126433 l 7.191095608650864 -0.2786646194131203 a28.19649289743764,28.19649289743764 0 0,0 0.014619620473644518,0.4851540296077716 l -7.194826923580154 0.15484044238034966" fill="#ff4806" stroke="none" /><line stroke="#e1ed5e" stroke-width="0.3" x1="184.98032266829074" x2="189.97916517819016" y1="98.17113171792111" y2="98.06355123074" /><path d="M 185.9800911702706 98.14961562048488 a86.0,86.0 0 0,1 -9.607161424134198,41.387399972396054" fill="none" id="id16" stroke="none" /><text fill="#e1ed5e" style="font-size:6.75px; font-family:Arial;" text-anchor="middle"><textPath startOffset="21.466115282336823" xlink:href="#id16">April</textPath></text><path d="M 120.99513854157772 99.54816195383933 l 14.71643198391157 -0.3167135030282718 a35.719839597634746,35.719839597634746 0 0,0 0.00793829700754779,0.6148298515448148 l -14.719703288036833 0.06334739342299425" fill="#ffb010" stroke="none" /><path d="M 120.99980553446 99.90962569577887 l 14.392852512029808 -0.061940765565545806 a35.39298579487528,35.39298579487528 0 0,0 -0.002621950663508039,0.6092489953770971 l -14.391786264076796 -0.18581770801523603" fill="#ffab0f" stroke="none" /><path d="M 120.99824983174949 100.27111621757518 l 16.51116375338204 0.2131817794554012 a37.512539930673555,37.512539930673555 0 0,0 -0.013893818290806366,0.6455911412631143 l -16.505047872406223 -0.49736273650863044" fill="#ffc712" stroke="none" /><path d="M 120.9764740272857 100.99374915477107 l 30.32913287449526 1.436826328379314 a51.36314823625365,51.36314823625365 0 0,0 -0.04943984075044998,0.8827815684057266 l -30.299906682857284 -1.958679613120464" fill="#90ff24" stroke="none" /><path d="M 120.8583938346157 102.4346265915055 l 26.858035152368274 3.134914754031935 a48.04037245972949,48.04037245972949 0 0,0 -0.10294020266224331,0.8205346989869409 l -26.800093440459182 -3.5967672073062706" fill="#b6ff1f" stroke="none" /><path d="M 120.70491114924044 103.5080841355445 l 30.220754905861376 5.12037700066731 a51.651464691089515,51.651464691089515 0 0,0 -0.15606996157340033,0.8753232276535238 l -30.12813850194879 -5.639818979054052" fill="#8dff24" stroke="none" /><path d="M 120.49622156327973 104.57218783832717 l 14.069995092035976 3.138659496166954 a35.41582274179297,35.41582274179297 0 0,0 -0.13785091942942926,0.593858153008228 l -14.013883606675995 -3.3803863065237465" fill="#ffac0f" stroke="none" /><path d="M 120.41448212921028 104.9243191809786 l 13.891782442578226 3.3509334357342335 a35.29021953374567,35.29021953374567 0 0,0 -0.1475277138622049,0.5892998824780389 l -13.83204341442096 -3.589561157609668" fill="#ffaa0f" stroke="none" /><path d="M 120.23288151984713 105.62410040840565 l 29.02297046668753 8.067466806185104 a51.12336029361789,51.12336029361789 0 0,0 -0.24297560878228042,0.8458299695763531 l -28.87980222101915 -8.565854251266039" fill="#93ff23" stroke="none" /><path d="M 120.13307415673323 105.97154293290107 l 28.892117701710408 8.569507067577877 a51.136206076259086,51.136206076259086 0 0,0 -0.25756388373702055,0.8417336745991605 l -28.740327045467254 -9.065567714729095" fill="#93ff23" stroke="none" /><path d="M 119.9155931802556 106.66101706037122 l 5.693263434796105 1.9041825430518162 a27.003262420988243,27.003262420988243 0 0,0 -0.15123005976925283,0.43954534291127073 l -5.659642544083621 -2.0019005890523873" fill="#ff3705" stroke="none" /><path d="M 119.67450827220406 107.3425965602758 l 8.416458578485173 3.141052317703788 a29.983483993747026,29.983483993747026 0 0,0 -0.18462076181466752,0.48198655145355446 l -8.361143537076998 -3.2854624359904863" fill="#ff6209" stroke="none" /><path d="M 119.54520255179757 107.68017299344265 l 13.75058734545345 5.403212849529317 a35.77407734656426,35.77407734656426 0 0,0 -0.23014211080355573,0.5711938451972896 l -13.655542620392502 -5.639106062569421" fill="#ffb010" stroke="none" /><path d="M 119.26925614724726 108.34839909993367 l 18.60917967758013 8.062421179294333 a41.280636172092706,41.280636172092706 0 0,0 -0.28809739328499456,0.6495835663670554 l -18.46764119956386 -8.381553082154076" fill="#fff717" stroke="none" /><path d="M 119.12269723197855 108.67885076344098 l 15.898105929556277 7.215367534725079 a38.458845918575406,38.458845918575406 0 0,0 -0.2787815502787157,0.6004706577293487 l -15.77154976243773 -7.487958259733259" fill="#ffd313" stroke="none" /><line stroke="#e1ed5e" stroke-width="0.3" x1="174.80103733775053" x2="179.2010983576182" y1="140.37084112569926" y2="142.7455964860345" /><path d="M 175.68104954172406 140.8457921977663 a86.0,86.0 0 0,1 -30.038265399797805,32.042727171017184" fill="none" id="id17" stroke="none" /><text fill="#e1ed5e" style="font-size:6.75px; font-family:Arial;" text-anchor="middle"><textPath startOffset="22.206326154141568" xlink:href="#id17">May</textPath></text><path d="M 118.12598468904814 110.60418214915192 l 6.186956780289522 3.619533932783319 a28.167946713790524,28.167946713790524 0 0,0 -0.24844011541463235,0.4163999236836631 l -6.123735789176663 -3.7254959503530864" fill="#ff4806" stroke="none" /><path d="M 117.94076556474637 110.91462005526583 l 7.443106980711738 4.528161545391326 a29.712295249099434,29.712295249099434 0 0,0 -0.26958299436090644,0.43465362400388097 l -7.364059346682868 -4.655611500760481" fill="#ff5e08" stroke="none" /><path d="M 117.75023020441432 111.22182372390056 l 7.3314856896775575 4.635018199561181 a29.673757901175833,29.673757901175833 0 0,0 -0.27666559439890737,0.4293911464441646 l -7.2506152319016 -4.760530945926799" fill="#ff5d08" stroke="none" /><path d="M 117.35343817320211 111.8261652097733 l 13.712436090644168 9.344864862966377 a37.59389655406783,37.59389655406783 0 0,0 -0.3690272253283827,0.5316112414365589 l -13.54954795815365 -9.579517366589956" fill="#ffc812" stroke="none" /><path d="M 117.14729908036423 112.12312394758627 l 17.76731968192434 12.561477916193349 a42.759328485013256,42.759328485013256 0 0,0 -0.4300778209754429,0.5973404776656707 l -17.548462068573297 -12.86545199931015" fill="#f5ff19" stroke="none" /><path d="M 116.93607887273984 112.41649034213515 l 25.410449338389995 18.62937703409456 a52.50785020050296,52.50785020050296 0 0,0 -0.5406776674247913,0.72432609179714 l -25.086010404270112 -19.06401600540101" fill="#83ff25" stroke="none" /><path d="M 116.71984013943494 112.70617746262583 l 17.036895491769762 12.947122444075742 a42.39821926187725,42.39821926187725 0 0,0 -0.4465808125152774,0.5772658998753367 l -16.811507862036414 -13.238466338064331" fill="#f9ff18" stroke="none" /><path d="M 116.27256486870786 113.27417163493432 l 19.575078203715105 15.968161745850786 a46.26194521851424,46.26194521851424 0 0,0 -0.5086699144600335,0.6127256803118651 l -19.29731228936153 -16.30274868327642" fill="#cbff1d" stroke="none" /><path d="M 116.0416608686014 113.55231037782055 l 17.11888243715833 14.462368330195096 a43.410181472167466,43.410181472167466 0 0,0 -0.48713973451466963,0.5666535652892875 l -16.867400193072882 -14.754898994645911" fill="#edff1a" stroke="none" /><path d="M 115.32070863581623 114.36230785411682 l 6.935085945390889 6.501255373371716 a30.50587915448923,30.50587915448923 0 0,0 -0.3624293806414322,0.3800057566289727 l -6.822150013370493 -6.6196682465831955" fill="#ff6909" stroke="none" /><path d="M 115.07121518719521 114.62390073753431 l 5.265142803111761 5.10887309120685 a28.336369197308503,28.336369197308503 0 0,0 -0.3426803147401925,0.3471333496229093 l -5.176421863316033 -5.1987469348104245" fill="#ff4a06" stroke="none" /><path d="M 114.81725581225074 114.88116024355365 l 10.255156387966373 10.299385221240183 a35.5342894039285,35.5342894039285 0 0,0 -0.43715644570463036,0.42784959135727907 l -10.076349989885948 -10.474384915520034" fill="#ffad10" stroke="none" /><path d="M 114.55890576462653 115.13401014063108 l 5.033722124968067 5.232563690980106 a28.26072181064365,28.26072181064365 0 0,0 -0.35347994828124846,0.3342373542058557 l -4.942906342296011 -5.318435681931883" fill="#ff4906" stroke="none" /><path d="M 114.0293411484842 115.62618273729858 l 9.208274823007677 10.256375089654886 a34.78352477400938,34.78352477400938 0 0,0 -0.4489685896599237,0.39616257969206287 l -9.030363880441165 -10.413360811119237" fill="#ffa30f" stroke="none" /><path d="M 112.92097659922987 116.55440617244103 l 9.16842219098484 11.746618666504752 a35.901107863793925,35.901107863793925 0 0,0 -0.4904284029227997,0.37603958642126867 l -8.964865059568547 -11.902697594753391" fill="#ffb210" stroke="none" /><path d="M 111.45004920935366 117.60387380957326 l 7.923904101790191 12.182603352754365 a35.53286209474614,35.53286209474614 0 0,0 -0.5155957002679036,0.329077570477216 l -7.713026599475357 -12.31719535205539" fill="#ffad10" stroke="none" /><line stroke="#e1ed5e" stroke-width="0.3" x1="143.8653032363475" x2="146.44561519142675" y1="172.8068346515853" y2="177.08958963109032" /><path d="M 144.38136562736335 173.6633856474863 a86.0,86.0 0 0,1 -40.68145358897372,12.25698825130547" fill="none" id="id18" stroke="none" /><text fill="#e1ed5e" style="font-size:6.75px; font-family:Arial;" text-anchor="middle"><textPath startOffset="21.466115282336833" xlink:href="#id18">June</textPath></text><path d="M 110.8373102113329 117.98757091392108 l 9.106345826324256 15.114547625148257 a38.645823421464016,38.645823421464016 0 0,0 -0.5727534237773076,0.33839281836297413 l -8.844824531518567 -15.26905901580498" fill="#ffd614" stroke="none" /><path d="M 110.5260780823613 118.17145234162733 l 5.960938121541105 10.290528166277364 a32.89234010738802,32.89234010738802 0 0,0 -0.4923689367430821,0.27957993232262535 l -5.782920417876824 -10.391611264394617" fill="#ff8a0c" stroke="none" /><path d="M 110.21172684928248 118.3499491758327 l 6.529730591860916 11.733590827583361 a34.4281247876028,34.4281247876028 0 0,0 -0.5203191160821263,0.28371946842265855 l -6.326788663910141 -11.84425094776579" fill="#ff9e0e" stroke="none" /><path d="M 109.2508944713604 118.85261126421891 l 15.635288032306052 31.863514192029605 a56.49289743764018,56.49289743764018 0 0,0 -0.8766818868042403,0.4208605815365604 l -15.08449347750158 -32.127929050065724" fill="#59ff2a" stroke="none" /><path d="M 107.93186726928326 119.44442032107085 l 4.960314738304581 12.159866198203824 a34.13267178685516,34.13267178685516 0 0,0 -0.5459259557897649,0.21723520443643501 l -4.7502677064729495 -12.243448247046327" fill="#ff9a0e" stroke="none" /><path d="M 106.91757812671514 119.82793768551818 l 9.922890393823355 28.442100513346112 a51.12336029361789,51.12336029361789 0 0,0 -0.8333844563076467,0.28272925543961325 l -9.431836204578481 -28.60869275568385" fill="#93ff23" stroke="none" /><path d="M 105.88484417918355 120.15858648285463 l 4.03815583722131 13.832739015217859 a35.41011350506355,35.41011350506355 0 0,0 -0.5865749915376086,0.16577195174775242 l -3.7994496775790956 -13.90019976030413" fill="#ffac0f" stroke="none" /><path d="M 105.18746579009965 120.34920634021253 l 2.894304810095022 11.353675990403358 a32.71678107795827,32.71678107795827 0 0,0 -0.546910406247272,0.1344172715915045 l -2.698441119104539 -11.401814520308893" fill="#ff870c" stroke="none" /><path d="M 104.48393922423573 120.51570834832081 l 6.441415037276309 29.471896394352527 a51.16760687827092,51.16760687827092 0 0,0 -0.8620731529408161,0.18065581097901345 l -5.933150422906116 -29.57840818605808" fill="#92ff23" stroke="none" /><path d="M 101.98527174616119 120.90594882070398 l 1.6878790370917105 17.774248202146815 a38.85421056208795,38.85421056208795 0 0,0 -0.6663602244572658,0.05749636406376841 l -1.381674494892903 -17.800668818489246" fill="#ffd814" stroke="none" /><path d="M 101.62511606390274 120.93702456842531 l 1.9358243822442252 24.940004933475297 a46.01502072996669,46.01502072996669 0 0,0 -0.790225239940737,0.0544985591748442 l -1.5062363815245579 -24.96963183716643" fill="#cdff1d" stroke="none" /><path d="M 101.26447882468166 120.96189622390904 l 0.6162969925774623 10.216662667141415 a31.235234146673008,31.235234146673008 0 0,0 -0.5369662958498886,0.027755024047847056 l -0.440342628314094 -10.225757497951463" fill="#ff730a" stroke="none" /><line stroke="#e1ed5e" stroke-width="0.3" x1="102.19456741930631" x2="102.32365962044197" y1="184.97166512339345" y2="189.96999836594603" /><path d="M 102.22038585953345 185.97133177190398 a86.0,86.0 0 0,1 -42.740103519485714,-10.115201625700543" fill="none" id="id19" stroke="none" /><text fill="#e1ed5e" style="font-size:6.75px; font-family:Arial;" text-anchor="middle"><textPath startOffset="22.20632615414155" xlink:href="#id19">July</textPath></text><path d="M 100.54218724476979 120.99299961872073 l 0.3690248806582426 14.288309534552399 a35.29307415211038,35.29307415211038 0 0,0 -0.6074447460085638,0.010457712180943322 l -0.12302044475701088 -14.292544724012503" fill="#ffaa0f" stroke="none" /><path d="M 100.18074693466247 120.99922214144158 l 0.2088178070680718 24.26050281793135 a45.26140148168287,45.26140148168287 0 0,0 -0.7791294834610378,0.0 l 0.20881780706805508 -24.26050281793135" fill="#d6ff1c" stroke="none" /><path d="M 99.45781275523022 120.99299961872073 l -0.4181102752095375 16.18885160565523 a37.19424998300822,37.19424998300822 0 0,0 -0.6398821692184107,-0.022038835710896622 l 0.6967127961025912 -16.17925597151824" fill="#ffc312" stroke="none" /><path d="M 99.09653310690486 120.98055641714683 l -0.629350383153134 14.614947510319977 a35.628491809963975,35.628491809963975 0 0,0 -0.612490983229966,-0.031658787711677856 l 0.8808294347965888 -14.601948915846098" fill="#ffae10" stroke="none" /><path d="M 98.73552117531835 120.96189622390904 l -0.8970726549328514 14.87122087848586 a35.89825324542921,35.89825324542921 0 0,0 -0.6164879496804955,-0.04251661843749826 l 1.1529233653922768 -14.853575915532074" fill="#ffb210" stroke="none" /><path d="M 97.65516085044442 120.86867818915974 l -1.6415308394224501 14.609351277669093 a35.70128457826412,35.70128457826412 0 0,0 -0.6101053331893971,-0.07387525929401588 l 1.8927635956632367 -14.578930489649728" fill="#ffaf10" stroke="none" /><path d="M 96.22490169976321 120.6578951692458 l -2.629200861994593 14.387375232737158 a35.62563719159927,35.62563719159927 0 0,0 -0.6022978549779441,-0.11543181738749647 l 2.8764663315442323 -14.339986217001194" fill="#ffae10" stroke="none" /><path d="M 94.11515582081647 120.15858648285463 l -4.042955547011975 13.849180464126599 a35.42724121525182,35.42724121525182 0 0,0 -0.5839168938638386,-0.17592937017785532 l 4.2807474153160605 -13.777535724843018" fill="#ffac0f" stroke="none" /><path d="M 93.42475214034765 119.94407469862007 l -3.5836955472406857 10.870083260261968 a32.44559233331068,32.44559233331068 0 0,0 -0.5289099184986735,-0.17943496104342194 l 3.770275198676585 -10.806785312320423" fill="#ff840c" stroke="none" /><path d="M 90.42595943632237 118.69057910512821 l -6.576174399274526 12.838101844384264 a35.4243865968871,35.4243865968871 0 0,0 -0.5403215856857816,-0.2826707164555885 l 6.796186887486804 -12.723001708983958" fill="#ffac0f" stroke="none" /><line stroke="#e1ed5e" stroke-width="0.3" x1="58.666819895761336" x2="56.23545636021788" y1="174.27360380694188" y2="178.64263932499728" /><path d="M 58.180547188652646 175.14741091055294 a86.0,86.0 0 0,1 -31.652253787137756,-30.449443065178592" fill="none" id="id20" stroke="none" /><text fill="#e1ed5e" style="font-size:6.75px; font-family:Arial;" text-anchor="middle"><textPath startOffset="22.20632615414155" xlink:href="#id20">August</textPath></text><path d="M 89.7882731507175 118.34994917583269 l -9.57388433079608 17.20377889835086 a40.688302861415075,40.688302861415075 0 0,0 -0.6090675322080572,-0.3458444404738934 l 9.868600629925345 -17.036431292082334" fill="#fff016" stroke="none" /><path d="M 88.24862548938628 117.40417183066458 l -9.82329607191178 14.54862430132153 a38.554475633793245,38.554475633793245 0 0,0 -0.5468183397380879,-0.3761066402276822 l 10.07227129627276 -14.377376871728746" fill="#ffd513" stroke="none" /><path d="M 87.65650970185807 116.9893568818739 l -9.394576521348014 12.930525274466381 a36.98300822401957,36.98300822401957 0 0,0 -0.5118008585254251,-0.3786180397066475 l 9.615762350292004 -12.766897286019967" fill="#ffc011" stroke="none" /><path d="M 87.36589467227662 116.77436683061367 l -21.645340378979334 28.7386301025813 a56.978182559641134,56.978182559641134 0 0,0 -0.7783525561435471,-0.596807549395196 l 22.13682166361637 -28.361783211358738" fill="#54ff2b" stroke="none" /><path d="M 86.51685102203217 116.09983520530335 l -11.18387481323452 13.354338941447837 a38.41888126146945,38.41888126146945 0 0,0 -0.5033505041103357,-0.428966219558813 l 11.412090793921912 -13.159848331666073" fill="#ffd313" stroke="none" /><path d="M 84.43433777217949 114.09645910891817 l -22.008595889713177 19.931260711127894 a50.692312920546456,50.692312920546456 0 0,0 -0.5801642286338352,-0.6518206611488798 l 22.34841896799535 -19.54946588023815" fill="#98ff23" stroke="none" /><path d="M 84.19399662182784 113.82643327865904 l -6.121294586340313 5.354653491592414 a29.132807721063006,29.132807721063006 0 0,0 -0.3269221122239404,-0.3802842743841504 l 6.212559208135032 -5.248492118046733" fill="#ff5607" stroke="none" /><path d="M 82.44556493220864 111.52570212397912 l -1.8732048566867696 1.229888692628778 a23.24087541629851,23.24087541629851 0 0,0 -0.2166881132081537,-0.3363047637109398 l 1.894097833271969 -1.19746232899639" fill="#ff0000" stroke="none" /><path d="M 82.05923443525364 110.91462005526583 l -14.100932032265819 8.578581276360637 a37.50540338476178,37.50540338476178 0 0,0 -0.33079609388143555,-0.5544332807010575 l 14.246509001845485 -8.334585901773469" fill="#ffc712" stroke="none" /><line stroke="#e1ed5e" stroke-width="0.3" x1="26.63291911575756" x2="22.317208475507996" y1="142.92168965132927" y2="145.44649492493687" /><path d="M 25.769776987707644 143.4266507060508 a86.0,86.0 0 0,1 -11.730757126820373,-40.83630448921669" fill="none" id="id21" stroke="none" /><text fill="#e1ed5e" style="font-size:6.75px; font-family:Arial;" text-anchor="middle"><textPath startOffset="21.46611528233685" xlink:href="#id21">September</textPath></text><path d="M 81.51974371655577 109.97397251340807 l -26.70738050396757 14.41423078587615 a51.348875144430096,51.348875144430096 0 0,0 -0.4131077933869026,-0.7814442613512896 l 26.95154080557936 -13.952371509438734" fill="#90ff24" stroke="none" /><path d="M 81.02952815118164 109.00673069616217 l -11.624942172836704 5.519247193407061 a33.86861958811935,33.86861958811935 0 0,0 -0.24550779018607713,-0.5288019386624557 l 11.718224579862607 -5.318325187465779" fill="#ff970d" stroke="none" /><path d="M 80.87730276802145 108.67885076344099 l -9.103199307604003 4.13149396772519 a30.9968735132196,30.9968735132196 0 0,0 -0.216327055181866,-0.4877604007604244 l 9.172967447517149 -3.974185230472069" fill="#ff700a" stroke="none" /><path d="M 80.45479744820244 107.68017299344265 l -28.659566359850523 11.261608928194917 a51.79276830014273,51.79276830014273 0 0,0 -0.3189095817569725,-0.8325722850761369 l 28.849170221201003 -10.766613076285621" fill="#8bff24" stroke="none" /><path d="M 80.32549172779594 107.34259656027581 l -8.035351064206766 2.9988216360155877 a29.57670087677564,29.57670087677564 0 0,0 -0.17390499989463332,-0.47851187048455385 l 8.085780325106624 -2.8600619685249167" fill="#ff5c08" stroke="none" /><path d="M 80.20201598880116 107.00284435728193 l -22.91845739677418 8.106602670646762 a45.30992999388296,45.30992999388296 0 0,0 -0.25375539126671737,-0.7375319472867716 l 23.054603618984125 -7.710898020270693" fill="#d6ff1c" stroke="none" /><path d="M 79.4281124754447 104.21870165774334 l -47.07918336432414 9.654584620259362 a69.0589274791001,69.0589274791001 0 0,0 -0.22878258158807543,-1.1665574546009698 l 47.23839587888788 -8.842763438590438" fill="#3aff93" stroke="none" /><path d="M 79.35854240842038 103.8639653848113 l -7.013297526018252 1.3128500617597816 a28.135118602596343,28.135118602596343 0 0,0 -0.08501301764493388,-0.47679815031243744 l 7.034856986002374 -1.1919331607141304" fill="#ff4706" stroke="none" /><path d="M 79.29508885075956 103.50808413554451 l -7.054558525871156 1.1952712411802233 a28.155100931149324,28.155100931149324 0 0,0 -0.07684766624544134,-0.4785304910671968 l 7.074087946477888 -1.0736615204198128" fill="#ff4806" stroke="none" /><path d="M 79.23777060512086 103.15116336523772 l -11.396436117246244 1.72968091739685 a32.526948956704956,32.526948956704956 0 0,0 -0.07925105766211685,-0.5542817127056787 l 11.42452122592496 -1.5332537327107707" fill="#ff850c" stroke="none" /><path d="M 79.18660465613746 102.79330883721812 l -10.92091429719424 1.4656660248300084 a32.01882688778631,32.01882688778631 0 0,0 -0.06860947074461062,-0.5468849872949475 l 10.944525277185699 -1.2774632832476522" fill="#ff7e0b" stroke="none" /><path d="M 79.1416061653843 102.43462659150553 l -14.251983498905156 1.6635153350373892 a35.34873921022225,35.34873921022225 0 0,0 -0.0653407952847787,-0.6049746137566429 l 14.278506595690986 -1.4179443993959644" fill="#ffab0f" stroke="none" /><path d="M 79.07016306316243 101.71520430193888 l -15.650789504457757 1.2825853143432044 a36.70325562427785,36.70325562427785 0 0,0 -0.04618220580076236,-0.6301195062180249 l 15.670548268922854 -1.0129926716284188" fill="#ffbd11" stroke="none" /><path d="M 79.0095281055655 100.63252640178507 l -30.965689694059737 0.9331193876670336 a51.979745803031335,51.979745803031335 0 0,0 -0.019252152595486884,-0.8945718812312301 l 30.97716390934023 -0.39995769064567466" fill="#89ff24" stroke="none" /><line stroke="#e1ed5e" stroke-width="0.3" x1="15.007084014347285" x2="10.007500721073583" y1="101.09737516637583" y2="101.16192664675087" /><path d="M 14.007167355692545 101.11028546245083 a86.0,86.0 0 0,1 10.666146001902534,-42.60595125391555" fill="none" id="id22" stroke="none" /><text fill="#e1ed5e" style="font-size:6.75px; font-family:Arial;" text-anchor="middle"><textPath startOffset="22.20632615414155" xlink:href="#id22">October</textPath></text><path d="M 79.00019446554 99.90962569577889 l -15.047981360008952 -0.0647601637601625 a36.048120709576565,36.048120709576565 0 0,0 0.008011253465301165,-0.6204804095986353 l 15.044637099425936 0.32377683141926966" fill="#ffb410" stroke="none" /><path d="M 79.00486145842228 99.54816195383935 l -10.896409835076964 -0.2345025025815748 a31.89893291646843,31.89893291646843 0 0,0 0.01653930133968521,-0.5488588918098823 l 10.890758839281634 0.4220315418164516" fill="#ff7c0b" stroke="none" /><path d="M 79.03285615573316 98.82574320788736 l -18.534539036126873 -1.0380196994642192 a39.56358322571875,39.56358322571875 0 0,0 0.04393330374149875,-0.6796287635404585 l 18.51392514138096 1.3569075272576896" fill="#ffe115" stroke="none" /><path d="M 79.05617556472873 98.46500227214037 l -26.230670350624862 -1.9224769340902235 a47.30102630326922,47.30102630326922 0 0,0 0.06650415321293188,-0.8115191180407955 l 26.193691713592433 2.373709969338797" fill="#beff1e" stroke="none" /><path d="M 79.26566170972629 96.67025291283419 l -30.632930837740762 -4.9193714697018445 a52.02541969686672,52.02541969686672 0 0,0 0.1496056309106145,-0.8829809023236642 l 30.543713345309925 5.445938160341337" fill="#89ff24" stroke="none" /><path d="M 79.81627453868168 94.20196356495316 l -7.056690258480352 -2.0271256318820754 a28.342078434037926,28.342078434037926 0 0,0 0.13873326317221743,-0.4677395954172481 l 7.0207510981964285 2.148294614045863" fill="#ff4a06" stroke="none" /><path d="M 80.02781315780177 93.51064311812611 l -5.451526021767694 -1.7713081789985419 a26.73207367634065,26.73207367634065 0 0,0 0.14596056718198022,-0.43640351766246366 l 5.420228160813941 1.8648847995833278" fill="#ff3304" stroke="none" /><path d="M 80.2630227832202 92.82701384747504 l -2.6882962239126456 -0.9770042988962159 a23.860327601440904,23.860327601440904 0 0,0 0.14361123455571886,-0.3848067095956297 l 2.671080400855299 1.023134145521187" fill="#ff0901" stroke="none" /><path d="M 80.803312248108 91.48605970444005 l -13.098317701437086 -5.809246695244088 a35.32875688166927,35.32875688166927 0 0,0 0.2513349725088779,-0.5537832962102264 l 12.996380411964857 6.033852000296385" fill="#ffaa0f" stroke="none" /><path d="M 80.95270993114464 91.15688171328213 l -13.133606861179748 -6.097562361092423 a35.48005165499898,35.48005165499898 0 0,0 0.2619472043418569,-0.5517276172097907 l 13.026701462996138 6.322732393942745" fill="#ffac10" stroke="none" /><path d="M 81.43458229118936 90.18545643968196 l -21.824744422727434 -11.537575302063539 a45.68673961802487,45.68673961802487 0 0,0 0.3735258650252114,-0.692086699144354 l 21.62291045848375 11.911542984540366" fill="#d1ff1c" stroke="none" /><line stroke="#e1ed5e" stroke-width="0.3" x1="26.266209847984243" x2="21.928928074336255" y1="57.711370442889674" y2="55.22380399835377" /><path d="M 25.398753493254645 57.213857153982495 a86.0,86.0 0 0,1 29.58750427330803,-30.492523968695096" fill="none" id="id23" stroke="none" /><text fill="#e1ed5e" style="font-size:6.75px; font-family:Arial;" text-anchor="middle"><textPath startOffset="21.46611528233685" xlink:href="#id23">November</textPath></text><path d="M 82.15384107792192 88.93136811851018 l -13.68937331574616 -8.490490003024135 a37.10861143206688,37.10861143206688 0 0,0 0.34135046049080514,-0.5399344530060566 l 13.541195259009392 8.724872103744408" fill="#ffc212" stroke="none" /><path d="M 82.34701348167596 88.62581576622439 l -6.013509714527295 -3.874628653550147 a28.153673621966966,28.153673621966966 0 0,0 0.265989693982534,-0.40512055243937456 l 5.945923385186841 3.9775672699671887" fill="#ff4806" stroke="none" /><path d="M 82.54541684631803 88.32363383020206 l -12.162331712876197 -8.136077344713414 a35.632773737511044,35.632773737511044 0 0,0 0.34542671206279457,-0.506871076534634 l 12.020480535144664 8.344226444518464" fill="#ffae10" stroke="none" /><path d="M 82.7489923806493 88.02491185347247 l -5.892990164810483 -4.090722016206573 a28.173655950519947,28.173655950519947 0 0,0 0.27997554527908974,-0.39600555358872236 l 5.821701999727515 4.191554070127082" fill="#ff4806" stroke="none" /><path d="M 82.95767976084542 87.72973835380427 l -6.22132141674025 -4.4792751513435265 a28.66607761843268,28.66607761843268 0 0,0 0.291762501887867,-0.3979637246857596 l 6.143296302338749 4.585701319700787" fill="#ff4f07" stroke="none" /><path d="M 83.17141714833178 87.43820079747576 l -50.48574855500465 -37.6853976075727 a84.0,84.0 0 0,0 0.8748962391035646,-1.1512608964758937 l 49.82957637567698 38.54884327992962" fill="#4dd2ff" stroke="none" /><path d="M 83.6137871275137 86.86637796730984 l -11.695209771900947 -9.373762316677727 a35.988173723917626,35.988173723917626 0 0,0 0.39158818873009166,-0.4800408174744658 l 11.532123091094462 9.573687303760275" fill="#ffb310" stroke="none" /><path d="M 84.07557802195018 86.31012108654704 l -8.718223274192297 -7.4948667605426245 a32.496975463875486,32.496975463875486 0 0,0 0.3683116461673118,-0.4210438806750079 l 8.587919764447141 7.643826197420575" fill="#ff840c" stroke="none" /><path d="M 84.5562425177563 85.77008943001954 l -22.67596634873314 -20.893683004369464 a51.83416026643105,51.83416026643105 0 0,0 0.6102427740991587,-0.6509644434620221 l 22.312956252663525 21.28091686470954" fill="#8bff24" stroke="none" /><path d="M 84.80347519578584 85.50635884689758 l -5.387417479696938 -5.138233688206497 a28.44484469516754,28.44484469516754 0 0,0 0.3409801868184975,-0.3514100555210756 l 5.298173029175322 5.230207939277697" fill="#ff4c07" stroke="none" /><path d="M 85.31137513191541 84.99185889309783 l -2.7264755328443564 -2.78578354944266 a24.897981377013526,24.897981377013526 0 0,0 0.3088733975684642,-0.2971359637407872 l 2.678118891663465 2.832302599945761" fill="#ff1902" stroke="none" /><path d="M 86.65592168130627 83.78471172551755 l -20.640558307403783 -25.081732518906513 a53.482702372051925,53.482702372051925 0 0,0 0.7158955177319107,-0.5788710548097344 l 20.20575939110737 25.433309670980382" fill="#79ff26" stroke="none" /><path d="M 86.93701828274178 83.55741782278169 l -9.777037631376851 -12.306512263680286 a36.717528716101405,36.717528716101405 0 0,0 0.49825239709942054,-0.3888938990846612 l 9.563752679118004 12.47298455198817" fill="#ffbd11" stroke="none" /><path d="M 87.51073957382395 83.11751280151077 l -5.101641756359548 -6.896197108877884 a29.578128185957997,29.578128185957997 0 0,0 0.4119172438796018,-0.29927539569728756 l 4.9821791961261646 6.98299173939184" fill="#ff5c08" stroke="none" /><path d="M 87.80319425747018 82.90503203632743 l -8.298105449787505 -11.630573595892232 a35.287364915380955,35.287364915380955 0 0,0 0.49749951988535085,-0.34853020677951796 l 8.096674790318493 11.771688645435692" fill="#ffaa0f" stroke="none" /><path d="M 88.09926311788651 82.69761687909137 l -8.536693879822318 -12.411428767625207 a36.06382111058248,36.06382111058248 0 0,0 0.5145024526901357,-0.3473943527458452 l 8.321786732725643 12.556535032669718" fill="#ffb410" stroke="none" /><path d="M 88.39885842347998 82.49532879139004 l -20.742175648197907 -31.297347978909375 a58.54679535105009,58.54679535105009 0 0,0 0.8448385488584467,-0.5495064928906432 l 20.200370073555174 31.649753395959554" fill="#44ff2d" stroke="none" /><path d="M 89.00827224532344 82.1063720568725 l -6.024420078414447 -9.80725995605112 a32.50982124651669,32.50982124651669 0 0,0 0.4793463751621427,-0.2888008275919955 l 5.854711637034654 9.909507393101736" fill="#ff840c" stroke="none" /><line stroke="#e1ed5e" stroke-width="0.3" x1="56.762969772571076" x2="54.21961505331055" y1="26.818313649435495" y2="22.513508569990535" /><path d="M 56.25429882871897 25.957352633546506 a86.0,86.0 0 0,1 42.265352541879196,-11.944610805530505" fill="none" id="id24" stroke="none" /><text fill="#e1ed5e" style="font-size:6.75px; font-family:Arial;" text-anchor="middle"><textPath startOffset="22.20632615414155" xlink:href="#id24">December</textPath></text><path d="M 89.3179101791058 81.91981866633112 l -8.717450722454746 -14.754892766489645 a38.13770135254536,38.13770135254536 0 0,0 0.568076076158951,-0.3290663300848188 l 8.462177913830475 14.90276325396451" fill="#ffcf13" stroke="none" /><path d="M 89.63071344664047 81.73862282372117 l -7.052637160298291 -12.420417413377436 a35.283082987833886,35.283082987833886 0 0,0 0.5307179037680305,-0.2953439388508283 l 6.837795167458214 12.53997674978845" fill="#ffaa0f" stroke="none" /><path d="M 90.58718382345135 81.22770947309562 l -5.177592694678729 -10.325844303285342 a32.551213212805,32.551213212805 0 0,0 0.5030382848202423,-0.24683870169000713 l 4.999083142848061 10.413438165110179" fill="#ff850c" stroke="none" /><path d="M 90.91171255644093 81.06846463323043 l -13.039743623566363 -27.1626936445664 a51.13049683952967,51.13049683952967 0 0,0 0.7967148872843149,-0.3740683223602942 l 12.57025052498244 27.3831269495667" fill="#93ff23" stroke="none" /><path d="M 91.56875222667455 80.76684994638697 l -5.085796505693154 -11.601590887365978 a33.667368993407194,33.667368993407194 0 0,0 0.5327720737607701,-0.2281051977444301 l 4.885340674142076 11.687415613073194" fill="#ff940d" stroke="none" /><path d="M 92.91201910852362 80.23233633223022 l -10.132637945383182 -28.258905044804045 a51.020594032488276,51.020594032488276 0 0,0 0.8292498526985526,-0.28930899085884515 l 9.644706088621344 28.4291348888351" fill="#94ff23" stroke="none" /><path d="M 93.25333710446033 80.11325718540243 l -1.0771366235045663 -3.1750124972126503 a24.352749269353634,24.352749269353634 0 0,0 0.3981293880853675,-0.13125699970699053 l 1.0223244131767895 3.1930832211788744" fill="#ff1101" stroke="none" /><path d="M 93.59665428221793 80.00007090966166 l -4.455750252066396 -13.916894856717454 a35.61279140895806,35.61279140895806 0 0,0 0.5854312625225723,-0.18189634299912408 l 4.2155336168330955 13.991531334599102" fill="#ffae10" stroke="none" /><path d="M 93.94186890950719 79.89281104454417 l -2.9271565229601952 -9.71535419590399 a31.146740977366953,31.146740977366953 0 0,0 0.5146773240562428,-0.1502484242735101 l 2.759488981180531 9.764300949096198" fill="#ff720a" stroke="none" /><path d="M 94.28887869178378 79.79150937346287 l -3.9767850066387034 -14.071636407861941 a35.62278257323455,35.62278257323455 0 0,0 0.5915114035719659,-0.16168241106893938 l 3.733975713843015 14.138005359757177" fill="#ffae10" stroke="none" /><path d="M 94.98787191387505 79.60689891045804 l -2.5818608553483995 -10.504948899452087 a31.817576293074154,31.817576293074154 0 0,0 0.5329842703888529,-0.12614015676991125 l 2.4006528979970123 10.547834968362869" fill="#ff7b0b" stroke="none" /><path d="M 95.692805502759 79.44645832069477 l -4.5478329718370825 -21.701846665398392 a43.173248147896416,43.173248147896416 0 0,0 0.7286690169535823,-0.14616414983868226 l 4.173597545416364 21.776914771314285" fill="#f0ff19" stroke="none" /><path d="M 96.40284397218896 79.31037775812273 l -1.7947884456032628 -10.323014808510916 a31.477876707673488,31.477876707673488 0 0,0 0.5346304416375325,-0.08821860376058359 l 1.6168287978268447 10.352379675211125" fill="#ff760a" stroke="none" /><path d="M 97.47563105711357 79.15227682838746 l -0.8613017123149499 -7.113136024026027 a28.165092095425813,28.165092095425813 0 0,0 0.48180185139962856,-0.05413605180212601 l 0.7387331574056034 7.126908029298751" fill="#ff4806" stroke="none" /><path d="M 98.19473922651362 79.07773832637324 l -1.6244034106019298 -18.826196037323776 a39.89614626520764,39.89614626520764 0 0,0 0.6847125009817192,-0.05314686816475939 l 1.3001007202578765 18.851368167677" fill="#ffe615" stroke="none" /><path d="M 98.55514903715128 79.0497635885617 l -0.4916990940653514 -7.129601965069773 a28.14653707605519,28.14653707605519 0 0,0 0.4836351795611116,-0.02917419478151006 l 0.3689018656646168 7.137009429231589" fill="#ff4806" stroke="none" /><path d="M 98.91598698831166 79.02799685794201 l -0.8324789654772329 -16.10566597581141 a37.1271664514375,37.1271664514375 0 0,0 0.6385150729211514,-0.027495802192123046 l 0.5551230601667574 16.117609504527724" fill="#ffc212" stroke="none" /></svg>