<?xml version="1.0" encoding="utf-8" ?>
<svg baseProfile="full" height="200mm" version="1.1" viewBox="0,0,200,200" width="200mm" xmlns="http://www.w3.org/2000/svg" xmlns:ev="http://www.w3.org/2001/xml-events" xmlns:xlink="http://www.w3.org/1999/xlink"><defs /><rect fill="#1a1a1a" height="200" width="200" x="0" y="0" /><text alignment-baseline="middle" fill="#e1ed5e" style="dominant-baseline: central; font-size:9.0px; font-family:Arial;" text-anchor="middle" x="100.0" y="100.0">2015</text><line stroke="#e1ed5e" stroke-width="0.3" x1="100.0" x2="100.0" y1="15.0" y2="10.0" /><path d="M 100.0 14.0 a86.0,86.0 0 0,1 42.46469731375804,11.215312516191453" fill="none" id="id13" stroke="none" /><text fill="#e1ed5e" style="font-size:6.75px; font-family:Arial;" text-anchor="middle"><textPath startOffset="22.20632615414155" xlink:href="#id13">January</textPath></text><path d="M 100.72285384407766 79.0124445844662 l 1.0411999986512854 -30.230513193480167 a51.24843839569854,51.24843839569854 0 0,0 0.8813734929684337,0.03795379662561243 l -1.5614143240090508 30.20811167033036" fill="#90ff24" stroke="none" /><path d="M 101.80526077348638 79.07773832637324 l 1.2489585121405768 -14.474937468476437 a35.52872024926323,35.52872024926323 0 0,0 0.6088520802071368,0.057817841361482505 l -1.4979357194379577 14.451294082599777" fill="#ffaf10" stroke="none" /><path d="M 102.16513564639614 79.11191278185805 l 0.7952879634833524 -7.672518981630318 a28.713626285239584,28.713626285239584 0 0,0 0.4911852678398294,0.055190387971675706 l -0.9272399348329071 7.657692640188041" fill="#ff5207" stroke="none" /><path d="M 103.2404852339499 79.25152402106235 l 2.5999906234300942 -16.647458359174983 a37.84926767139716,37.84926767139716 0 0,0 0.6428442070199729,0.10607480226000823 l -2.8861640365889425 16.60023729397535" fill="#ffcd13" stroke="none" /><path d="M 103.59715602781102 79.31037775812273 l 1.679622880982212 -9.660621515348161 a30.805546445003806,30.805546445003806 0 0,0 0.5216477434730734,0.09532779083124 l -1.8456657455581862 9.630278243166183" fill="#ff6f0a" stroke="none" /><path d="M 103.95276090670814 79.375362276772 l 2.7254629271907764 -14.220866586188638 a35.47968213151338,35.47968213151338 0 0,0 0.5988186251827315,0.12011738281851247 l -2.9698479618406335 14.171845247292918" fill="#ffae10" stroke="none" /><path d="M 107.08798089147638 80.2323363322302 l 2.3749495060258603 -6.623494586379509 a28.03641000027508,28.03641000027508 0 0,0 0.45287837114189483,0.16679892608935465 l -2.4886102029403316 6.58163239248383" fill="#ff4806" stroke="none" /><path d="M 108.76106565485865 80.91482961587045 l 3.7996421869346464 -8.277168713620872 a30.10762332677838,30.10762332677838 0 0,0 0.46913668373839856,0.22026596345132615 l -3.941557081972643 8.210537767529543" fill="#ff6509" stroke="none" /><path d="M 109.08828744355905 81.06846463323043 l 5.693707954404161 -11.860389999355895 a34.15625939265666,34.15625939265666 0 0,0 0.5278422659219953,0.259009907494131 l -5.8970214873365885 11.760624931726932" fill="#ff9d0e" stroke="none" /><path d="M 109.41281617654863 81.2277094730956 l 7.000237193880341 -13.960804492088547 a36.61753446728726,36.61753446728726 0 0,0 0.5610146516765209,0.28737349451600397 l -7.239512333145618 13.838238472260041" fill="#ffbd11" stroke="none" /><path d="M 109.73455568895987 81.39251694778311 l 4.009129617317508 -7.663401781447643 a29.648748299745307,29.648748299745307 0 0,0 0.4501738218861478,0.24046726514483682 l -4.140448485731967 7.593255789801052" fill="#ff5f08" stroke="none" /><line stroke="#e1ed5e" stroke-width="0.3" x1="143.23703022742887" x2="145.7803849466894" y1="26.81831364943548" y2="22.513508569990506" /><path d="M 143.74570117128098 25.957352633546492 a86.0,86.0 0 0,1 28.547481713284135,27.462654790039103" fill="none" id="id14" stroke="none" /><text fill="#e1ed5e" style="font-size:6.75px; font-family:Arial;" text-anchor="middle"><textPath startOffset="19.985693538727396" xlink:href="#id14">February</textPath></text><path d="M 110.99172775467656 82.1063720568725 l 7.637348890799085 -12.43297528595291 a35.59136636990881,35.59136636990881 0 0,0 0.5192625236496184,0.3251621446721556 l -7.850230566820967 12.29966879995781" fill="#ffb010" stroke="none" /><path d="M 111.2981086023043 82.29822771554956 l 7.697622979530749 -12.060564640652787 a35.30771187109819,35.30771187109819 0 0,0 0.5094952829071697,0.3313899045361361 l -7.904085288222198 11.926275811957122" fill="#ffac0f" stroke="none" /><path d="M 111.60114157652 82.49532879139004 l 5.103210429531087 -7.700106070430976 a30.23766151057522,30.23766151057522 0 0,0 0.43138387812820617,0.2912723201683032 l -5.234999002065835 7.611121837964003" fill="#ff6709" stroke="none" /><path d="M 112.77801427241765 83.33499621200491 l 10.720230141259119 -13.981254998118004 a38.61813910729394,38.61813910729394 0 0,0 0.524043448852535,0.40902422406884914 l -10.959306145271084 13.794652384825929" fill="#ffd714" stroke="none" /><path d="M 113.06298171725822 83.55741782278167 l 5.751980037036095 -7.240108459750343 a30.246861351583586,30.246861351583586 0 0,0 0.40487094904862797,0.3273774839101079 l -5.875754384649214 7.140024878576107" fill="#ff6709" stroke="none" /><path d="M 113.6212207817346 84.01681056812373 l 11.190347424888179 -13.130793896266304 a38.252293292079344,38.252293292079344 0 0,0 0.497473262573793,0.4314039111210565 l -11.414714486108736 12.936224991725576" fill="#ffd213" stroke="none" /><path d="M 114.16331599549186 84.49514656593476 l 9.535252762808584 -10.438423924960134 a35.137953857890075,35.137953857890075 0 0,0 0.4430596743404638,0.4117756809117924 l -9.713520320943895 10.2727436579737" fill="#ffaa0f" stroke="none" /><path d="M 114.42810811169701 84.74124197986012 l 30.169056888600938 -31.905939101315145 a64.9108294556647,64.9108294556647 0 0,0 0.8052551782960531,0.7746548435179684 l -30.71379531050941 31.381901171034876" fill="#35ff64" stroke="none" /><path d="M 117.2510076193507 88.02491185347247 l 13.288892967883942 -9.224717081550375 a37.17683781047837,37.17683781047837 0 0,0 0.36039498200071285,0.5288351656810282 l -13.44571241555339 8.99460389259894" fill="#ffc412" stroke="none" /><path d="M 117.65298651832404 88.62581576622439 l 6.0465788376086085 -3.895935773338965 a28.193012664342984,28.193012664342984 0 0,0 0.2593386678780642,0.410211492267294 l -6.112745101732628 3.791276633357465" fill="#ff4a06" stroke="none" /><line stroke="#e1ed5e" stroke-width="0.3" x1="172.23445277983987" x2="176.4835382374775" y1="55.19839476539836" y2="52.563006222186495" /><path d="M 173.08426987136738 54.67131705675599 a86.0,86.0 0 0,1 12.851231095245387,41.99856678651699" fill="none" id="id15" stroke="none" /><text fill="#e1ed5e" style="font-size:6.75px; font-family:Arial;" text-anchor="middle"><textPath startOffset="22.20632615414155" xlink:href="#id15">March</textPath></text><path d="M 118.03404312379186 89.2402003453031 l 12.03592890861212 -7.18109537755233 a35.01540993031129,35.01540993031129 0 0,0 0.3043678251063828,0.5202632753869038 l -12.157756408188828 6.972852689811531" fill="#ffa80f" stroke="none" /><path d="M 118.21658344932153 89.55222093294921 l 12.298851799405641 -7.053775299636442 a35.17806409780632,35.17806409780632 0 0,0 0.2967392975738719,0.5278660993233127 l -12.41844873827195 6.841025690378335" fill="#ffaa0f" stroke="none" /><path d="M 118.3937258080291 89.86733742301442 l 12.317206149123487 -6.78525357520339 a35.062476076417546,35.062476076417546 0 0,0 0.2866639601746301,0.5311447814932924 l -12.432178208516582 6.572227810377639" fill="#ffa90f" stroke="none" /><path d="M 118.89224826269711 90.83032412892265 l 27.757467994612526 -13.472561919216652 a51.85428583096788,51.85428583096788 0 0,0 0.38283724439424244,0.806352872364087 l -27.985263432848527 12.992766631212024" fill="#8aff24" stroke="none" /><path d="M 119.04729006885535 91.15688171328212 l 12.833683387623427 -5.958316371556176 a35.149380314251076,35.149380314251076 0 0,0 0.25005885614872636,0.5509715429662625 l -12.9343445607355 5.736522819747851" fill="#ffaa0f" stroke="none" /><path d="M 119.196687751892 91.48605970444005 l 12.815909544321201 -5.68399559881852 a35.019819664161574,35.019819664161574 0 0,0 0.23965111549399953,0.553147816144062 l -12.91185136965788 5.4625486380878545" fill="#ffa80f" stroke="none" /><path d="M 119.47837535516314 92.15188598940014 l 12.613833450233367 -5.082292605163756 a34.59920925770055,34.59920925770055 0 0,0 0.21782088727908555,0.5543303992653495 l -12.699447887394152 4.864413201002622" fill="#ffa30f" stroke="none" /><path d="M 119.61058180528143 92.48833698450437 l 13.730147855380023 -5.259213870685298 a35.70293476378799,35.70293476378799 0 0,0 0.2148898633889815,0.575797997364099 l -13.81864230727063 5.022092736291866" fill="#ffb110" stroke="none" /><path d="M 119.7369772167798 92.82701384747503 l 6.782301815495606 -2.4648838811768328 a28.21631973128688,28.21631973128688 0 0,0 0.16197097211866743,0.4579137494251485 l -6.8237258684240825 2.3477725053250698" fill="#ff4b07" stroke="none" /><path d="M 119.85752413597 93.16781622104841 l 27.977858150629615 -9.626067545867432 a50.587526478135246,50.587526478135246 0 0,0 0.27621441368453453,0.8258459396825898 l -28.13940985808592 9.143048503262529" fill="#98ff23" stroke="none" /><path d="M 120.08093135843002 93.85539295169968 l 13.52396703151889 -4.138227538334109 a35.14293503586284,35.14293503586284 0 0,0 0.17202316570824988,0.5799765974717069 l -13.593196094338843 3.9048215541158724" fill="#ffaa0f" stroke="none" /><path d="M 120.18372546131832 94.20196356495316 l 13.536021739812918 -3.8883974806054145 a35.083448423872134,35.083448423872134 0 0,0 0.16174009245635715,0.5818651677675644 l -13.60094860283564 3.654821009418898" fill="#ffa90f" stroke="none" /><path d="M 120.6074358757038 95.95851677861258 l 29.120360118877127 -5.711018465910048 a50.67509233972247,50.67509233972247 0 0,0 0.16050557537036547,0.8574272016624926 l -29.214351418157353 5.208913186784992" fill="#97ff23" stroke="none" /><path d="M 120.73433829027371 96.67025291283417 l 20.346578820113635 -3.2674764254156954 a41.60727230551739,41.60727230551739 0 0,0 0.10747377679240723,0.7081179072826776 l -20.39980849034534 2.916759405740935" fill="#fffd17" stroke="none" /><path d="M 120.83666639777658 97.38593545837742 l 13.847383142000403 -1.7372238233668733 a34.95592943855157,34.95592943855157 0 0,0 0.06976146015243576,0.5976735879803122 l -13.875234955156428 1.4986064970617083" fill="#ffa70f" stroke="none" /><path d="M 120.91429891909075 98.10471618934814 l 17.161028994321683 -1.5551570986381953 a38.23135020088078,38.23135020088078 0 0,0 0.053752397569460396,0.6559154001777772 l -17.185255875710638 1.2595277812526493" fill="#ffd213" stroke="none" /><path d="M 120.94382443527127 98.46500227214037 l 19.519135707736986 -1.4305806016355695 a40.57148996971945,40.57148996971945 0 0,0 0.04505253181734008,0.6969427264916757 l -19.540868830558743 1.0943788108908585" fill="#fff016" stroke="none" /><path d="M 120.96714384426684 98.82574320788733 l 14.026092335554418 -0.7855258834563561 a35.048071651265104,35.048071651265104 0 0,0 0.028549811634620333,0.6026414003596728 l -14.037535755422535 0.5439733764736835" fill="#ffa90f" stroke="none" /><path d="M 120.98425023603335 99.18683210126433 l 6.931727814647954 -0.26861376881437526 a27.93693043450493,27.93693043450493 0 0,0 0.014485039740108487,0.4806879502522725 l -6.935324548843707 0.14925567113710364" fill="#ff4706" stroke="none" /><line stroke="#e1ed5e" stroke-width="0.3" x1="184.98032266829074" x2="189.97916517819016" y1="98.17113171792111" y2="98.06355123074" /><path d="M 185.9800911702706 98.14961562048488 a86.0,86.0 0 0,1 -9.607161424134198,41.387399972396054" fill="none" id="id16" stroke="none" /><text fill="#e1ed5e" style="font-size:6.75px; font-family:Arial;" text-anchor="middle"><textPath startOffset="21.466115282336823" xlink:href="#id16">April</textPath></text><path d="M 120.99513854157772 99.54816195383933 l 14.460930120444699 -0.3112148271061931 a35.46427857229649,35.46427857229649 0 0,0 0.007881501698679077,0.6104309922823067 l -14.464144629261094 0.06224757676342362" fill="#ffae10" stroke="none" /><path d="M 120.99980553446 99.90962569577887 l 13.978254224899006 -0.06015650943663866 a34.97838366841941,34.97838366841941 0 0,0 -0.002591236489607791,0.6021121030423164 l -13.977218691119896 -0.18046507180936253" fill="#ffa80f" stroke="none" /><path d="M 120.99824983174949 100.27111621757518 l 16.13982877272875 0.20838733533673695 a37.14117399988401,37.14117399988401 0 0,0 -0.013756272532206132,0.6391999303366418 l -16.133850437511537 -0.4861770814634936" fill="#ffc412" stroke="none" /><path d="M 120.9764740272857 100.99374915477107 l 29.844981522479344 1.4138899189417102 a50.87845388871416,50.87845388871416 0 0,0 -0.04897329591864231,0.87445109702671 l -29.816221875673172 -1.9274127323038435" fill="#94ff23" stroke="none" /><path d="M 120.8583938346157 102.4346265915055 l 26.305973309184708 3.0704771729685403 a47.48456270760873,47.48456270760873 0 0,0 -0.10174922171027581,0.8110414089831485 l -26.249222578227585 -3.522836336239084" fill="#bbff1f" stroke="none" /><path d="M 120.70491114924044 103.5080841355445 l 29.16575738249659 4.941626169616749 a50.58143121782473,50.58143121782473 0 0,0 -0.15283675058793342,0.8571896634048216 l -29.076374189569467 -5.44293458375479" fill="#98ff23" stroke="none" /><path d="M 120.49622156327973 104.57218783832717 l 13.726863822782972 3.0621156018991895 a35.064257618823056,35.064257618823056 0 0,0 -0.1364825035156142,0.5879630530662845 l -13.672120753336806 -3.297947312314039" fill="#ffa90f" stroke="none" /><path d="M 120.41448212921028 104.9243191809786 l 13.472347433157678 3.2497586006837667 a34.85875450112413,34.85875450112413 0 0,0 -0.1457240115697533,0.5820949884202357 l -13.414412107292863 -3.4811814285013982" fill="#ffa60f" stroke="none" /><path d="M 120.23288151984713 105.62410040840565 l 28.411107571936018 7.897388295475461 a50.488298956596886,50.488298956596886 0 0,0 -0.23995733271258257,0.8353229546171144 l -28.270957602337337 -8.385268725597157" fill="#99ff23" stroke="none" /><path d="M 120.13307415673323 105.97154293290107 l 28.45425123463694 8.439634282793419 a50.67948517328324,50.67948517328324 0 0,0 -0.2552634625955125,0.8342157652072357 l -28.304760999535294 -8.928177020552711" fill="#97ff23" stroke="none" /><path d="M 119.9155931802556 106.66101706037122 l 7.591020983205019 2.5389110842499956 a29.00435313196428,29.00435313196428 0 0,0 -0.1624370414704486,0.47211807760679686 l -7.546193110791339 -2.6692018649460927" fill="#ff5608" stroke="none" /><path d="M 119.67450827220406 107.3425965602758 l 8.140649294226547 3.038119310491067 a29.68909315615674,29.68909315615674 0 0,0 -0.18280807517963502,0.47725419864828156 l -8.087146939453406 -3.1777970759724927" fill="#ff6008" stroke="none" /><path d="M 119.54520255179757 107.68017299344265 l 13.43248674095048 5.278217078038742 a35.43229973249968,35.43229973249968 0 0,0 -0.22794338403377531,0.5657367856709549 l -13.339640742659315 -5.508653231552511" fill="#ffae10" stroke="none" /><path d="M 119.26925614724726 108.34839909993367 l 17.960588177319437 7.78141911799917 a40.57378888118572,40.57378888118572 0 0,0 -0.2831643088937581,0.6384607633610625 l -17.823982783694408 -8.08942821785292" fill="#fff016" stroke="none" /><path d="M 119.12269723197855 108.67885076344098 l 15.518267397527424 7.042977526469857 a38.04171809001434,38.04171809001434 0 0,0 -0.2757578624915977,0.5939579032357902 l -15.394734918195995 -7.309055496984477" fill="#ffd013" stroke="none" /><line stroke="#e1ed5e" stroke-width="0.3" x1="174.80103733775053" x2="179.2010983576182" y1="140.37084112569926" y2="142.7455964860345" /><path d="M 175.68104954172406 140.8457921977663 a86.0,86.0 0 0,1 -30.038265399797805,32.042727171017184" fill="none" id="id17" stroke="none" /><text fill="#e1ed5e" style="font-size:6.75px; font-family:Arial;" text-anchor="middle"><textPath startOffset="22.206326154141568" xlink:href="#id17">May</textPath></text><path d="M 118.12598468904814 110.60418214915192 l 6.051170987820962 3.540095640116463 a28.010631031869934,28.010631031869934 0 0,0 -0.2470525976601434,0.4140743641172675 l -5.989337514462591 -3.6437320981198345" fill="#ff4806" stroke="none" /><path d="M 117.94076556474637 110.91462005526583 l 7.3008881124823315 4.441639880203075 a29.54582541691534,29.54582541691534 0 0,0 -0.26807259486282975,0.4322183790913114 l -7.223350877951539 -4.5666545906596605" fill="#ff5e08" stroke="none" /><path d="M 117.75023020441432 111.22182372390056 l 7.193326469447411 4.54767294277298 a29.510304042188046,29.510304042188046 0 0,0 -0.275141619605952,0.42702590372245636 l -7.113979986464408 -4.670820446416889" fill="#ff5d08" stroke="none" /><path d="M 117.35343817320211 111.8261652097733 l 13.37541719863539 9.115190428659442 a37.186058253579716,37.186058253579716 0 0,0 -0.3650238245051848,0.5258440439629998 l -13.216532466968069 -9.344075734809461" fill="#ffc512" stroke="none" /><path d="M 117.14729908036423 112.12312394758627 l 17.37245321335883 12.282307702929439 a42.27574236448123,42.27574236448123 0 0,0 -0.4252138609381548,0.5905848625878443 l -17.158459560045074 -12.579526170968414" fill="#f9ff18" stroke="none" /><path d="M 116.93607887273984 112.41649034213515 l 24.318545896443595 17.82886065463356 a51.1539375000973,51.1539375000973 0 0,0 -0.5267363165990223,0.7056493741030313 l -24.00804831314948 -18.244822908245908" fill="#91ff23" stroke="none" /><path d="M 116.71984013943494 112.70617746262583 l 16.714466076580546 12.702093464468327 a41.99325021537282,41.99325021537282 0 0,0 -0.4423152700236356,0.5717521112039753 l -16.493343989338843 -12.987923569785554" fill="#fdff18" stroke="none" /><path d="M 116.27256486870786 113.27417163493432 l 19.05026676944877 15.540052402877825 a45.58466783731993,45.58466783731993 0 0,0 -0.5012229593886338,0.603755343198024 l -18.779947810166593 -15.865669003189618" fill="#d1ff1c" stroke="none" /><path d="M 116.0416608686014 113.55231037782055 l 16.773837250593665 14.170867375212932 a42.95848579195018,42.95848579195018 0 0,0 -0.4820709025890589,0.560757368615127 l -16.527423838433826 -14.457501842989588" fill="#f1ff19" stroke="none" /><path d="M 115.32070863581623 114.36230785411682 l 6.847368221801903 6.419024911296211 a30.38564501655501,30.38564501655501 0 0,0 -0.3610009220835662,0.3785080235419523 l -6.735860748339372 -6.5359400514206705" fill="#ff6909" stroke="none" /><path d="M 115.07121518719521 114.62390073753431 l 5.106789328499714 4.955219555947282 a28.11572189544539,28.11572189544539 0 0,0 -0.34001195993712874,0.3444303202952044 l -5.020736743507049 -5.042390370223151" fill="#ff4906" stroke="none" /><path d="M 114.81725581225074 114.88116024355365 l 10.088211704279393 10.131720532094349 a35.29768429959278,35.29768429959278 0 0,0 -0.4342456390392369,0.42500075439159907 l -9.912316112864362 -10.30387138940852" fill="#ffac0f" stroke="none" /><path d="M 114.55890576462653 115.13401014063108 l 4.8615424909785885 5.053582635059126 a28.01236713535176,28.01236713535176 0 0,0 -0.35037357334978725,0.331300082818012 l -4.773833083237994 -5.136517354623059" fill="#ff4806" stroke="none" /><path d="M 114.0293411484842 115.62618273729858 l 8.551924517996696 9.52531796464575 a33.801058365975685,33.801058365975685 0 0,0 -0.43628739761659374,0.3849729021307408 l -8.386694767473514 -9.671114008548779" fill="#ff980e" stroke="none" /><path d="M 112.92097659922987 116.55440617244103 l 8.910672802960928 11.416389134141054 a35.482197024745986,35.482197024745986 0 0,0 -0.48470585601586924,0.37165178147495287 l -8.712838218451564 -11.568080257443379" fill="#ffae10" stroke="none" /><path d="M 111.45004920935366 117.60387380957326 l 7.778338883182828 11.958804162674587 a35.26588773202835,35.26588773202835 0 0,0 -0.5117217980437591,0.3266050627904269 l -7.5713352830921385 -12.090923654288822" fill="#ffab0f" stroke="none" /><line stroke="#e1ed5e" stroke-width="0.3" x1="143.8653032363475" x2="146.44561519142675" y1="172.8068346515853" y2="177.08958963109032" /><path d="M 144.38136562736335 173.6633856474863 a86.0,86.0 0 0,1 -40.68145358897372,12.25698825130547" fill="none" id="id18" stroke="none" /><text fill="#e1ed5e" style="font-size:6.75px; font-family:Arial;" text-anchor="middle"><textPath startOffset="21.466115282336833" xlink:href="#id18">June</textPath></text><path d="M 110.8373102113329 117.98757091392108 l 8.874258939337093 14.729334019884174 a38.19609701041843,38.19609701041843 0 0,0 -0.5660882186170941,0.3344548976705803 l -8.619402849691616 -14.879907489848504" fill="#ffd213" stroke="none" /><path d="M 110.5260780823613 118.17145234162733 l 5.78151976122893 9.980793414348351 a32.53439239532712,32.53439239532712 0 0,0 -0.48701077937812765,0.27653743073148596 l -5.608860214929604 -10.078834010874465" fill="#ff870c" stroke="none" /><path d="M 110.21172684928248 118.3499491758327 l 6.385962730990723 11.475247358449973 a34.13247204220194,34.13247204220194 0 0,0 -0.5158508571774273,0.28128301740244394 l -6.187489061944646 -11.583471027612187" fill="#ff9c0e" stroke="none" /><path d="M 109.2508944713604 118.85261126421891 l 14.83396974465915 30.230489166970052 a54.67386425196486,54.67386425196486 0 0,0 -0.8484533214852514,0.4073091547363563 l -14.311403755173666 -30.48135259820597" fill="#6bff28" stroke="none" /><path d="M 107.93186726928326 119.44442032107085 l 4.8797771157082135 11.962433824179106 a33.919444558372234,33.919444558372234 0 0,0 -0.5425155495011258,0.21587813339142112 l -4.673140490165221 -12.044658801976595" fill="#ff9a0e" stroke="none" /><path d="M 106.91757812671514 119.82793768551818 l 9.797856613569792 28.08371467974373 a50.74378967840727,50.74378967840727 0 0,0 -0.8271969082088736,0.2806301031771464 l -9.31298997242369 -28.248207769818997" fill="#96ff23" stroke="none" /><path d="M 105.88484417918355 120.15858648285463 l 3.911098541042577 13.397503108317089 a34.95671097841864,34.95671097841864 0 0,0 -0.5790642959508284,0.1636493541526179 l -3.6799030769871424 -13.462841255808225" fill="#ffa70f" stroke="none" /><path d="M 105.18746579009965 120.34920634021253 l 2.8524277604313704 11.189402189089556 a32.54725359025607,32.54725359025607 0 0,0 -0.5440764982613867,0.1337207659572126 l -2.659397977426772 -11.236844213360799" fill="#ff870c" stroke="none" /><path d="M 104.48393922423573 120.51570834832081 l 6.2398123126686045 28.549488107031575 a50.22342431801701,50.22342431801701 0 0,0 -0.8461655409509445,0.17732221621972158 l -5.747455310288282 -28.652666303977835" fill="#9cff22" stroke="none" /><path d="M 101.98527174616119 120.90594882070398 l 1.6711241913570531 17.597810921908053 a38.67697953006014,38.67697953006014 0 0,0 -0.6633206643021541,0.05723409802378325 l -1.3679592093133572 -17.623969272210502" fill="#ffd814" stroke="none" /><path d="M 101.62511606390274 120.93702456842531 l 1.8954607218084796 24.419983644543304 a45.493435294945485,45.493435294945485 0 0,0 -0.7812679479738813,0.053880811877455095 l -1.4748300130556677 -24.448992800937045" fill="#d2ff1c" stroke="none" /><path d="M 101.26447882468166 120.96189622390904 l 0.5932917112550703 9.835292643168719 a30.853170882077134,30.853170882077134 0 0,0 -0.530398229319412,0.02741553003135072 l -0.42390541352217864 -9.844047979962271" fill="#ff700a" stroke="none" /><line stroke="#e1ed5e" stroke-width="0.3" x1="102.19456741930631" x2="102.32365962044197" y1="184.97166512339345" y2="189.96999836594603" /><path d="M 102.22038585953345 185.97133177190398 a86.0,86.0 0 0,1 -42.740103519485714,-10.115201625700543" fill="none" id="id19" stroke="none" /><text fill="#e1ed5e" style="font-size:6.75px; font-family:Arial;" text-anchor="middle"><textPath startOffset="22.20632615414155" xlink:href="#id19">July</textPath></text><path d="M 100.54218724476979 120.99299961872073 l 0.3576394927567459 13.84747761498817 a34.85209523156615,34.85209523156615 0 0,0 -0.5998548623041685,0.010327045449871983 l -0.11922494055990943 -13.851582137717202" fill="#ffa60f" stroke="none" /><path d="M 100.18074693466247 120.99922214144158 l 0.20269789468497898 23.549489932104443 a44.55036225833476,44.55036225833476 0 0,0 -0.7668896586948527,0.0 l 0.20269789468496277 -23.549489932104443" fill="#deff1b" stroke="none" /><path d="M 99.45781275523022 120.99299961872073 l -0.4123493449950688 15.965793599472939 a36.97111759531214,36.97111759531214 0 0,0 -0.6360434458585612,-0.021906622316717132 l 0.687113142528273 -15.956330178730129" fill="#ffc212" stroke="none" /><path d="M 99.09653310690486 120.98055641714683 l -0.613713166587107 14.251815770930248 a35.265023540793,35.265023540793 0 0,0 -0.6062425840907365,-0.03133581684793793 l 0.8589438190913324 -14.239140147320109" fill="#ffab0f" stroke="none" /><path d="M 98.73552117531835 120.96189622390904 l -0.8589870553332213 14.239856896068996 a35.26574159242182,35.26574159242182 0 0,0 -0.6056256993797459,-0.04176749406021089 l 1.103975515491897 -14.222961057492501" fill="#ffab0f" stroke="none" /><path d="M 97.65516085044442 120.86867818915974 l -1.4717625336654454 13.098441610268972 a34.18086710247573,34.18086710247573 0 0,0 -0.5841226599715932,-0.07072911941177185 l 1.697012616688428 -13.071166962131851" fill="#ff9d0e" stroke="none" /><path d="M 96.22490169976321 120.6578951692458 l -2.2964446557836937 12.566484151731526 a33.77459126519503,33.77459126519503 0 0,0 -0.5710035097022944,-0.10943418163424887 l 2.512415780057683 -12.525092771748808" fill="#ff980e" stroke="none" /><path d="M 94.11515582081647 120.15858648285463 l -3.93405435075853 13.476138440256735 a35.0386285261662,35.0386285261662 0 0,0 -0.5775117235332384,-0.17399954489965888 l 4.165441048732014 -13.40642352625135" fill="#ffa80f" stroke="none" /><path d="M 93.42475214034765 119.94407469862007 l -3.476630309601292 10.545332445892138 a32.10364781069824,32.10364781069824 0 0,0 -0.5233357299393131,-0.17754389363852882 l 3.6576357724778306 -10.483925565355486" fill="#ff810b" stroke="none" /><path d="M 90.42595943632237 118.69057910512821 l -6.408058267526333 12.509903124273476 a35.055635415687185,35.055635415687185 0 0,0 -0.5346970924456657,-0.279728247422327 l 6.622446262498494 -12.397745457906431" fill="#ffa90f" stroke="none" /><line stroke="#e1ed5e" stroke-width="0.3" x1="58.666819895761336" x2="56.23545636021788" y1="174.27360380694188" y2="178.64263932499728" /><path d="M 58.180547188652646 175.14741091055294 a86.0,86.0 0 0,1 -31.652253787137756,-30.449443065178592" fill="none" id="id20" stroke="none" /><text fill="#e1ed5e" style="font-size:6.75px; font-family:Arial;" text-anchor="middle"><textPath startOffset="22.20632615414155" xlink:href="#id20">August</textPath></text><path d="M 89.7882731507175 118.34994917583269 l -9.327176345412372 16.7604573074114 a40.180957946150144,40.180957946150144 0 0,0 -0.6014730322218769,-0.3415320851774658 l 9.614298144555457 -16.597422056439303" fill="#ffeb16" stroke="none" /><path d="M 88.24862548938628 117.40417183066458 l -9.505996248207332 14.078692835125459 a37.98745291727823,37.98745291727823 0 0,0 -0.5387762534344446,-0.3705752199363854 l 9.746929386264668 -13.912976825823975" fill="#ffcf13" stroke="none" /><path d="M 87.65650970185807 116.9893568818739 l -9.061807627062686 12.47250818467687 a36.41686796618311,36.41686796618311 0 0,0 -0.5039661505359783,-0.37282211003746524 l 9.275158748017228 -12.314676125899636" fill="#ffbb11" stroke="none" /><path d="M 87.36589467227662 116.77436683061367 l -21.187005796170435 28.130096912160433 a56.216353685390224,56.216353685390224 0 0,0 -0.7679455648184645,-0.5888279122239986 l 21.668080089482388 -27.76122965810907" fill="#5bff2a" stroke="none" /><path d="M 86.51685102203217 116.09983520530335 l -10.883567078825145 12.995750228768816 a37.951152066093655,37.951152066093655 0 0,0 -0.49722248271696823,-0.4237437867828002 l 11.105655038119169 -12.806482051763064" fill="#ffce13" stroke="none" /><path d="M 84.4343377721795 114.09645910891817 l -21.323558569533205 19.31088231471501 a49.7681130045244,49.7681130045244 0 0,0 -0.5695869300161487,-0.6399369540227181 l 21.652804349197687 -18.940971190951423" fill="#a1ff22" stroke="none" /><path d="M 84.19399662182784 113.82643327865904 l -5.899947680636536 5.1610284397733475 a28.838724206808003,28.838724206808003 0 0,0 -0.3236219701788924,-0.3764454636214669 l 5.98791216038621 -5.05870587699035" fill="#ff5407" stroke="none" /><path d="M 82.44556493220864 111.52570212397912 l -1.7273180564695017 1.134103906810761 a23.066354117679012,23.066354117679012 0 0,0 -0.2150609502792575,-0.33377937071074343 l 1.7465838701258047 -1.1042029361785692" fill="#ff0000" stroke="none" /><path d="M 82.05923443525364 110.91462005526583 l -13.66305402187772 8.312189516393989 a36.992859023989396,36.992859023989396 0 0,0 -0.32627547399247986,-0.5468564617415975 l 13.80411037156843 -8.07577096076628" fill="#ffc212" stroke="none" /><line stroke="#e1ed5e" stroke-width="0.3" x1="26.63291911575756" x2="22.317208475507996" y1="142.92168965132927" y2="145.44649492493687" /><path d="M 25.769776987707644 143.4266507060508 a86.0,86.0 0 0,1 -11.730757126820373,-40.83630448921669" fill="none" id="id21" stroke="none" /><text fill="#e1ed5e" style="font-size:6.75px; font-family:Arial;" text-anchor="middle"><textPath startOffset="21.46611528233685" xlink:href="#id21">September</textPath></text><path d="M 81.51974371655577 109.97397251340807 l -26.468341703006242 14.285219240048065 a51.07724391036085,51.07724391036085 0 0,0 -0.4109224878781513,-0.7773104868826155 l 26.710316699109278 -13.827493738079323" fill="#92ff23" stroke="none" /><path d="M 81.02952815118164 109.00673069616217 l -10.982546487539311 5.214252937915702 a33.157498141127746,33.157498141127746 0 0,0 -0.24035299329361454,-0.5176989647483514 l 11.070674097672752 -5.0244339058885235" fill="#ff8f0d" stroke="none" /><path d="M 80.87730276802145 108.67885076344099 l -8.812149774071473 3.99940091434181 a30.67725122719804,30.67725122719804 0 0,0 -0.21409641253734085,-0.48273089046948003 l 8.879687271340094 -3.847121687379634" fill="#ff6d0a" stroke="none" /><path d="M 80.45479744820244 107.68017299344265 l -27.876837364395293 10.954040148789923 a50.951778862402264,50.951778862402264 0 0,0 -0.3137312605616734,-0.81905332247026 l 28.061262904550475 -10.472563259486504" fill="#94ff23" stroke="none" /><path d="M 80.32549172779594 107.34259656027581 l -7.288669252954428 2.7201573246605903 a28.779714348860626,28.779714348860626 0 0,0 -0.16921888082305298,-0.46561768340762183 l 7.334412394782706 -2.5942918442468517" fill="#ff5307" stroke="none" /><path d="M 80.20201598880116 107.00284435728193 l -22.24567204074595 7.868628383393111 a44.596297107393056,44.596297107393056 0 0,0 -0.24975873551473343,-0.725915794878418 l 22.377821607203913 -7.484539885425397" fill="#ddff1b" stroke="none" /><path d="M 79.4281124754447 104.21870165774334 l -54.45122785016342 11.166378628283434 a76.58438833036303,76.58438833036303 0 0,0 -0.25371338234099733,-1.2936790705282568 l 54.63537116548009 -10.227435830687222" fill="#44ffe4" stroke="none" /><path d="M 79.35854240842038 103.8639653848113 l -6.764080362008542 1.2661980028747934 a27.881572532945775,27.881572532945775 0 0,0 -0.0842469033520651,-0.4725013745022504 l 6.784873707699797 -1.1495778776393295" fill="#ff4606" stroke="none" /><path d="M 79.29508885075956 103.50808413554451 l -6.666650620961174 1.1295470486223174 a27.76166451674537,27.76166451674537 0 0,0 -0.07577380505286901,-0.4718435563959683 l 6.6851061803753336 -1.0146242625331354" fill="#ff4406" stroke="none" /><path d="M 79.23777060512086 103.15116336523772 l -10.704063105100511 1.6245968038627296 a31.826646836998748,31.826646836998748 0 0,0 -0.07754478992259992,-0.5423480801095554 l 10.73044194603971 -1.4401032517727737" fill="#ff7d0b" stroke="none" /><path d="M 79.18660465613746 102.79330883721812 l -10.518598633288248 1.41167234043717 a31.612904221040004,31.612904221040004 0 0,0 -0.06773966563194021,-0.5399517847380804 l 10.541339808167036 -1.230402801411681" fill="#ff7a0b" stroke="none" /><path d="M 79.1416061653843 102.43462659150553 l -13.781817024288415 1.608636718274642 a34.875380808552514,34.875380808552514 0 0,0 -0.06446581034582823,-0.5968733399172693 l 13.807465136135296 -1.3711670564725906" fill="#ffa60f" stroke="none" /><path d="M 79.07016306316243 101.71520430193888 l -15.193374748761892 1.2451000840899764 a36.244307477734644,36.244307477734644 0 0,0 -0.045604730113795865,-0.6222403092759369 l 15.212556037540024 -0.9833866383172789" fill="#ffb811" stroke="none" /><path d="M 79.0095281055655 100.63252640178507 l -30.289915513004072 0.9127556238930647 a51.303664870999896,51.303664870999896 0 0,0 -0.019001747114096298,-0.8829365224604556 l 30.301139322803174 -0.3912292856424802" fill="#90ff24" stroke="none" /><line stroke="#e1ed5e" stroke-width="0.3" x1="15.007084014347285" x2="10.007500721073583" y1="101.09737516637583" y2="101.16192664675087" /><path d="M 14.007167355692545 101.11028546245083 a86.0,86.0 0 0,1 10.666146001902534,-42.60595125391555" fill="none" id="id22" stroke="none" /><text fill="#e1ed5e" style="font-size:6.75px; font-family:Arial;" text-anchor="middle"><textPath startOffset="22.20632615414155" xlink:href="#id22">October</textPath></text><path d="M 79.00019446554 99.90962569577889 l -14.621445116701354 -0.06292453170391518 a35.62158051639425,35.62158051639425 0 0,0 0.007916460129796875,-0.6131385612979072 l 14.618195649453842 0.31459935106229436" fill="#ffb010" stroke="none" /><path d="M 79.00486145842228 99.54816195383935 l -10.314271917624387 -0.22197426616642058 a31.31666020403576,31.31666020403576 0 0,0 0.016237398330013437,-0.5388402006983707 l 10.308922824838728 0.3994846142897857" fill="#ff760a" stroke="none" /><path d="M 79.03285615573316 98.82574320788736 l -18.180601736541153 -1.0181975777147094 a39.20909129555858,39.20909129555858 0 0,0 0.043539658869830175,-0.6735392516070902 l 18.160381486666907 1.3309958935748114" fill="#ffdf14" stroke="none" /><path d="M 79.05617556472873 98.46500227214037 l -22.917168878800215 -1.6796264820999582 a43.97863735165383,43.97863735165383 0 0,0 0.061832950891558346,-0.7545186179984306 l 22.884861444089157 2.0738590173061673" fill="#e4ff1a" stroke="none" /><path d="M 79.26566170972629 96.67025291283419 l -30.094378899251662 -4.832884902184387 a51.47996748373406,51.47996748373406 0 0,0 0.1480371145401023,-0.8737234299162802 l 30.006729923191337 5.350194120416495" fill="#8eff24" stroke="none" /><path d="M 79.81627453868168 94.20196356495316 l -6.578524567559941 -1.8897663468849037 a27.84457466405389,27.84457466405389 0 0,0 0.13629800347131016,-0.45952911033823496 l 6.545020666976924 2.002724843969678" fill="#ff4606" stroke="none" /><path d="M 80.02781315780177 93.51064311812611 l -5.031488702573163 -1.6348297808393708 a26.29042030243729,26.29042030243729 0 0,0 0.1435490828454761,-0.4291934864358362 l 5.002602325955914 1.7211963701975292" fill="#ff2f04" stroke="none" /><path d="M 80.2630227832202 92.82701384747504 l -2.352323439476944 -0.8549021094923749 a23.502855005933654,23.502855005933654 0 0,0 0.14145966808864602,-0.37904158115542136 l 2.3372591828866702 0.8952668276771376" fill="#ff0601" stroke="none" /><path d="M 80.803312248108 91.48605970444005 l -12.590818630555043 -5.584165324677126 a34.773583998395566,34.773583998395566 0 0,0 0.24738537524955084,-0.5450808821882552 l 12.49283093834214 5.800068215707452" fill="#ffa50f" stroke="none" /><path d="M 80.95270993114464 91.15688171328213 l -11.668679819898927 -5.417438151263742 a33.86494169680082,33.86494169680082 0 0,0 0.2500229393388466,-0.5266120740467377 l 11.573698686718329 5.617492640951012" fill="#ff990e" stroke="none" /><path d="M 81.43458229118936 90.18545643968196 l -21.167853542653322 -11.19031222088851 a44.94370713160741,44.94370713160741 0 0,0 0.36745097645685715,-0.6808308532428706 l 20.972094466977993 11.553024057463853" fill="#d9ff1c" stroke="none" /><line stroke="#e1ed5e" stroke-width="0.3" x1="26.266209847984243" x2="21.928928074336255" y1="57.711370442889674" y2="55.22380399835377" /><path d="M 25.398753493254645 57.213857153982495 a86.0,86.0 0 0,1 29.58750427330803,-30.492523968695096" fill="none" id="id23" stroke="none" /><text fill="#e1ed5e" style="font-size:6.75px; font-family:Arial;" text-anchor="middle"><textPath startOffset="21.46611528233685" xlink:href="#id23">November</textPath></text><path d="M 82.15384107792192 88.93136811851018 l -13.116441102673754 -8.135143186533536 a36.43442845930203,36.43442845930203 0 0,0 0.33514886308989905,-0.5301250152346603 l 12.974464643337893 8.359715849482413" fill="#ffbb11" stroke="none" /><path d="M 82.34701348167596 88.62581576622439 l -3.917652598477431 -2.5242245765473177 a25.66044113740346,25.66044113740346 0 0,0 0.24243418380289916,-0.3692438943851283 l 3.8736217793166117 2.5912865349101133" fill="#ff2603" stroke="none" /><path d="M 82.54541684631803 88.32363383020206 l -11.402671364235266 -7.627897211317516 a34.71880935457507,34.71880935457507 0 0,0 0.33656667455727407,-0.49387006476648787 l 11.269680224009251 7.82304529935442" fill="#ffa40f" stroke="none" /><path d="M 82.7489923806493 88.02491185347247 l -5.686843324861781 -3.947621587873059 a27.922709238626624,27.922709238626624 0 0,0 0.2774817637612874,-0.39247827648492317 l 5.618048941296616 4.044926364689768" fill="#ff4706" stroke="none" /><path d="M 82.95767976084542 87.72973835380427 l -5.7595577253632575 -4.146810954426761 a28.097080123793543,28.097080123793543 0 0,0 0.28597126198355954,-0.3900644799646073 l 5.687323850866065 4.245337878062871" fill="#ff4906" stroke="none" /><path d="M 83.17141714833178 87.43820079747577 l -50.48574855500465 -37.685397607572696 a84.0,84.0 0 0,0 0.8748962391035646,-1.151260896475903 l 49.82957637567698 38.54884327992962" fill="#4dd2ff" stroke="none" /><path d="M 83.6137871275137 86.86637796730984 l -11.582038133808503 -9.283054748608581 a35.843136892134986,35.843136892134986 0 0,0 0.39001003945548235,-0.47810619306626545 l 11.420529602276627 9.481045111282928" fill="#ffb310" stroke="none" /><path d="M 84.07557802195018 86.31012108654704 l -8.465657675268556 -7.277741613285432 a32.163909837712765,32.163909837712765 0 0,0 0.36453677335829904,-0.41672854850156016 l 8.339129038332414 7.422385717989935" fill="#ff820b" stroke="none" /><path d="M 84.5562425177563 85.77008943001954 l -21.888270204780103 -20.167898123477787 a50.7630725442862,50.7630725442862 0 0,0 0.5976328747681801,-0.6375130820555449 l 21.537870008041462 20.541680622411384" fill="#96ff23" stroke="none" /><path d="M 84.80347519578584 85.50635884689758 l -5.211477942975946 -4.97043186886093 a28.201714748107783,28.201714748107783 0 0,0 0.3380656869976033,-0.3484064072638707 l 5.125147992275228 5.059402471674924" fill="#ff4b06" stroke="none" /><path d="M 85.31137513191541 84.99185889309783 l -2.5109320842589766 -2.565551463723969 a24.589823706643173,24.589823706643173 0 0,0 0.30505052915223396,-0.2934583673532339 l 2.4663983114943155 2.6083929178395118" fill="#ff1702" stroke="none" /><path d="M 86.65592168130627 83.78471172551755 l -19.579541893549106 -23.792420016108238 a51.81294713240122,51.81294713240122 0 0,0 0.6935449213940569,-0.560798426950973 l 19.16709357359055 24.12592454032335" fill="#8aff24" stroke="none" /><path d="M 86.93701828274178 83.55741782278169 l -9.476691359921112 -11.92846165035763 a36.234693186121476,36.234693186121476 0 0,0 0.4917003777062479,-0.3837799440218845 l 9.269958427055439 12.089819983602732" fill="#ffb811" stroke="none" /><path d="M 87.51073957382395 83.11751280151077 l -5.060018610582257 -6.8399325902621 a29.50814117059469,29.50814117059469 0 0,0 0.41094257576353427,-0.2985672578602736 l 4.941530718464941 6.926019082939041" fill="#ff5d08" stroke="none" /><path d="M 87.80319425747018 82.90503203632743 l -7.963960723689205 -11.162238401541929 a34.71204713167664,34.71204713167664 0 0,0 0.4893883922377989,-0.3428478435143879 l 7.770641191867745 11.29767108782026" fill="#ffa40f" stroke="none" /><path d="M 88.09926311788651 82.69761687909137 l -7.456186750317837 -10.840488370845373 a34.15716188902641,34.15716188902641 0 0,0 0.48730120734991283,-0.3290279504683837 l 7.268480848561384 10.967228233612422" fill="#ff9d0e" stroke="none" /><path d="M 88.39885842347998 82.49532879139004 l -19.940664420897367 -30.087967814779528 a57.095926429031444,57.095926429031444 0 0,0 0.8239023048281392,-0.535888977393816 l 19.419795090284943 30.426755716332877" fill="#52ff2b" stroke="none" /><path d="M 89.00827224532344 82.1063720568725 l -5.665835584150692 -9.223513918145455 a31.824735648728385,31.824735648728385 0 0,0 0.4692450185448502,-0.28271487325492517 l 5.506228499388194 9.319675400859" fill="#ff7d0b" stroke="none" /><line stroke="#e1ed5e" stroke-width="0.3" x1="56.76296977257108" x2="54.21961505331056" y1="26.818313649435495" y2="22.513508569990535" /><path d="M 56.25429882871898 25.957352633546506 a86.0,86.0 0 0,1 42.26535254187918,-11.944610805530505" fill="none" id="id24" stroke="none" /><text fill="#e1ed5e" style="font-size:6.75px; font-family:Arial;" text-anchor="middle"><textPath startOffset="22.20632615414155" xlink:href="#id24">December</textPath></text><path d="M 89.3179101791058 81.91981866633112 l -8.453843339816626 -14.30871890361231 a37.61947363416646,37.61947363416646 0 0,0 0.5603568702715199,-0.32459486779455693 l 8.206289737079782 14.452117928796913" fill="#ffca12" stroke="none" /><path d="M 89.63071344664047 81.73862282372117 l -6.734901010254175 -11.860851463624178 a34.63960003299505,34.63960003299505 0 0,0 0.5210388197429672,-0.28995753907020244 l 6.529738101439163 11.975024400254565" fill="#ffa30f" stroke="none" /><path d="M 90.58718382345135 81.22770947309562 l -4.998443002205508 -9.968560148168015 a32.151530113573685,32.151530113573685 0 0,0 0.4968616824492478,-0.2438078697312497 l 4.826110052745834 10.053123178034095" fill="#ff820b" stroke="none" /><path d="M 90.91171255644093 81.06846463323043 l -12.954261455551046 -26.984628338307076 a50.93297607013611,50.93297607013611 0 0,0 0.793637120643056,-0.37262326965387804 l 12.487846123608382 27.203616590600962" fill="#94ff23" stroke="none" /><path d="M 91.56875222667455 80.76684994638697 l -4.933722052565686 -11.254682475354254 a33.2885919011504,33.2885919011504 0 0,0 0.5267780842401085,-0.22553888424523105 l 4.73926021053527 11.33794088756227" fill="#ff910d" stroke="none" /><path d="M 92.91201910852362 80.23233633223022 l -9.939436704219492 -27.720086273422737 a50.448184748863305,50.448184748863305 0 0,0 0.8199463484346265,-0.2860631809002562 l 9.460808351721582 27.887070307495204" fill="#99ff23" stroke="none" /><path d="M 93.25333710446033 80.11325718540243 l -1.0579563965501537 -3.118476066317283 a24.293047936668263,24.293047936668263 0 0,0 0.3971533646069909,-0.13093522011158967 l 1.0041202097007536 3.136225010688107" fill="#ff1202" stroke="none" /><path d="M 93.59665428221793 80.00007090966166 l -4.217710119379622 -13.173410749468717 a34.83213032852623,34.83213032852623 0 0,0 0.5725981375739765,-0.17790902860914407 l 3.9903266090949163 13.244059912960386" fill="#ffa60f" stroke="none" /><path d="M 93.94186890950719 79.89281104454417 l -2.8646520088402676 -9.507899114921893 a30.930074355778263,30.930074355778263 0 0,0 0.5110970651427146,-0.14920324851948752 l 2.700564725974132 9.555800692360078" fill="#ff710a" stroke="none" /><path d="M 94.28887869178378 79.79150937346287 l -3.7860758064887285 -13.39682232571651 a34.92153793369452,34.92153793369452 0 0,0 0.5798673328111011,-0.1584996466726738 l 3.554910584453905 13.46000851321548" fill="#ffa70f" stroke="none" /><path d="M 94.98787191387505 79.60689891045804 l -2.523135796024405 -10.266011256457919 a31.571527863223007,31.571527863223007 0 0,0 0.5288626508897246,-0.12516470259865278 l 2.3460494581721467 10.307921871197443" fill="#ff7a0b" stroke="none" /><path d="M 95.692805502759 79.44645832069477 l -4.460018462853063 -21.28280378920441 a42.745102938794375,42.745102938794375 0 0,0 0.721442872013988,-0.14471465314384174 l 4.093009181371938 21.35642239842546" fill="#f3ff19" stroke="none" /><path d="M 96.40284397218896 79.31037775812273 l -1.7300499277804031 -9.950660796647528 a31.099936784086868,31.099936784086868 0 0,0 0.5282113877052731,-0.08715940486118433 l 1.5585093339362446 9.97896646444834" fill="#ff730a" stroke="none" /><path d="M 97.47563105711357 79.15227682838746 l -0.8334967253625414 -6.883506091203569 a27.93378488985826,27.93378488985826 0 0,0 0.4778450299730577,-0.05369145681126341 l 0.7148849918797657 6.89683350148543" fill="#ff4706" stroke="none" /><path d="M 98.19473922651362 79.07773832637324 l -1.591226191853575 -18.441685133164658 a39.510206680219085,39.510206680219085 0 0,0 0.6780888622796571,-0.05263274632184755 l 1.2735471402115837 18.46634314167497" fill="#ffe215" stroke="none" /><path d="M 98.55514903715128 79.0497635885617 l -0.4651709127099516 -6.744945218282991 a27.76096664506415,27.76096664506415 0 0,0 0.4770100155445959,-0.028774546795495723 l 0.34899884832573275 6.7519530344587935" fill="#ff4406" stroke="none" /><path d="M 98.91598698831166 79.02799685794201 l -1.2797603521915015 -24.759055322998165 a45.79210775723446,45.79210775723446 0 0,0 0.7875352152733892,-0.03391292299400759 l 0.8533843045287881 24.777415972516366" fill="#cfff1d" stroke="none" /></svg>