<?xml version="1.0" encoding="utf-8" ?>
<svg baseProfile="full" height="200mm" version="1.1" viewBox="0,0,200,200" width="200mm" xmlns="http://www.w3.org/2000/svg" xmlns:ev="http://www.w3.org/2001/xml-events" xmlns:xlink="http://www.w3.org/1999/xlink"><defs /><rect fill="#1a1a1a" height="200" width="200" x="0" y="0" /><text alignment-baseline="middle" fill="#e1ed5e" style="dominant-baseline: central; font-size:9.0px; font-family:Arial;" text-anchor="middle" x="100.0" y="100.0">2020</text><line stroke="#e1ed5e" stroke-width="0.3" x1="100.0" x2="100.0" y1="15.0" y2="10.0" /><path d="M 100.0 14.0 a86.0,86.0 0 0,1 42.35913384403234,11.155469271406648" fill="none" id="id73" stroke="none" /><text fill="#e1ed5e" style="font-size:6.75px; font-family:Arial;" text-anchor="middle"><textPath startOffset="22.145653131862478" xlink:href="#id73">January</textPath></text><line stroke="#e1ed5e" stroke-width="0.3" x1="143.13028292997686" x2="145.6673583964461" y1="26.7553504044142" y2="22.446841604673864" /><path d="M 143.63769802327073 25.89364864446614 a86.0,86.0 0 0,1 29.32050498858742,28.57503671076993" fill="none" id="id74" stroke="none" /><text fill="#e1ed5e" style="font-size:6.75px; font-family:Arial;" text-anchor="middle"><textPath startOffset="20.669276256404974" xlink:href="#id74">February</textPath></text><line stroke="#e1ed5e" stroke-width="0.3" x1="172.87174338648825" x2="177.1583165268699" y1="56.24261187166439" y2="53.66864786411523" /><path d="M 173.72905801456457 55.72781907015455 a86.0,86.0 0 0,1 12.242430191666344,42.057860355516425" fill="none" id="id75" stroke="none" /><text fill="#e1ed5e" style="font-size:6.75px; font-family:Arial;" text-anchor="middle"><textPath startOffset="22.145653131862474" xlink:href="#id75">March</textPath></text><line stroke="#e1ed5e" stroke-width="0.3" x1="184.99686870605535" x2="189.99668451229388" y1="99.2704041080226" y2="99.22748670261217" /><path d="M 185.99683186730306 99.26182062694052 a86.0,86.0 0 0,1 -10.086455211305974,41.156179273409016" fill="none" id="id76" stroke="none" /><text fill="#e1ed5e" style="font-size:6.75px; font-family:Arial;" text-anchor="middle"><textPath startOffset="21.40746469413373" xlink:href="#id76">April</textPath></text><path d="M 120.98066250479742 100.90099992219065 l 4.9513363241357435 0.2126316860473748 a25.955899880810488,25.955899880810488 0 0,0 -0.02293810695296083,0.4449931469229205 l -4.946956627726211 -0.297596626347026" fill="#ff2c04" stroke="none" /><path d="M 120.96210409425399 101.26102812881392 l 4.872002739427328 0.2930875865538892 a25.880810488676996,25.880810488676996 0 0,0 -0.03048517777749901,0.4432477943079962 l -4.866253600484764 -0.37667880501622897" fill="#ff2b04" stroke="none" /><path d="M 120.93736805541906 101.62068470465957 l 4.688448180467051 0.36291554098678985 a25.702473182359952,25.702473182359952 0 0,0 -0.03782715875120074,0.4396089236902525 l -4.68152739901811 -0.44334551205269973" fill="#ff2803" stroke="none" /><path d="M 120.9064616781168 101.97986365728391 l 4.690871765084014 0.4442304332344416 a25.71185935637664,25.71185935637664 0 0,0 -0.04538462434232245,0.4390550708997124 l -4.682554748260026 -0.5246900264170854" fill="#ff2803" stroke="none" /><path d="M 120.86939407059847 102.33845913500097 l 4.869110714326162 0.5455940115333039 a25.89958283671037,25.89958283671037 0 0,0 -0.053301235092744974,0.44141068868117156 l -4.859027392973753 -0.6290983771378841" fill="#ff2b04" stroke="none" /><path d="M 120.82617615685814 102.69636545807757 l 4.682166242654786 0.606200160345509 a25.721245530393325,25.721245530393325 0 0,0 -0.06045164323593816,0.4373979765028458 l -4.671070082863637 -0.6864864450484399" fill="#ff2803" stroke="none" /><path d="M 120.77682067341334 103.0534771498775 l 4.652497239591813 0.683756876678466 a25.702473182359952,25.702473182359952 0 0,0 -0.06790166002445355,0.4359773667212654 l -4.640074087429093 -0.763522425331182" fill="#ff2803" stroke="none" /><path d="M 120.7213421655516 103.40968896794604 l 14.827861504938076 2.4399189679744953 a36.027264600715135,36.027264600715135 0 0,0 -0.10565455550907654,0.6093873995708327 l -14.783792131936766 -2.694099400465916" fill="#ffb710" stroke="none" /><path d="M 120.65975698304385 103.76489593502545 l 14.802260329478223 2.6974649212659982 a36.04603694874851,36.04603694874851 0 0,0 -0.11616042708838548,0.6078004392507722 l -14.753773610107677 -2.951167925550085" fill="#ffb711" stroke="none" /><path d="M 120.592083275326 104.11899336999214 l 9.213055136442787 1.8428690539461232 a30.39556019070322,30.39556019070322 0 0,0 -0.10673515186848914,0.5107663402506333 l -9.180062273749934 -2.000751845482166" fill="#ff6b09" stroke="none" /><path d="M 120.51834098615036 104.47187691870673 l 7.345883997276421 1.6010012270042107 a28.518325387365913,28.518325387365913 0 0,0 -0.10835488630838677,0.47743162189300664 l -7.31731824941037 -1.7268671828362343" fill="#ff5007" stroke="none" /><path d="M 120.43855184770803 104.8234425847677 l 8.23084112698969 1.9424560945511193 a29.456942789034564,29.456942789034564 0 0,0 -0.12037014866642944,0.49115128297299493 l -8.196283451806964 -2.083463202132214" fill="#ff5e08" stroke="none" /><path d="M 120.35273937422433 105.17358676015961 l 5.467221259196432 1.3897462646853056 a26.641090584028603,26.641090584028603 0 0,0 -0.11647296944989893,0.4422668363029768 l -5.442558808941802 -1.4833936053610857" fill="#ff3605" stroke="none" /><path d="M 120.16314734710363 105.8691983318838 l 10.697402816304537 3.1138580542071215 a32.14138855780691,32.14138855780691 0 0,0 -0.15875348101947442,0.5284387065423864 l -10.642373015281432 -3.2970343643402313" fill="#ff830c" stroke="none" /><path d="M 119.94978838288452 106.5578916946017 l 4.467302136393838 1.4684909441278815 a25.702473182359952,25.702473182359952 0 0,0 -0.14138144543847164,0.41796912160231997 l -4.441435269383001 -1.5449617402043618" fill="#ff2803" stroke="none" /><path d="M 119.31412917781788 108.2440532568976 l 25.90660086232038 11.057987406413762 a49.167908224076285,49.167908224076285 0 0,0 -0.33800857331695244,0.7734297636282182 l -25.712958406986463 -11.501079239817825" fill="#a7ff21" stroke="none" /><path d="M 118.8641267826498 109.22738970284198 l 6.753649680975493 3.3035484886664563 a28.518325387365913,28.518325387365913 0 0,0 -0.21888505528531882,0.43791673585629576 l -6.6959447124784415 -3.418997080686498" fill="#ff5007" stroke="none" /><line stroke="#e1ed5e" stroke-width="0.3" x1="174.33088141563837" x2="178.70328620479359" y1="141.23008692659167" y2="143.65538615756765" /><path d="M 175.20536237346943 141.71514677278685 a86.0,86.0 0 0,1 -30.301960400862466,31.631185727798858" fill="none" id="id77" stroke="none" /><text fill="#e1ed5e" style="font-size:6.75px; font-family:Arial;" text-anchor="middle"><textPath startOffset="22.145653131862474" xlink:href="#id77">May</textPath></text><path d="M 118.18653347947321 110.5 l 4.543923814820705 2.6234356376638837 a26.24687127532777,26.24687127532777 0 0,0 -0.22863060871892107,0.38826475703000796 l -4.498219495972019 -2.701051562987441" fill="#ff3004" stroke="none" /><path d="M 118.00360718960297 110.81064883170644 l 9.720660377699822 5.836977259550681 a32.33849821215733,32.33849821215733 0 0,0 -0.2898638735680777,0.47347085335765476 l -9.619028539676341 -6.002985229032893" fill="#ff850c" stroke="none" /><path d="M 117.81537515405839 111.11811171558189 l 3.9893487569353026 2.4896486752859923 a25.702473182359952,25.702473182359952 0 0,0 -0.23680827820222203,0.37230194614343115 l -3.9460227871071907 -2.557764296108095" fill="#ff2803" stroke="none" /><path d="M 117.62189284568427 111.42229804090321 l 3.9460227871071907 2.557764296108095 a25.702473182359952,25.702473182359952 0 0,0 -0.24316444193477804,0.3681819576049782 l -3.901533906251686 -2.6251261320521344" fill="#ff2803" stroke="none" /><path d="M 117.423217284605 111.72311816256416 l 3.901533906251686 2.6251261320521344 a25.702473182359952,25.702473182359952 0 0,0 -0.24944894399018822,0.3639534641536931 l -3.855895225446177 -2.691714331275872" fill="#ff2803" stroke="none" /><path d="M 117.21940702142032 112.02048342749411 l 7.157649819690509 4.9965954652426365 a29.729141835518476,29.729141835518476 0 0,0 -0.29571280300481767,0.41595709055516883 l -7.070821918155734 -5.11872978250731" fill="#ff6109" stroke="none" /><path d="M 117.01052211995028 112.31430620078461 l 4.037211224237304 2.922629585496108 a25.984058402860548,25.984058402860548 0 0,0 -0.26466369597084155,0.35906713371900395 l -3.9864455086826327 -2.991503028483992" fill="#ff2c04" stroke="none" /><path d="M 116.57777611688842 112.89097897827486 l 4.467997168571384 3.4743416227203814 a26.659862932061976,26.659862932061976 0 0,0 -0.28403363297128326,0.35886721661248316 l -4.4076971049585385 -3.5505287832475476" fill="#ff3605" stroke="none" /><path d="M 116.35404254752997 113.17365903436017 l 5.474900715777691 4.41019246874364 a28.030244338498214,28.030244338498214 0 0,0 -0.3050667381467723,0.37213181738128764 l -5.398387158392291 -4.50352656782342" fill="#ff4a06" stroke="none" /><path d="M 116.1254893667686 113.45245675266167 l 13.708587950950777 11.436191631508866 a38.85250297973778,38.85250297973778 0 0,0 -0.4316428650728027,0.5084742097052153 l -13.51025052237086 -11.669832623663638" fill="#ffdb14" stroke="none" /><path d="M 115.6541949942343 113.99807769240083 l 7.262688202033018 6.494340574215759 a30.74284862932062,30.74284862932062 0 0,0 -0.3551564647687259,0.3903791690361021 l -7.150134036422412 -6.618057318809533" fill="#ff6f0a" stroke="none" /><path d="M 115.16444852881244 114.52719865689866 l 5.476552925184947 5.246413817688074 a28.584028605482718,28.584028605482718 0 0,0 -0.34248185111534635,0.35141655024868174 l -5.385684272918791 -5.339653060004493" fill="#ff5107" stroke="none" /><path d="M 114.13192950727249 115.5334660781643 l 3.284536655444739 3.6102811504672685 a25.880810488676996,25.880810488676996 0 0,0 -0.3311942339268501,0.2961559262223813 l -3.222077394694511 -3.666132606573037" fill="#ff2b04" stroke="none" /><path d="M 113.31354834802062 116.24036423190432 l 4.462974341931822 5.444103027679488 a28.039630512514897,28.039630512514897 0 0,0 -0.3748621269481863,0.3019623943717993 l -4.368861444628384 -5.519913715844691" fill="#ff4a06" stroke="none" /><path d="M 112.7482090630111 116.68781488649013 l 5.321883461644386 6.9665162860466845 a29.766686531585222,29.766686531585222 0 0,0 -0.4087207186387022,0.3067116469919789 l -5.201509754094918 -7.056846960302678" fill="#ff6209" stroke="none" /><path d="M 111.5731344415666 117.5232005979908 l 2.653613513940852 4.017909076327149 a25.81510727056019,25.81510727056019 0 0,0 -0.37187813591290425,0.24104691479457166 l -2.584249745770938 -4.0628698328256165" fill="#ff2a04" stroke="none" /><path d="M 111.27062007382361 117.71928675628689 l 6.327129981848536 9.947299239822563 a32.789034564958286,32.789034564958286 0 0,0 -0.47752680725324614,0.29801204545598636 l -6.155439045805575 -10.054447082120097" fill="#ff8b0c" stroke="none" /><line stroke="#e1ed5e" stroke-width="0.3" x1="143.1302829299769" x2="145.66735839644613" y1="173.24464959558577" y2="177.55315839532614" /><path d="M 143.63769802327073 174.10635135553383 a86.0,86.0 0 0,1 -40.68552437913181,11.842963189579606" fill="none" id="id78" stroke="none" /><text fill="#e1ed5e" style="font-size:6.75px; font-family:Arial;" text-anchor="middle"><textPath startOffset="21.407464694133747" xlink:href="#id78">June</textPath></text><path d="M 110.02825361518725 118.45085714620011 l 2.2500819345160914 4.139897327499608 a25.71185935637664,25.71185935637664 0 0,0 -0.38960958162486614,0.20744515736828548 l -2.1786835371046718 -4.177912952590462" fill="#ff2803" stroke="none" /><path d="M 109.71004243097381 118.62028667847754 l 0.9070614726192753 1.7394099742856697 a22.961710369487484,22.961710369487484 0 0,0 -0.3510657210733044,0.1792566586223264 l -0.8770685298323885 -1.7547245845808324" fill="#ff0000" stroke="none" /><path d="M 109.06512990194946 118.94263497670748 l 4.866159570429664 10.168401939969765 a32.272794994040524,32.272794994040524 0 0,0 -0.501782466688828,0.23485953089242345 l -4.69088838986933 -10.250437702432722" fill="#ff840c" stroke="none" /><path d="M 108.73861861582097 119.09545874513695 l 5.194739016258293 11.351442251653223 a33.48361144219309,33.48361144219309 0 0,0 -0.5247146547436056,0.23469819096584957 l -4.99911095865906 -11.438944193528922" fill="#ff950d" stroke="none" /><path d="M 108.4095320186766 119.2426549942271 l 3.8263871848984383 8.755522698505596 a30.55512514898689,30.55512514898689 0 0,0 -0.48242894158009075,0.20592022816243466 l -3.675523168147916 -8.819917576327434" fill="#ff6d0a" stroke="none" /><path d="M 107.74402155503746 119.51999308798841 l 1.7340977945800524 4.37105923886272 a25.702473182359952,25.702473182359952 0 0,0 -0.4115183050678868,0.15918412082032132 l -1.6588072270186363 -4.400183247821081" fill="#ff2803" stroke="none" /><path d="M 107.407793817531 119.65005319985036 l 3.3109924690990744 8.782800893854454 a30.38617401668653,30.38617401668653 0 0,0 -0.4896671869986768,0.1798125736631843 l -3.1597361304462703 -8.83834431652636" fill="#ff6b09" stroke="none" /><path d="M 107.06938296918513 119.77432235084164 l 1.6430627878320605 4.595939044593707 a25.880810488676996,25.880810488676996 0 0,0 -0.41963174219957977,0.1459697028892461 l -1.563925273587459 -4.623467180051543" fill="#ff2b04" stroke="none" /><path d="M 106.38641147887787 120.00534299687104 l 2.2864342645625064 7.162222768397064 a28.518325387365913,28.518325387365913 0 0,0 -0.46764535628354353,0.1448777267792665 l -2.1631482754073383 -7.200417082982975" fill="#ff5007" stroke="none" /><path d="M 106.0420521117495 120.11202640906438 l 2.4359047995223717 8.108334842510168 a29.466328963051254,29.466328963051254 0 0,0 -0.48568927344905055,0.14137706898970248 l -2.296355513691714 -8.148955605802389" fill="#ff5e08" stroke="none" /><path d="M 104.9986988182912 120.39639698878246 l 1.1215793236511546 4.576426380379377 a25.71185935637664,25.71185935637664 0 0,0 -0.42959355789119086,0.10138290993970825 l -1.0428536120200846 -4.595005433965311" fill="#ff2803" stroke="none" /><path d="M 104.64783097203109 120.47920084513623 l 1.5019584890249424 6.617906232583504 a27.78620381406436,27.78620381406436 0 0,0 -0.4660640610854372,0.1015764928954773 l -1.3881320113203692 -6.642714183612701" fill="#ff4606" stroke="none" /><path d="M 104.29559338865022 120.5559693870025 l 1.923801210709558 9.206085217122997 a30.404946364719905,30.404946364719905 0 0,0 -0.5118216855795804,0.10237867151822291 l -1.7654830395990189 -9.237753285304082" fill="#ff6b09" stroke="none" /><path d="M 103.58742460773223 120.69131181640829 l 0.8177532255408695 4.716583295456597 a25.78694874851013,25.78694874851013 0 0,0 -0.4368094189267846,0.07187682365892165 l -0.7366663035610126 -4.72992611761119" fill="#ff2904" stroke="none" /><path d="M 103.2317021107853 120.74984581791261 l 0.725110753701232 4.655731198119249 a25.71185935637664,25.71185935637664 0 0,0 -0.4367035581221753,0.06418038433101673 l -0.6450820899713713 -4.6674926557491485" fill="#ff2803" stroke="none" /><path d="M 102.15924093988457 120.88869738790638 l 0.9660608674721914 9.345762553021876 a30.39556019070322,30.39556019070322 0 0,0 -0.5194752296952587,0.04919484434850124 l -0.8054860743919174 -9.36096915287556" fill="#ff6b09" stroke="none" /><path d="M 101.80034050326958 120.92268563240118 l 0.8054860743919174 9.36096915287556 a30.39556019070322,30.39556019070322 0 0,0 -0.5202431787482992,0.04027011228293412 l -0.6446739008683825 -9.373417032153549" fill="#ff6b09" stroke="none" /><path d="M 101.44090949804482 120.95050786540614 l 0.45210896944016427 6.57356519138041 a27.589094159713945,27.589094159713945 0 0,0 -0.4727662549010611,0.028440443912674047 l -0.33919836240663803 -6.5803576131177755" fill="#ff4306" stroke="none" /><path d="M 101.08105385017728 120.97215588758144 l 0.6286283041182849 12.195221160493197 a33.211412395709175,33.211412395709175 0 0,0 -0.5696140570950825,0.024461678510102017 l -0.41918848642237283 -12.204215407429132" fill="#ff910d" stroke="none" /><line stroke="#e1ed5e" stroke-width="0.3" x1="101.45913802915013" x2="101.54496967792366" y1="184.9874750549273" y2="189.98673829345242" /><path d="M 101.47630435890484 185.9873277026323 a86.0,86.0 0 0,1 -42.54439059252881,-10.42667462771756" fill="none" id="id79" stroke="none" /><text fill="#e1ed5e" style="font-size:6.75px; font-family:Arial;" text-anchor="middle"><textPath startOffset="22.145653131862474" xlink:href="#id79">July</textPath></text><path d="M 100.36049292484886 120.99690560180557 l 0.08072420531105912 4.701780262144482 a25.702473182359952,25.702473182359952 0 0,0 -0.44121713015991076,0.0037873184099050643 l -5.758868730853384e-16 -4.702473182359952" fill="#ff2803" stroke="none" /><path d="M 99.27912038922189 120.98762331915562 l -0.1675465126361509 4.877933906120791 a25.880810488676996,25.880810488676996 0 0,0 -0.4438857729901463,-0.019062365015129007 l 0.25125804622713593 -4.874338972679834" fill="#ff2b04" stroke="none" /><path d="M 98.55909050195518 120.95050786540614 l -0.3233029952406883 4.700754595545535 a25.71185935637664,25.71185935637664 0 0,0 -0.44007806926953363,-0.03406482580969147 l 0.403950059285458 -4.69451200274079" fill="#ff2803" stroke="none" /><path d="M 97.48249496171623 120.84855314841334 l -0.5637380918564521 4.668560098639042 a25.702473182359952,25.702473182359952 0 0,0 -0.4375811521405136,-0.056653640824454475 l 0.6437970658877596 -4.658194861614191" fill="#ff2803" stroke="none" /><path d="M 97.12497278360702 120.80226474461374 l -0.9329274846996276 6.750198541979844 a27.81436233611442,27.81436233611442 0 0,0 -0.4724135594677713,-0.06942852478738608 l 1.0486661497750838 -6.733188943893576" fill="#ff4606" stroke="none" /><path d="M 96.41257539226777 120.69131181640829 l -2.64567220027928 15.25953419118311 a36.48718712753278,36.48718712753278 0 0,0 -0.6162256164075642,-0.11229683486478102 l 2.9072325502379015 -15.211869182386963" fill="#ffbd11" stroke="none" /><path d="M 96.05791012581884 120.62667999033965 l -1.0219362903866565 5.347202500475419 a26.44398092967819,26.44398092967819 0 0,0 -0.4451447711996934,-0.08904142124634905 l 1.1135775471173082 -5.328871682566208" fill="#ff3304" stroke="none" /><path d="M 94.30408787586889 120.21278271476187 l -2.0392247965266788 7.236489401605003 a28.518325387365913,28.518325387365913 0 0,0 -0.47006346649905456,-0.1368286243195124 l 2.16314827540734 -7.200417082982974" fill="#ff5007" stroke="none" /><path d="M 93.61358852112213 120.00534299687104 l -1.4329463181153275 4.48868393225384 a25.71185935637664,25.71185935637664 0 0,0 -0.4193203429694344,-0.13783892549436633 l 1.5097893987325053 -4.4634240853574525" fill="#ff2803" stroke="none" /><path d="M 92.93061703081489 119.77432235084164 l -3.1660556027071567 8.856021005159414 a30.404946364719905,30.404946364719905 0 0,0 -0.4899696996759942,-0.17992366050853148 l 3.31761445403727 -8.800366495642164" fill="#ff6b09" stroke="none" /><path d="M 92.59220618246901 119.65005319985036 l -3.3143034615681706 8.79158369474831 a30.39556019070322,30.39556019070322 0 0,0 -0.48665859205532974,-0.1882499980242753 l 3.4647343161170285 -8.733393808585994" fill="#ff6b09" stroke="none" /><path d="M 92.25597844496254 119.51999308798841 l -2.305207846687254 5.8106296468714005 a27.25119189511323,27.25119189511323 0 0,0 -0.4333530457436323,-0.17624091108378617 l 2.404615353621327 -5.770201479208323" fill="#ff3e05" stroke="none" /><path d="M 90.93487009805054 118.94263497670748 l -2.033981768822392 4.250239611877454 a25.71185935637664,25.71185935637664 0 0,0 -0.3965010535703685,-0.19394853422244288 l 2.1066430716548297 -4.21469732755779" fill="#ff2803" stroke="none" /><path d="M 89.97174638481275 118.45085714620012 l -2.335244398173074 4.296586668580271 a25.890196662693683,25.890196662693683 0 0,0 -0.3886683317950314,-0.21558777186988934 l 2.408656918124208 -4.255865981277233" fill="#ff2b04" stroke="none" /><line stroke="#e1ed5e" stroke-width="0.3" x1="58.13341422392154" x2="55.67067388415222" y1="173.97424548756322" y2="178.32567169271397" /><path d="M 57.64086615596768 174.84453072859336 a86.0,86.0 0 0,1 -31.369924170532247,-30.572349798747897" fill="none" id="id80" stroke="none" /><text fill="#e1ed5e" style="font-size:6.75px; font-family:Arial;" text-anchor="middle"><textPath startOffset="22.145653131862474" xlink:href="#id80">August</textPath></text><path d="M 89.65649057296885 118.27599006163327 l -4.62776501927511 8.176817365179483 a30.39556019070322,30.39556019070322 0 0,0 -0.45189156357810145,-0.2608997158763397 l 4.767449050713611 -8.096170752026971" fill="#ff6b09" stroke="none" /><path d="M 89.03521579738668 117.91015095944536 l -4.910628920300304 8.021143293220014 a30.404946364719905,30.404946364719905 0 0,0 -0.4428058695502906,-0.2763436123798927 l 5.04759891864031 -7.935663883998573" fill="#ff6b09" stroke="none" /><path d="M 88.4268655584334 117.5232005979908 l -2.596713419100014 3.9317550805384593 a25.71185935637664,25.71185935637664 0 0,0 -0.3662148844485737,-0.24640571790801227 l 2.663824591645591 -3.886599688573326" fill="#ff2803" stroke="none" /><path d="M 87.54013794807813 116.9041958592261 l -4.215784672216118 5.719521572750671 a28.105333730631706,28.105333730631706 0 0,0 -0.3859089988996702,-0.2895933072239801 l 4.313346660026554 -5.646309238262677" fill="#ff4b06" stroke="none" /><path d="M 87.2517909369889 116.68781488649013 l -4.205085647423508 5.504592097540097 a27.92699642431466,27.92699642431466 0 0,0 -0.37846406945559474,-0.2942959495281287 l 4.298959661514331 -5.431595096391175" fill="#ff4806" stroke="none" /><path d="M 86.96720088162412 116.46651593811092 l -2.918399445011762 3.687302362184254 a25.702473182359952,25.702473182359952 0 0,0 -0.34361664504343326,-0.2767932459009434 l 2.9812668604104573 -3.6366608224898997" fill="#ff2803" stroke="none" /><path d="M 86.68645165197938 116.24036423190432 l -2.9812668604104573 3.6366608224898997 a25.702473182359952,25.702473182359952 0 0,0 -0.33881448820918525,-0.2826510964189491 l 3.043255682781535 -3.5849475421590804" fill="#ff2803" stroke="none" /><path d="M 86.13680546590413 115.77377054828092 l -6.20249898478693 7.0573052676531 a30.39556019070322,30.39556019070322 0 0,0 -0.38896905012082117,-0.347818523120227 l 6.322733061731122 -6.949791214649493" fill="#ff6b09" stroke="none" /><path d="M 83.8745106332314 113.45245675266167 l -3.61093720474571 3.0123722436308857 a25.702473182359952,25.702473182359952 0 0,0 -0.27973247615534197,-0.34122813704512245 l 3.662116500139682 -2.949941824887268" fill="#ff2803" stroke="none" /><path d="M 83.4222238831116 112.89097897827486 l -6.105521835659736 4.7476907083276885 a28.734207389749702,28.734207389749702 0 0,0 -0.29944878426372973,-0.39198807103633004 l 6.186122597277761 -4.642181724050488" fill="#ff5307" stroke="none" /><path d="M 82.576782715395 111.72311816256416 l -4.049496269961828 2.724681813706807 a25.880810488676996,25.880810488676996 0 0,0 -0.24485164500115447,-0.37073659808988185 l 4.095672353883709 -2.654765337277864" fill="#ff2b04" stroke="none" /><path d="M 82.18462484594161 111.11811171558189 l -4.777663181958447 2.9816151799832262 a26.63170441001192,26.63170441001192 0 0,0 -0.2387114252913581,-0.38991717335336273 l 4.828142571705209 -2.899160890505306" fill="#ff3605" stroke="none" /><path d="M 81.99639281039703 110.81064883170644 l -11.69215192781278 7.020801289840349 a34.63811084624553,34.63811084624553 0 0,0 -0.30172481453416894,-0.5123946984240183 l 11.810950452476716 -6.819055423122772" fill="#ffa40f" stroke="none" /><line stroke="#e1ed5e" stroke-width="0.3" x1="26.387840678322732" x2="22.057713659400534" y1="142.50000000000003" y2="145.00000000000006" /><path d="M 25.521815274538284 143.00000000000003 a86.0,86.0 0 0,1 -11.493303480769212,-40.785679425670985" fill="none" id="id81" stroke="none" /><text fill="#e1ed5e" style="font-size:6.75px; font-family:Arial;" text-anchor="middle"><textPath startOffset="21.40746469413373" xlink:href="#id81">September</textPath></text><path d="M 81.4637452351635 109.86951160357371 l -4.308187937000139 2.293867416801996 a25.880810488676996,25.880810488676996 0 0,0 -0.2054343941357598,-0.39394753829552326 l 4.346930400110848 -2.21957363540197" fill="#ff2b04" stroke="none" /><path d="M 81.1358732173502 109.22738970284198 l -4.730084233492197 2.313721226144672 a26.265643623361143,26.265643623361143 0 0,0 -0.19464185480133178,-0.4067266157871657 l 4.769105346253441 -2.232182108292403" fill="#ff3004" stroke="none" /><path d="M 80.9802524753101 108.90220220490708 l -8.518081206677271 3.9868921078591595 a30.404946364719905,30.404946364719905 0 0,0 -0.21720068095032258,-0.4746226863584109 l 8.585266352482648 -3.8400804392860595" fill="#ff6b09" stroke="none" /><path d="M 80.5471966667186 107.91128576633889 l -4.356013618879906 1.771552816866413 a25.702473182359952,25.702473182359952 0 0,0 -0.1627105162624088,-0.41013679135735415 l 4.38578281010844 -1.6965150082954934" fill="#ff2803" stroke="none" /><path d="M 80.28708602549918 107.23885506374661 l -7.824076702632632 2.873109339961408 a29.334922526817643,29.334922526817643 0 0,0 -0.16952767664898516,-0.4741990835775448 l 7.87224454932556 -2.7383753000029416" fill="#ff5c08" stroke="none" /><path d="M 79.64726062577567 105.17358676015961 l -4.73037446719159 1.2024426915746398 a25.880810488676996,25.880810488676996 0 0,0 -0.10575696970459175,-0.4315245260491359 l 4.750318963412474 -1.1210623409174043" fill="#ff2b04" stroke="none" /><path d="M 79.48165901384964 104.47187691870673 l -22.578734583388943 4.920930113463633 a44.10876042908224,44.10876042908224 0 0,0 -0.1548895698447671,-0.7412026623626792 l 22.65988186405808 -4.532610999815545" fill="#e2ff1b" stroke="none" /><path d="M 79.0935383218832 101.97986365728391 l -15.894766678103405 1.505250930142999 a36.96588200238379,36.96588200238379 0 0,0 -0.05440388078459364,-0.6322555609738608 l 15.91826418158574 -1.2321743217934762" fill="#ffc312" stroke="none" /><line stroke="#e1ed5e" stroke-width="0.3" x1="15.003131293944662" x2="10.003315487706104" y1="100.72959589197737" y2="100.7725132973878" /><path d="M 14.003168132696942 100.73817937305945 a86.0,86.0 0 0,1 10.791469493833604,-42.45332614584628" fill="none" id="id82" stroke="none" /><text fill="#e1ed5e" style="font-size:6.75px; font-family:Arial;" text-anchor="middle"><textPath startOffset="22.145653131862435" xlink:href="#id82">October</textPath></text><path d="M 79.00077361379809 100.18025310272382 l -6.250961609003488 0.05365698737219833 a27.25119189511323,27.25119189511323 0 0,0 0.0,-0.4678201801920294 l 6.250961609003488 0.05365698737219603" fill="#ff3e05" stroke="none" /><path d="M 79.00077361379809 99.81974689727619 l -12.257891683721555 -0.10521925751965168 a33.25834326579261,33.25834326579261 0 0,0 0.009801025343590602,-0.5708605904721354 l 12.254279226779298 0.31562676396083955" fill="#ff920d" stroke="none" /><path d="M 79.48165901384962 95.52812308129327 l -10.619892220781642 -2.314556080987359 a31.869189511323004,31.869189511323004 0 0,0 0.12108643685543169,-0.5335291827320117 l 10.578594922368548 2.4965195976583794" fill="#ff7f0b" stroke="none" /><path d="M 79.73907114497095 94.47779374421319 l -9.055838284428958 -2.468208993945238 a30.38617401668653,30.38617401668653 0 0,0 0.14148599597313158,-0.5020838860330656 l 9.012133796381244 2.6233008038813166" fill="#ff6b09" stroke="none" /><path d="M 79.83685265289637 94.1308016681162 l -11.778858871870291 -3.428654150672882 a33.2677294398093,33.2677294398093 0 0,0 0.1643167296486004,-0.5469569518801903 l 11.71826582221806 3.630348706143796" fill="#ff920d" stroke="none" /><path d="M 80.05021161711548 93.44210830539832 l -15.806759475419877 -5.195995801707572 a37.63887067938022,37.63887067938022 0 0,0 0.20703991804861324,-0.6120767291281866 l 15.715234135798898 5.466574205309921" fill="#ffcb13" stroke="none" /><path d="M 80.28708602549916 92.7611449362534 l -5.286538312589617 -1.941290094568517 a26.63170441001192,26.63170441001192 0 0,0 0.16127312565129934,-0.4277961261900236 l 5.252434503123881 2.0317545009526854" fill="#ff3605" stroke="none" /><path d="M 80.5471966667186 92.08871423366112 l -5.790628882582872 -2.354998355355344 a27.25119189511323,27.25119189511323 0 0,0 0.17995409625853276,-0.4318243210319714 l 5.7493489417878605 2.454055185828579" fill="#ff3e05" stroke="none" /><path d="M 80.68587082218212 91.75594674310238 l -6.051491904194129 -2.5830220499486996 a27.579707985697258,27.579707985697258 0 0,0 0.18959882747621348,-0.4338392215324395 l 6.006259194700938 2.686523341257006" fill="#ff4306" stroke="none" /><path d="M 81.1358732173502 90.77261029715801 l -4.283213530506303 -2.0951343723377804 a25.768176400476758,25.768176400476758 0 0,0 0.19777699564780354,-0.39568647685268 l 4.246616621646753 2.1683527053542306" fill="#ff2904" stroke="none" /><path d="M 81.63589988554816 89.8137432299009 l -55.092300343355525 -30.558770310297323 a84.0,84.0 0 0,0 0.710266539914524,-1.254972919603579 l 54.55960043841963 31.500000000000007" fill="#4dd2ff" stroke="none" /><line stroke="#e1ed5e" stroke-width="0.3" x1="26.387840678322718" x2="22.05771365940052" y1="57.49999999999999" y2="54.99999999999999" /><path d="M 25.521815274538284 56.99999999999999 a86.0,86.0 0 0,1 29.574782752854787,-30.34633250058573" fill="none" id="id83" stroke="none" /><text fill="#e1ed5e" style="font-size:6.75px; font-family:Arial;" text-anchor="middle"><textPath startOffset="21.40746469413373" xlink:href="#id83">November</textPath></text><path d="M 82.37810715431573 88.57770195909679 l -4.733652085930979 -3.0682960917384516 a26.641090584028603,26.641090584028603 0 0,0 0.2520444580735984,-0.3816274338413133 l 4.680283188936651 3.149103403918826" fill="#ff3605" stroke="none" /><path d="M 82.98947788004972 87.6856937992154 l -11.412154515216947 -8.261519788756413 a35.088647199046484,35.088647199046484 0 0,0 0.3573995605434256,-0.4848811444501933 l 11.268652935089703 8.45620724247547" fill="#ffaa0f" stroke="none" /><path d="M 83.8745106332314 86.54754324733833 l -6.176792783367413 -5.15290022513307 a29.043951132300357,29.043951132300357 0 0,0 0.32267198554282717,-0.3801067876222833 l 6.087426234317472 5.25817379520491" fill="#ff5808" stroke="none" /><path d="M 84.58840730492382 85.73525988315684 l -13.976514412236096 -12.93645308272114 a40.04454707985697,40.04454707985697 0 0,0 0.4712750572123747,-0.500477779226788 l 13.752383521287449 13.174472321892441" fill="#ffea16" stroke="none" /><path d="M 85.34317274990677 84.96080404539775 l -4.592268728686838 -4.712072272426775 a27.579707985697258,27.579707985697258 0 0,0 0.3418931819274995,-0.3275259343498828 l 4.510703060894038 4.790210337082227" fill="#ff4306" stroke="none" /><path d="M 85.86807049272753 84.46653392183569 l -3.3792829051210265 -3.7144238759615194 a26.021603098927294,26.021603098927294 0 0,0 0.33299594337155086,-0.29776702591772264 l 3.315021934926084 3.771886431762643" fill="#ff2d04" stroke="none" /><path d="M 86.40962598614128 83.9905735841838 l -9.530674982603248 -11.227111164965264 a35.72690703218117,35.72690703218117 0 0,0 0.4709583251199584,-0.39289018502834044 l 9.33654232332138 11.389063533905485" fill="#ffb310" stroke="none" /><path d="M 86.68645165197937 83.75963576809568 l -2.9812668604104604 -3.636660822489897 a25.702473182359952,25.702473182359952 0 0,0 0.3436166450434532,-0.27679324590095766 l 2.9183994450117616 3.687302362184254" fill="#ff2803" stroke="none" /><path d="M 88.12776184653039 82.6780497279521 l -3.3165146808336585 -4.838894034578342 a26.866358760429083,26.866358760429083 0 0,0 0.3826584585982051,-0.257469688449285 l 3.232959934138464 4.895113397084737" fill="#ff3905" stroke="none" /><path d="M 88.72937992617638 82.28071324371311 l -15.188134470759037 -23.87827007011545 a49.29931466030989,49.29931466030989 0 0,0 0.7179761356765076,-0.4480702099475442 l 14.77599420629283 24.13547607690453" fill="#a5ff21" stroke="none" /><line stroke="#e1ed5e" stroke-width="0.3" x1="56.869717070023135" x2="54.33264160355391" y1="26.7553504044142" y2="22.446841604673864" /><path d="M 56.362301976729285 25.89364864446614 a86.0,86.0 0 0,1 42.16139366436587,-11.88097634709845" fill="none" id="id84" stroke="none" /><text fill="#e1ed5e" style="font-size:6.75px; font-family:Arial;" text-anchor="middle"><textPath startOffset="22.145653131862474" xlink:href="#id84">December</textPath></text><path d="M 89.34428304082924 81.90426304109057 l -9.820659283288183 -16.677626464215397 a40.35429082240763,40.35429082240763 0 0,0 0.5999482642336955,-0.346380291855171 l 9.532918551194088 16.84375365334674" fill="#ffee16" stroke="none" /><path d="M 90.28995756902619 81.37971332152246 l -6.5186905831299224 -12.500448714722856 a35.098033373063174,35.098033373063174 0 0,0 0.5366201470228,-0.27400207063977194 l 6.303143214393541 12.610508737035461" fill="#ffaa0f" stroke="none" /><path d="M 93.27111125876988 80.10723608172694 l -6.427131364723832 -19.00067185340414 a41.05825387365912,41.05825387365912 0 0,0 0.6695961135054279,-0.22010954237800645 l 6.1000125135706424 19.108202317184173" fill="#fff717" stroke="none" /><path d="M 93.95794788825049 79.88797359093562 l -2.765373076176174 -9.20502758174103 a30.611442193087008,30.611442193087008 0 0,0 0.504564010556941,-0.14687122987844733 l 2.606949053237609 9.251142505921997" fill="#ff6e0a" stroke="none" /><path d="M 94.6519064749342 79.69241777938228 l -1.6756616035776808 -6.3627600432001 a27.579707985697258,27.579707985697258 0 0,0 0.45886685640916147,-0.11664216051432606 l 1.5661894539431411 6.39058743554969" fill="#ff4306" stroke="none" /><path d="M 95.70440661134978 79.44403061299748 l -3.711285169961646 -17.75984303862151 a39.143474374255064,39.143474374255064 0 0,0 0.6589217028489198,-0.13180279474834353 l 3.4058669815817493 17.82093523003272" fill="#ffdf14" stroke="none" /><path d="M 96.41257539226777 79.30868818359171 l -3.208478831975052 -18.505653282762058 a39.781734207389746,39.781734207389746 0 0,0 0.673869420244365,-0.1108849566638225 l 2.890331908677614 18.558004237921548" fill="#ffe715" stroke="none" /><path d="M 97.12497278360702 79.19773525538626 l -1.4700675516479023 -10.636676490392484 a31.737783075089393,31.737783075089393 0 0,0 0.5403314920649264,-0.06995672946114366 l 1.287258237692182 10.660344816054021" fill="#ff7d0b" stroke="none" /><path d="M 98.5590905019552 79.04949213459386 l -1.5463157202647146 -22.483091202997674 a43.536203814064365,43.536203814064365 0 0,0 0.7460356585334458,-0.04487965264740494 l 1.160135709598785 22.506322833469774" fill="#e9ff1a" stroke="none" /></svg>