<?xml version="1.0" encoding="utf-8" ?>
<svg baseProfile="full" height="200mm" version="1.1" viewBox="0,0,200,200" width="200mm" xmlns="http://www.w3.org/2000/svg" xmlns:ev="http://www.w3.org/2001/xml-events" xmlns:xlink="http://www.w3.org/1999/xlink"><defs /><rect fill="#1a1a1a" height="200" width="200" x="0" y="0" /><text alignment-baseline="middle" fill="#e1ed5e" style="dominant-baseline: central; font-size:9.0px; font-family:Arial;" text-anchor="middle" x="100.0" y="100.0">2023</text><line stroke="#e1ed5e" stroke-width="0.3" x1="100.0" x2="100.0" y1="15.0" y2="10.0" /><path d="M 100.0 14.0 a86.0,86.0 0 0,1 42.46469731375804,11.215312516191453" fill="none" id="id97" stroke="none" /><text fill="#e1ed5e" style="font-size:6.75px; font-family:Arial;" text-anchor="middle"><textPath startOffset="22.20632615414155" xlink:href="#id97">January</textPath></text><path d="M 100.0 79.0 l 0.0 -0.6631067223181653 a21.663106722318165,21.663106722318165 0 0,0 0.3728947714531191,0.0032096230249778635 l -0.01141429218059075 0.6630084759017463" fill="#ff0000" stroke="none" /><path d="M 100.36148047927253 79.00311137660856 l 0.054526909650885684 -3.1672400435604486 a24.167709373886574,24.167709373886574 0 0,0 0.4158841169559012,0.010741059763310795 l -0.10903766180165472 3.1658321916547782" fill="#ff2403" stroke="none" /><path d="M 102.16513564639614 79.11191278185805 l 0.7241565612130249 -6.986280714275359 a28.023711336879078,28.023711336879078 0 0,0 0.47938334302090263,0.053864304206106585 l -0.8443066077436527 6.972780456598651" fill="#ff5a08" stroke="none" /><path d="M 102.52436894288641 79.15227682838746 l 0.6856542684054041 -5.662536143708855 a26.703896681619653,26.703896681619653 0 0,0 0.45585493580042136,0.05918305379115354 l -0.7830239327136717 5.649894766753564" fill="#ff4806" stroke="none" /><path d="M 103.95276090670814 79.375362276772 l 1.311817127240993 -6.8447734753082505 a27.969346318242923,27.969346318242923 0 0,0 0.47206075430629896,0.09469094639683669 l -1.4294442910144174 6.821178572834206" fill="#ff5908" stroke="none" /><path d="M 104.66035177308747 79.52364482259891 l 1.499857900981049 -6.589979596276879 a27.758506107305138,27.758506107305138 0 0,0 0.46498975875505116,0.11004805268075316 l -1.6130713466986237 6.563185631455257" fill="#ff5608" stroke="none" /><path d="M 106.40334571778207 80.00007090966166 l 0.9755450203566999 -3.046974517928207 a24.199334587011272,24.199334587011272 0 0,0 0.39562129781067445,0.13043012177659333 l -1.0278491404097918 3.0297306718923775" fill="#ff2403" stroke="none" /><path d="M 106.74666289553966 80.11325718540242 l 1.4184429369442622 -4.181061114353583 a25.415116352637458,25.415116352637458 0 0,0 0.41307793238004475,0.14411477960957841 l -1.4902028733875805 4.156025481571797" fill="#ff3605" stroke="none" /><path d="M 107.08798089147638 80.2323363322302 l 3.1350689713073256 -8.743391093871256 a30.28846302007179,30.28846302007179 0 0,0 0.489256284837718,0.18019721870936892 l -3.2851075819176203 8.688130607355564" fill="#ff790b" stroke="none" /><path d="M 108.09893153111575 80.62456947434976 l 2.0397822301849104 -4.879860847886307 a26.289021973986475,26.289021973986475 0 0,0 0.4160128092268102,0.17811497408835048 l -2.123478797202036 4.844026345835165" fill="#ff4206" stroke="none" /><path d="M 110.05341064243156 81.56283822128135 l 2.5333228897388227 -4.645914269005618 a26.29171468038713,26.29171468038713 0 0,0 0.3954723487869254,0.22007993393109682 l -2.6129193275977833 4.601618937514342" fill="#ff4206" stroke="none" /><line stroke="#e1ed5e" stroke-width="0.3" x1="143.23703022742887" x2="145.7803849466894" y1="26.81831364943548" y2="22.513508569990506" /><path d="M 143.74570117128098 25.957352633546492 a86.0,86.0 0 0,1 28.547481713284135,27.462654790039103" fill="none" id="id98" stroke="none" /><text fill="#e1ed5e" style="font-size:6.75px; font-family:Arial;" text-anchor="middle"><textPath startOffset="19.985693538727396" xlink:href="#id98">February</textPath></text><path d="M 112.48926042617603 83.11751280151076 l 3.1894712770161395 -4.311400848950092 a26.362919382877067,26.362919382877067 0 0,0 0.3624949699982586,0.27302369609383365 l -3.263212400772781 4.255860563350411" fill="#ff4306" stroke="none" /><path d="M 113.6212207817346 84.01681056812373 l 7.686674619446867 -9.01957163109497 a32.850638763952844,32.850638763952844 0 0,0 0.4272244364214533,0.37048482132517974 l -7.840792854515085 8.885921816350118" fill="#ff9b0e" stroke="none" /><path d="M 113.89432698308785 84.25364557470407 l 2.096833740089437 -2.3763286471202227 a24.16917174869108,24.16917174869108 0 0,0 0.30958293520491964,0.27794661593018993 l -2.137427662890347 2.3398830224207354" fill="#ff2403" stroke="none" /><path d="M 114.16331599549186 84.49514656593476 l 2.1253234270359753 -2.326632283475624 a24.15122475428506,24.15122475428506 0 0,0 0.30452637674444866,0.2830240787004843 l -2.165057687575271 2.289703618700499" fill="#ff2403" stroke="none" /><path d="M 114.94478906791727 85.2469230424477 l 2.246993231212599 -2.218168748486621 a24.157412101370035,24.157412101370035 0 0,0 0.28958494868408613,0.29844274485458755 l -2.2848424435997945 2.1791618080819193" fill="#ff2403" stroke="none" /><path d="M 115.4437574822437 85.77008943001954 l 2.3192435979712496 -2.1369559206737776 a24.153644157737734,24.153644157737734 0 0,0 0.2790969217701142,0.30818579187376033 l -2.3556841603573995 2.0967173415304683" fill="#ff2403" stroke="none" /><path d="M 115.68641384162765 86.03803664274999 l 7.570793052629445 -6.738515013905007 a31.135309173299326,31.135309173299326 0 0,0 0.35287890063164284,0.40340158470792403 l -7.685663816838936 6.607197872994135" fill="#ff840c" stroke="none" /><path d="M 115.9244219780498 86.31012108654704 l 5.661076740613248 -4.866704437095765 a28.46542711043112,28.46542711043112 0 0,0 0.3162229536866503,0.3743082353109788 l -5.744010307787015 4.76853725215568" fill="#ff6008" stroke="none" /><path d="M 116.38621287248628 86.86637796730983 l 4.045820228729979 -3.242742792971495 a26.1849823668523,26.1849823668523 0 0,0 0.2788649740983582,0.3541301979234107 l -4.101039283422301 3.1726202010950457" fill="#ff4006" stroke="none" /><path d="M 116.60985879189232 87.15038557335679 l 2.671600953160019 -2.066787116017842 a24.377730101097907,24.377730101097907 0 0,0 0.253904575992046,0.33410865964567465 l -2.7067814693761787 2.020493680491134" fill="#ff2703" stroke="none" /><path d="M 116.82858285166822 87.43820079747576 l 7.640261298312369 -5.703120050581275 a30.53410567477789,30.53410567477789 0 0,0 0.31077523695999437,0.42389707395719634 l -7.73729914778599 5.570760532952585" fill="#ff7c0b" stroke="none" /><path d="M 117.2510076193507 88.02491185347247 l 7.917415347033717 -5.4960121034928395 a30.638029612902464,30.638029612902464 0 0,0 0.2970072975858947,0.43582156043171655 l -8.010847110288346 5.358912519790716" fill="#ff7d0b" stroke="none" /><path d="M 117.65298651832404 88.62581576622439 l 2.6775738282307064 -1.7252161831211381 a24.185242923880235,24.185242923880235 0 0,0 0.2224724529038779,0.3518979936188074 l -2.70687387738054 1.6788705417881244" fill="#ff2403" stroke="none" /><line stroke="#e1ed5e" stroke-width="0.3" x1="172.23445277983987" x2="176.4835382374775" y1="55.19839476539836" y2="52.563006222186495" /><path d="M 173.08426987136738 54.67131705675599 a86.0,86.0 0 0,1 12.851231095245387,41.99856678651699" fill="none" id="id99" stroke="none" /><text fill="#e1ed5e" style="font-size:6.75px; font-family:Arial;" text-anchor="middle"><textPath startOffset="22.20632615414155" xlink:href="#id99">March</textPath></text><path d="M 118.03404312379186 89.2402003453031 l 1.336673790813452 -0.7975106909810321 a22.55650895444795,22.55650895444795 0 0,0 0.19607011844561456,0.33514738948626055 l -1.350203583729394 0.7743838891408762" fill="#ff0d01" stroke="none" /><path d="M 118.3937258080291 89.86733742301442 l 4.181813127375424 -2.3036605972025366 a25.774349503271935,25.774349503271935 0 0,0 0.2107260503630655,0.3904433675822095 l -4.220847276956954 2.2313362462878685" fill="#ff3b05" stroke="none" /><path d="M 118.56541770881063 90.18545643968196 l 10.944890358489543 -5.785978256515202 a33.380152234291145,33.380152234291145 0 0,0 0.26416506766754544,0.5102828286814168 l -11.042864859317204 5.59672270557344" fill="#ffa20e" stroke="none" /><path d="M 118.89224826269711 90.83032412892265 l 6.7927540616829996 -3.2969793828384133 a28.55060135309582,28.55060135309582 0 0,0 0.2107874666994274,0.4439721623750901 l -6.848499722224183 3.1795648048227827" fill="#ff6109" stroke="none" /><path d="M 119.04729006885535 91.15688171328212 l 2.8673837570865546 -1.331245213658561 a24.16134519299817,24.16134519299817 0 0,0 0.1718880471848905,0.3787325273478391 l -2.889874121234792 1.2816906774686592" fill="#ff2403" stroke="none" /><path d="M 119.196687751892 91.48605970444005 l 2.9087049468189163 -1.2900423539042742 a24.18194496220719,24.18194496220719 0 0,0 0.16548429262581704,0.3819605633106579 l -2.930479949287414 1.2397826460070136" fill="#ff2403" stroke="none" /><path d="M 119.7369772167798 92.82701384747503 l 6.278751995530143 -2.2818793690852894 a27.680546390560494,27.680546390560494 0 0,0 0.15889545661348636,0.4492188529386297 l -6.3171005329534395 2.173462889720045" fill="#ff5507" stroke="none" /><path d="M 120.08093135843002 93.85539295169968 l 6.098728223601566 -1.8661628666281187 a27.377856206448683,27.377856206448683 0 0,0 0.13401343655936696,0.451826686430202 l -6.129947557272635 1.760906793451387" fill="#ff5107" stroke="none" /><path d="M 120.18372546131832 94.20196356495316 l 8.66929006944098 -2.4903658041197665 a30.019895351191003,30.019895351191003 0 0,0 0.1383963341051726,0.4978852487317038 l -8.710873174112516 2.340769251969111" fill="#ff750a" stroke="none" /><path d="M 120.28053869075195 94.5502522615342 l 0.9154980310826834 -0.2460108876071356 a21.947975739002597,21.947975739002597 0 0,0 0.09490270024395428,0.3656988172878152 l -0.9195970631969403 0.23021564477046996" fill="#ff0400" stroke="none" /><path d="M 120.37134235888165 94.90015583598534 l 2.0680838069506016 -0.5177324570843463 a23.131904671811075,23.131904671811075 0 0,0 0.09337270398395683,0.3870901391200567 l -2.0766893111953775 0.48205708630488353" fill="#ff1502" stroke="none" /><path d="M 120.45610955862082 95.25157060432595 l 13.076873782457051 -3.0355044635537674 a34.424563876363635,34.424563876363635 0 0,0 0.12901935247984347,0.5783684590144195 l -13.127187521938932 2.8099578349893837" fill="#ffaf10" stroke="none" /><path d="M 120.6074358757038 95.95851677861258 l 3.392872940013071 -0.6654024858827303 a24.45750592989974,24.45750592989974 0 0,0 0.07746539532845738,0.4138232394039403 l -3.4038240592513875 0.6069011690162273" fill="#ff2803" stroke="none" /><path d="M 120.67395015179393 96.31383870115 l 3.1345723326059214 -0.5588936384223251 a24.184007821505386,24.184007821505386 0 0,0 0.06954415301528936,0.4104535277650216 l -3.1437283471414337 0.5048543223414657" fill="#ff2403" stroke="none" /><path d="M 120.83666639777658 97.38593545837742 l 18.8786699150434 -2.3684240403819037 a40.026655255094724,40.026655255094724 0 0,0 0.07988109486609822,0.6843724382502 l -18.916641362913087 2.043107863806851" fill="#fff517" stroke="none" /><path d="M 120.96714384426684 98.82574320788733 l 3.1606019415157007 -0.1770082909029173 a24.165554701432466,24.165554701432466 0 0,0 0.019685021237027377,0.41551968595150546 l -3.1631805709862246 0.12257749832841211" fill="#ff2403" stroke="none" /><line stroke="#e1ed5e" stroke-width="0.3" x1="184.98032266829074" x2="189.97916517819016" y1="98.17113171792111" y2="98.06355123074" /><path d="M 185.9800911702706 98.14961562048488 a86.0,86.0 0 0,1 -9.607161424134198,41.387399972396054" fill="none" id="id100" stroke="none" /><text fill="#e1ed5e" style="font-size:6.75px; font-family:Arial;" text-anchor="middle"><textPath startOffset="21.466115282336823" xlink:href="#id100">April</textPath></text><path d="M 120.99980553446 99.90962569577887 l 27.12110975706718 -0.11671781531394437 a48.12136090802407,48.12136090802407 0 0,0 -0.003564882457019847,0.8283531363900205 l -27.11910057732066 -0.35014479927976083" fill="#aaff21" stroke="none" /><path d="M 120.92983693683757 101.71520430193887 l 3.8688868172724855 0.3170560445705517 a24.881856481152226,24.881856481152226 0 0,0 -0.03865621967016481,0.4265681628894369 l -3.8628560013252455 -0.38360559600855915" fill="#ff2e04" stroke="none" /><path d="M 120.89721153311464 102.0752229133903 l 3.8145769530196327 0.3788111866146685 a24.833339959566977,24.833339959566977 0 0,0 -0.04590348110820721,0.4250092248263694 l -3.8074911704103735 -0.44441673332582926" fill="#ff2d04" stroke="none" /><path d="M 120.32669344350535 105.2749913415812 l 1.1596900120434552 0.3009517897955021 a22.198103878557475,22.198103878557475 0 0,0 -0.09916413459107298,0.3690266347769259 l -1.1543378011106051 -0.3208693577479762" fill="#ff0801" stroke="none" /><path d="M 120.02730092923936 106.31721596034902 l 3.0447637157864715 0.9604104920986181 a24.192643794459844,24.192643794459844 0 0,0 -0.12869075144023193,0.39606940709431715 l -3.0277807133299928 -1.0126787991707304" fill="#ff2403" stroke="none" /><path d="M 119.79798401119884 107.00284435728193 l 9.10836106897756 3.221764139212146 a30.661366649267556,30.661366649267556 0 0,0 -0.1802826145527622,0.49606032694720914 l -9.05155419341957 -3.3780722631654863" fill="#ff7e0b" stroke="none" /><path d="M 119.54520255179757 107.68017299344265 l 2.978607306642331 1.1704263147910665 a24.200312366869596,24.200312366869596 0 0,0 -0.1556856635675513,0.38639904928632157 l -2.9580190288173873 -1.2215247319202016" fill="#ff2403" stroke="none" /><path d="M 119.26925614724726 108.34839909993367 l 2.954553105824069 1.2800591938205952 a24.21992788658679,24.21992788658679 0 0,0 -0.16903077899737878,0.3811197838166547 l -2.932081242095417 -1.3307273141299376" fill="#ff2503" stroke="none" /><path d="M 118.97047184881838 109.00673069616215 l 5.719555463993774 2.7155094599907597 a27.331453729831747,27.331453729831747 0 0,0 -0.20543718872569341,0.4232614572602547 l -5.671965018653366 -2.8135598732162896" fill="#ff5007" stroke="none" /><path d="M 118.81262510543309 109.33194174019688 l 5.416478352758295 2.6868265402461136 a27.046261208653668,27.046261208653668 0 0,0 -0.21047314209648635,0.415283476948532 l -5.36942654087554 -2.77966422889734" fill="#ff4c07" stroke="none" /><path d="M 118.64920377521936 109.65438752849418 l 6.032751508543071 3.123056706794852 a27.79320056804486,27.79320056804486 0 0,0 -0.22359959639874552,0.42296617067841236 l -5.978099403919432 -3.2264378925593986" fill="#ff5708" stroke="none" /><line stroke="#e1ed5e" stroke-width="0.3" x1="174.80103733775053" x2="179.2010983576182" y1="140.37084112569926" y2="142.7455964860345" /><path d="M 175.68104954172406 140.8457921977663 a86.0,86.0 0 0,1 -30.038265399797805,32.042727171017184" fill="none" id="id101" stroke="none" /><text fill="#e1ed5e" style="font-size:6.75px; font-family:Arial;" text-anchor="middle"><textPath startOffset="22.206326154141568" xlink:href="#id101">May</textPath></text><path d="M 118.48025628344425 109.97397251340804 l 1.5254894293910577 0.8233213546866035 a22.733486674960854,22.733486674960854 0 0,0 -0.18882173197775884,0.34276629051920293 l -1.5110912879617893 -0.8494581636036116" fill="#ff0f01" stroke="none" /><path d="M 118.30583269289576 110.29060199501025 l 1.4435753579009223 0.8115041641196676 a22.656034064360494,22.656034064360494 0 0,0 -0.1940305953132822,0.33830869781625844 l -1.4293927664352606 -0.8362327077942412" fill="#ff0e01" stroke="none" /><path d="M 118.12598468904814 110.60418214915192 l 7.1681173533048606 4.193538910295374 a29.304677897601543,29.304677897601543 0 0,0 -0.25846603705425114,0.4332039450415994 l -7.094870440552382 -4.316304949223078" fill="#ff6b09" stroke="none" /><path d="M 117.94076556474637 110.91462005526583 l 2.920085117150105 1.7764916144580571 a24.418013977098592,24.418013977098592 0 0,0 -0.22154738531996185,0.35720492735898646 l -2.8890730921621803 -1.8264928731823171" fill="#ff2803" stroke="none" /><path d="M 117.35343817320211 111.8261652097733 l 10.378820075074161 7.073044526696813 a33.55977169487559,33.55977169487559 0 0,0 -0.32942766157273684,0.4745651163715259 l -10.255531506339288 -7.250650905255358" fill="#ffa40f" stroke="none" /><path d="M 116.93607887273984 112.41649034213515 l 4.167985111687097 3.0557100775389654 a26.168119964669792,26.168119964669792 0 0,0 -0.2694552911490985,0.36097939624857134 l -4.114768553842906 -3.127002353296852" fill="#ff4006" stroke="none" /><path d="M 116.71984013943494 112.70617746262583 l 2.5356484001089536 1.9269561362981116 a24.18475631095882,24.18475631095882 0 0,0 -0.25473824872506606,0.3292835255386437 l -2.502103334165819 -1.970317655950008" fill="#ff2403" stroke="none" /><path d="M 116.27256486870786 113.27417163493432 l 4.597545727538195 3.75039900465593 a26.93320481788122,26.93320481788122 0 0,0 -0.296142129911203,0.35672227285442015 l -4.532307597733449 -3.828982534624121" fill="#ff4b07" stroke="none" /><path d="M 115.80600337817218 113.82643327865902 l 3.7364407468112244 3.2684827055517496 a25.96426919605717,25.96426919605717 0 0,0 -0.29715630126764736,0.33385825460652296 l -3.6796255958952386 -3.332315129899139" fill="#ff3d05" stroke="none" /><path d="M 115.07121518719521 114.62390073753431 l 1.0038616408712904 0.9740669752225953 a22.398765407862268,22.398765407862268 0 0,0 -0.2708750696432568,0.27439501544141065 l -0.986945946172498 -0.9912024846446706" fill="#ff0b01" stroke="none" /><path d="M 114.81725581225074 114.88116024355365 l 2.2560831768427643 2.265813299222713 a24.197471064414415,24.197471064414415 0 0,0 -0.29768656199413357,0.2913489556272013 l -2.2167466624728362 -2.304312357772486" fill="#ff2403" stroke="none" /><path d="M 114.0293411484842 115.62618273729858 l 2.3204225058772625 2.5845366308236084 a24.473354315622114,24.473354315622114 0 0,0 -0.3158899922512351,0.2787361902620997 l -2.2755901607194393 -2.624095962857997" fill="#ff2803" stroke="none" /><path d="M 113.48314897796784 116.09983520530334 l 4.171978142421639 4.98163750047353 a27.49785455415617,27.49785455415617 0 0,0 -0.36549869557135195,0.30078054343071614 l -4.085609318305596 -5.052713162761425" fill="#ff5307" stroke="none" /><path d="M 113.20401910651253 116.32954008644616 l 5.948918490633983 7.35708591302289 a30.461307749978687,30.461307749978687 0 0,0 -0.4105640438410644,0.3261769070487157 l -5.821396954075568 -7.458396734076732" fill="#ff7b0b" stroke="none" /><path d="M 112.04921762599082 117.19931262002967 l 1.8233228260595757 2.6026502521615686 a24.177781374340682,24.177781374340682 0 0,0 -0.3429136060685931,0.2358591051071791 l -1.7782523353680995 -2.633650146633842" fill="#ff2403" stroke="none" /><path d="M 111.7513745106137 117.40417183066458 l 1.7865875350288287 2.64599485124752 a24.192676584489693,24.192676584489693 0 0,0 -0.3471364552432368,0.23006311376287217 l -1.7407763810456278 -2.6763559861017105" fill="#ff2403" stroke="none" /><path d="M 111.45004920935366 117.60387380957326 l 1.7294063909815591 2.658875199194659 a24.17182341722554,24.17182341722554 0 0,0 -0.3507425939493702,0.22386051826995912 l -1.6833819949852584 -2.6882501462884267" fill="#ff2403" stroke="none" /><line stroke="#e1ed5e" stroke-width="0.3" x1="143.8653032363475" x2="146.44561519142675" y1="172.8068346515853" y2="177.08958963109032" /><path d="M 144.38136562736335 173.6633856474863 a86.0,86.0 0 0,1 -40.68145358897372,12.25698825130547" fill="none" id="id102" stroke="none" /><text fill="#e1ed5e" style="font-size:6.75px; font-family:Arial;" text-anchor="middle"><textPath startOffset="21.466115282336833" xlink:href="#id102">June</textPath></text><path d="M 110.8373102113329 117.98757091392108 l 1.8851274064250854 3.1289002754011594 a24.65290600369903,24.65290600369903 0 0,0 -0.3653703057556395,0.2158672168127701 l -1.8309892296410637 -3.160886064507679" fill="#ff2b04" stroke="none" /><path d="M 109.89434966115114 118.52300852407294 l 1.5658719378623325 2.931436652831621 a24.323443361236865,24.323443361236865 0 0,0 -0.37100096145169914,0.19409016844322535 l -1.5151800738841377 -2.957956240219563" fill="#ff2603" stroke="none" /><path d="M 109.2508944713604 118.85261126421891 l 2.2451498620756056 4.575442700234551 a26.09660414455623,26.09660414455623 0 0,0 -0.40497869994873803,0.19441438649046092 l -2.1660584941266348 -4.613411363224572" fill="#ff3f05" stroke="none" /><path d="M 108.92500713936063 119.00905698771935 l 2.7743528679808986 5.9089960319370185 a27.52788387929207,27.52788387929207 0 0,0 -0.4306567077688366,0.19769337215902108 l -2.672228164444643 -5.955876474430115" fill="#ff5307" stroke="none" /><path d="M 108.59647513512805 119.15986991738527 l 1.3065669785096818 2.912083493884699 a24.191762451168263,24.191762451168263 0 0,0 -0.38139963767488916,0.16719439285451176 l -1.2562466661770388 -2.934142440033665" fill="#ff2403" stroke="none" /><path d="M 107.59598834532513 119.57807347666477 l 0.9974782898418025 2.5709232771426604 a23.75764563272,23.75764563272 0 0,0 -0.3825317844308207,0.1446407889280862 l -0.953076284650707 -2.587712316177378" fill="#ff1e03" stroke="none" /><path d="M 106.91757812671514 119.82793768551818 l 2.0232478287120723 5.799259673719465 a27.142063540831934,27.142063540831934 0 0,0 -0.442454755265131,0.15010467566921787 l -1.9231233405097143 -5.833227336286806" fill="#ff4e07" stroke="none" /><path d="M 105.88484417918355 120.15858648285463 l 0.887522580840913 3.0402165557168694 a24.16711430756098,24.16711430756098 0 0,0 -0.4003326583073194,0.11313800805248861 l -0.8350587544289878 -3.055043357107877" fill="#ff2403" stroke="none" /><path d="M 105.18746579009965 120.34920634021253 l 1.3327936275228012 5.228235449213598 a26.39544110949041,26.39544110949041 0 0,0 -0.4412396618686009,0.10844597357966465 l -1.242600680910989 -5.250402681107293" fill="#ff4306" stroke="none" /><path d="M 104.48393922423573 120.51570834832081 l 0.9283290177564738 4.247454398274357 a25.34771935969065,25.34771935969065 0 0,0 -0.4270590258452577,0.08949437108300613 l -0.8550785304818381 -4.262804750083904" fill="#ff3505" stroke="none" /><path d="M 104.13013068566511 120.58985236759428 l 0.6279820383469887 3.1306654542296157 a24.19302797150184,24.19302797150184 0 0,0 -0.40901468721217993,0.0783886382673744 l -0.5739997365631044 -3.141011290845458" fill="#ff2403" stroke="none" /><path d="M 103.06178313531738 120.77559828337769 l 1.133213406865223 7.689371020044267 a28.772425574387682,28.772425574387682 0 0,0 -0.490599188590146,0.0679925771886068 l -1.0006856270882467 -7.707738162725477" fill="#ff6409" stroke="none" /><path d="M 102.70371172650421 120.8252237178851 l 0.8940922028073871 6.8867068797881865 a27.944503763066365,27.944503763066365 0 0,0 -0.4775483846191441,0.057824458859832874 l -0.7754163951368627 -6.90107686737337" fill="#ff5908" stroke="none" /><path d="M 102.34483914955558 120.86867818915974 l 0.7411604095592055 6.59620429681427 a27.637712699266896,27.637712699266896 0 0,0 -0.47322002814455993,0.04905119079714206 l -0.6275077848090429 -6.607984856067171" fill="#ff5507" stroke="none" /><path d="M 101.98527174616119 120.90594882070398 l 1.0967146668774832 11.548978491730619 a32.60093475815637,32.60093475815637 0 0,0 -0.5591148523851093,0.048242782096391455 l -0.8977554967508323 -11.566145526105673" fill="#ff970e" stroke="none" /><path d="M 101.62511606390274 120.93702456842531 l 0.6536999622195656 8.421879811157243 a29.447211563242856,29.447211563242856 0 0,0 -0.5057029086155553,0.034876233378906676 l -0.5086342928250799 -8.431884389052435" fill="#ff6d0a" stroke="none" /><path d="M 101.26447882468166 120.96189622390904 l 0.385693143928533 6.393827638306645 a27.405450106717513,27.405450106717513 0 0,0 -0.4711283085249572,0.024351952131437312 l -0.2755767669900962 -6.399519397200284" fill="#ff5107" stroke="none" /><line stroke="#e1ed5e" stroke-width="0.3" x1="102.19456741930631" x2="102.32365962044197" y1="184.97166512339345" y2="189.96999836594603" /><path d="M 102.22038585953345 185.97133177190398 a86.0,86.0 0 0,1 -42.740103519485714,-10.115201625700543" fill="none" id="id103" stroke="none" /><text fill="#e1ed5e" style="font-size:6.75px; font-family:Arial;" text-anchor="middle"><textPath startOffset="22.20632615414155" xlink:href="#id103">July</textPath></text><path d="M 100.18074693466247 120.99922214144158 l 0.06991523419314621 8.122768646862681 a29.123069532536803,29.123069532536803 0 0,0 -0.5013243377111978,0.0 l 0.06991523419314062 -8.122768646862681" fill="#ff6909" stroke="none" /><path d="M 99.45781275523022 120.99299961872073 l -0.10844287935218336 4.198810183850808 a25.200210330220553,25.200210330220553 0 0,0 -0.4335391964679576,-0.014931966516369907 l 0.18070242749478396 -4.196321418908345" fill="#ff3304" stroke="none" /><path d="M 99.09653310690486 120.98055641714683 l -0.13791877158689136 3.2027876066928083 a24.205755767543916,24.205755767543916 0 0,0 -0.41612222119773146,-0.021508765718538832 l 0.19302906119811175 -3.1999390342120675" fill="#ff2503" stroke="none" /><path d="M 98.73552117531835 120.96189622390904 l -0.23384331884232962 3.876537342142908 a24.883583971384628,24.883583971384628 0 0,0 -0.4273308107317057,-0.02947123465411272 l 0.3005368903529654 -3.87193776297251" fill="#ff2e04" stroke="none" /><path d="M 98.01472825383883 120.90594882070398 l -0.45721298123597726 4.814691592908417 a25.836351811544905,25.836351811544905 0 0,0 -0.4423766635267417,-0.04585414994359185 l 0.5400222413683123 -4.806108074509065" fill="#ff3c05" stroke="none" /><path d="M 97.65516085044442 120.86867818915974 l -0.7219614238612885 6.425336519310635 a27.465769689985155,27.465769689985155 0 0,0 -0.4693672165010484,-0.056833833334745294 l 0.8324560634137261 -6.411957157250542" fill="#ff5207" stroke="none" /><path d="M 97.2962882734958 120.8252237178851 l -0.4436217293278569 3.416977360716179 a24.445654440360894,24.445654440360894 0 0,0 -0.41682332975332975,-0.05776791540097817 l 0.5023736502680176 -3.408834879822596" fill="#ff2803" stroke="none" /><path d="M 96.93821686468263 120.77559828337769 l -0.9565961987192823 6.490942521289302 a27.561052591016605,27.561052591016605 0 0,0 -0.46875331174812795,-0.07320962689630202 l 1.0681853740759273 -6.473514587045894" fill="#ff5407" stroke="none" /><path d="M 96.22490169976321 120.6578951692458 l -0.554286907710701 3.033139781407772 a24.083370057196813,24.083370057196813 0 0,0 -0.4071607771694856,-0.07803333199534689 l 0.6064152994518817 -3.023149251063957" fill="#ff2303" stroke="none" /><path d="M 95.51606077576429 120.51570834832081 l -0.7152995247618573 3.2727643480065405 a24.350020878697208,24.350020878697208 0 0,0 -0.4087091296001842,-0.09302086725431506 l 0.7715288037549042 -3.2599667471745386" fill="#ff2703" stroke="none" /><path d="M 95.16358092515715 120.4354850818985 l -2.8392657163442356 11.996845453634265 a33.32824929365045,33.32824929365045 0 0,0 -0.5571320209426383,-0.13692949579297528 l 3.0453510220300846 -11.94619469952726" fill="#ffa10e" stroke="none" /><path d="M 94.11515582081647 120.15858648285463 l -0.8973260133629202 3.0737983016911827 a24.202097745812484,24.202097745812484 0 0,0 -0.39890246194614354,-0.12018603953758124 l 0.9501034497493095 -3.057896893047876" fill="#ff2503" stroke="none" /><path d="M 93.76903079525671 120.05430185196036 l -1.6233717391866571 5.224803045216196 a26.471188414310948,26.471188414310948 0 0,0 -0.4339745305296789,-0.13894494021162151 l 1.7130676148072763 -5.196085258344868" fill="#ff4406" stroke="none" /><path d="M 93.08242187328487 119.8279376855182 l -4.312973077980585 12.362326794583716 a34.09308445506512,34.09308445506512 0 0,0 -0.5524385598979712,-0.1980848127568993 l 4.525131198508283 -12.286254440786859" fill="#ffab0f" stroke="none" /><path d="M 92.40401165467489 119.57807347666478 l -1.388884029394965 3.5797413505506164 a24.83973267089655,24.83973267089655 0 0,0 -0.3972925086146969,-0.15809088836071658 l 1.4502976140515198 -3.555303617783833" fill="#ff2e04" stroke="none" /><path d="M 92.06813273071674 119.44442032107085 l -1.8962452284606415 4.648513143531903 a26.020400423477057,26.020400423477057 0 0,0 -0.41326410364447225,-0.17274442884010122 l 1.975980791602576 -4.615183671671829" fill="#ff3e05" stroke="none" /><path d="M 90.42595943632237 118.69057910512821 l -4.291265855003871 8.377470660441434 a30.412596735485863,30.412596735485863 0 0,0 -0.46387768629376774,-0.24267888125549408 l 4.434834443824134 -8.302362360241222" fill="#ff7a0b" stroke="none" /><path d="M 90.10565033884886 118.52300852407294 l -3.132182503365463 5.863694451449239 a27.64781767607576,27.64781767607576 0 0,0 -0.4178469824762582,-0.22784349082316652 l 3.232652297710362 -5.808910308866306" fill="#ff5507" stroke="none" /><line stroke="#e1ed5e" stroke-width="0.3" x1="58.666819895761336" x2="56.23545636021788" y1="174.27360380694188" y2="178.64263932499728" /><path d="M 58.180547188652646 175.14741091055294 a86.0,86.0 0 0,1 -31.652253787137756,-30.449443065178592" fill="none" id="id104" stroke="none" /><text fill="#e1ed5e" style="font-size:6.75px; font-family:Arial;" text-anchor="middle"><textPath startOffset="22.20632615414155" xlink:href="#id104">August</textPath></text><path d="M 88.54995079064634 117.60387380957326 l -2.4351755354080367 3.743959702327157 a25.466241612463378,25.466241612463378 0 0,0 -0.36541061551602133,-0.24217423073216907 l 2.49926084966402 -3.7014874505036697" fill="#ff3605" stroke="none" /><path d="M 88.24862548938628 117.40417183066458 l -10.803817617944063 16.00080893345981 a40.30669214668545,40.30669214668545 0 0,0 -0.5716700361673751,-0.3931998636416123 l 11.077644538734328 -15.812468280453093" fill="#fff917" stroke="none" /><path d="M 86.24171649860922 115.8653595955263 l -2.8299111251793208 3.2633109806039253 a25.319443891584175,25.319443891584175 0 0,0 -0.32681089937935603,-0.28837262105056743 l 2.8856643774652646 -3.2141152177810692" fill="#ff3405" stroke="none" /><path d="M 84.19399662182784 113.82643327865904 l -3.8851303324772517 3.398550160698693 a26.16181953337386,26.16181953337386 0 0,0 -0.2935823207760506,-0.34150256484290387 l 3.943055162824081 -3.3311704966942592" fill="#ff4006" stroke="none" /><path d="M 83.72743513129214 113.27417163493432 l -1.6309093557288974 1.330396952394181 a23.10471408451214,23.10471408451214 0 0,0 -0.24874104769533176,-0.31034270268443986 l 1.65356831547909 -1.3021264161314816" fill="#ff1502" stroke="none" /><path d="M 83.28015986056508 112.70617746262583 l -5.276678234948967 4.009991094849236 a27.62747023953743,27.62747023953743 0 0,0 -0.2844823413817528,-0.3811105857206613 l 5.344921843025805 -3.918567629619267" fill="#ff5407" stroke="none" /><line stroke="#e1ed5e" stroke-width="0.3" x1="26.63291911575756" x2="22.317208475507996" y1="142.92168965132927" y2="145.44649492493687" /><path d="M 25.769776987707644 143.4266507060508 a86.0,86.0 0 0,1 -11.730757126820373,-40.83630448921669" fill="none" id="id105" stroke="none" /><text fill="#e1ed5e" style="font-size:6.75px; font-family:Arial;" text-anchor="middle"><textPath startOffset="21.46611528233685" xlink:href="#id105">September</textPath></text><path d="M 80.45479744820244 107.68017299344265 l -0.762146508044663 0.29948101139493727 a21.81887494522107,21.81887494522107 0 0,0 -0.13434787348814026,-0.3507399037962432 l 0.7671886611263123 -0.2863175407655363" fill="#ff0200" stroke="none" /><path d="M 79.97269907076064 106.31721596034903 l -3.0247520988889325 0.9540982233558577 a24.17166024024387,24.17166024024387 0 0,0 -0.1217483103569447,-0.3978805225565902 l 3.040727181752007 -0.9018907282472196" fill="#ff2403" stroke="none" /><path d="M 79.76711848015287 105.62410040840567 l -11.507207756427281 3.1986393919742873 a32.943497155752574,32.943497155752574 0 0,0 -0.14716632572430555,-0.5476606452370986 l 11.560562158493362 -3.0000878135616498" fill="#ff9c0e" stroke="none" /><path d="M 79.67330655649465 105.27499134158121 l -1.3515815228206185 0.3507496607913821 a22.396351652477044,22.396351652477044 0 0,0 -0.09362601315031685,-0.37398938207571036 l 1.3574188502659938 -0.3274324393182798" fill="#ff0b01" stroke="none" /><path d="M 79.58551787078972 104.9243191809786 l -1.5646619275560771 0.37742298300022564 a22.609538771089497,22.609538771089497 0 0,0 -0.08800432874857271,-0.3791203449615815 l 1.570926822235205 -0.35043398069006987" fill="#ff0e01" stroke="none" /><path d="M 79.4281124754447 104.21870165774334 l -4.331706130124008 0.8883081734818197 a25.421851355352022,25.421851355352022 0 0,0 -0.08421904298449928,-0.4294310857538113 l 4.346355106084173 -0.8136133606600535" fill="#ff3605" stroke="none" /><path d="M 79.23777060512086 103.15116336523772 l -3.2737498948219503 0.49686960582653883 a24.311241123663596,24.311241123663596 0 0,0 -0.05923370109793008,-0.41428036751806246 l 3.2818176469364793 -0.4404437663280758" fill="#ff2603" stroke="none" /><path d="M 79.18660465613746 102.79330883721812 l -6.751723628284381 0.9061303533497003 a27.812256907222103,27.812256907222103 0 0,0 -0.05959569453637706,-0.4750363221818074 l 6.766320832067606 -0.7897762768804842" fill="#ff5708" stroke="none" /><path d="M 79.07016306316243 101.71520430193888 l -6.376566863672893 0.5225609233927087 a27.397943019873512,27.397943019873512 0 0,0 -0.03447371143350051,-0.47036640301883176 l 6.384617133770729 -0.4127213838771162" fill="#ff5107" stroke="none" /><path d="M 79.0235259727143 100.99374915477108 l -21.55720260127104 1.0212608580629985 a42.581379884809465,42.581379884809465 0 0,0 -0.028383261840005277,-0.7324458699016045 l 21.571587995962247 -0.6500377411473971" fill="#eaff1a" stroke="none" /><line stroke="#e1ed5e" stroke-width="0.3" x1="15.007084014347285" x2="10.007500721073583" y1="101.09737516637583" y2="101.16192664675087" /><path d="M 14.007167355692545 101.11028546245083 a86.0,86.0 0 0,1 10.666146001902534,-42.60595125391555" fill="none" id="id106" stroke="none" /><text fill="#e1ed5e" style="font-size:6.75px; font-family:Arial;" text-anchor="middle"><textPath startOffset="22.20632615414155" xlink:href="#id106">October</textPath></text><path d="M 79.00175016825051 100.2711162175752 l -7.479727996805181 0.09657355156899883 a28.480351419355504,28.480351419355504 0 0,0 -0.002109855233285622,-0.4902560521678817 l 7.48028214932797 0.03219197880255823" fill="#ff6008" stroke="none" /><path d="M 79.00019446554 99.90962569577889 l -6.556111136401918 -0.02821473662584073 a27.556171848282816,27.556171848282816 0 0,0 0.006124021803759191,-0.4743122376099517 l 6.5546541074804425 0.14106323229626444" fill="#ff5307" stroke="none" /><path d="M 79.00486145842228 99.54816195383935 l -7.760531061911504 -0.16701500612815742 a28.76232802548084,28.76232802548084 0 0,0 0.014913000748018972,-0.4948898926267116 l 7.75650636670784 0.3005750461798634" fill="#ff6409" stroke="none" /><path d="M 79.05617556472873 98.46500227214037 l -3.2563194140743748 -0.23865951117177786 a24.265053520043804,24.265053520043804 0 0,0 0.03411610620603917,-0.4163029086419138 l 3.2517288240488385 0.29467633702147006" fill="#ff2503" stroke="none" /><path d="M 79.12142395522702 97.74499172005258 l -5.394948417453842 -0.5826859707845531 a26.426323927626957,26.426323927626957 0 0,0 0.052738947962840836,-0.45183509901285673 l 5.384119116487412 0.6754648081222716" fill="#ff4406" stroke="none" /><path d="M 79.16333360222342 97.38593545837743 l -5.114987302385395 -0.6417008691679239 a26.155082454147042,26.155082454147042 0 0,0 0.059887667112744736,-0.44623268119558757 l 5.103183636214816 0.7296518924281709" fill="#ff4006" stroke="none" /><path d="M 79.32604984820605 96.31383870115002 l -17.063271221566694 -3.042377946493306 a38.33237688114515,38.33237688114515 0 0,0 0.12141191900303458,-0.6485873261351298 l 17.008373578653796 3.3356433500910088" fill="#ffe015" stroke="none" /><path d="M 79.46518482838121 95.60439243477599 l -3.1448653853321873 -0.6731784028172257 a24.216107500361286,24.216107500361286 0 0,0 0.09075921834478526,-0.40685577974535386 l 3.1328117799853645 0.7272123521125389" fill="#ff2503" stroke="none" /><path d="M 79.62865764111835 94.90015583598534 l -3.3654886111056963 -0.8425300183972465 a24.469347261861028,24.469347261861028 0 0,0 0.10580507086267774,-0.4077100986386331 l 3.350487208372711 0.9003365425847434" fill="#ff2803" stroke="none" /><path d="M 79.71946130924805 94.55025226153421 l -4.282980139458757 -1.1509142673588326 a25.434920802653444,25.434920802653444 0 0,0 0.11725889634732053,-0.4218426387618377 l 4.262534472545076 1.2244682095396129" fill="#ff3605" stroke="none" /><path d="M 79.81627453868168 94.20196356495316 l -4.400054956156912 -1.2639727487821224 a25.57800291905377,25.57800291905377 0 0,0 0.12520323160658445,-0.42212305511691783 l 4.37764582743862 1.3395251906455794" fill="#ff3805" stroke="none" /><path d="M 79.91906864156998 93.8553929516997 l -4.183599701088417 -1.2801486022600868 a25.375075645382093,25.375075645382093 0 0,0 0.13140001549534802,-0.4165739574125057 l 4.160944201824865 1.3519727260990069" fill="#ff3505" stroke="none" /><path d="M 80.14247586403 93.16781622104843 l -6.24648617514864 -2.149167299461579 a27.60586933093579,27.60586933093579 0 0,0 0.1584667856862511,-0.4480069425018924 l 6.208566308652578 2.256371868390082" fill="#ff5407" stroke="none" /><path d="M 80.2630227832202 92.82701384747504 l -23.584041529680515 -8.571120159633672 a46.093248407979665,46.093248407979665 0 0,0 0.2774273857058709,-0.7433674654734217 l 23.433009555473017 8.975810762136435" fill="#c1ff1e" stroke="none" /><path d="M 80.52162464483688 92.15188598940014 l -2.993710066903078 -1.2062082946516413 a24.22757469545838,24.22757469545838 0 0,0 0.15918475653894953,-0.3854785143806913 l 2.9725036234779285 1.2575613794856437" fill="#ff2503" stroke="none" /><path d="M 80.65960295795068 91.81776055985345 l -3.9841413920288073 -1.6855496173166573 a25.326021283363453,25.326021283363453 0 0,0 0.17331354957815817,-0.4000315678052214 l 3.9545371326079684 1.753880329708478" fill="#ff3405" stroke="none" /><path d="M 80.803312248108 91.48605970444005 l -17.24178897886549 -7.646921377894277 a39.86146054131079,39.86146054131079 0 0,0 0.2835814213013626,-0.624834071695702 l 17.107605240600773 7.942577458432049" fill="#fff316" stroke="none" /><path d="M 80.95270993114464 91.15688171328213 l -2.904217073257611 -1.3483458810298892 a24.201954625457905,24.201954625457905 0 0,0 0.1786816551281414,-0.3763491352031896 l 2.880577224287718 1.398137431873611" fill="#ff2503" stroke="none" /><path d="M 81.26839172434947 90.50648371742162 l -9.784655878901168 -4.959039743881711 a31.969574551910096,31.969574551910096 0 0,0 0.2530019864958063,-0.4887193089949977 l 9.697844459245248 5.126731775137044" fill="#ff8f0d" stroke="none" /><path d="M 81.6062741919709 89.86733742301443 l -2.800414551350932 -1.5426812392806826 a24.197215517516238,24.197215517516238 0 0,0 0.20411199194896307,-0.3630924582491087 l 2.773444918109538 1.590657207464576" fill="#ff2403" stroke="none" /><line stroke="#e1ed5e" stroke-width="0.3" x1="26.266209847984243" x2="21.928928074336255" y1="57.711370442889674" y2="55.22380399835377" /><path d="M 25.398753493254645 57.213857153982495 a86.0,86.0 0 0,1 29.58750427330803,-30.492523968695096" fill="none" id="id107" stroke="none" /><text fill="#e1ed5e" style="font-size:6.75px; font-family:Arial;" text-anchor="middle"><textPath startOffset="21.46611528233685" xlink:href="#id107">November</textPath></text><path d="M 81.78341655067845 89.55222093294921 l -2.913630888748807 -1.6710582362092772 a24.358821308833505,24.358821308833505 0 0,0 0.21173653196350728,-0.36192636853089394 l 2.8844346823149745 1.7209640170940628" fill="#ff2703" stroke="none" /><path d="M 82.34701348167596 88.62581576622439 l -6.55611491040707 -4.2242404009864325 a28.79915698545605,28.79915698545605 0 0,0 0.27208807832237786,-0.4144088101750574 l 6.482430196726772 4.336467275139157" fill="#ff6409" stroke="none" /><path d="M 82.7489923806493 88.02491185347247 l -3.1499266114118396 -2.1865765559362296 a24.83446928430134,24.83446928430134 0 0,0 0.24679239683342388,-0.34907034338333276 l 3.1118215947745376 2.2404733996513486" fill="#ff2d04" stroke="none" /><path d="M 82.95767976084542 87.72973835380427 l -2.902510241575754 -2.089771791347586 a24.576550271192094,24.576550271192094 0 0,0 0.2501394118281882,-0.34118987662132666 l 2.8661082172339323 2.1394241116404134" fill="#ff2a04" stroke="none" /><path d="M 83.84228863543731 86.58626213691792 l -48.47313409368807 -40.241213589246236 a84.0,84.0 0 0,0 0.9331575460515031,-1.1045642014835364 l 47.77326593414944 41.06963674035889" fill="#4dd2ff" stroke="none" /><path d="M 84.80347519578584 85.50635884689758 l -3.336802405398045 -3.182465549573335 a25.611110198953316,25.611110198953316 0 0,0 0.30701103253876605,-0.3164018560628517 l 3.2815271091561606 3.2394316011863102" fill="#ff3805" stroke="none" /><path d="M 85.57189188830299 84.74124197986013 l -3.74587318733103 -3.9615292661465547 a26.452089513397702,26.452089513397702 0 0,0 0.33353832191907007,-0.3099875199042897 l 3.6771269816171035 4.025421372125492" fill="#ff4406" stroke="none" /><path d="M 86.37877921826538 84.01681056812374 l -2.726528184588606 -3.1993179733248382 a25.203521313826705,25.203521313826705 0 0,0 0.3326174273436901,-0.27855752983521714 l 2.6710532202858053 3.245776660553868" fill="#ff3304" stroke="none" /><path d="M 88.09926311788651 82.69761687909137 l -1.5958577364651791 -2.3202043903925755 a23.81604515734971,23.81604515734971 0 0,0 0.33977025366399244,-0.229414391975662 l 1.5556827883946471 2.347330694666903" fill="#ff1f03" stroke="none" /><line stroke="#e1ed5e" stroke-width="0.3" x1="56.762969772571076" x2="54.21961505331055" y1="26.818313649435495" y2="22.513508569990535" /><path d="M 56.25429882871897 25.957352633546506 a86.0,86.0 0 0,1 42.265352541879196,-11.944610805530505" fill="none" id="id108" stroke="none" /><text fill="#e1ed5e" style="font-size:6.75px; font-family:Arial;" text-anchor="middle"><textPath startOffset="22.20632615414155" xlink:href="#id108">December</textPath></text><path d="M 89.94658935756843 81.56283822128135 l -6.493345668074049 -11.90828354927988 a34.563581940444266,34.563581940444266 0 0,0 0.524798538639784,-0.28032920441702863 l 6.28740208290596 12.018291480198657" fill="#ffb110" stroke="none" /><path d="M 90.58718382345135 81.22770947309562 l -0.5861121198064339 -1.1689027797821578 a22.30761658201724,22.30761658201724 0 0,0 0.34473631168472696,-0.16916061097033114 l 0.5659045411112809 1.1788185508873188" fill="#ff0901" stroke="none" /><path d="M 91.23893434514133 80.91482961587045 l -1.3329052960621497 -2.903610780173423 a24.194932251395926,24.194932251395926 0 0,0 0.3799962523331105,-0.17049324179697828 l 1.2827269252622648 2.92612435248693" fill="#ff2403" stroke="none" /><path d="M 91.90106846888425 80.62456947434976 l -0.39849851270202435 -0.9533455391947634 a22.033280591963422,22.033280591963422 0 0,0 0.3511854485721635,-0.14325736221406088 l 0.3820291945414803 0.9600637875924012" fill="#ff0500" stroke="none" /><path d="M 92.23578459929587 80.48803036053334 l -2.067522455113027 -5.195816098742236 a26.592061698009562,26.592061698009562 0 0,0 0.4267605937903102,-0.16557648026701718 l 1.9777786963230406 5.230635282899805" fill="#ff4606" stroke="none" /><path d="M 92.57280143429618 80.3572730644239 l -2.260162897611557 -5.977457346126205 a27.39048766906705,27.39048766906705 0 0,0 0.4424446439550495,-0.1629560963125933 l 2.156935927883938 6.015476710245121" fill="#ff5107" stroke="none" /><path d="M 92.91201910852362 80.23233633223022 l -3.031627769943246 -8.454904018459672 a29.98199136588633,29.98199136588633 0 0,0 0.48730443843791454,-0.17001095009751982 l 2.885641327442046 8.505835821729402" fill="#ff750a" stroke="none" /><path d="M 93.59665428221793 80.00007090966166 l -0.9740374907556539 -3.042265966109929 a24.194390590073223,24.194390590073223 0 0,0 0.3977265490496752,-0.12357557482336926 l 0.9215255689952501 3.0585816758158235" fill="#ff2403" stroke="none" /><path d="M 94.63758080256005 79.69619591428918 l -3.456658565158724 -13.087995494959241 a34.536768983481934,34.536768983481934 0 0,0 0.5760915804025395,-0.14685857105871777 l 3.230858096071185 13.145557062186821" fill="#ffb110" stroke="none" /><path d="M 97.11714578562143 79.19881850522333 l -4.380378030137803 -31.606537009805077 a52.90863352509932,52.90863352509932 0 0,0 0.9031888501677852,-0.11725983444534739 l 3.8356744514621597 31.67725516741456" fill="#77ff27" stroke="none" /><path d="M 98.19473922651362 79.07773832637324 l -0.7096855408570995 -8.22497603109504 a29.25553658334754,29.25553658334754 0 0,0 0.5020944000051234,-0.038972188831190475 l 0.5680009514896419 8.235973482114693" fill="#ff6b09" stroke="none" /><path d="M 98.55514903715128 79.0497635885617 l -0.26138639104114075 -3.7900841179132327 a24.79908679372815,24.79908679372815 0 0,0 0.4261167461570109,-0.025704525802546733 l 0.19610759604450684 3.7940219130960857" fill="#ff2d04" stroke="none" /><path d="M 99.63851952072746 79.00311137660856 l -0.3352288894694896 -19.4720436071657 a40.4749290280529,40.4749290280529 0 0,0 0.6967093687420205,-0.0059967974957601975 l 4.7699818995653715e-15 19.474929028052898" fill="#fffb17" stroke="none" /></svg>