<?xml version="1.0" encoding="utf-8" ?>
<svg baseProfile="full" height="200mm" version="1.1" viewBox="0,0,200,200" width="200mm" xmlns="http://www.w3.org/2000/svg" xmlns:ev="http://www.w3.org/2001/xml-events" xmlns:xlink="http://www.w3.org/1999/xlink"><defs /><rect fill="#1a1a1a" height="200" width="200" x="0" y="0" /><text alignment-baseline="middle" fill="#e1ed5e" style="dominant-baseline: central; font-size:9.0px; font-family:Arial;" text-anchor="middle" x="100.0" y="100.0">2022</text><line stroke="#e1ed5e" stroke-width="0.3" x1="100.0" x2="100.0" y1="15.0" y2="10.0" /><path d="M 100.0 14.0 a86.0,86.0 0 0,1 42.46469731375804,11.215312516191453" fill="none" id="id97" stroke="none" /><text fill="#e1ed5e" style="font-size:6.75px; font-family:Arial;" text-anchor="middle"><textPath startOffset="22.20632615414155" xlink:href="#id97">January</textPath></text><path d="M 100.0 79.0 l 0.0 -38.72393256818294 a59.72393256818294,59.72393256818294 0 0,0 1.0280493223231875,0.008848745083990077 l -0.666568843050659 38.71819519970751" fill="#37ff2e" stroke="none" /><path d="M 100.72285384407766 79.0124445844662 l 0.39642200774857067 -11.509835527230642 a32.516660291600516,32.516660291600516 0 0,0 0.559223331637777,0.02408133301784895 l -0.5944861717756793 11.501306467688599" fill="#ff880c" stroke="none" /><path d="M 101.44485096284872 79.0497635885617 l 0.6869877525511132 -9.96127365228843 a30.984934899533943,30.984934899533943 0 0,0 0.5317749771314865,0.041275972853426546 l -0.8583529190449407 9.94797241724654" fill="#ff730a" stroke="none" /><path d="M 102.52436894288641 79.15227682838746 l 0.4890839296798879 -4.039142694408255 a25.06864557267682,25.06864557267682 0 0,0 0.42794001019341105,0.05555889528363428 l -0.5585386683811451 4.030125475960484" fill="#ff1f03" stroke="none" /><path d="M 103.2404852339499 79.25152402106235 l 1.8303029838250804 -11.719231766960634 a32.861298504815494,32.861298504815494 0 0,0 0.5581269250009494,0.09209572484118649 l -2.031759114964905 11.685989779179824" fill="#ff8d0d" stroke="none" /><path d="M 103.59715602781102 79.31037775812273 l 1.6447573787811127 -9.460086964097947 a30.6020035515173,30.6020035515173 0 0,0 0.5182010365212336,0.0946979271665877 l -1.807353536405247 9.430373555580621" fill="#ff6e0a" stroke="none" /><path d="M 105.36241919743992 79.69619591428918 l 7.36304344840577 -27.878796145288153 a49.834730505653155,49.834730505653155 0 0,0 0.8274988436804183,0.22618669292777294 l -7.841840181309899 27.747922911534083" fill="#9fff22" stroke="none" /><path d="M 107.08798089147638 80.2323363322302 l 3.2473584855674966 -9.056555221328427 a30.621150118918134,30.621150118918134 0 0,0 0.49463025359562873,0.1821764967556954 l -3.4027710649357017 8.999315456766407" fill="#ff6e0a" stroke="none" /><path d="M 107.76421540070413 80.48803036053334 l 6.912600417013458 -17.371806744864273 a39.69662306691255,39.69662306691255 0 0,0 0.6327190506364442,0.258101987383844 l -7.21060333723829 17.25024387129685" fill="#ffe615" stroke="none" /><path d="M 108.09893153111575 80.62456947434976 l 4.020659003713517 -9.618799578004234 a31.42530594975308,31.42530594975308 0 0,0 0.4972923611195996,0.21291463640212316 l -4.185635122623431 9.54816541363932" fill="#ff790b" stroke="none" /><path d="M 108.43124777332544 80.76684994638697 l 16.984684671141363 -38.74503486030501 a63.30434067213854,63.30434067213854 0 0,0 0.994233501540094,0.44608359093009375 l -17.649100291148237 38.44693093885839" fill="#33ff52" stroke="none" /><path d="M 109.73455568895987 81.39251694778311 l 2.6759320464128975 -5.1150110794458215 a26.77269007135088,26.77269007135088 0 0,0 0.40650499271488244,0.21714088894887262 l -2.763582085656091 5.068191463995195" fill="#ff3805" stroke="none" /><line stroke="#e1ed5e" stroke-width="0.3" x1="143.23703022742887" x2="145.7803849466894" y1="26.81831364943548" y2="22.513508569990506" /><path d="M 143.74570117128098 25.957352633546492 a86.0,86.0 0 0,1 28.547481713284135,27.462654790039103" fill="none" id="id98" stroke="none" /><text fill="#e1ed5e" style="font-size:6.75px; font-family:Arial;" text-anchor="middle"><textPath startOffset="19.985693538727396" xlink:href="#id98">February</textPath></text><path d="M 111.90073688211348 82.69761687909136 l 5.541295895589983 -8.05644436319891 a30.778151971604956,30.778151971604956 0 0,0 0.433926303807347,0.30399310622028225 l -5.679153338980981 7.959866414214692" fill="#ff700a" stroke="none" /><path d="M 113.34407831869373 83.78471172551755 l 6.113589557273954 -7.429034414777554 a30.621150118918134,30.621150118918134 0 0,0 0.40411528405245656,0.33843492866052427 l -6.240562378285528 7.32269832872321" fill="#ff6e0a" stroke="none" /><path d="M 114.68862486808459 84.99185889309783 l 2.886024703639524 -2.948803334500004 a25.12608527487932,25.12608527487932 0 0,0 0.30649540616033716,0.3051792174823653 l -2.9363559099671837 2.89868826636752" fill="#ff2003" stroke="none" /><path d="M 115.19652480421416 85.50635884689758 l 7.059275020579215 -6.732762935441784 a30.755176090723957,30.755176090723957 0 0,0 0.3620802165799844,0.3862419297345112 l -7.174122559129662 6.610251588829217" fill="#ff700a" stroke="none" /><path d="M 115.9244219780498 86.31012108654704 l 20.91455218900352 -17.979785224933785 a48.58063034089865,48.58063034089865 0 0,0 0.5396831166017803,0.6388145852388499 l -21.22094591909242 17.61711169006583" fill="#adff20" stroke="none" /><path d="M 116.82858285166822 87.43820079747576 l 7.710015328788154 -5.7551883757710405 a30.621150118918134,30.621150118918134 0 0,0 0.311661172773601,0.4251054894113211 l -7.807939114075382 5.621620442688226" fill="#ff6e0a" stroke="none" /><path d="M 117.04232023915458 87.72973835380427 l 7.823477301367074 -5.632807747051784 a30.640296686318965,30.640296686318965 0 0,0 0.30448777351903206,0.4306763620844252 l -7.919277694689988 5.497304884635565" fill="#ff6e0a" stroke="none" /><path d="M 117.2510076193507 88.02491185347247 l 15.767777336497941 -10.945477948057903 a40.194433819334186,40.194433819334186 0 0,0 0.38964777818636626,0.5717600344780159 l -15.953849580353042 10.67243989030948" fill="#ffec16" stroke="none" /><path d="M 117.65298651832404 88.62581576622439 l 6.494315134110736 -4.184421527252466 a28.725639946235756,28.725639946235756 0 0,0 0.2642381389422646,0.417961278880338 l -6.565380869298957 4.072012600657922" fill="#ff5407" stroke="none" /><line stroke="#e1ed5e" stroke-width="0.3" x1="172.23445277983987" x2="176.4835382374775" y1="55.19839476539836" y2="52.563006222186495" /><path d="M 173.08426987136738 54.67131705675599 a86.0,86.0 0 0,1 12.851231095245387,41.99856678651699" fill="none" id="id99" stroke="none" /><text fill="#e1ed5e" style="font-size:6.75px; font-family:Arial;" text-anchor="middle"><textPath startOffset="22.20632615414155" xlink:href="#id99">March</textPath></text><path d="M 118.56541770881063 90.18545643968196 l 29.511977212449622 -15.601404204616529 a54.382040263350774,54.382040263350774 0 0,0 0.4303705760607448,0.8313389687462771 l -29.776157221670484 15.091092513609906" fill="#6eff28" stroke="none" /><path d="M 119.04729006885535 91.15688171328212 l 10.654164375041036 -4.94642731191868 a32.7464191004105,32.7464191004105 0 0,0 0.2329637686356442,0.5133047836709064 l -10.737730460640027 4.762300519405711" fill="#ff8b0c" stroke="none" /><path d="M 119.196687751892 91.48605970444005 l 21.221675930767773 -9.412044628817316 a44.215212973508926,44.215212973508926 0 0,0 0.30257794621798384,0.69839161740945 l -21.38054458682844 9.045353866821264" fill="#e1ff1b" stroke="none" /><path d="M 119.34039704204932 91.81776055985345 l 8.843169575500585 -3.7412329601739076 a30.6020035515173,30.6020035515173 0 0,0 0.20106727752099776,0.4869003610304886 l -8.906258539907782 3.588458028690116" fill="#ff6e0a" stroke="none" /><path d="M 119.61058180528143 92.48833698450437 l 9.467342156102607 -3.626383175938521 a31.1381074387406,31.1381074387406 0 0,0 0.18741494776191533,0.5021788831522024 l -9.528361692366147 3.462881155756986" fill="#ff750a" stroke="none" /><path d="M 119.7369772167798 92.82701384747503 l 18.022009886505565 -6.549717615657452 a40.175287251933355,40.175287251933355 0 0,0 0.23061938599054754,0.6519920597357839 l -18.132082353305922 6.238527929495054" fill="#ffec16" stroke="none" /><path d="M 119.85752413597 93.16781622104841 l 10.926322216894784 -3.7593126364955225 a32.55495342640218,32.55495342640218 0 0,0 0.1777542410002505,0.5314625556039067 l -10.989413751666804 3.5706769779693017" fill="#ff890c" stroke="none" /><path d="M 119.97218684219823 93.5106431181261 l 9.150257514850983 -2.97309889217825 a30.621150118918134,30.621150118918134 0 0,0 0.15856581695918515,0.5026969717775553 l -9.200078815578374 2.8151517539742756" fill="#ff6e0a" stroke="none" /><path d="M 120.18372546131832 94.20196356495316 l 10.130486071415941 -2.9101132721693173 a31.540185354158076,31.540185354158076 0 0,0 0.14540510481293048,0.5230995260440181 l -10.179077946795235 2.7353024427063475" fill="#ff7b0b" stroke="none" /><path d="M 120.37134235888165 94.90015583598534 l 37.508969713816306 -9.390147046927826 a59.66649286598044,59.66649286598044 0 0,0 0.24084578659556932,0.9984612746759148 l -37.665048300672694 8.743100540592506" fill="#37ff2e" stroke="none" /><path d="M 120.45610955862082 95.25157060432595 l 9.98743915078496 -2.318361148545326 a31.252986843145592,31.252986843145592 0 0,0 0.11713264226223943,0.5250826678585487 l -10.025866180049237 2.1461003111368138" fill="#ff770a" stroke="none" /><path d="M 120.53481517161879 95.60439243477599 l 10.175645693476678 -2.178161566952116 a31.40615938235225,31.40615938235225 0 0,0 0.1086065431882022,0.529604075414419 l -10.211631532579876 2.0026818353742857" fill="#ff790b" stroke="none" /><path d="M 120.67395015179393 96.31383870115 l 10.05609850200693 -1.7930004108239954 a31.21469370834393,31.21469370834393 0 0,0 0.08976177363158554,0.5297790690962846 l -10.08547213715874 1.619635553411873" fill="#ff760a" stroke="none" /><path d="M 120.96714384426684 98.82574320788733 l 9.586980459896399 -0.5369151375361502 a30.6020035515173,30.6020035515173 0 0,0 0.02492808864724701,0.5261925522636387 l -9.594802156777142 0.37181147864951175" fill="#ff6e0a" stroke="none" /><path d="M 120.98425023603335 99.18683210126433 l 11.66108058734929 -0.45188254483923707 a32.66983283080717,32.66983283080717 0 0,0 0.016939005806896505,0.5621231371621657 l -11.66713128761183 0.25108926025207234" fill="#ff8a0c" stroke="none" /><line stroke="#e1ed5e" stroke-width="0.3" x1="184.98032266829074" x2="189.97916517819016" y1="98.17113171792111" y2="98.06355123074" /><path d="M 185.9800911702706 98.14961562048488 a86.0,86.0 0 0,1 -9.607161424134198,41.387399972396054" fill="none" id="id100" stroke="none" /><text fill="#e1ed5e" style="font-size:6.75px; font-family:Arial;" text-anchor="middle"><textPath startOffset="21.466115282336823" xlink:href="#id100">April</textPath></text><path d="M 120.99513854157772 99.54816195383933 l 9.963481271865396 -0.2144248727829429 a30.965788332133112,30.965788332133112 0 0,0 0.0068817673209710505,0.5330004629828808 l -9.965696046304084 0.042888151739599346" fill="#ff730a" stroke="none" /><path d="M 120.9904718944345 100.63252640178507 l 3.9979031807638483 0.1204727233542632 a24.999717930033828,24.999717930033828 0 0,0 -0.01666393954009557,0.43002223497905384 l -3.9952371083725495 -0.1892722053473232" fill="#ff1e03" stroke="none" /><path d="M 120.9764740272857 100.99374915477107 l 9.68687216558495 0.4589103494897998 a30.697736388521463,30.697736388521463 0 0,0 -0.02954825104308078,0.5276038717665082 l -9.67753756365434 -0.6255859375917313" fill="#ff6f0a" stroke="none" /><path d="M 120.8583938346157 102.4346265915055 l 9.537255794234595 1.113204437059731 a30.6020035515173,30.6020035515173 0 0,0 -0.06557352256385104,0.5226854931982543 l -9.516680762423896 -1.2772076845453804" fill="#ff6e0a" stroke="none" /><path d="M 120.76222939487914 103.15116336523771 l 9.493285732716497 1.4408324678296973 a30.6020035515173,30.6020035515173 0 0,0 -0.08352634079059965,0.5201186038351825 l -9.46707763756461 -1.6040303013580848" fill="#ff6e0a" stroke="none" /><path d="M 120.64145759157962 103.86396538481128 l 18.866718651246114 3.5317441837599186 a40.194433819334186,40.194433819334186 0 0,0 -0.13315854546744343,0.6789725545564169 l -18.803130172803005 -3.85598046538428" fill="#ffec16" stroke="none" /><path d="M 120.5718875245553 104.21870165774334 l 10.53162852072707 2.159733697070597 a31.750797595567228,31.750797595567228 0 0,0 -0.11440260101591597,0.5344508653593973 l -10.492891880986711 -2.3406983818461633" fill="#ff7e0b" stroke="none" /><path d="M 120.41448212921028 104.9243191809786 l 29.07307890754721 7.012919515097067 a50.90693828009975,50.90693828009975 0 0,0 -0.21281205737487677,0.8500783826831425 l -28.948055535877273 -7.512325737177606" fill="#93ff23" stroke="none" /><path d="M 120.32669344350535 105.2749913415812 l 9.998384098339173 2.594686130094314 a31.32957311274892,31.32957311274892 0 0,0 -0.13995654862371004,0.5208303825428672 l -9.952239473373686 -2.766407445812729" fill="#ff780b" stroke="none" /><path d="M 120.02730092923936 106.31721596034902 l 20.113078805186635 6.344272894725426 a42.089943992016565,42.089943992016565 0 0,0 -0.22389394753335284,0.6890747163965849 l -20.000892606637034 -6.689546511099806" fill="#faff18" stroke="none" /><path d="M 119.9155931802556 106.66101706037122 l 9.10617125939943 3.0456718795429434 a30.6020035515173,30.6020035515173 0 0,0 -0.17138458138886906,0.49812381686032325 l -9.052395847067329 -3.201968399492567" fill="#ff6e0a" stroke="none" /><path d="M 119.67450827220406 107.3425965602758 l 5.462139831323768 2.0384900391073577 a26.830129773553377,26.830129773553377 0 0,0 -0.16520425042709633,0.4312961671600009 l -5.426241301303164 -2.1322097731005023" fill="#ff3905" stroke="none" /><path d="M 119.54520255179757 107.68017299344265 l 21.410932425339084 8.413300631790651 a44.004600732099775,44.004600732099775 0 0,0 -0.2830907866454245,0.7026081163475069 l -21.262939024436264 -8.780608115980971" fill="#e3ff1b" stroke="none" /><path d="M 119.41010516605496 108.01547362559984 l 8.892739791743008 3.672289286958334 a30.621150118918134,30.621150118918134 0 0,0 -0.2053789975720301,0.48545528228516355 l -8.828209812978669 -3.824819094909661" fill="#ff6e0a" stroke="none" /><path d="M 119.26925614724726 108.34839909993367 l 8.784288371123056 3.8057901441887183 a30.573283700416056,30.573283700416056 0 0,0 -0.21337082358743012,0.4810948789373087 l -8.717476462804353 -3.956433359618715" fill="#ff6d0a" stroke="none" /><path d="M 118.81262510543309 109.33194174019688 l 13.747526259336208 6.8194158659389705 a36.345973771766936,36.345973771766936 0 0,0 -0.28284320865216805,0.5580764840128851 l -13.62810438089777 -7.0550465616545495" fill="#ffbb11" stroke="none" /><path d="M 118.64920377521936 109.65438752849418 l 21.619631591155972 11.192129386330329 a45.34486045015802,45.34486045015802 0 0,0 -0.36480478275935446,0.6900731687088141 l -21.423774300171726 -11.562617570125278" fill="#d3ff1c" stroke="none" /><line stroke="#e1ed5e" stroke-width="0.3" x1="174.80103733775053" x2="179.2010983576182" y1="140.37084112569926" y2="142.7455964860345" /><path d="M 175.68104954172406 140.8457921977663 a86.0,86.0 0 0,1 -30.038265399797805,32.042727171017184" fill="none" id="id101" stroke="none" /><text fill="#e1ed5e" style="font-size:6.75px; font-family:Arial;" text-anchor="middle"><textPath startOffset="22.206326154141568" xlink:href="#id101">May</textPath></text><path d="M 118.30583269289576 110.29060199501025 l 8.386817351911882 4.714639362287238 a30.621150118918134,30.621150118918134 0 0,0 -0.26224536782884533,0.4572469035374296 l -8.304419987930656 -4.858306111682983" fill="#ff6e0a" stroke="none" /><path d="M 118.12598468904814 110.60418214915192 l 26.813773990880577 15.686769484986346 a52.06530560785009,52.06530560785009 0 0,0 -0.4592138243423892,0.7696687835276697 l -26.53977929083996 -16.14600036240012" fill="#87ff25" stroke="none" /><path d="M 117.55443506779139 111.5257021239791 l 10.027197363901784 6.58354937133394 a32.99532447662131,32.99532447662131 0 0,0 -0.3158075121793576,0.47208938138220524 l -9.912386746311705 -6.755175666921952" fill="#ff8f0d" stroke="none" /><path d="M 117.14729908036423 112.12312394758627 l 24.443603959201955 17.28160447510088 a50.935658131200995,50.935658131200995 0 0,0 -0.5123162040932185,0.71156239904401 l -24.14250796273313 -17.69980047959602" fill="#93ff23" stroke="none" /><path d="M 116.498646956653 112.99209946851258 l 7.904832648404114 6.224775420665541 a31.061521169137272,31.061521169137272 0 0,0 -0.3344025505081385,0.41721859850159954 l -7.796512185841122 -6.359921852745391" fill="#ff740a" stroke="none" /><path d="M 115.32070863581623 114.36230785411682 l 11.950071325639245 11.202523808608468 a37.37988841141187,37.37988841141187 0 0,0 -0.4440970128015537,0.46563394244596945 l -11.755467761458727 -11.406564867636945" fill="#ffc812" stroke="none" /><path d="M 115.07121518719521 114.62390073753431 l 6.891136273958561 6.686606991373378 a30.6020035515173,30.6020035515173 0 0,0 -0.3700793187615054,0.3748883960412041 l -6.77501633014152 -6.804235881395248" fill="#ff6e0a" stroke="none" /><path d="M 114.55890576462653 115.13401014063108 l 6.648924429326039 6.911569548186525 a30.590515611076803,30.590515611076803 0 0,0 -0.38262058373992675,0.36179164389879287 l -6.528968011195304 -7.024995828831239" fill="#ff6e0a" stroke="none" /><path d="M 114.29624159901734 115.38237550388516 l 42.186075001464566 45.39109403076922 a82.96786539279312,82.96786539279312 0 0,0 -1.0544838406242414,0.9632459868396989 l -41.39849161137346 -46.1105327841955" fill="#4cdcff" stroke="none" /><path d="M 112.92097659922987 116.55440617244103 l 7.086023720430964 9.078641534151341 a32.516660291600516,32.516660291600516 0 0,0 -0.44419503252364584,0.34058980949124884 l -6.928699959413824 -9.19927068546996" fill="#ff880c" stroke="none" /><path d="M 112.63410532772338 116.77436683061366 l 5.995658069617447 7.96046615425954 a30.965788332133112,30.965788332133112 0 0,0 -0.42852969010263525,0.31701602003994095 l -5.857743409096248 -8.06249212303925" fill="#ff730a" stroke="none" /><path d="M 112.04921762599082 117.19931262002967 l 14.649523495111298 20.911045193788656 a46.531947629009615,46.531947629009615 0 0,0 -0.6599628688756697,0.4539284790754138 l -14.287403741612744 -21.160114462229163" fill="#c5ff1e" stroke="none" /><path d="M 111.7513745106137 117.40417183066458 l 1.7196312714876987 2.546830424587763 a24.073024067833554,24.073024067833554 0 0,0 -0.34541958235619236,0.22892526403155622 l -1.6755369903915422 -2.5760537097106377" fill="#ff1101" stroke="none" /><path d="M 111.45004920935366 117.60387380957326 l 5.391992869390849 8.289917389816473 a30.889202062529783,30.889202062529783 0 0,0 -0.44821438041439593,0.28607162410989934 l -5.248496686929522 -8.381503442750182" fill="#ff720a" stroke="none" /><line stroke="#e1ed5e" stroke-width="0.3" x1="143.8653032363475" x2="146.44561519142675" y1="172.8068346515853" y2="177.08958963109032" /><path d="M 144.38136562736335 173.6633856474863 a86.0,86.0 0 0,1 -40.68145358897372,12.25698825130547" fill="none" id="id102" stroke="none" /><text fill="#e1ed5e" style="font-size:6.75px; font-family:Arial;" text-anchor="middle"><textPath startOffset="21.466115282336833" xlink:href="#id102">June</textPath></text><path d="M 110.8373102113329 117.98757091392108 l 4.940411676309801 8.200005687634217 a30.573283700416056,30.573283700416056 0 0,0 -0.45311372265398825,0.2677075741190829 l -4.798530082627431 -8.28383183404705" fill="#ff6d0a" stroke="none" /><path d="M 110.21172684928248 118.3499491758327 l 9.333729294746227 16.77223262112698 a40.194433819334186,40.194433819334186 0 0,0 -0.6074664944815226,0.33123916760281014 l -9.043639988396055 -16.93041244048956" fill="#ffec16" stroke="none" /><path d="M 109.89434966115114 118.52300852407294 l 4.524075266015582 8.469428268234926 a30.6020035515173,30.6020035515173 0 0,0 -0.4667666732603563,0.24419026269445687 l -4.37761769022873 -8.546047949874099" fill="#ff6e0a" stroke="none" /><path d="M 109.2508944713604 118.85261126421891 l 4.229862931843536 8.620135253066904 a30.6020035515173,30.6020035515173 0 0,0 -0.4748954900595893,0.22797869458000747 l -4.080854773783714 -8.691668224146472" fill="#ff6e0a" stroke="none" /><path d="M 108.59647513512805 119.15986991738527 l 1.5675522912791082 3.4937689596608803 a24.82931348016642,24.82931348016642 0 0,0 -0.3914510645583161,0.1716006430159988 l -1.5071805520630386 -3.520234155971334" fill="#ff1c02" stroke="none" /><path d="M 108.2653958097858 119.30500536409082 l 1.5938434338066638 3.722647619939687 a25.04949900527599,25.04949900527599 0 0,0 -0.3978439449309286,0.16629880124722746 l -1.529528029378274 -3.7495314642068878" fill="#ff1f03" stroke="none" /><path d="M 107.93186726928326 119.44442032107085 l 2.1803910206030714 5.345076768124712 a26.77269007135088,26.77269007135088 0 0,0 -0.4282086825061878,0.1703930719892549 l -2.0880612620550174 -5.381816684520036" fill="#ff3805" stroke="none" /><path d="M 107.59598834532513 119.57807347666477 l 3.6047624772790607 9.290996962828123 a30.965788332133112,30.965788332133112 0 0,0 -0.4985931034632489,0.1885252488138519 l -3.4442991530555367 -9.351670461748606" fill="#ff730a" stroke="none" /><path d="M 107.2578585660854 119.70592522655815 l 10.538033431778945 28.6119792705757 a51.490908585825125,51.490908585825125 0 0,0 -0.834349952245654,0.2991682081258644 l -10.043963918903557 -28.789135019741526" fill="#8dff24" stroke="none" /><path d="M 106.2309692047433 120.05430185196036 l 2.840515996455404 9.142167668695029 a30.573283700416056,30.573283700416056 0 0,0 -0.5039132667739106,0.15182493361542024 l -2.6827277552412476 -9.189707971416174" fill="#ff6d0a" stroke="none" /><path d="M 104.83641907484287 120.43548508189849 l 2.2202149895646435 9.381149481826036 a30.640296686318965,30.640296686318965 0 0,0 -0.5142898665977187,0.11705069925358856 l -2.058404973574063 -9.417976914657308" fill="#ff6e0a" stroke="none" /><path d="M 104.13013068566511 120.58985236759428 l 1.89975061850614 9.470786216535483 a30.6594432537198,30.6594432537198 0 0,0 -0.5183378702034098,0.09934068647901206 l -1.7364451337310258 -9.502084101362964" fill="#ff6f0a" stroke="none" /><path d="M 102.34483914955558 120.86867818915974 l 2.143231422529933 19.074402971371875 a40.194433819334186,40.194433819334186 0 0,0 -0.6882194380631401,0.07133675871475276 l -1.8145793878611902 -19.108469098542386" fill="#ffec16" stroke="none" /><path d="M 101.62511606390274 120.93702456842531 l 1.4905755531999418 19.203684999269832 a40.2614468052371,40.2614468052371 0 0,0 -0.6914179534707935,0.04768423020075088 l -1.159794838950218 -19.22649757398687" fill="#ffed16" stroke="none" /><path d="M 100.90346689309514 120.98055641714683 l 0.9336957831636141 21.682540007642945 a42.70263414884319,42.70263414884319 0 0,0 -0.7346472689457167,0.025302737354801277 l -0.5603281625432451 -21.695399543423843" fill="#f3ff19" stroke="none" /><line stroke="#e1ed5e" stroke-width="0.3" x1="102.19456741930631" x2="102.32365962044197" y1="184.97166512339345" y2="189.96999836594603" /><path d="M 102.22038585953345 185.97133177190398 a86.0,86.0 0 0,1 -42.740103519485714,-10.115201625700543" fill="none" id="id103" stroke="none" /><text fill="#e1ed5e" style="font-size:6.75px; font-family:Arial;" text-anchor="middle"><textPath startOffset="22.20632615414155" xlink:href="#id103">July</textPath></text><path d="M 100.18074693466247 120.99922214144158 l 0.08429235915356754 9.793106466770684 a30.793469225525623,30.793469225525623 0 0,0 -0.5300785876320393,0.0 l 0.0842923591535608 -9.793106466770684" fill="#ff710a" stroke="none" /><path d="M 99.09653310690486 120.98055641714683 l -0.5588995049638364 12.9789178607726 a33.990945981464584,33.990945981464584 0 0,0 -0.5843398602486327,-0.03020369620712791 l 0.782227433625958 -12.967374357803271" fill="#ff9c0e" stroke="none" /><path d="M 98.73552117531835 120.96189622390904 l -1.405934200894408 23.306872556140142 a44.34923894531475,44.34923894531475 0 0,0 -0.7616184330854223,-0.052525666286324636 l 1.8069153947587602 -23.27921854533753" fill="#dfff1b" stroke="none" /><path d="M 98.37488393609728 120.93702456842531 l -1.1875708806061063 15.299953804090231 a36.345973771766936,36.345973771766936 0 0,0 -0.6233432848151786,-0.05378468150560694 l 1.4507584831628266 -15.27724487030596" fill="#ffbb11" stroke="none" /><path d="M 97.65516085044442 120.86867818915974 l -1.0721501829414053 9.541958194656354 a30.6020035515173,30.6020035515173 0 0,0 -0.5229628511582642,-0.06332351829886614 l 1.236240457151059 -9.522089147632139" fill="#ff6e0a" stroke="none" /><path d="M 97.2962882734958 120.8252237178851 l -3.2083089830151623 24.711862463894786 a45.91925747218299,45.91925747218299 0 0,0 -0.7829701530818667,-0.10851252877685856 l 3.63320772728386 -24.65297536962532" fill="#ccff1d" stroke="none" /><path d="M 96.58105272829116 120.7198165907248 l -1.563273516447558 9.473892975758408 a30.6020035515173,30.6020035515173 0 0,0 -0.5189969066613745,-0.09023426476262707 l 1.7261193945809825 -9.445580132474776" fill="#ff6e0a" stroke="none" /><path d="M 95.86986931433489 120.58985236759428 l -1.9035162292464867 9.489558835398785 a30.67858982112063,30.67858982112063 0 0,0 -0.5168736680960944,-0.10831590261808122 l 2.066581358771968 -9.455386952054162" fill="#ff6f0a" stroke="none" /><path d="M 95.16358092515715 120.4354850818985 l -8.971256000534765 37.90655138187701 a59.95369137699292,59.95369137699292 0 0,0 -1.0022164964482223,-0.24632043102075915 l 9.622425781726198 -37.74650969254222" fill="#35ff2f" stroke="none" /><path d="M 94.46302465271185 120.25689768951611 l -2.531716997586884 9.262228740831253 a30.6020035515173,30.6020035515173 0 0,0 -0.5069277728154656,-0.1432628521623105 l 2.6907759385069636 -9.21727709533042" fill="#ff6e0a" stroke="none" /><path d="M 93.76903079525671 120.05430185196036 l -3.613136347491265 11.628837274580077 a33.17721686692922,33.17721686692922 0 0,0 -0.5439146474558361,-0.17414429385691318 l 3.8127723400380416 -11.564920134063458" fill="#ff910d" stroke="none" /><path d="M 93.42475214034765 119.94407469862007 l -3.006454919070876 9.119194099422677 a30.6020035515173,30.6020035515173 0 0,0 -0.4988567642117563,-0.1692392994002976 l 3.162981416219858 -9.066091813124256" fill="#ff6e0a" stroke="none" /><path d="M 92.40401165467489 119.57807347666478 l -13.862787483409068 35.73026439786555 a59.32530066094122,59.32530066094122 0 0,0 -0.9488627690233419,-0.3775720780901742 l 14.475771328474268 -35.486345475369305" fill="#3bff2e" stroke="none" /><path d="M 92.06813273071674 119.44442032107085 l -7.2430492761732665 17.75583097280791 a40.17632124136428,40.17632124136428 0 0,0 -0.638092846971111,-0.26672286178478755 l 7.547613582641841 -17.62852306800315" fill="#ffec16" stroke="none" /><path d="M 91.7346041902142 119.30500536409082 l -9.210086350419653 21.511464240839413 a44.40018769939889,44.40018769939889 0 0,0 -0.69999924707555,-0.306859098836306 l 9.579006272152947 -21.349740588708656" fill="#deff1b" stroke="none" /><path d="M 91.40352486487194 119.15986991738527 l -3.2918598116861317 7.336914815287854 a29.041558308349487,29.041558308349487 0 0,0 -0.45433720747997186,-0.20856392812123759 l 3.417665014933523 -7.2791638168325425" fill="#ff5808" stroke="none" /><path d="M 91.07499286063937 119.00905698771935 l -9.586908360305854 20.418816983730967 a43.55741339169902,43.55741339169902 0 0,0 -0.6759432970967296,-0.3244938596129526 l 9.936964325402824 -20.250768847618453" fill="#e8ff1a" stroke="none" /><path d="M 90.10565033884886 118.52300852407294 l -29.683048983453403 55.569025572218784 a84.0,84.0 0 0,0 -1.2695087525254378,-0.6922373929609367 l 30.635180547847483 -55.04984752749809" fill="#4dd2ff" stroke="none" /><line stroke="#e1ed5e" stroke-width="0.3" x1="58.666819895761336" x2="56.23545636021788" y1="174.27360380694188" y2="178.64263932499728" /><path d="M 58.180547188652646 175.14741091055294 a86.0,86.0 0 0,1 -31.652253787137756,-30.449443065178592" fill="none" id="id104" stroke="none" /><text fill="#e1ed5e" style="font-size:6.75px; font-family:Arial;" text-anchor="middle"><textPath startOffset="22.20632615414155" xlink:href="#id104">August</textPath></text><path d="M 89.1626897886671 117.98757091392108 l -12.45234719202922 20.668179999790087 a45.12953822795954,45.12953822795954 0 0,0 -0.6619445938886456,-0.40662043425902594 l 12.806270985850174 -20.45077109870268" fill="#d6ff1c" stroke="none" /><path d="M 88.54995079064634 117.60387380957326 l -16.239210372023038 24.96696782077355 a50.78357660977544,50.78357660977544 0 0,0 -0.7286845962382292,-0.48293241643013285 l 16.666569667001227 -24.6837373832521" fill="#95ff23" stroke="none" /><path d="M 88.24862548938628 117.40417183066458 l -10.737988306561778 15.903313559981854 a40.189053521707635,40.189053521707635 0 0,0 -0.5700015669029908,-0.39205227526765374 l 11.01014675808766 -15.716120495349099" fill="#ffec16" stroke="none" /><path d="M 87.95078237400918 117.19931262002967 l -26.382995732632384 37.6596560493395 a66.98165022683126,66.98165022683126 0 0,0 -0.9386128189209927,-0.6696753245841274 l 27.027335879402262 -37.199936462911154" fill="#38ff7d" stroke="none" /><path d="M 87.65650970185807 116.9893568818739 l -11.280719785700537 15.526578762939675 a40.19190680899803,40.19190680899803 0 0,0 -0.5562081993443462,-0.411469528814905 l 11.546312955463447 -15.330099285385003" fill="#ffec16" stroke="none" /><path d="M 87.36589467227662 116.77436683061367 l -21.868278407967825 29.034626073941528 a57.34874291886856,57.34874291886856 0 0,0 -0.7834146095445701,-0.6006889160860699 l 22.364821746005884 -28.653897816028092" fill="#4fff2b" stroke="none" /><path d="M 87.07902340077011 116.55440617244103 l -11.80323060724925 15.122345599715572 a40.183367514728545,40.183367514728545 0 0,0 -0.541600052020411,-0.4302798369109709 l 12.061788151987018 -14.91693184879947" fill="#ffec16" stroke="none" /><path d="M 86.24171649860922 115.8653595955263 l -9.64633242521689 11.12366471359459 a35.723710331239886,35.723710331239886 0 0,0 -0.4611040413253575,-0.4068707048220373 l 9.836378819448836 -10.955970867000262" fill="#ffb310" stroke="none" /><path d="M 85.97065885151581 115.62618273729859 l -23.659125733722018 26.35204449068575 a56.41446709076883,56.41446709076883 0 0,0 -0.717002223005405,-0.6549645307568097 l 24.109227506194276 -25.940887193342363" fill="#58ff2a" stroke="none" /><path d="M 85.44109423537348 115.13401014063109 l -36.74301336629215 38.19443204542742 a73.99871385711447,73.99871385711447 0 0,0 -0.9103605356721666,-0.8909793896492195 l 37.39502385434012 -37.556302552855634" fill="#40ffca" stroke="none" /><path d="M 85.18274418774928 114.88116024355367 l -13.540535769110358 13.59893391305997 a40.190547477503856,40.190547477503856 0 0,0 -0.4860364912410854,-0.49235239955758503 l 13.772612885406977 -13.36384101952172" fill="#ffec16" stroke="none" /><path d="M 84.9287848128048 114.62390073753433 l -13.770359165439514 13.361654190079966 a40.187407178680644,40.187407178680644 0 0,0 -0.47745213372128925,-0.5006066533782954 l 13.99831785053976 -13.12264042011917" fill="#ffec16" stroke="none" /><path d="M 83.95833913139862 113.55231037782056 l -27.257324278918976 23.02752325476761 a56.68232831661926,56.68232831661926 0 0,0 -0.6232464925550124,-0.7507405496118829 l 27.649666771367524 -22.554921448041966" fill="#56ff2b" stroke="none" /><path d="M 83.72743513129214 113.27417163493432 l -14.859647702717446 12.12159949165972 a40.1766082528971,40.1766082528971 0 0,0 -0.43253388001756576,-0.539652520446298 l 15.066099494789873 -11.864019137635163" fill="#ffec16" stroke="none" /><path d="M 83.50135304334701 112.99209946851258 l -22.497198492293265 17.71574610588796 a49.63514623831921,49.63514623831921 0 0,0 -0.5228074273476402,-0.6757990749972509 l 22.798812736858974 -17.325869036777455" fill="#a2ff22" stroke="none" /><path d="M 82.6465618267979 111.8261652097733 l -15.850736683461943 10.802091714868839 a40.18152858415836,40.18152858415836 0 0,0 -0.384588688822181,-0.5749079081106302 l 16.034328477694853 -10.527646892552387" fill="#ffec16" stroke="none" /><path d="M 82.24976979558568 111.22182372390057 l -38.87042861335934 24.5741656839527 a66.98695292850596,66.98695292850596 0 0,0 -0.6077801530370742,-0.9799351281094947 l 39.287673406064364 -23.901434224477942" fill="#38ff7d" stroke="none" /><path d="M 82.05923443525364 110.91462005526583 l -16.391883892582587 9.972327213791345 a40.1870051755565,40.1870051755565 0 0,0 -0.35444770985367613,-0.5940747495089417 l 16.561112478134497 -9.688690370396293" fill="#ffec16" stroke="none" /><line stroke="#e1ed5e" stroke-width="0.3" x1="26.63291911575756" x2="22.317208475507996" y1="142.92168965132927" y2="145.44649492493687" /><path d="M 25.769776987707644 143.4266507060508 a86.0,86.0 0 0,1 -11.730757126820373,-40.83630448921669" fill="none" id="id105" stroke="none" /><text fill="#e1ed5e" style="font-size:6.75px; font-family:Arial;" text-anchor="middle"><textPath startOffset="21.46611528233685" xlink:href="#id105">September</textPath></text><path d="M 81.69416730710424 110.29060199501025 l -33.407873775028406 18.780196360681092 a59.32468924223613,59.32468924223613 0 0,0 -0.4927440621811341,-0.8944736000466429 l 33.72619424666105 -18.202352242236625" fill="#3bff2e" stroke="none" /><path d="M 81.51974371655577 109.97397251340807 l -30.354953034962673 16.382860852841162 a55.493786447392885,55.493786447392885 0 0,0 -0.44645409663765895,-0.8445229002192282 l 30.632459639825218 -15.85792293753581" fill="#62ff29" stroke="none" /><path d="M 81.02952815118164 109.00673069616217 l -25.096732159162517 11.915333983923484 a48.78166929860738,48.78166929860738 0 0,0 -0.35360991905587486,-0.7616443070311378 l 25.29811669505822 -11.48156960961352" fill="#abff21" stroke="none" /><path d="M 80.73074385275274 108.34839909993369 l -18.41186842587391 7.976936142219567 a41.06560263607204,41.06560263607204 0 0,0 -0.2754309446684464,-0.651037392210444 l 18.54645035173466 -7.658824224342964" fill="#fff717" stroke="none" /><path d="M 80.58989483394504 108.01547362559985 l -8.848497305216922 3.654019191003324 a30.573283700416056,30.573283700416056 0 0,0 -0.19668431911873457,-0.48815435008908376 l 8.910084238593045 -3.501165473071435" fill="#ff6d0a" stroke="none" /><path d="M 80.45479744820244 107.68017299344265 l -14.523437308906662 5.7068997211064385 a36.60445243167817,36.60445243167817 0 0,0 -0.22538881389348922,-0.5884190709481552 l 14.61952040239366 -5.456057083325126" fill="#ffbe11" stroke="none" /><path d="M 80.20201598880116 107.00284435728193 l -25.63190848023053 9.066391081314954 a48.18812570918159,48.18812570918159 0 0,0 -0.2698745439552427,-0.7843817502077477 l 25.784173855128998 -8.623836628017909" fill="#b2ff20" stroke="none" /><path d="M 80.0844068197444 106.66101706037122 l -9.097092324943402 3.042635317349981 a30.592430267816887,30.592430267816887 0 0,0 -0.16273388196000885,-0.5008433894489424 l 9.14811845791966 -2.8855930279232354" fill="#ff6e0a" stroke="none" /><path d="M 79.86692584326677 105.97154293290107 l -18.870127649763013 5.596948410990579 a40.6826712880554,40.6826712880554 0 0,0 -0.19335381646143876,-0.6730900007399362 l 18.963674103110556 -5.271300934746047" fill="#fff216" stroke="none" /><path d="M 79.67330655649465 105.27499134158121 l -29.670830289974074 7.699893409232622 a51.6536544087322,51.6536544087322 0 0,0 -0.21593363963808837,-0.8625475521205027 l 29.798975243907222 -7.188018017714728" fill="#8bff24" stroke="none" /><path d="M 79.50377843672027 104.57218783832718 l -18.6872517916059 4.168652505514103 a40.14656740083211,40.14656740083211 0 0,0 -0.14465374353799962,-0.675774132098652 l 18.75623957386834 -3.8463645539992877" fill="#ffec16" stroke="none" /><path d="M 79.35854240842038 103.8639653848113 l -9.409834738776118 1.7614684208278966 a30.573283700416056,30.573283700416056 0 0,0 -0.09238017238879487,-0.5181170665472353 l 9.438761353504102 -1.5992326035474476" fill="#ff6d0a" stroke="none" /><path d="M 79.29508885075956 103.50808413554451 l -9.476516398918116 1.605629533961637 a30.61157683521772,30.61157683521772 0 0,0 -0.08355247049663005,-0.520281313539585 l 9.502750623776038 -1.4422689907288386" fill="#ff6e0a" stroke="none" /><path d="M 79.18660465613746 102.79330883721812 l -13.890748391015542 1.8642393321779105 a35.015287337409106,35.015287337409106 0 0,0 -0.07503024207006474,-0.5980648522120744 l 13.920780142332456 -1.6248567256784274" fill="#ffaa0f" stroke="none" /><path d="M 79.1416061653843 102.43462659150553 l -38.149023176938385 4.452817748238968 a59.408014206069204,59.408014206069204 0 0,0 -0.10981344685106767,-1.0167361340563041 l 38.2200189252905 -3.7954852922978817" fill="#3aff2e" stroke="none" /><path d="M 79.04373962182676 101.35467743843564 l -23.615866591661923 1.5266026038763676 a44.66515730742849,44.66515730742849 0 0,0 -0.04299265796978866,-0.7676627888846596 l 23.638645600519244 -1.1198680986562703" fill="#dbff1b" stroke="none" /><path d="M 79.0235259727143 100.99374915477108 l -20.138749043160807 0.954062385020269 a41.16133547307621,41.16133547307621 0 0,0 -0.027436709791394,-0.7080195674364295 l 20.152187885803404 -0.6072655705698428" fill="#fff817" stroke="none" /><path d="M 79.0095281055655 100.63252640178507 l -60.89673490277914 1.835060821987882 a81.92437746944776,81.92437746944776 0 0,0 -0.03034298440605487,-1.4099192548815302 l 60.9192999498702 -0.7865517513162227" fill="#4ae5ff" stroke="none" /><line stroke="#e1ed5e" stroke-width="0.3" x1="15.007084014347285" x2="10.007500721073583" y1="101.09737516637583" y2="101.16192664675087" /><path d="M 14.007167355692545 101.11028546245083 a86.0,86.0 0 0,1 10.666146001902534,-42.60595125391555" fill="none" id="id106" stroke="none" /><text fill="#e1ed5e" style="font-size:6.75px; font-family:Arial;" text-anchor="middle"><textPath startOffset="22.20632615414155" xlink:href="#id106">October</textPath></text><path d="M 79.00019446554 99.90962569577889 l -19.988831262903865 -0.08602349743734264 a40.98901636646872,40.98901636646872 0 0,0 0.009109307030197633,-0.7055258682973495 l 19.984388948755953 0.4300856237951641" fill="#fff617" stroke="none" /><path d="M 79.00486145842228 99.54816195383935 l -19.735541193646924 -0.42473015146821286 a40.740110990257904,40.740110990257904 0 0,0 0.021123370303469554,-0.7009818237142501 l 19.72530612888781 0.7643821226074574" fill="#fff316" stroke="none" /><path d="M 79.01574976396665 99.18683210126434 l -9.585236052931904 -0.3714407792689973 a30.592430267816887,30.592430267816887 0 0,0 0.024920290345268797,-0.5260279424342267 l 9.577422154353137 0.5363798283262331" fill="#ff6e0a" stroke="none" /><path d="M 79.03285615573316 98.82574320788736 l -9.577422154353137 -0.5363798283262331 a30.592430267816887,30.592430267816887 0 0,0 0.03397130445639008,-0.5255210438850832 l 9.566770258892333 0.7011599364643282" fill="#ff6e0a" stroke="none" /><path d="M 79.05617556472873 98.46500227214037 l -47.77656524500721 -3.501601119827842 a68.90471163688193,68.90471163688193 0 0,0 0.09687843706417358,-1.1821623162657047 l 47.70921232412354 4.323477353301325" fill="#3aff92" stroke="none" /><path d="M 79.08570108090925 98.10471618934814 l -30.0137091119786 -2.7198854332918807 a51.136697088909735,51.136697088909735 0 0,0 0.0869880858634793,-0.875958153420779 l 29.96244390043289 3.23611911741709" fill="#91ff24" stroke="none" /><path d="M 79.21141760316559 97.0276538004421 l -20.887097781889217 -2.98643190414208 a42.09951727571698,42.09951727571698 0 0,0 0.1087452714884728,-0.716495468676462 l 20.832596616961442 3.345526485210634" fill="#faff18" stroke="none" /><path d="M 79.26566170972629 96.67025291283419 l -5.690210146738108 -0.9137962541274056 a26.763116787650464,26.763116787650464 0 0,0 0.07696070489157525,-0.4542264367658034 l 5.67363758032631 1.011608479209037" fill="#ff3805" stroke="none" /><path d="M 79.32604984820605 96.31383870115002 l -25.37115011003061 -4.523671139585926 a46.77127972152002,46.77127972152002 0 0,0 0.14814084821363205,-0.7913743347707752 l 25.289523537907115 4.959723551819274" fill="#c2ff1e" stroke="none" /><path d="M 79.46518482838121 95.60439243477599 l -29.01978072656642 -6.211868314214852 a50.67717947128976,50.67717947128976 0 0,0 0.18993230834741037,-0.851429296338366 l 28.908554031216973 6.710475780103177" fill="#96ff23" stroke="none" /><path d="M 79.54389044137918 95.25157060432595 l -25.6073836676522 -5.944182739407525 a47.288237041342484,47.288237041342484 0 0,0 0.19088054450463884,-0.7913230888151858 l 25.501270322886747 6.384091059882108" fill="#bcff1f" stroke="none" /><path d="M 79.71946130924805 94.55025226153421 l -18.50909541279206 -4.973728874021886 a40.165713968232936,40.165713968232936 0 0,0 0.18517011817964113,-0.666155436440163 l 18.420738524046058 5.291595613880991" fill="#ffec16" stroke="none" /><path d="M 79.91906864156998 93.8553929516997 l -25.137727788635047 -7.6919469815058195 a47.288237041342484,47.288237041342484 0 0,0 0.24487316478644247,-0.7763148499995753 l 25.0015991400804 8.123511997931809" fill="#bcff1f" stroke="none" /><path d="M 80.14247586403 93.16781622104843 l -12.691552401065854 -4.366658091438866 a34.42174374798331,34.42174374798331 0 0,0 0.19759215057017082,-0.558619617707032 l 12.614507169685874 4.58447533557251" fill="#ffa20e" stroke="none" /><path d="M 80.2630227832202 92.82701384747504 l -23.825402985255494 -8.65883786633096 a46.350055238701714,46.350055238701714 0 0,0 0.2789730621365712,-0.7475091098457255 l 23.672825334617293 9.067670113206027" fill="#c7ff1e" stroke="none" /><path d="M 80.38941819471856 92.48833698450439 l -24.51317487444132 -9.389558704837963 a47.24994390654082,47.24994390654082 0 0,0 0.2974641596272849,-0.7570138402845248 l 24.347917164932344 9.810121550018252" fill="#bdff1f" stroke="none" /><path d="M 80.65960295795068 91.81776055985345 l -32.21629275062727 -13.62957650695459 a55.980778641320256,55.980778641320256 0 0,0 0.3830932362380073,-0.8842320077159125 l 31.976908804546575 14.1821076592571" fill="#5dff2a" stroke="none" /><path d="M 80.95270993114464 91.15688171328213 l -17.3835673014117 -8.070698841451659 a40.165713968232936,40.165713968232936 0 0,0 0.29654118282240116,-0.6245913584542611 l 17.242067924747545 8.368732615546453" fill="#ffec16" stroke="none" /><path d="M 81.26839172434947 90.50648371742162 l -21.604151927394998 -10.949373117130202 a45.220407762052616,45.220407762052616 0 0,0 0.3578669142241097,-0.6912849715299688 l 21.412475580010774 11.319630810920508" fill="#d5ff1c" stroke="none" /><path d="M 81.43458229118936 90.18545643968196 l -43.99290437347668 -23.256696029709403 a70.76192867476264,70.76192867476264 0 0,0 0.5785357160541391,-1.0719388175006284 l 43.58606055820407 24.010515830542506" fill="#3cffa7" stroke="none" /><path d="M 81.6062741919709 89.86733742301443 l -8.905039690806602 -4.90557287649791 a31.166827289841848,31.166827289841848 0 0,0 0.2629031095025727,-0.4676752962877968 l 8.819278940011598 5.058131682720492" fill="#ff760a" stroke="none" /><line stroke="#e1ed5e" stroke-width="0.3" x1="26.266209847984243" x2="21.928928074336255" y1="57.711370442889674" y2="55.22380399835377" /><path d="M 25.398753493254645 57.213857153982495 a86.0,86.0 0 0,1 29.58750427330803,-30.492523968695096" fill="none" id="id107" stroke="none" /><text fill="#e1ed5e" style="font-size:6.75px; font-family:Arial;" text-anchor="middle"><textPath startOffset="21.46611528233685" xlink:href="#id107">November</textPath></text><path d="M 82.15384107792192 88.93136811851018 l -16.677857226843688 -10.344022095847263 a40.62523158585291,40.62523158585291 0 0,0 0.3736987446906499,-0.5911016701529574 l 16.497330885907076 10.629571413714435" fill="#fff216" stroke="none" /><path d="M 82.7489923806493 88.02491185347247 l -26.25079339113723 -18.22244657886147 a52.95562099198878,52.95562099198878 0 0,0 0.5262461814988995,-0.744337903586136 l 25.933234589834452 18.67161098277939" fill="#7dff26" stroke="none" /><path d="M 83.6137871275137 86.86637796730984 l -14.939987105116268 -11.974465688855037 a40.14656740083211,40.14656740083211 0 0,0 0.43683577090699427,-0.5355090030890087 l 14.731652842132881 12.22985886155213" fill="#ffec16" stroke="none" /><path d="M 84.31358615837235 86.03803664274999 l -30.477458483739255 -27.126987906110397 a61.80133513117322,61.80133513117322 0 0,0 0.7141184279999149,-0.7885474043532348 l 30.005996415123295 27.647588097733188" fill="#31ff40" stroke="none" /><path d="M 84.5562425177563 85.77008943001954 l -7.181162914928618 -6.616738587444359 a30.764749374424376,30.764749374424376 0 0,0 0.3621929227022228,-0.38636215676750396 l 7.066202670255938 6.739370161089913" fill="#ff700a" stroke="none" /><path d="M 85.31137513191541 84.99185889309783 l -6.9639575215431675 -7.115441920835277 a30.956215048432696,30.956215048432696 0 0,0 0.38402917783113544,-0.3694357648076295 l 6.840445100099605 7.234260772405221" fill="#ff730a" stroke="none" /><path d="M 85.57189188830299 84.74124197986013 l -7.208776759335737 -7.623797890919347 a31.492318935655994,31.492318935655994 0 0,0 0.39709132262760355,-0.36905310780664186 l 7.076477552913277 7.746755584800637" fill="#ff7a0b" stroke="none" /><path d="M 86.10567301691215 84.25364557470407 l -28.95912072428849 -32.819191553835076 a64.76905307830219,64.76905307830219 0 0,0 0.8423252405457434,-0.7304561481905123 l 28.38990168509597 33.31281269544527" fill="#35ff63" stroke="none" /><path d="M 86.65592168130627 83.78471172551755 l -12.446173367345784 -15.124183495159079 a40.586938451051246,40.586938451051246 0 0,0 0.543278593393443,-0.4392935066971338 l 12.18399137538784 15.336183099120346" fill="#fff116" stroke="none" /><path d="M 86.93701828274178 83.55741782278169 l -12.73185413518045 -16.025786640234262 a41.46768055148952,41.46768055148952 0 0,0 0.5627113795344356,-0.43920515730662757 l 12.45411020048659 16.242570186764112" fill="#fffc17" stroke="none" /><path d="M 87.80319425747018 82.90503203632743 l -9.163153223654458 -12.843019238913072 a36.77677153828566,36.77677153828566 0 0,0 0.5184979447205863,-0.36324094529752765 l 8.940724139350213 12.998845026974543" fill="#ffc111" stroke="none" /><path d="M 88.39885842347998 82.49532879139004 l -21.51410607490483 -32.46209441582683 a59.9441180932925,59.9441180932925 0 0,0 0.8650021139308739,-0.5626214364998017 l 20.95213693518967 32.82761477648617" fill="#35ff2f" stroke="none" /><path d="M 88.70189139769569 82.29822771554957 l -8.251062775362303 -12.92768900489942 a36.336400488066516,36.336400488066516 0 0,0 0.5301322467274042,-0.33196876426627625 l 8.027311376262658 13.067802110488627" fill="#ffbb11" stroke="none" /><line stroke="#e1ed5e" stroke-width="0.3" x1="56.762969772571076" x2="54.21961505331055" y1="26.818313649435495" y2="22.513508569990535" /><path d="M 56.25429882871897 25.957352633546506 a86.0,86.0 0 0,1 42.265352541879196,-11.944610805530505" fill="none" id="id108" stroke="none" /><text fill="#e1ed5e" style="font-size:6.75px; font-family:Arial;" text-anchor="middle"><textPath startOffset="22.20632615414155" xlink:href="#id108">December</textPath></text><path d="M 89.3179101791058 81.91981866633112 l -4.879390558165916 -8.258708508223963 a30.592430267816887,30.592430267816887 0 0,0 0.4556862928380935,-0.26396291332682403 l 4.736507532862502 8.341475578940834" fill="#ff6e0a" stroke="none" /><path d="M 89.63071344664047 81.73862282372117 l -9.473015065725004 -16.682951157881668 a40.184860535633774,40.184860535633774 0 0,0 0.6044490203431488,-0.33637522539789577 l 9.184441956309811 16.84354178083975" fill="#ffec16" stroke="none" /><path d="M 90.58718382345135 81.22770947309562 l -9.835033084852252 -19.614331667343716 a42.9419662413536,42.9419662413536 0 0,0 0.6636143760184544,-0.32563269226666214 l 9.495947441823372 19.780719519745208" fill="#f0ff19" stroke="none" /><path d="M 90.91171255644093 81.06846463323043 l -4.15136969315315 -8.647592041354581 a30.592430267816887,30.592430267816887 0 0,0 0.4766909406155733,-0.22381278834668594 l 4.001900541237967 8.717769812341274" fill="#ff6e0a" stroke="none" /><path d="M 91.23893434514133 80.91482961587045 l -4.00988836666958 -8.73517055048966 a30.61157683521772,30.61157683521772 0 0,0 0.4807735915325272,-0.21570909630682844 l 3.8589326566702784 8.802899977313016" fill="#ff6e0a" stroke="none" /><path d="M 92.23578459929587 80.48803036053334 l -14.943675863098221 -37.5544127377455 a61.41840378315658,61.41840378315658 0 0,0 0.9856683835129206,-0.382424019525899 l 14.295024314585625 37.80607946116195" fill="#31ff3b" stroke="none" /><path d="M 92.91201910852362 80.23233633223022 l -4.387972958607623 -12.237613920959204 a34.000519265164996,34.000519265164996 0 0,0 0.5526185283997036,-0.1927977536094139 l 4.176672426144634 12.311332527740827" fill="#ff9c0e" stroke="none" /><path d="M 94.63758080256005 79.69619591428918 l -0.7431491395469336 -2.8137961580901716 a23.91027824492648,23.91027824492648 0 0,0 0.39883609229838946,-0.10167220038289272 l 0.6946041585635447 2.8261713546419274" fill="#ff0e01" stroke="none" /><path d="M 94.98787191387505 79.60689891045804 l -9.701609398884244 -39.473432802005334 a61.64816259196656,61.64816259196656 0 0,0 1.0326839686731537,-0.2444029307040693 l 9.020701743248557 39.63458164485027" fill="#31ff3e" stroke="none" /><path d="M 95.692805502759 79.44645832069477 l -3.9741716965198592 -18.964387063890133 a40.37632620964209,40.37632620964209 0 0,0 0.6814631557623625,-0.13669509817340877 l 3.6471421312903605 19.02998611814075" fill="#ffee16" stroke="none" /><path d="M 97.11714578562143 79.19881850522333 l -0.39689100670848565 -2.8637597499766283 a23.89113167752565,23.89113167752565 0 0,0 0.40783899169868104,-0.05294920617992645 l 0.3475372865019469 2.8701672793206914" fill="#ff0e01" stroke="none" /><path d="M 97.47563105711357 79.15227682838746 l -0.23245871481256017 -1.919780762989334 a22.93380330748404,22.93380330748404 0 0,0 0.3923136077717726,-0.044081004942829904 l 0.19937840353106956 1.9234977214027624" fill="#ff0000" stroke="none" /><path d="M 99.27714615592234 79.0124445844662 l -0.19837576780103067 -5.759701568905108 a26.763116787650464,26.763116787650464 0 0,0 0.4605465507726509,-0.011894558661783136 l 0.09920258183350077 5.762262919709251" fill="#ff3805" stroke="none" /></svg>