<?xml version="1.0" encoding="utf-8" ?>
<svg baseProfile="full" height="200mm" version="1.1" viewBox="0,0,200,200" width="200mm" xmlns="http://www.w3.org/2000/svg" xmlns:ev="http://www.w3.org/2001/xml-events" xmlns:xlink="http://www.w3.org/1999/xlink"><defs /><rect fill="#1a1a1a" height="200" width="200" x="0" y="0" /><text alignment-baseline="middle" fill="#e1ed5e" style="dominant-baseline: central; font-size:9.0px; font-family:Arial;" text-anchor="middle" x="100.0" y="100.0">2024</text><line stroke="#e1ed5e" stroke-width="0.3" x1="100.0" x2="100.0" y1="15.0" y2="10.0" /><path d="M 100.0 14.0 a86.0,86.0 0 0,1 42.35913384403234,11.155469271406648" fill="none" id="id121" stroke="none" /><text fill="#e1ed5e" style="font-size:6.75px; font-family:Arial;" text-anchor="middle"><textPath startOffset="22.145653131862478" xlink:href="#id121">January</textPath></text><path d="M 101.44090949804482 79.04949213459386 l 0.11426845859039458 -1.6614383094249265 a22.665363184609706,22.665363184609706 0 0,0 0.38793496539184197,0.030028619793521148 l -0.14277241875747007 1.6592319226363519" fill="#ff1302" stroke="none" /><path d="M 102.15924093988457 79.11130261209362 l 1.3991255832662133 -13.535270833688585 a34.607391702271634,34.607391702271634 0 0,0 0.5904088564839247,0.06615654384405058 l -1.6312703413509346 13.509258529337565" fill="#ffb510" stroke="none" /><path d="M 104.29559338865022 79.4440306129975 l 0.15757675382580502 -0.754061810483487 a21.770350340673588,21.770350340673588 0 0,0 0.3651588377787464,0.07958466912245764 l -0.17049800822368555 0.7512456832273106" fill="#ff0701" stroke="none" /><path d="M 104.9986988182912 79.60360301121754 l 0.39641185633020026 -1.617495649704885 a22.665363184609706,22.665363184609706 0 0,0 0.3771027582774595,0.09585804650526525 l -0.42411990783305414 1.610452371364352" fill="#ff1302" stroke="none" /><path d="M 106.72888874123014 80.10723608172694 l 7.097877893249919 -20.98361478114398 a43.15156788741894,43.15156788741894 0 0,0 0.6996599901368425,0.24337806370041798 l -7.45704365543178 20.858678284874973" fill="#e1ff1b" stroke="none" /><path d="M 107.74402155503746 80.48000691201159 l 0.5893706424725076 -1.4855990244297526 a22.5982372213145,22.5982372213145 0 0,0 0.3593609764294348,0.1461489806427925 l -0.6147860800923821 1.4752627872076665" fill="#ff1202" stroke="none" /><path d="M 108.73861861582097 80.90454125486305 l 1.0175509460978842 -2.2235324559317418 a23.445302948611182,23.445302948611182 0 0,0 0.3645312390201539,0.1706190261227258 l -1.0555708989895434 2.2057371982384826" fill="#ff1e03" stroke="none" /><path d="M 109.06512990194946 81.05736502329252 l 1.5937050827881332 -3.330230671850256 a24.69192798123649,24.69192798123649 0 0,0 0.38077275250869597,0.18625503401796023 l -1.6506380845588962 3.302381887735075" fill="#ff3004" stroke="none" /><path d="M 110.02825361518725 81.54914285379988 l 1.5279576876920493 -2.811270047892365 a24.199670917071625,24.199670917071625 0 0,0 0.3632898524436488,0.20151075717836192 l -1.5759917282917983 2.7846263752808573" fill="#ff2904" stroke="none" /><path d="M 110.34350942703115 81.72400993836675 l 2.1286122044460662 -3.761053805574146 a25.321633446434404,25.321633446434404 0 0,0 0.3764573660978527,0.21734776165501277 l -2.1928620384043165 3.7239591466429616" fill="#ff3905" stroke="none" /><line stroke="#e1ed5e" stroke-width="0.3" x1="143.13028292997686" x2="145.6673583964461" y1="26.7553504044142" y2="22.446841604673864" /><path d="M 143.63769802327073 25.89364864446614 a86.0,86.0 0 0,1 29.32050498858742,28.57503671076993" fill="none" id="id122" stroke="none" /><text fill="#e1ed5e" style="font-size:6.75px; font-family:Arial;" text-anchor="middle"><textPath startOffset="20.669276256404974" xlink:href="#id122">February</textPath></text><path d="M 110.65571695917076 81.90426304109057 l 2.1506916145888475 -3.6523445476690566 a25.238525110926048,25.238525110926048 0 0,0 0.3714476849804709,0.22304366227192687 l -2.2130720561267525 3.6148868848612086" fill="#ff3805" stroke="none" /><path d="M 111.27062007382361 82.28071324371311 l 1.1665642539342758 -1.834032768357056 a23.17360262098772,23.17360262098772 0 0,0 0.333826083105498,0.21638203389666852 l -1.197875969296781 1.8137368927564927" fill="#ff1b02" stroke="none" /><path d="M 111.8722381534696 82.67804972795209 l 2.5660959183240957 -3.744010633540474 a25.538993708533173,25.538993708533173 0 0,0 0.3594977098440403,0.2509573214702892 l -2.6299887193418967 3.6994084962650584" fill="#ff3c05" stroke="none" /><path d="M 112.16784306229584 82.88440491214696 l 2.1799272694826857 -3.0663407042985744 a24.76225041897433,24.76225041897433 0 0,0 0.3443355880102702,0.24927241131609193 l -2.232243867866924 3.0284675216094077" fill="#ff3104" stroke="none" /><path d="M 112.7482090630111 83.31218511350987 l 1.5754465013537917 -2.062310042784219 a23.595217599970482,23.595217599970482 0 0,0 0.3197602039580709,0.24864746865009882 l -1.6106166499470886 2.034961522513329" fill="#ff2103" stroke="none" /><path d="M 115.16444852881244 85.47280134310134 l 5.253525211127779 -5.032758312712308 a28.275175831423596,28.275175831423596 0 0,0 0.3327640360389446,0.35338387469181626 l -5.339145080902984 4.941832978075997" fill="#ff6209" stroke="none" /><path d="M 115.6541949942343 86.00192230759917 l 2.926045315282517 -2.61648776381641 a24.925270615548406,24.925270615548406 0 0,0 0.28247326830183717,0.32140272642482587 l -2.9705296475429446 2.5658727595802864" fill="#ff3304" stroke="none" /><path d="M 116.35404254752997 86.82634096563983 l 2.7407182009318216 -2.2077285774087705 a24.519318361334523,24.519318361334523 0 0,0 0.2612283150103488,0.3300534423598049 l -2.77821294658373 2.1603551911342875" fill="#ff2e04" stroke="none" /><path d="M 116.7966241395341 87.39550010848427 l 8.183631252004634 -6.141149457843277 a31.231595043411154,31.231595043411154 0 0,0 0.3181131002362592,0.43158151586035204 l -8.287846371824719 5.9997616327140495" fill="#ff890c" stroke="none" /><path d="M 117.01052211995028 87.68569379921539 l 0.45052493632962504 -0.32614531041027256 a21.556186553017444,21.556186553017444 0 0,0 0.21441723353318268,0.30160469117023253 l -0.45605726839276833 0.318363392530536" fill="#ff0300" stroke="none" /><path d="M 117.42321728460499 88.27688183743584 l 4.27747752479832 -2.8780777764409327 a26.155593628516307,26.155593628516307 0 0,0 0.24745129711938116,0.3746728027354484 l -4.326253260838425 2.8042250953664256" fill="#ff4406" stroke="none" /><path d="M 117.62189284568427 88.57770195909679 l 1.3438234755285825 -0.8710501412230014 a22.601433695757127,22.601433695757127 0 0,0 0.2082370268580706,0.32738319347171446 l -1.358578194012543 0.847853273072615" fill="#ff1202" stroke="none" /><path d="M 117.81537515405839 88.88188828441811 l 3.2540795066168684 -2.0307862828086582 a24.835769331154793,24.835769331154793 0 0,0 0.22261368645330273,0.3636227267534377 l -3.2884611575255738 1.9746264399306659" fill="#ff3204" stroke="none" /><line stroke="#e1ed5e" stroke-width="0.3" x1="172.87174338648825" x2="177.1583165268699" y1="56.24261187166439" y2="53.66864786411523" /><path d="M 173.72905801456457 55.72781907015455 a86.0,86.0 0 0,1 12.242430191666344,42.057860355516425" fill="none" id="id123" stroke="none" /><text fill="#e1ed5e" style="font-size:6.75px; font-family:Arial;" text-anchor="middle"><textPath startOffset="22.145653131862474" xlink:href="#id123">March</textPath></text><path d="M 118.18653347947321 89.5 l 2.3668349997340736 -1.3664928242238956 a23.73298564844779,23.73298564844779 0 0,0 0.2006755428376596,0.3545744558350137 l -2.3899439075931093 1.325661598289764" fill="#ff2303" stroke="none" /><path d="M 118.53625476483649 90.13048839642627 l 1.4135515701689407 -0.7526365925061388 a22.601433695757127,22.601433695757127 0 0,0 0.1794036488895481,0.3440301520034929 l -1.4262632880334334 0.7282601973981476" fill="#ff1202" stroke="none" /><path d="M 118.70294669586156 90.45014215332178 l 1.480353113328115 -0.755878847598876 a22.662166710167078,22.662166710167078 0 0,0 0.17393761891213402,0.34799175401596305 l -1.493110645451986 0.7303552374191625" fill="#ff1302" stroke="none" /><path d="M 118.8641267826498 90.77261029715802 l 1.4385546795604707 -0.7036691806673083 a22.601433695757127,22.601433695757127 0 0,0 0.16748818490017015,0.34998588920308193 l -1.4504221224205527 0.6788707893991229" fill="#ff1202" stroke="none" /><path d="M 119.16976305983485 91.42560881287824 l 2.9237242384475968 -1.3077446635866417 a24.202867391514253,24.202867391514253 0 0,0 0.16638447663671277,0.3807202437905908 l -2.94574259710128 1.2573623500202016" fill="#ff2904" stroke="none" /><path d="M 119.31412917781788 91.75594674310238 l 2.942802734229922 -1.2561074973754711 a24.199670917071625,24.199670917071625 0 0,0 0.1598032822342827,0.38346970302003885 l -2.9639318610006877 1.2054052849141543" fill="#ff2904" stroke="none" /><path d="M 119.71291397450082 92.76114493625339 l 1.5032821276346273 -0.5520260198945679 a22.601433695757127,22.601433695757127 0 0,0 0.1306145785752465,0.3653522226373338 l -1.512536876253817 0.5261388408763172" fill="#ff1202" stroke="none" /><path d="M 119.83427380445688 93.10060997987247 l 1.512536876253817 -0.5261388408763172 a22.601433695757127,22.601433695757127 0 0,0 0.12432357548692997,0.3675405600754438 l -1.521345873313112 0.5000966063267118" fill="#ff1202" stroke="none" /><path d="M 119.94978838288452 93.4421083053983 l 1.521345873313112 -0.5000966063267118 a22.601433695757127,22.601433695757127 0 0,0 0.11799593367027664,0.3696205816235198 l -1.5297065227606457 0.473906991011805" fill="#ff1202" stroke="none" /><path d="M 120.16314734710363 94.1308016681162 l 3.999030175567007 -1.1640594016172972 a25.16500619874558,25.16500619874558 0 0,0 0.11717486919361109,0.41581227361410816 l -4.0184235368352 1.095239204100176" fill="#ff3705" stroke="none" /><path d="M 120.26092885502905 94.47779374421319 l 1.5419890778339227 -0.42027598008448835 a22.5982372213145,22.5982372213145 0 0,0 0.09879789962794064,0.37515171724564333 l -1.5489764582665937 0.3937437584660464" fill="#ff1202" stroke="none" /><path d="M 120.43855184770803 95.1765574152323 l 1.558618362923749 -0.3678296897522312 a22.601433695757127,22.601433695757127 0 0,0 0.08587375819742804,0.378375623389609 l -1.5647029826788432 0.3410197324235959" fill="#ff1202" stroke="none" /><path d="M 120.51834098615036 95.52812308129327 l 3.1418986039419496 -0.6847621772817117 a24.21565328928477,24.21565328928477 0 0,0 0.0850341765445386,0.40691931748405136 l -3.153190491310855 0.6307264085122559" fill="#ff2904" stroke="none" /><path d="M 120.592083275326 95.88100663000786 l 3.1343841861936936 -0.6269646207875309 a24.196474442628997,24.196474442628997 0 0,0 0.07797453043965405,0.4079956921605661 l -3.1446850089155043 0.5730663635936503" fill="#ff2904" stroke="none" /><path d="M 120.65975698304385 96.23510406497455 l 1.575487189466667 -0.28710624816041863 a22.601433695757127,22.601433695757127 0 0,0 0.0662815913852556,0.38229460546267663 l -1.580183598344157 0.26001860977714936" fill="#ff1202" stroke="none" /><path d="M 120.7213421655516 96.59031103205396 l 5.087497293670911 -0.8371457436537766 a26.15591327596057,26.15591327596057 0 0,0 0.06909957334815392,0.44366882958445086 l -5.10111835915733 0.7496887321378845" fill="#ff4406" stroke="none" /><path d="M 120.86939407059847 97.66154086499901 l 1.9313694641014878 -0.21641397690376554 a22.94345646111843,22.94345646111843 0 0,0 0.04049804948641528,0.39178189191216795 l -1.934799906069569 0.18322756270866616" fill="#ff1702" stroke="none" /><path d="M 120.93736805541906 98.37931529534042 l 2.3009714324293356 -0.17810974123042528 a23.307854547578135,23.307854547578135 0 0,0 0.027454475964184943,0.3991820550900373 l -2.3036898695585863 0.13858426198605384" fill="#ff1d02" stroke="none" /><path d="M 120.98066250479742 99.09900007780936 l 1.6638296630576617 -0.07145200475011929 a22.665363184609706,22.665363184609706 0 0,0 0.013356712559031434,0.3888661127044717 l -1.664811062613541 0.042879627481527655" fill="#ff1302" stroke="none" /><path d="M 120.99303781780057 99.45929381324524 l 13.05007366547736 -0.3361236058244894 a34.05440162369682,34.05440162369682 0 0,0 0.010035618753083163,0.5845244804804549 l -13.053920715829108 0.11205220937496818" fill="#ffae10" stroke="none" /><line stroke="#e1ed5e" stroke-width="0.3" x1="184.99686870605535" x2="189.99668451229388" y1="99.2704041080226" y2="99.22748670261217" /><path d="M 185.99683186730306 99.26182062694052 a86.0,86.0 0 0,1 -10.086455211305974,41.156179273409016" fill="none" id="id124" stroke="none" /><text fill="#e1ed5e" style="font-size:6.75px; font-family:Arial;" text-anchor="middle"><textPath startOffset="21.40746469413373" xlink:href="#id124">April</textPath></text><path d="M 120.99922638620191 100.18025310272382 l 1.6013747009378996 0.013745875831747858 a22.601433695757127,22.601433695757127 0 0,0 -0.006660500875921654,0.38794078472172444 l -1.6009027684633097 -0.04123357652254332" fill="#ff1202" stroke="none" /><path d="M 120.82617615685814 102.69636545807757 l 1.6008581719361252 0.20726314065428367 a22.614219593527643,22.614219593527643 0 0,0 -0.05314932098881879,0.3845620103704496 l -1.5970643343920963 -0.23471345922481832" fill="#ff1302" stroke="none" /><path d="M 120.77682067341334 103.0534771498775 l 1.5907393271271784 0.2337839009704628 a22.607826644642387,22.607826644642387 0 0,0 -0.059726118487689404,0.3834845253174599 l -1.5864917165012216 -0.26105660821937327" fill="#ff1302" stroke="none" /><path d="M 120.7213421655516 103.40968896794604 l 3.087823837882094 0.5081002374687197 a24.129348479333785,24.129348479333785 0 0,0 -0.07076239666158331,0.40813869956887505 l -3.0786466237282766 -0.5610319699581827" fill="#ff2803" stroke="none" /><path d="M 120.592083275326 104.11899336999214 l 4.9774020876755865 0.9956198178105985 a26.076001414894847,26.076001414894847 0 0,0 -0.09156685889911699,0.4381805674083232 l -4.959577517952105 -1.0809168365043307" fill="#ff4306" stroke="none" /><path d="M 120.43855184770803 104.8234425847677 l 3.1856790491695 0.751811581449671 a24.273189829252093,24.273189829252093 0 0,0 -0.09918773612321963,0.4047198112806923 l -3.1723037865299846 -0.8063872173384629" fill="#ff2a04" stroke="none" /><path d="M 120.35273937422433 105.17358676015961 l 2.627064073220143 0.6677894143584144 a23.71061032734939,23.71061032734939 0 0,0 -0.1036611164090796,0.3936181434920737 l -2.6152134760063332 -0.7127880622232914" fill="#ff2203" stroke="none" /><path d="M 120.16314734710363 105.8691983318838 l 1.598998251320346 0.4654450869091417 a22.665363184609706,22.665363184609706 0 0,0 -0.11194927990295098,0.37264274326690183 l -1.5907726514137652 -0.492825433766767" fill="#ff1302" stroke="none" /><path d="M 119.83427380445688 106.89939002012753 l 13.310928318169823 4.630231835177015 a35.093255817551245,35.093255817551245 0 0,0 -0.2028053123153533,0.5672825531828817 l -13.229482835810527 -4.8580493447408175" fill="#ffbb11" stroke="none" /><path d="M 119.58574465831526 107.57618678355244 l 0.29812062971505654 0.115319463934328 a21.3196474442629,21.3196474442629 0 0,0 -0.13496486573787564,0.3401996272351397 l -0.29609708901105647 -0.12042010838303185" fill="#ff0000" stroke="none" /><path d="M 119.31412917781788 108.2440532568976 l 1.4699314356792823 0.6274263223653701 a22.5982372213145,22.5982372213145 0 0,0 -0.15535332290004222,0.35547880525730946 l -1.4589442307622744 -0.6525671973985242" fill="#ff1202" stroke="none" /><path d="M 119.0197475246899 108.90220220490707 l 4.941857411121526 2.3130387974137783 a26.456381873567697,26.456381873567697 0 0,0 -0.19605532280288282,0.40968022027979184 l -4.901422830358731 -2.3975315197586733" fill="#ff4906" stroke="none" /><path d="M 118.8641267826498 109.22738970284198 l 2.0128280047343123 0.9845750412131402 a23.240728584282927,23.240728584282927 0 0,0 -0.1783782214398712,0.3568759337131377 l -1.9956298700827089 -1.0189828310900237" fill="#ff1c02" stroke="none" /><line stroke="#e1ed5e" stroke-width="0.3" x1="174.33088141563837" x2="178.70328620479359" y1="141.23008692659167" y2="143.65538615756765" /><path d="M 175.20536237346943 141.71514677278685 a86.0,86.0 0 0,1 -30.301960400862466,31.631185727798858" fill="none" id="id125" stroke="none" /><text fill="#e1ed5e" style="font-size:6.75px; font-family:Arial;" text-anchor="middle"><textPath startOffset="22.145653131862474" xlink:href="#id125">May</textPath></text><path d="M 118.36410011445183 110.18625677009912 l 3.3543072387271704 1.8605776818101942 a24.835769331154793,24.835769331154793 0 0,0 -0.21000018986849572,0.37105021366807883 l -3.321873683837296 -1.9178846655773958" fill="#ff3204" stroke="none" /><path d="M 118.18653347947321 110.5 l 4.982810525755948 2.8768269983660955 a26.753653996732194,26.753653996732194 0 0,0 -0.2330450793378188,0.39576149323635557 l -4.932691736288364 -2.9619396598960006" fill="#ff4d07" stroke="none" /><path d="M 118.00360718960297 110.81064883170644 l 5.7548070256697565 3.455596269878667 a27.712596329520892,27.712596329520892 0 0,0 -0.24839992463482852,0.405742608911929 l -5.694639136579523 -3.553875994915153" fill="#ff5a08" stroke="none" /><path d="M 117.21940702142032 112.02048342749411 l 1.3131304107171125 0.9166670095275804 a22.601433695757127,22.601433695757127 0 0,0 -0.2248142024104693,0.31622932994422015 l -1.2972011097766825 -0.9390735661813046" fill="#ff1202" stroke="none" /><path d="M 117.01052211995028 112.31430620078461 l 1.2946118860046736 0.9371991678456137 a22.5982372213145,22.5982372213145 0 0,0 -0.23017701440974933,0.31227932682241355 l -1.2783328520110964 -0.9592848039369046" fill="#ff1202" stroke="none" /><path d="M 116.79662413953412 112.60449989151573 l 2.559222369726214 1.9204881774816827 a24.199670917071625,24.199670917071625 0 0,0 -0.25219286327988916,0.3301285535330467 l -2.525877529092021 -1.9641376442556067" fill="#ff2904" stroke="none" /><path d="M 116.1254893667686 113.45245675266167 l 4.3101199476379595 3.595655355047563 a26.613009121256518,26.613009121256518 0 0,0 -0.2956647480678045,0.3482923297854393 l -4.247760636063041 -3.6691144672825593" fill="#ff4b07" stroke="none" /><path d="M 115.89218393027572 113.72728997021213 l 2.9608536552056717 2.557514867855268 a24.91248471777789,24.91248471777789 0 0,0 -0.2823283681967599,0.3212378567041926 l -2.916514223050326 -2.6079650023707535" fill="#ff3304" stroke="none" /><path d="M 115.41159269507618 114.26474011684316 l 1.17526875462759 1.0878112135395754 a22.601433695757127,22.601433695757127 0 0,0 -0.26599107081443313,0.2824732995690316 l -1.1564218500768968 -1.1078259730531042" fill="#ff1202" stroke="none" /><path d="M 115.16444852881244 114.52719865689866 l 1.200278167744484 1.1498393333086114 a22.662166710167078,22.662166710167078 0 0,0 -0.27152858375232514,0.27861224729252754 l -1.1803627828413517 -1.1702742726688762" fill="#ff1302" stroke="none" /><path d="M 114.65682725009322 115.03919595460226 l 4.091581837772404 4.198323414240929 a26.86233412778158,26.86233412778158 0 0,0 -0.3330002222543223,0.3190066801498647 l -4.01890912965277 -4.267942224696373" fill="#ff4e07" stroke="none" /><path d="M 113.86319453409587 115.77377054828091 l 1.099393038007894 1.2509074644565663 a22.665363184609706,22.665363184609706 0 0,0 -0.2944560083518591,0.25434408687006904 l -1.0777575498931793 -1.2695956837913531" fill="#ff1302" stroke="none" /><path d="M 113.31354834802062 116.24036423190432 l 1.01932751279439 1.2434138252739506 a22.607826644642387,22.607826644642387 0 0,0 -0.30224428163930217,0.2434665985385156 l -0.9978324607998352 -1.26072871760587" fill="#ff1302" stroke="none" /><path d="M 112.45986205192187 116.90419585922612 l 7.1936287092771805 9.75953892053057 a33.12422756089178,33.12422756089178 0 0,0 -0.46061445068925644,0.333449340725485 l -7.025033248213956 -9.881589032629133" fill="#ffa20f" stroke="none" /><path d="M 111.27062007382361 117.71928675628689 l 0.8577678337752026 1.3485535061448934 a22.5982372213145,22.5982372213145 0 0,0 -0.3291119794474958,0.20539021619199377 l -0.8344917255379919 -1.363079519178435" fill="#ff1202" stroke="none" /><line stroke="#e1ed5e" stroke-width="0.3" x1="143.1302829299769" x2="145.66735839644613" y1="173.24464959558577" y2="177.55315839532614" /><path d="M 143.63769802327073 174.10635135553383 a86.0,86.0 0 0,1 -40.68552437913181,11.842963189579606" fill="none" id="id126" stroke="none" /><text fill="#e1ed5e" style="font-size:6.75px; font-family:Arial;" text-anchor="middle"><textPath startOffset="21.407464694133747" xlink:href="#id126">June</textPath></text><path d="M 110.65571695917076 118.09573695890943 l 1.1175162311098916 1.89778687280843 a23.202370890971377,23.202370890971377 0 0,0 -0.3449502359837095,0.19915711160222038 l -1.0847735272657835 -1.916690881686822" fill="#ff1b02" stroke="none" /><path d="M 109.71004243097381 118.62028667847754 l 1.922871957626363 3.6873605189197325 a25.158613249860323,25.158613249860323 0 0,0 -0.3846545644745778,0.1964073613930011 l -1.859290171438203 -3.71982583198557" fill="#ff3705" stroke="none" /><path d="M 109.06512990194946 118.94263497670748 l 0.8830919939258919 1.8453226233629116 a23.045743643282556,23.045743643282556 0 0,0 -0.35831882841694035,0.16771130427742198 l -0.8512844516374453 -1.860210159210867" fill="#ff1902" stroke="none" /><path d="M 108.4095320186766 119.2426549942271 l 0.2969694365687344 0.6795241874376562 a21.741582070689926,21.741582070689926 0 0,0 -0.34327362023543845,0.14652309616729595 l -0.2852607411628648 -0.6845219332643561" fill="#ff0601" stroke="none" /><path d="M 108.07796709384702 119.3841803445677 l 1.2308017323449485 2.953476099989747 a24.199670917071625,24.199670917071625 0 0,0 -0.3848272449245477,0.1565058903393255 l -1.17992002622996 -2.974169246908364" fill="#ff2904" stroke="none" /><path d="M 107.407793817531 119.65005319985036 l 0.9527907597063073 2.527390688472877 a23.7010209040215,23.7010209040215 0 0,0 -0.3819372662282469,0.1402526545413946 l -0.9092643418239335 -2.5433741920229935" fill="#ff2203" stroke="none" /><path d="M 107.06938296918513 119.77432235084164 l 1.1836577230844105 3.3109013150595183 a24.516121886891895,24.516121886891895 0 0,0 -0.3975046663965428,0.13827275731537914 l -1.126647284642846 -3.330732504943488" fill="#ff2e04" stroke="none" /><path d="M 106.72888874123015 119.89276391827305 l 1.029345928241873 3.0430783340620065 a24.21245681484214,24.21245681484214 0 0,0 -0.39486742498902844,0.12980076565753945 l -0.9769557656051105 -3.0603000211215647" fill="#ff2904" stroke="none" /><path d="M 106.0420521117495 120.11202640906438 l 1.1781091745306302 3.921542282769278 a25.094683761007744,25.094683761007744 0 0,0 -0.413632072682034,0.12040226801932032 l -1.1106170894669893 -3.9411882450911166" fill="#ff3605" stroke="none" /><path d="M 105.69591212413111 120.21278271476187 l 0.4525699615158221 1.6060111350019994 a22.668559659052335,22.668559659052335 0 0,0 -0.37545460302094613,0.1023318216258189 l -0.4249339575601808 -1.6135434507719604" fill="#ff1302" stroke="none" /><path d="M 105.3480935250658 120.30758222061773 l 0.8148637768539106 3.094170487016731 a24.199670917071625,24.199670917071625 0 0,0 -0.40263032971962476,0.10234705534107025 l -0.7616281539088885 -3.1077027741930716" fill="#ff2904" stroke="none" /><path d="M 104.9986988182912 120.39639698878246 l 0.3811945105977553 1.555403686184544 a22.601433695757127,22.601433695757127 0 0,0 -0.3776245887248203,0.08911837472061142 l -0.35443776813305583 -1.5617182045513804" fill="#ff1202" stroke="none" /><path d="M 104.29559338865022 120.5559693870025 l 1.3233831939561387 6.33286765318912 a27.469664271881086,27.469664271881086 0 0,0 -0.46241061244736303,0.09249507305396903 l -1.2144760959778171 -6.354652122905951" fill="#ff5708" stroke="none" /><path d="M 102.875027216393 120.80226474461374 l 0.21924597431193102 1.5863546528611885 a22.601433695757127,22.601433695757127 0 0,0 -0.38478637158563384,0.04981829949329579 l -0.1919817808355218 -1.589884548554879" fill="#ff1202" stroke="none" /><path d="M 102.51750503828377 120.84855314841334 l 0.361738125965534 2.9957106064586934 a24.01747187384177,24.01747187384177 0 0,0 -0.4097427574623849,0.04591253061526645 l -0.3102594669023498 -3.0014788975809306" fill="#ff2703" stroke="none" /><path d="M 102.15924093988457 120.88869738790638 l 0.2057440956365161 1.990387489285662 a23.000993001085753,23.000993001085753 0 0,0 -0.39309840146037545,0.037226827321164814 l -0.17154613079112538 -1.9936260721120103" fill="#ff1802" stroke="none" /><path d="M 101.08105385017728 120.97215588758144 l 0.30376026723344374 5.892868034121041 a26.900691821093126,26.900691821093126 0 0,0 -0.46137791504636677,0.01981355285907465 l -0.2025565915862474 -5.897214155405947" fill="#ff4f07" stroke="none" /><line stroke="#e1ed5e" stroke-width="0.3" x1="101.45913802915013" x2="101.54496967792366" y1="184.9874750549273" y2="189.98673829345242" /><path d="M 101.47630435890484 185.9873277026323 a86.0,86.0 0 0,1 -42.54439059252881,-10.42667462771756" fill="none" id="id127" stroke="none" /><text fill="#e1ed5e" style="font-size:6.75px; font-family:Arial;" text-anchor="middle"><textPath startOffset="22.145653131862474" xlink:href="#id127">July</textPath></text><path d="M 100.36049292484886 120.99690560180557 l 0.03714816414456739 2.163694325348803 a23.16401319765983,23.16401319765983 0 0,0 -0.3976410889934194,0.003413270505462144 l -2.65015183582674e-16 -2.1640131976598305" fill="#ff1a02" stroke="none" /><path d="M 100.0 121.0 l 4.709206290250469e-16 3.8453587544826817 a24.84535875448268,24.84535875448268 0 0,0 -0.4265036212534522,-0.0036610206319028006 l 0.06601069640459958 -3.844792132045214" fill="#ff3204" stroke="none" /><path d="M 99.27912038922189 120.98762331915562 l -0.06836010647791507 1.990229912685756 a22.991403577757865,22.991403577757865 0 0,0 -0.39432910934943305,-0.016934188649196644 l 0.10251497642818685 -1.9887631556107308" fill="#ff1802" stroke="none" /><path d="M 98.91894614982273 120.97215588758144 l -0.08556627246012387 1.6599628265129696 a22.662166710167078,22.662166710167078 0 0,0 -0.3883385087414134,-0.023361480356296642 l 0.11404913333398359 -1.6582493683319812" fill="#ff1302" stroke="none" /><path d="M 98.55909050195518 120.95050786540614 l -0.10988195346216492 1.5976594875660044 a22.601433695757127,22.601433695757127 0 0,0 -0.38684076346603974,-0.029943921644247643 l 0.13729171170344076 -1.5955377989267032" fill="#ff1202" stroke="none" /><path d="M 97.48249496171623 120.84855314841334 l -0.19198178083552211 1.589884548554879 a22.601433695757127,22.601433695757127 0 0,0 -0.38478637158561374,-0.04981829949329328 l 0.2192459743119299 -1.5863546528611885" fill="#ff1202" stroke="none" /><path d="M 97.12497278360702 120.80226474461374 l -0.3697861243384845 2.6755881869614857 a23.7010209040215,23.7010209040215 0 0,0 -0.4025504346634248,-0.059161051309978986 l 0.41566166460959425 -2.6688460623526242" fill="#ff2203" stroke="none" /><path d="M 96.76829788921471 120.74984581791261 l -0.49239920269136567 3.1615561046331093 a24.199670917071625,24.199670917071625 0 0,0 -0.40992225542451804,-0.06745255113639052 l 0.5465989611689472 -3.152637555001051" fill="#ff2904" stroke="none" /><path d="M 96.05791012581884 120.62667999033965 l -0.8424527859450855 4.408068962727252 a25.48785011745111,25.48785011745111 0 0,0 -0.42904974251329286,-0.0858219647415012 l 0.9179990139893365 -4.392957601322889" fill="#ff3b05" stroke="none" /><path d="M 95.35216902796893 120.47920084513623 l -1.4120913876119339 6.221935202164784 a27.380162987487477,27.380162987487477 0 0,0 -0.4574675627462175,-0.1079610991885139 l 1.5186911040980393 -6.196777959330043" fill="#ff5507" stroke="none" /><path d="M 94.30408787586889 120.21278271476187 l -0.63377134457484 2.2490309189395834 a23.336622817561796,23.336622817561796 0 0,0 -0.38465420633933106,-0.11196723345491134 l 0.6722855632957778 -2.2378199911821564" fill="#ff1d02" stroke="none" /><path d="M 93.95794788825049 120.11202640906438 l -0.46075932587029356 1.5337179419729958 a22.601433695757127,22.601433695757127 0 0,0 -0.3706197811268885,-0.11481895557738807 l 0.48701973986881575 -1.5255823985889587" fill="#ff1202" stroke="none" /><path d="M 93.61358852112213 120.00534299687104 l -1.3599613095338787 4.260059432387133 a25.471867745237965,25.471867745237965 0 0,0 -0.41540645392323056,-0.1365523524251646 l 1.432890501104853 -4.236086158559947" fill="#ff3b05" stroke="none" /><path d="M 93.27111125876986 119.89276391827306 l -1.2055125945678429 3.5638837802895345 a24.76225041897433,24.76225041897433 0 0,0 -0.40149539708745235,-0.139660940607257 l 1.266513763700317 -3.5426644071136866" fill="#ff3104" stroke="none" /><path d="M 92.59220618246901 119.65005319985036 l -0.5637815146191166 1.49549744880052 a22.5982372213145,22.5982372213145 0 0,0 -0.36181686535986246,-0.1399585362327266 l 0.5893706424725073 -1.4855990244297528" fill="#ff1202" stroke="none" /><path d="M 91.92203290615298 119.3841803445677 l -0.984887300307995 2.3633709851066804 a23.560376028545825,23.560376028545825 0 0,0 -0.37199020508862723,-0.15878049864743476 l 1.0253125805670533 -2.3461158367998416" fill="#ff2003" stroke="none" /><path d="M 91.59046798132341 119.24265499422711 l -0.6413003781074829 1.4674207668373542 a22.601433695757127,22.601433695757127 0 0,0 -0.35418232883431905,-0.15842125067024113 l 0.666396109797437 -1.4561957652572581" fill="#ff1202" stroke="none" /><path d="M 91.26138138417905 119.09545874513695 l -0.6650659778417538 1.4532891868834918 a22.5982372213145,22.5982372213145 0 0,0 -0.35136092854136025,-0.16445465581068924 l 0.689915620254604 -1.441658299502276" fill="#ff1202" stroke="none" /><path d="M 89.97174638481275 118.45085714620012 l -0.9448609477336445 1.7384377219234501 a22.978617679987348,22.978617679987348 0 0,0 -0.3449591796073784,-0.1913430419559857 l 0.9745643154971254 -1.721961764534316" fill="#ff1802" stroke="none" /><line stroke="#e1ed5e" stroke-width="0.3" x1="58.13341422392154" x2="55.67067388415222" y1="173.97424548756322" y2="178.32567169271397" /><path d="M 57.64086615596768 174.84453072859336 a86.0,86.0 0 0,1 -31.369924170532247,-30.572349798747897" fill="none" id="id128" stroke="none" /><text fill="#e1ed5e" style="font-size:6.75px; font-family:Arial;" text-anchor="middle"><textPath startOffset="22.145653131862474" xlink:href="#id128">August</textPath></text><path d="M 89.65649057296885 118.27599006163327 l -0.7887830728013892 1.3937041099058034 a22.601433695757127,22.601433695757127 0 0,0 -0.33601608747472084,-0.1939989785555764 l 0.8125916281365096 -1.3799582340740555" fill="#ff1202" stroke="none" /><path d="M 89.03521579738668 117.91015095944536 l -1.7090390539018068 2.7915868552774357 a24.273189829252093,24.273189829252093 0 0,0 -0.35350534088009533,-0.22061347785114524 l 1.7567085235716147 -2.761837580584743" fill="#ff2a04" stroke="none" /><path d="M 87.83215693770417 117.11559508785305 l -2.4077361515101856 3.3867824261581547 a25.155416775417695,25.155416775417695 0 0,0 -0.3498028281133127,-0.2532302715291596 l 2.4655199899974525 -3.3449513832559297" fill="#ff3705" stroke="none" /><path d="M 87.54013794807813 116.9041958592261 l -0.9501734730682487 1.2890928023163233 a22.601433695757127,22.601433695757127 0 0,0 -0.3103359929763362,-0.23288191468170466 l 0.9721624549553511 -1.2725918603706037" fill="#ff1202" stroke="none" /><path d="M 87.2517909369889 116.68781488649013 l -0.9721624549553511 1.2725918603706037 a22.601433695757127,22.601433695757127 0 0,0 -0.30629253651422556,-0.23817492898730583 l 0.9938649361048051 -1.2557158797625048" fill="#ff1202" stroke="none" /><path d="M 86.96720088162412 116.46651593811092 l -2.3229857089395756 2.935016557289209 a24.743071572318556,24.743071572318556 0 0,0 -0.3307903944272883,-0.2664613263272191 l 2.3730268737221256 -2.89470693716858" fill="#ff3104" stroke="none" /><path d="M 86.40962598614128 116.0094264158162 l -2.068632533384222 2.4368439228240963 a24.196474442628997,24.196474442628997 0 0,0 -0.31434736882584013,-0.27152577028918623 l 2.110159381972925 -2.400974020070188" fill="#ff2904" stroke="none" /><path d="M 85.86807049272751 115.53346607816431 l -3.2954305947803637 3.6222554981344035 a25.89699884610762,25.89699884610762 0 0,0 -0.3262654717617438,-0.30198644980200284 l 3.3571258378560747 -3.5651513022000234" fill="#ff4106" stroke="none" /><path d="M 85.60350026404147 115.28858382429668 l -2.246118788382818 2.385300316419729 a24.27638630369472,24.27638630369472 0 0,0 -0.30094339517210356,-0.2882969649598648 l 2.286734669420236 -2.3463912211542817" fill="#ff2a04" stroke="none" /><path d="M 84.83555147118756 114.52719865689866 l -2.4605702438761905 2.357170633282653 a24.40744175584251,24.40744175584251 0 0,0 -0.2872455639704125,-0.3050448347489674 l 2.5006716415828563 -2.3145843385891953" fill="#ff2c04" stroke="none" /><path d="M 84.3458050057657 113.99807769240083 l -1.317673501100353 1.178271769861951 a22.767650366773836,22.767650366773836 0 0,0 -0.25802137556910787,-0.2935809610670192 l 1.3377059406280536 -1.1554785309836315" fill="#ff1502" stroke="none" /><path d="M 84.1078160697243 113.72728997021213 l -1.8239245555760437 1.575462590165747 a23.410141729742264,23.410141729742264 0 0,0 -0.2600815873627565,-0.3063754559474772 l 1.8507007064459124 -1.5439203517687154" fill="#ff1e03" stroke="none" /><path d="M 83.8745106332314 113.45245675266167 l -0.5301742076821179 0.44229018034753625 a21.690438479607863,21.690438479607863 0 0,0 -0.2360675574582473,-0.2879640360511349 l 0.537688584378995 -0.43312386259790614" fill="#ff0500" stroke="none" /><path d="M 83.4222238831116 112.89097897827486 l -3.845591762573663 2.9903554144311126 a25.871427050566588,25.871427050566588 0 0,0 -0.26961479300186186,-0.35293441879056003 l 3.89635853292982 -2.9239000823996824" fill="#ff4106" stroke="none" /><path d="M 83.20337586046588 112.60449989151573 l -4.430701665070459 3.324881130445309 a26.53949020907605,26.53949020907605 0 0,0 -0.2703211122379083,-0.36674250542353387 l 4.487124796892198 -3.248332315752896" fill="#ff4a06" stroke="none" /><path d="M 82.78059297857968 112.02048342749411 l -5.200101267191121 3.6300745447160065 a27.341805294175927,27.341805294175927 0 0,0 -0.2653590729976255,-0.3871668178555098 l 5.261650077004071 -3.5402729917904456" fill="#ff5507" stroke="none" /><path d="M 82.37810715431573 111.42229804090323 l -0.6598414670260103 0.427701266947821 a21.786332712886733,21.786332712886733 0 0,0 -0.20072714020455776,-0.3155764042933741 l 0.667086298856458 -0.416311187975775" fill="#ff0701" stroke="none" /><path d="M 82.18462484594161 111.11811171558189 l -1.0385937091952175 0.6481592885964305 a22.224249711526905,22.224249711526905 0 0,0 -0.19920551245962356,-0.3253872337273354 l 1.0495671861102458 -0.630234938744538" fill="#ff0d01" stroke="none" /><path d="M 81.99639281039703 110.81064883170644 l -1.6058651985916543 0.9642759114994752 a22.87313402338059,22.87313402338059 0 0,0 -0.1992427402191208,-0.33835773151562054 l 1.6221816489405452 -0.9365670116902959" fill="#ff1602" stroke="none" /><line stroke="#e1ed5e" stroke-width="0.3" x1="26.387840678322732" x2="22.057713659400548" y1="142.50000000000003" y2="145.00000000000006" /><path d="M 25.521815274538298 143.00000000000003 a86.0,86.0 0 0,1 -11.493303480769221,-40.785679425670985" fill="none" id="id129" stroke="none" /><text fill="#e1ed5e" style="font-size:6.75px; font-family:Arial;" text-anchor="middle"><textPath startOffset="21.40746469413373" xlink:href="#id129">September</textPath></text><path d="M 81.81346652052679 110.50000000000001 l -2.372371455873804 1.3696892986665266 a23.73937859733305,23.73937859733305 0 0,0 -0.20072959876247343,-0.35466996747462176 l 2.3955344196576553 -1.3287625610927833" fill="#ff2303" stroke="none" /><path d="M 81.4637452351635 109.86951160357371 l -1.413551570168941 0.7526365925061383 a22.601433695757127,22.601433695757127 0 0,0 -0.1794036488895431,-0.3440301520034879 l 1.4262632880334334 -0.7282601973981475" fill="#ff1202" stroke="none" /><path d="M 81.29705330413844 109.54985784667822 l -0.6462310706259262 0.3299701892402781 a21.72559969847678,21.72559969847678 0 0,0 -0.16674924023464516,-0.33361018135700665 l 0.6518002240723084 -0.31882815171951867" fill="#ff0600" stroke="none" /><path d="M 81.1358732173502 109.22738970284198 l -4.743497665935926 2.3202824081085707 a26.280575779223103,26.280575779223103 0 0,0 -0.19475250971445066,-0.40695784199685586 l 4.782629433610288 -2.2385120640466103" fill="#ff4606" stroke="none" /><path d="M 80.83023694016515 108.57439118712176 l -2.383914873065557 1.0662948005491897 a23.61151961962789,23.61151961962789 0 0,0 -0.16231921081742262,-0.3714181200283239 l 2.4018679658999478 -1.0252146107450164" fill="#ff2103" stroke="none" /><path d="M 80.68587082218212 108.24405325689762 l -0.7614244836818685 0.32500683498526234 a21.82788688064091,21.82788688064091 0 0,0 -0.14414113232028597,-0.34588624483192637 l 0.7668914605386401 -0.31188808071205465" fill="#ff0701" stroke="none" /><path d="M 80.5471966667186 107.91128576633889 l -0.6454916540441042 0.2625158362750104 a21.69683142849312,21.69683142849312 0 0,0 -0.13735264376859574,-0.3462183876846091 l 0.6499029727788245 -0.251396431376836" fill="#ff0500" stroke="none" /><path d="M 80.41425534168474 107.57618678355246 l -1.493584354872439 0.5777505143109867 a22.601433695757127,22.601433695757127 0 0,0 -0.13686708894775235,-0.363056214222274 l 1.5032821276346273 -0.5520260198945677" fill="#ff1202" stroke="none" /><path d="M 80.28708602549918 107.23885506374661 l -0.6841283934145596 0.2512214222274674 a21.72879617291941,21.72879617291941 0 0,0 -0.12557157184263412,-0.35124603526810255 l 0.6883401353011369 -0.2394404305784434" fill="#ff0601" stroke="none" /><path d="M 80.16572619554312 106.89939002012753 l -5.250103049511752 1.8262583718241836 a26.558669055731823,26.558669055731823 0 0,0 -0.14609111712247025,-0.43189242908225317 l 5.280679588206589 -1.7358642682677687" fill="#ff4a06" stroke="none" /><path d="M 79.83685265289637 105.86919833188381 l -3.1458218955918524 0.9157029061072385 a24.27638630369472,24.27638630369472 0 0,0 -0.11303722189311444,-0.4011292230310434 l 3.161077609559542 -0.8615657591731993" fill="#ff2a04" stroke="none" /><path d="M 79.73907114497094 105.5222062557868 l -2.646053257563012 0.7211935818249806 a23.74257507177568,23.74257507177568 0 0,0 -0.10380086401773038,-0.39414878792444313 l 2.658043602385475 -0.6756642895277348" fill="#ff2303" stroke="none" /><path d="M 79.48165901384964 104.47187691870673 l -3.123159646065557 0.6806781086299319 a24.196474442628997,24.196474442628997 0 0,0 -0.08496682930376978,-0.4065970365569916 l 3.1343841861936936 -0.6269646207875313" fill="#ff2904" stroke="none" /><path d="M 79.34024301695615 103.76489593502545 l -3.5000344149229563 0.6378228626797332 a24.557676054646073,24.557676054646073 0 0,0 -0.07201852199009359,-0.41538369666140085 l 3.5104677544052842 -0.5776461330977397" fill="#ff2e04" stroke="none" /><path d="M 79.0935383218832 101.97986365728391 l -4.244785517608877 0.40198560180442344 a25.263777259022817,25.263777259022817 0 0,0 -0.03718151581179024,-0.4321055740585897 l 4.251060656118407 -0.3290589803701717" fill="#ff3805" stroke="none" /><path d="M 79.03789590574601 101.26102812881392 l -3.8320381348197556 0.2305258984006256 a24.838965805597425,24.838965805597425 0 0,0 -0.021951034518782386,-0.4258442053983785 l 3.835430758795111 -0.16470989962551633" fill="#ff3204" stroke="none" /><line stroke="#e1ed5e" stroke-width="0.3" x1="15.003131293944662" x2="10.003315487706104" y1="100.72959589197737" y2="100.7725132973878" /><path d="M 14.003168132696942 100.73817937305945 a86.0,86.0 0 0,1 10.791469493833604,-42.45332614584628" fill="none" id="id130" stroke="none" /><text fill="#e1ed5e" style="font-size:6.75px; font-family:Arial;" text-anchor="middle"><textPath startOffset="22.145653131862435" xlink:href="#id130">October</textPath></text><path d="M 79.00077361379809 99.81974689727619 l -5.756638395986343 -0.04941381711172906 a26.756850471174822,26.756850471174822 0 0,0 0.007885076159291928,-0.4592661557757085 l 5.754941888228385 0.14822688885648994" fill="#ff4d07" stroke="none" /><path d="M 79.00696218219943 99.45929381324524 l -2.8854594808829717 -0.07431920079811795 a23.886416421693983,23.886416421693983 0 0,0 0.014076279987715911,-0.4098155332737442 l 2.883758513898405 0.1238409986360007" fill="#ff2503" stroke="none" /><path d="M 79.03789590574601 98.7389718711861 l -0.9604025633478308 -0.05777543332105561 a21.962138807231327,21.962138807231327 0 0,0 0.025869348496854024,-0.37613464960267795 l 0.959269253685913 0.07425350707805851" fill="#ff0901" stroke="none" /><path d="M 79.0935383218832 98.0201363427161 l -8.537941032869496 -0.8085518926765606 a29.576140929573597,29.576140929573597 0 0,0 0.052205561137354056,-0.5050414469365877 l 8.522803079250478 0.9549978618960611" fill="#ff730a" stroke="none" /><path d="M 79.22317932658666 96.9465228501225 l -1.6792894288360447 -0.2467977165314426 a22.697327929035996,22.697327929035996 0 0,0 0.05996256599768303,-0.38500268794761855 l 1.674805370700094 0.27558858641051115" fill="#ff1402" stroke="none" /><path d="M 79.34024301695615 96.23510406497455 l -0.38050688607877714 -0.0693410299948318 a21.38677340755811,21.38677340755811 0 0,0 0.06892010726717984,-0.360619124087145 l 0.37926048652943806 0.07586271911529137" fill="#ff0100" stroke="none" /><path d="M 79.407916724674 95.88100663000787 l -10.547202786541774 -2.109735948950038 a31.75613649944657,31.75613649944657 0 0,0 0.1115128667068128,-0.5336294353042691 l 10.509432209010596 2.2904818355397163" fill="#ff900d" stroke="none" /><path d="M 79.56144815229197 95.17655741523228 l -5.251392807615346 -1.2393144037959432 a26.395648859157745,26.395648859157745 0 0,0 0.10786075799102751,-0.440108700177308 l 5.22934452310802 1.3292789285813689" fill="#ff4806" stroke="none" /><path d="M 79.64726062577567 94.8264132398404 l -3.1227365398654516 -0.7937874170675469 a24.222046238170027,24.222046238170027 0 0,0 0.10589707814753967,-0.40210845440999643 l 3.108649980913186 0.8472763758503279" fill="#ff2904" stroke="none" /><path d="M 79.73907114497095 94.47779374421319 l -1.5882487501689402 -0.4328842594870229 a22.646184337953933,22.646184337953933 0 0,0 0.10544657396771992,-0.37419269138579536 l 1.5805836841266383 0.4600848747758315" fill="#ff1302" stroke="none" /><path d="M 79.94057633289273 93.78553927170692 l -6.448583185769429 -1.9977875549240165 a27.75095402283244,27.75095402283244 0 0,0 0.1448801777021668,-0.45383509314510023 l 6.413338292290006 2.108191681760508" fill="#ff5a08" stroke="none" /><path d="M 80.28708602549916 92.7611449362534 l -9.763832421802553 -3.5854145084569295 a31.401327836314753,31.401327836314753 0 0,0 0.1901564470601364,-0.5044125677719774 l 9.70084529092798 3.752495356423052" fill="#ff8b0c" stroke="none" /><path d="M 80.5471966667186 92.08871423366112 l -3.8907157496053 -1.5823202241530432 a25.2001674176145,25.2001674176145 0 0,0 0.16641009210366864,-0.39932364158188594 l 3.862979812965153 1.648876375176193" fill="#ff3705" stroke="none" /><path d="M 80.9802524753101 91.09779779509293 l -8.01640490415671 -3.7520822671580247 a29.85103773163969,29.85103773163969 0 0,0 0.221211459164983,-0.46224687003393267 l 7.950814187031821 3.8891416392570446" fill="#ff770a" stroke="none" /><path d="M 81.29705330413844 90.45014215332179 l -3.686648618769056 -1.8824290531548915 a25.13943440320455,25.13943440320455 0 0,0 0.19954956502609503,-0.3826626025339359 l 3.6537909847680208 1.945437898793314" fill="#ff3605" stroke="none" /><path d="M 81.46374523516351 90.13048839642627 l -4.2999053751246805 -2.2894574191204704 a25.871427050566588,25.871427050566588 0 0,0 0.21208983232582151,-0.39022140330385446 l 4.259970193183508 2.3629336558989444" fill="#ff4106" stroke="none" /><line stroke="#e1ed5e" stroke-width="0.3" x1="26.387840678322718" x2="22.05771365940052" y1="57.49999999999999" y2="54.99999999999999" /><path d="M 25.521815274538284 56.99999999999999 a86.0,86.0 0 0,1 29.574782752854787,-30.34633250058573" fill="none" id="id131" stroke="none" /><text fill="#e1ed5e" style="font-size:6.75px; font-family:Arial;" text-anchor="middle"><textPath startOffset="21.40746469413373" xlink:href="#id131">November</textPath></text><path d="M 81.99639281039701 89.18935116829357 l -6.2206723563192154 -3.7353350155355045 a28.25599698476782,28.25599698476782 0 0,0 0.25327065851357733,-0.41369858665299664 l 6.155633733350245 3.8415707183130445" fill="#ff6109" stroke="none" /><path d="M 82.18462484594161 88.88188828441811 l -3.2947555004495825 -2.0561711113437675 a24.88371644779423,24.88371644779423 0 0,0 0.2292647094879066,-0.3604422031710675 l 3.258973099335786 2.112426989193507" fill="#ff3304" stroke="none" /><path d="M 82.78059297857968 87.97951657250589 l -4.398069519327973 -3.0701940957829965 a26.363684114731456,26.363684114731456 0 0,0 0.262236931366315,-0.36886908479736 l 4.344717489431686 3.1452404072898767" fill="#ff4706" stroke="none" /><path d="M 82.98947788004972 87.6856937992154 l -1.5664803820656545 -1.134010993093191 a22.93386703779054,22.93386703779054 0 0,0 0.23359561154841074,-0.31691731040159987 l 1.546782750933425 1.1607346127636542" fill="#ff1702" stroke="none" /><path d="M 83.42222388311158 87.10902102172516 l -3.6740036786793033 -2.8569274825536097 a25.65406678846782,25.65406678846782 0 0,0 0.27331790148303214,-0.34532823993240735 l 3.62441934655471 2.9195756664007" fill="#ff3d05" stroke="none" /><path d="M 83.8745106332314 86.54754324733833 l -1.362253172516553 -1.1364400467263078 a22.774043315659092,22.774043315659092 0 0,0 0.2530146722127488,-0.29805064767027406 l 1.3425439367966898 1.1596574768461385" fill="#ff1502" stroke="none" /><path d="M 84.34580500576568 86.00192230759919 l -3.1333465713326656 -2.801857825259428 a25.20336389205713,25.20336389205713 0 0,0 0.291161620320579,-0.3200376247408829 l 3.0847872501702205 2.8552330255579688" fill="#ff3705" stroke="none" /><path d="M 84.83555147118756 85.47280134310135 l -0.9809965794065508 -0.9397725320310769 a22.358501638117325,22.358501638117325 0 0,0 0.26789019612579634,-0.27487894106325583 l 0.964719582129952 0.9564741651620631" fill="#ff0f01" stroke="none" /><path d="M 85.08716467003674 85.21462403516908 l -9.515539972444127 -9.434211059669092 a34.39962086350075,34.39962086350075 0 0,0 0.4193609945486489,-0.4157767340814892 l 9.352187057765503 9.596167803979254" fill="#ffb210" stroke="none" /><path d="M 85.60350026404147 84.71141617570332 l -1.240295838267975 -1.3171511991156735 a22.80920453452801,22.80920453452801 0 0,0 0.28736364094509,-0.2659794959687184 l 1.2175024260089318 1.3382484412167575" fill="#ff1502" stroke="none" /><path d="M 85.86807049272753 84.46653392183569 l -1.6756791340299626 -1.8418649040774824 a23.49005359080799,23.49005359080799 0 0,0 0.30059994864966055,-0.26879832767379186 l 1.6438141585569102 1.8703587616346753" fill="#ff1f03" stroke="none" /><path d="M 86.96720088162412 83.53348406188908 l -39.09839735512763 -49.399547814332756 a84.0,84.0 0 0,0 1.1383602214590214,-0.8851957935167807 l 38.244627189033366 50.06344465947034" fill="#4dd2ff" stroke="none" /><path d="M 88.4268655584334 82.4767994020092 l -0.8085662792753253 -1.2242724026106306 a22.467181769166707,22.467181769166707 0 0,0 0.3236497756126638,-0.20978587432647297 l 0.7874308714056356 1.23797211864101" fill="#ff1101" stroke="none" /><path d="M 89.03521579738668 82.08984904055464 l -0.6826142314900763 -1.114999046687959 a22.307358047035258,22.307358047035258 0 0,0 0.32830826952778686,-0.19713968278866909 l 0.6633732054048551 1.1265527300125513" fill="#ff0e01" stroke="none" /><line stroke="#e1ed5e" stroke-width="0.3" x1="56.869717070023135" x2="54.33264160355391" y1="26.7553504044142" y2="22.446841604673864" /><path d="M 56.362301976729285 25.89364864446614 a86.0,86.0 0 0,1 42.16139366436587,-11.88097634709845" fill="none" id="id132" stroke="none" /><text fill="#e1ed5e" style="font-size:6.75px; font-family:Arial;" text-anchor="middle"><textPath startOffset="22.145653131862474" xlink:href="#id132">December</textPath></text><path d="M 89.65649057296885 81.72400993836675 l -1.0233712521375309 -1.808198944987568 a23.077708387708846,23.077708387708846 0 0,0 0.3464467472982796,-0.19216817067822275 l 0.9921803166831487 1.8255000310989367" fill="#ff1902" stroke="none" /><path d="M 90.28995756902619 81.37971332152246 l -0.7508216406411949 -1.4397994954736553 a22.62380901685553,22.62380901685553 0 0,0 0.3458994864982435,-0.17661874243742406 l 0.7259949324293692 1.4524761895839133" fill="#ff1302" stroke="none" /><path d="M 91.5904679813234 80.7573450057729 l -1.6563726332756166 -3.7901047351048645 a25.136237928761922,25.136237928761922 0 0,0 0.3968711828261002,-0.16940070852917194 l 1.5910663752790852 3.8179800932934405" fill="#ff3605" stroke="none" /><path d="M 92.25597844496254 80.48000691201159 l -0.5575577331532683 -1.4054097112147852 a22.51196795011529,22.51196795011529 0 0,0 0.3604356214612116,-0.1394242414202305 l 0.5333498491985272 1.4147738407730563" fill="#ff1101" stroke="none" /></svg>