<?xml version="1.0" encoding="utf-8" ?>
<svg baseProfile="full" height="200mm" version="1.1" viewBox="0,0,200,200" width="200mm" xmlns="http://www.w3.org/2000/svg" xmlns:ev="http://www.w3.org/2001/xml-events" xmlns:xlink="http://www.w3.org/1999/xlink"><defs /><rect fill="#1a1a1a" height="200" width="200" x="0" y="0" /><text alignment-baseline="middle" fill="#e1ed5e" style="dominant-baseline: central; font-size:9.0px; font-family:Arial;" text-anchor="middle" x="100.0" y="100.0">2023</text><line stroke="#e1ed5e" stroke-width="0.3" x1="100.0" x2="100.0" y1="15.0" y2="10.0" /><path d="M 100.0 14.0 a86.0,86.0 0 0,1 42.46469731375804,11.215312516191453" fill="none" id="id109" stroke="none" /><text fill="#e1ed5e" style="font-size:6.75px; font-family:Arial;" text-anchor="middle"><textPath startOffset="22.20632615414155" xlink:href="#id109">January</textPath></text><path d="M 100.36148047927253 79.00311137660856 l 0.052717364675588026 -3.062131146997607 a24.062584901998836,24.062584901998836 0 0,0 0.41407510818783294,0.010694338403927322 l -0.10541910805828876 3.06077001645132" fill="#ff2303" stroke="none" /><path d="M 102.16513564639614 79.11191278185805 l 0.7676504610839768 -7.405886929467364 a28.445565689889385,28.445565689889385 0 0,0 0.48659973015760094,0.054675149383894096 l -0.8950168947513031 7.391575826612869" fill="#ff6008" stroke="none" /><path d="M 102.52436894288641 79.15227682838746 l 0.7443777622192693 -6.147509287650934 a27.19241218707549,27.19241218707549 0 0,0 0.46419425073382437,0.060265736209450395 l -0.8500867414609398 6.133785228277347" fill="#ff4f07" stroke="none" /><path d="M 103.95276090670814 79.375362276772 l 1.2656812528756864 -6.604046622031093 a27.724238307781874,27.724238307781874 0 0,0 0.46792387277219993,0.09386112687885732 l -1.3791715351150116 6.581281539075027" fill="#ff5608" stroke="none" /><path d="M 106.40334571778207 80.00007090966166 l 0.9431669706572079 -2.9458463379714352 a24.093149621579663,24.093149621579663 0 0,0 0.39388533958913796,0.12985780364436164 l -0.9937351324887633 2.9291748100678374" fill="#ff2303" stroke="none" /><path d="M 106.74666289553966 80.11325718540242 l 1.3079596803112974 -3.8553960938837553 a25.07122064816612,25.07122064816612 0 0,0 0.40748851368188255,0.1421647411769027 l -1.3741301980564538 3.8323104995346453" fill="#ff3104" stroke="none" /><path d="M 107.08798089147638 80.2323363322302 l 3.09695109201612 -8.637084173876126 a30.175528818164175,30.175528818164175 0 0,0 0.4874320335371546,0.17952533155988137 l -3.245165451325851 8.582495574509919" fill="#ff780b" stroke="none" /><path d="M 108.09893153111575 80.62456947434976 l 1.9638297978127546 -4.698156499476027 a26.092082282165727,26.092082282165727 0 0,0 0.41289632073501,0.17678065635905912 l -2.04440987633808 4.663656315154177" fill="#ff4006" stroke="none" /><path d="M 110.05341064243156 81.56283822128135 l 2.4465315244729617 -4.486745754029339 a26.110421113914224,26.110421113914224 0 0,0 0.3927453835271616,0.21856238071646172 l -2.5234009970721596 4.443967975752698" fill="#ff4006" stroke="none" /><line stroke="#e1ed5e" stroke-width="0.3" x1="143.23703022742887" x2="145.7803849466894" y1="26.81831364943548" y2="22.513508569990506" /><path d="M 143.74570117128098 25.957352633546492 a86.0,86.0 0 0,1 28.547481713284135,27.462654790039103" fill="none" id="id110" stroke="none" /><text fill="#e1ed5e" style="font-size:6.75px; font-family:Arial;" text-anchor="middle"><textPath startOffset="19.985693538727396" xlink:href="#id110">February</textPath></text><path d="M 112.48926042617603 83.11751280151076 l 3.0865657195294354 -4.172297195279655 a26.189889384824376,26.189889384824376 0 0,0 0.36011577583383503,0.27123173637505765 l -3.1579276491216532 4.118548869398751" fill="#ff4106" stroke="none" /><path d="M 113.6212207817346 84.01681056812373 l 7.54546375343711 -8.853874293283678 a32.63293227246264,32.63293227246264 0 0,0 0.4243931510452233,0.3680295585468588 l -7.696750703129098 8.722679741317146" fill="#ff980e" stroke="none" /><path d="M 113.89432698308785 84.25364557470405 l 2.026312192468565 -2.2964070154492338 a24.062584901998836,24.062584901998836 0 0,0 0.3082176642226813,0.2767208621621768 l -2.0655408442872365 2.261187144517762" fill="#ff2303" stroke="none" /><path d="M 114.16331599549186 84.49514656593476 l 2.0655408442872365 -2.261187144517762 a24.062584901998836,24.062584901998836 0 0,0 0.30340870369364004,0.2819853234081671 l -2.1041574317757235 2.225297235034954" fill="#ff2303" stroke="none" /><path d="M 114.94478906791727 85.2469230424477 l 2.1795088268076515 -2.1515500356298376 a24.062584901998836,24.062584901998836 0 0,0 0.288448215595768,0.2972712414854163 l -2.216221306106528 2.113714598594307" fill="#ff2303" stroke="none" /><path d="M 115.4437574822437 85.77008943001954 l 2.2477815081860615 -2.0711106011033094 a24.05647195808267,24.05647195808267 0 0,0 0.27797409071289375,0.3069459337760241 l -2.283099239514991 2.0321118800577365" fill="#ff2303" stroke="none" /><path d="M 115.68641384162765 86.03803664274999 l 7.762537414350969 -6.909180392196303 a31.39200465748108,31.39200465748108 0 0,0 0.35578821557536106,0.4067274346145339 l -7.880317493504178 6.774537401378821" fill="#ff880c" stroke="none" /><path d="M 115.9244219780498 86.31012108654704 l 5.706276961472729 -4.9055620829984266 a28.525033960799533,28.525033960799533 0 0,0 0.31688512728447954,0.3750920399905043 l -5.789872702244326 4.806611093378816" fill="#ff6109" stroke="none" /><path d="M 116.38621287248628 86.86637796730983 l 3.9017821064507423 -3.127295601418755 a26.00038812342325,26.00038812342325 0 0,0 0.2768990812750843,0.35163371367739477 l -3.955035268319791 3.0596694937883218" fill="#ff3e05" stroke="none" /><path d="M 116.82858285166822 87.43820079747576 l 7.357810433690755 -5.492282864988766 a30.18164176208034,30.18164176208034 0 0,0 0.30718786953698485,0.419003908823776 l -7.451260915741367 5.364816512493497" fill="#ff780b" stroke="none" /><path d="M 117.2510076193507 88.02491185347247 l 7.6328929501493485 -5.2985059138526625 a30.291674752571318,30.291674752571318 0 0,0 0.29364970826398307,0.4308947124065727 l -7.722967124082065 5.166333178175683" fill="#ff790b" stroke="none" /><path d="M 117.65298651832404 88.62581576622439 l 2.5744652374384858 -1.658781186043542 a24.062584901998836,24.062584901998836 0 0,0 0.2213441602883281,0.3501133056610653 l -2.6026369939727694 1.6142202326682706" fill="#ff2303" stroke="none" /><line stroke="#e1ed5e" stroke-width="0.3" x1="172.23445277983987" x2="176.4835382374775" y1="55.19839476539836" y2="52.563006222186495" /><path d="M 173.08426987136738 54.67131705675599 a86.0,86.0 0 0,1 12.851231095245387,41.99856678651699" fill="none" id="id111" stroke="none" /><text fill="#e1ed5e" style="font-size:6.75px; font-family:Arial;" text-anchor="middle"><textPath startOffset="22.20632615414155" xlink:href="#id111">March</textPath></text><path d="M 118.56541770881063 90.18545643968196 l 10.722042131073248 -5.668170315448575 a33.128080729672035,33.128080729672035 0 0,0 0.262170214989601,0.506429408256483 l -10.818021779222965 5.482768184931747" fill="#ff9f0e" stroke="none" /><path d="M 118.89224826269711 90.83032412892265 l 6.604771054773694 -3.205738614738178 a28.341645643314575,28.341645643314575 0 0,0 0.20924475857316255,0.4407228256215529 l -6.658974007188613 3.0915733734760846" fill="#ff5f08" stroke="none" /><path d="M 119.04729006885535 91.15688171328212 l 2.777806808993751 -1.2896571691186665 a24.062584901998836,24.062584901998836 0 0,0 0.17118544915387499,0.3771844457193946 l -2.799594575110973 1.241650714557209" fill="#ff2303" stroke="none" /><path d="M 119.196687751892 91.48605970444005 l 2.799594575110973 -1.241650714557209 a24.062584901998836,24.062584901998836 0 0,0 0.16466747598173714,0.38007523787859576 l -2.820552760935391 1.1932763320920106" fill="#ff2303" stroke="none" /><path d="M 119.47837535516314 92.15188598940014 l 12.59876286799121 -5.076220453586124 a34.582961381719386,34.582961381719386 0 0,0 0.21771859804073163,0.5540700843109594 l -12.684275015913641 4.858601364379381" fill="#ffb210" stroke="none" /><path d="M 119.7369772167798 92.82701384747503 l 6.055532889526272 -2.2007551149120856 a27.44304288763827,27.44304288763827 0 0,0 0.15753210825281244,0.4453644835325398 l -6.092518078588894 2.0961930049529314" fill="#ff5207" stroke="none" /><path d="M 120.08093135843002 93.85539295169968 l 5.85710068537169 -1.7922267404609693 a27.12516980399767,27.12516980399767 0 0,0 0.13277654741403253,0.44765651112266586 l -5.887083129897425 1.6911408425917736" fill="#ff4e07" stroke="none" /><path d="M 120.18372546131832 94.20196356495316 l 8.354722765183771 -2.4000022736182656 a29.692606248787115,29.692606248787115 0 0,0 0.13688748101173656,0.49245710135639753 l -8.39479701676187 2.2558338688429163" fill="#ff710a" stroke="none" /><path d="M 120.45610955862082 95.25157060432595 l 12.629752097953073 -2.9317151411482643 a33.96555404618669,33.96555404618669 0 0,0 0.1272990358105022,0.5706566167059628 l -12.678345520765612 2.7138803548923374" fill="#ffaa0f" stroke="none" /><path d="M 120.6074358757038 95.95851677861258 l 3.293270608119945 -0.6458687042135743 a24.356006209974773,24.356006209974773 0 0,0 0.07714391054778304,0.4121058548505712 l -3.303900242577588 0.5890847719004404" fill="#ff2703" stroke="none" /><path d="M 120.67395015179393 96.31383870115 l 3.0210526808268643 -0.5386531065464862 a24.068697845915,24.068697845915 0 0,0 0.06921256469271547,0.4084964747150524 l -3.0298771070398027 0.4865708435155966" fill="#ff2303" stroke="none" /><path d="M 120.83666639777658 97.38593545837742 l 18.202261554354987 -2.283565211355332 a39.344944692412184,39.344944692412184 0 0,0 0.07852060681677679,0.6727166074796641 l -18.238872514175352 1.9699048655508156" fill="#ffed16" stroke="none" /><path d="M 120.96714384426684 98.82574320788733 l 3.05779324645188 -0.1712505296473259 a24.062584901998836,24.062584901998836 0 0,0 0.019601143059444995,0.41374915019299396 l -3.0602879977448216 0.11859027283133218" fill="#ff2303" stroke="none" /><line stroke="#e1ed5e" stroke-width="0.3" x1="184.98032266829074" x2="189.97916517819016" y1="98.17113171792111" y2="98.06355123074" /><path d="M 185.9800911702706 98.14961562048488 a86.0,86.0 0 0,1 -9.607161424134198,41.387399972396054" fill="none" id="id112" stroke="none" /><text fill="#e1ed5e" style="font-size:6.75px; font-family:Arial;" text-anchor="middle"><textPath startOffset="21.466115282336823" xlink:href="#id112">April</textPath></text><path d="M 120.99980553446 99.90962569577887 l 26.04701282233671 -0.11209535521625323 a47.04725402678052,47.04725402678052 0 0,0 -0.0034853114576620346,0.8098636384392708 l -26.045083213589546 -0.33627776142670224" fill="#b6ff1f" stroke="none" /><path d="M 120.9904718944345 100.63252640178507 l 8.688662245454841 0.2618239501276063 a29.692606248787115,29.692606248787115 0 0,0 -0.019792055122478853,0.5107449986912383 l -8.68286805748116 -0.4113461958328508" fill="#ff710a" stroke="none" /><path d="M 120.92983693683757 101.71520430193887 l 5.117716774774955 0.4193979081007136 a26.134872889578887,26.134872889578887 0 0,0 -0.04060289425094428,0.4480495546745618 l -5.109739284246936 -0.507428851323846" fill="#ff4006" stroke="none" /><path d="M 120.89721153311464 102.0752229133903 l 3.9478818993764997 0.392049195844257 a24.967300601591305,24.967300601591305 0 0,0 -0.0461511022421513,0.42730188899142735 l -3.9405484956332963 -0.4599474067204758" fill="#ff3004" stroke="none" /><path d="M 120.49622156327973 104.57218783832717 l 34.019829813842726 7.588962270757279 a55.85600620997477,55.85600620997477 0 0,0 -0.2174113493801364,0.9366024029459673 l -33.88415789853204 -8.173433331051811" fill="#58ff2a" stroke="none" /><path d="M 120.32669344350535 105.2749913415812 l 1.1833898763927038 0.30710215456517787 a22.222588783233068,22.222588783233068 0 0,0 -0.09927351440098754,0.36943367773990593 l -1.1779282856499391 -0.32742676548063204" fill="#ff0901" stroke="none" /><path d="M 120.02730092923936 106.31721596034902 l 2.9207290216036053 0.9212862010871896 a24.062584901998836,24.062584901998836 0 0,0 -0.12799891400632055,0.39394015041356645 l -2.904437856581038 -0.9714252514785513" fill="#ff2303" stroke="none" /><path d="M 119.79798401119884 107.00284435728193 l 9.001877845573233 3.184099423464302 a30.548418397050263,30.548418397050263 0 0,0 -0.17961850174749086,0.4942329737322028 l -8.945735082820516 -3.3385801942026356" fill="#ff7d0b" stroke="none" /><path d="M 119.54520255179757 107.68017299344265 l 2.8504210591259214 1.1200562787836503 a24.062584901998836,24.062584901998836 0 0,0 -0.15479963402236369,0.3841999966179134 l -2.8307188108461676 -1.1689556432443773" fill="#ff2303" stroke="none" /><path d="M 119.26925614724726 108.34839909993367 l 2.8382234457133086 1.2296594055598016 a24.093149621579663,24.093149621579663 0 0,0 -0.16814599399742183,0.3791248272181701 l -2.816636366984614 -1.2783325692706593" fill="#ff2303" stroke="none" /><path d="M 118.97047184881838 109.00673069616215 l 5.522163355953341 2.6217923625544794 a27.112943916165342,27.112943916165342 0 0,0 -0.2037947571787902,0.4198775618014793 l -5.476215342159837 -2.7164588803212344" fill="#ff4e07" stroke="none" /><path d="M 118.81262510543309 109.33194174019688 l 5.481691557501996 2.719175339201555 a27.119056860081507,27.119056860081507 0 0,0 -0.21103963553411076,0.4164012222442113 l -5.434073252181617 -2.813130773148461" fill="#ff4e07" stroke="none" /><path d="M 118.64920377521936 109.65438752849418 l 6.530659462911571 3.3808155045930044 a28.353871531146904,28.353871531146904 0 0,0 -0.22811026082385144,0.43149864788244136 l -6.471496693862827 -3.4927291675615804" fill="#ff5f08" stroke="none" /><line stroke="#e1ed5e" stroke-width="0.3" x1="174.80103733775053" x2="179.2010983576182" y1="140.37084112569926" y2="142.7455964860345" /><path d="M 175.68104954172406 140.8457921977663 a86.0,86.0 0 0,1 -30.038265399797805,32.042727171017184" fill="none" id="id113" stroke="none" /><text fill="#e1ed5e" style="font-size:6.75px; font-family:Arial;" text-anchor="middle"><textPath startOffset="22.206326154141568" xlink:href="#id113">May</textPath></text><path d="M 118.48025628344425 109.97397251340804 l 2.162007083344531 1.1668560701936819 a23.45679215990685,23.45679215990685 0 0,0 -0.19482942434669942,0.35367199722103376 l -2.141601249546324 -1.203898585812522" fill="#ff1a02" stroke="none" /><path d="M 118.30583269289576 110.29060199501023 l 2.3019948738591984 1.294063670243865 a23.640791771783427,23.640791771783427 0 0,0 -0.20246424807297356,0.35301348227749285 l -2.2793786296338427 -1.3334969983796718" fill="#ff1d02" stroke="none" /><path d="M 118.12598468904814 110.60418214915192 l 6.996426071514991 4.093094953359826 a29.10576363283524,29.10576363283524 0 0,0 -0.2567116215337204,0.4302634437153977 l -6.924933574283044 -4.212920490961328" fill="#ff6909" stroke="none" /><path d="M 117.94076556474637 110.91462005526583 l 2.8201086954093837 1.7156689782195451 a24.300989714729283,24.300989714729283 0 0,0 -0.22048561103433675,0.35549300913426624 l -2.790158444707084 -1.763958318719085" fill="#ff2603" stroke="none" /><path d="M 117.35343817320211 111.8261652097733 l 10.608059430542719 7.229268467064986 a33.83718222394722,33.83718222394722 0 0,0 -0.33215076418257,0.4784879487795802 l -10.48204775919801 -7.410797678031585" fill="#ffa80f" stroke="none" /><path d="M 116.93607887273984 112.41649034213515 l 4.146101979033826 3.0396667119354706 a26.14098583349505,26.14098583349505 0 0,0 -0.26917588876078635,0.3606050910901415 l -4.093164823577948 -3.110584682534927" fill="#ff4006" stroke="none" /><path d="M 116.71984013943494 112.70617746262583 l 2.438377617850835 1.8530355837693204 a24.062584901998836,24.062584901998836 0 0,0 -0.25345141621112266,0.32762012104760324 l -2.4061193844216437 -1.8947336989301764" fill="#ff2303" stroke="none" /><path d="M 116.27256486870786 113.27417163493432 l 4.424192389105317 3.608987863485927 a26.709489617698427,26.709489617698427 0 0,0 -0.2936822854061162,0.3537592316856876 l -4.361414103805658 -3.684608352285385" fill="#ff4806" stroke="none" /><path d="M 115.80600337817218 113.82643327865902 l 3.956868689664684 3.4613038869532597 a26.257131767902194,26.257131767902194 0 0,0 -0.3005080597158522,0.3376239907548219 l -3.896701780300498 -3.528902047448948" fill="#ff4206" stroke="none" /><path d="M 115.07121518719521 114.62390073753431 l 0.9827145940030261 0.9535475738039075 a22.369299437221038,22.369299437221038 0 0,0 -0.27051872871534355,0.2740340439627657 l -0.9661552402321469 -0.970322111747338" fill="#ff0b01" stroke="none" /><path d="M 114.81725581225074 114.88116024355365 l 2.1609097114120766 2.1702293660063203 a24.062584901998836,24.062584901998836 0 0,0 -0.29602714073299496,0.289724862661299 l -2.123232618303287 -2.2071043315901915" fill="#ff2303" stroke="none" /><path d="M 114.29624159901734 115.38237550388516 l 9.246918930627748 9.949438687065637 a34.582961381719386,34.582961381719386 0 0,0 -0.4395337130262357,0.40150362560571645 l -9.07428566813465 -10.107135079257937" fill="#ffb210" stroke="none" /><path d="M 114.0293411484842 115.62618273729858 l 2.2583618246977784 2.515412105683907 a24.380457985639435,24.380457985639435 0 0,0 -0.3146909322212962,0.2776781591979977 l -2.2147285395698946 -2.5539134066541935" fill="#ff2803" stroke="none" /><path d="M 113.48314897796784 116.09983520530334 l 4.007266186640355 4.784959754884936 a27.241315738404815,27.241315738404815 0 0,0 -0.3620888076349723,0.2979744378030645 l -3.924307250460692 -4.853229311545178" fill="#ff5007" stroke="none" /><path d="M 113.20401910651253 116.32954008644616 l 5.803823651513851 7.177645700718135 a30.230545313409664,30.230545313409664 0 0,0 -0.4074537781918668,0.3237059239103387 l -5.679412380604633 -7.2764855386336" fill="#ff780b" stroke="none" /><path d="M 112.04921762599082 117.19931262002967 l 1.7537188471750669 2.5032960343532427 a24.05647195808267,24.05647195808267 0 0,0 -0.3411930739513138,0.23467570742826496 l -1.7103688886008699 -2.533112531146602" fill="#ff2303" stroke="none" /><path d="M 111.7513745106137 117.40417183066458 l 1.7137896263780712 2.5381787562088944 a24.062584901998836,24.062584901998836 0 0,0 -0.34526979260428525,0.22882599155177769 l -1.6698451350338217 -2.5673027688519907" fill="#ff2303" stroke="none" /><path d="M 111.45004920935366 117.60387380957326 l 1.6665121108121979 2.562178412027935 a24.05647195808267,24.05647195808267 0 0,0 -0.34906879924645245,0.2227922232977016 l -1.6221615095188149 -2.590485064149446" fill="#ff2303" stroke="none" /><line stroke="#e1ed5e" stroke-width="0.3" x1="143.8653032363475" x2="146.44561519142675" y1="172.8068346515853" y2="177.08958963109032" /><path d="M 144.38136562736335 173.6633856474863 a86.0,86.0 0 0,1 -40.68145358897372,12.25698825130547" fill="none" id="id114" stroke="none" /><text fill="#e1ed5e" style="font-size:6.75px; font-family:Arial;" text-anchor="middle"><textPath startOffset="21.466115282336833" xlink:href="#id114">June</textPath></text><path d="M 110.8373102113329 117.98757091392108 l 1.8328577234963386 3.042144003780753 a24.551620415292064,24.551620415292064 0 0,0 -0.36386919483592317,0.21498033402218245 l -1.7802206576320332 -3.073242910096685" fill="#ff2a04" stroke="none" /><path d="M 109.89434966115114 118.52300852407294 l 1.5178504574306186 2.8415366268735984 a24.221521443819135,24.221521443819135 0 0,0 -0.3694463653859448,0.19327687725637024 l -1.4687131895181782 -2.867242923074685" fill="#ff2503" stroke="none" /><path d="M 109.2508944713604 118.85261126421891 l 2.156986164824279 4.395771867641957 a25.896468076848436,25.896468076848436 0 0,0 -0.40187289951339433,0.1929234135423143 l -2.081000597310652 -4.432249557683832" fill="#ff3d05" stroke="none" /><path d="M 108.92500713936063 119.00905698771935 l 2.6655513268922966 5.677263478381539 a27.271880457985638,27.271880457985638 0 0,0 -0.42665169266920805,0.1958548661603676 l -2.5674316384556692 -5.722305414875981" fill="#ff5007" stroke="none" /><path d="M 108.59647513512805 119.15986991738527 l 1.2536873790119791 2.7942251587259914 a24.062584901998836,24.062584901998836 0 0,0 -0.3793630654925854,0.16630161945912927 l -1.2054036388616398 -2.8153913314795753" fill="#ff2303" stroke="none" /><path d="M 107.59598834532513 119.57807347666477 l 1.446082780276334 3.727166714653239 a24.99786532117213,24.99786532117213 0 0,0 -0.40250108011963404,0.1521914678528869 l -1.3817114793964251 -3.7515064326127567" fill="#ff3004" stroke="none" /><path d="M 106.91757812671514 119.82793768551818 l 2.01566923292505 5.777537053135176 a27.119056860081507,27.119056860081507 0 0,0 -0.44207971320962997,0.14997744104142058 l -1.915919786778193 -5.81137748107472" fill="#ff4e07" stroke="none" /><path d="M 105.88484417918355 120.15858648285463 l 0.8599432693431426 2.94574337698225 a24.068697845915,24.068697845915 0 0,0 -0.398702371661983,0.1126772727620234 l -0.8091097295765538 -2.9601094430827923" fill="#ff2303" stroke="none" /><path d="M 105.18746579009965 120.34920634021253 l 1.357519429060622 5.325228944260935 a26.495536580632642,26.495536580632642 0 0,0 -0.442912908837961,0.10885721697483686 l -1.2656532354794499 -5.3478074195498015" fill="#ff4506" stroke="none" /><path d="M 104.48393922423573 120.51570834832081 l 0.8888693804690073 4.066911717021095 a25.162914806908596,25.162914806908596 0 0,0 -0.4239454340004474,0.08884188763903968 l -0.818732485039182 -4.081609585386676" fill="#ff3304" stroke="none" /><path d="M 104.13013068566511 120.58985236759428 l 0.6023274229142882 3.0027700473990095 a24.062584901998836,24.062584901998836 0 0,0 -0.40680937701559705,0.07796598531951678 l -0.5505504313269868 -3.0126932310669945" fill="#ff2303" stroke="none" /><path d="M 103.06178313531738 120.77559828337769 l 1.135468187772464 7.704670739284837 a28.787890549194643,28.787890549194643 0 0,0 -0.4908628821766407,0.06802912271691353 l -1.002676714408993 -7.723074427494352" fill="#ff6509" stroke="none" /><path d="M 102.70371172650421 120.8252237178851 l 0.8657334268837459 6.668274623425266 a27.724238307781874,27.724238307781874 0 0,0 -0.4737842307357772,0.057368672245572995 l -0.7508217730965885 -6.68218882439619" fill="#ff5608" stroke="none" /><path d="M 102.34483914955558 120.86867818915974 l 0.7351227723863871 6.5424703307951795 a27.583640597710072,27.583640597710072 0 0,0 -0.4722941917087092,0.04895522406504934 l -0.6223959840720753 -6.554154923315988" fill="#ff5407" stroke="none" /><path d="M 101.98527174616119 120.90594882070398 l 1.044839312165564 11.002703900979858 a32.05220260042694,32.05220260042694 0 0,0 -0.5497039474020522,0.04743076961543029 l -0.85529104702197 -11.01905892287395" fill="#ff910d" stroke="none" /><path d="M 101.62511606390274 120.93702456842531 l 0.6622828903931183 8.532457130543987 a29.558121482631478,29.558121482631478 0 0,0 -0.5076075870503431,0.035007591155323835 l -0.5153125425638448 -8.542593066215597" fill="#ff6f0a" stroke="none" /><path d="M 101.26447882468166 120.96189622390904 l 0.37691431684669785 6.248296642717693 a27.25965457015331,27.25965457015331 0 0,0 -0.4686219309882078,0.024222401041651763 l -0.26930431744501043 -6.253858850521547" fill="#ff5007" stroke="none" /><line stroke="#e1ed5e" stroke-width="0.3" x1="102.19456741930631" x2="102.32365962044197" y1="184.97166512339345" y2="189.96999836594603" /><path d="M 102.22038585953345 185.97133177190398 a86.0,86.0 0 0,1 -42.740103519485714,-10.115201625700543" fill="none" id="id115" stroke="none" /><text fill="#e1ed5e" style="font-size:6.75px; font-family:Arial;" text-anchor="middle"><textPath startOffset="22.20632615414155" xlink:href="#id115">July</textPath></text><path d="M 100.18074693466247 120.99922214144158 l 0.0695032119219231 8.074899800750336 a29.075198913254415,29.075198913254415 0 0,0 -0.5005002931687516,0.0 l 0.06950321192191754 -8.074899800750336" fill="#ff6909" stroke="none" /><path d="M 99.45781275523022 120.99299961872073 l -0.10732214043570265 4.155416186899893 a25.15680186299243,25.15680186299243 0 0,0 -0.4327924061929805,-0.014906245549334963 l 0.1788348983033262 -4.152953142924464" fill="#ff3304" stroke="none" /><path d="M 99.09653310690486 120.98055641714683 l -0.1320222337474555 3.0658565849236483 a24.068697845915,24.068697845915 0 0,0 -0.4137660523869463,-0.021386978704140424 l 0.18477635454789074 -3.063129799457306" fill="#ff2303" stroke="none" /><path d="M 98.73552117531835 120.96189622390904 l -0.2241609560152699 3.716027983803784 a24.722782844944692,24.722782844944692 0 0,0 -0.42456934052680395,-0.02928078750086475 l 0.2880930573210039 -3.7116188517866346" fill="#ff2c04" stroke="none" /><path d="M 98.01472825383883 120.90594882070398 l -0.4767657259604999 5.02059221145375 a26.043178730836406,26.043178730836406 0 0,0 -0.44591800725634695,-0.0462212247008463 l 0.5631163298224402 -5.011641618297143" fill="#ff3f05" stroke="none" /><path d="M 97.65516085044442 120.86867818915974 l -0.6989468142280955 6.220510323801546 a27.25965457015331,27.25965457015331 0 0,0 -0.4658448801104709,-0.05640732745122128 l 0.8059191173899557 -6.207557467624976" fill="#ff5007" stroke="none" /><path d="M 97.2962882734958 120.8252237178851 l -0.4242093791730333 3.2674545654783804 a24.29487677081312,24.29487677081312 0 0,0 -0.4142524167746374,-0.05741161028834385 l 0.48039038713450183 -3.2596683896974317" fill="#ff2603" stroke="none" /><path d="M 96.93821686468263 120.77559828337769 l -0.929586593286244 6.307670000843084 a27.375800504560452,27.375800504560452 0 0,0 -0.4656025783446121,-0.072717547136778 l 1.0380250352393732 -6.2907341463592" fill="#ff5107" stroke="none" /><path d="M 96.22490169976321 120.6578951692458 l -0.5549460435531484 3.0367466700375907 a24.087036677663498,24.087036677663498 0 0,0 -0.40722276616999736,-0.07804521233483003 l 0.6071364242948408 -3.026744259354292" fill="#ff2303" stroke="none" /><path d="M 95.51606077576429 120.51570834832081 l -0.6891674491742064 3.1532002739899254 a24.2276343877353,24.2276343877353 0 0,0 -0.4066549023596801,-0.09255333182236605 l 0.7433425009267491 -3.140870208589873" fill="#ff2503" stroke="none" /><path d="M 95.16358092515715 120.4354850818985 l -2.8170991370348966 11.903184256417305 a33.23200077624685,33.23200077624685 0 0,0 -0.5555230816148826,-0.1365340576515123 l 3.0215755033929894 -11.852928940451761" fill="#ffa00e" stroke="none" /><path d="M 94.11515582081647 120.15858648285463 l -0.8582302349420587 2.9398753622870677 a24.062584901998836,24.062584901998836 0 0,0 -0.39660299115419534,-0.11949322785081376 l 0.9087082005364999 -2.9246667653305285" fill="#ff2303" stroke="none" /><path d="M 93.76903079525671 120.05430185196036 l -1.5580445993230603 5.014548406025795 a26.251018823986026,26.251018823986026 0 0,0 -0.4303650214625864,-0.13778928939287796 l 1.644130965876587 -4.98698626997321" fill="#ff4206" stroke="none" /><path d="M 93.08242187328487 119.8279376855182 l -4.238543624759171 12.148988754389846 a33.86713564913643,33.86713564913643 0 0,0 -0.5487773237571806,-0.19677202373735433 l 4.4470405091460785 -12.074229189612534" fill="#ffa80f" stroke="none" /><path d="M 92.40401165467489 119.57807347666478 l -1.3399482642927474 3.453613194311717 a24.704444013196195,24.704444013196195 0 0,0 -0.395128670101738,-0.15722985235987277 l 1.3991980104363435 -3.4300364975457778" fill="#ff2c04" stroke="none" /><path d="M 92.06813273071674 119.44442032107085 l -1.8494349939925927 4.5337611130926865 a25.896468076848436,25.896468076848436 0 0,0 -0.41129577151627705,-0.17192166585087917 l 1.927202225006332 -4.501254404221834" fill="#ff3d05" stroke="none" /><path d="M 90.42595943632237 118.69057910512821 l -4.183185004680803 8.166473676537194 a30.175528818164175,30.175528818164175 0 0,0 -0.46026173340628046,-0.2407871856052483 l 4.32313764061358 -8.09325707198723" fill="#ff780b" stroke="none" /><path d="M 90.10565033884886 118.52300852407294 l -3.0068991984014515 5.629154152668002 a27.381913448476617,27.381913448476617 0 0,0 -0.4138283188539888,-0.22565219499827935 l 3.1033503291240807 -5.576561305909957" fill="#ff5207" stroke="none" /><line stroke="#e1ed5e" stroke-width="0.3" x1="58.666819895761336" x2="56.23545636021788" y1="174.27360380694188" y2="178.64263932499728" /><path d="M 58.180547188652646 175.14741091055294 a86.0,86.0 0 0,1 -31.652253787137756,-30.449443065178592" fill="none" id="id116" stroke="none" /><text fill="#e1ed5e" style="font-size:6.75px; font-family:Arial;" text-anchor="middle"><textPath startOffset="22.20632615414155" xlink:href="#id116">August</textPath></text><path d="M 88.54995079064634 117.60387380957326 l -2.336449979358701 3.5921741336631636 a25.285173685231904,25.285173685231904 0 0,0 -0.3628125037197568,-0.24045234390431106 l 2.3979371818184196 -3.5514237686675343" fill="#ff3405" stroke="none" /><path d="M 88.24862548938628 117.40417183066458 l -7.108293101025216 10.527615679445274 a33.70269745779158,33.70269745779158 0 0,0 -0.4780055432114648,-0.3287765713080988 l 7.288455528859574 -10.403698318772078" fill="#ffa60f" stroke="none" /><path d="M 86.24171649860922 115.8653595955263 l -10.905435466996046 12.575598926436472 a37.64554628371822,37.64554628371822 0 0,0 -0.485910152343372,-0.42875921363836245 l 11.120287972246006 -12.38601657102582" fill="#ffd814" stroke="none" /><path d="M 84.19399662182784 113.82643327865904 l -3.7636262652857084 3.292263464567172 a26.00038812342325,26.00038812342325 0 0,0 -0.29177077215959957,-0.3393953245389941 l 3.819739547016089 -3.2269910408666473" fill="#ff3e05" stroke="none" /><path d="M 83.72743513129214 113.27417163493432 l -1.5773619545739521 1.2867162297010863 a23.03561032408306,23.03561032408306 0 0,0 -0.24799708948377616,-0.30941450042671986 l 1.5992769561125892 -1.259373895696107" fill="#ff1402" stroke="none" /><path d="M 83.28015986056508 112.70617746262583 l -5.1736435284938835 3.9316902705524734 a27.498059382883756,27.498059382883756 0 0,0 -0.283149787109434,-0.3793254115099864 l 5.240554582298403 -3.8420519795331813" fill="#ff5307" stroke="none" /><line stroke="#e1ed5e" stroke-width="0.3" x1="26.63291911575756" x2="22.317208475507996" y1="142.92168965132927" y2="145.44649492493687" /><path d="M 25.769776987707644 143.4266507060508 a86.0,86.0 0 0,1 -11.730757126820373,-40.83630448921669" fill="none" id="id117" stroke="none" /><text fill="#e1ed5e" style="font-size:6.75px; font-family:Arial;" text-anchor="middle"><textPath startOffset="21.46611528233685" xlink:href="#id117">September</textPath></text><path d="M 81.69416730710424 110.29060199501025 l -30.757209286840954 17.29012848298054 a56.28391228410634,56.28391228410634 0 0,0 -0.4674877176528439,-0.84862599852662 l 31.050273413945316 -16.758131966056094" fill="#54ff2b" stroke="none" /><path d="M 80.45479744820244 107.68017299344265 l -1.553223451379994 0.6103300680797145 a22.66883368911314,22.66883368911314 0 0,0 -0.13958142242598598,-0.3644030486106267 l 1.563499153399489 -0.58350345263593" fill="#ff0f01" stroke="none" /><path d="M 79.97269907076064 106.31721596034903 l -2.920729021603605 0.921286201087191 a24.062584901998836,24.062584901998836 0 0,0 -0.1211989174728417,-0.3960850748236821 l 2.936154711582577 -0.870874153711461" fill="#ff2303" stroke="none" /><path d="M 79.76711848015287 105.62410040840567 l -11.437683653660908 3.1793138928169458 a32.87133708519309,32.87133708519309 0 0,0 -0.14684396977047592,-0.5464610388135267 l 11.490715699773157 -2.9819619208278803" fill="#ff9b0e" stroke="none" /><path d="M 79.67330655649465 105.27499134158121 l -1.479237345490879 0.3838776932064724 a22.528235979041334,22.528235979041334 0 0,0 -0.0941773441833696,-0.37619167549218274 l 1.4856260039693092 -0.3583581783168978" fill="#ff0d01" stroke="none" /><path d="M 79.58551787078972 104.9243191809786 l -2.240324013985721 0.5404041329018824 a23.304579856394334,23.304579856394334 0 0,0 -0.09070967469942176,-0.3907749045123575 l 2.2492942546156978 -0.5017605710409507" fill="#ff1802" stroke="none" /><path d="M 79.4281124754447 104.21870165774334 l -4.20380313668867 0.862078953154228 a25.29128662914807,25.29128662914807 0 0,0 -0.08378650028197439,-0.4272255598323835 l 4.218019569946311 -0.7895896662538897" fill="#ff3405" stroke="none" /><path d="M 79.23777060512086 103.15116336523772 l -3.2213084419184708 0.4889103649345158 a24.258199107316127,24.258199107316127 0 0,0 -0.059104465616862875,-0.41337649486448 l 3.2292469585519323 -0.4333883980896352" fill="#ff2603" stroke="none" /><path d="M 79.18660465613746 102.79330883721812 l -6.834128647742174 0.9171897055255317 a27.895400737434503,27.895400737434503 0 0,0 -0.05977385391137679,-0.4764564276931279 l 6.848904010900399 -0.7994155235449951" fill="#ff5908" stroke="none" /><path d="M 79.07016306316243 101.71520430193888 l -6.238740449249468 0.51126602130373 a27.25965457015331,27.25965457015331 0 0,0 -0.03429970873166328,-0.4679922743980532 l 6.246616716645467 -0.4038006104089161" fill="#ff5007" stroke="none" /><path d="M 79.0235259727143 100.99374915477108 l -20.809574078689018 0.9858423596331757 a41.83291286629148,41.83291286629148 0 0,0 -0.02788435984522087,-0.7195714262374001 l 20.82346057138544 -0.6274936863817788" fill="#f3ff19" stroke="none" /><line stroke="#e1ed5e" stroke-width="0.3" x1="15.007084014347285" x2="10.007500721073583" y1="101.09737516637583" y2="101.16192664675087" /><path d="M 14.007167355692545 101.11028546245083 a86.0,86.0 0 0,1 10.666146001902534,-42.60595125391555" fill="none" id="id118" stroke="none" /><text fill="#e1ed5e" style="font-size:6.75px; font-family:Arial;" text-anchor="middle"><textPath startOffset="22.20632615414155" xlink:href="#id118">October</textPath></text><path d="M 79.00175016825051 100.2711162175752 l -7.334921346235028 0.09470389901714883 a28.33553269939841,28.33553269939841 0 0,0 -0.0020991269058966717,-0.4877631667086833 l 7.335464770430428 0.031568745895209874" fill="#ff5f08" stroke="none" /><path d="M 79.00019446554 99.90962569577889 l -6.357402801039703 -0.02735957977584855 a27.357461672811954,27.357461672811954 0 0,0 0.006079860900208714,-0.47089192696294424 l 6.355989933021779 0.13678776479926474" fill="#ff5107" stroke="none" /><path d="M 79.00486145842228 99.54816195383935 l -7.517180401554603 -0.16177783721451502 a28.51892101688337,28.51892101688337 0 0,0 0.014786796467959605,-0.49070178698231887 l 7.513281910630998 0.2911497716218283" fill="#ff6109" stroke="none" /><path d="M 79.05617556472873 98.46500227214037 l -3.054392405027432 -0.22386004123549666 a24.062584901998836,24.062584901998836 0 0,0 0.033831439993747235,-0.41282925981887686 l 3.0500864812141875 0.2764032182621519" fill="#ff2303" stroke="none" /><path d="M 79.12142395522702 97.74499172005258 l -5.396907295097541 -0.5828975410226993 a26.428294197554823,26.428294197554823 0 0,0 0.05274288002556295,-0.45186878652498963 l 5.386074062068389 0.6757100658725507" fill="#ff4406" stroke="none" /><path d="M 79.16333360222342 97.38593545837743 l -4.858384373554929 -0.6095087418512531 a25.896468076848436,25.896468076848436 0 0,0 0.059295514066950265,-0.44182045320204183 l 4.847172860430145 0.6930475371179544" fill="#ff3d05" stroke="none" /><path d="M 79.32604984820605 96.31383870115002 l -16.254707750823428 -2.898211236617641 a37.51106151756258,37.51106151756258 0 0,0 0.11881052867682489,-0.6346905949923829 l 16.202411498236742 3.1775799090725965" fill="#ffd714" stroke="none" /><path d="M 79.46518482838121 95.60439243477599 l -3.000721099209965 -0.6423234031852664 a24.068697845915,24.068697845915 0 0,0 0.09020674371549893,-0.4043791443116516 l 2.9892199684924288 0.6938807170468771" fill="#ff2303" stroke="none" /><path d="M 79.62865764111835 94.90015583598534 l -3.095431994373051 -0.7749229537014308 a24.19095672423831,24.19095672423831 0 0,0 0.10460131457749963,-0.4030715346287492 l 3.0816343479252444 0.8280909138790439" fill="#ff2503" stroke="none" /><path d="M 79.71946130924805 94.55025226153421 l -4.138363367616083 -1.1120531238107463 a25.285173685231904,25.285173685231904 0 0,0 0.11656853910751303,-0.41935905645976534 l 4.11860805794221 1.1831234836894542" fill="#ff3405" stroke="none" /><path d="M 79.81627453868168 94.20196356495316 l -4.224364042311627 -1.213503259304876 a25.395206675722882,25.395206675722882 0 0,0 0.12430845180446307,-0.41910630244303143 l 4.202849693395457 1.2860389484944466" fill="#ff3605" stroke="none" /><path d="M 79.91906864156998 93.8553929516997 l -4.091786905948288 -1.2520546091044678 a25.27906074131574,25.27906074131574 0 0,0 0.13090282052897953,-0.41499771349834097 l 4.069628601651104 1.3223024890292232" fill="#ff3405" stroke="none" /><path d="M 80.14247586403 93.16781622104843 l -5.919106748078773 -2.0365290674305476 a27.25965457015331,27.25965457015331 0 0,0 0.15647939888670365,-0.442388332395187 l 5.88317426838226 2.1381150262523456" fill="#ff5007" stroke="none" /><path d="M 80.2630227832202 92.82701384747504 l -22.722611554152188 -8.258051688308619 a45.17669318843392,45.17669318843392 0 0,0 0.27191079646132493,-0.7285857489736534 l 22.577096169189232 8.647960574311615" fill="#cbff1d" stroke="none" /><path d="M 80.52162464483688 92.15188598940014 l -2.948405351645106 -1.1879543815773108 a24.178730836405975,24.178730836405975 0 0,0 0.15886383304951737,-0.384701372695615 l 2.9275198317093865 1.2385303247262371" fill="#ff2503" stroke="none" /><path d="M 80.65960295795067 91.81776055985345 l -3.7719967062409414 -1.5957986876280368 a25.095672423830777,25.095672423830777 0 0,0 0.1717372033356853,-0.3963931433409124 l 3.7439687930625776 1.6604909755555484" fill="#ff3204" stroke="none" /><path d="M 80.803312248108 91.48605970444005 l -16.764039371921992 -7.435034218905441 a39.33883174849602,39.33883174849602 0 0,0 0.2798633484092308,-0.6166417909271277 l 16.63357370654941 7.72249801867464" fill="#ffed16" stroke="none" /><path d="M 80.95270993114464 91.15688171328213 l -2.7722622844249027 -1.2870830031124405 a24.05647195808267,24.05647195808267 0 0,0 0.17760756486554255,-0.37408682718298825 l 2.7496965257176087 1.334612245935961" fill="#ff2303" stroke="none" /><path d="M 81.26839172434947 90.50648371742162 l -9.918337508269447 -5.026792000196994 a32.119444983504756,32.119444983504756 0 0,0 0.25418803659005657,-0.49101038026492644 l 9.830340038519276 5.196775102722256" fill="#ff910d" stroke="none" /><path d="M 81.6062741919709 89.86733742301443 l -2.6824927119607755 -1.4777209250154584 a24.062584901998836,24.062584901998836 0 0,0 0.2029763355305343,-0.3610722522006723 l 2.656658735137811 1.523676687150915" fill="#ff2303" stroke="none" /><line stroke="#e1ed5e" stroke-width="0.3" x1="26.266209847984243" x2="21.928928074336255" y1="57.711370442889674" y2="55.22380399835377" /><path d="M 25.398753493254645 57.213857153982495 a86.0,86.0 0 0,1 29.58750427330803,-30.492523968695096" fill="none" id="id119" stroke="none" /><text fill="#e1ed5e" style="font-size:6.75px; font-family:Arial;" text-anchor="middle"><textPath startOffset="21.46611528233685" xlink:href="#id119">November</textPath></text><path d="M 81.78341655067845 89.55222093294921 l -2.7998319603847586 -1.6057909996321023 a24.2276343877353,24.2276343877353 0 0,0 0.21059620323577177,-0.3599771770922013 l 2.771776082678664 1.6537475890781954" fill="#ff2503" stroke="none" /><path d="M 82.34701348167596 88.62581576622439 l -6.166383802247872 -3.9731285893258472 a28.33553269939841,28.33553269939841 0 0,0 0.2677078584041103,-0.40773743472992074 l 6.097079308485842 4.078684088033435" fill="#ff5f08" stroke="none" /><path d="M 82.7489923806493 88.02491185347247 l -2.5158416894900166 -1.7464154360790671 a24.062584901998836,24.062584901998836 0 0,0 0.23912180018785192,-0.3382208284088819 l 2.4854072694982863 1.7894627648197352" fill="#ff2303" stroke="none" /><path d="M 82.95767976084542 87.72973835380427 l -2.788021727461151 -2.0073414647279257 a24.43547448088492,24.43547448088492 0 0,0 0.24870354654924398,-0.3392313579945018 l 2.7530555683982736 2.0550352663939306" fill="#ff2803" stroke="none" /><path d="M 83.84228863543731 86.58626213691792 l -48.47313409368807 -40.241213589246236 a84.0,84.0 0 0,0 0.9331575460515031,-1.1045642014835364 l 47.77326593414944 41.06963674035889" fill="#4dd2ff" stroke="none" /><path d="M 84.80347519578584 85.50635884689758 l -3.1938358942293688 -3.046111657056067 a25.413545507471376,25.413545507471376 0 0,0 0.304642742392273,-0.3139611248883037 l 3.1409288881339816 3.1006369774944944" fill="#ff3605" stroke="none" /><path d="M 85.57189188830299 84.74124197986013 l -4.29231316422114 -4.539428691029386 a27.24742868232098,27.24742868232098 0 0,0 0.34356687152097654,-0.31930796380844 l 4.213538408905307 4.612641240912476" fill="#ff5007" stroke="none" /><path d="M 86.37877921826538 84.01681056812374 l -2.6407140618965435 -3.09862337326691 a25.07122064816612,25.07122064816612 0 0,0 0.3308714210416365,-0.27709529976970043 l 2.5869851038957967 3.1436198304304233" fill="#ff3104" stroke="none" /><path d="M 87.51073957382395 83.11751280151077 l -0.3708241500494732 -0.5012653874187569 a21.623520279448865,21.623520279448865 0 0,0 0.3011380848878002,-0.21878962547307595 l 0.3621407488078914 0.5075742477085007" fill="#ff0000" stroke="none" /><path d="M 88.09926311788651 82.69761687909137 l -1.9364967738506038 -2.8154566751177734 a24.417135649136426,24.417135649136426 0 0,0 0.34834567697714314,-0.23520455607656626 l 1.8877464024669213 2.8483731434930055" fill="#ff2803" stroke="none" /><line stroke="#e1ed5e" stroke-width="0.3" x1="56.76296977257108" x2="54.21961505331056" y1="26.818313649435495" y2="22.513508569990535" /><path d="M 56.25429882871898 25.957352633546506 a86.0,86.0 0 0,1 42.26535254187918,-11.944610805530505" fill="none" id="id120" stroke="none" /><text fill="#e1ed5e" style="font-size:6.75px; font-family:Arial;" text-anchor="middle"><textPath startOffset="22.20632615414155" xlink:href="#id120">December</textPath></text><path d="M 89.94658935756843 81.56283822128135 l -6.22168184333675 -11.410073532376042 a33.99611876576751,33.99611876576751 0 0,0 0.5161824222512861,-0.27572677343729984 l 6.024354374557159 11.515479032315092" fill="#ffaa0f" stroke="none" /><path d="M 90.58718382345135 81.22770947309562 l -0.6384201928398501 -1.273222499350491 a22.424315932466524,22.424315932466524 0 0,0 0.3465397541772038,-0.17004555236912475 l 0.6164091716522204 1.2840232118544455" fill="#ff0c01" stroke="none" /><path d="M 91.23893434514133 80.91482961587045 l -1.2776908285709865 -2.783331174786214 a24.062584901998836,24.062584901998836 0 0,0 0.3779176560281255,-0.16956063622455947 l 1.2295910540760866 2.804912141527302" fill="#ff2303" stroke="none" /><path d="M 91.90106846888425 80.62456947434976 l -0.5021557586243911 -1.201329332999274 a22.30205705414322,22.30205705414322 0 0,0 0.3554694398753324,-0.1450049098312391 l 0.48140244916067826 1.20979512901409" fill="#ff0a01" stroke="none" /><path d="M 92.23578459929587 80.48803036053334 l -2.034094855608497 -5.111810404284881 a26.501649524548807,26.501649524548807 0 0,0 0.4253096211929162,-0.16501352544144068 l 1.9458020694159033 5.146066633616873" fill="#ff4506" stroke="none" /><path d="M 92.57280143429618 80.3572730644239 l -2.1814603200451623 -5.769312481466027 a27.167960411410828,27.167960411410828 0 0,0 0.43885011163151044,-0.16163219972232717 l 2.081827882641084 5.806007948994677" fill="#ff4f07" stroke="none" /><path d="M 92.91201910852362 80.23233633223022 l -2.8924821691521654 -8.066840974921345 a29.56973607607219,29.56973607607219 0 0,0 0.4806039551363111,-0.1676732830410288 l 2.753196209952569 8.115435111134582" fill="#ff6f0a" stroke="none" /><path d="M 93.59665428221793 80.00007090966166 l -0.9338471389313471 -2.9167371844341674 a24.062584901998836,24.062584901998836 0 0,0 0.3955598227885702,-0.12290236242696094 l 0.8835019434320481 2.9323796817436536" fill="#ff2303" stroke="none" /><path d="M 94.63758080256005 79.69619591428918 l -3.3123579090726496 -12.541627868196692 a33.971666990102854,33.971666990102854 0 0,0 0.5666653801517262,-0.14445562273168183 l 3.0959836402359238 12.596786487097237" fill="#ffaa0f" stroke="none" /><path d="M 97.11714578562143 79.19881850522333 l -4.345260757438063 -31.353148975340666 a52.65282359790413,52.65282359790413 0 0,0 0.8988219886820256,-0.11669289049473196 l 3.80492404024818 31.423300188999534" fill="#79ff26" stroke="none" /><path d="M 98.19473922651362 79.07773832637324 l -0.6910298613820853 -8.008764050306382 a29.038521249757423,29.038521249757423 0 0,0 0.49836990213442417,-0.03868309611413015 l 0.553069769885327 8.019472408608975" fill="#ff6809" stroke="none" /><path d="M 98.55514903715128 79.0497635885617 l -0.2527718111795298 -3.6651733213490463 a24.67387929361537,24.67387929361537 0 0,0 0.42396533578507717,-0.025574746853664822 l 0.1896444265548296 3.6689813375830176" fill="#ff2c04" stroke="none" /><path d="M 99.63851952072746 79.00311137660856 l -0.3223019720585463 -18.721173060386565 a39.72394721521444,39.72394721521444 0 0,0 0.6837824513310774,-0.005885531436430735 l 4.586044404903271e-15 18.723947215214437" fill="#fff216" stroke="none" /></svg>