<?xml version="1.0" encoding="utf-8" ?>
<svg baseProfile="full" height="200mm" version="1.1" viewBox="0,0,200,200" width="200mm" xmlns="http://www.w3.org/2000/svg" xmlns:ev="http://www.w3.org/2001/xml-events" xmlns:xlink="http://www.w3.org/1999/xlink"><defs /><rect fill="#1a1a1a" height="200" width="200" x="0" y="0" /><text alignment-baseline="middle" fill="#e1ed5e" style="dominant-baseline: central; font-size:9.0px; font-family:Arial;" text-anchor="middle" x="100.0" y="100.0">2021</text><line stroke="#e1ed5e" stroke-width="0.3" x1="100.0" x2="100.0" y1="15.0" y2="10.0" /><path d="M 100.0 14.0 a86.0,86.0 0 0,1 42.46469731375804,11.215312516191453" fill="none" id="id85" stroke="none" /><text fill="#e1ed5e" style="font-size:6.75px; font-family:Arial;" text-anchor="middle"><textPath startOffset="22.20632615414155" xlink:href="#id85">January</textPath></text><line stroke="#e1ed5e" stroke-width="0.3" x1="143.23703022742887" x2="145.7803849466894" y1="26.81831364943548" y2="22.513508569990506" /><path d="M 143.74570117128098 25.957352633546492 a86.0,86.0 0 0,1 28.547481713284135,27.462654790039103" fill="none" id="id86" stroke="none" /><text fill="#e1ed5e" style="font-size:6.75px; font-family:Arial;" text-anchor="middle"><textPath startOffset="19.985693538727396" xlink:href="#id86">February</textPath></text><line stroke="#e1ed5e" stroke-width="0.3" x1="172.23445277983987" x2="176.4835382374775" y1="55.19839476539836" y2="52.563006222186495" /><path d="M 173.08426987136738 54.67131705675599 a86.0,86.0 0 0,1 12.851231095245387,41.99856678651699" fill="none" id="id87" stroke="none" /><text fill="#e1ed5e" style="font-size:6.75px; font-family:Arial;" text-anchor="middle"><textPath startOffset="22.20632615414155" xlink:href="#id87">March</textPath></text><line stroke="#e1ed5e" stroke-width="0.3" x1="184.98032266829074" x2="189.97916517819016" y1="98.17113171792111" y2="98.06355123074" /><path d="M 185.9800911702706 98.14961562048488 a86.0,86.0 0 0,1 -9.607161424134198,41.387399972396054" fill="none" id="id88" stroke="none" /><text fill="#e1ed5e" style="font-size:6.75px; font-family:Arial;" text-anchor="middle"><textPath startOffset="21.466115282336823" xlink:href="#id88">April</textPath></text><line stroke="#e1ed5e" stroke-width="0.3" x1="174.80103733775053" x2="179.2010983576182" y1="140.37084112569926" y2="142.7455964860345" /><path d="M 175.68104954172406 140.8457921977663 a86.0,86.0 0 0,1 -30.038265399797805,32.042727171017184" fill="none" id="id89" stroke="none" /><text fill="#e1ed5e" style="font-size:6.75px; font-family:Arial;" text-anchor="middle"><textPath startOffset="22.206326154141568" xlink:href="#id89">May</textPath></text><line stroke="#e1ed5e" stroke-width="0.3" x1="143.8653032363475" x2="146.44561519142675" y1="172.8068346515853" y2="177.08958963109032" /><path d="M 144.38136562736335 173.6633856474863 a86.0,86.0 0 0,1 -40.68145358897372,12.25698825130547" fill="none" id="id90" stroke="none" /><text fill="#e1ed5e" style="font-size:6.75px; font-family:Arial;" text-anchor="middle"><textPath startOffset="21.466115282336833" xlink:href="#id90">June</textPath></text><line stroke="#e1ed5e" stroke-width="0.3" x1="102.19456741930631" x2="102.32365962044197" y1="184.97166512339345" y2="189.96999836594603" /><path d="M 102.22038585953345 185.97133177190398 a86.0,86.0 0 0,1 -42.740103519485714,-10.115201625700543" fill="none" id="id91" stroke="none" /><text fill="#e1ed5e" style="font-size:6.75px; font-family:Arial;" text-anchor="middle"><textPath startOffset="22.20632615414155" xlink:href="#id91">July</textPath></text><line stroke="#e1ed5e" stroke-width="0.3" x1="58.666819895761336" x2="56.23545636021788" y1="174.27360380694188" y2="178.64263932499728" /><path d="M 58.180547188652646 175.14741091055294 a86.0,86.0 0 0,1 -31.652253787137756,-30.449443065178592" fill="none" id="id92" stroke="none" /><text fill="#e1ed5e" style="font-size:6.75px; font-family:Arial;" text-anchor="middle"><textPath startOffset="22.20632615414155" xlink:href="#id92">August</textPath></text><line stroke="#e1ed5e" stroke-width="0.3" x1="26.63291911575756" x2="22.317208475507996" y1="142.92168965132927" y2="145.44649492493687" /><path d="M 25.769776987707644 143.4266507060508 a86.0,86.0 0 0,1 -11.730757126820373,-40.83630448921669" fill="none" id="id93" stroke="none" /><text fill="#e1ed5e" style="font-size:6.75px; font-family:Arial;" text-anchor="middle"><textPath startOffset="21.46611528233685" xlink:href="#id93">September</textPath></text><line stroke="#e1ed5e" stroke-width="0.3" x1="15.007084014347285" x2="10.007500721073583" y1="101.09737516637583" y2="101.16192664675087" /><path d="M 14.007167355692545 101.11028546245083 a86.0,86.0 0 0,1 10.666146001902534,-42.60595125391555" fill="none" id="id94" stroke="none" /><text fill="#e1ed5e" style="font-size:6.75px; font-family:Arial;" text-anchor="middle"><textPath startOffset="22.20632615414155" xlink:href="#id94">October</textPath></text><path d="M 80.02781315780177 93.51064311812611 l -14.497284289032512 -4.710453207394526 a36.24334678396061,36.24334678396061 0 0,0 0.19789334404843112,-0.5916759103645453 l 14.41405365121231 4.959302220681393" fill="#ff920d" stroke="none" /><path d="M 80.38941819471856 92.48833698450439 l -21.7083045939346 -8.315177508066387 a44.246347354664024,44.246347354664024 0 0,0 0.2785548816410361,-0.7088917903430675 l 21.56195616241187 8.687618303305218" fill="#ffff18" stroke="none" /><path d="M 80.52162464483688 92.15188598940014 l -34.40875345478601 -13.863775348399463 a58.096719278436694,58.096719278436694 0 0,0 0.3817184439754552,-0.9243614897219549 l 34.16501332392435 14.454011408574729" fill="#58ff2a" stroke="none" /><path d="M 80.65960295795067 91.81776055985345 l -11.576805844381393 -4.89773799187627 a33.57021364160416,33.57021364160416 0 0,0 0.22973102727926514,-0.5302508848252722 l 11.49078410725945 5.096288021288141" fill="#ff6b09" stroke="none" /><path d="M 80.95270993114464 91.15688171328213 l -14.792932139740483 -6.86794017659316 a37.3094893715355,37.3094893715355 0 0,0 0.2754538390002304,-0.5801760344216129 l 14.672520106898501 7.121558626655304" fill="#ffa10e" stroke="none" /><path d="M 81.10775173730289 90.83032412892265 l -38.715447244807734 -18.791204598959638 a64.03481411189611,64.03481411189611 0 0,0 0.48983579568883867,-0.9874790739232829 l 38.38625143616548 19.454843261381882" fill="#32ff4b" stroke="none" /><path d="M 81.43458229118936 90.18545643968196 l -16.82347327396297 -8.893670687775426 a40.029625096210964,40.029625096210964 0 0,0 0.3272744009685916,-0.6063897606274479 l 16.667890773775905 9.181941431735346" fill="#ffc712" stroke="none" /><path d="M 81.6062741919709 89.86733742301443 l -4.870913001155935 -2.683269197207504 a26.561090455073764,26.561090455073764 0 0,0 0.2240521053836606,-0.3985636950717876 l 4.824003254479844 2.766716402214076" fill="#ff0000" stroke="none" /><line stroke="#e1ed5e" stroke-width="0.3" x1="26.266209847984243" x2="21.928928074336255" y1="57.711370442889674" y2="55.22380399835377" /><path d="M 25.398753493254645 57.213857153982495 a86.0,86.0 0 0,1 29.58750427330803,-30.492523968695096" fill="none" id="id95" stroke="none" /><text fill="#e1ed5e" style="font-size:6.75px; font-family:Arial;" text-anchor="middle"><textPath startOffset="21.46611528233685" xlink:href="#id95">November</textPath></text><path d="M 81.78341655067845 89.55222093294921 l -10.183086840115672 -5.840318071832689 a32.739019242403195,32.739019242403195 0 0,0 0.2845805347633643,-0.48644038204628043 l 10.081046630881985 6.014737866232862" fill="#ff5f08" stroke="none" /><path d="M 82.15384107792192 88.93136811851018 l -20.29444171642138 -12.587117798302204 a44.880952641164896,44.880952641164896 0 0,0 0.4128457859269016,-0.6530228882064203 l 20.074768334248517 12.93458833422284" fill="#f6ff19" stroke="none" /><path d="M 82.7489923806493 88.02491185347247 l -51.75302285805211 -35.92526443958256 a84.0,84.0 0 0,0 0.834749520784487,-1.1806939986728553 l 51.12696071746375 36.810784938587204" fill="#4dd2ff" stroke="none" /><path d="M 82.95767976084542 87.72973835380427 l -14.42996999591404 -10.389401496506714 a38.780992591489245,38.780992591489245 0 0,0 0.39471181145871664,-0.5383864672436343 l 14.248995571941691 10.636250407421851" fill="#ffb610" stroke="none" /><path d="M 83.17141714833178 87.43820079747577 l -9.60174246273672 -7.167279733200624 a32.98179273292064,32.98179273292064 0 0,0 0.34351960024911365,-0.4520315270129123 l 9.476946922263497 7.331496036094561" fill="#ff6209" stroke="none" /><path d="M 83.6137871275137 86.86637796730984 l -18.371482989389406 -14.724824804868224 a44.544253072957886,44.544253072957886 0 0,0 0.48468709507150776,-0.5941690685104445 l 18.115297402241506 15.03887804298675" fill="#fbff18" stroke="none" /><path d="M 84.31358615837235 86.03803664274999 l -13.189911186733504 -11.739908084399152 a38.65783675720382,38.65783675720382 0 0,0 0.44669380615058646,-0.4932504575848223 l 12.985873739966873 11.965211329253531" fill="#ffb410" stroke="none" /><path d="M 84.5562425177563 85.77008943001954 l -40.14469467304278 -36.98940595987503 a75.58766036071034,75.58766036071034 0 0,0 0.8898923665221836,-0.949275130654954 l 39.502034984550136 37.674950507408035" fill="#42ffd5" stroke="none" /><path d="M 85.05521093208273 85.24692304244772 l -8.371304603858432 -8.263917308874182 a32.76312331221992,32.76312331221992 0 0,0 0.39965425082354217,-0.39793800846080324 l 8.227814552867574 8.406791167985098" fill="#ff5f08" stroke="none" /><path d="M 85.31137513191541 84.99185889309783 l -8.192857395187854 -8.37107360014841 a32.713145842043716,32.713145842043716 0 0,0 0.4058248879048967,-0.3904032206298764 l 8.047549263670529 8.510859907540596" fill="#ff5e08" stroke="none" /><path d="M 85.57189188830299 84.74124197986013 l -8.036931732552627 -8.499631107697597 a32.697692107448034,32.697692107448034 0 0,0 0.4122900518169236,-0.3831786701707657 l 7.889433796940847 8.636714363943012" fill="#ff5e08" stroke="none" /><path d="M 86.37877921826538 84.01681056812374 l -26.892722765867525 -31.556017569451235 a62.460834321143665,62.460834321143665 0 0,0 0.8243118793976518,-0.690337493054966 l 26.345553349510762 32.01425621990001" fill="#30ff37" stroke="none" /><path d="M 86.65592168130627 83.78471172551755 l -6.640364960638059 -8.069154685166664 a31.450153307182475,31.450153307182475 0 0,0 0.4209776766321157,-0.3404013374681298 l 6.500483885441443 8.182262119898931" fill="#ff4b07" stroke="none" /><path d="M 87.22198572758235 83.33499621200491 l -7.160555231255476 -9.338749942595165 a32.76799905294784,32.76799905294784 0 0,0 0.45056598858000596,-0.33935696138590626 l 6.998743088917079 9.460623493486924" fill="#ff5f08" stroke="none" /><path d="M 87.51073957382395 83.11751280151077 l -6.829645242432717 -9.232043727259851 a32.483670385356845,32.483670385356845 0 0,0 0.4523810260103603,-0.3286740542592271 l 6.669718900068575 9.348237016335746" fill="#ff5b08" stroke="none" /><path d="M 88.09926311788651 82.69761687909137 l -8.266087219631341 -12.017995978036275 a35.58630951442649,35.58630951442649 0 0,0 0.5076900606627655,-0.342794595239102 l 8.057992464562037 12.158502485574042" fill="#ff880c" stroke="none" /><path d="M 88.39885842347998 82.49532879139004 l -21.166849343408305 -31.938127453633566 a59.315525526489736,59.315525526489736 0 0,0 0.8559314341647725,-0.5567216140625567 l 20.613950883459246 32.29774799185566" fill="#4bff2c" stroke="none" /><line stroke="#e1ed5e" stroke-width="0.3" x1="56.76296977257108" x2="54.21961505331056" y1="26.818313649435495" y2="22.513508569990535" /><path d="M 56.25429882871898 25.957352633546506 a86.0,86.0 0 0,1 42.26535254187918,-11.944610805530505" fill="none" id="id96" stroke="none" /><text fill="#e1ed5e" style="font-size:6.75px; font-family:Arial;" text-anchor="middle"><textPath startOffset="22.20632615414155" xlink:href="#id96">December</textPath></text><path d="M 90.26544431104013 81.39251694778311 l -7.853085909248227 -15.01107679004434 a37.94117424190664,37.94117424190664 0 0,0 0.581294042900038,-0.297761386356517 l 7.593531378759425 15.144030701713362" fill="#ffaa0f" stroke="none" /><path d="M 92.23578459929587 80.48803036053334 l -4.345136345159057 -10.919605403837425 a32.752361125898815,32.752361125898815 0 0,0 0.5256236707351437,-0.20393381819155917 l 4.156529509424236 10.992781925919534" fill="#ff5f08" stroke="none" /><path d="M 92.57280143429618 80.3572730644239 l -4.8881005243594755 -12.927569255655271 a34.82083838252972,34.82083838252972 0 0,0 0.562468752893858,-0.2071619885598784 l 4.664849445693049 13.009794512021472" fill="#ff7d0b" stroke="none" /><path d="M 93.59665428221793 80.00007090966166 l -3.526900125506418 -11.015765121497434 a32.56659438673703,32.56659438673703 0 0,0 0.5353554639665856,-0.1663375486312821 l 3.3367592888291036 11.074842805011242" fill="#ff5c08" stroke="none" /><path d="M 93.94186890950719 79.89281104454417 l -3.9837620609770634 -13.22227190483689 a34.80937487665243,34.80937487665243 0 0,0 0.5751996951014746,-0.1679165640143025 l 3.7555721481521673 13.288886797769893" fill="#ff7d0b" stroke="none" /><path d="M 94.63758080256005 79.69619591428918 l -2.934907290512513 -11.112481222046004 a32.49351642075777,32.49351642075777 0 0,0 0.5420090465504505,-0.13817017430054826 l 2.743189355277063 11.161354392515415" fill="#ff5b08" stroke="none" /><path d="M 94.98787191387505 79.60689891045804 l -2.6859444321978274 -10.928439055325684 a32.25366952059737,32.25366952059737 0 0,0 0.5402893783754589,-0.12786903981176787 l 2.4974313668598342 10.973054007278323" fill="#ff5708" stroke="none" /><path d="M 96.40284397218896 79.31037775812273 l -4.891706604812041 -28.1354383822057 a49.55751541129682,49.55751541129682 0 0,0 0.8417008744538879,-0.13888785625627836 l 4.406676524219267 28.215472501401603" fill="#bbff1f" stroke="none" /><path d="M 97.47563105711357 79.15227682838746 l -3.307924392071752 -27.318784836452206 a48.518327869331635,48.518327869331635 0 0,0 0.8299713743188726,-0.09325695445935524 l 2.8371863142431613 27.371677744382158" fill="#c8ff1d" stroke="none" /><path d="M 97.83486435360386 79.11191278185805 l -6.099197224536629 -58.84183921632248 a80.15709804531778,80.15709804531778 0 0,0 1.3736440700892476,-0.13044405614009624 l 5.085428027357144 58.93810881697775" fill="#48f9ff" stroke="none" /><path d="M 98.91598698831166 79.02799685794201 l -2.441625829354423 -47.23724163162811 a68.30030162330247,68.30030162330247 0 0,0 1.1746323848490485,-0.05058214139646398 l 1.6281526121160506 47.272271499548765" fill="#38ff80" stroke="none" /><path d="M 99.27714615592234 79.0124445844662 l -0.8833049625445605 -25.64614133563111 a46.66134823161134,46.66134823161134 0 0,0 0.8029604008000415,-0.020738098188731808 l 0.4417179265496399 25.657546225962204" fill="#dfff1b" stroke="none" /></svg>