<?xml version="1.0" encoding="utf-8" ?>
<svg baseProfile="full" height="200mm" version="1.1" viewBox="0,0,200,200" width="200mm" xmlns="http://www.w3.org/2000/svg" xmlns:ev="http://www.w3.org/2001/xml-events" xmlns:xlink="http://www.w3.org/1999/xlink"><defs /><rect fill="#1a1a1a" height="200" width="200" x="0" y="0" /><text alignment-baseline="middle" fill="#e1ed5e" style="dominant-baseline: central; font-size:9.0px; font-family:Arial;" text-anchor="middle" x="100.0" y="100.0">2019</text><line stroke="#e1ed5e" stroke-width="0.3" x1="100.0" x2="100.0" y1="15.0" y2="10.0" /><path d="M 100.0 14.0 a86.0,86.0 0 0,1 42.46469731375804,11.215312516191453" fill="none" id="id61" stroke="none" /><text fill="#e1ed5e" style="font-size:6.75px; font-family:Arial;" text-anchor="middle"><textPath startOffset="22.20632615414155" xlink:href="#id61">January</textPath></text><path d="M 100.0 79.0 l 0.0 -9.050795336046654 a30.050795336046654,30.050795336046654 0 0,0 0.5172750428854669,0.004452349603674548 l -0.15579456361293853 9.049454363051538" fill="#ff6008" stroke="none" /><path d="M 101.80526077348638 79.07773832637324 l 5.415782320459128 -62.76678502088029 a84.0,84.0 0 0,0 1.4394994916390231,0.13669782193928715 l -6.4954069391883955 62.66426165442583" fill="#4dd2ff" stroke="none" /><path d="M 102.52436894288641 79.15227682838746 l 0.3565288237731891 -2.944424681530614 a23.965931473818596,23.965931473818596 0 0,0 0.4091158786168674,0.053114982748805245 l -0.40715943089790263 2.937851375617672" fill="#ff0701" stroke="none" /><path d="M 103.2404852339499 79.25152402106235 l 1.125011741586252 -7.203328332366044 a28.29065089567278,28.29065089567278 0 0,0 0.48049756732416915,0.07928621567051418 l -1.2488385150492962 7.182895853755905" fill="#ff4706" stroke="none" /><path d="M 103.59715602781102 79.31037775812273 l 0.4234523166957892 -2.435554199525511 a23.47209144720445,23.47209144720445 0 0,0 0.39746620174022734,0.07263440782800133 l -0.4653136395389174 2.4279043103467712" fill="#ff0000" stroke="none" /><path d="M 105.36241919743992 79.69619591428918 l 1.8510860016620863 -7.0087932591118225 a28.249117348651534,28.249117348651534 0 0,0 0.4690727070019942,0.12821529014780658 l -1.9714565978877914 6.975891428137722" fill="#ff4606" stroke="none" /><path d="M 107.08798089147638 80.2323363322302 l 1.9887550781963892 -5.54643728662293 a26.892207848972493,26.892207848972493 0 0,0 0.4343958191128054,0.15999164619636805 l -2.083933223081771 5.511382372620237" fill="#ff3204" stroke="none" /><path d="M 110.36928655335952 81.73862282372117 l 5.569190646914159 -9.807915949333454 a32.2787898167696,32.2787898167696 0 0,0 0.4808052822262104,0.27851345329900273 l -5.737192661605698 9.7105983386444" fill="#ff7f0b" stroke="none" /><line stroke="#e1ed5e" stroke-width="0.3" x1="143.23703022742887" x2="145.7803849466894" y1="26.81831364943548" y2="22.513508569990506" /><path d="M 143.74570117128098 25.957352633546492 a86.0,86.0 0 0,1 28.547481713284135,27.462654790039103" fill="none" id="id62" stroke="none" /><text fill="#e1ed5e" style="font-size:6.75px; font-family:Arial;" text-anchor="middle"><textPath startOffset="19.985693538727396" xlink:href="#id62">February</textPath></text><path d="M 110.99172775467656 82.1063720568725 l 8.169606582747697 -13.299446992873065 a36.60825941715203,36.60825941715203 0 0,0 0.5340985500191959,0.33445246302372533 l -8.397324285139156 13.156850188526397" fill="#ffb911" stroke="none" /><path d="M 111.2981086023043 82.29822771554956 l 2.3864020653425957 -3.738992731156887 a25.43564893348374,25.43564893348374 0 0,0 0.3670400165438324,0.23873303664239043 l -2.4504091076707084 3.6973607703549685" fill="#ff1d02" stroke="none" /><path d="M 112.19680574252982 82.90503203632743 l 5.514012315435036 -7.728405770616667 a30.49381838724916,30.49381838724916 0 0,0 0.4246695242670464,0.30854046972781196 l -5.64622715605587 7.63234606607218" fill="#ff6609" stroke="none" /><path d="M 115.19652480421416 85.50635884689758 l 13.914295969768308 -13.270719146785195 a40.2280945235653,40.2280945235653 0 0,0 0.4736047400517335,0.5052085155516479 l -14.140668031790502 13.029241214355492" fill="#ffe815" stroke="none" /><path d="M 116.82858285166822 87.43820079747576 l 10.17737253473114 -7.596962341835247 a33.70010820953753,33.70010820953753 0 0,0 0.34299871841498303,0.4678498664483241 l -10.30663386565975 7.420650031715429" fill="#ff920d" stroke="none" /><line stroke="#e1ed5e" stroke-width="0.3" x1="172.23445277983987" x2="176.4835382374775" y1="55.19839476539836" y2="52.563006222186495" /><path d="M 173.08426987136738 54.67131705675599 a86.0,86.0 0 0,1 12.851231095245387,41.99856678651699" fill="none" id="id63" stroke="none" /><text fill="#e1ed5e" style="font-size:6.75px; font-family:Arial;" text-anchor="middle"><textPath startOffset="22.20632615414155" xlink:href="#id63">March</textPath></text><path d="M 118.3937258080291 89.86733742301442 l 9.08910382915989 -5.006969397568348 a31.376972148244157,31.376972148244157 0 0,0 0.25653199947149186,0.47531483456210766 l -9.173943927849848 4.849773579673782" fill="#ff720a" stroke="none" /><path d="M 119.196687751892 91.48605970444005 l 28.072265238343658 -12.450355670176725 a51.70933786205459,51.70933786205459 0 0,0 0.35386248755527894,0.8167634096049464 l -28.28241843574162 11.965293115985176" fill="#8eff24" stroke="none" /><path d="M 120.18372546131832 94.20196356495316 l 11.284475444766002 -3.241611659083242 a32.74084461237058,32.74084461237058 0 0,0 0.15094032863373752,0.5430126711907229 l -11.338602543966102 3.046887684473567" fill="#ff850c" stroke="none" /><path d="M 120.28053869075195 94.5502522615342 l 9.264849078968911 -2.4896326022327004 a30.593523802554046,30.593523802554046 0 0,0 0.13228591344214824,0.5097515873128565 l -9.306331324281361 2.3297845893709934" fill="#ff6709" stroke="none" /><path d="M 120.37134235888165 94.90015583598534 l 9.283484772443641 -2.3240650912640533 a30.569972208351764,30.569972208351764 0 0,0 0.12339671143840727,0.5115590334179204 l -9.322114284142868 2.1639208261867267" fill="#ff6709" stroke="none" /><path d="M 120.45610955862082 95.25157060432595 l 7.323325227531473 -1.699946545790613 a28.51803901604297,28.51803901604297 0 0,0 0.10688236867892718,0.47913270126122987 l -7.3515019832124375 1.5736356749794194" fill="#ff4a06" stroke="none" /><path d="M 120.67395015179393 96.31383870115 l 12.262933254908637 -2.186478618876924 a33.456332556782115,33.456332556782115 0 0,0 0.09620788778402044,0.5678243997175555 l -12.29875300421288 1.975068430843531" fill="#ff8f0d" stroke="none" /><path d="M 120.73433829027371 96.67025291283417 l 8.249098962198767 -1.3247306403797185 a29.354791736345653,29.354791736345653 0 0,0 0.07582497385778536,0.49959183914835753 l -8.270679829495851 1.1825396888392787" fill="#ff5607" stroke="none" /><path d="M 120.83666639777658 97.38593545837742 l 11.601005150821752 -1.455404412251856 a32.69194263211187,32.69194263211187 0 0,0 0.06524322739708241,0.5589641289706887 l -11.624338731222423 1.2554965449563145" fill="#ff840c" stroke="none" /><path d="M 120.91429891909075 98.10471618934814 l 7.2846289114644165 -0.6601435360523791 a28.31447932979067,28.31447932979067 0 0,0 0.03980950559972933,0.4857768020967563 l -7.294912900883641 0.534652816747854" fill="#ff4706" stroke="none" /><path d="M 120.98425023603335 99.18683210126433 l 14.678683208918079 -0.5688187019761137 a35.689700319049784,35.689700319049784 0 0,0 0.018504779136203617,0.6140835311775343 l -14.686299682509928 0.3160650233735803" fill="#ffad10" stroke="none" /><line stroke="#e1ed5e" stroke-width="0.3" x1="184.98032266829074" x2="189.97916517819016" y1="98.17113171792111" y2="98.06355123074" /><path d="M 185.9800911702706 98.14961562048488 a86.0,86.0 0 0,1 -9.607161424134198,41.387399972396054" fill="none" id="id64" stroke="none" /><text fill="#e1ed5e" style="font-size:6.75px; font-family:Arial;" text-anchor="middle"><textPath startOffset="21.466115282336823" xlink:href="#id64">April</textPath></text><path d="M 120.99824983174949 100.27111621757518 l 14.754025825200646 0.19049471778771243 a35.75525554804771,35.75525554804771 0 0,0 -0.013242958873059736,0.615348261623402 l -14.74856080364258 -0.4444327952012292" fill="#ffae10" stroke="none" /><path d="M 120.9764740272857 100.99374915477107 l 11.087943686480715 0.5252853578850567 a32.10037926837529,32.10037926837529 0 0,0 -0.030898371567055574,0.5517111806817454 l -11.07725896402613 -0.7160682549022255" fill="#ff7c0b" stroke="none" /><path d="M 120.95626037817324 101.35467743843564 l 12.081812480459206 0.7810056988858117 a33.107029475254116,33.107029475254116 0 0,0 -0.04165722148273431,0.5683796903153497 l -12.066578700312133 -0.9888585256979318" fill="#ff8a0c" stroke="none" /><path d="M 120.92983693683757 101.71520430193887 l 7.2202271484236755 0.5916990516135057 a28.244431505819804,28.244431505819804 0 0,0 -0.043880284800088765,0.48421528628382154 l -7.208972267346511 -0.7158957264458977" fill="#ff4606" stroke="none" /><path d="M 120.81339534386255 102.79330883721812 l 10.44849137411742 1.4022634370189748 a31.542168407960784,31.542168407960784 0 0,0 -0.0768516656946424,0.5375003708735834 l -10.422805657406176 -1.5819092798729675" fill="#ff740a" stroke="none" /><path d="M 120.70491114924044 103.5080841355445 l 8.673046297004054 1.4694956139659197 a29.79665558206304,29.79665558206304 0 0,0 -0.09003351443217959,0.5049557625007913 l -8.646466340232687 -1.6185701271999293" fill="#ff5c08" stroke="none" /><path d="M 120.5718875245553 104.21870165774334 l 8.425596454573252 1.7278471743517343 a29.600937825216075,29.600937825216075 0 0,0 -0.1066563531049032,0.49826297397786107 l -8.394606062743906 -1.8726239677457643" fill="#ff5908" stroke="none" /><path d="M 120.41448212921028 104.9243191809786 l 7.084489998964153 1.708899092739307 a28.287683764721706,28.287683764721706 0 0,0 -0.11825421806389826,0.4723668182961031 l -7.054024466605194 -1.830593750432806" fill="#ff4706" stroke="none" /><path d="M 120.32669344350535 105.2749913415812 l 7.1136752671796435 1.8460737623404557 a28.34931045356537,28.34931045356537 0 0,0 -0.12664301657300625,0.47128577702670865 l -7.080844174264859 -1.9682504725427126" fill="#ff4706" stroke="none" /><path d="M 120.02730092923936 106.31721596034902 l 7.097046547396347 2.238622961674092 a28.4417405531532,28.4417405531532 0 0,0 -0.15129346735107935,0.4656334137485819 l -7.05746082902902 -2.360455275400469" fill="#ff4906" stroke="none" /><path d="M 119.79798401119884 107.00284435728193 l 8.858473819386505 3.133375265134586 a30.39630773021581,30.39630773021581 0 0,0 -0.17872412189052078,0.4917720244866851 l -8.803225436490758 -3.285395086627402" fill="#ff6409" stroke="none" /><path d="M 119.54520255179757 107.68017299344265 l 6.3359750263706305 2.489684317964943 a27.807577214979855,27.807577214979855 0 0,0 -0.17889195169426084,0.4439951532829772 l -6.292180460418977 -2.598378839090733" fill="#ff4006" stroke="none" /><path d="M 119.41010516605496 108.01547362559984 l 6.787625799154525 2.802974796278342 a28.343604816295585,28.343604816295585 0 0,0 -0.19010328227848478,0.4493480037045724 l -6.738371535683731 -2.919397325649078" fill="#ff4706" stroke="none" /><path d="M 119.12269723197855 108.67885076344098 l 15.285118373276907 6.9371626635054255 a37.78568048978119,37.78568048978119 0 0,0 -0.2739018900249834,0.5899603036577648 l -15.163441866412093 -7.199243034442021" fill="#ffc812" stroke="none" /><path d="M 118.64920377521936 109.65438752849418 l 9.211834650927306 4.768816011686112 a31.37301806560361,31.37301806560361 0 0,0 -0.25239965293327843,0.47744502405706496 l -9.128382489769136 -4.926676050829311" fill="#ff720a" stroke="none" /><line stroke="#e1ed5e" stroke-width="0.3" x1="174.80103733775053" x2="179.2010983576182" y1="140.37084112569926" y2="142.7455964860345" /><path d="M 175.68104954172406 140.8457921977663 a86.0,86.0 0 0,1 -30.038265399797805,32.042727171017184" fill="none" id="id65" stroke="none" /><text fill="#e1ed5e" style="font-size:6.75px; font-family:Arial;" text-anchor="middle"><textPath startOffset="22.206326154141568" xlink:href="#id65">May</textPath></text><path d="M 118.12598468904814 110.60418214915192 l 9.034739203137967 5.285562236960594 a31.467267104144327,31.467267104144327 0 0,0 -0.2775399836761711,0.4651729767112972 l -8.942418343763569 -5.440297307557995" fill="#ff730a" stroke="none" /><path d="M 117.94076556474637 110.91462005526583 l 39.786330708192494 24.204802270332518 a67.57064058146028,67.57064058146028 0 0,0 -0.6130760167169097,0.9884737466011012 l -39.36379005180762 -24.886072348298892" fill="#38ff82" stroke="none" /><path d="M 116.93607887273984 112.41649034213515 l 6.090257907963915 4.46500214503977 a28.551654490290638,28.551654490290638 0 0,0 -0.2939987428923731,0.39385936069224914 l -6.012497898376449 -4.569174385241334" fill="#ff4a06" stroke="none" /><path d="M 116.498646956653 112.99209946851258 l 7.281613760213156 5.73401264434177 a30.2682684444505,30.2682684444505 0 0,0 -0.3258625394478832,0.4065636216172017 l -7.181833308710418 -5.858504099537222" fill="#ff6309" stroke="none" /><path d="M 116.0416608686014 113.55231037782055 l 5.573141008822253 4.708299056412115 a28.295750866691346,28.295750866691346 0 0,0 -0.31752883995499737,0.36935777661810193 l -5.491269659296476 -4.803533932191745" fill="#ff4706" stroke="none" /><path d="M 115.56566222782051 114.09645910891815 l 5.521199974653762 5.000068004544147 a28.448780384075153,28.448780384075153 0 0,0 -0.33183956872476444,0.3601463127399419 l -5.434313997933276 -5.094365572085423" fill="#ff4906" stroke="none" /><path d="M 115.32070863581623 114.36230785411682 l 6.202949752304152 5.814918621841121 a29.502344630056157,29.502344630056157 0 0,0 -0.3505067478170952,0.3675049237787132 l -6.101936453108092 -5.920830662202341" fill="#ff5808" stroke="none" /><path d="M 115.07121518719521 114.62390073753431 l 5.304715389087749 5.147271160775393 a28.391509031434275,28.391509031434275 0 0,0 -0.3433471374930078,0.3478088375509657 l -5.215327626539206 -5.237820492307023" fill="#ff4806" stroke="none" /><path d="M 114.29624159901734 115.38237550388516 l 4.963345214381496 5.3404273643693445 a28.290744828289398,28.290744828289398 0 0,0 -0.35956250193278233,0.32845182037096066 l -4.87068316298185 -5.425071951326888" fill="#ff4706" stroke="none" /><path d="M 112.92097659922987 116.55440617244103 l 5.554654898993353 7.116645761215608 a30.027781451582605,30.027781451582605 0 0,0 -0.4101956116921422,0.3145205034073313 l -5.4313305588077165 -7.21120560645031" fill="#ff5f08" stroke="none" /><path d="M 111.1453310114006 117.79835938074945 l 7.822469207101767 12.491967986453478 a35.73907353501684,35.73907353501684 0 0,0 -0.5242084773301876,0.32201166179494634 l -7.60628152983927 -12.624768115076803" fill="#ffad10" stroke="none" /><line stroke="#e1ed5e" stroke-width="0.3" x1="143.8653032363475" x2="146.44561519142675" y1="172.8068346515853" y2="177.08958963109032" /><path d="M 144.38136562736335 173.6633856474863 a86.0,86.0 0 0,1 -40.68145358897372,12.25698825130547" fill="none" id="id66" stroke="none" /><text fill="#e1ed5e" style="font-size:6.75px; font-family:Arial;" text-anchor="middle"><textPath startOffset="21.466115282336833" xlink:href="#id66">June</textPath></text><path d="M 108.92500713936063 119.00905698771935 l 2.290836479875502 4.879171581101884 a26.390199170286813,26.390199170286813 0 0,0 -0.4128583345481577,0.18952301196848734 l -2.2065101495599246 -4.917881663404446" fill="#ff2b04" stroke="none" /><path d="M 105.53697534728816 120.25689768951611 l 2.3820233268216833 8.714577869504186 a30.03426270224498,30.03426270224498 0 0,0 -0.4998696122640382,0.13202010784313942 l -2.2316632717461475 -8.75428932665091" fill="#ff5f08" stroke="none" /><path d="M 104.48393922423573 120.51570834832081 l 3.1737773582835676 14.521225063247357 a35.86401157350991,35.86401157350991 0 0,0 -0.6042377867668293,0.12662390311094615 l -2.9233481100873604 -14.573704947084845" fill="#ffaf10" stroke="none" /><path d="M 103.7750983002368 120.6578951692458 l 1.43118011778371 7.831628871658822 a28.961324469768797,28.961324469768797 0 0,0 -0.4911716903542783,0.08539649424202148 l -1.296159455957382 -7.855103944421849" fill="#ff5007" stroke="none" /><line stroke="#e1ed5e" stroke-width="0.3" x1="102.19456741930631" x2="102.32365962044197" y1="184.97166512339345" y2="189.96999836594603" /><path d="M 102.22038585953345 185.97133177190398 a86.0,86.0 0 0,1 -42.740103519485714,-10.115201625700543" fill="none" id="id67" stroke="none" /><text fill="#e1ed5e" style="font-size:6.75px; font-family:Arial;" text-anchor="middle"><textPath startOffset="22.20632615414155" xlink:href="#id67">July</textPath></text><path d="M 100.54218724476979 120.99299961872073 l 0.2609960757692955 10.105531939318816 a31.108901756776532,31.108901756776532 0 0,0 -0.5354290999079923,0.00921789752390152 l -0.08700728596863533 -10.108527314121877" fill="#ff6e0a" stroke="none" /><path d="M 100.18074693466247 120.99922214144158 l 0.09083915388756794 10.553714646325307 a31.554105579723007,31.554105579723007 0 0,0 -0.5431721771000395,0.0 l 0.09083915388756068 -10.553714646325307" fill="#ff750a" stroke="none" /><path d="M 99.81925306533755 120.99922214144158 l -0.07648515500069408 8.88606361917934 a29.886392779021087,29.886392779021087 0 0,0 -0.5143879559066148,-0.008855655148162733 l 0.22943280079997683 -8.883430486752017" fill="#ff5d08" stroke="none" /><path d="M 99.45781275523022 120.99299961872073 l -0.25305384177424084 9.798015824105475 a30.80128309642457,30.80128309642457 0 0,0 -0.5298988916688586,-0.018250789252560053 l 0.42167308511774243 -9.792208236426822" fill="#ff6a09" stroke="none" /><path d="M 98.37488393609728 120.93702456842531 l -1.0092562041337954 13.002654032622912 a34.0417640669377,34.0417640669377 0 0,0 -0.5838254648956867,-0.05037491772063891 l 1.2329259867710238 -12.98335486262361" fill="#ff970d" stroke="none" /><path d="M 97.2962882734958 120.8252237178851 l -1.1540128929059892 8.888734857530201 a29.963333817529374,29.963333817529374 0 0,0 -0.5109053882277148,-0.07080683142785812 l 1.306846872320535 -8.867553460609738" fill="#ff5e08" stroke="none" /><path d="M 96.93821686468263 120.77559828337769 l -1.293974069856561 8.780205611022385 a29.875042504984982,29.875042504984982 0 0,0 -0.5081092264738954,-0.07935621138120112 l 1.4449191599389735 -8.756631092294077" fill="#ff5d08" stroke="none" /><path d="M 96.58105272829116 120.7198165907248 l -0.7701354477203598 4.667245195274972 a25.73035794846994,25.73035794846994 0 0,0 -0.436375878463804,-0.07586953996821838 l 0.8503602976562138 -4.653297076785747" fill="#ff2103" stroke="none" /><path d="M 96.22490169976321 120.6578951692458 l -2.426532835307221 13.278345873368414 a34.498241764527116,34.498241764527116 0 0,0 -0.5832377650829732,-0.1117789057957291 l 2.654738214961889 -13.234609769224216" fill="#ff9d0e" stroke="none" /><path d="M 95.86986931433489 120.58985236759428 l -1.464592196127056 7.3014002200103745 a28.446843322759236,28.446843322759236 0 0,0 -0.4792731458558406,-0.1004363475996059 l 1.5900568034122835 -7.275107891684227" fill="#ff4906" stroke="none" /><path d="M 95.16358092515715 120.4354850818985 l -3.48504735805974 14.725488464345638 a36.13226901695498,36.13226901695498 0 0,0 -0.6040054453893672,-0.14844984309723036 l 3.738006088192318 -14.663317362934377" fill="#ffb310" stroke="none" /><path d="M 94.46302465271185 120.25689768951611 l -2.1036294926072783 7.696080393289982 a28.978402751312423,28.978402751312423 0 0,0 -0.48003252929967116,-0.1356619876954208 l 2.2357931900115635 -7.65872961225604" fill="#ff5007" stroke="none" /><path d="M 93.76903079525671 120.05430185196036 l -5.970724032148853 19.21670579342882 a41.12290553124177,41.12290553124177 0 0,0 -0.6741780286784879,-0.21585051494240892 l 6.300623405918281 -19.111082431826706" fill="#fff316" stroke="none" /><path d="M 93.42475214034765 119.94407469862007 l -2.848802370532097 8.641001600584849 a30.098493480113024,30.098493480113024 0 0,0 -0.49064882434448853,-0.16645472055460211 l 2.9971209278138113 -8.590683893132123" fill="#ff6008" stroke="none" /><path d="M 93.08242187328487 119.8279376855182 l -4.5324767625476605 12.991492855250145 a34.75944156610471,34.75944156610471 0 0,0 -0.5632360975418788,-0.20195642559801602 l 4.7554324207192655 -12.911548888612172" fill="#ffa00e" stroke="none" /><path d="M 92.40401165467489 119.57807347666478 l -2.6476640924668855 6.824149773182021 a28.31977767923034,28.31977767923034 0 0,0 -0.4529531644587472,-0.18023941202608457 l 2.764738332967491 -6.777563516749869" fill="#ff4706" stroke="none" /><line stroke="#e1ed5e" stroke-width="0.3" x1="58.666819895761336" x2="56.23545636021788" y1="174.27360380694188" y2="178.64263932499728" /><path d="M 58.180547188652646 175.14741091055294 a86.0,86.0 0 0,1 -31.652253787137756,-30.449443065178592" fill="none" id="id68" stroke="none" /><text fill="#e1ed5e" style="font-size:6.75px; font-family:Arial;" text-anchor="middle"><textPath startOffset="22.20632615414155" xlink:href="#id68">August</textPath></text><path d="M 87.95078237400918 117.19931262002967 l -7.246349373599269 10.343595086344159 a33.629312671499804,33.629312671499804 0 0,0 -0.4712470334498826,-0.3362222459817282 l 7.423323734898038 -10.217328578518211" fill="#ff910d" stroke="none" /><path d="M 87.07902340077011 116.55440617244103 l -4.571355542840398 5.856838748499093 a28.429660263092657,28.429660263092657 0 0,0 -0.38318106295521137,-0.30442221092978633 l 4.671494098512968 -5.777282623564176" fill="#ff4906" stroke="none" /><path d="M 86.51685102203217 116.09983520530335 l -5.275259590000842 6.299033720015331 a29.216215037825265,29.216215037825265 0 0,0 -0.38278044765020414,-0.32621380173197395 l 5.382905514228103 -6.207295528060405" fill="#ff5407" stroke="none" /><path d="M 85.97065885151581 115.62618273729859 l -3.138028284117087 3.4952035796579928 a25.69719805577462,25.69719805577462 0 0,0 -0.3265997018345578,-0.2983410840216776 l 3.1977275354184993 -3.4406697290497394" fill="#ff2103" stroke="none" /><path d="M 85.70375840098266 115.38237550388516 l -6.013901496302749 6.470797965939826 a29.83392537455708,29.83392537455708 0 0,0 -0.3731572912073652,-0.35284351014031723 l 6.124394621900931 -6.366319819053579" fill="#ff5d08" stroke="none" /><path d="M 83.06392112726016 112.41649034213515 l -5.895787365342698 4.322428315971657 a28.310519489341928,28.310519489341928 0 0,0 -0.2847501811663435,-0.395493096685406 l 5.9693173388846485 -4.2203016138351135" fill="#ff4706" stroke="none" /><path d="M 82.6465618267979 111.8261652097733 l -5.34405736454199 3.6419126084867073 a27.46702996462595,27.46702996462595 0 0,0 -0.26289465364191583,-0.3929918371796522 l 5.4059551235946355 -3.549383857101234" fill="#ff3b05" stroke="none" /><path d="M 82.24976979558568 111.22182372390057 l -12.50331528043264 7.904686216772199 a35.79246285063879,35.79246285063879 0 0,0 -0.32474903840084596,-0.5235988522470825 l 12.637528958501441 -7.688291033159852" fill="#ffae10" stroke="none" /><line stroke="#e1ed5e" stroke-width="0.3" x1="26.63291911575756" x2="22.317208475507996" y1="142.92168965132927" y2="145.44649492493687" /><path d="M 25.769776987707644 143.4266507060508 a86.0,86.0 0 0,1 -11.730757126820373,-40.83630448921669" fill="none" id="id69" stroke="none" /><text fill="#e1ed5e" style="font-size:6.75px; font-family:Arial;" text-anchor="middle"><textPath startOffset="21.46611528233685" xlink:href="#id69">September</textPath></text><path d="M 81.87401531095188 110.60418214915194 l -13.789254002157913 8.06707959033831 a36.97564706210302,36.97564706210302 0 0,0 -0.316666491194926,-0.5521347192963384 l 13.926072489505215 -7.828525025183665" fill="#ffbe11" stroke="none" /><path d="M 81.69416730710424 110.29060199501025 l -6.511251174824312 3.6602920748676726 a28.469546835986108,28.469546835986108 0 0,0 -0.236464789543853,-0.42925227886319967 l 6.573292373819681 -3.5476692776066505" fill="#ff4906" stroke="none" /><path d="M 81.51974371655577 109.97397251340807 l -10.668382045968546 5.757828660869366 a33.12299329236277,33.12299329236277 0 0,0 -0.266478411277553,-0.5040767291258142 l 10.765912965470985 -5.573336916657426" fill="#ff8a0c" stroke="none" /><path d="M 81.35079622478065 109.6543875284942 l -8.644778384641524 4.47526026468643 a30.734482408235507,30.734482408235507 0 0,0 -0.23917476183735387,-0.4719144956206409 l 8.720531816265144 -4.325791557363104" fill="#ff6909" stroke="none" /><path d="M 81.02952815118164 109.00673069616217 l -6.681433859032071 3.1721865387480994 a28.396237276428796,28.396237276428796 0 0,0 -0.20583943331959856,-0.4433598270347588 l 6.735047909191497 -3.0567066444345135" fill="#ff4806" stroke="none" /><path d="M 80.58989483394504 108.01547362559985 l -10.908063829656166 4.504524688813895 a32.80155071098655,32.80155071098655 0 0,0 -0.211019226159905,-0.5237324137680984 l 10.983985670073459 -4.316092907202991" fill="#ff860c" stroke="none" /><path d="M 80.45479744820244 107.68017299344265 l -6.865136832381969 2.6976153537738243 a28.37612583435531,28.37612583435531 0 0,0 -0.17472359015983577,-0.45614815934548325 l 6.910554702135315 -2.5790436275951834" fill="#ff4806" stroke="none" /><path d="M 79.97269907076064 106.31721596034903 l -8.937712153066366 2.819224520660396 a30.371804811719194,30.371804811719194 0 0,0 -0.15297732474997042,-0.49993874849167885 l 8.984916250322467 -2.6649587996166693" fill="#ff6409" stroke="none" /><path d="M 79.67330655649465 105.27499134158121 l -9.463879042058972 2.455976430371349 a30.777362975223056,30.777362975223056 0 0,0 -0.12866210690755997,-0.5139411605796279 l 9.50475246326159 -2.292707430394329" fill="#ff6a09" stroke="none" /><path d="M 79.50377843672027 104.57218783832718 l -9.55843100518422 2.132243831403992 a30.793368523517707,30.793368523517707 0 0,0 -0.11095284905926266,-0.5183347726994666 l 9.593717892967923 -1.967395239288362" fill="#ff6a09" stroke="none" /><path d="M 79.4281124754447 104.21870165774334 l -14.673619170653767 3.009136689399127 a35.97898538556152,35.97898538556152 0 0,0 -0.11919335355909677,-0.6077643418833627 l 14.72324245718853 -2.7561086204478094" fill="#ffb110" stroke="none" /><path d="M 79.29508885075956 103.50808413554451 l -30.85775668202684 5.228305781871571 a52.29754509216216,52.29754509216216 0 0,0 -0.14274302551876303,-0.88886095616421 l 30.943181461906892 -4.6963655960141475" fill="#87ff25" stroke="none" /><path d="M 79.23777060512086 103.15116336523772 l -5.765145309540713 0.8749982648384342 a26.831168185157203,26.831168185157203 0 0,0 -0.06537343726318119,-0.45722166795780583 l 5.779352797820493 -0.7756311249002278" fill="#ff3204" stroke="none" /><path d="M 79.10278846688536 102.07522291339032 l -7.553721831024634 0.7501314996155646 a28.590876811489807,28.590876811489807 0 0,0 -0.04441851898891714,-0.49015465570721706 l 7.565514946290627 -0.6199954553597814" fill="#ff4b07" stroke="none" /><path d="M 79.07016306316243 101.71520430193888 l -7.3997500921861095 0.6064109925792844 a28.424556264096147,28.424556264096147 0 0,0 -0.035765456901744944,-0.4879912436364733 l 7.40909210775219 -0.4789466124460506" fill="#ff4806" stroke="none" /><path d="M 79.04373962182676 101.35467743843564 l -13.165680495747134 0.8510702772054178 a34.19315972513177,34.19315972513177 0 0,0 -0.032912787272876144,-0.5876799263171453 l 13.178379633907543 -0.624318634552835" fill="#ff990e" stroke="none" /><line stroke="#e1ed5e" stroke-width="0.3" x1="15.007084014347285" x2="10.007500721073583" y1="101.09737516637583" y2="101.16192664675087" /><path d="M 14.007167355692545 101.11028546245083 a86.0,86.0 0 0,1 10.666146001902534,-42.60595125391555" fill="none" id="id70" stroke="none" /><text fill="#e1ed5e" style="font-size:6.75px; font-family:Arial;" text-anchor="middle"><textPath startOffset="22.20632615414155" xlink:href="#id70">October</textPath></text><path d="M 79.00019446554 99.90962569577889 l -12.23079650823917 -0.052636188591764776 a33.23090976969027,33.23090976969027 0 0,0 0.007385162826999107,-0.5719889996860507 l 12.228078338294454 0.2631614463382874" fill="#ff8c0c" stroke="none" /><path d="M 79.21141760316559 97.0276538004421 l -7.313382062681504 -1.0456654987324414 a28.38775835622626,28.38775835622626 0 0,0 0.07332707568068934,-0.4831338111292415 l 7.294299093561513 1.1713984222537748" fill="#ff4806" stroke="none" /><path d="M 79.26566170972629 96.67025291283419 l -4.266550299194578 -0.6851693664925742 a25.32121609229823,25.32121609229823 0 0,0 0.07281433827895537,-0.42975434630576403 l 4.2541240993953995 0.7585095011141662" fill="#ff1b02" stroke="none" /><path d="M 79.3925641242962 95.95851677861259 l -35.66005770131942 -6.9935690079475865 a57.33936877176536,57.33936877176536 0 0,0 0.19828692057120825,-0.9669174448717189 l 35.534391484833215 7.606362108982708" fill="#51ff2b" stroke="none" /><path d="M 79.46518482838121 95.60439243477599 l -6.557038891675356 -1.4035758061047179 a27.705578578349947,27.705578578349947 0 0,0 0.10383735930820231,-0.46548252131861273 l 6.531907145365116 1.5162364969732898" fill="#ff3e05" stroke="none" /><line stroke="#e1ed5e" stroke-width="0.3" x1="26.266209847984243" x2="21.928928074336255" y1="57.711370442889674" y2="55.22380399835377" /><path d="M 25.398753493254645 57.213857153982495 a86.0,86.0 0 0,1 29.58750427330803,-30.492523968695096" fill="none" id="id71" stroke="none" /><text fill="#e1ed5e" style="font-size:6.75px; font-family:Arial;" text-anchor="middle"><textPath startOffset="21.46611528233685" xlink:href="#id71">November</textPath></text><path d="M 85.31137513191541 84.99185889309783 l -5.096064316944847 -5.206917124334644 a28.285729713771154,28.285729713771154 0 0,0 0.3509003122422495,-0.33756582235908733 l 5.00568076109017 5.293866033456045" fill="#ff4706" stroke="none" /><line stroke="#e1ed5e" stroke-width="0.3" x1="56.762969772571076" x2="54.21961505331055" y1="26.818313649435495" y2="22.513508569990535" /><path d="M 56.25429882871897 25.957352633546506 a86.0,86.0 0 0,1 42.265352541879196,-11.944610805530505" fill="none" id="id72" stroke="none" /><text fill="#e1ed5e" style="font-size:6.75px; font-family:Arial;" text-anchor="middle"><textPath startOffset="22.20632615414155" xlink:href="#id72">December</textPath></text></svg>