<?xml version="1.0" encoding="utf-8" ?>
<svg baseProfile="full" height="200mm" version="1.1" viewBox="0,0,200,200" width="200mm" xmlns="http://www.w3.org/2000/svg" xmlns:ev="http://www.w3.org/2001/xml-events" xmlns:xlink="http://www.w3.org/1999/xlink"><defs /><rect fill="#1a1a1a" height="200" width="200" x="0" y="0" /><text alignment-baseline="middle" fill="#e1ed5e" style="dominant-baseline: central; font-size:9.0px; font-family:Arial;" text-anchor="middle" x="100.0" y="100.0">2024</text><line stroke="#e1ed5e" stroke-width="0.3" x1="100.0" x2="100.0" y1="15.0" y2="10.0" /><path d="M 100.0 14.0 a86.0,86.0 0 0,1 42.35913384403234,11.155469271406648" fill="none" id="id121" stroke="none" /><text fill="#e1ed5e" style="font-size:6.75px; font-family:Arial;" text-anchor="middle"><textPath startOffset="22.145653131862478" xlink:href="#id121">January</textPath></text><path d="M 101.44090949804482 79.04949213459386 l 0.22025834185271836 -3.2025079504772402 a24.21007334963325,24.21007334963325 0 0,0 0.4143738571725719,0.03207515722858754 l -0.27520119380052377 3.1982550262535994" fill="#ff2503" stroke="none" /><path d="M 102.15924093988457 79.11130261209362 l 2.6968866545981243 -26.089931964885306 a47.22894865525672,47.22894865525672 0 0,0 0.8057350813484675,0.09028429646764774 l -3.1443576375473885 26.039791907910686" fill="#b4ff20" stroke="none" /><path d="M 104.29559338865022 79.4440306129975 l 0.30373731246886115 -1.4534929943083432 a22.48488997555012,22.48488997555012 0 0,0 0.37714396702725866,0.08219677225936889 l -0.3286436961152539 1.4480647639152555" fill="#ff0d01" stroke="none" /><path d="M 104.9986988182912 79.60360301121754 l 0.7641042790209429 -3.117806209630023 a24.21007334963325,24.21007334963325 0 0,0 0.4028034037612763,0.10239105008565913 l -0.8175129760076137 3.104229927709096" fill="#ff2503" stroke="none" /><path d="M 106.72888874123014 80.10723608172694 l 13.681525372144202 -40.44699871500213 a63.698288508557454,63.698288508557454 0 0,0 1.0328047413226167,0.3592631016024613 l -14.373835885511838 40.20617718083108" fill="#34ff5b" stroke="none" /><path d="M 107.74402155503746 80.48000691201159 l 1.136042281912587 -2.8635686681645596 a24.08068459657702,24.08068459657702 0 0,0 0.3829351044050948,0.1557363732623748 l -1.1850318475081216 2.843645038322891" fill="#ff2303" stroke="none" /><path d="M 108.73861861582097 80.90454125486305 l 1.9613818800302314 -4.285973380937831 a25.713447432762838,25.713447432762838 0 0,0 0.3997967043842305,0.18712504457084791 l -2.034667298285967 4.251672104796449" fill="#ff3a05" stroke="none" /><path d="M 109.06512990194946 81.05736502329252 l 3.0719486660395967 -6.4191912170456185 a28.11638141809291,28.11638141809291 0 0,0 0.4335810452422789,0.2120862162512511 l -3.1816899605439426 6.365511250697145" fill="#ff5c08" stroke="none" /><path d="M 110.02825361518725 81.54914285379988 l 2.945217174220765 -5.41886787384244 a27.16753056234719,27.16753056234719 0 0,0 0.40784390015365335,0.22622413639612168 l -3.0378052625305187 5.3675108220131715" fill="#ff4f07" stroke="none" /><path d="M 110.34350942703115 81.72400993836675 l 4.103009705236026 -7.249625006355454 a29.330171149144256,29.330171149144256 0 0,0 0.43605239770030957,0.2517549691930555 l -4.226854570796733 7.178123139886227" fill="#ff6c0a" stroke="none" /><line stroke="#e1ed5e" stroke-width="0.3" x1="143.13028292997686" x2="145.6673583964461" y1="26.7553504044142" y2="22.446841604673864" /><path d="M 143.63769802327073 25.89364864446614 a86.0,86.0 0 0,1 29.32050498858742,28.57503671076993" fill="none" id="id122" stroke="none" /><text fill="#e1ed5e" style="font-size:6.75px; font-family:Arial;" text-anchor="middle"><textPath startOffset="20.669276256404974" xlink:href="#id122">February</textPath></text><path d="M 110.65571695917076 81.90426304109057 l 4.145568905973717 -7.0400823102730286 a29.16997555012225,29.16997555012225 0 0,0 0.4293087587887297,0.257787574610104 l -4.265810421319881 6.967880735127004" fill="#ff6a09" stroke="none" /><path d="M 111.27062007382361 82.28071324371311 l 2.2486127091051507 -3.535192663356995 a25.189731051344744,25.189731051344744 0 0,0 0.3628693125054088,0.23520750430334786 l -2.3089676538675667 3.496071317349753" fill="#ff3304" stroke="none" /><path d="M 111.8722381534696 82.67804972795209 l 4.946282105993203 -7.216773414075708 a29.74914425427873,29.74914425427873 0 0,0 0.4187615749973635,0.29232810201102594 l -5.06943877216433 7.130800496259555" fill="#ff720a" stroke="none" /><path d="M 112.16784306229584 82.88440491214696 l 4.201922137209447 -5.910529707110912 a28.251931540342298,28.251931540342298 0 0,0 0.39286192873307874,0.2844017397547173 l -4.302765076316492 5.83752719598312" fill="#ff5e08" stroke="none" /><path d="M 112.7482090630111 83.31218511350987 l 3.0367543095135607 -3.975208872276187 a26.00241564792176,26.00241564792176 0 0,0 0.3523823289933295,0.27401463039067514 l -3.104546583142116 3.9224931902647215" fill="#ff3e05" stroke="none" /><path d="M 115.16444852881244 85.47280134310134 l 10.12644054325001 -9.700900971081083 a35.023276283618586,35.023276283618586 0 0,0 0.4121808769971207,0.43772180768376434 l -10.291477253983391 9.525637703452821" fill="#ffb711" stroke="none" /><path d="M 115.6541949942343 86.00192230759917 l 5.640103115771067 -5.043414984724171 a28.566161369193154,28.566161369193154 0 0,0 0.323734778621027,0.3683507508970815 l -5.725848958350682 4.945851956015791" fill="#ff6209" stroke="none" /><path d="M 116.35404254752997 86.82634096563983 l 5.2828755534955 -4.255510590757129 a27.78366748166259,27.78366748166259 0 0,0 0.2960066235971624,0.37399469914153866 l -5.355148607734222 4.164195947700912" fill="#ff5708" stroke="none" /><path d="M 116.7966241395341 87.39550010848427 l 15.774370916841482 -11.837382015477568 a40.72192665036675,40.72192665036675 0 0,0 0.41477799376995383,0.5627260089691469 l -15.975250930195262 11.564849697239545" fill="#fffe18" stroke="none" /><path d="M 117.01052211995028 87.68569379921539 l 0.8684100290087098 -0.6286618911305206 a22.072078239608803,22.072078239608803 0 0,0 0.21954875658665166,0.30882282098317465 l -0.8790738841253221 0.613661843437842" fill="#ff0701" stroke="none" /><path d="M 117.42321728460499 88.27688183743584 l 8.245058334965105 -5.547643213026818 a30.937672371638143,30.937672371638143 0 0,0 0.2926933055677149,0.4431749698448823 l -8.339076079453545 5.4052883648428764" fill="#ff820c" stroke="none" /><path d="M 117.62189284568427 88.57770195909679 l 2.590288992377843 -1.6789940298755532 a24.08684596577017,24.08684596577017 0 0,0 0.22192278851946823,0.348899483948023 l -2.6187294725232015 1.6342808712488583" fill="#ff2403" stroke="none" /><path d="M 117.81537515405839 88.88188828441811 l 6.272405922211263 -3.914445200596069 a28.39364303178484,28.39364303178484 0 0,0 0.254504439257121,0.41571387477535754 l -6.338678325923786 3.8061942096961565" fill="#ff6008" stroke="none" /><line stroke="#e1ed5e" stroke-width="0.3" x1="172.87174338648825" x2="177.1583165268699" y1="56.24261187166439" y2="53.66864786411523" /><path d="M 173.72905801456457 55.72781907015455 a86.0,86.0 0 0,1 12.242430191666344,42.057860355516425" fill="none" id="id123" stroke="none" /><text fill="#e1ed5e" style="font-size:6.75px; font-family:Arial;" text-anchor="middle"><textPath startOffset="22.145653131862474" xlink:href="#id123">March</textPath></text><path d="M 118.18653347947321 89.5 l 4.56219641807812 -2.6339853300733496 a26.2679706601467,26.2679706601467 0 0,0 0.22211024561140352,0.39244752180266795 l -4.6067400287109 2.5552810381715636" fill="#ff4206" stroke="none" /><path d="M 118.53625476483649 90.13048839642627 l 2.724693487682077 -1.450745813219687 a24.08684596577017,24.08684596577017 0 0,0 0.19119442220653787,0.36664051451055696 l -2.7491959788635594 1.403759055604632" fill="#ff2403" stroke="none" /><path d="M 118.70294669586156 90.45014215332178 l 2.8534569042096827 -1.4569954269748677 a24.203911980440097,24.203911980440097 0 0,0 0.18577088731537209,0.37166621761468954 l -2.878047704736792 1.4077973531964276" fill="#ff2503" stroke="none" /><path d="M 118.8641267826498 90.77261029715802 l 2.7728882693714088 -1.3563586037527118 a24.08684596577017,24.08684596577017 0 0,0 0.17849584964754545,0.3729876748929551 l -2.7957633769788663 1.3085584267946533" fill="#ff2403" stroke="none" /><path d="M 119.16976305983485 91.42560881287824 l 5.635629120573454 -2.520745223324011 a27.173691931540343,27.173691931540343 0 0,0 0.1868076388296788,0.4274524356768447 l -5.678070641420103 2.4236307178713172" fill="#ff4f07" stroke="none" /><path d="M 119.31412917781788 91.75594674310238 l 5.6724039042530165 -2.421211924739709 a27.16753056234719,27.16753056234719 0 0,0 0.17940163603632275,0.4304986176147459 l -5.7131313848258225 2.323480797683685" fill="#ff4f07" stroke="none" /><path d="M 119.71291397450082 92.76114493625339 l 2.8976537607505852 -1.0640585976343424 a24.08684596577017,24.08684596577017 0 0,0 0.13919883478969522,0.3893639150674433 l -2.915492765584224 1.0141597261859823" fill="#ff2403" stroke="none" /><path d="M 119.83427380445688 93.10060997987247 l 2.915492765584224 -1.0141597261859823 a24.08684596577017,24.08684596577017 0 0,0 0.13249437416130105,0.39169607450044325 l -2.9324725613178897 0.9639619772113774" fill="#ff2403" stroke="none" /><path d="M 119.94978838288452 93.4421083053983 l 2.9324725613178897 -0.9639619772113774 a24.08684596577017,24.08684596577017 0 0,0 0.1257508668326971,0.39391279930243644 l -2.9485881439278443 0.913480144217554" fill="#ff2403" stroke="none" /><path d="M 120.16314734710363 94.1308016681162 l 7.708336721743581 -2.243784477196457 a29.028264058679706,29.028264058679706 0 0,0 0.13516321105309118,0.47964655291489605 l -7.745718424871254 2.1111300003785476" fill="#ff6809" stroke="none" /><path d="M 120.26092885502905 94.47779374421319 l 2.972263401715755 -0.8101036072058898 a24.08068459657702,24.08068459657702 0 0,0 0.10527905501853668,0.3997617199245904 l -2.9857319375390223 0.7589613829085008" fill="#ff2303" stroke="none" /><path d="M 120.43855184770803 95.1765574152323 l 3.004317205584857 -0.7090106801863921 a24.08684596577017,24.08684596577017 0 0,0 0.0915175565429524,0.4032432402506699 l -3.016045623685476 0.6573331059966959" fill="#ff2403" stroke="none" /><path d="M 120.51834098615036 95.52812308129327 l 6.056171451951277 -1.319914380504344 a27.19833740831296,27.19833740831296 0 0,0 0.09550798391715505,0.45704027732297203 l -6.0779371466928 1.2157576518959676" fill="#ff4f07" stroke="none" /><path d="M 120.592083275326 95.88100663000786 l 6.041687024545525 -1.2085066122226318 a27.161369193154034,27.161369193154034 0 0,0 0.08752907428542542,0.45798910292757117 l -6.061542391113107 1.104614944261746" fill="#ff4f07" stroke="none" /><path d="M 120.65975698304385 96.23510406497455 l 3.036832737947666 -0.5534120870751346 a24.08684596577017,24.08684596577017 0 0,0 0.07063775261135216,0.4074197858100038 l -3.0458853080512522 0.5011992683445381" fill="#ff2403" stroke="none" /><path d="M 120.7213421655516 96.59031103205396 l 9.806413177418506 -1.6136415565663476 a30.938288508557456,30.938288508557456 0 0,0 0.08173381344050593,0.5247897141696596 l -9.832668482997278 1.4450636604652467" fill="#ff820c" stroke="none" /><path d="M 120.86939407059847 97.66154086499901 l 3.7228141598798623 -0.41714909166178904 a24.74611246943765,24.74611246943765 0 0,0 0.0436799611724602,0.42256400107706205 l -3.7294265135339884 0.35318056830179556" fill="#ff2d04" stroke="none" /><path d="M 120.93736805541906 98.37931529534042 l 4.4352409983410945 -0.34331570369610215 a25.448508557457213,25.448508557457213 0 0,0 0.029975966474686176,0.4358439737216279 l -4.440480925980847 0.26712830582014" fill="#ff3705" stroke="none" /><path d="M 120.98066250479742 99.09900007780936 l 3.207117407823801 -0.13772742086884823 a24.21007334963325,24.21007334963325 0 0,0 0.014267011215760803,0.4153684648721911 l -3.2090091060364103 0.08265269143253717" fill="#ff2503" stroke="none" /><path d="M 120.99303781780057 99.45929381324524 l 25.154689422366026 -0.6478955696938231 a46.163031784841074,46.163031784841074 0 0,0 0.013603956181592535,0.7923622464316181 l -25.162104810146285 0.21598640729313862" fill="#c0ff1e" stroke="none" /><line stroke="#e1ed5e" stroke-width="0.3" x1="184.99686870605535" x2="189.99668451229388" y1="99.2704041080226" y2="99.22748670261217" /><path d="M 185.99683186730306 99.26182062694052 a86.0,86.0 0 0,1 -10.086455211305974,41.156179273409016" fill="none" id="id124" stroke="none" /><text fill="#e1ed5e" style="font-size:6.75px; font-family:Arial;" text-anchor="middle"><textPath startOffset="21.40746469413373" xlink:href="#id124">April</textPath></text><path d="M 120.99922638620191 100.18025310272382 l 3.0867322502162793 0.02649588395050462 a24.08684596577017,24.08684596577017 0 0,0 -0.007098242563405132,0.41343704347332366 l -3.0858225760542055 -0.07947984339289935" fill="#ff2403" stroke="none" /><path d="M 120.82617615685814 102.69636545807757 l 3.0857366139501274 0.39951038327506305 a24.111491442542786,24.111491442542786 0 0,0 -0.0566683007962672,0.41002359527931553 l -3.07842379659865 -0.45242228675446367" fill="#ff2403" stroke="none" /><path d="M 120.77682067341334 103.0534771498775 l 3.06623201918638 0.450630515321773 a24.09916870415648,24.09916870415648 0 0,0 -0.06366599621022678,0.40878136657372705 l -3.058044530837886 -0.5032000638269506" fill="#ff2403" stroke="none" /><path d="M 120.7213421655516 103.40968896794604 l 5.951939554056243 0.9793893886413215 a27.0319804400978,27.0319804400978 0 0,0 -0.07927473566427501,0.4572356088703394 l -5.934250000899734 -1.081418030432249" fill="#ff4d07" stroke="none" /><path d="M 120.592083275326 104.11899336999214 l 9.594198994978298 1.9191085002095383 a30.784254278728607,30.784254278728607 0 0,0 -0.10810006576563334,0.5172979473528609 l -9.559841218388298 -2.0835228988478085" fill="#ff800b" stroke="none" /><path d="M 120.43855184770803 104.8234425847677 l 6.1405605160057775 1.4491555618979364 a27.30924205378973,27.30924205378973 0 0,0 -0.11159398140956615,0.45534152569057207 l -6.114779008079915 -1.5543529121966082" fill="#ff5107" stroke="none" /><path d="M 120.35273937422433 105.17358676015961 l 5.063801366066181 1.2871985054128163 a26.22484107579462,26.22484107579462 0 0,0 -0.11465315595153047,0.4353567080355673 l -5.04095872930992 -1.3739357178211868" fill="#ff4206" stroke="none" /><path d="M 120.16314734710363 105.8691983318838 l 3.082151521126942 0.8971693880424816 a24.21007334963325,24.21007334963325 0 0,0 -0.11957894765742919,0.3980394258066065 l -3.0662962534658833 -0.9499464174398116" fill="#ff2503" stroke="none" /><path d="M 119.83427380445688 106.89939002012753 l 25.65750020650868 8.925010444618762 a48.16547677261614,48.16547677261614 0 0,0 -0.2783501938512903,0.7785950320738024 l -25.500509842613447 -9.364140433073485" fill="#aaff21" stroke="none" /><path d="M 119.58574465831526 107.57618678355244 l 0.574642875060593 0.22228420880838415 a21.6161369193154,21.6161369193154 0 0,0 -0.1368418040079746,0.34493073778261485 l -0.570742396086494 -0.23211596380456317" fill="#ff0000" stroke="none" /><path d="M 119.31412917781788 108.2440532568976 l 2.833368583542967 1.2093965658040506 a24.08068459657702,24.08068459657702 0 0,0 -0.16554452159912741,0.3787982622863786 l -2.8121901799268736 -1.2578568978662739" fill="#ff2303" stroke="none" /><path d="M 119.0197475246899 108.90220220490707 l 9.52568479940704 4.458501466144657 a31.517457212713936,31.517457212713936 0 0,0 -0.23356047993615559,0.4880515739177429 l -9.447745061510972 -4.621365542127504" fill="#ff8a0c" stroke="none" /><path d="M 118.8641267826498 109.22738970284198 l 3.8798296942701755 1.897819124212876 a25.319119804400977,25.319119804400977 0 0,0 -0.1943303774988522,0.38879093175680607 l -3.846679403559591 -1.9641419121334278" fill="#ff3505" stroke="none" /><line stroke="#e1ed5e" stroke-width="0.3" x1="174.33088141563837" x2="178.70328620479359" y1="141.23008692659167" y2="143.65538615756765" /><path d="M 175.20536237346943 141.71514677278685 a86.0,86.0 0 0,1 -30.301960400862466,31.631185727798858" fill="none" id="id125" stroke="none" /><text fill="#e1ed5e" style="font-size:6.75px; font-family:Arial;" text-anchor="middle"><textPath startOffset="22.145653131862474" xlink:href="#id125">May</textPath></text><path d="M 118.36410011445183 110.18625677009912 l 6.465600040296 3.586359351819738 a28.39364303178484,28.39364303178484 0 0,0 -0.2400839832351535,0.4242053939735578 l -6.403082692039468 -3.6968215158924185" fill="#ff6008" stroke="none" /><path d="M 118.18653347947321 110.5 l 9.6046240380592 5.545232273838626 a32.09046454767726,32.09046454767726 0 0,0 -0.27953283904375703,0.4747078724120576 l -9.508017488885677 -5.709291314544233" fill="#ff910d" stroke="none" /><path d="M 118.00360718960297 110.81064883170644 l 11.092687070366624 6.660839866968273 a33.93887530562347,33.93887530562347 0 0,0 -0.30420874204150977,0.496902117950288 l -10.97671036386971 -6.850279101043118" fill="#ffa90f" stroke="none" /><path d="M 117.21940702142032 112.02048342749411 l 2.5311265284298026 1.766922894036542 a24.08684596577017,24.08684596577017 0 0,0 -0.23958944982304634,0.3370125657849327 l -2.5004219800767977 -1.8101126865309787" fill="#ff2403" stroke="none" /><path d="M 117.01052211995028 112.31430620078461 l 2.4954311178411177 1.806499687156667 a24.08068459657702,24.08068459657702 0 0,0 -0.24527665724983752,0.3327648923053678 l -2.46405244100745 -1.8490708887309146" fill="#ff2303" stroke="none" /><path d="M 116.79662413953412 112.60449989151573 l 4.9330329868969125 3.7018399192392892 a27.16753056234719,27.16753056234719 0 0,0 -0.2831219211302945,0.3706156830953258 l -4.868759088412314 -3.78597651557549" fill="#ff4f07" stroke="none" /><path d="M 116.1254893667686 113.45245675266167 l 8.307978286957162 6.93081097046667 a31.81936430317848,31.81936430317848 0 0,0 -0.3535062227466283,0.41642944151677436 l -8.187777500703419 -7.072407194433001" fill="#ff8e0d" stroke="none" /><path d="M 115.89218393027572 113.72728997021213 l 5.707197984544981 4.929741689058083 a28.541515892420538,28.541515892420538 0 0,0 -0.3234554762022041,0.3680329560153016 l -5.621731444384191 -5.026986922884679" fill="#ff6209" stroke="none" /><path d="M 115.41159269507618 114.26474011684316 l 2.2653910827089967 2.0968121658303427 a24.08684596577017,24.08684596577017 0 0,0 -0.2834725459111142,0.30103802031989607 l -2.2290627030616226 -2.1353916460947358" fill="#ff2403" stroke="none" /><path d="M 115.16444852881244 114.52719865689866 l 2.3135980151537803 2.2163745628129 a24.203911980440097,24.203911980440097 0 0,0 -0.2900011294315609,0.2975667065018793 l -2.27521008457141 -2.2557639613825162" fill="#ff2503" stroke="none" /><path d="M 114.65682725009322 115.03919595460226 l 7.886734819561161 8.092484708285735 a32.2999511002445,32.2999511002445 0 0,0 -0.40040790364755374,0.38358171410113845 l -7.746654430048294 -8.226678552692453" fill="#ff940d" stroke="none" /><path d="M 113.86319453409587 115.77377054828091 l 2.119136729270596 2.411188593346021 a24.21007334963325,24.21007334963325 0 0,0 -0.3145240383917319,0.27167837325241156 l -2.0774332111160088 -2.4472110990631504" fill="#ff2503" stroke="none" /><path d="M 113.31354834802062 116.24036423190432 l 1.9648063038790338 2.3967442176961984 a24.09916870415648,24.09916870415648 0 0,0 -0.32218204994146377,0.25952705336217136 l -1.9233734835823175 -2.4301195648517733" fill="#ff2403" stroke="none" /><path d="M 112.45986205192187 116.90419585922612 l 13.866090003796478 18.81201414984195 a44.37007334963325,44.37007334963325 0 0,0 -0.6169954280568017,0.44665710858249813 l -13.541113565365707 -19.047272029797526" fill="#d5ff1c" stroke="none" /><path d="M 111.27062007382361 117.71928675628689 l 1.6533916978714351 2.599406370115439 a24.08068459657702,24.08068459657702 0 0,0 -0.3507017691873441,0.21886384176360427 l -1.6085257998943763 -2.6274060087205906" fill="#ff2303" stroke="none" /><line stroke="#e1ed5e" stroke-width="0.3" x1="143.1302829299769" x2="145.66735839644613" y1="173.24464959558577" y2="177.55315839532614" /><path d="M 143.63769802327073 174.10635135553383 a86.0,86.0 0 0,1 -40.68552437913181,11.842963189579606" fill="none" id="id126" stroke="none" /><text fill="#e1ed5e" style="font-size:6.75px; font-family:Arial;" text-anchor="middle"><textPath startOffset="21.407464694133747" xlink:href="#id126">June</textPath></text><path d="M 110.65571695917076 118.09573695890943 l 2.1540701178098747 3.6580819847497104 a25.24518337408313,25.24518337408313 0 0,0 -0.37532078093496146,0.2166915539052614 l -2.0909568690145144 -3.6945204359311434" fill="#ff3404" stroke="none" /><path d="M 109.71004243097381 118.62028667847754 l 3.706434778297387 7.107577399129376 a29.0159413202934,29.0159413202934 0 0,0 -0.44362994734772704,0.22652061210427085 l -3.583877609236078 -7.170155962906483" fill="#ff6809" stroke="none" /><path d="M 109.06512990194946 118.94263497670748 l 1.702205321441854 3.5569544406140197 a24.94327628361858,24.94327628361858 0 0,0 -0.38782196283917425,0.1815202608876156 l -1.6408946447311734 -3.585650933072169" fill="#ff3004" stroke="none" /><path d="M 108.4095320186766 119.2426549942271 l 0.5724238909534384 1.3098178851816191 a22.429437652811735,22.429437652811735 0 0,0 -0.35413403853923925,0.15115876294079705 l -0.549854777243768 -1.3194512977818202" fill="#ff0c01" stroke="none" /><path d="M 108.07796709384702 119.3841803445677 l 2.3724337587112583 5.692977366722425 a27.16753056234719,27.16753056234719 0 0,0 -0.43202264913181887,0.17569985036372956 l -2.2743566483889985 -5.732864473665446" fill="#ff4f07" stroke="none" /><path d="M 107.407793817531 119.65005319985036 l 1.8365532838573184 4.871675781087598 a26.20635696821516,26.20635696821516 0 0,0 -0.4223102616032606,0.15507817766735538 l -1.7526538705999308 -4.902484807763676" fill="#ff4106" stroke="none" /><path d="M 107.06938296918513 119.77432235084164 l 2.2815612516685486 6.381932885846203 a27.77750611246944,27.77750611246944 0 0,0 -0.4503847856323795,0.15666720777602094 l -2.171670693991147 -6.420158526190815" fill="#ff5708" stroke="none" /><path d="M 106.72888874123015 119.89276391827305 l 1.9841173158737295 5.86569028983797 a27.192176039119804,27.192176039119804 0 0,0 -0.4434620003466014,0.1457747677884856 l -1.883132577879394 -5.898885979028475" fill="#ff4f07" stroke="none" /><path d="M 106.0420521117495 120.11202640906438 l 2.2708661384306446 7.5589748156512915 a28.89271393643032,28.89271393643032 0 0,0 -0.47623445924846514,0.13862491037185065 l -2.1407716668005725 -7.59684342032566" fill="#ff6609" stroke="none" /><path d="M 105.69591212413111 120.21278271476187 l 0.8723519204292732 3.095669215776733 a24.216234718826406,24.216234718826406 0 0,0 -0.4010884206923237,0.10931843262067688 l -0.8190820988022545 -3.110188142541552" fill="#ff2503" stroke="none" /><path d="M 105.3480935250658 120.30758222061773 l 1.5706919174349743 5.9641730472875345 a27.16753056234719,27.16753056234719 0 0,0 -0.45200911307720726,0.11489894897633725 l -1.4680775111323696 -5.990257228099142" fill="#ff4f07" stroke="none" /><path d="M 104.9986988182912 120.39639698878246 l 0.7347720610163005 2.9981207505271414 a24.08684596577017,24.08684596577017 0 0,0 -0.4024428460575743,0.0949754158745302 l -0.6831970612188472 -3.010292310047897" fill="#ff2403" stroke="none" /><path d="M 104.29559338865022 120.5559693870025 l 2.5508892964189838 12.20692871568501 a33.47061124694376,33.47061124694376 0 0,0 -0.5634275574867448,0.11270129120639084 l -2.34096525340128 -12.248919403554263" fill="#ffa30f" stroke="none" /><path d="M 102.875027216393 120.80226474461374 l 0.4226079125905783 3.0577803336092355 a24.08684596577017,24.08684596577017 0 0,0 -0.41007531587921625,0.05309245963440303 l -0.3700547748205867 -3.064584389444033" fill="#ff2403" stroke="none" /><path d="M 102.51750503828377 120.84855314841334 l 0.6972688771070538 5.774386554162012 a26.816332518337408,26.816332518337408 0 0,0 -0.45749186628834854,0.051262917854325823 l -0.5980411092179059 -5.785505232523309" fill="#ff4a06" stroke="none" /><path d="M 102.15924093988457 120.88869738790638 l 0.3965823457313658 3.836574444448722 a24.857017114914427,24.857017114914427 0 0,0 -0.42481877597566364,0.04023077976731166 l -0.3306640063706869 -3.842816979721217" fill="#ff2e04" stroke="none" /><path d="M 101.08105385017728 120.97215588758144 l 0.5855135669713237 11.358806778036778 a32.37388753056235,32.37388753056235 0 0,0 -0.5552495389387896,0.02384480429375327 l -0.39043826743170457 -11.367184150756362" fill="#ff950d" stroke="none" /><line stroke="#e1ed5e" stroke-width="0.3" x1="101.45913802915013" x2="101.54496967792366" y1="184.9874750549273" y2="189.98673829345242" /><path d="M 101.47630435890484 185.9873277026323 a86.0,86.0 0 0,1 -42.54439059252881,-10.42667462771756" fill="none" id="id127" stroke="none" /><text fill="#e1ed5e" style="font-size:6.75px; font-family:Arial;" text-anchor="middle"><textPath startOffset="22.145653131862474" xlink:href="#id127">July</textPath></text><path d="M 100.36049292484886 120.99690560180557 l 0.07160500052499015 4.170632300955219 a25.171246943765283,25.171246943765283 0 0,0 -0.4320979253738419,0.003709041004498217 l -5.108304218135333e-16 -4.171246943765283" fill="#ff3304" stroke="none" /><path d="M 100.0 121.0 l 9.07723777609572e-16 7.412127139364301 a28.4121271393643,28.4121271393643 0 0,0 -0.48773194350699467,-0.004186592139052573 l 0.1272390186581416 -7.411034945419684" fill="#ff6008" stroke="none" /><path d="M 99.27912038922189 120.98762331915562 l -0.13176762763269237 3.8362707074329423 a24.838533007334963,24.838533007334963 0 0,0 -0.42600951112894436,-0.018294681413988167 l 0.19760289936247546 -3.8334434575931255" fill="#ff2e04" stroke="none" /><path d="M 98.91894614982273 120.97215588758144 l -0.16493339914684949 3.1996638811371185 a24.203911980440097,24.203911980440097 0 0,0 -0.4147578298405007,-0.02495080110865602 l 0.21983558111979654 -3.196361102203771" fill="#ff2503" stroke="none" /><path d="M 98.55909050195518 120.95050786540614 l -0.21180312719426547 3.0795709850078636 a24.08684596577017,24.08684596577017 0 0,0 -0.4122647265795629,-0.031911897181614746 l 0.2646368485490645 -3.0754813208311953" fill="#ff2403" stroke="none" /><path d="M 97.48249496171623 120.84855314841334 l -0.37005477482058724 3.064584389444033 a24.08684596577017,24.08684596577017 0 0,0 -0.4100753158791949,-0.05309245963440035 l 0.4226079125905761 -3.057780333609236" fill="#ff2403" stroke="none" /><path d="M 97.12497278360702 120.80226474461374 l -0.7127818086607527 5.1573340956083955 a26.20635696821516,26.20635696821516 0 0,0 -0.4451023620974025,-0.06541471928667583 l 0.8012092763658402 -5.144338303022837" fill="#ff4106" stroke="none" /><path d="M 96.76829788921471 120.74984581791261 l -0.9491248350795334 6.094062297427052 a27.16753056234719,27.16753056234719 0 0,0 -0.46019532416763576,-0.07572496546692409 l 1.0535976623002328 -6.076871333464459" fill="#ff4f07" stroke="none" /><path d="M 96.05791012581884 120.62667999033965 l -1.623871154039226 8.496780060568275 a29.650562347188263,29.650562347188263 0 0,0 -0.49912276170069025,-0.09983853108833925 l 1.7694904012708745 -8.467652132817074" fill="#ff710a" stroke="none" /><path d="M 95.35216902796893 120.47920084513623 l -2.7218789105645076 11.993100700310592 a33.298092909535455,33.298092909535455 0 0,0 -0.5563442925589436,-0.13129573819694024 l 2.927355356863339 -11.944608818467424" fill="#ffa10e" stroke="none" /><path d="M 94.30408787586889 120.21278271476187 l -1.221626923053255 4.335122982246727 a25.5039608801956,25.5039608801956 0 0,0 -0.42037812872813757,-0.12236594661626964 l 1.2958650641629996 -4.313513341327941" fill="#ff3805" stroke="none" /><path d="M 93.95794788825049 120.11202640906438 l -0.8881373421965287 2.956320361156358 a24.08684596577017,24.08684596577017 0 0,0 -0.3949776682329076,-0.12236509126685773 l 0.93875564330107 -2.9406386820828514" fill="#ff2403" stroke="none" /><path d="M 93.61358852112213 120.00534299687104 l -2.6213954989584773 8.21148406433914 a29.619755501222492,29.619755501222492 0 0,0 -0.48305203693342225,-0.15878879917262054 l 2.761970273539643 -8.1652743437645" fill="#ff700a" stroke="none" /><path d="M 93.27111125876986 119.89276391827306 l -2.323687642570522 6.869569623024172 a28.251931540342298,28.251931540342298 0 0,0 -0.45807712466979755,-0.15934300260014372 l 2.4412705392853415 -6.828668187855437" fill="#ff5e08" stroke="none" /><path d="M 92.59220618246901 119.65005319985036 l -1.0867179194421994 2.8826483911760943 a24.08068459657702,24.08068459657702 0 0,0 -0.38555209997685885,-0.14913983487349383 l 1.1360422819125866 -2.86356866816456" fill="#ff2303" stroke="none" /><path d="M 91.92203290615298 119.3841803445677 l -1.898421019708009 4.5555193513932695 a25.935256723716382,25.935256723716382 0 0,0 -0.4094867355254568,-0.1747855378093934 l 1.9763428304038968 -4.522259163924472" fill="#ff3e05" stroke="none" /><path d="M 91.59046798132341 119.24265499422711 l -1.236139523136519 2.828529139982721 a24.08684596577017,24.08684596577017 0 0,0 -0.37745991308646565,-0.16883301802730769 l 1.28451283907862 -2.806892371045558" fill="#ff2403" stroke="none" /><path d="M 91.26138138417905 119.09545874513695 l -1.2819489411962286 2.8012897914626356 a24.08068459657702,24.08068459657702 0 0,0 -0.37441025230873165,-0.1752429031624035 l 1.3298479073764502 -2.7788706567297057" fill="#ff2303" stroke="none" /><path d="M 89.97174638481275 118.45085714620012 l -1.821268162679973 3.3509282856228473 a24.813887530562347,24.813887530562347 0 0,0 -0.37251058373574264,-0.20662534139234243 l 1.8785229345718182 -3.3191700287973562" fill="#ff2e04" stroke="none" /><line stroke="#e1ed5e" stroke-width="0.3" x1="58.13341422392154" x2="55.67067388415222" y1="173.97424548756322" y2="178.32567169271397" /><path d="M 57.64086615596768 174.84453072859336 a86.0,86.0 0 0,1 -31.369924170532247,-30.572349798747897" fill="none" id="id128" stroke="none" /><text fill="#e1ed5e" style="font-size:6.75px; font-family:Arial;" text-anchor="middle"><textPath startOffset="22.145653131862474" xlink:href="#id128">August</textPath></text><path d="M 89.65649057296885 118.27599006163327 l -1.5204200165112771 2.686436485343255 a24.08684596577017,24.08684596577017 0 0,0 -0.3580997493333234,-0.20674898667433336 l 1.5663122337050004 -2.65994060139275" fill="#ff2403" stroke="none" /><path d="M 89.03521579738668 117.91015095944536 l -3.2942608381836793 5.380927505859768 a27.30924205378973,27.30924205378973 0 0,0 -0.39772123026730183,-0.24820746302180346 l 3.3861461972406963 -5.323584245996416" fill="#ff5107" stroke="none" /><path d="M 87.83215693770417 117.11559508785305 l -4.641035495643395 6.528197637420719 a29.009779951100242,29.009779951100242 0 0,0 -0.403400315742582,-0.29203071925236684 l 4.7524168217599305 -6.447566146795287" fill="#ff6809" stroke="none" /><path d="M 87.54013794807813 116.9041958592261 l -1.831508329001327 2.484792799649568 a24.08684596577017,24.08684596577017 0 0,0 -0.33073190670459973,-0.24818738858167563 l 1.873893224616693 -2.4529863838038777" fill="#ff2403" stroke="none" /><path d="M 87.2517909369889 116.68781488649013 l -1.873893224616693 2.4529863838038777 a24.08684596577017,24.08684596577017 0 0,0 -0.3264227060457743,-0.25382827057127993 l 1.9157258752976958 -2.4204570616118044" fill="#ff2403" stroke="none" /><path d="M 86.96720088162412 116.46651593811092 l -4.477674650645914 5.657395647000849 a28.214963325183376,28.214963325183376 0 0,0 -0.3772061532380844,-0.30385057602602694 l 4.574131574239261 -5.579696777181411" fill="#ff5d08" stroke="none" /><path d="M 86.40962598614128 116.0094264158162 l -3.987395798687156 4.697142224689349 a27.161369193154034,27.161369193154034 0 0,0 -0.3528656606490115,-0.304796953364699 l 4.06744093909903 -4.628001138859928" fill="#ff4f07" stroke="none" /><path d="M 85.86807049272751 115.53346607816431 l -6.352112275347127 6.982084116894194 a30.43921760391198,30.43921760391198 0 0,0 -0.38349098869004317,-0.3549535339434721 l 6.471033035351137 -6.872012836818342" fill="#ff7b0b" stroke="none" /><path d="M 85.60350026404147 115.28858382429668 l -4.3295097005449845 4.597789267453526 a27.315403422982886,27.315403422982886 0 0,0 -0.33861671765196266,-0.32438715569053816 l 4.407798904062262 -4.5227899814574055" fill="#ff5107" stroke="none" /><path d="M 84.83555147118756 114.52719865689866 l -4.7428759310652495 4.543567853766447 a27.5680195599022,27.5680195599022 0 0,0 -0.3244416766511762,-0.3445458174244605 l 4.8201734414526785 -4.461480576397496" fill="#ff5407" stroke="none" /><path d="M 84.3458050057657 113.99807769240083 l -2.5398835692356685 2.2711795493098252 a24.40723716381418,24.40723716381418 0 0,0 -0.2766024954441133,-0.3147228645956488 l 2.578497128638377 -2.2272444069028765" fill="#ff2803" stroke="none" /><path d="M 84.1078160697243 113.72728997021213 l -3.5157085623749302 3.0367853215276117 a25.645672371638142,25.645672371638142 0 0,0 -0.28491784699136335,-0.3356325073400895 l 3.567320972873406 -2.9759860317379676" fill="#ff3a05" stroke="none" /><path d="M 83.8745106332314 113.45245675266167 l -1.021938103634823 0.8525371125403206 a22.330855745721273,22.330855745721273 0 0,0 -0.24303752903847212,-0.29646626807748283 l 1.036422451911925 -0.8348685627643425" fill="#ff0a01" stroke="none" /><path d="M 83.4222238831116 112.89097897827486 l -7.412576274465896 5.764064145591455 a30.389926650366746,30.389926650366746 0 0,0 -0.316703588370513,-0.41457516349876206 l 7.510431840190704 -5.635968068851823" fill="#ff7b0b" stroke="none" /><path d="M 83.20337586046588 112.60449989151573 l -8.540405760531817 6.408879700341344 a31.67765281173594,31.67765281173594 0 0,0 -0.32265647432166256,-0.43774547538746206 l 8.649164254437311 -6.261327915685002" fill="#ff8c0c" stroke="none" /><path d="M 82.78059297857968 112.02048342749411 l -10.023463138532398 6.997155732072855 a33.224156479217605,33.224156479217605 0 0,0 -0.3224487655294364,-0.4704623854055535 l 10.14210164087716 -6.824058611597251" fill="#ffa00e" stroke="none" /><path d="M 82.37810715431573 111.42229804090323 l -1.2718784273951087 0.8244162302382958 a22.515696821515892,22.515696821515892 0 0,0 -0.2074470950323099,-0.32614128943742976 l 1.2858432140533087 -0.8024612661221942" fill="#ff0d01" stroke="none" /><path d="M 82.18462484594161 111.11811171558189 l -2.001942890172429 1.2493604265235796 a23.359804400977996,23.359804400977996 0 0,0 -0.20938397772950879,-0.34201299180433137 l 2.0230948323573426 -1.2148103185946912" fill="#ff1902" stroke="none" /><path d="M 81.99639281039703 110.81064883170644 l -3.0953879158261155 1.8586915057349573 a24.610562347188264,24.610562347188264 0 0,0 -0.21437708865672309,-0.364059163847265 l 3.126838714612606 -1.8052811735941334" fill="#ff2b04" stroke="none" /><line stroke="#e1ed5e" stroke-width="0.3" x1="26.387840678322732" x2="22.057713659400534" y1="142.50000000000003" y2="145.00000000000006" /><path d="M 25.521815274538284 143.00000000000003 a86.0,86.0 0 0,1 -11.493303480769212,-40.785679425670985" fill="none" id="id129" stroke="none" /><text fill="#e1ed5e" style="font-size:6.75px; font-family:Arial;" text-anchor="middle"><textPath startOffset="21.40746469413373" xlink:href="#id129">September</textPath></text><path d="M 81.81346652052679 110.50000000000001 l -4.572868222564853 2.640146699266506 a26.280293398533008,26.280293398533008 0 0,0 -0.22221444119182526,-0.3926316254094514 l 4.617516028778059 -2.5612583037579335" fill="#ff4206" stroke="none" /><path d="M 81.4637452351635 109.86951160357371 l -2.7246934876820776 1.4507458132196862 a24.08684596577017,24.08684596577017 0 0,0 -0.19119442220653254,-0.36664051451055163 l 2.7491959788635594 -1.4037590556046318" fill="#ff2403" stroke="none" /><path d="M 81.29705330413844 109.54985784667822 l -1.2456436870299958 0.6360345421601824 a22.398630806845965,22.398630806845965 0 0,0 -0.1719149170183664,-0.34394499527414174 l 1.2563785172600992 -0.6145576907222867" fill="#ff0b01" stroke="none" /><path d="M 81.1358732173502 109.22738970284198 l -9.143336169663812 4.472463899000961 a31.178581907090464,31.178581907090464 0 0,0 -0.23104924057805146,-0.4828040495011896 l 9.218764668201775 -4.314847347434668" fill="#ff850c" stroke="none" /><path d="M 80.83023694016515 108.57439118712176 l -4.59511875400051 2.055338171113492 a26.033838630806848,26.033838630806848 0 0,0 -0.1789716294917275,-0.4095221128138224 l 4.629724265509206 -1.9761539885238206" fill="#ff3f05" stroke="none" /><path d="M 80.68587082218212 108.24405325689762 l -1.4676849262752545 0.6264674210864981 a22.595794621026894,22.595794621026894 0 0,0 -0.14921203505228225,-0.35805456539139585 l 1.4782228058640223 -0.6011803462538209" fill="#ff0e01" stroke="none" /><path d="M 80.5471966667186 107.91128576633889 l -1.2442184234685598 0.5060128010939499 a22.34317848410758,22.34317848410758 0 0,0 -0.14144436919741146,-0.3565322086781049 l 1.2527214676320957 -0.48457957520227957" fill="#ff0b01" stroke="none" /><path d="M 80.41425534168474 107.57618678355246 l -2.8789608040535777 1.1136438861300095 a24.08684596577017,24.08684596577017 0 0,0 -0.14586227288257164,-0.38691700830152254 l 2.8976537607505852 -1.064058597634342" fill="#ff2403" stroke="none" /><path d="M 80.28708602549918 107.23885506374661 l -1.3186927294433806 0.48424223604916183 a22.40479217603912,22.40479217603912 0 0,0 -0.12947817946118564,-0.3621735120626433 l 1.3268110789485095 -0.46153376760559706" fill="#ff0b01" stroke="none" /><path d="M 80.16572619554312 106.89939002012753 l -10.119844150401134 3.520207113447954 a31.714621026894868,31.714621026894868 0 0,0 -0.17445243228161408,-0.5157376178748163 l 10.178782004255115 -3.345967821098976" fill="#ff8c0c" stroke="none" /><path d="M 79.83685265289637 105.86919833188381 l -6.063733798762218 1.7650645350164016 a27.315403422982886,27.315403422982886 0 0,0 -0.12718768268050384,-0.4513442163413357 l 6.093139973517298 -1.6607123947720703" fill="#ff5107" stroke="none" /><path d="M 79.73907114497094 105.5222062557868 l -5.100403997344236 1.3901377899653038 a26.286454767726163,26.286454767726163 0 0,0 -0.11492252666799291,-0.4363795525215158 l 5.1235160048169615 -1.3023777330709854" fill="#ff4206" stroke="none" /><path d="M 79.48165901384964 104.47187691870673 l -6.020051145080791 1.312042127737916 a27.161369193154034,27.161369193154034 0 0,0 -0.09537816864036665,-0.45641906422987427 l 6.041687024545525 -1.2085066122226324" fill="#ff4f07" stroke="none" /><path d="M 79.34024301695615 103.76489593502545 l -6.74649668130889 1.2294364329633245 a27.85760391198044,27.85760391198044 0 0,0 -0.08169598195944584,-0.47120071407971453 l 6.76660748076057 -1.113442685963017" fill="#ff5808" stroke="none" /><path d="M 79.0935383218832 101.97986365728391 l -8.182042806583862 0.7748479606213236 a29.218650366748165,29.218650366748165 0 0,0 -0.04300203011892919,-0.49974877313453975 l 8.194138459400532 -0.6342781401111217" fill="#ff6b09" stroke="none" /><path d="M 79.03789590574601 101.26102812881392 l -7.386450958591408 0.4443505474930609 a28.399804400977995,28.399804400977995 0 0,0 -0.02509786806792304,-0.4868919355683684 l 7.392990416115904 -0.31748681854796174" fill="#ff6008" stroke="none" /><line stroke="#e1ed5e" stroke-width="0.3" x1="15.003131293944662" x2="10.003315487706104" y1="100.72959589197737" y2="100.7725132973878" /><path d="M 14.003168132696942 100.73817937305945 a86.0,86.0 0 0,1 10.791469493833604,-42.45332614584628" fill="none" id="id130" stroke="none" /><text fill="#e1ed5e" style="font-size:6.75px; font-family:Arial;" text-anchor="middle"><textPath startOffset="22.145653131862435" xlink:href="#id130">October</textPath></text><path d="M 79.00077361379809 99.81974689727619 l -11.096217131017008 -0.09524767863244649 a32.096625916870416,32.096625916870416 0 0,0 0.009458674520884822,-0.5509203713677897 l 11.092947024897457 0.2857149659692885" fill="#ff910d" stroke="none" /><path d="M 79.00696218219943 99.45929381324524 l -5.561871828696504 -0.14325408898959888 a26.563716381418093,26.563716381418093 0 0,0 0.015654014511759032,-0.45574955248190047 l 5.558593127187895 0.23870990603563785" fill="#ff4606" stroke="none" /><path d="M 79.03789590574601 98.7389718711861 l -1.8512254275903517 -0.11136512472557072 a22.854572127139363,22.854572127139363 0 0,0 0.026920551604417656,-0.39141891207928325 l 1.8490409148208702 0.14312746095917897" fill="#ff1202" stroke="none" /><path d="M 79.0935383218832 98.0201363427161 l -16.45732127600608 -1.5585254354501865 a37.53095354523228,37.53095354523228 0 0,0 0.06624679313350386,-0.6408776293204942 l 16.428142090390914 1.8408075870535936" fill="#ffd714" stroke="none" /><path d="M 79.22317932658666 96.9465228501225 l -3.2369169029581863 -0.4757153153794465 a24.271687041564793,24.271687041564793 0 0,0 0.06412176096918869,-0.41170770326984096 l 3.2282736498507303 0.5312112005807375" fill="#ff2603" stroke="none" /><path d="M 79.34024301695615 96.23510406497455 l -0.7334466293246861 -0.1336584082556711 a21.745525672371638,21.745525672371638 0 0,0 0.07007620707251813,-0.36666832678995265 l 0.7310441299700087 0.14622930007893828" fill="#ff0200" stroke="none" /><path d="M 79.407916724674 95.88100663000787 l -20.330276837595697 -4.066624750129152 a41.733007334963325,41.733007334963325 0 0,0 0.14654702357446125,-0.7012805584235196 l 20.257472103196868 4.41502175983808" fill="#f4ff19" stroke="none" /><path d="M 79.56144815229197 95.17655741523228 l -10.122330225603276 -2.3888423715661333 a31.400391198044012,31.400391198044012 0 0,0 0.12831167795523882,-0.52355543252484 l 10.079831021131739 2.562253628699091" fill="#ff880c" stroke="none" /><path d="M 79.64726062577567 94.8264132398404 l -6.019235586078669 -1.5300661479435331 a27.21066014669927,27.21066014669927 0 0,0 0.11896308741498195,-0.4517222198107557 l 5.9920830178589615 1.6331688721270734" fill="#ff4f07" stroke="none" /><path d="M 79.73907114497095 94.47779374421319 l -3.0614313037672254 -0.8344067154220657 a24.173105134474326,24.173105134474326 0 0,0 0.11255631768040775,-0.39942266363437995 l 3.0466564940122356 0.8868373029594588" fill="#ff2503" stroke="none" /><path d="M 79.94057633289273 93.78553927170692 l -12.429976367216785 -3.850838452270408 a34.01281173594132,34.01281173594132 0 0,0 0.17757163247069377,-0.5562406095879572 l 12.362040018968834 4.063648095549757" fill="#ffaa0f" stroke="none" /><path d="M 80.28708602549916 92.7611449362534 l -18.820290094775274 -6.911071210982331 a41.04909535452323,41.04909535452323 0 0,0 0.24858025648908252,-0.6593886634483742 l 18.698879154471754 7.23312815462485" fill="#fcff18" stroke="none" /><path d="M 80.5471966667186 92.08871423366112 l -7.499555084576556 -3.050003764391965 a29.096039119804402,29.096039119804402 0 0,0 0.19213660248916467,-0.4610579010998157 l 7.446092637550913 3.1782941749330447" fill="#ff6909" stroke="none" /><path d="M 80.9802524753101 91.09779779509293 l -15.452033514679611 -7.232331903781226 a38.06083129584352,38.06083129584352 0 0,0 0.2820502289962876,-0.5893764999246752 l 15.325604027723418 7.496520905770989" fill="#ffde14" stroke="none" /><path d="M 81.29705330413844 90.45014215332179 l -7.106205174906811 -3.6284789960239476 a28.978973105134475,28.978973105134475 0 0,0 0.23002671361991497,-0.44110655352525135 l 7.042870392311959 3.7499317926536855" fill="#ff6709" stroke="none" /><path d="M 81.46374523516351 90.13048839642627 l -8.28828917211075 -4.413047144404799 a30.389926650366746,30.389926650366746 0 0,0 0.24913177131947745,-0.45837439893164333 l 8.211312051175922 4.554676376811062" fill="#ff7b0b" stroke="none" /><line stroke="#e1ed5e" stroke-width="0.3" x1="26.387840678322718" x2="22.05771365940052" y1="57.49999999999999" y2="54.99999999999999" /><path d="M 25.521815274538284 56.99999999999999 a86.0,86.0 0 0,1 29.574782752854787,-30.34633250058573" fill="none" id="id131" stroke="none" /><text fill="#e1ed5e" style="font-size:6.75px; font-family:Arial;" text-anchor="middle"><textPath startOffset="21.40746469413373" xlink:href="#id131">November</textPath></text><path d="M 81.99639281039701 89.18935116829357 l -11.990666499872502 -7.200050713341885 a34.98630806845966,34.98630806845966 0 0,0 0.313597332567466,-0.5122376749944654 l 11.865301202849642 7.404825504460894" fill="#ffb711" stroke="none" /><path d="M 82.18462484594161 88.88188828441811 l -6.350810996238906 -3.9633757656035185 a28.486063569682152,28.486063569682152 0 0,0 0.26245473028351163,-0.4126224285776841 l 6.2818385743295035 4.071811868859875" fill="#ff6108" stroke="none" /><path d="M 82.78059297857968 87.97951657250589 l -8.477505618174071 -5.9179573177511395 a31.33877750611247,31.33877750611247 0 0,0 0.3117236881693059,-0.43847840563710805 l 8.374666831474794 6.062612950097768" fill="#ff870c" stroke="none" /><path d="M 82.98947788004972 87.6856937992154 l -3.0194716525877525 -2.1858646214595643 a24.72762836185819,24.72762836185819 0 0,0 0.2518661793849215,-0.341704844635979 l 2.9815034536190126 2.2373757753644066" fill="#ff2d04" stroke="none" /><path d="M 83.42222388311158 87.10902102172516 l -7.081831401327001 -5.506874931746165 a29.970953545232273,29.970953545232273 0 0,0 0.3193099244643218,-0.4034376585284139 l 6.9862550462211175 5.627632534189263" fill="#ff750a" stroke="none" /><path d="M 83.8745106332314 86.54754324733833 l -2.6258131829505853 -2.1905467474994325 a24.41955990220049,24.41955990220049 0 0,0 0.27129600390224046,-0.3195860104327405 l 2.58782261554123 2.2352995403817295" fill="#ff2803" stroke="none" /><path d="M 84.34580500576568 86.00192230759919 l -6.039686968435633 -5.400725329733127 a29.102200488997553,29.102200488997553 0 0,0 0.3362028928186563,-0.3695458732858669 l 5.946086374775111 5.503608778576651" fill="#ff6909" stroke="none" /><path d="M 84.83555147118756 85.47280134310135 l -1.8909214546929958 -1.8114599792220818 a23.618581907090466,23.618581907090466 0 0,0 0.28298794980594344,-0.2903705663785918 l 1.8595467037362499 1.8436532376684038" fill="#ff1d02" stroke="none" /><path d="M 85.08716467003674 85.21462403516908 l -18.341693604852605 -18.18492793483752 a46.828459657701714,46.828459657701714 0 0,0 0.5708792400113845,-0.5659999595868966 l 18.026822444711243 18.49710790465309" fill="#b9ff1f" stroke="none" /><path d="M 85.60350026404147 84.71141617570332 l -2.390734137081425 -2.5388768052475057 a24.487334963325182,24.487334963325182 0 0,0 0.3085057052932748,-0.2855482750967046 l 2.346798660474197 2.579542826476576" fill="#ff2904" stroke="none" /><path d="M 85.86807049272753 84.46653392183569 l -3.2299578736915207 -3.550289508525184 a25.799706601466994,25.799706601466994 0 0,0 0.33015635530998055,-0.29522784876329755 l 3.1685364915581484 3.6052128871718825" fill="#ff3c05" stroke="none" /><path d="M 86.96720088162412 83.53348406188908 l -39.09839735512763 -49.399547814332756 a84.0,84.0 0 0,0 1.1383602214590214,-0.8851957935167807 l 38.244627189033366 50.06344465947034" fill="#4dd2ff" stroke="none" /><path d="M 88.4268655584334 82.4767994020092 l -1.558553166360606 -2.359848139211082 a23.8280684596577,23.8280684596577 0 0,0 0.3432539554576024,-0.22249306685098078 l 1.5178135786459777 2.3862550477659696" fill="#ff2003" stroke="none" /><path d="M 89.03521579738668 82.08984904055464 l -1.3157741043135982 -2.149218115133442 a23.52,23.52 0 0,0 0.3461553126556736,-0.20785631939976582 l 1.2786860351004905 2.1714884350691315" fill="#ff1b02" stroke="none" /><line stroke="#e1ed5e" stroke-width="0.3" x1="56.869717070023135" x2="54.33264160355391" y1="26.7553504044142" y2="22.446841604673864" /><path d="M 56.362301976729285 25.89364864446614 a86.0,86.0 0 0,1 42.16139366436587,-11.88097634709845" fill="none" id="id132" stroke="none" /><text fill="#e1ed5e" style="font-size:6.75px; font-family:Arial;" text-anchor="middle"><textPath startOffset="22.145653131862474" xlink:href="#id132">December</textPath></text><path d="M 89.65649057296885 81.72400993836675 l -1.9726008198250118 -3.485396637670889 a25.00488997555012,25.00488997555012 0 0,0 0.37537794710997074,-0.20821581952092388 l 1.9124786845589385 3.5187453726249593" fill="#ff3104" stroke="none" /><path d="M 90.28995756902619 81.37971332152246 l -1.4472473999808415 -2.7752877161857965 a24.12997555012225,24.12997555012225 0 0,0 0.3689275376124324,-0.1883770294176894 l 1.3993926406548267 2.79972269727632" fill="#ff2403" stroke="none" /><path d="M 91.5904679813234 80.7573450057729 l -3.1927435986799555 -7.305622169935414 a28.97281173594132,28.97281173594132 0 0,0 0.4574461021585064,-0.19525653958482045 l 3.066862421351018 7.359353359179638" fill="#ff6709" stroke="none" /><path d="M 92.25597844496254 80.48000691201159 l -0.5793815637754192 -1.460420020763924 a22.571149144254278,22.571149144254278 0 0,0 0.3613831623663679,-0.13979077059784195 l 0.5542261389155219 1.4701506794998065" fill="#ff0e01" stroke="none" /></svg>