<?xml version="1.0" encoding="utf-8" ?>
<svg baseProfile="full" height="200mm" version="1.1" viewBox="0,0,200,200" width="200mm" xmlns="http://www.w3.org/2000/svg" xmlns:ev="http://www.w3.org/2001/xml-events" xmlns:xlink="http://www.w3.org/1999/xlink"><defs /><rect fill="#1a1a1a" height="200" width="200" x="0" y="0" /><text alignment-baseline="middle" fill="#e1ed5e" style="dominant-baseline: central; font-size:9.0px; font-family:Arial;" text-anchor="middle" x="100.0" y="100.0">2024</text><line stroke="#e1ed5e" stroke-width="0.3" x1="100.0" x2="100.0" y1="15.0" y2="10.0" /><path d="M 100.0 14.0 a86.0,86.0 0 0,1 42.35913384403234,11.155469271406648" fill="none" id="id121" stroke="none" /><text fill="#e1ed5e" style="font-size:6.75px; font-family:Arial;" text-anchor="middle"><textPath startOffset="22.145653131862478" xlink:href="#id121">January</textPath></text><path d="M 101.44090949804482 79.04949213459386 l 0.10950183776298014 -1.5921326887237928 a22.595893840760194,22.595893840760194 0 0,0 0.38674594462554984,0.02993658206631725 l -0.13681677716376348 1.590018339662422" fill="#ff1302" stroke="none" /><path d="M 102.15924093988457 79.11130261209362 l 1.3407621361029762 -12.970657425435455 a34.03976982747822,34.03976982747822 0 0,0 0.5807251165218043,0.06507146058294633 l -1.5632231542255772 12.945730204345537" fill="#ffae10" stroke="none" /><path d="M 104.29559338865022 79.4440306129975 l 0.26244356862387247 -1.2558874815065286 a22.283015975316303,22.283015975316303 0 0,0 0.37375789036107826,0.08145879260990872 l -0.2839638756040848 1.2511972307629011" fill="#ff0e01" stroke="none" /><path d="M 104.9986988182912 79.60360301121754 l 0.7556420232137097 -3.083277318184636 a24.174522623651995,24.174522623651995 0 0,0 0.40221191635747416,0.10224069630060613 l -0.8084592327965783 3.069851390048762" fill="#ff2904" stroke="none" /><path d="M 106.72888874123014 80.10723608172694 l 20.186666223690402 -59.67829175481916 a84.0,84.0 0 0,0 1.3619769118199267,0.4737662697256382 l -21.208148907555344 59.32296705252493" fill="#4dd2ff" stroke="none" /><path d="M 107.74402155503746 80.48000691201159 l 1.6766736222427643 -4.226312812326992 a25.54675207408145,25.54675207408145 0 0,0 0.4062487564863515,0.16521783260331535 l -1.7489768399195553 4.196907723144384" fill="#ff3c05" stroke="none" /><path d="M 108.73861861582097 80.90454125486305 l 2.7594960019829835 -6.029996774070911 a27.631416084085334,27.631416084085334 0 0,0 0.4296175811031564,0.20108272061964244 l -2.862602296957645 5.981737821880735" fill="#ff5908" stroke="none" /><path d="M 109.06512990194946 81.05736502329252 l 4.4776404124154325 -9.356546327162869 a31.372763510041132,31.372763510041132 0 0,0 0.48379751976437324,0.23664961031963605 l -4.637598181441873 9.278302966746013" fill="#ff8b0c" stroke="none" /><path d="M 110.02825361518725 81.54914285379988 l 4.360260617066739 -8.022388429014471 a30.130749627206328,30.130749627206328 0 0,0 0.4523282826281052,0.2508988734820663 l -4.4973330878509445 7.946356640099259" fill="#ff7b0b" stroke="none" /><path d="M 110.34350942703115 81.72400993836675 l 6.078533892381124 -10.74018695396929 a33.3409963166285,33.3409963166285 0 0,0 0.4956814370995316,0.28618181114171515 l -6.262007797341053 10.634258245551404" fill="#ffa50f" stroke="none" /><line stroke="#e1ed5e" stroke-width="0.3" x1="143.13028292997686" x2="145.6673583964461" y1="26.7553504044142" y2="22.446841604673864" /><path d="M 143.63769802327073 25.89364864446614 a86.0,86.0 0 0,1 29.32050498858742,28.57503671076993" fill="none" id="id122" stroke="none" /><text fill="#e1ed5e" style="font-size:6.75px; font-family:Arial;" text-anchor="middle"><textPath startOffset="20.669276256404974" xlink:href="#id122">February</textPath></text><path d="M 110.65571695917076 81.90426304109057 l 5.276159018481413 -8.960071491918411 a31.398112094442517,31.398112094442517 0 0,0 0.46210133115857305,0.27747857211106186 l -5.42919310619742 8.868178919271427" fill="#ff8b0c" stroke="none" /><path d="M 111.27062007382361 82.28071324371311 l 1.1042581174223496 -1.7360771729861055 a23.05751061733751,23.05751061733751 0 0,0 0.3321537260062475,0.2152980322297796 l -1.1338974756856044 1.7168652990524313" fill="#ff1902" stroke="none" /><path d="M 111.8722381534696 82.67804972795209 l 7.2353468175713145 -10.556587237795872 a33.798116176990035,33.798116176990035 0 0,0 0.47575662147608483,0.3321150709115479 l -7.41549853022116 10.430827351079198" fill="#ffab0f" stroke="none" /><path d="M 112.16784306229584 82.88440491214696 l 6.22515951358254 -8.756466453937932 a31.743757058333344,31.743757058333344 0 0,0 0.44141808871946325,0.31955265504058017 l -6.374558612675971 8.648313027524278" fill="#ff900d" stroke="none" /><path d="M 112.7482090630111 83.31218511350987 l 1.5037253174996157 -1.9684247108381705 a23.477071995870862,23.477071995870862 0 0,0 0.318159105671794,0.24740244493853347 l -1.5372943678066355 1.9423212142788462" fill="#ff1f03" stroke="none" /><path d="M 115.16444852881244 85.47280134310134 l 15.563186839746429 -14.909180938947918 a42.55217995654139,42.55217995654139 0 0,0 0.5007868113363834,0.5318182394082372 l -15.816829484819072 14.639821239595186" fill="#e8ff1a" stroke="none" /><path d="M 115.6541949942343 86.00192230759917 l 8.24183656476416 -7.369901077898371 a32.056369741388494,32.056369741388494 0 0,0 0.36328863467157574,0.41335577828140124 l -8.367136263394327 7.227333021805672" fill="#ff940d" stroke="none" /><path d="M 116.35404254752997 86.82634096563983 l 7.829572403511549 -6.306949301918952 a31.05384570792717,31.05384570792717 0 0,0 0.3308470353590876,0.4180144212562753 l -7.936685869512196 6.171614936747999" fill="#ff870c" stroke="none" /><path d="M 116.7966241395341 87.39550010848427 l 23.342985136488213 -17.51701122655949 a50.18459589224632,50.18459589224632 0 0,0 0.5111611290168249,0.6934882428486198 l -23.640248285088862 17.113716674441992" fill="#92ff23" stroke="none" /><path d="M 117.01052211995028 87.68569379921539 l 0.3674689656628192 -0.2660191927413212 a21.4536514649288,21.4536514649288 0 0,0 0.21339732725829608,0.30017006526824247 l -0.37198139145107595 0.2596719007635747" fill="#ff0200" stroke="none" /><path d="M 117.42321728460499 88.27688183743584 l 12.071933840999028 -8.122535841513905 a35.550160657468204,35.550160657468204 0 0,0 0.33633086262289935,0.5092477930497902 l -12.209589142542653 7.914108170125056" fill="#ffc111" stroke="none" /><path d="M 117.62189284568427 88.57770195909679 l 3.7474265324000013 -2.4290366031787753 a25.465806134990387,25.465806134990387 0 0,0 0.23462775979073877,0.368873809026098 l -3.78857198381663 2.364349119474005" fill="#ff3b05" stroke="none" /><path d="M 117.81537515405839 88.88188828441811 l 9.229295119293491 -5.759762750154853 a31.879097174723924,31.879097174723924 0 0,0 0.2857460644058246,0.46674472155648467 l -9.326809148154718 5.600480912473814" fill="#ff920d" stroke="none" /><line stroke="#e1ed5e" stroke-width="0.3" x1="172.87174338648825" x2="177.1583165268699" y1="56.24261187166439" y2="53.66864786411523" /><path d="M 173.72905801456457 55.72781907015455 a86.0,86.0 0 0,1 12.242430191666344,42.057860355516425" fill="none" id="id123" stroke="none" /><text fill="#e1ed5e" style="font-size:6.75px; font-family:Arial;" text-anchor="middle"><textPath startOffset="22.145653131862474" xlink:href="#id123">March</textPath></text><path d="M 118.18653347947321 89.5 l 6.442658373204674 -3.7196705460665163 a28.43934109213303,28.43934109213303 0 0,0 0.24047038565425563,0.42488813002374726 l -6.505562123880306 3.6085256459436508" fill="#ff6409" stroke="none" /><path d="M 118.36410011445183 89.81374322990088 l 1.4120376283091807 -0.7832334697238955 a22.614715124056485,22.614715124056485 0 0,0 0.18539182741574275,0.3411000813282704 l -1.4252748053402648 0.7588785549210219" fill="#ff1302" stroke="none" /><path d="M 118.53625476483649 90.13048839642627 l 6.8727848676520535 -3.6593708308775597 a28.786280672754135,28.786280672754135 0 0,0 0.22849717677955325,0.4381734649568682 l -6.934590113406552 3.540851122816193" fill="#ff6909" stroke="none" /><path d="M 118.70294669586156 90.45014215332178 l 7.357531177852131 -3.756807843896502 a29.26116639519072,29.26116639519072 0 0,0 0.22458653995726882,0.4493235244733711 l -7.420937631021136 3.6299524632593805" fill="#ff6f0a" stroke="none" /><path d="M 118.8641267826498 90.77261029715802 l 6.881790454781866 -3.366228562351217 a28.660974781156504,28.660974781156504 0 0,0 0.21239248395408689,0.4438186036885453 l -6.938562196695865 3.2475974565975685" fill="#ff6709" stroke="none" /><path d="M 119.0197475246899 91.09779779509293 l 1.5901569188542457 -0.7442737297535872 a22.755717064729208,22.755717064729208 0 0,0 0.16255767014630432,0.3552178462582648 l -1.6026990538556014 0.7168669012806381" fill="#ff1502" stroke="none" /><path d="M 119.16976305983485 91.42560881287824 l 9.91049540601726 -4.432838538699037 a31.856701925670826,31.856701925670826 0 0,0 0.21900135184531444,0.5011179513282769 l -9.985130639879545 4.262058517594911" fill="#ff910d" stroke="none" /><path d="M 119.31412917781788 91.75594674310238 l 8.181875643474473 -3.492356187799801 a29.89604635710406,29.89604635710406 0 0,0 0.19741947525093112,0.47373487256574975 l -8.240620963261888 3.351388805792774" fill="#ff770b" stroke="none" /><path d="M 119.71291397450082 92.76114493625339 l 4.291891162901659 -1.576041883904519 a25.572115240675224,25.572115240675224 0 0,0 0.14778226462976346,0.4133732959813351 l -4.318313597575366 1.5021336315422669" fill="#ff3d05" stroke="none" /><path d="M 119.83427380445688 93.10060997987247 l 4.319686124667677 -1.502611067712424 a25.57356843574668,25.57356843574668 0 0,0 0.14067237984502626,0.4158728951679964 l -4.344843926085068 1.428236498070266" fill="#ff3d05" stroke="none" /><path d="M 119.94978838288452 93.4421083053983 l 4.3592674496062855 -1.43297779673927 a25.588751253134628,25.588751253134628 0 0,0 0.13359190554964198,0.41847474140451224 l -4.383224070933185 1.3579340216433708" fill="#ff3d05" stroke="none" /><path d="M 120.16314734710363 94.1308016681162 l 11.186656956464944 -3.256272803941578 a32.650948735417,32.650948735417 0 0,0 0.15203138107355205,0.5395057375351731 l -11.240906829613078 3.063759142503392" fill="#ff9c0e" stroke="none" /><path d="M 120.26092885502905 94.47779374421319 l 4.403037396859703 -1.20006742195172 a25.56364986993688,25.56364986993688 0 0,0 0.11176247462309498,0.4243803201927509 l -4.422989352287528 1.1243065973861706" fill="#ff3c05" stroke="none" /><path d="M 120.43855184770803 95.1765574152323 l 4.433859466220239 -1.0463787612545739 a25.55565783155358,25.55565783155358 0 0,0 0.09709828193841598,0.42783294605602257 l -4.451168609716322 0.970111481259525" fill="#ff3c05" stroke="none" /><path d="M 120.51834098615036 95.52812308129327 l 9.095236349818828 -1.9822644301696184 a30.308743015583865,30.308743015583865 0 0,0 0.10643029009548277,0.5093074663056165 l -9.127924350738677 1.8258405125785975" fill="#ff7d0b" stroke="none" /><path d="M 120.592083275326 95.88100663000786 l 8.830406161597594 -1.7663285422675319 a30.005331170923682,30.005331170923682 0 0,0 0.09669390531610361,0.505943371569048 l -8.859426359195854 1.6144826056651693" fill="#ff790b" stroke="none" /><path d="M 120.65975698304385 96.23510406497455 l 4.43411154653974 -0.8080428318066948 a25.507136388572153,25.507136388572153 0 0,0 0.07480293570193748,0.43144345502216674 l -4.447329299733912 0.7318063438639354" fill="#ff3c05" stroke="none" /><path d="M 120.7213421655516 96.59031103205396 l 13.849228731403635 -2.278885317502854 a35.035471304700316,35.035471304700316 0 0,0 0.09255788905797147,0.59428804430172 l -13.88630811259987 2.0408090912696926" fill="#ffba11" stroke="none" /><path d="M 120.86939407059847 97.66154086499901 l 5.521421863923932 -0.6186868364365891 a26.555976313934135,26.555976313934135 0 0,0 0.04687459558433728,0.4534691910732557 l -5.531228851989935 0.523813123080402" fill="#ff4a06" stroke="none" /><path d="M 120.93736805541906 98.37931529534042 l 6.5483100945376895 -0.506880615724684 a27.567898678635476,27.567898678635476 0 0,0 0.03247241011010717,0.4721417162865853 l -6.556046465812863 0.3943954752837645" fill="#ff5808" stroke="none" /><path d="M 120.98066250479742 99.09900007780936 l 4.703854091267874 -0.20200373411751846 a25.708189548067807,25.708189548067807 0 0,0 0.015149852019128402,0.44107141159842855 l -4.706628630283851 0.12122605795496996" fill="#ff3e05" stroke="none" /><path d="M 120.99303781780057 99.45929381324524 l 36.30019381193246 -0.9349642269431774 a57.31223249663291,57.31223249663291 0 0,0 0.016889555763741352,0.9837319502909155 l -36.310894799294864 0.31168536068319536" fill="#48ff2c" stroke="none" /><line stroke="#e1ed5e" stroke-width="0.3" x1="184.99686870605535" x2="189.99668451229388" y1="99.2704041080226" y2="99.22748670261217" /><path d="M 185.99683186730306 99.26182062694052 a86.0,86.0 0 0,1 -10.086455211305974,41.156179273409016" fill="none" id="id124" stroke="none" /><text fill="#e1ed5e" style="font-size:6.75px; font-family:Arial;" text-anchor="middle"><textPath startOffset="21.40746469413373" xlink:href="#id124">April</textPath></text><path d="M 120.99922638620191 100.18025310272382 l 4.496782440495945 0.038599468964533375 a25.496948102453153,25.496948102453153 0 0,0 -0.0075137908265349666,0.43764064651932294 l -4.495457218070742 -0.11578703145292733" fill="#ff3b05" stroke="none" /><path d="M 120.82617615685814 102.69636545807757 l 4.60742724634259 0.596523700946061 a25.645882731637816,25.645882731637816 0 0,0 -0.0602745209803986,0.4361164080951145 l -4.5965082088069815 -0.6755284172412606" fill="#ff3e05" stroke="none" /><path d="M 120.77682067341334 103.0534771498775 l 4.56985153581977 0.6716108042850895 a25.618939719445013,25.618939719445013 0 0,0 -0.06768097850640384,0.43456043306914677 l -4.557649065175099 -0.7499594192856869" fill="#ff3d05" stroke="none" /><path d="M 120.7213421655516 103.40968896794604 l 8.812954035055473 1.4501682327460488 a29.93146946069158,29.93146946069158 0 0,0 -0.08777785759344313,0.5062793565410619 l -8.786761359969796 -1.6012406222076985" fill="#ff780b" stroke="none" /><path d="M 120.592083275326 104.11899336999214 l 13.959985232992858 2.7923880187870576 a35.23652410361617,35.23652410361617 0 0,0 -0.1237343785711007,0.5921137938119664 l -13.909993143597394 -3.0316182638844333" fill="#ffbd11" stroke="none" /><path d="M 120.43855184770803 104.8234425847677 l 9.022892279115508 2.1293780098093382 a30.270751630217575,30.270751630217575 0 0,0 -0.12369562245713521,0.5047203508597885 l -8.985009130142076 -2.2839541852772265" fill="#ff7c0b" stroke="none" /><path d="M 120.35273937422433 105.17358676015961 l 7.627980174082328 1.9390027312672917 a28.87056625205932,28.87056625205932 0 0,0 -0.12622007986014278,0.4792782021554518 l -7.593570613417455 -2.069661437795547" fill="#ff6a09" stroke="none" /><path d="M 120.16314734710363 105.8691983318838 l 4.4812012385768485 1.3044123708230946 a25.667189322684372,25.667189322684372 0 0,0 -0.12677596817677939,0.4219959664114572 l -4.458148950396439 -1.3811459408252753" fill="#ff3e05" stroke="none" /><path d="M 119.83427380445688 106.89939002012753 l 25.043329420554695 8.711369963850938 a47.51520912822497,47.51520912822497 0 0,0 -0.2745922714346599,0.7680834542515489 l -24.89009697907609 -9.139988374483409" fill="#afff20" stroke="none" /><path d="M 119.58574465831526 107.57618678355244 l 0.28617328424410954 0.11069797404795316 a21.306837400056416,21.306837400056416 0 0,0 -0.13488377124975412,0.339995216150233 l -0.284230838028231 -0.11559420741175029" fill="#ff0000" stroke="none" /><path d="M 119.31412917781788 108.2440532568976 l 4.206498244901723 1.7955039669012982 a25.57367051497149,25.57367051497149 0 0,0 -0.17580816832493432,0.4022834945785805 l -4.175056194559822 -1.8674495312557233" fill="#ff3d05" stroke="none" /><path d="M 119.0197475246899 108.90220220490707 l 13.783466850316618 6.451358453989399 a36.21854080770024,36.21854080770024 0 0,0 -0.26839791410016767,0.5608484125766184 l -13.670689678256538 -6.6870193686311215" fill="#ffc912" stroke="none" /><path d="M 118.8641267826498 109.22738970284198 l 5.722772810141452 2.799294953242762 a27.37072844121806,27.37072844121806 0 0,0 -0.21007697074350634,0.4202946664707504 l -5.673875926186213 -2.897121475877258" fill="#ff5507" stroke="none" /><line stroke="#e1ed5e" stroke-width="0.3" x1="174.33088141563837" x2="178.70328620479359" y1="141.23008692659167" y2="143.65538615756765" /><path d="M 175.20536237346943 141.71514677278685 a86.0,86.0 0 0,1 -30.301960400862466,31.631185727798858" fill="none" id="id125" stroke="none" /><text fill="#e1ed5e" style="font-size:6.75px; font-family:Arial;" text-anchor="middle"><textPath startOffset="22.145653131862474" xlink:href="#id125">May</textPath></text><path d="M 118.36410011445183 110.18625677009912 l 9.468843373009957 5.25220780284392 a31.82795833141452,31.82795833141452 0 0,0 -0.2691230218642411,0.47551459276421565 l -9.377286986124338 -5.413979165707258" fill="#ff910d" stroke="none" /><path d="M 118.18653347947321 110.5 l 14.133116988917926 8.159758898040234 a37.319517796080476,37.319517796080476 0 0,0 -0.3250819490563427,0.5520602192000232 l -13.99096132973182 -8.401170285533807" fill="#ffd714" stroke="none" /><path d="M 118.00360718960297 110.81064883170644 l 16.348225981567012 9.816639979246169 a40.0691088734245,40.0691088734245 0 0,0 -0.3591566631287,0.5866554175496285 l -16.177301353982905 -10.095832512920355" fill="#fff917" stroke="none" /><path d="M 117.21940702142032 112.02048342749411 l 3.7575519107363453 2.6230630598816917 a25.582538180745935,25.582538180745935 0 0,0 -0.2544669508208873,0.35793963409889384 l -3.7119698613854974 -2.68717992069009" fill="#ff3d05" stroke="none" /><path d="M 117.01052211995028 112.31430620078461 l 3.667407426338765 2.6549201542732526 a25.527524517474316,25.527524517474316 0 0,0 -0.2600136161577176,0.3527584073788139 l -3.621291790597219 -2.7174848709209436" fill="#ff3c05" stroke="none" /><path d="M 116.79662413953412 112.60449989151573 l 7.18953290269095 5.395159523676191 a29.988722358866674,29.988722358866674 0 0,0 -0.3125225042813682,0.4091019902114766 l -7.0958584210552775 -5.517782427128545" fill="#ff790b" stroke="none" /><path d="M 116.1254893667686 113.45245675266167 l 12.068453897061165 10.067933470365128 a36.71657926615042,36.71657926615042 0 0,0 -0.4079132167721358,0.48052074367438163 l -11.893846116781914 -10.273620996489067" fill="#ffd013" stroke="none" /><path d="M 115.89218393027572 113.72728997021213 l 8.393886991002846 7.250439663184058 a32.0917182675724,32.0917182675724 0 0,0 -0.36368923267811337,0.4138115852760783 l -8.268186694366147 -7.39346352627143" fill="#ff950d" stroke="none" /><path d="M 115.41159269507618 114.26474011684316 l 3.345106490039728 3.09618062764059 a25.558077654964073,25.558077654964073 0 0,0 -0.3007871330161914,0.3194255118070019 l -3.2914635232872764 -3.153147599392089" fill="#ff3c05" stroke="none" /><path d="M 115.16444852881244 114.52719865689866 l 3.36537147908919 3.223949749184724 a25.660426716249834,25.660426716249834 0 0,0 -0.3074524785671862,0.31547332809497586 l -3.309532199371197 -3.2812457693474375" fill="#ff3e05" stroke="none" /><path d="M 114.65682725009322 115.03919595460226 l 11.568178247564811 11.869969982882079 a37.574647367650186,37.574647367650186 0 0,0 -0.4657959306527556,0.4462219648351105 l -11.362709831046743 -12.06680407802277" fill="#ffda14" stroke="none" /><path d="M 113.86319453409587 115.77377054828091 l 3.13616339784092 3.5683782491685254 a25.7506677622305,25.7506677622305 0 0,0 -0.3345385988259804,0.28896647386291696 l -3.074445319252084 -3.6216888554961604" fill="#ff3f05" stroke="none" /><path d="M 113.31354834802062 116.24036423190432 l 2.9153021509736625 3.5561946026887314 a25.598424369679698,25.598424369679698 0 0,0 -0.3422256153289003,0.27567273082874194 l -2.8538257652895096 -3.605715627310877" fill="#ff3d05" stroke="none" /><path d="M 112.45986205192187 116.90419585922612 l 20.09284971989944 27.259809588564973 a54.864728386202685,54.864728386202685 0 0,0 -0.7629305975926473,0.55230291712709 l -19.621938111932824 -27.60071327706514" fill="#61ff29" stroke="none" /><path d="M 111.27062007382361 117.71928675628689 l 2.4379663071230144 3.8328879702377403 a25.542544430939582,25.542544430939582 0 0,0 -0.37199172995065827,0.23215035187860225 l -2.371810448382641 -3.87417411895789" fill="#ff3c05" stroke="none" /><line stroke="#e1ed5e" stroke-width="0.3" x1="143.1302829299769" x2="145.66735839644613" y1="173.24464959558577" y2="177.55315839532614" /><path d="M 143.63769802327073 174.10635135553383 a86.0,86.0 0 0,1 -40.68552437913181,11.842963189579606" fill="none" id="id126" stroke="none" /><text fill="#e1ed5e" style="font-size:6.75px; font-family:Arial;" text-anchor="middle"><textPath startOffset="21.407464694133747" xlink:href="#id126">June</textPath></text><path d="M 110.65571695917076 118.09573695890943 l 3.0577259350442274 5.1926871204452185 a27.02608392114479,27.02608392114479 0 0,0 -0.4017974744961132,0.23197788006004366 l -2.9681359926877153 -5.2444118977814345" fill="#ff5107" stroke="none" /><path d="M 109.71004243097381 118.62028667847754 l 5.505409641766156 10.55734890355771 a32.906601160495086,32.906601160495086 0 0,0 -0.5031149456458673,0.25689407608269466 l -5.323367474406706 -10.650300931313241" fill="#ff9f0e" stroke="none" /><path d="M 109.06512990194946 118.94263497670748 l 3.526412048843159 7.368844897008464 a29.16917725688419,29.16917725688419 0 0,0 -0.45352693245025083,0.2122735043040061 l -3.399396402521402 -7.428294632883004" fill="#ff6e0a" stroke="none" /><path d="M 108.4095320186766 119.2426549942271 l 0.84580048727392 1.9353570370402697 a23.112104477788467,23.112104477788467 0 0,0 -0.3649125325633845,0.15575946111083203 l -0.8124528795401044 -1.9495911478105057" fill="#ff1a02" stroke="none" /><path d="M 108.07796709384702 119.3841803445677 l 3.47163305376253 8.330655525392457 a30.02507936489915,30.02507936489915 0 0,0 -0.47746387172909627,0.19418039999864112 l -3.328114720842993 -8.389023181970389" fill="#ff790b" stroke="none" /><path d="M 107.407793817531 119.65005319985036 l 2.718387796200698 7.210846593320995 a28.706227404050694,28.706227404050694 0 0,0 -0.4625951794578258,0.16987135750780671 l -2.594203465088745 -7.256448799837524" fill="#ff6709" stroke="none" /><path d="M 107.06938296918513 119.77432235084164 l 3.3438372751396632 9.353307983963056 a30.93305682886595,30.93305682886595 0 0,0 -0.5015489192015323,0.1744647493455119 l -3.1827825838931094 -9.409331165877159" fill="#ff850c" stroke="none" /><path d="M 106.72888874123015 119.89276391827305 l 2.890029686687708 8.543859244070223 a30.01941252922941,30.01941252922941 0 0,0 -0.4895698200206569,0.16093132393301554 l -2.742937129019317 -8.592211489405258" fill="#ff790b" stroke="none" /><path d="M 106.0420521117495 120.11202640906438 l 3.2922972053217 10.958986634881263 a32.442840947582695,32.442840947582695 0 0,0 -0.5347506935191321,0.15565813334330572 l -3.103686499420961 -11.013888462527088" fill="#ff990e" stroke="none" /><path d="M 105.69591212413111 120.21278271476187 l 1.2600686407536918 4.471539076829592 a25.645689905172848,25.645689905172848 0 0,0 -0.4247641873752596,0.11577136811156907 l -1.183123052443737 -4.492510939085304" fill="#ff3e05" stroke="none" /><path d="M 105.3480935250658 120.30758222061773 l 2.323695275511036 8.823449448281798 a30.124298323696824,30.124298323696824 0 0,0 -0.5012033514094622,0.1274039319878237 l -2.1718866308761764 -8.862038612104891" fill="#ff7b0b" stroke="none" /><path d="M 104.9986988182912 120.39639698878246 l 1.0680460416434374 4.357992321510612 a25.486961045230466,25.486961045230466 0 0,0 -0.42583595855502915,0.10049612672778661 l -0.993077929348529 -4.375684591884624" fill="#ff3b05" stroke="none" /><path d="M 104.29559338865022 120.5559693870025 l 3.7395364835580924 17.895035801271124 a39.28158744312532,39.28158744312532 0 0,0 -0.6612466292889411,0.13226784514971218 l -3.4317933687381927 -17.956593043083696" fill="#ffef16" stroke="none" /><path d="M 102.875027216393 120.80226474461374 l 0.6272608741750696 4.5385472158758295 a25.58168822979097,25.58168822979097 0 0,0 -0.4355248045536182,0.05638740545981784 l -0.549258247730676 -4.548646217536041" fill="#ff3d05" stroke="none" /><path d="M 102.51750503828377 120.84855314841334 l 1.025942142616534 8.496272683577015 a29.557990815237744,29.557990815237744 0 0,0 -0.5042650919006193,0.05650395534379332 l -0.8799411491151153 -8.51263239942778" fill="#ff730a" stroke="none" /><path d="M 102.15924093988457 120.88869738790638 l 0.5889247578593345 5.697312802816411 a26.727670167140865,26.727670167140865 0 0,0 -0.4567891663184837,0.04325840897226625 l -0.4910360281558355 -5.70658296729386" fill="#ff4d07" stroke="none" /><path d="M 101.08105385017728 120.97215588758144 l 0.8489166361757836 16.468755951907657 a37.490621033140926,37.490621033140926 0 0,0 -0.6430074245340035,0.027613505500152916 l -0.5660834510409505 -16.480902025833643" fill="#ffd914" stroke="none" /><line stroke="#e1ed5e" stroke-width="0.3" x1="101.45913802915013" x2="101.54496967792366" y1="184.9874750549273" y2="189.98673829345242" /><path d="M 101.47630435890484 185.9873277026323 a86.0,86.0 0 0,1 -42.54439059252881,-10.42667462771756" fill="none" id="id127" stroke="none" /><text fill="#e1ed5e" style="font-size:6.75px; font-family:Arial;" text-anchor="middle"><textPath startOffset="22.145653131862474" xlink:href="#id127">July</textPath></text><path d="M 100.36049292484886 120.99690560180557 l 0.1060186541305705 6.175055096416642 a27.175965139053556,27.175965139053556 0 0,0 -0.46651157897942197,0.004004440831348257 l -7.563375939187576e-16 -6.175965139053556" fill="#ff5307" stroke="none" /><path d="M 100.0 121.0 l 1.339748244430187e-15 10.93987462640634 a31.93987462640634,31.93987462640634 0 0,0 -0.5482904201608981,-0.004706413827353771 l 0.18779749531204462 -10.938262610773421" fill="#ff930d" stroke="none" /><path d="M 99.27912038922189 120.98762331915562 l -0.19684799294305985 5.73101453453706 a26.734394190095475,26.734394190095475 0 0,0 -0.4585257187245235,-0.019691067276772733 l 0.2951994722684221 -5.726790898834459" fill="#ff4d07" stroke="none" /><path d="M 98.91894614982273 120.97215588758144 l -0.245287171866888 4.758505605222932 a25.764823332676723,25.764823332676723 0 0,0 -0.4415055805987355,-0.02655987937374692 l 0.32693710459806985 -4.753593748024493" fill="#ff3f05" stroke="none" /><path d="M 98.55909050195518 120.95050786540614 l -0.31442108404711755 4.571613556102576 a25.58241324243397,25.58241324243397 0 0,0 -0.43786250037158825,-0.03389332676475348 l 0.3928525791939419 -4.565542462342768" fill="#ff3d05" stroke="none" /><path d="M 97.48249496171623 120.84855314841334 l -0.5516164282091149 4.568175334773393 a25.601359209310026,25.601359209310026 0 0,0 -0.43585970033660476,-0.056430764423772706 l 0.6299539504365137 -4.558032974149223" fill="#ff3d05" stroke="none" /><path d="M 97.12497278360702 120.80226474461374 l -1.0616730355042538 7.681737213077725 a28.7547557179514,28.7547557179514 0 0,0 -0.4883856885227207,-0.0717758777279922 l 1.1933838296346593 -7.66238026205085" fill="#ff6809" stroke="none" /><path d="M 96.76829788921471 120.74984581791261 l -1.4073163799033122 9.035980699632242 a30.144915887927596,30.144915887927596 0 0,0 -0.5106297499956658,-0.0840239310443764 l 1.5622236329520414 -9.010490770092199" fill="#ff7b0b" stroke="none" /><path d="M 96.05791012581884 120.62667999033965 l -2.3418580746856095 12.253591021784255 a33.47536741627764,33.47536741627764 0 0,0 -0.5635076204665046,-0.11271730604463714 l 2.5518621806830724 -12.211584319076756" fill="#ffa70f" stroke="none" /><path d="M 95.35216902796893 120.47920084513623 l -4.028006947815868 17.748141829236427 a39.199488409357684,39.199488409357684 0 0,0 -0.6549447653661694,-0.15456518130427735 l 4.332083866921925 -17.676380504285923" fill="#ffee16" stroke="none" /><path d="M 94.30408787586889 120.21278271476187 l -1.7838218227757239 6.33015434926787 a27.5766917504902,27.5766917504902 0 0,0 -0.45454265433671065,-0.13231074210179417 l 1.8922244894940412 -6.298599912863559" fill="#ff5808" stroke="none" /><path d="M 93.95794788825049 120.11202640906438 l -1.3084738387249975 4.355483851063153 a25.547784445584426,25.547784445584426 0 0,0 -0.4189342325339702,-0.129786896125484 l 1.3830487041306012 -4.33238036713102" fill="#ff3c05" stroke="none" /><path d="M 93.61358852112213 120.00534299687104 l -3.7688828472415583 11.805971839343348 a33.392959654077785,33.392959654077785 0 0,0 -0.5445871144841863,-0.17901660140550218 l 3.9709926993734883 -11.739534316535824" fill="#ffa50f" stroke="none" /><path d="M 93.27111125876986 119.89276391827306 l -3.3740666535109294 9.974828528750528 a31.530029912602807,31.530029912602807 0 0,0 -0.5112282472613838,-0.17783172209561454 l 3.544800672817335 -9.915438374086323" fill="#ff8d0d" stroke="none" /><path d="M 92.59220618246901 119.65005319985036 l -1.5992575913459373 4.242220764276929 a25.5336587714935,25.5336587714935 0 0,0 -0.4088154437619779,-0.15813859600312125 l 1.6718452976014435 -4.214142280135768" fill="#ff3c05" stroke="none" /><path d="M 91.92203290615298 119.3841803445677 l -4.334482948797875 10.401181164002248 a32.268199148036686,32.268199148036686 0 0,0 -0.5094763345192543,-0.2174651518707627 l 4.512394358487561 -10.325241362472081" fill="#ff970d" stroke="none" /><path d="M 91.59046798132341 119.24265499422711 l -1.8462119083725084 4.224494147848733 a25.610298169947868,25.610298169947868 0 0,0 -0.4013336131714619,-0.1795114204141206 l 1.9184589243996053 -4.192178976524758" fill="#ff3d05" stroke="none" /><path d="M 91.26138138417905 119.09545874513695 l -1.8904286280602816 4.1309277203602575 a25.54293784115859,25.54293784115859 0 0,0 -0.39714559457225146,-0.18588419131645972 l 1.9610629365040229 -4.097867297473271" fill="#ff3c05" stroke="none" /><path d="M 89.97174638481275 118.45085714620012 l -2.70718219948706 4.980910330770378 a26.669065459526347,26.669065459526347 0 0,0 -0.4003608515505248,-0.22207341547761408 l 2.7922872391936875 -4.933703999859616" fill="#ff4c07" stroke="none" /><line stroke="#e1ed5e" stroke-width="0.3" x1="58.13341422392154" x2="55.67067388415222" y1="173.97424548756322" y2="178.32567169271397" /><path d="M 57.64086615596768 174.84453072859336 a86.0,86.0 0 0,1 -31.369924170532247,-30.572349798747897" fill="none" id="id128" stroke="none" /><text fill="#e1ed5e" style="font-size:6.75px; font-family:Arial;" text-anchor="middle"><textPath startOffset="22.145653131862474" xlink:href="#id128">August</textPath></text><path d="M 89.65649057296885 118.27599006163327 l -2.2277814620482004 3.9362763815423865 a25.5229726944272,25.5229726944272 0 0,0 -0.37945068179969144,-0.21907595328124055 l 2.2950246117082918 -3.8974535309849743" fill="#ff3c05" stroke="none" /><path d="M 89.03521579738668 117.91015095944536 l -4.759241535648632 7.773863377595149 a30.115005858920675,30.115005858920675 0 0,0 -0.4385832882555198,-0.2737084093511913 l 4.891988952693865 -7.69101917140241" fill="#ff7a0b" stroke="none" /><path d="M 88.4268655584334 117.5232005979908 l -1.8530686028131615 2.805782047455246 a24.362480653409634,24.362480653409634 0 0,0 -0.34699563783808135,-0.2334741510607509 l 1.9009605287482485 -2.7735582223373743" fill="#ff2c04" stroke="none" /><path d="M 87.83215693770417 117.11559508785305 l -6.880570023739782 9.678383415780974 a32.87490418464295,32.87490418464295 0 0,0 -0.4571474430501195,-0.33093949456275734 l 7.045698477163855 -9.558843149845151" fill="#ff9f0e" stroke="none" /><path d="M 87.54013794807813 116.9041958592261 l -2.652728110828835 3.598935153524336 a25.470939573429142,25.470939573429142 0 0,0 -0.3497366331253702,-0.2624488895903855 l 2.7141177328649717 -3.5528672366699356" fill="#ff3b05" stroke="none" /><path d="M 87.2517909369889 116.68781488649013 l -2.791467256134997 3.6541202455834534 a25.598356685953878,25.598356685953878 0 0,0 -0.34690655935727555,-0.2697566388017824 l 2.8537837601275013 -3.605662555160878" fill="#ff3d05" stroke="none" /><path d="M 86.96720088162412 116.46651593811092 l -6.624864315483584 8.37029964537097 a31.674771348926644,31.674771348926644 0 0,0 -0.4234603645421133,-0.3411096944887312 l 6.767575450380959 -8.25534165708883" fill="#ff8f0d" stroke="none" /><path d="M 86.68645165197938 116.24036423190432 l -1.238221652863869 1.5104290844693973 a22.9530972532959,22.9530972532959 0 0,0 -0.30257173477097477,-0.25241610248260027 l 1.2639677217967364 -1.4889507980749268" fill="#ff1802" stroke="none" /><path d="M 86.40962598614128 116.0094264158162 l -5.912231052103336 6.964593313284209 a30.13564644854966,30.13564644854966 0 0,0 -0.39150584484646483,-0.3381734241699705 l 6.030916376712663 -6.862075756649516" fill="#ff7b0b" stroke="none" /><path d="M 85.86807049272751 115.53346607816431 l -6.372281809956027 7.004253968611788 a30.46918946490725,30.46918946490725 0 0,0 -0.38386859164802717,-0.35530303760410065 l 6.491580172918021 -6.8938331848753105" fill="#ff7f0b" stroke="none" /><path d="M 85.60350026404147 115.28858382429668 l -6.42420220419294 6.822280117000673 a30.370906037047867,30.370906037047867 0 0,0 -0.3764944033639422,-0.36067312177469957 l 6.540369093422197 -6.710994864920391" fill="#ff7e0b" stroke="none" /><path d="M 85.34317274990678 115.03919595460226 l -1.8933121483529203 1.9427050559067947 a23.712698624128116,23.712698624128116 0 0,0 -0.2890782115857104,-0.2866074724870038 l 1.9263822800685932 -1.9099175731911315" fill="#ff2203" stroke="none" /><path d="M 85.08716467003676 114.78537596483092 l -12.630805217296315 12.522850265841043 a38.78648417248206,38.78648417248206 0 0,0 -0.4647233978453195,-0.4768471460861302 l 12.843915416292443 -12.304180427687177" fill="#ffe915" stroke="none" /><path d="M 84.83555147118756 114.52719865689866 l -7.013366532998052 6.718646489842788 a30.71223562222694,30.71223562222694 0 0,0 -0.3614452317595728,-0.38384231063097646 l 7.127667598493878 -6.597262719267322" fill="#ff820c" stroke="none" /><path d="M 84.3458050057657 113.99807769240083 l -3.781251844650344 3.3812187158422726 a26.072524570372597,26.072524570372597 0 0,0 -0.2954748753531633,-0.3361961685771479 l 3.8387377839620997 -3.3158102694538245" fill="#ff4306" stroke="none" /><path d="M 84.1078160697243 113.72728997021213 l -5.230981052568917 4.5183968454141334 a27.912240796224,27.912240796224 0 0,0 -0.31009892964083957,-0.36529575938424075 l 5.307774545716869 -4.427934303580338" fill="#ff5d08" stroke="none" /><path d="M 83.8745106332314 113.45245675266167 l -1.4335766081104278 1.195940593404609 a22.866926831526712,22.866926831526712 0 0,0 -0.248871850551569,-0.30358319167605263 l 1.4538952779006267 -1.1711551200300612" fill="#ff1602" stroke="none" /><path d="M 83.4222238831116 112.89097897827486 l -10.504464290484645 8.16833496796511 a34.306594837859485,34.306594837859485 0 0,0 -0.35752049733204266,-0.4680058075697837 l 10.643136765170983 -7.986808247154457" fill="#ffb110" stroke="none" /><path d="M 83.20337586046588 112.60449989151573 l -12.715583643060704 9.542011020671877 a36.897674097247574,36.897674097247574 0 0,0 -0.37582561768834616,-0.5098796297940158 l 12.87751128033288 -9.322325081608982" fill="#ffd213" stroke="none" /><path d="M 82.78059297857968 112.02048342749411 l -14.776747752537798 10.315317551335188 a39.021044651379526,39.021044651379526 0 0,0 -0.3787090181018388,-0.5525477752667067 l 14.951646507454962 -10.06013504099843" fill="#ffec16" stroke="none" /><path d="M 82.37810715431573 111.42229804090323 l -0.5729350976090459 0.37136960826471216 a21.682766440311013,21.682766440311013 0 0,0 -0.19977293822895525,-0.31407624029899145 l 0.5792257274638911 -0.36147969328704876" fill="#ff0500" stroke="none" /><path d="M 82.18462484594161 111.11811171558189 l -0.7776284575843502 0.4852976706846905 a21.916635067634335,21.916635067634335 0 0,0 -0.1964482300508986,-0.3208834201305008 l 0.7858446520906535 -0.47187713442963264" fill="#ff0901" stroke="none" /><path d="M 81.99639281039703 110.81064883170644 l -4.645735423336497 2.789630638892956 a26.418938708372135,26.418938708372135 0 0,0 -0.23012944953483427,-0.39081011641332764 l 4.6929385830011014 -2.7094693541860697" fill="#ff4806" stroke="none" /><line stroke="#e1ed5e" stroke-width="0.3" x1="26.387840678322732" x2="22.057713659400548" y1="142.50000000000003" y2="145.00000000000006" /><path d="M 25.521815274538298 143.00000000000003 a86.0,86.0 0 0,1 -11.493303480769221,-40.785679425670985" fill="none" id="id129" stroke="none" /><text fill="#e1ed5e" style="font-size:6.75px; font-family:Arial;" text-anchor="middle"><textPath startOffset="21.40746469413373" xlink:href="#id129">September</textPath></text><path d="M 81.81346652052679 110.50000000000001 l -7.257040908081303 4.189854521800871 a29.379709043601736,29.379709043601736 0 0,0 -0.2484217176915876,-0.43893737185179316 l 7.327895990794269 -4.064660379849957" fill="#ff710a" stroke="none" /><path d="M 81.4637452351635 109.86951160357371 l -4.007844238999514 2.13395131454273 a25.54054662534372,25.54054662534372 0 0,0 -0.20273347792447086,-0.38876817533122526 l 4.043885785898934 -2.0648368961070016" fill="#ff3c05" stroke="none" /><path d="M 81.29705330413844 109.54985784667822 l -0.5913958048396744 0.3019709118130801 a21.664029690272347,21.664029690272347 0 0,0 -0.1662766755076954,-0.3326647353445464 l 0.5964923935591067 -0.29177432030478095" fill="#ff0500" stroke="none" /><path d="M 81.1358732173502 109.22738970284198 l -13.280489751836315 6.496153031451328 a35.78416085737245,35.78416085737245 0 0,0 -0.2651789364717225,-0.5541219873766079 l 13.390047946267948 -6.267218542009616" fill="#ffc412" stroke="none" /><path d="M 80.83023694016515 108.57439118712176 l -6.559791103798768 2.934111123554832 a28.186088463889494,28.186088463889494 0 0,0 -0.19376743679324038,-0.4433778154417174 l 6.609192422608976 -2.8210712383372654" fill="#ff6008" stroke="none" /><path d="M 80.68587082218212 108.24405325689762 l -1.9152987096497143 0.8175271284482253 a23.082479232293725,23.082479232293725 0 0,0 -0.1524258720734497,-0.36576660428591057 l 1.9290504262596495 -0.7845280147210334" fill="#ff1902" stroke="none" /><path d="M 80.5471966667186 107.91128576633889 l -1.6657047461484664 0.6774276192152612 a22.79818811046486,22.79818811046486 0 0,0 -0.1443248255131784,-0.36379284024716974 l 1.6770882466277692 -0.6487337617545261" fill="#ff1502" stroke="none" /><path d="M 80.41425534168474 107.57618678355246 l -4.244032051665009 1.6416827697764587 a25.550486828037283,25.550486828037283 0 0,0 -0.15472561610141725,-0.4104280792180316 l 4.271588351580862 -1.5685864103642821" fill="#ff3c05" stroke="none" /><path d="M 80.28708602549918 107.23885506374661 l -0.5706437200891632 0.2095482782558656 a21.607901913302793,21.607901913302793 0 0,0 -0.12487291913836099,-0.34929177931029065 l 0.5741568092714675 -0.1997215425646535" fill="#ff0400" stroke="none" /><path d="M 80.16572619554312 106.89939002012753 l -14.90558407418663 5.184935885200214 a36.781634792577194,36.781634792577194 0 0,0 -0.2023245255687477,-0.5981365091318109 l 14.992394021327744 -4.928297701594241" fill="#ffd013" stroke="none" /><path d="M 79.83685265289637 105.86919833188381 l -8.782756365631736 2.556532376772633 a30.14727648929076,30.14727648929076 0 0,0 -0.14037362642702675,-0.4981364789375909 l 8.825348484133338 -2.4053879739320463" fill="#ff7b0b" stroke="none" /><path d="M 79.73907114497094 105.5222062557868 l -6.960829294647335 1.8972049776890851 a28.21474401462649,28.21474401462649 0 0,0 -0.12335287128306767,-0.4683909441728368 l 6.992371646735136 -1.7774335291434458" fill="#ff6108" stroke="none" /><path d="M 79.48165901384964 104.47187691870673 l -8.886046196213941 1.9366724098324062 a30.09464221529656,30.09464221529656 0 0,0 -0.10567846708941034,-0.5057097210585613 l 8.91798237412772 -1.7838462374884358" fill="#ff7a0b" stroke="none" /><path d="M 79.34024301695615 103.76489593502545 l -9.328027445829 1.6998773335732291 a30.481649591676288,30.481649591676288 0 0,0 -0.0893913311067212,-0.5155854430017424 l 9.355833594427954 -1.5394988576508941" fill="#ff7f0b" stroke="none" /><path d="M 79.0935383218832 101.97986365728391 l -11.722677925452697 1.1101497875626558 a32.77512676342473,32.77512676342473 0 0,0 -0.04823621113713229,-0.5605778906198478 l 11.74000775928757 -0.908750849567146" fill="#ff9d0e" stroke="none" /><path d="M 79.03789590574601 101.26102812881392 l -10.754078517886846 0.6469386589033359 a31.77352005601043,31.77352005601043 0 0,0 -0.028079334743298268,-0.5447315925654244 l 10.763599442086717 -0.4622352729611807" fill="#ff900d" stroke="none" /><line stroke="#e1ed5e" stroke-width="0.3" x1="15.003131293944662" x2="10.003315487706104" y1="100.72959589197737" y2="100.7725132973878" /><path d="M 14.003168132696942 100.73817937305945 a86.0,86.0 0 0,1 10.791469493833604,-42.45332614584628" fill="none" id="id130" stroke="none" /><text fill="#e1ed5e" style="font-size:6.75px; font-family:Arial;" text-anchor="middle"><textPath startOffset="22.145653131862435" xlink:href="#id130">October</textPath></text><path d="M 79.00077361379809 99.81974689727619 l -16.15138114767951 -0.1386401818619905 a37.151976166328495,37.151976166328495 0 0,0 0.01094845455952635,-0.6376925898570175 l 16.146621261521314 0.41587968768806044" fill="#ffd513" stroke="none" /><path d="M 79.00696218219943 99.45929381324524 l -8.167196228134292 -0.21035800379723366 a29.169904816986094,29.169904816986094 0 0,0 0.01718984297058487,-0.5004635223247833 l 8.162381698166858 0.35052779068615547" fill="#ff6e0a" stroke="none" /><path d="M 79.03789590574601 98.7389718711861 l -2.669804642239379 -0.16060881756734885 a23.67463119326821,23.67463119326821 0 0,0 0.02788650459997502,-0.4054636566371453 l 2.6666541764743403 0.20641589835881913" fill="#ff2203" stroke="none" /><path d="M 79.0935383218832 98.0201363427161 l -23.57723718808428 -2.2327888748726523 a44.68272491887155,44.68272491887155 0 0,0 0.07887055762583402,-0.7630010994278068 l 23.535434237976784 2.637194496583372" fill="#cfff1d" stroke="none" /><path d="M 79.22317932658666 96.9465228501225 l -4.753806849001054 -0.6986459004736219 a25.80487103384242,25.80487103384242 0 0,0 0.06817217812009616,-0.43771428695187964 l 4.74111317874269 0.7801483693569515" fill="#ff4006" stroke="none" /><path d="M 79.34024301695615 96.23510406497455 l -1.0244395566974625 -0.18668701310741656 a22.041310926759852,22.041310926759852 0 0,0 0.07102939206550457,-0.37165579345089717 l 1.0210838723497986 0.20424537159162826" fill="#ff0b01" stroke="none" /><path d="M 79.407916724674 95.88100663000787 l -29.287416015378383 -5.858303444998822 a50.86758202653049,50.86758202653049 0 0,0 0.17862342587931682,-0.8547777552406011 l 29.1825348786747 6.360197651524832" fill="#8aff24" stroke="none" /><path d="M 79.56144815229197 95.17655741523228 l -14.992953321698664 -3.5382961602255376 a36.404810580597925,36.404810580597925 0 0,0 0.14876127822032126,-0.6069967800495778 l 14.930004516962045 3.7951487648832334" fill="#ffcc13" stroke="none" /><path d="M 79.64726062577567 94.8264132398404 l -8.95829289516527 -2.277163022819141 a30.243185761849826,30.243185761849826 0 0,0 0.13222107556736012,-0.5020649603074414 l 8.917882338793184 2.430608487499367" fill="#ff7c0b" stroke="none" /><path d="M 79.73907114497095 94.47779374421319 l -4.4699808190515 -1.21831314935427 a25.633035231096116,25.633035231096116 0 0,0 0.11935413512390203,-0.42354571959548803 l 4.448408191853016 1.2948667928527713" fill="#ff3d05" stroke="none" /><path d="M 79.94057633289273 93.78553927170692 l -18.289831083589547 -5.666236422458101 a40.147432106197144,40.147432106197144 0 0,0 0.20959881570362832,-0.656565304906692 l 18.189867552108662 5.979370761056185" fill="#fffa17" stroke="none" /><path d="M 80.28708602549916 92.7611449362534 l -27.815040760869582 -10.214068245850873 a50.631126921866056,50.631126921866056 0 0,0 0.3066059899218194,-0.8133088152505527 l 27.635604087133324 10.690045341295571" fill="#8dff24" stroke="none" /><path d="M 80.5471966667186 92.08871423366112 l -10.952981937449842 -4.4544824011283914 a32.824137464697586,32.824137464697586 0 0,0 0.21675521627311772,-0.5201336120896387 l 10.874900876640245 4.641848522659294" fill="#ff9e0e" stroke="none" /><path d="M 80.9802524753101 91.09779779509293 l -22.6680028508052 -10.609769908739516 a46.028095627923975,46.028095627923975 0 0,0 0.3410917331576182,-0.7127505358073094 l 22.482531859687676 10.997332946611913" fill="#c0ff1e" stroke="none" /><path d="M 81.29705330413844 90.45014215332179 l -10.342550500174537 -5.280979978979064 a32.612798990210685,32.612798990210685 0 0,0 0.2588709733243023,-0.49641922476662154 l 10.250371457875294 5.457745446850172" fill="#ff9b0e" stroke="none" /><path d="M 81.46374523516351 90.13048839642627 l -12.14246471199621 -6.465178532093197 a34.75637971029849,34.75637971029849 0 0,0 0.28492725703155036,-0.5242340609122784 l 12.029692105349309 6.6726674264800945" fill="#ffb711" stroke="none" /><line stroke="#e1ed5e" stroke-width="0.3" x1="26.387840678322718" x2="22.05771365940052" y1="57.49999999999999" y2="54.99999999999999" /><path d="M 25.521815274538284 56.99999999999999 a86.0,86.0 0 0,1 29.574782752854787,-30.34633250058573" fill="none" id="id131" stroke="none" /><text fill="#e1ed5e" style="font-size:6.75px; font-family:Arial;" text-anchor="middle"><textPath startOffset="21.40746469413373" xlink:href="#id131">November</textPath></text><path d="M 81.99639281039701 89.18935116829357 l -17.354185153804437 -10.420689558620063 a41.24249276224792,41.24249276224792 0 0,0 0.3696742077891261,-0.6038350363282574 l 17.172742981559917 10.717061711072864" fill="#f7ff18" stroke="none" /><path d="M 82.18462484594161 88.88188828441811 l -5.408161948952948 -3.3750930420749814 a27.374909309846338,27.374909309846338 0 0,0 0.2522171735619517,-0.3965272889984176 l 5.349427083765107 3.4674340057520707" fill="#ff5507" stroke="none" /><path d="M 82.78059297857968 87.97951657250589 l -12.36333859242437 -8.630570522775033 a36.07776139549645,36.07776139549645 0 0,0 0.3588618873503545,-0.5047841860636654 l 12.213361606544044 8.84153193554822" fill="#ffc812" stroke="none" /><path d="M 82.98947788004972 87.6856937992154 l -4.16069723700559 -3.012023935770586 a26.13650559112719,26.13650559112719 0 0,0 0.26621646481325406,-0.361173762871628 l 4.108378752608517 3.0830040079110774" fill="#ff4406" stroke="none" /><path d="M 83.42222388311158 87.10902102172516 l -10.224688648704264 -7.9507797367088395 a33.952187320472234,33.952187320472234 0 0,0 0.3617259074635984,-0.4570288674271563 l 10.086696310599104 8.125128548050679" fill="#ffad10" stroke="none" /><path d="M 83.8745106332314 86.54754324733833 l -3.8850986365591087 -3.2410874609388354 a26.0595097929788,26.0595097929788 0 0,0 0.2895154908115021,-0.3410485201996024 l 3.828888582240492 3.3073027635879946" fill="#ff4306" stroke="none" /><path d="M 84.34580500576568 86.00192230759919 l -8.805354519159032 -7.873802307542398 a32.81232538437434,32.81232538437434 0 0,0 0.3790640751892392,-0.41665782088515574 l 8.668892743127927 8.023797703985212" fill="#ff9e0e" stroke="none" /><path d="M 84.83555147118756 85.47280134310135 l -2.589727457606585 -2.4809003223819923 a24.58630097932069,24.58630097932069 0 0,0 0.29458275415600177,-0.30226785708826387 l 2.5467579022997806 2.5249908715379865" fill="#ff2f04" stroke="none" /><path d="M 85.08716467003674 85.21462403516908 l -24.865246082337062 -24.652723888576496 a56.01481483403231,56.01481483403231 0 0,0 0.6828688185683581,-0.6770323680103254 l 24.43838534363873 25.075936266815493" fill="#55ff2b" stroke="none" /><path d="M 85.60350026404147 84.71141617570332 l -3.609292800009275 -3.832943877430515 a26.264831743154843,26.264831743154843 0 0,0 0.3308996447946198,-0.3062757711770451 l 3.542963383900702 3.894337394739926" fill="#ff4606" stroke="none" /><path d="M 85.86807049272753 84.46653392183569 l -4.751029974564409 -5.222214199997222 a28.06001465790703,28.06001465790703 0 0,0 0.35908129935370836,-0.3210927120872548 l 4.660683648387308 5.303002441967878" fill="#ff5f08" stroke="none" /><path d="M 88.4268655584334 82.4767994020092 l -0.7507595025485906 -1.1367455748855808 a22.362288637803662,22.362288637803662 0 0,0 0.3221387432643365,-0.20880644141406215 l 0.731135127027228 1.1494658580035493" fill="#ff0f01" stroke="none" /><path d="M 89.03521579738668 82.08984904055464 l -0.22813267635038412 -0.3726375819821285 a21.436924805343295,21.436924805343295 0 0,0 0.3154976789272863,-0.18944729121123294 l 0.22170224086566356 0.3764988737292848" fill="#ff0200" stroke="none" /><line stroke="#e1ed5e" stroke-width="0.3" x1="56.869717070023135" x2="54.33264160355391" y1="26.7553504044142" y2="22.446841604673864" /><path d="M 56.362301976729285 25.89364864446614 a86.0,86.0 0 0,1 42.16139366436587,-11.88097634709845" fill="none" id="id132" stroke="none" /><text fill="#e1ed5e" style="font-size:6.75px; font-family:Arial;" text-anchor="middle"><textPath startOffset="22.145653131862474" xlink:href="#id132">December</textPath></text><path d="M 89.65649057296885 81.72400993836675 l -0.9616570527914017 -1.6991558680833259 a22.952412597589312,22.952412597589312 0 0,0 0.34456578415376743,-0.19112483212933212 l 0.9323470804815316 1.715413615645804" fill="#ff1802" stroke="none" /></svg>