<?xml version="1.0" encoding="utf-8" ?>
<svg baseProfile="full" height="200mm" version="1.1" viewBox="0,0,200,200" width="200mm" xmlns="http://www.w3.org/2000/svg" xmlns:ev="http://www.w3.org/2001/xml-events" xmlns:xlink="http://www.w3.org/1999/xlink"><defs /><rect fill="#1a1a1a" height="200" width="200" x="0" y="0" /><text alignment-baseline="middle" fill="#e1ed5e" style="dominant-baseline: central; font-size:9.0px; font-family:Arial;" text-anchor="middle" x="100.0" y="100.0">2019</text><line stroke="#e1ed5e" stroke-width="0.3" x1="100.0" x2="100.0" y1="15.0" y2="10.0" /><path d="M 100.0 14.0 a86.0,86.0 0 0,1 42.46469731375804,11.215312516191453" fill="none" id="id61" stroke="none" /><text fill="#e1ed5e" style="font-size:6.75px; font-family:Arial;" text-anchor="middle"><textPath startOffset="22.20632615414155" xlink:href="#id61">January</textPath></text><path d="M 100.0 79.0 l 0.0 -9.46097051311818 a30.46097051311818,30.46097051311818 0 0,0 0.5243355342946816,0.004513121482310351 l -0.16285505502215328 9.459568768244429" fill="#ff6108" stroke="none" /><path d="M 101.80526077348638 79.07773832637324 l 5.415782320459128 -62.76678502088029 a84.0,84.0 0 0,0 1.4394994916390231,0.13669782193928715 l -6.4954069391883955 62.66426165442583" fill="#4dd2ff" stroke="none" /><path d="M 102.52436894288641 79.15227682838746 l 0.36942413389860723 -3.050921735562429 a24.07320640817274,24.07320640817274 0 0,0 0.4109471397581173,0.05335273300248615 l -0.4218860021645707 3.0441106793958057" fill="#ff0400" stroke="none" /><path d="M 103.2404852339499 79.25152402106235 l 1.1328531731503066 -7.253536169372281 a28.34146737868586,28.34146737868586 0 0,0 0.4813606509116694,0.07942863185763727 l -1.2575430302008512 7.232961274575019" fill="#ff4306" stroke="none" /><path d="M 103.59715602781102 79.31037775812273 l 0.4833234718584267 -2.77991279112477 a23.821615973995822,23.821615973995822 0 0,0 0.403384898265047,0.07371601178655603 l -0.5311034912263746 2.7711812979874755" fill="#ff0000" stroke="none" /><path d="M 105.36241919743992 79.69619591428918 l 1.868691658564566 -7.075453808275687 a28.318063617367077,28.318063617367077 0 0,0 0.4702175503082447,0.12852821907011128 l -1.9902070980965216 7.042239048379281" fill="#ff4206" stroke="none" /><path d="M 107.08798089147638 80.2323363322302 l 1.9886501298490964 -5.546144596269565 a26.891896912003716,26.891896912003716 0 0,0 0.4343907964787397,0.1599897963178539 l -2.0838232521004127 5.511091532145387" fill="#ff2e04" stroke="none" /><path d="M 110.36928655335952 81.73862282372117 l 5.6184824772637825 -9.894723918338032 a32.37861620617599,32.37861620617599 0 0,0 0.4822922355972821,0.2793747926677265 l -5.787971445326393 9.796544968280255" fill="#ff7c0b" stroke="none" /><line stroke="#e1ed5e" stroke-width="0.3" x1="143.23703022742887" x2="145.7803849466894" y1="26.81831364943548" y2="22.513508569990506" /><path d="M 143.74570117128098 25.957352633546492 a86.0,86.0 0 0,1 28.547481713284135,27.462654790039103" fill="none" id="id62" stroke="none" /><text fill="#e1ed5e" style="font-size:6.75px; font-family:Arial;" text-anchor="middle"><textPath startOffset="19.985693538727396" xlink:href="#id62">February</textPath></text><path d="M 110.99172775467656 82.1063720568725 l 8.269444031455409 -13.461974140728124 a36.799001625261205,36.799001625261205 0 0,0 0.5368813957048567,0.3361950807367874 l -8.49994457953253 13.317634718668392" fill="#ffb811" stroke="none" /><path d="M 111.2981086023043 82.29822771554956 l 2.414390331451329 -3.782844488183931 a25.487671232876714,25.487671232876714 0 0,0 0.3677907056919559,0.23922130574610712 l -2.4791480629275653 3.740724258278296" fill="#ff1902" stroke="none" /><path d="M 112.19680574252982 82.90503203632743 l 5.560350145218783 -7.793352588036011 a30.573601114464825,30.573601114464825 0 0,0 0.42578061151696495,0.30934772186720233 l -5.693676073089537 7.696485631352134" fill="#ff6309" stroke="none" /><path d="M 115.19652480421416 85.50635884689758 l 13.767903282684944 -13.131097548994873 a40.02579521708846,40.02579521708846 0 0,0 0.4712230734182198,0.5026679196439192 l -13.991893678073627 12.892160212472898" fill="#ffe215" stroke="none" /><path d="M 116.82858285166822 87.43820079747576 l 10.1510699439596 -7.5773286111348925 a33.6672858137915,33.6672858137915 0 0,0 0.34266465302842114,0.4673942016364839 l -10.279997209501648 7.401471965826915" fill="#ff8e0d" stroke="none" /><line stroke="#e1ed5e" stroke-width="0.3" x1="172.23445277983987" x2="176.4835382374775" y1="55.19839476539836" y2="52.563006222186495" /><path d="M 173.08426987136738 54.67131705675599 a86.0,86.0 0 0,1 12.851231095245387,41.99856678651699" fill="none" id="id63" stroke="none" /><text fill="#e1ed5e" style="font-size:6.75px; font-family:Arial;" text-anchor="middle"><textPath startOffset="22.20632615414155" xlink:href="#id63">March</textPath></text><path d="M 118.3937258080291 89.86733742301442 l 9.233590566412751 -5.086563677200032 a31.541931739029486,31.541931739029486 0 0,0 0.25788067688549554,0.47781372898165575 l -9.31977934251671 4.926868964885918" fill="#ff700a" stroke="none" /><path d="M 119.196687751892 91.48605970444005 l 28.966183893840483 -12.846818339172167 a52.687230090550266,52.687230090550266 0 0,0 0.3605544969842062,0.8322094900189526 l -29.18302910066737 12.346309704566611" fill="#85ff25" stroke="none" /><path d="M 120.18372546131832 94.20196356495316 l 11.263896568104176 -3.2357001103502654 a32.71943348038077,32.71943348038077 0 0,0 0.15084162002260593,0.5426575637977202 l -11.317924958693146 3.0413312431335933" fill="#ff810b" stroke="none" /><path d="M 120.28053869075195 94.5502522615342 l 9.213118644607677 -2.4757316984170368 a30.53995820756907,30.53995820756907 0 0,0 0.13205429665594892,0.5088590733531972 l -9.254369273133928 2.316776199514989" fill="#ff6209" stroke="none" /><path d="M 120.37134235888165 94.90015583598534 l 9.261464005787358 -2.3185523235563226 a30.547271882981192,30.547271882981192 0 0,0 0.12330508081865339,0.5111791653426178 l -9.300001886866832 2.1587879265542984" fill="#ff6209" stroke="none" /><path d="M 120.45610955862082 95.25157060432595 l 7.2781384461645136 -1.6894574427515487 a28.471650801021593,28.471650801021593 0 0,0 0.10670851092182533,0.47835333102622263 l -7.306141344088377 1.5639259421753622" fill="#ff4506" stroke="none" /><path d="M 120.67395015179393 96.31383870115 l 13.265504675992043 -2.3652369086375296 a34.47471557928953,34.47471557928953 0 0,0 0.09913637611681242,0.5851085036299134 l -13.304252913629078 2.1365426166917785" fill="#ff990e" stroke="none" /><path d="M 120.73433829027371 96.67025291283417 l 8.321657109024178 -1.336382822120932 a29.428279544926863,29.428279544926863 0 0,0 0.07601479673967067,0.500842534768133 l -8.34342779920315 1.1929411749607168" fill="#ff5207" stroke="none" /><path d="M 120.83666639777658 97.38593545837742 l 11.616671315147695 -1.457369811317421 a32.707731599721384,32.707731599721384 0 0,0 0.06527473739988968,0.559234087431907 l -11.640036405551173 1.2571919855606613" fill="#ff800b" stroke="none" /><path d="M 120.91429891909075 98.10471618934814 l 7.294025634169082 -0.6609950805619146 a28.323914557696774,28.323914557696774 0 0,0 0.03982277131278687,0.4859386773968773 l -7.304322889301364 0.5353424859572685" fill="#ff4206" stroke="none" /><path d="M 120.98425023603335 99.18683210126433 l 14.625150303813541 -0.5667442299569837 a35.636127234734154,35.636127234734154 0 0,0 0.01847700198806161,0.6131617428604984 l -14.632739000257247 0.31491233967148624" fill="#ffa80f" stroke="none" /><line stroke="#e1ed5e" stroke-width="0.3" x1="184.98032266829074" x2="189.97916517819016" y1="98.17113171792111" y2="98.06355123074" /><path d="M 185.9800911702706 98.14961562048488 a86.0,86.0 0 0,1 -9.607161424134198,41.387399972396054" fill="none" id="id64" stroke="none" /><text fill="#e1ed5e" style="font-size:6.75px; font-family:Arial;" text-anchor="middle"><textPath startOffset="21.466115282336823" xlink:href="#id64">April</textPath></text><path d="M 120.99824983174949 100.27111621757518 l 14.633444827024874 0.1889378516489247 a35.634664499651734,35.634664499651734 0 0,0 -0.01319829460567054,0.6132728886226947 l -14.628024469734196 -0.44080055606173424" fill="#ffa80f" stroke="none" /><path d="M 120.9764740272857 100.99374915477107 l 10.99913372259625 0.5210780336974628 a32.01146970048758,32.01146970048758 0 0,0 -0.030812791242863975,0.5501830865036944 l -10.988534580465856 -0.7103328365365804" fill="#ff770a" stroke="none" /><path d="M 120.95626037817324 101.35467743843564 l 12.032211815459625 0.7777993586040161 a33.05732528442071,33.05732528442071 0 0,0 -0.041594680731752265,0.5675263714570578 l -12.017040576063536 -0.984798866557844" fill="#ff850c" stroke="none" /><path d="M 120.92983693683757 101.71520430193887 l 7.296528943733832 0.5979519989229658 a28.320989087531924,28.320989087531924 0 0,0 -0.04399922394348918,0.4855277698202062 l -7.285155123513267 -0.7234611572917425" fill="#ff4206" stroke="none" /><path d="M 120.81339534386255 102.79330883721812 l 10.156859608481613 1.3631243357476273 a31.24792198746227,31.24792198746227 0 0,0 -0.07613474201179599,0.5324862083055381 l -10.131890815453215 -1.5377560160335748" fill="#ff6c0a" stroke="none" /><path d="M 120.70491114924044 103.5080841355445 l 8.660296595160586 1.4673354005533819 a29.783724169955885,29.783724169955885 0 0,0 -0.08999444090342831,0.5047366174010067 l -8.63375571191797 -1.616190768687607" fill="#ff5708" stroke="none" /><path d="M 120.5718875245553 104.21870165774334 l 8.911300337720643 1.8274510524382963 a30.096749477594614,30.096749477594614 0 0,0 -0.108442832404372,0.5066088105153966 l -8.878523466591828 -1.980573682369862" fill="#ff5c08" stroke="none" /><path d="M 120.41448212921028 104.9243191809786 l 7.121132563483989 1.7177379005113196 a28.325377292779198,28.325377292779198 0 0,0 -0.11841179260141013,0.4729962502448962 l -7.090509456587518 -1.8400619901536117" fill="#ff4206" stroke="none" /><path d="M 120.32669344350535 105.2749913415812 l 7.089093620034685 1.8396945656348112 a28.323914557696774,28.323914557696774 0 0,0 -0.12652956715184163,0.4708635895263345 l -7.056375976541067 -1.961449088336694" fill="#ff4206" stroke="none" /><path d="M 120.02730092923936 106.31721596034902 l 6.998627961132612 2.207578765247576 a28.338541908521012,28.338541908521012 0 0,0 -0.15074451076583956,0.4639438991035654 l -6.959591199350525 -2.3277215643289364" fill="#ff4306" stroke="none" /><path d="M 119.79798401119884 107.00284435728193 l 8.880823104164415 3.141280542899622 a30.420013930810306,30.420013930810306 0 0,0 -0.17886350953990954,0.4921555594331896 l -8.82543533361928 -3.2936838993389426" fill="#ff6008" stroke="none" /><path d="M 119.54520255179757 107.68017299344265 l 6.2651745166036035 2.461863671870657 a27.731506849315068,27.731506849315068 0 0,0 -0.1784025751450324,0.4427805608212709 l -6.221869327201179 -2.5693436005347414" fill="#ff3a05" stroke="none" /><path d="M 119.41010516605496 108.01547362559984 l 6.788354170334013 2.8032755798098523 a28.34439284885071,28.34439284885071 0 0,0 -0.19010856768858847,0.4493604968527727 l -6.739094621453115 -2.9197106023287884" fill="#ff4306" stroke="none" /><path d="M 119.12269723197855 108.67885076344098 l 15.987675983894016 7.2560189723878885 a38.5572091943348,38.5572091943348 0 0,0 -0.2794945687235425,0.6020064360264071 l -15.860406798330644 -7.530145475693126" fill="#ffcf13" stroke="none" /><path d="M 118.64920377521936 109.65438752849418 l 9.112433096110781 4.717357453846298 a31.261086603204085,31.261086603204085 0 0,0 -0.25149915103693943,0.4757416138321917 l -9.029881436848948 -4.873514082764624" fill="#ff6c0a" stroke="none" /><line stroke="#e1ed5e" stroke-width="0.3" x1="174.80103733775053" x2="179.2010983576182" y1="140.37084112569926" y2="142.7455964860345" /><path d="M 175.68104954172406 140.8457921977663 a86.0,86.0 0 0,1 -30.038265399797805,32.042727171017184" fill="none" id="id65" stroke="none" /><text fill="#e1ed5e" style="font-size:6.75px; font-family:Arial;" text-anchor="middle"><textPath startOffset="22.206326154141568" xlink:href="#id65">May</textPath></text><path d="M 118.12598468904814 110.60418214915192 l 8.96409272989843 5.244232174992712 a31.385419085210124,31.385419085210124 0 0,0 -0.2768180875622269,0.46396303730093985 l -8.872493766637977 -5.397757306179756" fill="#ff6e0a" stroke="none" /><path d="M 117.94076556474637 110.91462005526583 l 39.42886244013541 23.987329369659665 a67.15221732064082,67.15221732064082 0 0,0 -0.6092796154420743,0.9823527389455848 l -39.01011818502537 -24.662478439970524" fill="#37ff7c" stroke="none" /><path d="M 116.93607887273984 112.41649034213515 l 6.005682206253904 4.402996447537266 a28.446784304620387,28.446784304620387 0 0,0 -0.2929188859347166,0.39241271582976633 l -5.929002053624095 -4.505722042876347" fill="#ff4406" stroke="none" /><path d="M 116.498646956653 112.99209946851258 l 7.2675256573396965 5.7229187628655795 a30.25033666124913,30.25033666124913 0 0,0 -0.3256694892104191,0.4063227617631343 l -7.167938256074423 -5.847169358206965" fill="#ff5e08" stroke="none" /><path d="M 116.0416608686014 113.55231037782055 l 5.589068098310485 4.721754574636063 a28.316600882284654,28.316600882284654 0 0,0 -0.31776281435262255,0.36962994170176694 l -5.506962774387084 -4.8172616154993575" fill="#ff4206" stroke="none" /><path d="M 115.56566222782051 114.09645910891815 l 5.434067732934972 4.921159952674562 a28.33122823310889,28.33122823310889 0 0,0 -0.3304683867425256,0.35865816550995216 l -5.3485529381967245 -5.013969372985849" fill="#ff4306" stroke="none" /><path d="M 115.32070863581623 114.36230785411682 l 6.146780711095997 5.762263285793794 a29.425354074762016,29.425354074762016 0 0,0 -0.3495920507146388,0.3665458675236985 l -6.0466821090023934 -5.8672162699" fill="#ff5207" stroke="none" /><path d="M 115.07121518719521 114.62390073753431 l 5.254104853395308 5.0981627484113705 a28.320989087531924,28.320989087531924 0 0,0 -0.3424943184037431,0.34694493631606904 l -5.165569909936029 -5.187848178708104" fill="#ff4206" stroke="none" /><path d="M 114.29624159901734 115.38237550388516 l 4.988913657609255 5.3679383288459235 a28.328302762944045,28.328302762944045 0 0,0 -0.3600398462032785,0.3288878630443355 l -4.8957742619391125 -5.453018958476842" fill="#ff4206" stroke="none" /><path d="M 112.92097659922987 116.55440617244103 l 5.541289964345835 7.099522554240965 a30.006059902484328,30.006059902484328 0 0,0 -0.40989888367267013,0.314292985015132 l -5.418262352179672 -7.193854881083468" fill="#ff5b08" stroke="none" /><path d="M 111.1453310114006 117.79835938074945 l 7.766279877273156 12.402237328420075 a35.63320176456931,35.63320176456931 0 0,0 -0.5226555864998146,0.32105774941370957 l -7.551645090841033 -12.534083544662163" fill="#ffa80f" stroke="none" /><line stroke="#e1ed5e" stroke-width="0.3" x1="143.8653032363475" x2="146.44561519142675" y1="172.8068346515853" y2="177.08958963109032" /><path d="M 144.38136562736335 173.6633856474863 a86.0,86.0 0 0,1 -40.68145358897372,12.25698825130547" fill="none" id="id66" stroke="none" /><text fill="#e1ed5e" style="font-size:6.75px; font-family:Arial;" text-anchor="middle"><textPath startOffset="21.466115282336833" xlink:href="#id66">June</textPath></text><path d="M 108.92500713936063 119.00905698771935 l 2.1646302432728377 4.610369382254848 a26.093243557000232,26.093243557000232 0 0,0 -0.4082126477481026,0.18739040501513063 l -2.0849495997573158 -4.6469468576040525" fill="#ff2203" stroke="none" /><path d="M 105.53697534728816 120.25689768951611 l 2.37651558555767 8.694427924039813 a30.013373577896445,30.013373577896445 0 0,0 -0.4995219480449376,0.13192828656300407 l -2.226503194701235 -8.7340475599064" fill="#ff5b08" stroke="none" /><path d="M 104.48393922423573 120.51570834832081 l 3.124494636586085 14.295738076382733 a35.63320176456931,35.63320176456931 0 0,0 -0.6003490971863988,0.12580899040034635 l -2.877954077970308 -14.347403047509621" fill="#ffa80f" stroke="none" /><path d="M 103.7750983002368 120.6578951692458 l 1.399424645033223 7.657858237106536 a28.78467610866032,28.78467610866032 0 0,0 -0.4881758096163469,0.08487562197431807 l -1.2673998639448263 -7.680812437601861" fill="#ff4906" stroke="none" /><line stroke="#e1ed5e" stroke-width="0.3" x1="102.19456741930631" x2="102.32365962044197" y1="184.97166512339345" y2="189.96999836594603" /><path d="M 102.22038585953345 185.97133177190398 a86.0,86.0 0 0,1 -42.740103519485714,-10.115201625700543" fill="none" id="id67" stroke="none" /><text fill="#e1ed5e" style="font-size:6.75px; font-family:Arial;" text-anchor="middle"><textPath startOffset="22.20632615414155" xlink:href="#id67">July</textPath></text><path d="M 100.54218724476979 120.99299961872073 l 0.2681353218852247 10.381957090289104 a31.385419085210124,31.385419085210124 0 0,0 -0.540188362238425,0.00929983254099124 l -0.08938726975413176 -10.385034400109255" fill="#ff6e0a" stroke="none" /><path d="M 100.18074693466247 120.99922214144158 l 0.09064624538447164 10.531302490251637 a31.53169259345252,31.53169259345252 0 0,0 -0.542786360093847,0.0 l 0.09064624538446438 -10.531302490251637" fill="#ff700a" stroke="none" /><path d="M 99.81925306533755 120.99922214144158 l -0.07587846124057872 8.815577792881474 a29.815904341769212,29.815904341769212 0 0,0 -0.5131747481628387,-0.008834768676621956 l 0.22761289929608533 -8.812965546925692" fill="#ff5808" stroke="none" /><path d="M 99.45781275523022 120.99299961872073 l -0.2521604991869856 9.763426407304275 a30.766682145344788,30.766682145344788 0 0,0 -0.5293036240765812,-0.018230287033086975 l 0.42018447493820976 -9.757639321845094" fill="#ff6509" stroke="none" /><path d="M 98.37488393609728 120.93702456842531 l -1.0200084178194144 13.14117913067661 a34.18070582772231,34.18070582772231 0 0,0 -0.5862083536885234,-0.050580523392357996 l 1.2460610892494797 -13.12167435500559" fill="#ff950d" stroke="none" /><path d="M 97.2962882734958 120.8252237178851 l -1.1299468557482122 8.703367237565166 a29.776410494543768,29.776410494543768 0 0,0 -0.507718155008596,-0.07036510994582351 l 1.2795936019436394 -8.682627562126738" fill="#ff5708" stroke="none" /><path d="M 96.93821686468263 120.77559828337769 l -1.2902568819598357 8.754982791811123 a29.849547248664962,29.849547248664962 0 0,0 -0.5076756078450564,-0.07928848906919397 l 1.4407683534134093 -8.731475995394822" fill="#ff5808" stroke="none" /><path d="M 96.58105272829116 120.7198165907248 l -0.7206223202361949 4.367181216870207 a25.426236359414908,25.426236359414908 0 0,0 -0.4312181062381133,-0.074972795154088 l 0.7956893979463582 -4.354129843195113" fill="#ff1802" stroke="none" /><path d="M 96.22490169976321 120.6578951692458 l -2.3683986805362998 12.960227196846779 a34.17485488739261,34.17485488739261 0 0,0 -0.5777704882065317,-0.11073108917013048 l 2.5911367833145262 -12.91753890932818" fill="#ff950d" stroke="none" /><path d="M 95.86986931433489 120.58985236759428 l -1.440703120999129 7.182306523583386 a28.325377292779198,28.325377292779198 0 0,0 -0.4772266830675924,-0.1000074914249435 l 1.564121265496108 -7.156443051431901" fill="#ff4206" stroke="none" /><path d="M 95.16358092515715 120.4354850818985 l -3.373141225660655 14.25264769851751 a35.64636638031112,35.64636638031112 0 0,0 -0.5958828489832511,-0.14645350652239575 l 3.6179773593871167 -14.192472933681083" fill="#ffa80f" stroke="none" /><path d="M 94.46302465271185 120.25689768951611 l -2.0791618827882816 7.606566202288 a28.885604829347574,28.885604829347574 0 0,0 -0.47849531478937446,-0.13522755551999022 l 2.20978836568227 -7.569649853429488" fill="#ff4b06" stroke="none" /><path d="M 93.76903079525671 120.05430185196036 l -6.1078543964489675 19.65805827462072 a41.5850708149524,41.5850708149524 0 0,0 -0.6817548687842764,-0.21827637987555806 l 6.445330610324184 -19.550009048085457" fill="#fff617" stroke="none" /><path d="M 93.42475214034765 119.94407469862007 l -2.834058538810918 8.596280536456533 a30.05140469003947,30.05140469003947 0 0,0 -0.4898812091977484,-0.16619430381985337 l 2.9816094809458917 -8.546223245738556" fill="#ff5b08" stroke="none" /><path d="M 93.08242187328487 119.8279376855182 l -4.690204700634668 13.443590348096178 a35.23826329231484,35.23826329231484 0 0,0 -0.5709948436073462,-0.20473843589412982 l 4.920919104871741 -13.36086437116209" fill="#ffa30f" stroke="none" /><path d="M 92.40401165467489 119.57807347666478 l -2.6491604582105546 6.82800654035249 a28.323914557696774,28.323914557696774 0 0,0 -0.4530193306629306,-0.18026574092424397 l 2.7663008649153435 -6.78139395502218" fill="#ff4206" stroke="none" /><line stroke="#e1ed5e" stroke-width="0.3" x1="58.666819895761336" x2="56.23545636021788" y1="174.27360380694188" y2="178.64263932499728" /><path d="M 58.180547188652646 175.14741091055294 a86.0,86.0 0 0,1 -31.652253787137756,-30.449443065178592" fill="none" id="id68" stroke="none" /><text fill="#e1ed5e" style="font-size:6.75px; font-family:Arial;" text-anchor="middle"><textPath startOffset="22.20632615414155" xlink:href="#id68">August</textPath></text><path d="M 87.95078237400918 117.19931262002967 l -7.289119230211069 10.404645700368544 a33.7038541908521,33.7038541908521 0 0,0 -0.4722915825968351,-0.33696750406357884 l 7.467138140656791 -10.277633934460747" fill="#ff8e0d" stroke="none" /><path d="M 87.07902340077011 116.55440617244103 l -4.520691812718717 5.7919281776762 a28.347318319015557,28.347318319015557 0 0,0 -0.38207124055968233,-0.30354050089750895 l 4.619720545995757 -5.713253762773561" fill="#ff4306" stroke="none" /><path d="M 86.51685102203217 116.09983520530335 l -5.306231139460293 6.336015944506424 a29.26445321569538,29.26445321569538 0 0,0 -0.3834124470825415,-0.3267524053591468 l 5.41450906311989 -6.243739148924325" fill="#ff5007" stroke="none" /><path d="M 85.97065885151581 115.62618273729859 l -3.128018645203012 3.484054627960955 a25.6822149988391,25.6822149988391 0 0,0 -0.32640927399425046,-0.29816713270455736 l 3.187527468664117 -3.429694728669822" fill="#ff1c02" stroke="none" /><path d="M 85.70375840098266 115.38237550388516 l -5.981717433384989 6.436168770734026 a29.786649640120736,29.786649640120736 0 0,0 -0.3725659749531136,-0.3522843837138227 l 6.091619242728919 -6.332249750274273" fill="#ff5708" stroke="none" /><path d="M 83.06392112726016 112.41649034213515 l -5.899512220285949 4.32515915029147 a28.31513814720223,28.31513814720223 0 0,0 -0.28479663611263867,-0.3955576185427456 l 5.973088648774195 -4.222967926297586" fill="#ff4206" stroke="none" /><path d="M 82.6465618267979 111.8261652097733 l -5.369210984353172 3.6590545062790554 a27.497469236127234,27.497469236127234 0 0,0 -0.2631859964535976,-0.3934273551532047 l 5.4314000862175 -3.56609023692003" fill="#ff3605" stroke="none" /><path d="M 82.24976979558568 111.22182372390057 l -12.371172748458534 7.821144753750805 a35.636127234734154,35.636127234734154 0 0,0 -0.32333058778612583,-0.5213118582116455 l 12.503967975912616 -7.607036564173895" fill="#ffa80f" stroke="none" /><line stroke="#e1ed5e" stroke-width="0.3" x1="26.63291911575756" x2="22.317208475507996" y1="142.92168965132927" y2="145.44649492493687" /><path d="M 25.769776987707644 143.4266507060508 a86.0,86.0 0 0,1 -11.730757126820373,-40.83630448921669" fill="none" id="id69" stroke="none" /><text fill="#e1ed5e" style="font-size:6.75px; font-family:Arial;" text-anchor="middle"><textPath startOffset="21.46611528233685" xlink:href="#id69">September</textPath></text><path d="M 81.87401531095188 110.60418214915194 l -15.97502328329645 9.34581263523702 a39.50798699791038,39.50798699791038 0 0,0 -0.3383539332196199,-0.589948602506321 l 16.133529212668446 -9.069444186872394" fill="#ffdb14" stroke="none" /><path d="M 81.69416730710424 110.29060199501025 l -6.385577673045412 3.5896448658703037 a28.325377292779198,28.325377292779198 0 0,0 -0.23526733385938234,-0.4270785489713698 l 6.44642141635631 -3.4791957985011113" fill="#ff4206" stroke="none" /><path d="M 81.51974371655577 109.97397251340807 l -10.71099692601854 5.7808283225494685 a33.17141862084978,33.17141862084978 0 0,0 -0.2668679987911847,-0.5048136818817176 l 10.80891743303461 -5.595599625581625" fill="#ff870c" stroke="none" /><path d="M 81.35079622478065 109.6543875284942 l -8.442152913987734 4.370364375274003 a30.50631530067332,30.50631530067332 0 0,0 -0.23739917268359995,-0.4684110897700977 l 8.516130756457601 -4.22439907380122" fill="#ff6209" stroke="none" /><path d="M 81.02952815118164 109.00673069616217 l -6.616100711425604 3.1411679077560235 a28.323914557696774,28.323914557696774 0 0,0 -0.20531517838768581,-0.44223062855132705 l 6.669190506653116 -3.026817211925869" fill="#ff4206" stroke="none" /><path d="M 80.58989483394504 108.01547362559985 l -10.819995703083661 4.468156635175916 a32.70626886463896,32.70626886463896 0 0,0 -0.2104062581432246,-0.5222110774198389 l 10.895304575484273 -4.281246189913272" fill="#ff800b" stroke="none" /><path d="M 80.45479744820244 107.68017299344265 l -6.821988157909747 2.680660334581458 a28.329765498026468,28.329765498026468 0 0,0 -0.17443813031758396,-0.45540291377508774 l 6.86712056782084 -2.5628338539732125" fill="#ff4306" stroke="none" /><path d="M 79.97269907076064 106.31721596034903 l -8.908359210642386 2.809965715541367 a30.341026236359415,30.341026236359415 0 0,0 -0.15282229859504343,-0.4994321140476241 l 8.95540828174356 -2.6562066289416952" fill="#ff5f08" stroke="none" /><path d="M 79.67330655649465 105.27499134158121 l -9.429471441867582 2.4470472952122724 a30.74181564894358,30.74181564894358 0 0,0 -0.12851350438115997,-0.5133475673553388 l 9.4701962605438 -2.284371888459542" fill="#ff6509" stroke="none" /><path d="M 79.50377843672027 104.57218783832718 l -9.510970145430894 2.121656515830205 a30.744741119108426,30.744741119108426 0 0,0 -0.11077763766407392,-0.5175162433920217 l 9.54608182181941 -1.9576264530220198" fill="#ff6509" stroke="none" /><path d="M 79.4281124754447 104.21870165774334 l -14.521163792002088 2.977872481976156 a35.82335732528442,35.82335732528442 0 0,0 -0.11867777953127082,-0.6051354410230606 l 14.570271504509025 -2.7274733138851404" fill="#ffab0f" stroke="none" /><path d="M 79.29508885075956 103.50808413554451 l -31.802974274185058 5.388456328560078 a53.25623403761319,53.25623403761319 0 0,0 -0.14535970973145243,-0.9051550512544473 l 31.8910157382778 -4.840222047612418" fill="#7fff26" stroke="none" /><path d="M 79.23777060512086 103.15116336523772 l -5.7948167995319775 0.879501620931569 a26.861179475272813,26.861179475272813 0 0,0 -0.06544655898408507,-0.45773308110350014 l 5.8090974095326615 -0.7796230678476682" fill="#ff2d04" stroke="none" /><path d="M 79.10278846688536 102.07522291339032 l -7.5777257888132 0.7525152417304372 a28.61499883909914,28.61499883909914 0 0,0 -0.044455994745553805,-0.49056819755889824 l 7.589556379835829 -0.6219656556229727" fill="#ff4706" stroke="none" /><path d="M 79.07016306316243 101.71520430193888 l -7.30090248755625 0.5983104117095367 a28.325377292779198,28.325377292779198 0 0,0 -0.035640664057443754,-0.4862885444243601 l 7.3101197102780295 -0.47254873078841597" fill="#ff4206" stroke="none" /><path d="M 79.04373962182676 101.35467743843564 l -13.14157503027817 0.8495120254169544 a34.16900394706292,34.16900394706292 0 0,0 -0.03288953601468936,-0.5872647594829085 l 13.154250917180391 -0.6231755495986083" fill="#ff940d" stroke="none" /><line stroke="#e1ed5e" stroke-width="0.3" x1="15.007084014347285" x2="10.007500721073583" y1="101.09737516637583" y2="101.16192664675087" /><path d="M 14.007167355692545 101.11028546245083 a86.0,86.0 0 0,1 10.666146001902534,-42.60595125391555" fill="none" id="id70" stroke="none" /><text fill="#e1ed5e" style="font-size:6.75px; font-family:Arial;" text-anchor="middle"><textPath startOffset="22.20632615414155" xlink:href="#id70">October</textPath></text><path d="M 79.00019446554 99.90962569577889 l -12.199097619507523 -0.052499769946887126 a33.199210587415834,33.199210587415834 0 0,0 0.007378118071853915,-0.5714433756364631 l 12.196386494317952 0.2624794036438221" fill="#ff870c" stroke="none" /><path d="M 79.21141760316559 97.0276538004421 l -7.2487330029175565 -1.0364219926854092 a28.322451822614347,28.322451822614347 0 0,0 0.07315838546314865,-0.4820223533635513 l 7.2298187240151055 1.1610434584410527" fill="#ff4206" stroke="none" /><path d="M 79.26566170972629 96.67025291283419 l -3.3202863057352645 -0.5332079326719898 a24.362827954492687,24.362827954492687 0 0,0 0.07005837277499458,-0.41348848189512477 l 3.3106160714400468 0.5902822028829426" fill="#ff0801" stroke="none" /><path d="M 79.3925641242962 95.95851677861259 l -35.587658996957806 -6.979370339530396 a57.26559089853726,57.26559089853726 0 0,0 0.19803178718550737,-0.9656733238742637 l 35.46224791385731 7.590919319568062" fill="#54ff2b" stroke="none" /><path d="M 79.46518482838121 95.60439243477599 l -6.354969849605453 -1.360321644691683 a27.498931971209657,27.498931971209657 0 0,0 0.10306287131349157,-0.462010643500159 l 6.330612591289924 1.4695104577418012" fill="#ff3605" stroke="none" /><line stroke="#e1ed5e" stroke-width="0.3" x1="26.266209847984243" x2="21.928928074336255" y1="57.711370442889674" y2="55.22380399835377" /><path d="M 25.398753493254645 57.213857153982495 a86.0,86.0 0 0,1 29.58750427330803,-30.492523968695096" fill="none" id="id71" stroke="none" /><text fill="#e1ed5e" style="font-size:6.75px; font-family:Arial;" text-anchor="middle"><textPath startOffset="21.46611528233685" xlink:href="#id71">November</textPath></text><path d="M 85.31137513191541 84.99185889309783 l -5.133004246332509 -5.244660594380885 a28.338541908521012,28.338541908521012 0 0,0 0.35155547708386575,-0.33819609041763576 l 5.041965525636216 5.332239771560834" fill="#ff4306" stroke="none" /><line stroke="#e1ed5e" stroke-width="0.3" x1="56.762969772571076" x2="54.21961505331055" y1="26.818313649435495" y2="22.513508569990535" /><path d="M 56.25429882871897 25.957352633546506 a86.0,86.0 0 0,1 42.265352541879196,-11.944610805530505" fill="none" id="id72" stroke="none" /><text fill="#e1ed5e" style="font-size:6.75px; font-family:Arial;" text-anchor="middle"><textPath startOffset="22.20632615414155" xlink:href="#id72">December</textPath></text></svg>