<?xml version="1.0" encoding="utf-8" ?>
<svg baseProfile="full" height="200mm" version="1.1" viewBox="0,0,200,200" width="200mm" xmlns="http://www.w3.org/2000/svg" xmlns:ev="http://www.w3.org/2001/xml-events" xmlns:xlink="http://www.w3.org/1999/xlink"><defs /><rect fill="#1a1a1a" height="200" width="200" x="0" y="0" /><text alignment-baseline="middle" fill="#e1ed5e" style="dominant-baseline: central; font-size:9.0px; font-family:Arial;" text-anchor="middle" x="100.0" y="100.0">2022</text><line stroke="#e1ed5e" stroke-width="0.3" x1="100.0" x2="100.0" y1="15.0" y2="10.0" /><path d="M 100.0 14.0 a86.0,86.0 0 0,1 42.46469731375804,11.215312516191453" fill="none" id="id97" stroke="none" /><text fill="#e1ed5e" style="font-size:6.75px; font-family:Arial;" text-anchor="middle"><textPath startOffset="22.20632615414155" xlink:href="#id97">January</textPath></text><path d="M 100.0 79.0 l 0.0 -39.368917040012356 a60.368917040012356,60.368917040012356 0 0,0 1.03915166975177,0.008944306493444064 l -0.6776711904792417 39.363084110127474" fill="#31ff2f" stroke="none" /><path d="M 100.72285384407766 79.0124445844662 l 0.4030247988994712 -11.701542946803876 a32.70848138421134,32.70848138421134 0 0,0 0.5625222814538482,0.02422339273645425 l -0.6043879127426509 11.692871827543227" fill="#ff8a0c" stroke="none" /><path d="M 101.44485096284872 79.0497635885617 l 0.6984301966250017 -10.127188279219904 a31.15124362737525,31.15124362737525 0 0,0 0.5346292293747567,0.04149751776090895 l -0.8726496153620996 10.113665499270532" fill="#ff750a" stroke="none" /><path d="M 102.52436894288641 79.15227682838746 l 0.4972300945744118 -4.106418514414644 a25.13641279159586,25.13641279159586 0 0,0 0.4290968459016234,0.05570908575996738 l -0.5678416689838813 4.09725110549054" fill="#ff2003" stroke="none" /><path d="M 103.2404852339499 79.25152402106235 l 1.860788446561377 -11.914426883008069 a33.05885987949946,33.05885987949946 0 0,0 0.5614823713030839,0.09264940223161203 l -2.065600024003336 11.880631217836832" fill="#ff8f0d" stroke="none" /><path d="M 103.59715602781102 79.31037775812273 l 1.6721524003836534 -9.617653843010771 a30.76193418816623,30.76193418816623 0 0,0 0.5209092324582565,0.09519283266372583 l -1.8374567539448106 9.587445528996307" fill="#ff700a" stroke="none" /><path d="M 105.36241919743992 79.69619591428918 l 7.485682043575958 -28.343144402670017 a50.31500077243936,50.31500077243936 0 0,0 0.8354736653838202,0.22836651294994778 l -7.972453598183489 28.210091348893776" fill="#9aff23" stroke="none" /><path d="M 107.08798089147638 80.2323363322302 l 3.3014463753748315 -9.207400889591522 a30.78139966012668,30.78139966012668 0 0,0 0.49721880010347513,0.18312988028017785 l -3.4594475012508834 9.14920774150502" fill="#ff700a" stroke="none" /><path d="M 107.76421540070413 80.48803036053334 l 7.027736448744866 -17.66115095282483 a40.0080333693805,40.0080333693805 0 0,0 0.6376825768941766,0.2601267343710953 l -7.3307028952274305 17.537563332270157" fill="#ffea16" stroke="none" /><path d="M 108.09893153111575 80.62456947434976 l 4.08762696001161 -9.779009968685207 a31.598949482465628,31.598949482465628 0 0,0 0.5000401976088876,0.2140911165831017 l -4.255350915410813 9.707199324139314" fill="#ff7b0b" stroke="none" /><path d="M 108.43124777332544 80.76684994638697 l 17.267580987328177 -39.390370811176886 a64.00896029661672,64.00896029661672 0 0,0 1.0052999849606716,0.4510487994606579 l -17.943063090755626 39.0873016811997" fill="#34ff5a" stroke="none" /><path d="M 109.73455568895987 81.39251694778311 l 2.7205022773564664 -5.200206525793353 a26.86883979607601,26.86883979607601 0 0,0 0.4079648887150513,0.21792071483276262 l -2.809612212599829 5.152607084458837" fill="#ff3905" stroke="none" /><line stroke="#e1ed5e" stroke-width="0.3" x1="143.23703022742887" x2="145.7803849466894" y1="26.81831364943548" y2="22.513508569990506" /><path d="M 143.74570117128098 25.957352633546492 a86.0,86.0 0 0,1 28.547481713284135,27.462654790039103" fill="none" id="id98" stroke="none" /><text fill="#e1ed5e" style="font-size:6.75px; font-family:Arial;" text-anchor="middle"><textPath startOffset="19.985693538727396" xlink:href="#id98">February</textPath></text><path d="M 111.90073688211348 82.69761687909136 l 5.633591526984721 -8.190632219849876 a30.94101653020238,30.94101653020238 0 0,0 0.43622245258192555,0.3056017051740759 l -5.773745119150297 8.092445671911864" fill="#ff720a" stroke="none" /><path d="M 113.34407831869373 83.78471172551755 l 6.215417291960696 -7.552772153184704 a30.78139966012668,30.78139966012668 0 0,0 0.40623013893587123,0.34020605880541355 l -6.344504967855685 7.444664936985471" fill="#ff700a" stroke="none" /><path d="M 114.68862486808459 84.99185889309783 l 2.934094230562857 -2.9979185001119295 a25.194809207477213,25.194809207477213 0 0,0 0.3073337209795445,0.3060139323113206 l -2.985263751709722 2.94696871715049" fill="#ff2103" stroke="none" /><path d="M 115.19652480421416 85.50635884689758 l 7.176854059397911 -6.844903600345138 a30.917657963849837,30.917657963849837 0 0,0 0.36399311318113525,0.3882824744557605 l -7.29361449454951 6.720351709011322" fill="#ff720a" stroke="none" /><path d="M 115.9244219780498 86.31012108654704 l 21.262904241662987 -18.27925590127823 a49.04001235902982,49.04001235902982 0 0,0 0.5447863998962978,0.644855263001147 l -21.574401255046403 17.910541688647974" fill="#a8ff21" stroke="none" /><path d="M 116.82858285166822 87.43820079747576 l 7.838433075510529 -5.851046592864297 a30.78139966012668,30.78139966012668 0 0,0 0.31329218792997265,0.4273301922516403 l -7.937987875954128 5.715253956941163" fill="#ff700a" stroke="none" /><path d="M 117.04232023915458 87.72973835380427 l 7.953784866752046 -5.72662759665647 a30.800865132087132,30.800865132087132 0 0,0 0.30608342153281876,0.43293329304031447 l -8.051180908088748 5.588867803284362" fill="#ff700a" stroke="none" /><path d="M 117.2510076193507 88.02491185347247 l 16.030404886512354 -11.127785447452975 a40.51413564035224,40.51413564035224 0 0,0 0.39274699099781524,0.5763077468560427 l -16.219576343178904 10.850199677326527" fill="#fff016" stroke="none" /><path d="M 117.65298651832404 88.62581576622439 l 6.60248422074193 -4.2541171064376275 a28.854317936042023,28.854317936042023 0 0,0 0.26542180735184157,0.41983355804570527 l -6.674733624339727 4.139835900677716" fill="#ff5507" stroke="none" /><line stroke="#e1ed5e" stroke-width="0.3" x1="172.23445277983987" x2="176.4835382374775" y1="55.19839476539836" y2="52.563006222186495" /><path d="M 173.08426987136738 54.67131705675599 a86.0,86.0 0 0,1 12.851231095245387,41.99856678651699" fill="none" id="id99" stroke="none" /><text fill="#e1ed5e" style="font-size:6.75px; font-family:Arial;" text-anchor="middle"><textPath startOffset="22.20632615414155" xlink:href="#id99">March</textPath></text><path d="M 118.56541770881063 90.18545643968196 l 30.003527676790984 -15.861260649542265 a54.9380503630465,54.9380503630465 0 0,0 0.43477074909108443,0.8398387024939472 l -30.272107859042187 15.342449224787973" fill="#68ff28" stroke="none" /><path d="M 119.04729006885535 91.15688171328212 l 10.831619765712434 -5.028814832907235 a32.94206704773676,32.94206704773676 0 0,0 0.234355642446188,0.5163715931125745 l -10.916577725121968 4.841621230952597" fill="#ff8d0d" stroke="none" /><path d="M 119.196687751892 91.48605970444005 l 21.575143425770793 -9.568811316267356 a44.60188475204696,44.60188475204696 0 0,0 0.3052240570188205,0.7044992059668446 l -21.736658192632294 9.196012965713908" fill="#dcff1b" stroke="none" /><path d="M 119.34039704204932 91.81776055985345 l 8.990461099880493 -3.8035468060251754 a30.76193418816623,30.76193418816623 0 0,0 0.2021180851143328,0.4894449749670601 l -9.054600871881023 3.6482272606048123" fill="#ff700a" stroke="none" /><path d="M 119.61058180528143 92.48833698450437 l 9.625029877240706 -3.6867840877845865 a31.30696740305886,31.30696740305886 0 0,0 0.18843128703218234,0.5049021671044236 l -9.687065752774515 3.52055878365083" fill="#ff770b" stroke="none" /><path d="M 119.7369772167798 92.82701384747503 l 18.322183855342164 -6.658809484091229 a40.49467016839178,40.49467016839178 0 0,0 0.23245274916297806,0.6571752243075849 l -18.43408968531495 6.342436633357029" fill="#fff016" stroke="none" /><path d="M 119.85752413597 93.16781622104841 l 11.108310659098926 -3.8219276168057594 a32.74741232813224,32.74741232813224 0 0,0 0.1788050914054925,0.5346044645608161 l -11.172453044276189 3.6301500493226295" fill="#ff8b0c" stroke="none" /><path d="M 119.97218684219823 93.5106431181261 l 9.30266388525068 -3.0226187237524793 a30.78139966012668,30.78139966012668 0 0,0 0.15939563880847518,0.5053277338090739 l -9.35331500782736 2.8620408235169865" fill="#ff700a" stroke="none" /><path d="M 120.18372546131832 94.20196356495316 l 10.299219094505546 -2.9585840174509084 a31.715742314228333,31.715742314228333 0 0,0 0.1462144493964521,0.5260111691296657 l -10.348620314468361 2.7808615449022906" fill="#ff7d0b" stroke="none" /><path d="M 120.37134235888165 94.90015583598534 l 38.13371780666908 -9.546549009016761 a60.31052062413101,60.31052062413101 0 0,0 0.24344542610093725,1.009238458744267 l -38.29239603303084 8.888725318613087" fill="#31ff2f" stroke="none" /><path d="M 120.45610955862082 95.25157060432595 l 10.153789589347863 -2.3569756910707143 a31.423760234821565,31.423760234821565 0 0,0 0.11777268152298222,0.5279518383653715 l -10.192856657872882 2.181845683155379" fill="#ff790b" stroke="none" /><path d="M 120.53481517161879 95.60439243477599 l 10.345130893658101 -2.2144409501306233 a31.579484010505176,31.579484010505176 0 0,0 0.10920592207066587,0.5325268597103893 l -10.381716111643764 2.036038434256822" fill="#ff7b0b" stroke="none" /><path d="M 120.67395015179393 96.31383870115 l 10.223592528331897 -1.8228645632038967 a31.38482929090066,31.38482929090066 0 0,0 0.09025101987538428,0.5326666281218275 l -10.253455409727506 1.6466121467662318" fill="#ff780b" stroke="none" /><path d="M 120.96714384426684 98.82574320788733 l 9.746660872454651 -0.5458579773624316 a30.76193418816623,30.76193418816623 0 0,0 0.0250583665580081,0.5289425130543359 l -9.754612847246156 0.37800435768509594" fill="#ff700a" stroke="none" /><path d="M 120.98425023603335 99.18683210126433 l 11.85530713937494 -0.45940908476384046 a32.86420515989495,32.86420515989495 0 0,0 0.017039786059681063,0.5654675431152109 l -11.861458619890266 0.2552713942236306" fill="#ff8c0c" stroke="none" /><line stroke="#e1ed5e" stroke-width="0.3" x1="184.98032266829074" x2="189.97916517819016" y1="98.17113171792111" y2="98.06355123074" /><path d="M 185.9800911702706 98.14961562048488 a86.0,86.0 0 0,1 -9.607161424134198,41.387399972396054" fill="none" id="id100" stroke="none" /><text fill="#e1ed5e" style="font-size:6.75px; font-family:Arial;" text-anchor="middle"><textPath startOffset="21.466115282336823" xlink:href="#id100">April</textPath></text><path d="M 120.99513854157772 99.54816195383933 l 10.129432668831637 -0.21799632599409302 a31.1317781554148,31.1317781554148 0 0,0 0.0069186565268656835,0.5358575726327514 l -10.131684332476217 0.04360249530087891" fill="#ff750a" stroke="none" /><path d="M 120.9904718944345 100.63252640178507 l 4.064492116867634 0.12247931283754161 a25.066337092538234,25.066337092538234 0 0,0 -0.016708345548967038,0.4311681567543616 l -4.061781638467464 -0.19242471660590937" fill="#ff1f03" stroke="none" /><path d="M 120.9764740272857 100.99374915477107 l 9.84821637091322 0.4665539442838351 a30.859261547968487,30.859261547968487 0 0,0 -0.02970372784764735,0.530380014555454 l -9.838726292178043 -0.6360056751747124" fill="#ff710a" stroke="none" /><path d="M 120.8583938346157 102.4346265915055 l 9.696107994493843 1.131745931382678 a30.76193418816623,30.76193418816623 0 0,0 -0.06591621957691736,0.5254171255749918 l -9.675190265670077 -1.2984808112450648" fill="#ff700a" stroke="none" /><path d="M 120.76222939487914 103.15116336523771 l 9.651405569162886 1.4648309232195664 a30.76193418816623,30.76193418816623 0 0,0 -0.08396286191043768,0.522836821265106 l -9.62476095289116 -1.6307469741778773" fill="#ff700a" stroke="none" /><path d="M 120.64145759157962 103.86396538481128 l 19.180962059841107 3.5905687918491984 a40.51413564035224,40.51413564035224 0 0,0 -0.13421767294915907,0.6843730227677282 l -19.116314453916285 -3.9202055416848713" fill="#fff016" stroke="none" /><path d="M 120.5718875245553 104.21870165774334 l 10.707042958477796 2.195706146290329 a31.929862505793295,31.929862505793295 0 0,0 -0.11504779713796248,0.5374650068447496 l -10.66766112261539 -2.3796849725512477" fill="#ff800b" stroke="none" /><path d="M 120.41448212921028 104.9243191809786 l 29.557319097012023 7.129726458231341 a51.40506720222463,51.40506720222463 0 0,0 -0.21489444229797014,0.8583964753202938 l -29.430213340418995 -7.63745077294903" fill="#8eff24" stroke="none" /><path d="M 120.32669344350535 105.2749913415812 l 10.164916835567249 2.637903131886044 a31.50162212266337,31.50162212266337 0 0,0 -0.14072513188959418,0.523690566795215 l -10.118003627335879 -2.8124846318568073" fill="#ff7a0b" stroke="none" /><path d="M 120.02730092923936 106.31721596034902 l 20.448081545086193 6.449942883044442 a42.441217364436895,42.441217364436895 0 0,0 -0.22576251694816268,0.6948255817226144 l -20.334026777121785 -6.800967364744851" fill="#f6ff19" stroke="none" /><path d="M 119.9155931802556 106.66101706037122 l 9.257843330664162 3.0964004842664936 a30.76193418816623,30.76193418816623 0 0,0 -0.17228026278329764,0.5007270862516999 l -9.203172236937633 -3.255300273607494" fill="#ff700a" stroke="none" /><path d="M 119.67450827220406 107.3425965602758 l 5.553117042069646 2.0724430581838207 a26.92723621195736,26.92723621195736 0 0,0 -0.16580217509252185,0.43285715978447487 l -5.516620587383617 -2.1677237848014395" fill="#ff3a05" stroke="none" /><path d="M 119.54520255179757 107.68017299344265 l 21.767552169922546 8.553432274019471 a44.387764560482,44.387764560482 0 0,0 -0.28555575957521834,0.7087259770082844 l -21.61709379608994 -8.926857618870569" fill="#dfff1b" stroke="none" /><path d="M 119.41010516605496 108.01547362559984 l 9.040856955917766 3.7334548093903144 a30.78139966012668,30.78139966012668 0 0,0 -0.20645380665029364,0.4879958134527176 l -8.975252168075162 -3.888525148509195" fill="#ff700a" stroke="none" /><path d="M 119.26925614724726 108.34839909993367 l 8.930599172214091 3.8691792522479553 a30.732735980225552,30.732735980225552 0 0,0 -0.21448364040485893,0.4836039870855507 l -8.862674447077959 -4.022331575826193" fill="#ff6f0a" stroke="none" /><path d="M 118.81262510543309 109.33194174019688 l 13.976504577788925 6.932999819033953 a36.60157577630156,36.60157577630156 0 0,0 -0.2848322952991368,0.5620011406720535 l -13.85509361270352 -7.1725551714087015" fill="#ffbe11" stroke="none" /><path d="M 118.64920377521936 109.65438752849418 l 21.97972742177483 11.378545103488664 a45.75034759771358,45.75034759771358 0 0,0 -0.36806697497490465,0.6962440069914002 l -21.78060793857503 -11.755204125566198" fill="#cfff1d" stroke="none" /><line stroke="#e1ed5e" stroke-width="0.3" x1="174.80103733775053" x2="179.2010983576182" y1="140.37084112569926" y2="142.7455964860345" /><path d="M 175.68104954172406 140.8457921977663 a86.0,86.0 0 0,1 -30.038265399797805,32.042727171017184" fill="none" id="id101" stroke="none" /><text fill="#e1ed5e" style="font-size:6.75px; font-family:Arial;" text-anchor="middle"><textPath startOffset="22.206326154141568" xlink:href="#id101">May</textPath></text><path d="M 118.30583269289576 110.29060199501023 l 8.52650788955364 4.79316623126153 a30.78139966012668,30.78139966012668 0 0,0 -0.263617775452835,0.45963981191044606 l -8.442738117948423 -4.93922588903029" fill="#ff700a" stroke="none" /><path d="M 118.12598468904814 110.60418214915192 l 27.260383276360827 15.94804777104805 a52.58272825583192,52.58272825583192 0 0,0 -0.4637774705211082,0.7773177170236404 l -26.981824930141492 -16.414927581957794" fill="#81ff25" stroke="none" /><path d="M 117.55443506779139 111.5257021239791 l 10.194210013877306 6.6932047403116695 a33.19511818322262,33.19511818322262 0 0,0 -0.31771979382627874,0.4749479829825713 l -10.077487114640308 -6.867689637500048" fill="#ff910d" stroke="none" /><path d="M 117.14729908036423 112.12312394758627 l 24.85073577520422 17.569446277198644 a51.4342654101653,51.4342654101653 0 0,0 -0.5173312485211174,0.7185278571261805 l -24.5446247343075 -17.994607739775955" fill="#8eff24" stroke="none" /><path d="M 116.498646956653 112.99209946851258 l 8.036495265615159 6.32845506321955 a31.229105515217057,31.229105515217057 0 0,0 -0.3362067323590261,0.4194695927662232 l -7.926370621201278 -6.465852489564024" fill="#ff760a" stroke="none" /><path d="M 115.32070863581623 114.36230785411682 l 12.149111297334274 11.389112654902158 a37.65271126216592,37.65271126216592 0 0,0 -0.4473383229871371,0.46903244321696624 l -11.951266422968173 -11.596552214701632" fill="#ffcc13" stroke="none" /><path d="M 115.07121518719521 114.62390073753431 l 7.005914799670997 6.7979788844802655 a30.76193418816623,30.76193418816623 0 0,0 -0.3720134085004498,0.37684761873556893 l -6.887860766115011 -6.917566997196499" fill="#ff700a" stroke="none" /><path d="M 114.55890576462653 115.13401014063108 l 6.759668682992211 7.026688409802665 a30.75025490498996,30.75025490498996 0 0,0 -0.3846185736613887,0.36368086807777816 l -6.637714274940014 -7.142003914626364" fill="#ff700a" stroke="none" /><path d="M 114.29624159901734 115.38237550388516 l 42.88872479705202 46.14712651165547 a84.0,84.0 0 0,0 -1.0676018021325442,0.9752289336536681 l -42.088023445452606 -46.878548211895726" fill="#4dd2ff" stroke="none" /><path d="M 112.92097659922987 116.55440617244103 l 7.204048284662543 9.229855071271388 a32.70848138421134,32.70848138421134 0 0,0 -0.446815411606457,0.34259900443325214 l -7.044104144562591 -9.352493417532012" fill="#ff8a0c" stroke="none" /><path d="M 112.63410532772338 116.77436683061366 l 6.095521541554163 8.093055401206005 a31.1317781554148,31.1317781554148 0 0,0 -0.43082679188374123,0.31871536102165554 l -5.9553097792518574 -8.19678071096743" fill="#ff750a" stroke="none" /><path d="M 112.04921762599082 117.19931262002967 l 14.893525448100196 21.259338834058 a46.95720685926155,46.95720685926155 0 0,0 -0.6659943228747701,0.45807696813372895 l -14.525374240602542 -21.51255659155682" fill="#c0ff1e" stroke="none" /><path d="M 111.7513745106137 117.40417183066458 l 1.7482733900387757 2.5892503434157246 a24.1242082496524,24.1242082496524 0 0,0 -0.3461540151660168,0.22941200605051076 l -1.7034446761327948 -2.618960370557554" fill="#ff1101" stroke="none" /><path d="M 111.45004920935366 117.60387380957326 l 5.481801714782484 8.427993965065276 a31.053916267572994,31.053916267572994 0 0,0 -0.450604447830493,0.28759707821697844 l -5.33591546490506 -8.521105472106063" fill="#ff740a" stroke="none" /><line stroke="#e1ed5e" stroke-width="0.3" x1="143.8653032363475" x2="146.44561519142675" y1="172.8068346515853" y2="177.08958963109032" /><path d="M 144.38136562736335 173.6633856474863 a86.0,86.0 0 0,1 -40.68145358897372,12.25698825130547" fill="none" id="id102" stroke="none" /><text fill="#e1ed5e" style="font-size:6.75px; font-family:Arial;" text-anchor="middle"><textPath startOffset="21.466115282336833" xlink:href="#id102">June</textPath></text><path d="M 110.8373102113329 117.98757091392108 l 5.022699001081219 8.336584696703728 a30.732735980225552,30.732735980225552 0 0,0 -0.45547689753563053,0.2691037794934823 l -4.878454232517206 -8.421807048490958" fill="#ff6f0a" stroke="none" /><path d="M 110.21172684928248 118.3499491758327 l 9.489191564720251 17.051590343369952 a40.51413564035224,40.51413564035224 0 0,0 -0.6122982118622433,0.33387380516360055 l -9.194270540989358 -17.212404800293324" fill="#fff016" stroke="none" /><path d="M 109.89434966115114 118.52300852407294 l 4.59942810604106 8.610494770421047 a30.76193418816623,30.76193418816623 0 0,0 -0.4692060655405173,0.24546643744263796 l -4.450531137974047 -8.688390626808403" fill="#ff700a" stroke="none" /><path d="M 109.2508944713604 118.85261126421891 l 4.300315381480524 8.763711925542205 a30.76193418816623,30.76193418816623 0 0,0 -0.47737736474923426,0.22917014525431356 l -4.148825348731057 -8.836436347296079" fill="#ff700a" stroke="none" /><path d="M 108.59647513512805 119.15986991738527 l 1.5936613876338102 3.5519610537405097 a24.89309439209022,24.89309439209022 0 0,0 -0.3924566141435277,0.17204144640377728 l -1.5322840988325286 -3.5788670534387417" fill="#ff1c02" stroke="none" /><path d="M 108.2653958097858 119.30500536409082 l 1.6203904345153992 3.78465190901147 a25.116947319635408,25.116947319635408 0 0,0 -0.3989151800665311,0.16674657762078907 l -1.555003794951407 -3.811983529652232" fill="#ff2003" stroke="none" /><path d="M 107.93186726928326 119.44442032107085 l 2.216707537483922 5.434104180568078 a26.86883979607601,26.86883979607601 0 0,0 -0.42974652374807104,0.17100501075682642 l -2.1228399376939846 -5.471456035730974" fill="#ff3905" stroke="none" /><path d="M 107.59598834532513 119.57807347666477 l 3.6648032755214546 9.445747484570385 a31.1317781554148,31.1317781554148 0 0,0 -0.5012657750014526,0.18953582449818787 l -3.5016672797597272 -9.507431559175203" fill="#ff750a" stroke="none" /><path d="M 107.2578585660854 119.70592522655815 l 10.713554549505025 29.08853940055045 a51.99876409701838,51.99876409701838 0 0,0 -0.8425791568401994,0.30211890811239284 l -10.211255832035091 -29.268645849702803" fill="#87ff25" stroke="none" /><path d="M 106.2309692047433 120.05430185196036 l 2.887827531937265 9.294439294898975 a30.732735980225552,30.732735980225552 0 0,0 -0.5065413822227022,0.15261676324138138 l -2.727411175274317 -9.342771427246083" fill="#ff6f0a" stroke="none" /><path d="M 104.83641907484287 120.43548508189849 l 2.257194813085169 9.537401580784083 a30.800865132087132,30.800865132087132 0 0,0 -0.5169849685870799,0.1176640956918684 l -2.092689695105227 -9.574842410053636" fill="#ff700a" stroke="none" /><path d="M 104.13013068566511 120.58985236759428 l 1.9313927986263366 9.628531301824173 a30.820330604047584,30.820330604047584 0 0,0 -0.5210578806687485,0.09986198295837367 l -1.7653673033858839 -9.660350483131015" fill="#ff710a" stroke="none" /><path d="M 102.34483914955558 120.86867818915974 l 2.178929010439806 19.39210556276778 a40.51413564035224,40.51413564035224 0 0,0 -0.6936934549033268,0.07190416294214261 l -1.8448029589308768 -19.426739094165683" fill="#fff016" stroke="none" /><path d="M 101.62511606390274 120.93702456842531 l 1.5154025276868361 19.523540907618596 a40.582264792213806,40.582264792213806 0 0,0 -0.696927425523924,0.04806419565051582 l -1.179112341383982 -19.5467334477854" fill="#fff116" stroke="none" /><path d="M 100.90346689309514 120.98055641714683 l 0.9492473876008132 22.043683638655274 a43.06411246717133,43.06411246717133 0 0,0 -0.7408660670277561,0.025516925334780026 l -0.5696609688984047 -22.05675736241615" fill="#efff19" stroke="none" /><line stroke="#e1ed5e" stroke-width="0.3" x1="102.19456741930631" x2="102.32365962044197" y1="184.97166512339345" y2="189.96999836594603" /><path d="M 102.22038585953345 185.97133177190398 a86.0,86.0 0 0,1 -42.740103519485714,-10.115201625700543" fill="none" id="id103" stroke="none" /><text fill="#e1ed5e" style="font-size:6.75px; font-family:Arial;" text-anchor="middle"><textPath startOffset="22.20632615414155" xlink:href="#id103">July</textPath></text><path d="M 100.18074693466247 120.99922214144158 l 0.08569632975113516 9.956220106918616 a30.95658890777074,30.95658890777074 0 0,0 -0.5328865288271744,0.0 l 0.0856963297511283 -9.956220106918616" fill="#ff720a" stroke="none" /><path d="M 99.09653310690486 120.98055641714683 l -0.5682085156481235 13.195094264514866 a34.20732272516607,34.20732272516607 0 0,0 -0.5880596024483504,-0.030395964390443876 l 0.7952561865099628 -13.18335849336222" fill="#ff9e0e" stroke="none" /><path d="M 98.73552117531835 120.96189622390904 l -1.4293513919659542 23.69507101349334 a44.738143055770124,44.738143055770124 0 0,0 -0.768297161881439,-0.05298627052686971 l 1.8370113146263232 -23.666956398450186" fill="#dbff1b" stroke="none" /><path d="M 98.37488393609728 120.93702456842531 l -1.2073510198220563 15.55478930164643 a36.60157577630156,36.60157577630156 0 0,0 -0.6277269283546928,-0.054162920715606265 l 1.4749222659182908 -15.53170212865216" fill="#ffbe11" stroke="none" /><path d="M 97.65516085044442 120.86867818915974 l -1.0900078790379655 9.700888717933209 a30.76193418816623,30.76193418816623 0 0,0 -0.5256959330490849,-0.06365445645392316 l 1.2568312351384396 -9.680688732753937" fill="#ff700a" stroke="none" /><path d="M 97.2962882734958 120.8252237178851 l -3.2617464656683532 25.123462384205883 a46.334311756527114,46.334311756527114 0 0,0 -0.790047251764202,-0.10949335016756014 l 3.693722308619386 -25.063594468545716" fill="#c8ff1d" stroke="none" /><path d="M 96.58105272829116 120.7198165907248 l -1.5893113456777255 9.63168980712049 a30.76193418816623,30.76193418816623 0 0,0 -0.5217092619345006,-0.09070584249402432 l 1.754869579084276 -9.602905386105459" fill="#ff700a" stroke="none" /><path d="M 95.86986931433489 120.58985236759428 l -1.9352211292479922 9.64761659677328 a30.839796076008035,30.839796076008035 0 0,0 -0.5195896752127683,-0.10888506831662283 l 2.101002265890147 -9.612875547730116" fill="#ff710a" stroke="none" /><path d="M 95.16358092515715 120.4354850818985 l -9.12068092794789 38.53792158114244 a60.60250270353777,60.60250270353777 0 0,0 -1.013062357638935,-0.24898607982294463 l 9.782696570330035 -38.375214243005466" fill="#2fff31" stroke="none" /><path d="M 94.46302465271185 120.25689768951611 l -2.573885187701228 9.416500100070136 a30.76193418816623,30.76193418816623 0 0,0 -0.5095770529942918,-0.1440115652037912 l 2.7355934088001335 -9.370799741527824" fill="#ff700a" stroke="none" /><path d="M 93.76903079525671 120.05430185196036 l -3.673316620624193 11.8225267831115 a33.380040166846904,33.380040166846904 0 0,0 -0.547239777592973,-0.1752088955226756 l 3.8762777433081066 -11.757545040929118" fill="#ff930d" stroke="none" /><path d="M 93.42475214034765 119.94407469862007 l -3.0565303274670055 9.271083078657158 a30.76193418816623,30.76193418816623 0 0,0 -0.5014638640953538,-0.17012376923095895 l 3.215663924499585 -9.217096322528077" fill="#ff700a" stroke="none" /><path d="M 92.40401165467489 119.57807347666478 l -7.047969411713679 18.165596987617594 a40.484937432411556,40.484937432411556 0 0,0 -0.6475255819671949,-0.2576637924697505 l 7.359616069722732 -18.041586350741778" fill="#fff016" stroke="none" /><path d="M 92.06813273071674 119.44442032107085 l -3.6834841667643246 9.029804956764865 a30.752201452186004,30.752201452186004 0 0,0 -0.48841604131369615,-0.20415794488083952 l 3.838371667575483 -8.965061968864052" fill="#ff700a" stroke="none" /><path d="M 91.7346041902142 119.30500536409082 l -4.681127921933373 10.93343884825536 a32.893403367835624,32.893403367835624 0 0,0 -0.5185869426301778,-0.22733327578364732 l 4.8686355392212946 -10.85124101917726" fill="#ff8d0d" stroke="none" /><path d="M 91.40352486487194 119.15986991738527 l -3.3466889140310045 7.459118212855074 a29.175498223389464,29.175498223389464 0 0,0 -0.45643261456258255,-0.20952582673963682 l 3.4745895243610065 -7.400405315781363" fill="#ff5a08" stroke="none" /><path d="M 91.07499286063937 119.00905698771935 l -4.872698166306268 10.378187454750528 a32.4651629847057,32.4651629847057 0 0,0 -0.5038088260963351,-0.24185885293818618 l 5.0506196604028455 -10.292774325312779" fill="#ff870c" stroke="none" /><path d="M 90.10565033884886 118.52300852407294 l -15.086857895189508 28.24379640546884 a53.020701374942064,53.020701374942064 0 0,0 -0.8013124340538865,-0.4369394296755982 l 15.570793141112036 -27.979916324033475" fill="#7cff26" stroke="none" /><line stroke="#e1ed5e" stroke-width="0.3" x1="58.666819895761336" x2="56.23545636021788" y1="174.27360380694188" y2="178.64263932499728" /><path d="M 58.180547188652646 175.14741091055294 a86.0,86.0 0 0,1 -31.652253787137756,-30.449443065178592" fill="none" id="id104" stroke="none" /><text fill="#e1ed5e" style="font-size:6.75px; font-family:Arial;" text-anchor="middle"><textPath startOffset="22.20632615414155" xlink:href="#id104">August</textPath></text><path d="M 89.1626897886671 117.98757091392108 l -6.328600741362332 10.504096717846696 a33.263247335084195,33.263247335084195 0 0,0 -0.4878939074762921,-0.29970428697800694 l 6.508473848770933 -10.393603964040311" fill="#ff920d" stroke="none" /><path d="M 88.54995079064634 117.60387380957326 l -8.25719600019511 12.695022855412944 a36.14413718523096,36.14413718523096 0 0,0 -0.5186258583868508,-0.3437169391351184 l 8.474496557321922 -12.551007895186507" fill="#ffb811" stroke="none" /><path d="M 88.24862548938628 117.40417183066458 l -5.45722721750422 8.082332847671516 a30.752201452186004,30.752201452186004 0 0,0 -0.4361586421534993,-0.2999938911800137 l 5.595542744280611 -7.987198167126404" fill="#ff700a" stroke="none" /><path d="M 87.95078237400918 117.19931262002967 l -13.41366633908386 19.146956085267085 a44.378031824501775,44.378031824501775 0 0,0 -0.6218686671334941,-0.44368678236257136 l 13.74126233406624 -18.913225041060294" fill="#dfff1b" stroke="none" /><path d="M 87.65650970185807 116.9893568818739 l -5.732200190980172 7.889696707386518 a30.752201452186004,30.752201452186004 0 0,0 -0.4255739016533955,-0.31482939840811514 l 5.8671590630521315 -7.789857360238634" fill="#ff700a" stroke="none" /><path d="M 87.36589467227662 116.77436683061367 l -11.11364062043208 14.755637993745434 a39.472732890468095,39.472732890468095 0 0,0 -0.5392187178155023,-0.41344991935523373 l 11.36598806674107 -14.562148732562832" fill="#ffe315" stroke="none" /><path d="M 87.07902340077011 116.55440617244103 l -6.000379369270049 7.687709710236018 a30.752201452186004,30.752201452186004 0 0,0 -0.41448477159464897,-0.32929177029899065 l 6.131821633582057 -7.5832840259318965" fill="#ff700a" stroke="none" /><path d="M 86.24171649860922 115.8653595955263 l -9.807001402041873 11.308940085548944 a35.9689479375869,35.9689479375869 0 0,0 -0.4642694474470357,-0.4096638076889593 l 10.000213202395496 -11.138453136087696" fill="#ffb610" stroke="none" /><path d="M 85.97065885151581 115.62618273729859 l -12.028865035391204 13.398009298935138 a39.005561563417274,39.005561563417274 0 0,0 -0.49574295021782466,-0.4528494310720793 l 12.257707535075888 -13.18896710127648" fill="#ffdd14" stroke="none" /><path d="M 85.44109423537348 115.13401014063109 l -18.67714405522302 19.414926650363135 a47.94021319326433,47.94021319326433 0 0,0 -0.5897788743616389,-0.5772227605612834 l 19.008572881960454 -19.09055378687928" fill="#b5ff20" stroke="none" /><path d="M 85.18274418774928 114.88116024355367 l -6.880993507125859 6.910670120828411 a30.752201452186004,30.752201452186004 0 0,0 -0.37189570756968954,-0.37672838831411704 l 6.9989298397510815 -6.791201238533629" fill="#ff700a" stroke="none" /><path d="M 84.9287848128048 114.62390073753433 l -6.9989298397510815 6.791201238533629 a30.752201452186004,30.752201452186004 0 0,0 -0.36535584728547227,-0.38307414520538874 l 7.114792238415511 -6.66971997674574" fill="#ff700a" stroke="none" /><path d="M 83.95833913139862 113.55231037782056 l -13.858329611805802 11.707789221809453 a39.14181986714043,39.14181986714043 0 0,0 -0.43038108470330344,-0.5184217415298118 l 14.057806696402642 -11.467506223165879" fill="#ffdf14" stroke="none" /><path d="M 83.72743513129214 113.27417163493432 l -7.556825273495413 6.16439980451299 a30.752201452186004,30.752201452186004 0 0,0 -0.3310724720580833,-0.4130638136121855 l 7.661815657608357 -6.033408157322545" fill="#ff700a" stroke="none" /><path d="M 83.50135304334701 112.99209946851258 l -11.439197828125847 9.007962677998528 a35.560173026417424,35.560173026417424 0 0,0 -0.37455561199949816,-0.484163619113956 l 11.592560257343415 -8.809721064771319" fill="#ffb010" stroke="none" /><path d="M 82.6465618267979 111.8261652097733 l -8.058772616815311 5.491959311073463 a30.752201452186004,30.752201452186004 0 0,0 -0.29433795207966734,-0.43999530206133197 l 8.152113674305708 -5.352427094806307" fill="#ff700a" stroke="none" /><path d="M 82.24976979558568 111.22182372390057 l -19.76025936243003 12.492578673633163 a44.378031824501775,44.378031824501775 0 0,0 -0.40264687069087457,-0.6491949611083812 l 19.97237087278886 -12.150587381159518" fill="#dfff1b" stroke="none" /><path d="M 82.05923443525364 110.91462005526583 l -8.331521904468959 5.068646359667709 a30.752201452186004,30.752201452186004 0 0,0 -0.2712331344440692,-0.4546023346290055 l 8.41753591461126 -4.9244819311525925" fill="#ff700a" stroke="none" /><line stroke="#e1ed5e" stroke-width="0.3" x1="26.63291911575756" x2="22.317208475507996" y1="142.92168965132927" y2="145.44649492493687" /><path d="M 25.769776987707644 143.4266507060508 a86.0,86.0 0 0,1 -11.730757126820373,-40.83630448921669" fill="none" id="id105" stroke="none" /><text fill="#e1ed5e" style="font-size:6.75px; font-family:Arial;" text-anchor="middle"><textPath startOffset="21.46611528233685" xlink:href="#id105">September</textPath></text><path d="M 81.69416730710424 110.29060199501025 l -16.98514307948894 9.548177905458296 a40.484937432411556,40.484937432411556 0 0,0 -0.3362632452424726,-0.6104154643771934 l 17.14698273418293 -9.25439192268328" fill="#fff016" stroke="none" /><path d="M 81.51974371655577 109.97397251340807 l -15.433997446052768 8.329877245092543 a38.538390236366446,38.538390236366446 0 0,0 -0.31004592226117383,-0.5864900410616264 l 15.575095876538827 -8.06297218894479" fill="#ffd714" stroke="none" /><path d="M 81.02952815118164 109.00673069616217 l -25.51474245571029 12.113795371665042 a49.24439981461455,49.24439981461455 0 0,0 -0.3569641728701175,-0.7688690713385885 l 25.719481245420234 -11.672806233047627" fill="#a6ff21" stroke="none" /><path d="M 80.73074385275274 108.34839909993369 l -18.71853586496072 8.109799712711729 a41.39981461455275,41.39981461455275 0 0,0 -0.2776725365371505,-0.656335853232527 l 18.855359382690178 -7.786389333813044" fill="#fffb17" stroke="none" /><path d="M 80.58989483394504 108.01547362559985 l -8.995877568077377 3.714880407353552 a30.732735980225552,30.732735980225552 0 0,0 -0.19771010893554233,-0.4907002762899899 l 9.058490291270306 -3.559480763220757" fill="#ff6f0a" stroke="none" /><path d="M 80.45479744820244 107.68017299344265 l -14.7653391747706 5.801953644049833 a36.86435964776765,36.86435964776765 0 0,0 -0.22698917055136045,-0.5925970971844319 l 14.86302262491547 -5.546932980032244" fill="#ffc112" stroke="none" /><path d="M 80.20201598880116 107.00284435728193 l -26.058832654938055 9.21740057531933 a48.640970183840565,48.640970183840565 0 0,0 -0.27241067073508046,-0.791752921764587 l 26.213634156616365 -8.767474950465445" fill="#adff20" stroke="none" /><path d="M 80.0844068197444 106.66101706037122 l -9.248613177792112 3.093313345199429 a30.752201452186004,30.752201452186004 0 0,0 -0.16358377145326322,-0.5034590803507495 l 9.300489200261625 -2.933655364870876" fill="#ff700a" stroke="none" /><path d="M 79.86692584326677 105.97154293290107 l -19.184427838518545 5.690170988743062 a41.01050517534374,41.01050517534374 0 0,0 -0.19491192292951623,-0.678513973759679 l 19.279532398334165 -5.3590995394787875" fill="#fff617" stroke="none" /><path d="M 79.67330655649465 105.27499134158121 l -30.165026605640715 7.828142565615496 a52.164220608682214,52.164220608682214 0 0,0 -0.21806801752660535,-0.8710733308094138 l 30.29530593746238 -7.307741395408691" fill="#86ff25" stroke="none" /><path d="M 79.50377843672027 104.57218783832718 l -18.998506006438806 4.2380854364225335 a40.465471960451104,40.465471960451104 0 0,0 -0.14580280163603437,-0.6811421489915324 l 19.068642846799282 -3.9104294680148377" fill="#ffef16" stroke="none" /><path d="M 79.35854240842038 103.8639653848113 l -9.566564618374613 1.7908073774809032 a30.732735980225552,30.732735980225552 0 0,0 -0.09286197307598723,-0.5208192606680467 l 9.59597303378979 -1.6258693660796428" fill="#ff6f0a" stroke="none" /><path d="M 79.29508885075956 103.50808413554451 l -9.63435692592495 1.6323728435439615 a30.771666924146455,30.771666924146455 0 0,0 -0.08398942683194148,-0.5230022410566767 l 9.661028107118181 -1.4662913727940712" fill="#ff700a" stroke="none" /><path d="M 79.18660465613746 102.79330883721812 l -14.122112212304078 1.895290037550131 a35.24872547505021,35.24872547505021 0 0,0 -0.07553044987378266,-0.6020520005665542 l 14.15264417142471 -1.6519202826961683" fill="#ffac0f" stroke="none" /><path d="M 79.1416061653843 102.43462659150553 l -38.784431977975366 4.526983725530757 a60.04773675266492,60.04773675266492 0 0,0 -0.1109959495623406,-1.0276846405429583 l 38.85661022903876 -3.8587027631030164" fill="#34ff2f" stroke="none" /><path d="M 79.04373962182676 101.35467743843564 l -24.00921164290634 1.552029643664254 a45.05932334311757,45.05932334311757 0 0,0 -0.04337206434776351,-0.7744373446341893 l 24.032370058141634 -1.1385205826946272" fill="#d7ff1c" stroke="none" /><path d="M 79.0235259727143 100.99374915477108 l -20.47417934564979 0.969953214868481 a41.49714197435502,41.49714197435502 0 0,0 -0.0276605466862799,-0.7137958030965499 l 20.487842025187273 -0.6173801647579342" fill="#fffc17" stroke="none" /><path d="M 79.0095281055655 100.63252640178507 l -61.911028797859345 1.86562553111087 a82.93913177815541,82.93913177815541 0 0,0 -0.030718827044304713,-1.4273831854357109 l 61.93396968758866 -0.7996525298850303" fill="#4cdcff" stroke="none" /><line stroke="#e1ed5e" stroke-width="0.3" x1="15.007084014347285" x2="10.007500721073583" y1="101.09737516637583" y2="101.16192664675087" /><path d="M 14.007167355692545 101.11028546245083 a86.0,86.0 0 0,1 10.666146001902534,-42.60595125391555" fill="none" id="id106" stroke="none" /><text fill="#e1ed5e" style="font-size:6.75px; font-family:Arial;" text-anchor="middle"><textPath startOffset="22.20632615414155" xlink:href="#id106">October</textPath></text><path d="M 79.00019446554 99.90962569577889 l -20.321764540067573 -0.08745630181385713 a41.321952726710954,41.321952726710954 0 0,0 0.009183298059888309,-0.7112565550878679 l 20.31724823488997 0.4372491149621969" fill="#fffa17" stroke="none" /><path d="M 79.00486145842228 99.54816195383935 l -20.06425568024095 -0.4318044420747365 a41.068901591225085,41.068901591225085 0 0,0 0.021293845185538257,-0.7066390551130844 l 20.053850140599767 0.7771136446128153" fill="#fff717" stroke="none" /><path d="M 79.01574976396665 99.18683210126434 l -9.744887410708522 -0.37762748394861356 a30.752201452186004,30.752201452186004 0 0,0 0.025050438367783843,-0.5287751614893399 l 9.736943364107239 0.5453137520609624" fill="#ff700a" stroke="none" /><path d="M 79.03285615573316 98.82574320788736 l -9.736943364107239 -0.5453137520609624 a30.752201452186004,30.752201452186004 0 0,0 0.034148722056104974,-0.5282656156257842 l 9.726114051046721 0.7128384319397585" fill="#ff700a" stroke="none" /><path d="M 79.05617556472873 98.46500227214037 l -48.57233005133512 -3.559923666094363 a69.70261084504867,69.70261084504867 0 0,0 0.09800026496803728,-1.1958514581787243 l 48.50385530254759 4.395489041480865" fill="#3bff9b" stroke="none" /><path d="M 79.08570108090925 98.10471618934814 l -30.513616405359674 -2.7651877503161 a51.63865286575004,51.63865286575004 0 0,0 0.08784195744105765,-0.8845565236795278 l 30.461497322236387 3.290019804700058" fill="#8bff24" stroke="none" /><path d="M 79.21141760316559 97.0276538004421 l -21.234992554900224 -3.036173809899097 a42.45095010041712,42.45095010041712 0 0,0 0.10965304099285192,-0.7224765355089565 l 21.17958362046807 3.4012494578001458" fill="#f6ff19" stroke="none" /><path d="M 79.26566170972629 96.67025291283419 l -5.784986088712238 -0.9290164127022174 a26.85910706009578,26.85910706009578 0 0,0 0.07723673698039141,-0.455855593779277 l 5.768137490211624 1.0284577947973224" fill="#ff3905" stroke="none" /><path d="M 79.32604984820605 96.31383870115002 l -25.793731102408135 -4.599017248495668 a47.200525258767186,47.200525258767186 0 0,0 0.1495004175552948,-0.7986372085581693 l 25.71074496094298 5.042332534516411" fill="#beff1f" stroke="none" /><path d="M 79.46518482838121 95.60439243477599 l -29.503133183385568 -6.3153329764534645 a51.17148153869921,51.17148153869921 0 0,0 0.19178489631034468,-0.859734084920206 l 29.390053900073188 6.822245230923629" fill="#91ff24" stroke="none" /><path d="M 79.54389044137918 95.25157060432595 l -26.0338993579358 -6.043188840037512 a47.72609300169937,47.72609300169937 0 0,0 0.19264796467838002,-0.7986501864759175 l 25.926018592996606 6.490424258172826" fill="#b7ff1f" stroke="none" /><path d="M 79.71946130924805 94.55025226153421 l -18.817382261185887 -5.056571128877726 a40.484937432411556,40.484937432411556 0 0,0 0.18664178744050425,-0.6714498137857278 l 18.727553703179023 5.379732246082397" fill="#fff016" stroke="none" /><path d="M 79.91906864156998 93.8553929516997 l -25.556420906959143 -7.820063782465306 a47.72609300169937,47.72609300169937 0 0,0 0.24714051881445284,-0.7835029818787296 l 25.418024904376487 8.25881693077045" fill="#b7ff1f" stroke="none" /><path d="M 80.14247586403 93.16781622104843 l -12.902942455722204 -4.439388996488538 a34.64529584427623,34.64529584427623 0 0,0 0.19887541326000988,-0.5622475741372194 l 12.824613961652386 4.660834197052369" fill="#ffa40f" stroke="none" /><path d="M 80.2630227832202 92.82701384747504 l -24.222238067371975 -8.8030591681845 a46.77228487563726,46.77228487563726 0 0,0 0.28151439017025104,-0.7543186055071813 l 24.067119088700096 9.218700910721022" fill="#c3ff1e" stroke="none" /><path d="M 80.38941819471856 92.48833698450439 l -24.921465461184166 -9.545950867521544 a47.687162057778465,47.687162057778465 0 0,0 0.300216686279781,-0.7640187203826934 l 24.753455225022694 9.9735185928" fill="#b8ff1f" stroke="none" /><path d="M 80.65960295795067 91.81776055985345 l -32.75288620036224 -13.856590258440662 a56.56341727174417,56.56341727174417 0 0,0 0.38708040690451134,-0.893434947340127 l 32.50951508361505 14.418324350367389" fill="#57ff2a" stroke="none" /><path d="M 80.95270993114464 91.15688171328213 l -17.673107392792414 -8.20512412019582 a40.484937432411556,40.484937432411556 0 0,0 0.29889799151070334,-0.6295553986129768 l 17.52925120743996 8.50812193444933" fill="#fff016" stroke="none" /><path d="M 81.26839172434947 90.50648371742162 l -21.963989929273517 -11.131745494325644 a45.62382202997065,45.62382202997065 0 0,0 0.3610594687887095,-0.6974519707790672 l 21.769121027324694 11.508170187365046" fill="#d0ff1d" stroke="none" /><path d="M 81.43458229118936 90.18545643968196 l -44.725648656139825 -23.64405874858637 a71.59076162521242,71.59076162521242 0 0,0 0.5853120924680956,-1.0844944138424726 l 44.312028464453256 24.410434145761315" fill="#3dffb0" stroke="none" /><path d="M 81.6062741919709 89.86733742301443 l -9.053361721671674 -4.987279927433343 a31.336165610999537,31.336165610999537 0 0,0 0.26433153758016564,-0.4702163104495467 l 8.966172542799077 5.142379747817674" fill="#ff780b" stroke="none" /><line stroke="#e1ed5e" stroke-width="0.3" x1="26.266209847984243" x2="21.928928074336255" y1="57.711370442889674" y2="55.22380399835377" /><path d="M 25.398753493254645 57.213857153982495 a86.0,86.0 0 0,1 29.58750427330803,-30.492523968695096" fill="none" id="id107" stroke="none" /><text fill="#e1ed5e" style="font-size:6.75px; font-family:Arial;" text-anchor="middle"><textPath startOffset="21.46611528233685" xlink:href="#id107">November</textPath></text><path d="M 82.15384107792192 88.93136811851018 l -16.95564303580723 -10.51631176752084 a40.952108759462384,40.952108759462384 0 0,0 0.37670558513629127,-0.5958577696436672 l 16.77210985442498 10.806617184878723" fill="#fff517" stroke="none" /><path d="M 82.7489923806493 88.02491185347247 l -26.68802569136072 -18.52595901426334 a53.48787270199289,53.48787270199289 0 0,0 0.5315354298305978,-0.7518191702502458 l 26.365177641726245 18.98260468484537" fill="#77ff27" stroke="none" /><path d="M 83.6137871275137 86.86637796730984 l -15.188827009874522 -12.17391197221396 a40.465471960451104,40.465471960451104 0 0,0 0.4403057791335016,-0.5397628228763155 l 14.977022738664628 12.433558964698356" fill="#ffef16" stroke="none" /><path d="M 84.31358615837235 86.03803664274999 l -30.98508997050073 -27.578814071651284 a62.480920747721306,62.480920747721306 0 0,0 0.721971083790451,-0.7972185030087472 l 30.505775246094235 28.108085361929586" fill="#32ff48" stroke="none" /><path d="M 84.5562425177563 85.77008943001954 l -7.300772114269384 -6.726946754849408 a30.927390699830063,30.927390699830063 0 0,0 0.3641076965326157,-0.3884047039860263 l 7.18389709576631 6.851620875713484" fill="#ff720a" stroke="none" /><path d="M 85.31137513191541 84.99185889309783 l -7.079948955418495 -7.2339564735879485 a31.122045419434574,31.122045419434574 0 0,0 0.3860863964198953,-0.37141480746009126 l 6.954379315386172 7.354754367810349" fill="#ff750a" stroke="none" /><path d="M 85.57189188830299 84.74124197986013 l -7.328845893906966 -7.750779603000137 a31.667078634327204,31.667078634327204 0 0,0 0.39929489360086656,-0.371101086872446 l 7.194343116511242 7.875785275947232" fill="#ff7c0b" stroke="none" /><path d="M 86.10567301691215 84.25364557470407 l -29.441462830222907 -33.36582686503308 a65.49806890159122,65.49806890159122 0 0,0 0.8518061330326417,-0.7386778847288844 l 28.86276289854349 33.867669743181644" fill="#36ff6b" stroke="none" /><path d="M 86.65592168130627 83.78471172551755 l -12.653476397364763 -15.376091368573036 a40.91317781554148,40.91317781554148 0 0,0 0.5476454875178565,-0.44282456471527465 l 12.386927511282405 15.591622030552447" fill="#fff517" stroke="none" /><path d="M 86.93701828274178 83.55741782278169 l -12.943915454116215 -16.292711584223422 a41.808589525722226,41.808589525722226 0 0,0 0.5673374728349267,-0.44281589650554165 l 12.661545426121863 16.513105869952184" fill="#feff18" stroke="none" /><path d="M 87.80319425747018 82.90503203632743 l -9.315774384530739 -13.056932119943951 a37.03954889541171,37.03954889541171 0 0,0 0.5222027157999924,-0.36583637419497417 l 9.089640529147086 13.215353336902867" fill="#ffc412" stroke="none" /><path d="M 88.39885842347998 82.49532879139004 l -21.872444276201204 -33.002781929534365 a60.592769967557544,60.592769967557544 0 0,0 0.8743622523446422,-0.5687095308933052 l 21.301114998072276 33.37439038458721" fill="#2fff31" stroke="none" /><path d="M 88.70189139769569 82.29822771554957 l -8.388492189506339 -13.143012142602927 a36.591843040321336,36.591843040321336 0 0,0 0.5338590422359771,-0.3343024832718477 l 8.16101399489812 13.285458967197705" fill="#ffbe11" stroke="none" /><line stroke="#e1ed5e" stroke-width="0.3" x1="56.76296977257108" x2="54.21961505331056" y1="26.818313649435495" y2="22.513508569990535" /><path d="M 56.25429882871898 25.957352633546506 a86.0,86.0 0 0,1 42.26535254187918,-11.944610805530505" fill="none" id="id108" stroke="none" /><text fill="#e1ed5e" style="font-size:6.75px; font-family:Arial;" text-anchor="middle"><textPath startOffset="22.20632615414155" xlink:href="#id108">December</textPath></text><path d="M 89.3179101791058 81.91981866633112 l -4.9606615173193225 -8.396265269428186 a30.752201452186004,30.752201452186004 0 0,0 0.4580661475299256,-0.26534147877332653 l 4.8153986373240745 8.480410905591558" fill="#ff700a" stroke="none" /><path d="M 89.63071344664047 81.73862282372117 l -9.630797274648149 -16.960821811183116 a40.50440290437201,40.50440290437201 0 0,0 0.6092554840005424,-0.33905001721938754 l 9.33741770157556 17.12408722596269" fill="#fff016" stroke="none" /><path d="M 90.58718382345135 81.22770947309562 l -9.998845053290351 -19.94102729229022 a43.30743086667697,43.30743086667697 0 0,0 0.6692621746760117,-0.3284040425398052 l 9.654111611603915 20.110186494964854" fill="#ecff1a" stroke="none" /><path d="M 90.91171255644093 81.06846463323043 l -4.220514762140978 -8.791626033139085 a30.752201452186004,30.752201452186004 0 0,0 0.47918049360281345,-0.2249816668554562 l 4.068556057238556 8.862972682634549" fill="#ff700a" stroke="none" /><path d="M 91.23893434514133 80.91482961587045 l -4.076676927612286 -8.880663246871345 a30.771666924146455,30.771666924146455 0 0,0 0.48328790457942916,-0.2168371952805072 l 3.9232069045660825 8.94952077266838" fill="#ff700a" stroke="none" /><path d="M 92.23578459929587 80.48803036053334 l -15.192577207680921 -38.17991772802174 a62.091611308512284,62.091611308512284 0 0,0 0.9964723011078591,-0.3866157717038059 l 14.533121741573385 38.4357762036161" fill="#31ff43" stroke="none" /><path d="M 92.91201910852362 80.23233633223022 l -4.461058883342313 -12.441443192104762 a34.2170554611463,34.2170554611463 0 0,0 0.5561379427073274,-0.19402560815583242 l 4.246238936571699 12.516389653432803" fill="#ff9f0e" stroke="none" /><path d="M 94.63758080256005 79.69619591428918 l -0.7555270057261291 -2.860662648875061 a23.958751737988567,23.958751737988567 0 0,0 0.3996446558104865,-0.10187832122554386 l 0.7061734612306432 2.8732439662694675" fill="#ff0f01" stroke="none" /><path d="M 94.98787191387505 79.60689891045804 l -9.863199067056945 -40.13090092361895 a62.325196972037695,62.325196972037695 0 0,0 1.0440251428646314,-0.24708702021654994 l 9.17095023722978 40.294733855976375" fill="#32ff46" stroke="none" /><path d="M 95.692805502759 79.44645832069477 l -4.0403653618488145 -19.280257234163646 a40.699057623976515,40.699057623976515 0 0,0 0.686910148808091,-0.13778771373573184 l 3.707888803573587 19.34694890397659" fill="#fff216" stroke="none" /><path d="M 97.11714578562143 79.19881850522333 l -0.40350160948972386 -2.9114584326073945 a23.939286266028116,23.939286266028116 0 0,0 0.4086610255431048,-0.05305592976546196 l 0.35332585543876127 2.917972685536993" fill="#ff0e01" stroke="none" /><path d="M 97.47563105711357 79.15227682838746 l -0.23633053906831053 -1.951756564498254 a22.96601266800556,22.96601266800556 0 0,0 0.39286459228405785,-0.04414291447267624 l 0.2026992432745347 1.9555354324415286" fill="#ff0000" stroke="none" /><path d="M 99.27714615592234 79.0124445844662 l -0.20167990767870492 -5.855634957585978 a26.85910706009578,26.85910706009578 0 0,0 0.46219837590322826,-0.011937220431547121 l 0.10085489658059767 5.858238970159884" fill="#ff3905" stroke="none" /></svg>