<?xml version="1.0" encoding="utf-8" ?>
<svg baseProfile="full" height="200mm" version="1.1" viewBox="0,0,200,200" width="200mm" xmlns="http://www.w3.org/2000/svg" xmlns:ev="http://www.w3.org/2001/xml-events" xmlns:xlink="http://www.w3.org/1999/xlink"><defs /><rect fill="#1a1a1a" height="200" width="200" x="0" y="0" /><text alignment-baseline="middle" fill="#e1ed5e" style="dominant-baseline: central; font-size:9.0px; font-family:Arial;" text-anchor="middle" x="100.0" y="100.0">2014</text><line stroke="#e1ed5e" stroke-width="0.3" x1="100.0" x2="100.0" y1="15.0" y2="10.0" /><path d="M 100.0 14.0 a86.0,86.0 0 0,1 42.46469731375804,11.215312516191453" fill="none" id="id1" stroke="none" /><text fill="#e1ed5e" style="font-size:6.75px; font-family:Arial;" text-anchor="middle"><textPath startOffset="22.20632615414155" xlink:href="#id1">January</textPath></text><line stroke="#e1ed5e" stroke-width="0.3" x1="143.23703022742887" x2="145.7803849466894" y1="26.81831364943548" y2="22.513508569990506" /><path d="M 143.74570117128098 25.957352633546492 a86.0,86.0 0 0,1 28.547481713284135,27.462654790039103" fill="none" id="id2" stroke="none" /><text fill="#e1ed5e" style="font-size:6.75px; font-family:Arial;" text-anchor="middle"><textPath startOffset="19.985693538727396" xlink:href="#id2">February</textPath></text><line stroke="#e1ed5e" stroke-width="0.3" x1="172.23445277983987" x2="176.4835382374775" y1="55.19839476539836" y2="52.563006222186495" /><path d="M 173.08426987136738 54.67131705675599 a86.0,86.0 0 0,1 12.851231095245387,41.99856678651699" fill="none" id="id3" stroke="none" /><text fill="#e1ed5e" style="font-size:6.75px; font-family:Arial;" text-anchor="middle"><textPath startOffset="22.20632615414155" xlink:href="#id3">March</textPath></text><line stroke="#e1ed5e" stroke-width="0.3" x1="184.98032266829074" x2="189.97916517819016" y1="98.17113171792111" y2="98.06355123074" /><path d="M 185.9800911702706 98.14961562048488 a86.0,86.0 0 0,1 -9.607161424134198,41.387399972396054" fill="none" id="id4" stroke="none" /><text fill="#e1ed5e" style="font-size:6.75px; font-family:Arial;" text-anchor="middle"><textPath startOffset="21.466115282336823" xlink:href="#id4">April</textPath></text><line stroke="#e1ed5e" stroke-width="0.3" x1="174.80103733775053" x2="179.2010983576182" y1="140.37084112569926" y2="142.7455964860345" /><path d="M 175.68104954172406 140.8457921977663 a86.0,86.0 0 0,1 -30.038265399797805,32.042727171017184" fill="none" id="id5" stroke="none" /><text fill="#e1ed5e" style="font-size:6.75px; font-family:Arial;" text-anchor="middle"><textPath startOffset="22.206326154141568" xlink:href="#id5">May</textPath></text><line stroke="#e1ed5e" stroke-width="0.3" x1="143.8653032363475" x2="146.44561519142675" y1="172.8068346515853" y2="177.08958963109032" /><path d="M 144.38136562736335 173.6633856474863 a86.0,86.0 0 0,1 -40.68145358897372,12.25698825130547" fill="none" id="id6" stroke="none" /><text fill="#e1ed5e" style="font-size:6.75px; font-family:Arial;" text-anchor="middle"><textPath startOffset="21.466115282336833" xlink:href="#id6">June</textPath></text><line stroke="#e1ed5e" stroke-width="0.3" x1="102.19456741930631" x2="102.32365962044197" y1="184.97166512339345" y2="189.96999836594603" /><path d="M 102.22038585953345 185.97133177190398 a86.0,86.0 0 0,1 -42.740103519485714,-10.115201625700543" fill="none" id="id7" stroke="none" /><text fill="#e1ed5e" style="font-size:6.75px; font-family:Arial;" text-anchor="middle"><textPath startOffset="22.20632615414155" xlink:href="#id7">July</textPath></text><path d="M 98.73552117531835 120.96189622390904 l -0.9176235660933661 15.211903583996518 a36.239555231628515,36.239555231628515 0 0,0 -0.6223491975873329,-0.04292084440972001 l 1.179335524459629 -15.193854395070513" fill="#ff0300" stroke="none" /><path d="M 95.86986931433489 120.58985236759428 l -3.948893955101026 19.686336762421885 a41.07848646168622,41.07848646168622 0 0,0 -0.6920913934143772,-0.14503448056856094 l 4.28717680994479 -19.61544630112678" fill="#ff5c08" stroke="none" /><path d="M 93.76903079525671 120.05430185196036 l -5.447013105231232 17.531148271561943 a39.35786238885263,39.35786238885263 0 0,0 -0.645241520158574,-0.20658595869915364 l 5.747975970480746 -17.434789466203082" fill="#ff3d05" stroke="none" /><path d="M 93.42475214034765 119.94407469862007 l -6.613089181618909 20.05885518569899 a42.120857460929194,42.120857460929194 0 0,0 -0.6866306849291874,-0.23294240832391552 l 6.957389599485322 -19.942049790476954" fill="#ff6f0a" stroke="none" /><path d="M 93.08242187328487 119.8279376855182 l -5.4124792695787525 15.51385466351467 a37.43090436842341,37.43090436842341 0 0,0 -0.6065240278339906,-0.21747793728997744 l 5.67872285804247 -15.418389185184735" fill="#ff1a02" stroke="none" /><path d="M 91.07499286063937 119.00905698771935 l -9.2792621084476 19.763572114755913 a42.83354043696141,42.83354043696141 0 0,0 -0.6647099149097666,-0.31910115351169893 l 9.618084691357609 -19.60091668474465" fill="#ff7b0b" stroke="none" /><path d="M 90.7491055286396 118.85261126421891 l -6.78956126926144 13.8366035479334 a36.4126487007178,36.4126487007178 0 0,0 -0.5603145304074937,-0.280953337485162 l 7.026729707351694 -13.717682369538936" fill="#ff0701" stroke="none" /><line stroke="#e1ed5e" stroke-width="0.3" x1="58.666819895761336" x2="56.23545636021788" y1="174.27360380694188" y2="178.64263932499728" /><path d="M 58.180547188652646 175.14741091055294 a86.0,86.0 0 0,1 -31.652253787137756,-30.449443065178592" fill="none" id="id8" stroke="none" /><text fill="#e1ed5e" style="font-size:6.75px; font-family:Arial;" text-anchor="middle"><textPath startOffset="22.20632615414155" xlink:href="#id8">August</textPath></text><path d="M 88.8546689885994 117.79835938074946 l -11.35063459773288 18.126215682905126 a42.3868324151672,42.3868324151672 0 0,0 -0.6150494852613714,-0.39255368155302306 l 11.660965885041175 -17.9281475725283" fill="#ff730a" stroke="none" /><path d="M 88.54995079064634 117.60387380957326 l -10.894907161224 16.75037087845228 a40.98183992072282,40.98183992072282 0 0,0 -0.5880412028715459,-0.3897216443565311 l 11.181623062835506 -16.56035121300443" fill="#ff5a08" stroke="none" /><path d="M 88.24862548938628 117.40417183066458 l -13.840352782359652 20.498017300328904 a45.733056389875344,45.733056389875344 0 0,0 -0.648632190041781,-0.4461351348548232 l 14.191141857024325 -20.256741376108984" fill="#ffad10" stroke="none" /><path d="M 87.95078237400918 117.19931262002967 l -14.869225203968563 21.224652142478842 a46.91485513630292,46.91485513630292 0 0,0 -0.6574171325972543,-0.46904966860066666 l 15.232369664414701 -20.965558212033955" fill="#ffc011" stroke="none" /><path d="M 87.36589467227662 116.77436683061367 l -11.805655760311613 15.674430065488393 a40.62297800561539,40.62297800561539 0 0,0 -0.5549316834691432,-0.42549795138321733 l 12.073716172274242 -15.468892772277808" fill="#ff5407" stroke="none" /><path d="M 87.07902340077011 116.55440617244103 l -18.63811367310191 23.87922473685508 a51.291857904801745,51.291857904801745 0 0,0 -0.6913226697409562,-0.549228539545608 l 19.046393835560224 -23.55486228330434" fill="#f7ff18" stroke="none" /><path d="M 86.79598089348748 116.32954008644616 l -9.665233081843324 11.953088660479244 a36.37182679617605,36.37182679617605 0 0,0 -0.4834506351529269,-0.39784695957918237 l 9.869553845540938 -11.784946582042881" fill="#ff0601" stroke="none" /><path d="M 85.44109423537348 115.13401014063109 l -18.768233410136116 19.50961420746703 a48.071601944871105,48.071601944871105 0 0,0 -0.5913952691347292,-0.5788047430527552 l 19.10127863164664 -19.183659361491706" fill="#ffd313" stroke="none" /><path d="M 84.9287848128048 114.62390073753433 l -21.753791464424012 21.108137803714982 a51.311399252068,51.311399252068 0 0,0 -0.609612283474744,-0.6391760420254768 l 22.113910299277713 -20.730554645107006" fill="#f7ff19" stroke="none" /><path d="M 84.67929136418377 114.36230785411682 l -23.940758793979708 22.443122980386367 a53.81544911690625,53.81544911690625 0 0,0 -0.6277279793575778,-0.6812747438110365 l 24.323533181333016 -22.02769698177399" fill="#d1ff1d" stroke="none" /><path d="M 84.19399662182784 113.82643327865904 l -26.57950932545324 23.250647458128853 a56.31377809303402,56.31377809303402 0 0,0 -0.6319411248567772,-0.7350902956207785 l 26.9757929598808 -22.78968006334654" fill="#acff21" stroke="none" /><path d="M 83.72743513129214 113.27417163493432 l -19.36209532521533 15.794423229070006 a45.98708747576859,45.98708747576859 0 0,0 -0.4950884169065485,-0.6176989234150538 l 19.63110165417674 -15.458796472076694" fill="#ffb110" stroke="none" /><path d="M 83.28015986056508 112.70617746262583 l -15.434624367099174 11.729482736786451 a40.38577815374,40.38577815374 0 0,0 -0.4158556910237164,-0.5571066562920443 l 15.634241324817976 -11.462063200985101" fill="#ff5007" stroke="none" /><path d="M 82.85270091963577 112.12312394758628 l -23.255522682061837 16.44163215554944 a49.48063558199307,49.48063558199307 0 0,0 -0.4857092062815758,-0.6997003375530082 l 23.535092795505545 -16.03889055580942" fill="#ffea16" stroke="none" /><line stroke="#e1ed5e" stroke-width="0.3" x1="26.63291911575756" x2="22.317208475507996" y1="142.92168965132927" y2="145.44649492493687" /><path d="M 25.769776987707644 143.4266507060508 a86.0,86.0 0 0,1 -11.730757126820373,-40.83630448921669" fill="none" id="id9" stroke="none" /><text fill="#e1ed5e" style="font-size:6.75px; font-family:Arial;" text-anchor="middle"><textPath startOffset="21.46611528233685" xlink:href="#id9">September</textPath></text><path d="M 80.45479744820244 107.68017299344265 l -19.385825587377763 7.617546747709463 a41.8287602165316,41.8287602165316 0 0,0 -0.2575570463575707,-0.6724001751279927 l 19.514076913328843 -7.282723005748313" fill="#ff6a09" stroke="none" /><path d="M 79.97269907076064 106.31721596034903 l -28.755790722404008 9.070445425764445 a51.152420803187056,51.152420803187056 0 0,0 -0.2576455544036978,-0.8420005790632991 l 28.907663049313836 -8.574117874149097" fill="#f9ff18" stroke="none" /><path d="M 79.4281124754447 104.21870165774334 l -29.541683420743787 6.058148464542263 a51.15646236132289,51.15646236132289 0 0,0 -0.1694742150097633,-0.8641453711640062 l 29.641587568729214 -5.548739366310302" fill="#f9ff18" stroke="none" /><path d="M 79.10278846688536 102.07522291339032 l -20.774852121920368 2.0630718637932457 a41.87703873165049,41.87703873165049 0 0,0 -0.06505977596860238,-0.7179292064698439 l 20.807286494166046 -1.7051612687748354" fill="#ff6a09" stroke="none" /><path d="M 79.0095281055655 100.63252640178507 l -34.20723563879724 1.0308000593049809 a55.22276316737828,55.22276316737828 0 0,0 -0.020453294775073686,-0.9503842385190606 l 34.219910996257326 -0.44182600499579144" fill="#bcff1f" stroke="none" /><line stroke="#e1ed5e" stroke-width="0.3" x1="15.007084014347285" x2="10.007500721073583" y1="101.09737516637583" y2="101.16192664675087" /><path d="M 14.007167355692545 101.11028546245083 a86.0,86.0 0 0,1 10.666146001902534,-42.60595125391555" fill="none" id="id10" stroke="none" /><text fill="#e1ed5e" style="font-size:6.75px; font-family:Arial;" text-anchor="middle"><textPath startOffset="22.20632615414155" xlink:href="#id10">October</textPath></text><path d="M 79.21141760316559 97.0276538004421 l -29.76228750051418 -4.255404262475052 a51.064966700469725,51.064966700469725 0 0,0 0.13190349977232207,-0.8690792583055306 l 29.684628107302554 4.7670826331726746" fill="#fbff18" stroke="none" /><path d="M 79.32604984820605 96.31383870115002 l -26.411728131740258 -4.709205998860371 a47.82826874855443,47.82826874855443 0 0,0 0.1514886986883184,-0.8092586858749101 l 26.32675370914208 5.163142762197855" fill="#ffcf13" stroke="none" /><path d="M 79.54389044137918 95.25157060432595 l -19.11570410344376 -4.437284177799405 a40.62395562176407,40.62395562176407 0 0,0 0.16397995049456532,-0.6798027597095793 l 19.03649135268838 4.765672169168381" fill="#ff5407" stroke="none" /><path d="M 79.62865764111835 94.90015583598534 l -29.11478747513514 -7.288713545519451 a51.013266980969014,51.013266980969014 0 0,0 0.22058056024530087,-0.8499868790986276 l 28.985010583019534 7.788796850166943" fill="#fcff18" stroke="none" /><path d="M 80.02781315780177 93.51064311812611 l -27.87655968634884 -9.057643305306941 a50.311149451919164,50.311149451919164 0 0,0 0.2747053595052315,-0.8213340597625123 l 27.71651703307184 9.536150467991776" fill="#fff717" stroke="none" /><path d="M 81.10775173730289 90.83032412892265 l -27.069573558353824 -13.138680587238575 a51.08964506611217,51.08964506611217 0 0,0 0.3908114248397618,-0.7878519848405603 l 26.83940212056065 13.602692160578098" fill="#faff18" stroke="none" /><line stroke="#e1ed5e" stroke-width="0.3" x1="26.266209847984243" x2="21.928928074336255" y1="57.711370442889674" y2="55.22380399835377" /><path d="M 25.398753493254645 57.213857153982495 a86.0,86.0 0 0,1 29.58750427330803,-30.492523968695096" fill="none" id="id11" stroke="none" /><text fill="#e1ed5e" style="font-size:6.75px; font-family:Arial;" text-anchor="middle"><textPath startOffset="21.46611528233685" xlink:href="#id11">November</textPath></text><path d="M 81.78341655067845 89.55222093294921 l -29.53123569453135 -16.937085209848103 a55.04348303349141,55.04348303349141 0 0,0 0.4784597767247998,-0.8178428534380274 l 29.235316243336225 17.442907475640023" fill="#beff1e" stroke="none" /><path d="M 82.7489923806493 88.02491185347247 l -24.73783618725054 -17.17220091911555 a51.113867629942774,51.113867629942774 0 0,0 0.5079437679706719,-0.7184504376146685 l 24.438579799475992 17.595477857062004" fill="#faff18" stroke="none" /><path d="M 84.31358615837235 86.03803664274999 l -47.05924152488297 -41.885890071750055 a84.0,84.0 0 0,0 0.9706254375358201,-1.071788850921776 l 46.331272446731106 42.68973170994139" fill="#4dd2ff" stroke="none" /><path d="M 85.05521093208273 85.24692304244772 l -11.147718024281874 -11.004714831765975 a36.66446187002251,36.66446187002251 0 0,0 0.44724393034429927,-0.44532332277374786 l 10.956638293770258 11.194974005189835" fill="#ff0b01" stroke="none" /><path d="M 85.31137513191541 84.99185889309783 l -21.205694286730647 -21.666973932773875 a51.317309075605365,51.317309075605365 0 0,0 0.6366199479483449,-0.6124278855329889 l 20.829591095169874 22.02878490506917" fill="#f7ff19" stroke="none" /><path d="M 86.10567301691215 84.25364557470407 l -29.76233881619317 -33.72947362588764 a65.98304350407305,65.98304350407305 0 0,0 0.8581132554820038,-0.7441473591655544 l 29.177331762064394 34.236785978472874" fill="#30ff36" stroke="none" /><path d="M 86.65592168130627 83.78471172551755 l -17.407130433963665 -21.152576541971957 a48.394154199555175,48.394154199555175 0 0,0 0.6477824892781174,-0.5237950560770508 l 17.040444546121048 21.449077695313143" fill="#ffd914" stroke="none" /><path d="M 87.22198572758235 83.33499621200491 l -27.560114716437063 -35.943723833398366 a66.29361109687304,66.29361109687304 0 0,0 0.9115492945460748,-0.6865600302533565 l 26.937319268132597 36.41280045315757" fill="#31ff3b" stroke="none" /><path d="M 87.51073957382395 83.11751280151077 l -17.71337847736764 -23.944242908041886 a50.78406529541905,50.78406529541905 0 0,0 0.7072398928686033,-0.5138398596709972 l 17.298593268145254 24.24560200252955" fill="#ffff18" stroke="none" /><path d="M 87.80319425747018 82.90503203632743 l -17.413184609511706 -24.406212522277606 a50.98136434399735,50.98136434399735 0 0,0 0.7187616401808339,-0.5035384619770924 l 16.990491829747214 24.70233582701864" fill="#fcff18" stroke="none" /><line stroke="#e1ed5e" stroke-width="0.3" x1="56.76296977257108" x2="54.21961505331056" y1="26.818313649435495" y2="22.513508569990535" /><path d="M 56.25429882871898 25.957352633546506 a86.0,86.0 0 0,1 42.26535254187918,-11.944610805530505" fill="none" id="id12" stroke="none" /><text fill="#e1ed5e" style="font-size:6.75px; font-family:Arial;" text-anchor="middle"><textPath startOffset="22.20632615414155" xlink:href="#id12">December</textPath></text><path d="M 89.3179101791058 81.91981866633112 l -7.6588400276102595 -12.963120403078896 a36.056570696982945,36.056570696982945 0 0,0 0.5370768157195891,-0.31110955757453135 l 7.434566479425348 13.093034118043475" fill="#ff0000" stroke="none" /><path d="M 91.23893434514133 80.91482961587045 l -18.31913124715553 -39.90653134157283 a64.91038388999172,64.91038388999172 0 0,0 1.0194573954335946,-0.4574008168612476 l 17.629491733255158 40.215952488950606" fill="#37ff2e" stroke="none" /><path d="M 91.90106846888425 80.62456947434976 l -15.35679857565825 -36.73874544511422 a60.819174770131035,60.819174770131035 0 0,0 0.9693885158993457,-0.3954379155314212 l 14.722126190170524 36.99764424682922" fill="#6dff28" stroke="none" /><path d="M 92.57280143429618 80.3572730644239 l -10.721281030337966 -28.354593433243476 a51.31383901283404,51.31383901283404 0 0,0 0.8288838631244958,-0.3052849220274254 l 10.231614841440903 28.534941623077227" fill="#f7ff19" stroke="none" /><path d="M 92.91201910852362 80.23233633223022 l -10.256618787130874 -28.604675105197774 a51.387919751415154,51.387919751415154 0 0,0 0.8352200849957018,-0.2913918876787364 l 9.762716698071888 28.77698784604872" fill="#f6ff19" stroke="none" /><path d="M 93.25333710446033 80.11325718540243 l -7.277768114621112 -21.45225054232855 a43.65314463956453,43.65314463956453 0 0,0 0.7136606865666282,-0.23528270791072844 l 6.907424605812074 21.57434697449851" fill="#ff890c" stroke="none" /><path d="M 98.91598698831166 79.02799685794201 l -1.1799590534321152 -22.82823610902633 a43.858710970158185,43.858710970158185 0 0,0 0.7542845498314071,-0.032481079395442924 l 0.786833671211384 22.84516491494597" fill="#ff8d0d" stroke="none" /><path d="M 99.63851952072746 79.00311137660856 l -0.40798003079149303 -23.697853019161666 a44.70136463209058,44.70136463209058 0 0,0 0.7694605100640229,-0.006622989537473684 l 5.805160066422803e-15 23.70136463209058" fill="#ff9b0e" stroke="none" /></svg>