<?xml version="1.0" encoding="utf-8" ?>
<svg baseProfile="full" height="200mm" version="1.1" viewBox="0,0,200,200" width="200mm" xmlns="http://www.w3.org/2000/svg" xmlns:ev="http://www.w3.org/2001/xml-events" xmlns:xlink="http://www.w3.org/1999/xlink"><defs /><rect fill="#1a1a1a" height="200" width="200" x="0" y="0" /><text alignment-baseline="middle" fill="#e1ed5e" style="dominant-baseline: central; font-size:9.0px; font-family:Arial;" text-anchor="middle" x="100.0" y="100.0">2016</text><line stroke="#e1ed5e" stroke-width="0.3" x1="100.0" x2="100.0" y1="15.0" y2="10.0" /><path d="M 100.0 14.0 a86.0,86.0 0 0,1 42.35913384403234,11.155469271406648" fill="none" id="id13" stroke="none" /><text fill="#e1ed5e" style="font-size:6.75px; font-family:Arial;" text-anchor="middle"><textPath startOffset="22.145653131862478" xlink:href="#id13">January</textPath></text><path d="M 100.0 79.0 l 0.0 -14.503354507831062 a35.50335450783106,35.50335450783106 0 0,0 0.6094622908797044,0.0052315007659721425 l -0.24896936603084963 14.501217405259526" fill="#ffab0f" stroke="none" /><path d="M 100.36049292484886 79.00309439819443 l 1.059405388725841 -61.70505274256641 a82.71414646368014,82.71414646368014 0 0,0 1.4194798630244283,0.03656076602979269 l -2.1184985658210107 61.67777425918657" fill="#4bdeff" stroke="none" /><path d="M 101.80034050326958 79.07731436759882 l 1.2703302159482754 -14.763162695810442 a35.81771614117777,35.81771614117777 0 0,0 0.61214256960097,0.05797053778344182 l -1.5235723489342583 14.739180402521816" fill="#ffaf10" stroke="none" /><path d="M 102.15924093988457 79.11130261209362 l 0.24645416028262382 -2.3842204355432037 a23.396924433181496,23.396924433181496 0 0,0 0.3991560970175267,0.04472627323075919 l -0.28734615890094717 2.3796384018054737" fill="#ff0000" stroke="none" /><path d="M 102.87502721639298 79.19773525538626 l 4.688309431319217 -33.922271566294995 a55.244718622603145,55.244718622603145 0 0,0 0.9383049609738239,0.13789851695724284 l -5.269939497900723 33.836791976038874" fill="#67ff28" stroke="none" /><path d="M 103.23170211078529 79.25015418208739 l 2.028121449388666 -13.02199458123637 a34.17898400815555,34.17898400815555 0 0,0 0.5789635016423935,0.09526822387380496 l -2.25136245408413 12.985260358866897" fill="#ff990e" stroke="none" /><path d="M 103.94208987418118 79.37332000966035 l 3.058881991734611 -16.005363141252133 a37.295042446177014,37.295042446177014 0 0,0 0.6278061227140815,0.1255788072787359 l -3.3331845999796497 15.950494937310536" fill="#ffc312" stroke="none" /><path d="M 104.29559338865022 79.4440306129975 l 3.0042848485585822 -14.37659056371045 a35.68714007858055,35.68714007858055 0 0,0 0.5985881894787456,0.1304595098671597 l -3.2506354546564618 14.32289959570957" fill="#ffae10" stroke="none" /><path d="M 104.64783097203109 79.52079915486377 l 3.267820487302613 -14.398620020399834 a35.76478612202336,35.76478612202336 0 0,0 0.597557784694666,0.14102201012244853 l -3.5145104257371638 14.340401866631158" fill="#ffaf10" stroke="none" /><path d="M 105.3480935250658 79.69241777938227 l 5.590039554754069 -21.22629070389655 a42.95003324075023,42.95003324075023 0 0,0 0.7113723996002915,0.19388771084360928 l -5.953593355289054 21.127202498908797" fill="#f4ff19" stroke="none" /><path d="M 105.69591212413111 79.78721728523813 l 1.891477679626972 -6.712187006212653 a27.97360324501595,27.97360324501595 0 0,0 0.4610848895653205,0.13421509142928378 l -2.006422581573897 6.678728220480853" fill="#ff4306" stroke="none" /><path d="M 106.04205211174951 79.88797359093562 l 2.3780703913875962 -7.915822907451328 a29.265317361633826,29.265317361633826 0 0,0 0.4798945793077676,0.14867256738383242 l -2.513605603566994 7.8738337522608495" fill="#ff5507" stroke="none" /><path d="M 107.74402155503746 80.48000691201159 l 3.1735701925427615 -7.999470014695876 a29.605990255805217,29.605990255805217 0 0,0 0.4707994460935936,0.19147003611083843 l -3.3104240998267946 7.943812722005744" fill="#ff5a08" stroke="none" /><path d="M 108.4095320186766 80.7573450057729 l 2.4822444989596657 -5.679861185939775 a27.198577324205992,27.198577324205992 0 0,0 0.4262232027995681,0.19064421727197428 l -2.579381104614866 5.636413217757949" fill="#ff3805" stroke="none" /><path d="M 109.06512990194946 81.05736502329252 l 6.232317488807726 -13.023146554584608 a35.437594240852164,35.437594240852164 0 0,0 0.5464810326528368,0.26731125758427166 l -6.454958770722629 12.914241546903115" fill="#ffaa0f" stroke="none" /><path d="M 110.34350942703115 81.72400993836675 l 1.3909148510470277 -2.457613266913207 a23.823916976926018,23.823916976926018 0 0,0 0.35419077739356447,0.2044921406726573 l -1.4328980963009894 2.433374228964378" fill="#ff0601" stroke="none" /><line stroke="#e1ed5e" stroke-width="0.3" x1="143.13028292997686" x2="145.6673583964461" y1="26.7553504044142" y2="22.446841604673864" /><path d="M 143.63769802327073 25.89364864446614 a86.0,86.0 0 0,1 29.32050498858742,28.57503671076993" fill="none" id="id14" stroke="none" /><text fill="#e1ed5e" style="font-size:6.75px; font-family:Arial;" text-anchor="middle"><textPath startOffset="20.669276256404974" xlink:href="#id14">February</textPath></text><path d="M 111.27062007382361 82.28071324371311 l 3.9321139798982916 -6.181936283172489 a28.32651735547771,28.32651735547771 0 0,0 0.408056118483488,0.264497046006837 l -4.037655730638787 6.113525395461758" fill="#ff4806" stroke="none" /><path d="M 111.5731344415666 82.4767994020092 l 5.9837954562553755 -9.0602289852182 a31.85787996465657,31.85787996465657 0 0,0 0.45375286432328393,0.30530517746363417 l -6.13844460867566 8.956174133697449" fill="#ff7a0b" stroke="none" /><path d="M 112.16784306229584 82.88440491214696 l 5.921885812498781 -8.329874013357523 a31.22034894975134,31.22034894975134 0 0,0 0.4341397502894577,0.31428369930670813 l -6.064006573162204 8.22698954267774" fill="#ff710a" stroke="none" /><path d="M 112.7482090630111 83.31218511350987 l 9.303708222174125 -12.178852715872088 a36.325907482372955,36.325907482372955 0 0,0 0.4922853343611513,0.3828040535604562 l -9.511403501170502 12.017347610690841" fill="#ffb610" stroke="none" /><path d="M 113.31354834802062 83.75963576809568 l 5.785221136927662 -7.057029123252888 a30.125264031774314,30.125264031774314 0 0,0 0.39711648924498616,0.3312886992655356 l -5.9055119603345405 6.956678240075482" fill="#ff6209" stroke="none" /><path d="M 113.59037401385872 83.9905735841838 l 6.943590028151624 -8.179531593753833 a31.72931403083458,31.72931403083458 0 0,0 0.4122099028885651,0.35605709639217403 l -7.082979410803049 8.059130364896939" fill="#ff780b" stroke="none" /><path d="M 114.65682725009322 84.96080404539774 l 10.224316229589313 -10.491049164657099 a35.64918956590759,35.64918956590759 0 0,0 0.4345943128424275,0.43087985385596406 l -10.402902462561702 10.313989300572475" fill="#ffad10" stroke="none" /><path d="M 114.91283532996326 85.21462403516908 l 10.376326134243222 -10.287640118994375 a35.611765234293955,35.611765234293955 0 0,0 0.4266852460603339,0.43781665137646064 l -10.551398181454367 10.108000775550174" fill="#ffad10" stroke="none" /><path d="M 115.41159269507618 85.73525988315684 l 7.771372563367676 -7.193066424797386 a31.58935484863036,31.58935484863036 0 0,0 0.3649357197714052,0.4011282833573709 l -7.893705983980959 7.058600565882343" fill="#ff760a" stroke="none" /><path d="M 116.1254893667686 86.54754324733833 l 11.262342903585964 -9.395447009277136 a35.66679215718583,35.66679215718583 0 0,0 0.3881789902418854,0.47351525107416265 l -11.421968713066477 9.20072947650448" fill="#ffad10" stroke="none" /><line stroke="#e1ed5e" stroke-width="0.3" x1="172.87174338648825" x2="177.1583165268699" y1="56.24261187166439" y2="53.66864786411523" /><path d="M 173.72905801456457 55.72781907015455 a86.0,86.0 0 0,1 12.242430191666344,42.057860355516425" fill="none" id="id15" stroke="none" /><text fill="#e1ed5e" style="font-size:6.75px; font-family:Arial;" text-anchor="middle"><textPath startOffset="22.145653131862474" xlink:href="#id15">March</textPath></text><line stroke="#e1ed5e" stroke-width="0.3" x1="184.99686870605535" x2="189.99668451229388" y1="99.2704041080226" y2="99.22748670261217" /><path d="M 185.99683186730306 99.26182062694052 a86.0,86.0 0 0,1 -10.086455211305974,41.156179273409016" fill="none" id="id16" stroke="none" /><text fill="#e1ed5e" style="font-size:6.75px; font-family:Arial;" text-anchor="middle"><textPath startOffset="21.40746469413373" xlink:href="#id16">April</textPath></text><line stroke="#e1ed5e" stroke-width="0.3" x1="174.33088141563837" x2="178.70328620479359" y1="141.23008692659167" y2="143.65538615756765" /><path d="M 175.20536237346943 141.71514677278685 a86.0,86.0 0 0,1 -30.301960400862466,31.631185727798858" fill="none" id="id17" stroke="none" /><text fill="#e1ed5e" style="font-size:6.75px; font-family:Arial;" text-anchor="middle"><textPath startOffset="22.145653131862474" xlink:href="#id17">May</textPath></text><line stroke="#e1ed5e" stroke-width="0.3" x1="143.1302829299769" x2="145.66735839644613" y1="173.24464959558577" y2="177.55315839532614" /><path d="M 143.63769802327073 174.10635135553383 a86.0,86.0 0 0,1 -40.68552437913181,11.842963189579606" fill="none" id="id18" stroke="none" /><text fill="#e1ed5e" style="font-size:6.75px; font-family:Arial;" text-anchor="middle"><textPath startOffset="21.407464694133747" xlink:href="#id18">June</textPath></text><line stroke="#e1ed5e" stroke-width="0.3" x1="101.45913802915013" x2="101.54496967792366" y1="184.9874750549273" y2="189.98673829345242" /><path d="M 101.47630435890484 185.9873277026323 a86.0,86.0 0 0,1 -42.54439059252881,-10.42667462771756" fill="none" id="id19" stroke="none" /><text fill="#e1ed5e" style="font-size:6.75px; font-family:Arial;" text-anchor="middle"><textPath startOffset="22.145653131862474" xlink:href="#id19">July</textPath></text><line stroke="#e1ed5e" stroke-width="0.3" x1="58.13341422392154" x2="55.67067388415222" y1="173.97424548756322" y2="178.32567169271397" /><path d="M 57.64086615596768 174.84453072859336 a86.0,86.0 0 0,1 -31.369924170532247,-30.572349798747897" fill="none" id="id20" stroke="none" /><text fill="#e1ed5e" style="font-size:6.75px; font-family:Arial;" text-anchor="middle"><textPath startOffset="22.145653131862474" xlink:href="#id20">August</textPath></text><line stroke="#e1ed5e" stroke-width="0.3" x1="26.387840678322732" x2="22.057713659400534" y1="142.50000000000003" y2="145.00000000000006" /><path d="M 25.521815274538284 143.00000000000003 a86.0,86.0 0 0,1 -11.493303480769212,-40.785679425670985" fill="none" id="id21" stroke="none" /><text fill="#e1ed5e" style="font-size:6.75px; font-family:Arial;" text-anchor="middle"><textPath startOffset="21.40746469413373" xlink:href="#id21">September</textPath></text><line stroke="#e1ed5e" stroke-width="0.3" x1="15.003131293944662" x2="10.003315487706104" y1="100.72959589197737" y2="100.7725132973878" /><path d="M 14.003168132696942 100.73817937305945 a86.0,86.0 0 0,1 10.791469493833604,-42.45332614584628" fill="none" id="id22" stroke="none" /><text fill="#e1ed5e" style="font-size:6.75px; font-family:Arial;" text-anchor="middle"><textPath startOffset="22.145653131862435" xlink:href="#id22">October</textPath></text><line stroke="#e1ed5e" stroke-width="0.3" x1="26.387840678322718" x2="22.05771365940052" y1="57.49999999999999" y2="54.99999999999999" /><path d="M 25.521815274538284 56.99999999999999 a86.0,86.0 0 0,1 29.574782752854787,-30.34633250058573" fill="none" id="id23" stroke="none" /><text fill="#e1ed5e" style="font-size:6.75px; font-family:Arial;" text-anchor="middle"><textPath startOffset="21.40746469413373" xlink:href="#id23">November</textPath></text><path d="M 85.34317274990677 84.96080404539775 l -5.030806737644699 -5.162050902707517 a28.208036206462534,28.208036206462534 0 0,0 0.3496822830595234,-0.3349877170377659 l 4.941451968719876 5.247650750050852" fill="#ff4606" stroke="none" /><path d="M 85.60350026404147 84.71141617570332 l -4.958909263919821 -5.266189792589312 a28.233500951777202,28.233500951777202 0 0,0 0.3557020858771149,-0.32923254036405725 l 4.867777406728753 5.350540079085735" fill="#ff4706" stroke="none" /><path d="M 85.86807049272753 84.46653392183569 l -13.568944299660902 -14.914646714506828 a41.16340586373863,41.16340586373863 0 0,0 0.5267641319356968,-0.4710357349657247 l 13.310915140901814 15.145377979355954" fill="#fff417" stroke="none" /><path d="M 86.40962598614128 83.9905735841838 l -7.761351581895623 -9.142852647832088 a32.992928454625414,32.992928454625414 0 0,0 0.4349185422571514,-0.3628245163648916 l 7.603258705476562 9.274739348108861" fill="#ff890c" stroke="none" /><path d="M 87.25179093698888 83.31218511350988 l -8.652772483832086 -11.326756939064417 a35.253627412473136,35.253627412473136 0 0,0 0.48406086164002843,-0.3632482948563494 l 8.457058633281305 11.47362426118477" fill="#ffa80f" stroke="none" /><path d="M 87.83215693770416 82.88440491214696 l -34.97665429072922 -49.199044506330566 a81.3648268920659,81.3648268920659 0 0,0 1.145325820718643,-0.79952637334744 l 34.12693337883681 49.79221569548314" fill="#4aebff" stroke="none" /><path d="M 88.72937992617638 82.28071324371311 l -11.920836637120992 -18.74153519189091 a43.211517000822155,43.211517000822155 0 0,0 0.6293158070602474,-0.3927396076014448 l 11.597356701271046 18.943410596333894" fill="#f0ff19" stroke="none" /><line stroke="#e1ed5e" stroke-width="0.3" x1="56.869717070023135" x2="54.33264160355391" y1="26.7553504044142" y2="22.446841604673864" /><path d="M 56.362301976729285 25.89364864446614 a86.0,86.0 0 0,1 42.16139366436587,-11.88097634709845" fill="none" id="id24" stroke="none" /><text fill="#e1ed5e" style="font-size:6.75px; font-family:Arial;" text-anchor="middle"><textPath startOffset="22.145653131862474" xlink:href="#id24">December</textPath></text><path d="M 89.34428304082924 81.90426304109057 l -6.4210915004478775 -10.904417152446241 a33.654514194218905,33.654514194218905 0 0,0 0.5003425153302016,-0.2888728859129048 l 6.232956517257276 11.013036935635318" fill="#ff920d" stroke="none" /><path d="M 89.97174638481275 81.54914285379989 l -14.627888407168566 -26.91366709578217 a51.63201912697177,51.63201912697177 0 0,0 0.782375521415456,-0.4165708976772316 l 14.163724069966547 27.16080846118198" fill="#8eff24" stroke="none" /><path d="M 90.93487009805054 81.0573650232925 l -1.358942445675794 -2.839667051793147 a24.14808410556308,24.14808410556308 0 0,0 0.37545819042124023,-0.17573339111255362 l 1.309995541383031 2.8625766744762435" fill="#ff0b01" stroke="none" /><path d="M 92.592206182469 80.34994680014964 l -22.223381452592992 -58.95015959955109 a84.0,84.0 0 0,0 1.353643393383492,-0.49707660396511244 l 21.208148907555373 59.32296705252492" fill="#4dd2ff" stroke="none" /><path d="M 93.27111125876988 80.10723608172694 l -2.767438705505242 -8.181440791194111 a29.63682177705106,29.63682177705106 0 0,0 0.48333036128693646,-0.15888028991584302 l 2.6265856065705444 8.227742002511983" fill="#ff5b08" stroke="none" /><path d="M 93.61358852112211 79.99465700312896 l -5.573717037221192 -17.459589233468133 a39.327672460311106,39.327672460311106 0 0,0 0.6448977332888144,-0.1997909662708925 l 5.273178671060761 17.552696787545667" fill="#ffdd14" stroke="none" /><path d="M 94.6519064749342 79.69241777938228 l -3.7149093418173242 -14.106115861197079 a35.58708525057139,35.58708525057139 0 0,0 0.592092343623184,-0.15050755838991567 l 3.472211704968762 14.167808651422257" fill="#ffac0f" stroke="none" /><path d="M 95.00130118170881 79.60360301121753 l -1.3796648635590774 -5.629503455110165 a26.796100783012385,26.796100783012385 0 0,0 0.4477090557097131,-0.10565811809893542 l 1.2828236541094584 5.652357716855333" fill="#ff3204" stroke="none" /><path d="M 95.35216902796891 79.52079915486377 l -1.2807966071880879 -5.643426174104517 a26.786942105426014,26.786942105426014 0 0,0 0.44930322635137354,-0.09792354697572254 l 1.183730964217596 5.664581179213954" fill="#ff3204" stroke="none" /><path d="M 95.70440661134978 79.44403061299748 l -3.2326140462959683 -15.469228430983888 a36.80338007586574,36.80338007586574 0 0,0 0.6195297238646555,-0.12392329571477703 l 2.966587836900336 15.522441123361531" fill="#ffbc11" stroke="none" /><path d="M 96.41257539226777 79.30868818359171 l -1.9778505798209671 -11.407716551069122 a32.57790524342096,32.57790524342096 0 0,0 0.5518425618328616,-0.09080548354887504 l 1.7817305149350326 11.439988033113664" fill="#ff840c" stroke="none" /><path d="M 97.48249496171623 79.15144685158666 l -1.579879038997664 -13.083664823591166 a34.178706423391525,34.178706423391525 0 0,0 0.5830954019632064,-0.06533705601059824 l 1.3550477354336583 13.108857640108734" fill="#ff990e" stroke="none" /><path d="M 98.5590905019552 79.04949213459386 l -0.2606022534983308 -3.789099571532948 a24.798050697070746,24.798050697070746 0 0,0 0.42493898092599547,-0.02556327387593086 l 0.19551892043985156 3.7930148232335728" fill="#ff1502" stroke="none" /></svg>