<?xml version="1.0" encoding="utf-8" ?>
<svg baseProfile="full" height="200mm" version="1.1" viewBox="0,0,200,200" width="200mm" xmlns="http://www.w3.org/2000/svg" xmlns:ev="http://www.w3.org/2001/xml-events" xmlns:xlink="http://www.w3.org/1999/xlink"><defs /><rect fill="#1a1a1a" height="200" width="200" x="0" y="0" /><text alignment-baseline="middle" fill="#e1ed5e" style="dominant-baseline: central; font-size:9.0px; font-family:Arial;" text-anchor="middle" x="100.0" y="100.0">2017</text><line stroke="#e1ed5e" stroke-width="0.3" x1="100.0" x2="100.0" y1="15.0" y2="10.0" /><path d="M 100.0 14.0 a86.0,86.0 0 0,1 42.46469731375804,11.215312516191453" fill="none" id="id37" stroke="none" /><text fill="#e1ed5e" style="font-size:6.75px; font-family:Arial;" text-anchor="middle"><textPath startOffset="22.20632615414155" xlink:href="#id37">January</textPath></text><path d="M 100.0 79.0 l 0.0 -8.654036130802652 a29.654036130802652,29.654036130802652 0 0,0 0.510445485377496,0.0043935654460351865 l -0.1489650061049676 8.652753941965175" fill="#ff6509" stroke="none" /><path d="M 100.36148047927253 79.00311137660856 l 1.0658921079413548 -61.913212907199465 a82.92238737708666,82.92238737708666 0 0,0 1.426949625911068,0.03685389892581537 l -2.1314683690472904 61.88569221613129" fill="#4cdcff" stroke="none" /><path d="M 101.44485096284872 79.0497635885617 l 0.5953195666272167 -8.632091462641101 a29.65259547221587,29.65259547221587 0 0,0 0.5089088723360201,0.03950112303651253 l -0.743818628325578 8.620565077416124" fill="#ff6509" stroke="none" /><path d="M 101.80526077348638 79.07773832637324 l 0.7435709364746536 -8.61769442637469 a29.649714155042304,29.649714155042304 0 0,0 0.5081041482550684,0.048250611263294454 l -0.8918002118199662 8.603618270596218" fill="#ff6509" stroke="none" /><path d="M 102.16513564639614 79.11191278185805 l 0.804610550870879 -7.7624583897101465 a28.80404756460096,28.80404756460096 0 0,0 0.49273204566163203,0.05536418648250382 l -0.9381093000422362 7.747458249757042" fill="#ff5908" stroke="none" /><path d="M 102.52436894288641 79.15227682838746 l 1.3861227316850764 -11.447416620095137 a32.53103132860736,32.53103132860736 0 0,0 0.5553283617978845,0.07209755939206612 l -1.582965821990807 11.421860737538934" fill="#ff8c0c" stroke="none" /><path d="M 103.2404852339499 79.25152402106235 l 1.4814493665018635 -9.485559839261867 a30.600548822318775,30.600548822318775 0 0,0 0.519729621002026,0.08575984068056797 l -1.6445081936427648 9.458653735641676" fill="#ff720a" stroke="none" /><path d="M 104.307194497241 79.44645832069477 l 2.7521524958131276 -13.13302221822882 a34.41829407729247,34.41829407729247 0 0,0 0.5788129036009225,0.12650608196827728 l -2.977808123567578 13.083702638164672" fill="#ffa50f" stroke="none" /><path d="M 105.01212808612495 79.60689891045804 l 5.1604403144223605 -20.996546614578943 a42.6214040704322,42.6214040704322 0 0,0 0.7109475713160139,0.18123636583645789 l -5.5210967744234 20.90460725257362" fill="#f1ff19" stroke="none" /><path d="M 105.71112130821622 79.79150937346287 l 2.7476853693931163 -9.722534513874102 a31.103338669105877,31.103338669105877 0 0,0 0.5139601323638543,0.1500390563518064 l -2.9146357194803976 9.673797128603592" fill="#ff790b" stroke="none" /><path d="M 106.40334571778207 80.00007090966166 l 4.612517496229939 -14.406534789518819 a36.12691516121656,36.12691516121656 0 0,0 0.5906185978207852,0.19471766576669702 l -4.859818916293142 14.325003399492886" fill="#ffbc11" stroke="none" /><path d="M 107.08798089147638 80.2323363322302 l 7.307444100418959 -20.37972441796783 a42.65021724216785,42.65021724216785 0 0,0 0.6889384522944064,0.25374184617079987 l -7.6571648784859425 20.250919303990703" fill="#f1ff19" stroke="none" /><path d="M 107.4271985657038 80.35727306442388 l 5.10341784821102 -13.497019413679192 a35.42963640521381,35.42963640521381 0 0,0 0.5685897107856064,0.2206039742136574 l -5.334990723996293 13.407172735574989" fill="#ffb310" stroke="none" /><path d="M 107.76421540070413 80.48803036053334 l 6.425318800276285 -16.14723689189707 a38.37866453235765,38.37866453235765 0 0,0 0.6117122896493404,0.24953280212884804 l -6.702314959514013 16.03424320358464" fill="#ffd814" stroke="none" /><path d="M 108.43124777332544 80.76684994638697 l 9.031248758246281 -20.60185718754497 a43.49444317402241,43.49444317402241 0 0,0 0.6831069098153849,0.3064901583456833 l -9.384537786528446 20.443346698682753" fill="#e6ff1a" stroke="none" /><path d="M 109.08828744355905 81.06846463323043 l 6.4206163338969455 -13.374590752823666 a35.835902126686484,35.835902126686484 0 0,0 0.5537990434624637,0.27174678550419157 l -6.649886644369841 13.262088807184641" fill="#ffb811" stroke="none" /><path d="M 110.05341064243156 81.56283822128135 l 11.83787378916272 -21.70972637342284 a45.72746398353533,45.72746398353533 0 0,0 0.6878192542964227,0.38277067032985473 l -12.209817132531178 21.502740305532804" fill="#ccff1d" stroke="none" /><path d="M 110.36928655335952 81.73862282372117 l 2.4236102872601797 -4.268226300451542 a25.908323805168077,25.908323805168077 0 0,0 0.3859146829810916,0.22354669345185085 l -2.4967217027065987 4.225875449609642" fill="#ff3004" stroke="none" /><line stroke="#e1ed5e" stroke-width="0.3" x1="143.23703022742887" x2="145.7803849466894" y1="26.81831364943548" y2="22.513508569990506" /><path d="M 143.74570117128098 25.957352633546492 a86.0,86.0 0 0,1 28.547481713284135,27.462654790039103" fill="none" id="id38" stroke="none" /><text fill="#e1ed5e" style="font-size:6.75px; font-family:Arial;" text-anchor="middle"><textPath startOffset="19.985693538727396" xlink:href="#id38">February</textPath></text><path d="M 110.68208982089419 81.91981866633111 l 8.797518063103231 -14.890412319507995 a38.29510633432426,38.29510633432426 0 0,0 0.5646484571112393,0.34019437751481313 l -9.052528586432107 14.736771332534568" fill="#ffd714" stroke="none" /><path d="M 111.90073688211348 82.69761687909136 l 3.4804144519860323 -5.06014584343244 a27.141527555453923,27.141527555453923 0 0,0 0.38265529206200855,0.2680744859781643 l -3.567000883631692 4.99948651469034" fill="#ff4206" stroke="none" /><path d="M 112.77801427241765 83.33499621200491 l 6.169563076785415 -8.04630436724739 a31.13935513377544,31.13935513377544 0 0,0 0.42255726030738394,0.3298126441621108 l -6.307152892252229 7.938913333862054" fill="#ff790b" stroke="none" /><path d="M 114.16331599549186 84.49514656593476 l 7.319386649488234 -8.012672827725597 a31.852481134232793,31.852481134232793 0 0,0 0.40163266123420094,0.37327378710851067 l -7.4562271945172816 7.885494454542445" fill="#ff830c" stroke="none" /><path d="M 114.68862486808459 84.99185889309783 l 10.349887904420088 -10.575025198421608 a35.79700434484336,35.79700434484336 0 0,0 0.43666242735256006,0.4347872601186417 l -10.530386131939968 10.395302087652848" fill="#ffb711" stroke="none" /><path d="M 115.4437574822437 85.77008943001954 l 22.468495192724127 -20.702518645614617 a51.55204664989709,51.55204664989709 0 0,0 0.5956872361360155,0.6577727243042909 l -22.821526069476178 20.312693134040778" fill="#8aff24" stroke="none" /><path d="M 115.68641384162765 86.03803664274999 l 5.395724605665751 -4.802557805162469 a28.223462154127603,28.223462154127603 0 0,0 0.3198768395564305,0.3656745239158553 l -5.47759330880003 4.708967725043666" fill="#ff5107" stroke="none" /><path d="M 116.38621287248628 86.86637796730983 l 11.459482324865666 -9.184825726131509 a35.6860736336611,35.6860736336611 0 0,0 0.3800497498948398,0.4826245877100803 l -11.61588615535447 8.986208744468389" fill="#ffb610" stroke="none" /><path d="M 117.45458315368197 88.32363383020206 l 5.995547531476258 -4.010763691665557 a28.213377544020123,28.213377544020123 0 0,0 0.2665537634595599,0.40597966895146753 l -6.063697930293743 3.906965958736415" fill="#ff5107" stroke="none" /><line stroke="#e1ed5e" stroke-width="0.3" x1="172.23445277983987" x2="176.4835382374775" y1="55.19839476539836" y2="52.563006222186495" /><path d="M 173.08426987136738 54.67131705675599 a86.0,86.0 0 0,1 12.851231095245387,41.99856678651699" fill="none" id="id39" stroke="none" /><text fill="#e1ed5e" style="font-size:6.75px; font-family:Arial;" text-anchor="middle"><textPath startOffset="22.20632615414155" xlink:href="#id39">March</textPath></text><path d="M 117.84615892207809 88.93136811851018 l 10.074734171263245 -6.24860085200867 a32.855179510633434,32.855179510633434 0 0,0 0.29395091307229404,0.48317801190238074 l -10.180800882621764 6.074255066899208" fill="#ff900d" stroke="none" /><path d="M 118.3937258080291 89.86733742301442 l 29.031633866818577 -15.99283109366847 a54.145232106105645,54.145232106105645 0 0,0 0.442680848502604,0.8202203807061959 l -29.302622814539646 15.490729729629816" fill="#6eff28" stroke="none" /><path d="M 118.56541770881063 90.18545643968196 l 9.050481928113996 -4.784505822521383 a31.23731991767665,31.23731991767665 0 0,0 0.2472070430322605,0.4775253227168783 l -9.131498404306374 4.62800777754416" fill="#ff7b0b" stroke="none" /><path d="M 118.89224826269711 90.83032412892265 l 6.489377113056786 -3.149730191160593 a28.213377544020123,28.213377544020123 0 0,0 0.2082977624880627,0.43872821035222076 l -6.542633069386605 3.037559565167832" fill="#ff5107" stroke="none" /><path d="M 119.04729006885535 91.15688171328212 l 9.708760476441478 -4.507503009625922 a31.70409329979419,31.70409329979419 0 0,0 0.2255484800841489,0.49696617828143186 l -9.784911273488975 4.339714822502428" fill="#ff810b" stroke="none" /><path d="M 119.47837535516314 92.15188598940014 l 26.944566247073585 -10.856348335906839 a50.049439743882914,50.049439743882914 0 0,0 0.31508851233088075,0.8018658955351373 l -27.127448309286166 10.390933435475917" fill="#9bff22" stroke="none" /><path d="M 119.61058180528143 92.48833698450437 l 20.19087206039312 -7.733938157092967 a42.6214040704322,42.6214040704322 0 0,0 0.25653094791051345,0.687375401237104 l -20.32100759680526 7.385239618826531" fill="#f1ff19" stroke="none" /><path d="M 119.85752413597 93.16781622104841 l 6.820943746773502 -2.34681528798609 a28.213377544020123,28.213377544020123 0 0,0 0.15404867719219614,0.4605859371189373 l -6.860329717737469 2.2290562479448384" fill="#ff5107" stroke="none" /><path d="M 120.08093135843002 93.85539295169968 l 13.77883435492914 -4.216214934628386 a35.40946718499886,35.40946718499886 0 0,0 0.17332782919212258,0.5843752741563657 l -13.849368081232964 3.97841027372549" fill="#ffb210" stroke="none" /><path d="M 120.18372546131832 94.20196356495316 l 1.5328184828959088 -0.4403219529108293 a22.59480905556826,22.59480905556826 0 0,0 0.1041655444336165,0.37473888549816814 l -1.5401707978958885 0.41387176399370923" fill="#ff0000" stroke="none" /><path d="M 120.37134235888165 94.90015583598534 l 18.65284517246696 -4.669628634148423 a40.22847015778642,40.22847015778642 0 0,0 0.16238356024127362,0.6731846914854765 l -18.730461532969056 4.34785871100354" fill="#fff016" stroke="none" /><path d="M 120.53481517161879 95.60439243477599 l 9.873897978816105 -2.1135705528004896 a31.097576034758745,31.097576034758745 0 0,0 0.10753942223719518,0.5244004146770167 l -9.908816696968298 1.943294481960061" fill="#ff790b" stroke="none" /><path d="M 120.6074358757038 95.95851677861258 l 11.429987586672661 -2.241623039898287 a32.64772467413675,32.64772467413675 0 0,0 0.10340665584240147,0.5524024903660569 l -11.466879966424923 2.044542472069667" fill="#ff8e0d" stroke="none" /><path d="M 120.67395015179393 96.31383870115 l 26.950359075078097 -4.805243791498803 a48.37539446604162,48.37539446604162 0 0,0 0.13910952476329325,0.8210322896916491 l -27.029080461361612 4.340625713491317" fill="#aeff20" stroke="none" /><path d="M 120.78858239683441 97.02765380044208 l 17.23793245578808 -2.4646751781881884 a38.41324033844043,38.41324033844043 0 0,0 0.08795534688691116,0.655369496910712 l -17.277803801732826 2.1675873392128118" fill="#ffd914" stroke="none" /><path d="M 120.83666639777658 97.38593545837742 l 12.071734351421672 -1.51445975673469 a33.16636176537846,33.16636176537846 0 0,0 0.06619002446391795,0.5670757080401109 l -12.096014728889179 1.3064403103697264" fill="#ff950d" stroke="none" /><path d="M 120.87857604477298 97.74499172005257 l 8.625482616621744 -0.9316025516928943 a29.675646009604392,29.675646009604392 0 0,0 0.05048092250951285,0.5083360005622853 l -8.640240664813486 0.7829910204261741" fill="#ff6509" stroke="none" /><path d="M 120.91429891909075 98.10471618934814 l 19.28486794682133 -1.7476224353284961 a40.363892064943975,40.363892064943975 0 0,0 0.05675070229865099,0.69250231230129 l -19.312093132939477 1.4154062058194374" fill="#fff116" stroke="none" /><line stroke="#e1ed5e" stroke-width="0.3" x1="184.98032266829074" x2="189.97916517819016" y1="98.17113171792111" y2="98.06355123074" /><path d="M 185.9800911702706 98.14961562048488 a86.0,86.0 0 0,1 -9.607161424134198,41.387399972396054" fill="none" id="id40" stroke="none" /><text fill="#e1ed5e" style="font-size:6.75px; font-family:Arial;" text-anchor="middle"><textPath startOffset="21.466115282336823" xlink:href="#id40">April</textPath></text><path d="M 120.99513854157772 99.54816195383933 l 18.97196191651005 -0.4082971011224543 a39.97635490509947,39.97635490509947 0 0,0 0.008884255419132202,0.6880953730047729 l -18.9761791790469 0.08166547005721872" fill="#ffed16" stroke="none" /><path d="M 120.89721153311464 102.0752229133903 l 1.624276743678405 0.16130077024042133 a22.632266178824604,22.632266178824604 0 0,0 -0.041834880232264476,0.3873390337500952 l -1.6212595619450885 -0.189236125875308" fill="#ff0100" stroke="none" /><path d="M 120.8583938346157 102.4346265915055 l 62.575181503847105 7.303879774516526 a84.0,84.0 0 0,0 -0.1799939630126075,1.4347289828504204 l -62.44018603158764 -8.379926511654341" fill="#4dd2ff" stroke="none" /><path d="M 120.49622156327973 104.57218783832717 l 7.043144784619357 1.571147190636687 a28.216258861193687,28.216258861193687 0 0,0 -0.10982766813671409,0.47313471987583744 l -7.0150565505520905 -1.6921505678610893" fill="#ff5107" stroke="none" /><path d="M 120.41448212921028 104.9243191809786 l 8.485571499260356 2.0468637034678263 a29.728950377315343,29.728950377315343 0 0,0 -0.12427930861961278,0.49643406006003676 l -8.44908087634568 -2.192625602925259" fill="#ff6609" stroke="none" /><path d="M 120.23288151984713 105.62410040840565 l 9.832819530294788 2.7332124829507674 a31.205625428767437,31.205625428767437 0 0,0 -0.1483119613507315,0.5162933941633033 l -9.784314932057958 -2.9020633526186526" fill="#ff7a0b" stroke="none" /><path d="M 120.02730092923936 106.31721596034902 l 13.748904669487645 4.3368200399185435 a35.41667047793277,35.41667047793277 0 0,0 -0.18839602550424808,0.5798233461636776 l -13.672216392967151 -4.572842286060016" fill="#ffb210" stroke="none" /><path d="M 119.67450827220406 107.3425965602758 l 17.550489210848582 6.549905081632711 a39.73288360393323,39.73288360393323 0 0,0 -0.24465186372542524,0.638708815545221 l -17.435143067529648 -6.851037464011076" fill="#ffe915" stroke="none" /><path d="M 118.97047184881838 109.00673069616215 l 9.128211036881689 4.333858388032107 a31.10477932769266,31.10477932769266 0 0,0 -0.23379943431401157,0.48169608379184037 l -9.052258345952964 -4.490343427789223" fill="#ff790b" stroke="none" /><path d="M 118.81262510543309 109.33194174019688 l 15.817576031936056 7.846257349726933 a38.65671163960668,38.65671163960668 0 0,0 -0.3008252970396733,0.5935568503626003 l -15.680172065110115 -8.117368411792228" fill="#ffdc14" stroke="none" /><line stroke="#e1ed5e" stroke-width="0.3" x1="174.80103733775053" x2="179.2010983576182" y1="140.37084112569926" y2="142.7455964860345" /><path d="M 175.68104954172406 140.8457921977663 a86.0,86.0 0 0,1 -30.038265399797805,32.042727171017184" fill="none" id="id41" stroke="none" /><text fill="#e1ed5e" style="font-size:6.75px; font-family:Arial;" text-anchor="middle"><textPath startOffset="22.206326154141568" xlink:href="#id41">May</textPath></text><path d="M 118.48025628344425 109.97397251340804 l 19.076543537410405 10.295794494117374 a42.67758975531672,42.67758975531672 0 0,0 -0.354475163860853,0.6434753866789061 l -18.896491964098043 -10.622640399194086" fill="#f0ff19" stroke="none" /><path d="M 117.94076556474637 110.91462005526583 l 10.336145612582207 6.2881988948631875 a33.09865081179968,33.09865081179968 0 0,0 -0.30030777899669164,0.4841917598211728 l -10.226373193917553 -6.465186986049633" fill="#ff940d" stroke="none" /><path d="M 117.55443506779139 111.5257021239791 l 7.97115063208629 5.23361232736915 a30.53571918591356,30.53571918591356 0 0,0 -0.2922659395437567,0.43689792445450165 l -7.879881587131812 -5.370047166029459" fill="#ff710a" stroke="none" /><path d="M 117.35343817320211 111.8261652097733 l 12.023992148365508 8.194210058452567 a35.550651726503546,35.550651726503546 0 0,0 -0.34897043317601323,0.502717936434826 l -11.88116080802736 -8.399969257074412" fill="#ffb410" stroke="none" /><path d="M 116.71984013943494 112.70617746262583 l 9.1853976562951 6.980407211573811 a32.53679396295449,32.53679396295449 0 0,0 -0.34271033400884954,0.4429993045243695 l -9.063880505068182 -7.137484510211433" fill="#ff8c0c" stroke="none" /><path d="M 116.498646956653 112.99209946851258 l 11.360410668003166 8.945920583040978 a35.45989023553624,35.45989023553624 0 0,0 -0.38175457251217765,0.47629752665786457 l -11.204738183436135 -9.140145943277094" fill="#ffb310" stroke="none" /><path d="M 116.0416608686014 113.55231037782055 l 6.793403101432181 5.739200454764665 a29.893185456208553,29.893185456208553 0 0,0 -0.3354549078831111,0.3902098434551577 l -6.693605683978289 -5.855287397381351" fill="#ff6809" stroke="none" /><path d="M 112.04921762599082 117.19931262002967 l 14.235049856198577 20.319416599327532 a45.80958152298193,45.80958152298193 0 0,0 -0.6497175464250924,0.4468816528720689 l -13.8831754251506 -20.561439041564693" fill="#cbff1d" stroke="none" /><path d="M 111.45004920935366 117.60387380957326 l 4.357198008068933 6.698972423167362 a28.99133318088269,28.99133318088269 0 0,0 -0.4206755620540764,0.2684950472782492 l -4.241240643967926 -6.7729818992694195" fill="#ff5c08" stroke="none" /><line stroke="#e1ed5e" stroke-width="0.3" x1="143.8653032363475" x2="146.44561519142675" y1="172.8068346515853" y2="177.08958963109032" /><path d="M 144.38136562736335 173.6633856474863 a86.0,86.0 0 0,1 -40.68145358897372,12.25698825130547" fill="none" id="id42" stroke="none" /><text fill="#e1ed5e" style="font-size:6.75px; font-family:Arial;" text-anchor="middle"><textPath startOffset="21.466115282336833" xlink:href="#id42">June</textPath></text><path d="M 109.89434966115114 118.52300852407294 l 4.191466441180536 7.84675812733709 a29.896066773382117,29.896066773382117 0 0,0 -0.4559991507709356,0.23855720383253273 l -4.055776387883105 -7.917744750114339" fill="#ff6809" stroke="none" /><path d="M 109.57404056367764 118.69057910512821 l 3.2853430756585085 6.413693804060231 a28.20617425108621,28.20617425108621 0 0,0 -0.43403404706941184,0.21763368159961655 l -3.174455120906336 -6.469295326569149" fill="#ff5107" stroke="none" /><path d="M 108.2653958097858 119.30500536409082 l 2.2828596064622206 5.33194271181086 a26.800091470386462,26.800091470386462 0 0,0 -0.4256473996882161,0.1779206475907006 l -2.190740747276543 -5.370448402421534" fill="#ff3d05" stroke="none" /><path d="M 107.93186726928326 119.44442032107085 l 3.0722608691314868 7.531433601607547 a29.13395838097416,29.13395838097416 0 0,0 -0.46597536150679303,0.18542121297902153 l -2.9421644315828273 -7.583201658992637" fill="#ff5e08" stroke="none" /><path d="M 107.2578585660854 119.70592522655815 l 3.4968173365848014 9.494263402660726 a31.117745254973702,31.117745254973702 0 0,0 -0.504226667979735,0.180797743611974 l -3.3328711079753313 -9.55304868731266" fill="#ff790b" stroke="none" /><path d="M 106.2309692047433 120.05430185196036 l 2.674201464317913 8.606886283045778 a30.0127601189115,30.0127601189115 0 0,0 -0.4946746363465245,0.1490414100532898 l -2.525651853531143 -8.651643062204794" fill="#ff6a09" stroke="none" /><path d="M 104.83641907484287 120.43548508189849 l 2.2001117003395634 9.296206373981402 a30.55300708895495,30.55300708895495 0 0,0 -0.5128247321101747,0.11671723941429189 l -2.0397668188365268 -9.332700346973379" fill="#ff710a" stroke="none" /><path d="M 104.48393922423573 120.51570834832081 l 2.0040839729633495 9.16943790688155 a30.385890692888175,30.385890692888175 0 0,0 -0.5119422656770204,0.10728247929403399 l -1.8459502458569512 -9.202576366902125" fill="#ff6f0a" stroke="none" /><path d="M 103.41894727170886 120.7198165907248 l 1.0535955507328743 6.385096006782696 a27.47143837182712,27.47143837182712 0 0,0 -0.4672291695954989,0.07297158723762788 l -0.9435305175288582 -6.40228590136743" fill="#ff4606" stroke="none" /><path d="M 102.70371172650421 120.8252237178851 l 0.8035087490886965 6.188991709070082 a27.24093299794192,27.24093299794192 0 0,0 -0.4655249439741002,0.05636858764065272 l -0.696856382063216 -6.201905825436087" fill="#ff4306" stroke="none" /><path d="M 102.34483914955558 120.86867818915974 l 0.9820656076860416 8.740220467287003 a29.79522067230734,29.79522067230734 0 0,0 -0.5101614347954582,0.052880318640806535 l -0.8314715762849808 -8.755830154383569" fill="#ff6709" stroke="none" /><path d="M 101.26447882468166 120.96189622390904 l 0.7510535786023672 12.45058981293879 a33.47322204436314,33.47322204436314 0 0,0 -0.5754396450790492,0.02974365674473998 l -0.5366258651098385 -12.461673276445733" fill="#ff990e" stroke="none" /><line stroke="#e1ed5e" stroke-width="0.3" x1="102.19456741930631" x2="102.32365962044197" y1="184.97166512339345" y2="189.96999836594603" /><path d="M 102.22038585953345 185.97133177190398 a86.0,86.0 0 0,1 -42.740103519485714,-10.115201625700543" fill="none" id="id43" stroke="none" /><text fill="#e1ed5e" style="font-size:6.75px; font-family:Arial;" text-anchor="middle"><textPath startOffset="22.20632615414155" xlink:href="#id43">July</textPath></text><path d="M 100.54218724476979 120.99299961872073 l 0.2757306685670126 10.676042042550431 a31.679602103818887,31.679602103818887 0 0,0 -0.5452516765943423,0.00938700208943783 l -0.09191930208000243 -10.67920652191903" fill="#ff810b" stroke="none" /><path d="M 100.18074693466247 120.99922214144158 l 0.06881857905625435 7.995358990509997 a28.995655156643036,28.995655156643036 0 0,0 -0.4991310274374141,0.0 l 0.06881857905624884 -7.995358990509997" fill="#ff5c08" stroke="none" /><path d="M 99.09653310690486 120.98055641714683 l -0.31027362909907996 7.2052594619874455 a28.21193688543334,28.21193688543334 0 0,0 -0.4849926585146204,-0.02506858066165477 l 0.4342543560271893 -7.1988510745635885" fill="#ff5107" stroke="none" /><path d="M 97.2962882734958 120.8252237178851 l -0.928338247735204 7.150485573383138 a28.21049622684656,28.21049622684656 0 0,0 -0.48101772034597784,-0.06666467299649954 l 1.051284559268013 -7.133446334894034" fill="#ff5107" stroke="none" /><path d="M 96.22490169976321 120.6578951692458 l -0.78627018793864 4.302586535593203 a25.373839469471758,25.373839469471758 0 0,0 -0.4289778454438778,-0.08221462505519417 l 0.8602156479542129 -4.288414712189541" fill="#ff2903" stroke="none" /><path d="M 95.16358092515715 120.4354850818985 l -1.7283037018652923 7.302660081747721 a28.504390578550193,28.504390578550193 0 0,0 -0.47649393728555345,-0.11711061674489193 l 1.8537509238940562 -7.2718282066888" fill="#ff5507" stroke="none" /><path d="M 94.81253420990036 120.34920634021253 l -1.3348857200089472 5.236442235225512 a26.403910359021268,26.403910359021268 0 0,0 -0.43944852464888834,-0.11606234944525888 l 1.424824687469325 -5.212688536476672" fill="#ff3705" stroke="none" /><path d="M 93.76903079525671 120.05430185196036 l -4.278465865786116 13.77019258423997 a35.41955179510634,35.41955179510634 0 0,0 -0.5806759833095704,-0.18591411271255484 l 4.514863194186627 -13.694505624867707" fill="#ffb210" stroke="none" /><path d="M 92.40401165467489 119.57807347666478 l -1.5977109718797262 4.117976671355195 a25.417059227075235,25.417059227075235 0 0,0 -0.4065264049223996,-0.16176524626745276 l 1.6683584528439839 -4.089864580681676" fill="#ff2904" stroke="none" /><path d="M 92.06813273071674 119.44442032107085 l -5.519295429614 13.530168441570199 a35.61260004573519,35.61260004573519 0 0,0 -0.5656104055597461,-0.2364251953963368 l 5.751377294671209 -13.433158203153889" fill="#ffb510" stroke="none" /><line stroke="#e1ed5e" stroke-width="0.3" x1="58.666819895761336" x2="56.23545636021788" y1="174.27360380694188" y2="178.64263932499728" /><path d="M 58.180547188652646 175.14741091055294 a86.0,86.0 0 0,1 -31.652253787137756,-30.449443065178592" fill="none" id="id44" stroke="none" /><text fill="#e1ed5e" style="font-size:6.75px; font-family:Arial;" text-anchor="middle"><textPath startOffset="22.20632615414155" xlink:href="#id44">August</textPath></text><path d="M 89.7882731507175 118.34994917583269 l -7.009032274896276 12.594871358623793 a35.41378916075921,35.41378916075921 0 0,0 -0.5301127757465258,-0.3010118691624693 l 7.2247938175640085 -12.472356323666691" fill="#ffb210" stroke="none" /><path d="M 89.4739219176387 118.17145234162733 l -3.6149243229110852 6.240541304975054 a28.21193688543334,28.21193688543334 0 0,0 -0.4181171990126825,-0.2470310110881958 l 3.72180939295215 -6.177391721593109" fill="#ff5107" stroke="none" /><path d="M 89.1626897886671 117.98757091392108 l -3.8296125016173646 6.356321365946086 a28.420832380516806,28.420832380516806 0 0,0 -0.41686702516364443,-0.2560737747014886 l 3.9384587267133178 -6.2894591244162195" fill="#ff5407" stroke="none" /><path d="M 88.54995079064634 117.60387380957326 l -6.712928461683272 10.320789314654453 a33.311868282643495,33.311868282643495 0 0,0 -0.4779861307524887,-0.31678314367567856 l 6.889589291175723 -10.203708149887456" fill="#ff970d" stroke="none" /><path d="M 88.24862548938628 117.40417183066458 l -9.118668906212099 13.505048313056054 a37.29528927509719,37.29528927509719 0 0,0 -0.5289592926945413,-0.3638230248236527 l 9.349785083529534 -13.346084498867302" fill="#ffcb12" stroke="none" /><path d="M 87.36589467227662 116.77436683061367 l -4.337141302990699 5.758444885917504 a28.209055568259778,28.209055568259778 0 0,0 -0.38535083994593194,-0.2954705918677526 l 4.4356208714301175 -5.682934952222384" fill="#ff5107" stroke="none" /><path d="M 84.67929136418377 114.36230785411682 l -8.620657596453103 8.081384565707719 a32.8162817287903,32.8162817287903 0 0,0 -0.38278409931863033,-0.41543653903259786 l 8.758488103767464 -7.9317967718737785" fill="#ff900d" stroke="none" /><path d="M 84.19399662182784 113.82643327865904 l -6.113485962460647 5.347822832728994 a29.1224331122799,29.1224331122799 0 0,0 -0.32680569059203185,-0.38014884972440327 l 6.20463416262346 -5.241796883843061" fill="#ff5e08" stroke="none" /><path d="M 83.50135304334701 112.99209946851258 l -7.922972469465192 6.239059886548463 a31.084610107477705,31.084610107477705 0 0,0 -0.3274144688194473,-0.4232273368636898 l 8.029193755502707 -6.101754555571521" fill="#ff790b" stroke="none" /><path d="M 83.28015986056508 112.70617746262583 l -8.029193755502707 6.101754555571521 a31.084610107477705,31.084610107477705 0 0,0 -0.3200807959484826,-0.4288005330291023 l 8.133035818146276 -5.962641143033113" fill="#ff790b" stroke="none" /><path d="M 83.06392112726016 112.41649034213515 l -5.8325485438706135 4.276065505432317 a28.232106105648295,28.232106105648295 0 0,0 -0.2839614911099482,-0.39439767517785157 l 5.905289827356169 -4.175034224803325" fill="#ff5107" stroke="none" /><path d="M 82.6465618267979 111.8261652097733 l -10.476349594615492 7.139509753899269 a33.67779556368626,33.67779556368626 0 0,0 -0.3223396345196771,-0.4818540179909815 l 10.597692334545899 -6.958118821702464" fill="#ff9b0e" stroke="none" /><path d="M 82.44556493220864 111.52570212397912 l -4.817132879339044 3.1627812825920287 a26.762634347130117,26.762634347130117 0 0,0 -0.24952350706602436,-0.3872660241568188 l 4.870861249782115 -3.0793936585137613" fill="#ff3c05" stroke="none" /><line stroke="#e1ed5e" stroke-width="0.3" x1="26.63291911575756" x2="22.317208475507996" y1="142.92168965132927" y2="145.44649492493687" /><path d="M 25.769776987707644 143.4266507060508 a86.0,86.0 0 0,1 -11.730757126820373,-40.83630448921669" fill="none" id="id45" stroke="none" /><text fill="#e1ed5e" style="font-size:6.75px; font-family:Arial;" text-anchor="middle"><textPath startOffset="21.46611528233685" xlink:href="#id45">September</textPath></text><path d="M 81.69416730710424 110.29060199501025 l -8.803376664340218 4.948807682484919 a31.09901669334553,31.09901669334553 0 0,0 -0.2583048644847882,-0.46889835875959324 l 8.887257938276523 -4.796538805327503" fill="#ff790b" stroke="none" /><path d="M 81.51974371655577 109.97397251340807 l -4.171052584440763 2.251157299504633 a25.73976675051452,25.73976675051452 0 0,0 -0.20707947768456678,-0.39171633184046734 l 4.209184570350216 -2.1790259525780398" fill="#ff2e04" stroke="none" /><path d="M 81.35079622478065 109.6543875284942 l -3.3392011333173475 1.7286497678506652 a24.760118911502403,24.760118911502403 0 0,0 -0.19268245565561604,-0.38018076479784046 l 3.36846225875923 -1.6709147913501396" fill="#ff2003" stroke="none" /><path d="M 81.18737489456691 109.33194174019688 l -3.8976076710547387 1.9333956589568653 a25.350788932083237,25.350788932083237 0 0,0 -0.19054949881795075,-0.39258840646221393 l 3.930310426487408 -1.8660182965293666" fill="#ff2803" stroke="none" /><path d="M 80.87730276802145 108.67885076344099 l -5.260600221831736 2.3875274338942405 a26.77704093299794,26.77704093299794 0 0,0 -0.18687686063077596,-0.42135798667201646 l 5.300918167193792 -2.2966211107295282" fill="#ff3d05" stroke="none" /><path d="M 80.45479744820244 107.68017299344265 l -10.847520373476492 4.2624696672959805 a32.65492796707066,32.65492796707066 0 0,0 -0.20106995169543523,-0.5249301956401845 l 10.919284604765437 -4.0751159048226375" fill="#ff8e0d" stroke="none" /><path d="M 80.20201598880116 107.00284435728193 l -9.520960524937376 3.367706765004321 a31.09901669334553,31.09901669334553 0 0,0 -0.17416807198985879,-0.5062139434698636 l 9.577519427870463 -3.20332011844516" fill="#ff790b" stroke="none" /><path d="M 80.0844068197444 106.66101706037122 l -13.662652536191818 4.569643535585108 a35.40658586782529,35.40658586782529 0 0,0 -0.18834238126164962,-0.5796582461613665 l 13.739287168469716 -4.333786389445938" fill="#ffb210" stroke="none" /><path d="M 79.97269907076064 106.31721596034903 l -9.6175010179288 3.0336504726121563 a31.084610107477705,31.084610107477705 0 0,0 -0.15656759697411804,-0.511671965851954 l 9.66829538740905 -2.8676515342081546" fill="#ff790b" stroke="none" /><path d="M 79.76711848015287 105.62410040840567 l -13.866440867821135 3.854431494166888 a35.39217928195747,35.39217928195747 0 0,0 -0.1581051628998711,-0.5883681277146761 l 13.93073410706278 -3.615172433276673" fill="#ffb210" stroke="none" /><path d="M 79.58551787078972 104.9243191809786 l -9.9995016512162 2.4120493221258106 a31.28630230962726,31.28630230962726 0 0,0 -0.12177736404354748,-0.5246136970898786 l 10.039539581190303 -2.2395669676873577" fill="#ff7b0b" stroke="none" /><path d="M 79.4281124754447 104.21870165774334 l -9.780231914829741 2.0056438935395398 a30.98376400640293,30.98376400640293 0 0,0 -0.10264488279007548,-0.5233840459541631 l 9.813306730595484 -1.8369961205174217" fill="#ff770b" stroke="none" /><path d="M 79.35854240842038 103.8639653848113 l -7.080307886432527 1.325394026347346 a28.203292933912646,28.203292933912646 0 0,0 -0.08521901306698941,-0.47795348203609334 l 7.102073341838705 -1.203321793578039" fill="#ff5107" stroke="none" /><path d="M 79.29508885075956 103.50808413554451 l -7.102073341838705 1.203321793578039 a28.203292933912646,28.203292933912646 0 0,0 -0.0769792034384037,-0.4793495732933355 l 7.121734299638399 -1.0808929905914897" fill="#ff5107" stroke="none" /><path d="M 79.23777060512086 103.15116336523772 l -11.437505285219267 1.7359141428899323 a32.56848845186371,32.56848845186371 0 0,0 -0.07935226755212108,-0.554989574440641 l 11.465691603787986 -1.5387790964688908" fill="#ff8d0d" stroke="none" /><line stroke="#e1ed5e" stroke-width="0.3" x1="15.007084014347285" x2="10.007500721073583" y1="101.09737516637583" y2="101.16192664675087" /><path d="M 14.007167355692545 101.11028546245083 a86.0,86.0 0 0,1 10.666146001902534,-42.60595125391555" fill="none" id="id46" stroke="none" /><text fill="#e1ed5e" style="font-size:6.75px; font-family:Arial;" text-anchor="middle"><textPath startOffset="22.20632615414155" xlink:href="#id46">October</textPath></text><path d="M 79.00019446554 99.90962569577889 l -15.91912996723871 -0.06850921987034385 a36.91927738394695,36.91927738394695 0 0,0 0.008204857369998363,-0.6354752453764215 l 15.915592102750995 0.3425207233072374" fill="#ffc612" stroke="none" /><path d="M 79.00486145842228 99.54816195383935 l -13.323006963841333 -0.28672549236126205 a34.326091927738396,34.326091927738396 0 0,0 0.01779776081203958,-0.5906210350345621 l 13.316097508573648 0.5160166748208186" fill="#ffa40f" stroke="none" /><path d="M 79.08570108090925 98.10471618934814 l -14.347792535392703 -1.3002175696216702 a35.40658586782529,35.40658586782529 0 0,0 0.06022976271322387,-0.6065054909938796 l 14.32328564699725 1.5469985913199802" fill="#ffb210" stroke="none" /><path d="M 80.2630227832202 92.82701384747504 l -13.716138523163465 -4.984839907963263 a35.59387148410702,35.59387148410702 0 0,0 0.21423343014542334,-0.5740390826294355 l 13.628300504516414 5.22020212762204" fill="#ffb510" stroke="none" /><path d="M 80.38941819471856 92.48833698450439 l -8.085497140389304 -3.0970794459040927 a29.658358106563,29.658358106563 0 0,0 0.18671553531458399,-0.4751706713386154 l 8.03098805519303 3.2357991221384714" fill="#ff6509" stroke="none" /><path d="M 80.95270993114464 91.15688171328213 l -7.85325039884432 -3.646042138338057 a29.658358106563,29.658358106563 0 0,0 0.21896597183474562,-0.46119817996891677 l 7.789326233167823 3.780682733947506" fill="#ff6509" stroke="none" /><path d="M 81.43458229118936 90.18545643968196 l -9.221149614346379 -4.874728701809008 a31.430368168305513,31.430368168305513 0 0,0 0.25696855490855297,-0.47612370548570004 l 9.135872960219354 5.032733390627181" fill="#ff7d0b" stroke="none" /><line stroke="#e1ed5e" stroke-width="0.3" x1="26.266209847984243" x2="21.928928074336255" y1="57.711370442889674" y2="55.22380399835377" /><path d="M 25.398753493254645 57.213857153982495 a86.0,86.0 0 0,1 29.58750427330803,-30.492523968695096" fill="none" id="id47" stroke="none" /><text fill="#e1ed5e" style="font-size:6.75px; font-family:Arial;" text-anchor="middle"><textPath startOffset="21.46611528233685" xlink:href="#id47">November</textPath></text><path d="M 81.78341655067845 89.55222093294921 l -9.560269612667035 -5.483112956524482 a32.02103818888635,32.02103818888635 0 0,0 0.2783395587998831,-0.4757725310826091 l 9.464470379396829 5.646864899960983" fill="#ff850c" stroke="none" /><path d="M 81.96595687620814 89.24020034530311 l -7.4231140230563355 -4.428913647028221 a29.643951520695175,29.643951520695175 0 0,0 0.2652204841479919,-0.43595274090846775 l 7.3457777406221245 4.556034161143763" fill="#ff6509" stroke="none" /><path d="M 82.54541684631803 88.32363383020206 l -12.38145825353795 -8.282663585344888 a35.89640978733135,35.89640978733135 0 0,0 0.34798241919189704,-0.510621261388896 l 12.237051368677312 8.4945628700042" fill="#ffb911" stroke="none" /><path d="M 82.7489923806493 88.02491185347247 l -7.100803502133838 -4.929146733077873 a29.643951520695175,29.643951520695175 0 0,0 0.2945865991197484,-0.41667185306468874 l 7.01490428321021 5.050645086474348" fill="#ff6509" stroke="none" /><path d="M 84.07557802195018 86.31012108654704 l -5.462298871958546 -4.695819430637878 a28.203292933912646,28.203292933912646 0 0,0 0.3196482472461296,-0.3654132033890041 l 5.380658761134573 4.789148190229826" fill="#ff5107" stroke="none" /><path d="M 84.5562425177563 85.77008943001954 l -6.9078412154742015 -6.364899399698556 a30.39309398582209,30.39309398582209 0 0,0 0.35781742951039786,-0.38169468570290893 l 6.797256463993346 6.482863502279516" fill="#ff6f0a" stroke="none" /><path d="M 84.80347519578584 85.50635884689758 l -5.212619987724958 -4.97152109070515 a28.203292933912646,28.203292933912646 0 0,0 0.3380846053673938,-0.34842590430691145 l 5.126271118654451 5.060511190562185" fill="#ff5107" stroke="none" /><path d="M 85.05521093208273 85.24692304244772 l -6.151525342385341 -6.072613428674622 a29.643951520695175,29.643951520695175 0 0,0 0.3616056724370366,-0.36005282276168776 l 6.046083869780989 6.177602102086421" fill="#ff6509" stroke="none" /><path d="M 85.31137513191541 84.99185889309783 l -7.0839949340933925 -7.238090462944592 a31.127829865081182,31.127829865081182 0 0,0 0.386158155706436,-0.3714838398368886 l 6.958353534774529 7.3589573895437885" fill="#ff790b" stroke="none" /><path d="M 85.57189188830299 84.74124197986013 l -10.88789315540822 -11.514727067564957 a36.84724445460782,36.84724445460782 0 0,0 0.4646123731173265,-0.4318065655269178 l 10.688072898496038 11.700438219166525" fill="#ffc512" stroke="none" /><path d="M 85.83668400450813 84.49514656593479 l -4.858214953861837 -5.318381008712058 a28.203292933912646,28.203292933912646 0 0,0 0.36125599584927054,-0.3243391999766809 l 4.765947970416595 5.401219217458017" fill="#ff5107" stroke="none" /><path d="M 87.22198572758235 83.33499621200491 l -4.3830371389495735 -5.716328763318692 a28.203292933912646,28.203292933912646 0 0,0 0.3878004433974333,-0.2920832540206077 l 4.28399054179375 5.790928606845154" fill="#ff5107" stroke="none" /><path d="M 88.39885842347998 82.49532879139004 l -9.566365544233069 -14.434448748741714 a38.316716213126,38.316716213126 0 0,0 0.552915641725857,-0.35963171372766295 l 9.316482876722926 14.596979386628911" fill="#ffd814" stroke="none" /><path d="M 88.70189139769569 82.29822771554957 l -4.262949735605331 -6.67915030170208 a28.92362222730391,28.92362222730391 0 0,0 0.42198304259363933,-0.2642457425593394 l 4.1473475406394495 6.75154038558435" fill="#ff5b08" stroke="none" /><line stroke="#e1ed5e" stroke-width="0.3" x1="56.76296977257108" x2="54.21961505331056" y1="26.818313649435495" y2="22.513508569990535" /><path d="M 56.25429882871898 25.957352633546506 a86.0,86.0 0 0,1 42.26535254187918,-11.944610805530505" fill="none" id="id48" stroke="none" /><text fill="#e1ed5e" style="font-size:6.75px; font-family:Arial;" text-anchor="middle"><textPath startOffset="22.20632615414155" xlink:href="#id48">December</textPath></text><path d="M 89.63071344664047 81.73862282372117 l -10.670429794218581 -18.79172131105756 a42.609878801737935,42.609878801737935 0 0,0 0.6409254419537479,-0.35667431453201054 l 10.345380263192787 18.972611023149756" fill="#f1ff19" stroke="none" /><path d="M 90.91171255644093 81.06846463323043 l -5.293361106504675 -11.0264396476474 a33.231191401783676,33.231191401783676 0 0,0 0.5178080900541298,-0.2431178413288698 l 5.102774805150937 11.115922471616278" fill="#ff950d" stroke="none" /><path d="M 92.23578459929587 80.48803036053334 l -22.440411262176898 -56.39418803412282 a81.69494626114795,81.69494626114795 0 0,0 1.3110748678311195,-0.5086766799483051 l 21.4663532293461 56.77210741796168" fill="#4ae7ff" stroke="none" /><path d="M 93.59665428221793 80.00007090966166 l -2.8905109643040983 -9.028095134765124 a30.479533501029042,30.479533501029042 0 0,0 0.5010467046432666,-0.1556776501030442 l 2.734678886950103 9.076512919750694" fill="#ff700a" stroke="none" /><path d="M 94.63758080256005 79.69619591428918 l -2.2881944254340145 -8.66382310174626 a29.96089640978733,29.96089640978733 0 0,0 0.4997636047322865,-0.1274008705470987 l 2.138721932016729 8.701926968462221" fill="#ff6909" stroke="none" /><path d="M 96.75951476605007 79.25152402106235 l -3.8747992884345135 -24.809920167817275 a46.11067916761948,46.11067916761948 0 0,0 0.7852671049449151,-0.11572795862940226 l 3.4471632030609496 24.872942610607645" fill="#c8ff1d" stroke="none" /><path d="M 97.83486435360386 79.11191278185805 l -1.3576039200590506 -13.097446867629822 a34.16761948319232,34.16761948319232 0 0,0 0.5855270342449048,-0.05560284719288599 l 1.1319517587239096 13.118875259337889" fill="#ffa20f" stroke="none" /></svg>