<?xml version="1.0" encoding="utf-8" ?>
<svg baseProfile="full" height="200mm" version="1.1" viewBox="0,0,200,200" width="200mm" xmlns="http://www.w3.org/2000/svg" xmlns:ev="http://www.w3.org/2001/xml-events" xmlns:xlink="http://www.w3.org/1999/xlink"><defs /><rect fill="#1a1a1a" height="200" width="200" x="0" y="0" /><text alignment-baseline="middle" fill="#e1ed5e" style="dominant-baseline: central; font-size:9.0px; font-family:Arial;" text-anchor="middle" x="100.0" y="100.0">2018</text><line stroke="#e1ed5e" stroke-width="0.3" x1="100.0" x2="100.0" y1="15.0" y2="10.0" /><path d="M 100.0 14.0 a86.0,86.0 0 0,1 42.46469731375804,11.215312516191453" fill="none" id="id49" stroke="none" /><text fill="#e1ed5e" style="font-size:6.75px; font-family:Arial;" text-anchor="middle"><textPath startOffset="22.20632615414155" xlink:href="#id49">January</textPath></text><path d="M 102.16513564639614 79.11191278185805 l 6.395758912524019 -61.702910029392164 a83.03349771020811,83.03349771020811 0 0,0 1.4203998619788447,0.1595984745273143 l -7.456925478012589 61.58367560139425" fill="#4cdbff" stroke="none" /><path d="M 106.74666289553966 80.11325718540242 l 2.28677119153371 -6.740581420175461 a28.11791826059018,28.11791826059018 0 0,0 0.4570072147913011,0.1594408436687946 l -2.4024604103882847 6.700219723334459" fill="#ff5007" stroke="none" /><line stroke="#e1ed5e" stroke-width="0.3" x1="143.23703022742887" x2="145.7803849466894" y1="26.81831364943548" y2="22.513508569990506" /><path d="M 143.74570117128098 25.957352633546492 a86.0,86.0 0 0,1 28.547481713284135,27.462654790039103" fill="none" id="id50" stroke="none" /><text fill="#e1ed5e" style="font-size:6.75px; font-family:Arial;" text-anchor="middle"><textPath startOffset="19.985693538727396" xlink:href="#id50">February</textPath></text><path d="M 116.60985879189232 87.15038557335679 l 1.4658323845815717 -1.1339880243385447 a22.853265609412567,22.853265609412567 0 0,0 0.23802662062987454,0.3132151315820641 l -1.4851349454355598 1.1085881168754472" fill="#ff0400" stroke="none" /><path d="M 117.45458315368197 88.32363383020206 l 14.265037511571604 -9.542697178412842 a38.16258618756024,38.16258618756024 0 0,0 0.3605516906216729,0.5491449608464681 l -14.427185837551201 9.2957341535887" fill="#ffd614" stroke="none" /><line stroke="#e1ed5e" stroke-width="0.3" x1="172.23445277983987" x2="176.4835382374775" y1="55.19839476539836" y2="52.563006222186495" /><path d="M 173.08426987136738 54.67131705675599 a86.0,86.0 0 0,1 12.851231095245387,41.99856678651699" fill="none" id="id51" stroke="none" /><text fill="#e1ed5e" style="font-size:6.75px; font-family:Arial;" text-anchor="middle"><textPath startOffset="22.20632615414155" xlink:href="#id51">March</textPath></text><path d="M 118.21658344932153 89.55222093294921 l 10.893887265400783 -6.247984296665935 a33.55842695255443,33.55842695255443 0 0,0 0.2830770907090991,0.5035625577808839 l -10.999821997402314 6.059538228950258" fill="#ff9a0e" stroke="none" /><path d="M 119.7369772167798 92.82701384747503 l 8.928244466608804 -3.2447812662465774 a30.499587081621783,30.499587081621783 0 0,0 0.17507767901249702,0.49496817478213656 l -8.98277522643111 3.090615465037826" fill="#ff710a" stroke="none" /><path d="M 120.91429891909075 98.10471618934814 l 13.682746232796415 -1.2399501183663986 a34.73881438724395,34.73881438724395 0 0,0 0.048841972680101896,0.5959957788774537 l -13.70206268929601 1.0042404222811763" fill="#ffaa0f" stroke="none" /><path d="M 120.94382443527127 98.46500227214037 l 7.123976592090834 -0.522124691981692 a28.143084535313516,28.143084535313516 0 0,0 0.03125143327029927,0.4834458404797586 l -7.131908616365549 0.39941978724889815" fill="#ff5007" stroke="none" /><line stroke="#e1ed5e" stroke-width="0.3" x1="184.98032266829074" x2="189.97916517819016" y1="98.17113171792111" y2="98.06355123074" /><path d="M 185.9800911702706 98.14961562048488 a86.0,86.0 0 0,1 -9.607161424134198,41.387399972396054" fill="none" id="id52" stroke="none" /><text fill="#e1ed5e" style="font-size:6.75px; font-family:Arial;" text-anchor="middle"><textPath startOffset="21.466115282336823" xlink:href="#id52">April</textPath></text><path d="M 120.76222939487914 103.15116336523771 l 8.44630368758858 1.2819279782433106 a29.543031389640063,29.543031389640063 0 0,0 -0.08063593952874075,0.5021200724184837 l -8.422985993698552 -1.4271272803549993" fill="#ff6409" stroke="none" /><path d="M 120.49622156327973 104.57218783832717 l 60.666628071386626 13.53318796852068 a83.15775847103295,83.15775847103295 0 0,0 -0.3236794340907624,1.3944025305851706 l -60.42468807136531 -14.575459156454416" fill="#4cdaff" stroke="none" /><path d="M 119.9155931802556 106.66101706037122 l 16.378580331178775 5.478019259742791 a38.27039630914673,38.27039630914673 0 0,0 -0.2143309290186664,0.6229460058122307 l -16.281858571216876 -5.759137968644322" fill="#ffd714" stroke="none" /><path d="M 119.79798401119884 107.00284435728193 l 13.335193690609808 4.716858334501386 a35.144827440228276,35.144827440228276 0 0,0 -0.20664445428695105,0.5685967879360443 l -13.25202497531763 -4.945702919443561" fill="#ffaf10" stroke="none" /><path d="M 119.67450827220406 107.3425965602758 l 4.578452025292808 1.7086946025379184 a25.886907016984264,25.886907016984264 0 0,0 -0.15939643623462169,0.4161337969769337 l -4.5483613094646795 -1.787251966347996" fill="#ff3004" stroke="none" /><path d="M 119.26925614724726 108.34839909993367 l 11.868578804178217 5.142057993787579 a33.93460178136394,33.93460178136394 0 0,0 -0.2368294489120435,0.5339878861480912 l -11.7783082705349 -5.345594216428358" fill="#ff9f0e" stroke="none" /><path d="M 119.12269723197855 108.67885076344098 l 13.861373798493199 6.290995099384657 a36.222164856617326,36.222164856617326 0 0,0 -0.262568234485208,0.5655486179144188 l -13.75103094716816 -6.528663784577906" fill="#ffbd11" stroke="none" /><path d="M 118.81262510543309 109.33194174019688 l 6.358386443747032 3.154056997477117 a28.09768650416179,28.09768650416179 0 0,0 -0.21865530021135787,0.431427651150715 l -6.303152473749406 -3.2630388603305263" fill="#ff5007" stroke="none" /><line stroke="#e1ed5e" stroke-width="0.3" x1="174.80103733775053" x2="179.2010983576182" y1="140.37084112569926" y2="142.7455964860345" /><path d="M 175.68104954172406 140.8457921977663 a86.0,86.0 0 0,1 -30.038265399797805,32.042727171017184" fill="none" id="id53" stroke="none" /><text fill="#e1ed5e" style="font-size:6.75px; font-family:Arial;" text-anchor="middle"><textPath startOffset="22.206326154141568" xlink:href="#id53">May</textPath></text><path d="M 118.48025628344425 109.97397251340804 l 6.336199277291968 3.419707847222977 a28.200126599019885,28.200126599019885 0 0,0 -0.23422701596776374,0.42519006981733026 l -6.276395851872694 -3.528268435438112" fill="#ff5107" stroke="none" /><path d="M 118.12598468904814 110.60418214915192 l 2.513719205499821 1.470592455208643 a23.912288861602715,23.912288861602715 0 0,0 -0.21090539061890906,0.35348956593269437 l -2.488032939182685 -1.5136441150274413" fill="#ff1402" stroke="none" /><path d="M 117.75023020441432 111.22182372390056 l 7.9448713454817526 5.022805040911104 a30.399444195018077,30.399444195018077 0 0,0 -0.28343158711549044,0.4398921173932937 l -7.857234894989212 -5.15881875822585" fill="#ff700a" stroke="none" /><path d="M 117.55443506779139 111.5257021239791 l 7.156073854014322 4.698457985121664 a29.56066004710273,29.56066004710273 0 0,0 -0.2829333748322389,0.42294700646979067 l -7.074137373771362 -4.820941905797261" fill="#ff6409" stroke="none" /><path d="M 117.14729908036423 112.12312394758627 l 16.908451333001675 11.954258820063425 a41.70748730332945,41.70748730332945 0 0,0 -0.4194982917952932,0.5826464369462135 l -16.70017324883078 -12.24353886246077" fill="#fcff18" stroke="none" /><path d="M 116.27256486870786 113.27417163493432 l 6.156743522629716 5.022298014544436 a28.94537400946865,28.94537400946865 0 0,0 -0.3182667925411322,0.38337285425549295 l -6.06938073019504 -5.1275321259136994" fill="#ff5c08" stroke="none" /><path d="M 116.0416608686014 113.55231037782055 l 7.06165774534714 5.9658272501074725 a30.24435529880511,30.24435529880511 0 0,0 -0.3393956604460063,0.394793828976089 l -6.957919575330354 -6.0864981782450895" fill="#ff6e0a" stroke="none" /><path d="M 115.56566222782051 114.09645910891815 l 10.699794881940752 9.689868559367326 a35.435344236055506,35.435344236055506 0 0,0 -0.4133340406918993,0.44859246670657665 l -10.531414433253131 -9.872612280875238" fill="#ffb310" stroke="none" /><path d="M 115.32070863581623 114.36230785411682 l 7.306454136540058 6.849392291532401 a31.01491122340417,31.01491122340417 0 0,0 -0.3684770076096365,0.38634666932704087 l -7.187470577551457 -6.974146077441949" fill="#ff780b" stroke="none" /><path d="M 115.07121518719521 114.62390073753431 l 5.133396552298296 4.981037075961356 a28.152795992844315,28.152795992844315 0 0,0 -0.3404603082515126,0.3448844947705834 l -5.046895618991248 -5.068662064712604" fill="#ff5107" stroke="none" /><path d="M 114.29624159901734 115.38237550388516 l 4.716791870587688 5.075142527812334 a27.92857829774994,27.92857829774994 0 0,0 -0.3549595300199726,0.3242471146640197 l -4.628732791100851 -5.155582409062936" fill="#ff4d07" stroke="none" /><path d="M 113.48314897796784 116.09983520530334 l 6.695841697068342 7.995309408785211 a31.428771191967364,31.428771191967364 0 0,0 -0.4177480410862936,0.34377819767218093 l -6.557223527437358 -8.109382725314571" fill="#ff7e0b" stroke="none" /><path d="M 113.20401910651253 116.32954008644616 l 11.659922039022359 14.419940080754834 a39.54422966554931,39.54422966554931 0 0,0 -0.5329856149094276,0.42343600707497425 l -11.40997893139558 -14.618510001834935" fill="#ffe715" stroke="none" /><line stroke="#e1ed5e" stroke-width="0.3" x1="143.8653032363475" x2="146.44561519142675" y1="172.8068346515853" y2="177.08958963109032" /><path d="M 144.38136562736335 173.6633856474863 a86.0,86.0 0 0,1 -40.68145358897372,12.25698825130547" fill="none" id="id54" stroke="none" /><text fill="#e1ed5e" style="font-size:6.75px; font-family:Arial;" text-anchor="middle"><textPath startOffset="21.466115282336833" xlink:href="#id54">June</textPath></text><path d="M 110.8373102113329 117.98757091392108 l 3.651337805733034 6.060424259390645 a28.075380553396826,28.075380553396826 0 0,0 -0.4160933553010502,0.2458352885502338 l -3.5464765794036017 -6.122378120234629" fill="#ff4f07" stroke="none" /><path d="M 110.21172684928248 118.3499491758327 l 3.6464075656092803 6.552407295148472 a28.498688518404236,28.498688518404236 0 0,0 -0.4307063632096363,0.23485545050934994 l -3.533078390530995 -6.614203397417593" fill="#ff5507" stroke="none" /><path d="M 109.89434966115114 118.52300852407294 l 3.2579731650412738 6.099184562296878 a27.9147987294707,27.9147987294707 0 0,0 -0.4257792374852994,0.22274757348279461 l -3.1525030250294788 -6.154361554724389" fill="#ff4d07" stroke="none" /><path d="M 109.57404056367764 118.69057910512821 l 8.508947757521486 16.611289674990513 a39.66379212825401,39.66379212825401 0 0,0 -0.6103428301299318,0.3060385655364583 l -8.221751019708794 -16.75529608143627" fill="#ffe915" stroke="none" /><path d="M 101.98527174616119 120.90594882070398 l 0.8122929152422517 8.553868832471736 a29.592350771662208,29.592350771662208 0 0,0 -0.507516822942839,0.043790687002927375 l -0.6649317745578711 -8.566583771753328" fill="#ff6509" stroke="none" /><path d="M 101.26447882468166 120.96189622390904 l 3.7934364740449884 62.885688671727095 a84.0,84.0 0 0,0 -1.4440477263460816,0.07464077295119242 l -2.7104006792854274 -62.94166925144049" fill="#4dd2ff" stroke="none" /><line stroke="#e1ed5e" stroke-width="0.3" x1="102.19456741930631" x2="102.32365962044197" y1="184.97166512339345" y2="189.96999836594603" /><path d="M 102.22038585953345 185.97133177190398 a86.0,86.0 0 0,1 -42.740103519485714,-10.115201625700543" fill="none" id="id55" stroke="none" /><text fill="#e1ed5e" style="font-size:6.75px; font-family:Arial;" text-anchor="middle"><textPath startOffset="22.20632615414155" xlink:href="#id55">July</textPath></text><path d="M 97.2962882734958 120.8252237178851 l -0.914860769773279 7.046675876898649 a28.105815304533007,28.105815304533007 0 0,0 -0.4792328039017552,-0.06641729984152597 l 1.0360221648618653 -7.029884011564518" fill="#ff5007" stroke="none" /><path d="M 96.93821686468263 120.77559828337769 l -1.0326051485020518 7.006697993456199 a28.08237884924381,28.08237884924381 0 0,0 -0.4776199328337433,-0.07459441075860265 l 1.1530609449443123 -6.987885275350491" fill="#ff5007" stroke="none" /><path d="M 96.58105272829116 120.7198165907248 l -1.6453130655873764 9.971076546101449 a31.105910279237932,31.105910279237932 0 0,0 -0.5275429494880345,-0.09172010385183135 l 1.816704986547461 -9.94127786372861" fill="#ff790b" stroke="none" /><path d="M 96.22490169976321 120.6578951692458 l -1.2837061736005884 7.024629679362578 a28.140960976809904,28.140960976809904 0 0,0 -0.47575964304007917,-0.09118046790612261 l 1.4044334312123625 -7.0014920131079865" fill="#ff5007" stroke="none" /><path d="M 95.16358092515715 120.4354850818985 l -2.0992643845713235 8.870092800066555 a30.115122447785446,30.115122447785446 0 0,0 -0.5034197530881469,-0.12372832716732564 l 2.251637422402681 -8.832643214585199" fill="#ff6c09" stroke="none" /><path d="M 94.81253420990036 120.34920634021253 l -1.7686402363568714 6.937959028070417 a28.159843836344777,28.159843836344777 0 0,0 -0.4686730737970703,-0.1237808184930876 l 1.887803752965431 -6.9064868602737475" fill="#ff5107" stroke="none" /><path d="M 92.40401165467489 119.57807347666478 l -3.604904189750487 9.291362215781676 a30.96618011286852,30.96618011286852 0 0,0 -0.4952803454954425,-0.19708227089404684 l 3.764305611287788 -9.227933100481563" fill="#ff770b" stroke="none" /><path d="M 91.7346041902142 119.30500536409082 l -5.1895833150246125 12.121008604976021 a34.185242682085324,34.185242682085324 0 0,0 -0.5389536706593394,-0.23626145082866723 l 5.397457660341695 -12.0298826008529" fill="#ffa30f" stroke="none" /><path d="M 90.7491055286396 118.85261126421891 l -0.6846423621899836 1.3952484648207477 a22.55417291273839,22.55417291273839 0 0,0 -0.3470615639142258,-0.17402387302647315 l 0.70855783378697 -1.3832567508849725" fill="#ff0000" stroke="none" /><path d="M 90.42595943632237 118.69057910512821 l -3.2254062967366632 6.2966843658513145 a28.07470704567934,28.07470704567934 0 0,0 -0.4282182893159326,-0.22402357012387336 l 3.333315488579091 -6.240231376782725" fill="#ff4f07" stroke="none" /><line stroke="#e1ed5e" stroke-width="0.3" x1="58.666819895761336" x2="56.23545636021788" y1="174.27360380694188" y2="178.64263932499728" /><path d="M 58.180547188652646 175.14741091055294 a86.0,86.0 0 0,1 -31.652253787137756,-30.449443065178592" fill="none" id="id56" stroke="none" /><text fill="#e1ed5e" style="font-size:6.75px; font-family:Arial;" text-anchor="middle"><textPath startOffset="22.20632615414155" xlink:href="#id56">August</textPath></text><path d="M 89.4739219176387 118.17145234162733 l -1.4025585944800891 2.4212747099646657 a23.79816758469975,23.79816758469975 0 0,0 -0.3527025887147357,-0.20838290629843814 l 1.4440290542232068 -2.396773231372478" fill="#ff1202" stroke="none" /><path d="M 89.1626897886671 117.98757091392108 l -6.68622009518475 11.097666834566665 a33.9562243085049,33.9562243085049 0 0,0 -0.49805825613255555,-0.3059480601015099 l 6.876257551249615 -10.980930307636777" fill="#ffa00e" stroke="none" /><path d="M 86.24171649860922 115.8653595955263 l -4.777705595762757 5.509409463082511 a28.292466207784983,28.292466207784983 0 0,0 -0.3651852057500988,-0.3222334847186523 l 4.871833154419444 -5.42635283659157" fill="#ff5207" stroke="none" /><path d="M 85.70375840098266 115.38237550388516 l -4.838709555684312 5.206322712459578 a28.107665323475995,28.107665323475995 0 0,0 -0.35156554568633286,-0.33242716706137715 l 4.927610935761461 -5.122260908652271" fill="#ff5007" stroke="none" /><path d="M 84.67929136418377 114.36230785411682 l -5.643227877244692 5.290210654776571 a28.735137338562463,28.735137338562463 0 0,0 -0.3351797670389011,-0.36377143831275593 l 5.733454052279322 -5.192287961662471" fill="#ff5908" stroke="none" /><path d="M 83.72743513129214 113.27417163493432 l -6.800709279689405 5.547606228412355 a29.776421911711694,29.776421911711694 0 0,0 -0.3205674113016747,-0.3999571350916332 l 6.895194603045941 -5.429721259742462" fill="#ff6709" stroke="none" /><path d="M 82.05923443525364 110.91462005526583 l -12.854866266746019 7.8205124890817235 a36.04686021493547,36.04686021493547 0 0,0 -0.3179318039446949,-0.5328719908145054 l 12.987578946388945 -7.598078404381107" fill="#ffbb11" stroke="none" /><line stroke="#e1ed5e" stroke-width="0.3" x1="26.63291911575756" x2="22.317208475507996" y1="142.92168965132927" y2="145.44649492493687" /><path d="M 25.769776987707644 143.4266507060508 a86.0,86.0 0 0,1 -11.730757126820373,-40.83630448921669" fill="none" id="id57" stroke="none" /><text fill="#e1ed5e" style="font-size:6.75px; font-family:Arial;" text-anchor="middle"><textPath startOffset="21.46611528233685" xlink:href="#id57">September</textPath></text><path d="M 81.69416730710424 110.29060199501025 l -8.065986568389599 4.53428472033444 a30.25310095300488,30.25310095300488 0 0,0 -0.2512787854023265,-0.45614398436229886 l 8.142841763243442 -4.394770217574318" fill="#ff6e0a" stroke="none" /><path d="M 81.51974371655577 109.97397251340807 l -7.510326368399253 4.053395559900598 a29.534343426702197,29.534343426702197 0 0,0 -0.23760729729362665,-0.44946346183160907 l 7.578986173917766 -3.9235170829828623" fill="#ff6409" stroke="none" /><path d="M 81.35079622478065 109.6543875284942 l -9.131101573277737 4.727021818894219 a31.282108306073088,31.282108306073088 0 0,0 -0.24343636910802566,-0.480323051064463 l 9.211116612172031 -4.569144556127071" fill="#ff7c0b" stroke="none" /><path d="M 81.18737489456691 109.33194174019688 l -8.749593655720453 4.340207588679306 a30.766923315612395,30.766923315612395 0 0,0 -0.2312599356835281,-0.47646396443839667 l 8.8230068480187 -4.188954668275625" fill="#ff750a" stroke="none" /><path d="M 81.02952815118164 109.00673069616217 l -13.269241512165312 6.2999215725808515 a35.68883188442297,35.68883188442297 0 0,0 -0.25870219562596647,-0.5572215141505644 l 13.375718324631105 -6.070579991151461" fill="#ffb610" stroke="none" /><path d="M 80.87730276802145 108.67885076344099 l -10.309118363302769 4.678801253420075 a32.321179381919166,32.321179381919166 0 0,0 -0.2255693804961807,-0.5085994044415795 l 10.38812882853023 -4.5006535124858" fill="#ff8a0c" stroke="none" /><path d="M 80.58989483394504 108.01547362559985 l -6.758715806794633 2.791036309634686 a28.312326786920483,28.312326786920483 0 0,0 -0.18213911110492806,-0.4520543366426435 l 6.805757532156949 -2.674282605149237" fill="#ff5307" stroke="none" /><path d="M 80.45479744820244 107.68017299344265 l -8.000265632266071 3.1436575746126696 a29.595745059809374,29.595745059809374 0 0,0 -0.18223329218692835,-0.47575362162883994 l 8.05319320404651 -3.005480386150672" fill="#ff6509" stroke="none" /><path d="M 80.32549172779594 107.34259656027581 l -10.080930110234604 3.7622390215649983 a31.760092673523822,31.760092673523822 0 0,0 -0.18674290063837676,-0.5138362596723618 l 10.144197271878205 -3.5881549648865194" fill="#ff820c" stroke="none" /><path d="M 80.20201598880116 107.00284435728193 l -9.073406127409882 3.2094000512738083 a30.624289451280834,30.624289451280834 0 0,0 -0.17150939215805683,-0.4984865753782042 l 9.127306350511168 -3.052740772806307" fill="#ff730a" stroke="none" /><path d="M 79.67330655649465 105.27499134158121 l -13.894334424598275 3.6057263317565114 a35.354573887165685,35.354573887165685 0 0,0 -0.14779674167678664,-0.590374514866521 l 13.954342480570121 -3.366023977492598" fill="#ffb210" stroke="none" /><path d="M 79.58551787078972 104.9243191809786 l -7.701025083780223 1.8576178074581062 a28.921901997601186,28.921901997601186 0 0,0 -0.11257428102361272,-0.48496705630705994 l 7.731859930734391 -1.724782093802472" fill="#ff5b08" stroke="none" /><path d="M 79.4281124754447 104.21870165774334 l -8.0069623523074 1.6419973767039135 a29.173591713339405,29.173591713339405 0 0,0 -0.09664803480178877,-0.4928062472586294 l 8.034040320084856 -1.5039274023773292" fill="#ff5f08" stroke="none" /><path d="M 79.23777060512086 103.15116336523772 l -14.053547383783021 2.1329609082506376 a35.21448966035573,35.21448966035573 0 0,0 -0.08579918006848872,-0.6000792655646506 l 14.08818061486811 -1.890736170705586" fill="#ffb010" stroke="none" /><path d="M 79.18660465613746 102.79330883721812 l -21.757350826205972 2.9199945195495225 a42.95241861319169,42.95241861319169 0 0,0 -0.09203781008529593,-0.7336319031889003 l 21.804390145538115 -2.5450448620732136" fill="#edff1a" stroke="none" /><line stroke="#e1ed5e" stroke-width="0.3" x1="15.007084014347285" x2="10.007500721073583" y1="101.09737516637583" y2="101.16192664675087" /><path d="M 14.007167355692545 101.11028546245083 a86.0,86.0 0 0,1 10.666146001902534,-42.60595125391555" fill="none" id="id58" stroke="none" /><text fill="#e1ed5e" style="font-size:6.75px; font-family:Arial;" text-anchor="middle"><textPath startOffset="22.20632615414155" xlink:href="#id58">October</textPath></text><path d="M 79.00175016825051 100.2711162175752 l -39.11695946819799 0.505053620136723 a60.120219799943065,60.120219799943065 0 0,0 -0.004453770899926002,-1.0348995059995783 l 39.119857536387414 0.1683553640665308" fill="#31ff2f" stroke="none" /><path d="M 79.03285615573316 98.82574320788736 l -10.613820362113493 -0.5944229096269197 a31.63045254326947,31.63045254326947 0 0,0 0.03512397426533334,-0.5433523356457015 l 10.602015796843748 0.777034309525633" fill="#ff800b" stroke="none" /><path d="M 79.08570108090925 98.10471618934814 l -14.269291177915232 -1.293103663842814 a35.32776283323999,35.32776283323999 0 0,0 0.06009567769618405,-0.6051552731708099 l 14.24491837453682 1.5385344677180541" fill="#ffb210" stroke="none" /><path d="M 79.12142395522702 97.74499172005258 l -9.393594878998375 -1.014563166816934 a30.44822539793617,30.44822539793617 0 0,0 0.060765446575936355,-0.5206012374297599 l 9.37473907941885 1.1761081425715556" fill="#ff700a" stroke="none" /><path d="M 79.26566170972629 96.67025291283419 l -8.523186169982678 -1.3687465655069668 a29.632390726141345,29.632390726141345 0 0,0 0.08521166260271822,-0.5029240562369065 l 8.498362645859736 1.5152564100597015" fill="#ff6509" stroke="none" /><path d="M 79.46518482838121 95.60439243477599 l -19.685944760471372 -4.2139014641488215 a41.13189972809039,41.13189972809039 0 0,0 0.15415768485095607,-0.6910586739024945 l 19.61049268861838 4.552138307601275" fill="#fffb17" stroke="none" /><path d="M 80.02781315780177 93.51064311812611 l -34.10971439081705 -11.08291803845546 a56.86507616150052,56.86507616150052 0 0,0 0.3104906439310439,-0.9283275053587167 l 33.91388645311423 11.668418646736498" fill="#52ff2b" stroke="none" /><path d="M 80.14247586403 93.16781622104843 l -4.855000103953712 -1.670412319779383 a26.13432598570263,26.13432598570263 0 0,0 0.15001964203278997,-0.42412572988895975 l 4.825527381111113 1.7537356760949538" fill="#ff3404" stroke="none" /><path d="M 80.2630227832202 92.82701384747504 l -7.231121384678599 -2.6279978433287847 a28.693860483820647,28.693860483820647 0 0,0 0.1727034430156856,-0.46275936453229144 l 7.184813353161285 2.7520803448904174" fill="#ff5808" stroke="none" /><path d="M 80.38941819471856 92.48833698450439 l -4.0704327964493485 -1.5591439253431254 a25.358824718928812,25.358824718928812 0 0,0 0.15964762834580956,-0.4062858005408339 l 4.042991618221849 1.6289787307797228" fill="#ff2904" stroke="none" /><path d="M 81.26839172434947 90.50648371742162 l -8.961103726430931 -4.5416486873330895 a31.046290499234466,31.046290499234466 0 0,0 0.2456952674449306,-0.47460505347066906 l 8.881599025825887 4.695226463064094" fill="#ff780b" stroke="none" /><line stroke="#e1ed5e" stroke-width="0.3" x1="26.266209847984243" x2="21.928928074336255" y1="57.711370442889674" y2="55.22380399835377" /><path d="M 25.398753493254645 57.213857153982495 a86.0,86.0 0 0,1 29.58750427330803,-30.492523968695096" fill="none" id="id59" stroke="none" /><text fill="#e1ed5e" style="font-size:6.75px; font-family:Arial;" text-anchor="middle"><textPath startOffset="21.46611528233685" xlink:href="#id59">November</textPath></text><path d="M 82.34701348167596 88.62581576622439 l -52.68790852080445 -33.94790891534882 a83.67755757862201,83.67755757862201 0 0,0 0.7905670937442841,-1.2040879214632498 l 52.095744791702245 34.84981490078973" fill="#4dd5ff" stroke="none" /><path d="M 83.84228863543731 86.58626213691792 l -9.577507445768811 -7.951013071134699 a33.44778123727726,33.44778123727726 0 0,0 0.37157201738387097,-0.43982406873510915 l 9.439224814897816 8.114696089498924" fill="#ff990e" stroke="none" /><path d="M 84.31358615837235 86.03803664274999 l -5.372965982145695 -4.782301099528119 a28.192994317517755,28.192994317517755 0 0,0 0.3257718743438757,-0.35972544028114894 l 5.289850467185774 4.874079327078824" fill="#ff5107" stroke="none" /><path d="M 85.31137513191541 84.99185889309783 l -6.7614245881785795 -6.908503363276013 a30.666658222054913,30.666658222054913 0 0,0 0.38043706329790594,-0.36598015347269136 l 6.641504281268245 7.023866603511018" fill="#ff730a" stroke="none" /><path d="M 86.37877921826538 84.01681056812374 l -1.8694718162504773 -2.19364494970619 a23.8821871967529,23.8821871967529 0 0,0 0.3151794372624618,-0.26395371463193623 l 1.831434842028905 2.2254998217319386" fill="#ff1302" stroke="none" /><path d="M 86.93701828274178 83.55741782278169 l -5.272411097012319 -6.636467432253168 a29.475908137495097,29.475908137495097 0 0,0 0.3999844869665462,-0.3121942365261907 l 5.157394054886347 6.726240058002581" fill="#ff6309" stroke="none" /><line stroke="#e1ed5e" stroke-width="0.3" x1="56.762969772571076" x2="54.21961505331055" y1="26.818313649435495" y2="22.513508569990535" /><path d="M 56.25429882871897 25.957352633546506 a86.0,86.0 0 0,1 42.265352541879196,-11.944610805530505" fill="none" id="id60" stroke="none" /><text fill="#e1ed5e" style="font-size:6.75px; font-family:Arial;" text-anchor="middle"><textPath startOffset="22.20632615414155" xlink:href="#id60">December</textPath></text><path d="M 89.3179101791058 81.91981866633112 l -7.093402485844874 -12.00607796481129 a34.944972819023974,34.944972819023974 0 0,0 0.5205191277000606,-0.301518275948807 l 6.885686625679493 12.126400398150144" fill="#ffad10" stroke="none" /><path d="M 89.63071344664047 81.73862282372117 l -3.6379923542254518 -6.406877676980147 a28.367704522929063,28.367704522929063 0 0,0 0.4266987860531081,-0.2374574124615828 l 3.5271694791002983 6.468550487001915" fill="#ff5407" stroke="none" /><path d="M 90.26544431104013 81.39251694778311 l -3.331033274739151 -6.367228991907077 a28.18591592720103,28.18591592720103 0 0,0 0.43183442129913135,-0.22120236312933525 l 3.220938365851256 6.423623880348917" fill="#ff5107" stroke="none" /><path d="M 91.56875222667455 80.76684994638697 l -5.872587887143658 -13.39639956897094 a35.627057458824424,35.627057458824424 0 0,0 0.5637833264621572,-0.24138259773992757 l 5.6411208028911926 13.495501694673655" fill="#ffb610" stroke="none" /><path d="M 92.57280143429618 80.3572730644239 l -2.528833587756235 -6.688011258939844 a28.150139433204796,28.150139433204796 0 0,0 0.45471546798617196,-0.1674755443609996 l 2.4133357939974935 6.730550071107166" fill="#ff5007" stroke="none" /><path d="M 94.28887869178378 79.79150937346287 l -11.324743202914735 -40.07198490685215 a62.64149112348104,62.64149112348104 0 0,0 1.0401533417586328,-0.284313200322755 l 10.633291971932382 40.260984648001205" fill="#32ff4b" stroke="none" /><path d="M 95.33964822691252 79.52364482259891 l -2.2511455334481427 -9.890939084275628 a31.143881514569003,31.143881514569003 0 0,0 0.5237470645224145,-0.11447082237268262 l 2.0805557447722074 9.928223404744179" fill="#ff7a0b" stroke="none" /><path d="M 97.83486435360386 79.11191278185805 l -1.4981001745146443 -14.452880658475902 a35.53031532558835,35.53031532558835 0 0,0 0.6088794148685683,-0.057820437116948446 l 1.2490956325558396 14.47652664010803" fill="#ffb410" stroke="none" /><path d="M 98.19473922651362 79.07773832637324 l -0.7431454591574655 -8.61276331176943 a29.64476471848875,29.64476471848875 0 0,0 0.5087744780280328,-0.03949069145164044 l 0.5947807917670986 8.624279265409534" fill="#ff6509" stroke="none" /><path d="M 99.27714615592234 79.0124445844662 l -1.006683997113004 -29.22836524760918 a50.245696225559264,50.245696225559264 0 0,0 0.8646407767622056,-0.02233112032500001 l 0.5034165851559192 29.24136316007654" fill="#98ff23" stroke="none" /></svg>