<?xml version="1.0" encoding="utf-8" ?>
<svg baseProfile="full" height="200mm" version="1.1" viewBox="0,0,200,200" width="200mm" xmlns="http://www.w3.org/2000/svg" xmlns:ev="http://www.w3.org/2001/xml-events" xmlns:xlink="http://www.w3.org/1999/xlink"><defs /><rect fill="#1a1a1a" height="200" width="200" x="0" y="0" /><text alignment-baseline="middle" fill="#e1ed5e" style="dominant-baseline: central; font-size:9.0px; font-family:Arial;" text-anchor="middle" x="100.0" y="100.0">2022</text><line stroke="#e1ed5e" stroke-width="0.3" x1="100.0" x2="100.0" y1="15.0" y2="10.0" /><path d="M 100.0 14.0 a86.0,86.0 0 0,1 42.46469731375804,11.215312516191453" fill="none" id="id85" stroke="none" /><text fill="#e1ed5e" style="font-size:6.75px; font-family:Arial;" text-anchor="middle"><textPath startOffset="22.20632615414155" xlink:href="#id85">January</textPath></text><line stroke="#e1ed5e" stroke-width="0.3" x1="143.23703022742887" x2="145.7803849466894" y1="26.81831364943548" y2="22.513508569990506" /><path d="M 143.74570117128098 25.957352633546492 a86.0,86.0 0 0,1 28.547481713284135,27.462654790039103" fill="none" id="id86" stroke="none" /><text fill="#e1ed5e" style="font-size:6.75px; font-family:Arial;" text-anchor="middle"><textPath startOffset="19.985693538727396" xlink:href="#id86">February</textPath></text><line stroke="#e1ed5e" stroke-width="0.3" x1="172.23445277983987" x2="176.4835382374775" y1="55.19839476539836" y2="52.563006222186495" /><path d="M 173.08426987136738 54.67131705675599 a86.0,86.0 0 0,1 12.851231095245387,41.99856678651699" fill="none" id="id87" stroke="none" /><text fill="#e1ed5e" style="font-size:6.75px; font-family:Arial;" text-anchor="middle"><textPath startOffset="22.20632615414155" xlink:href="#id87">March</textPath></text><line stroke="#e1ed5e" stroke-width="0.3" x1="184.98032266829074" x2="189.97916517819016" y1="98.17113171792111" y2="98.06355123074" /><path d="M 185.9800911702706 98.14961562048488 a86.0,86.0 0 0,1 -9.607161424134198,41.387399972396054" fill="none" id="id88" stroke="none" /><text fill="#e1ed5e" style="font-size:6.75px; font-family:Arial;" text-anchor="middle"><textPath startOffset="21.466115282336823" xlink:href="#id88">April</textPath></text><line stroke="#e1ed5e" stroke-width="0.3" x1="174.80103733775053" x2="179.2010983576182" y1="140.37084112569926" y2="142.7455964860345" /><path d="M 175.68104954172406 140.8457921977663 a86.0,86.0 0 0,1 -30.038265399797805,32.042727171017184" fill="none" id="id89" stroke="none" /><text fill="#e1ed5e" style="font-size:6.75px; font-family:Arial;" text-anchor="middle"><textPath startOffset="22.206326154141568" xlink:href="#id89">May</textPath></text><line stroke="#e1ed5e" stroke-width="0.3" x1="143.8653032363475" x2="146.44561519142675" y1="172.8068346515853" y2="177.08958963109032" /><path d="M 144.38136562736335 173.6633856474863 a86.0,86.0 0 0,1 -40.68145358897372,12.25698825130547" fill="none" id="id90" stroke="none" /><text fill="#e1ed5e" style="font-size:6.75px; font-family:Arial;" text-anchor="middle"><textPath startOffset="21.466115282336833" xlink:href="#id90">June</textPath></text><line stroke="#e1ed5e" stroke-width="0.3" x1="102.19456741930631" x2="102.32365962044197" y1="184.97166512339345" y2="189.96999836594603" /><path d="M 102.22038585953345 185.97133177190398 a86.0,86.0 0 0,1 -42.740103519485714,-10.115201625700543" fill="none" id="id91" stroke="none" /><text fill="#e1ed5e" style="font-size:6.75px; font-family:Arial;" text-anchor="middle"><textPath startOffset="22.20632615414155" xlink:href="#id91">July</textPath></text><line stroke="#e1ed5e" stroke-width="0.3" x1="58.666819895761336" x2="56.23545636021788" y1="174.27360380694188" y2="178.64263932499728" /><path d="M 58.180547188652646 175.14741091055294 a86.0,86.0 0 0,1 -31.652253787137756,-30.449443065178592" fill="none" id="id92" stroke="none" /><text fill="#e1ed5e" style="font-size:6.75px; font-family:Arial;" text-anchor="middle"><textPath startOffset="22.20632615414155" xlink:href="#id92">August</textPath></text><line stroke="#e1ed5e" stroke-width="0.3" x1="26.63291911575756" x2="22.317208475507996" y1="142.92168965132927" y2="145.44649492493687" /><path d="M 25.769776987707644 143.4266507060508 a86.0,86.0 0 0,1 -11.730757126820373,-40.83630448921669" fill="none" id="id93" stroke="none" /><text fill="#e1ed5e" style="font-size:6.75px; font-family:Arial;" text-anchor="middle"><textPath startOffset="21.46611528233685" xlink:href="#id93">September</textPath></text><path d="M 81.02952815118164 109.00673069616217 l -26.045198119065738 12.365643156167787 a49.831605500337034,49.831605500337034 0 0,0 -0.3612207257512098,-0.7780373075637398 l 26.254193461656776 -11.915485781325218" fill="#a6ff21" stroke="none" /><path d="M 80.87730276802145 108.67885076344099 l -5.588645043394446 2.5364108270434724 a27.137290387834085,27.137290387834085 0 0,0 -0.1893910401225347,-0.42702679770193086 l 5.63147716824826 -2.4398356928488454" fill="#ff2f04" stroke="none" /><path d="M 80.73074385275274 108.34839909993369 l -19.270193784146176 8.348805330822062 a42.001021854436246,42.001021854436246 0 0,0 -0.28170489129132537,-0.665867148733058 l 19.411049656629807 -8.015863656422844" fill="#fffa17" stroke="none" /><path d="M 80.58989483394504 108.01547362559985 l -9.296933133393784 3.8392023995833435 a31.05845121038829,31.05845121038829 0 0,0 -0.19980550303513944,-0.4959008726031705 l 9.361641250686311 -3.678602159137368" fill="#ff6809" stroke="none" /><path d="M 80.45479744820244 107.68017299344265 l -15.03297094185354 5.907117981144344 a37.151911904841846,37.151911904841846 0 0,0 -0.22875974920638384,-0.5972195193412024 l 15.132424970653434 -5.647474894969983" fill="#ffbb11" stroke="none" /><path d="M 80.20201598880116 107.00284435728193 l -26.33668293378822 9.31568039291664 a48.93568988118717,48.93568988118717 0 0,0 -0.27406122972125174,-0.7965502187879361 l 26.493134994452703 -8.860957471039407" fill="#b0ff20" stroke="none" /><path d="M 80.0844068197444 106.66101706037122 l -9.495770794242826 3.175978274377188 a31.012816835242266,31.012816835242266 0 0,0 -0.1649700932528705,-0.507725740130628 l 9.549033138511946 -3.0120536342687565" fill="#ff6709" stroke="none" /><path d="M 79.97269907076064 106.31721596034903 l -16.406174016478364 5.175003097588996 a38.20299982325831,38.20299982325831 0 0,0 -0.19242164720256014,-0.6288450764999658 l 16.49282243618705 -4.891831048536982" fill="#ffc912" stroke="none" /><path d="M 79.86692584326677 105.97154293290107 l -19.670972939915554 5.834482033304196 a41.51800080416802,41.51800080416802 0 0,0 -0.19732391342974384,-0.6869104291143977 l 19.768489490231403 -5.495014128685203" fill="#fff417" stroke="none" /><path d="M 79.76711848015287 105.62410040840567 l -4.514246644065483 1.2548176279106906 a25.685401801635788,25.685401801635788 0 0,0 -0.11474271204504258,-0.4270003168562096 l 4.5351774324523 -1.1769263778789423" fill="#ff1a02" stroke="none" /><path d="M 79.67330655649465 105.27499134158121 l -42.11645190319289 10.929663486337883 a64.51152795338895,64.51152795338895 0 0,0 -0.26968486913550516,-1.077256994818593 l 42.298348086623456 -10.203078652121897" fill="#34ff5c" stroke="none" /><path d="M 79.58551787078972 104.9243191809786 l -4.537067803951354 1.0944176722675645 a25.6671976923014,25.6671976923014 0 0,0 -0.0999058196912989,-0.430391656451889 l 4.555234189573207 -1.0161573584671013" fill="#ff1a02" stroke="none" /><path d="M 79.50377843672027 104.57218783832718 l -19.633385888899213 4.379711055974998 a41.11595661151257,41.11595661151257 0 0,0 -0.14814658956068022,-0.6920915458883004 l 19.705866517184333 -4.041105690670534" fill="#ffef16" stroke="none" /><path d="M 79.35854240842038 103.8639653848113 l -9.839545652609615 1.8419078999277445 a31.010458698861157,31.010458698861157 0 0,0 -0.09370113948268541,-0.5255257515279423 l 9.869793234431489 -1.6722633976665884" fill="#ff6709" stroke="none" /><path d="M 79.29508885075956 103.50808413554451 l -9.907971978478516 1.6787321163846256 a31.04918157089903,31.04918157089903 0 0,0 -0.08474688648388927,-0.5277189430324074 l 9.935400619323696 -1.5079339436590047" fill="#ff6809" stroke="none" /><path d="M 79.18660465613746 102.79330883721812 l -14.271973592319714 1.9154025232949818 a35.3999304528222,35.3999304528222 0 0,0 -0.07585444967350187,-0.6046345977565627 l 14.302829551240064 -1.6694501712510106" fill="#ffa40f" stroke="none" /><path d="M 79.1416061653843 102.43462659150553 l -37.97540844983089 4.432553147107916 a59.2332208208179,59.2332208208179 0 0,0 -0.10949034794972025,-1.0137446395053742 l 38.04608109928166 -3.7782121857177593" fill="#40ff2d" stroke="none" /><path d="M 79.04373962182676 101.35467743843564 l -24.537927918523337 1.5862074977750027 a45.5891431481588,45.5891431481588 0 0,0 -0.043882044901665404,-0.7835433900096667 l 24.561596314312535 -1.1635923914298985" fill="#d8ff1c" stroke="none" /><path d="M 79.0235259727143 100.99374915477108 l -21.009825291606 0.9953291529483573 a42.033388669125955,42.033388669125955 0 0,0 -0.02801799001925067,-0.7230198272567786 l 21.02384541447645 -0.6335320786775819" fill="#fffa17" stroke="none" /><path d="M 79.0095281055655 100.63252640178507 l -62.97141568330351 1.8975792053552267 a84.0,84.0 0 0,0 -0.03111174925997018,-1.4456407368394846 l 62.994749495248485 -0.8133486527256131" fill="#4dd2ff" stroke="none" /><line stroke="#e1ed5e" stroke-width="0.3" x1="15.007084014347285" x2="10.007500721073583" y1="101.09737516637583" y2="101.16192664675087" /><path d="M 14.007167355692545 101.11028546245083 a86.0,86.0 0 0,1 10.666146001902534,-42.60595125391555" fill="none" id="id94" stroke="none" /><text fill="#e1ed5e" style="font-size:6.75px; font-family:Arial;" text-anchor="middle"><textPath startOffset="22.20632615414155" xlink:href="#id94">October</textPath></text><path d="M 79.00019446554 99.90962569577889 l -20.815755345655603 -0.08958222985035202 a41.815948106826525,41.815948106826525 0 0,0 0.009293082484787394,-0.7197594797829828 l 20.8111292560531 0.4478779676938068" fill="#fff717" stroke="none" /><path d="M 79.00486145842228 99.54816195383935 l -20.372722942834383 -0.4384429905634128 a41.377440279914076,41.377440279914076 0 0,0 0.021453819638619226,-0.7119478283939262 l 20.36215742874012 0.7890609663823335" fill="#fff216" stroke="none" /><path d="M 79.01574976396665 99.18683210126434 l -9.945807312584696 -0.38541340017554976 a30.95327215482919,30.95327215482919 0 0,0 0.025214228568363844,-0.5322325137516237 l 9.937699475782834 0.5565570205501826" fill="#ff6609" stroke="none" /><path d="M 79.03285615573316 98.82574320788736 l -9.899772723156529 -0.5544329474191446 a30.91528596982144,30.91528596982144 0 0,0 0.03432981894027586,-0.5310671042685297 l 9.888762313211839 0.7247591159406861" fill="#ff6609" stroke="none" /><path d="M 79.05617556472873 98.46500227214037 l -62.241876698864424 -4.561780949117227 a83.4088219759384,83.4088219759384 0 0,0 0.11727088204034555,-1.4310017971440292 l 62.15413133300458 5.632496663469034" fill="#4cd8ff" stroke="none" /><path d="M 79.08570108090925 98.10471618934814 l -28.728482043682664 -2.6034163101825545 a49.846203511351746,49.846203511351746 0 0,0 0.08479284110733668,-0.8538523383104747 l 28.6794120768931 3.0975441791974596" fill="#a6ff21" stroke="none" /><path d="M 79.21141760316559 97.0276538004421 l -21.68813576570891 -3.100964110401154 a42.90870172798512,42.90870172798512 0 0,0 0.11083543756733437,-0.7302670516040407 l 21.631544434702274 3.4738302743972866" fill="#f9ff18" stroke="none" /><path d="M 79.26566170972629 96.67025291283419 l -5.8891513847006145 -0.9457444165596522 a26.964606989012346,26.964606989012346 0 0,0 0.07754011528120189,-0.4576461496839215 l 5.871999407899189 1.0469763545594017" fill="#ff2d04" stroke="none" /><path d="M 79.32604984820605 96.31383870115002 l -25.934866823580077 -4.6241817201834445 a47.34388683809041,47.34388683809041 0 0,0 0.14995449334900068,-0.801062899604985 l 25.851426606321215 5.069922697251002" fill="#c3ff1e" stroke="none" /><path d="M 79.46518482838121 95.60439243477599 l -30.36330462579351 -6.4994581350214204 a52.051138849446886,52.051138849446886 0 0,0 0.1950817519232273,-0.8745132421843371 l 30.246928486868246 7.021149546755717" fill="#8dff24" stroke="none" /><path d="M 79.54389044137918 95.25157060432595 l -26.565127024283186 -6.166501489466308 a48.27144503754597,48.27144503754597 0 0,0 0.1948492963427029,-0.8077761273969227 l 26.455044927679666 6.622862848522627" fill="#b8ff1f" stroke="none" /><path d="M 79.62865764111835 94.90015583598534 l -9.683553692468799 -2.42421996132859 a30.982387216283993,30.982387216283993 0 0,0 0.13396735269776588,-0.5162308586669979 l 9.640390007900725 2.5905472455444514" fill="#ff6709" stroke="none" /><path d="M 79.71946130924805 94.55025226153421 l -19.249918878934547 -5.17280154515628 a40.93281848287221,40.93281848287221 0 0,0 0.1887065879594198,-0.6788779998470751 l 19.158025520408767 5.503390848422297" fill="#ffec16" stroke="none" /><path d="M 79.91906864156998 93.8553929516997 l -26.10060146646542 -7.986578753399986 a48.295179741037,48.295179741037 0 0,0 0.25008742653651006,-0.792845484672805 l 25.959258556160705 8.434674404499205" fill="#b8ff1f" stroke="none" /><path d="M 80.14247586403 93.16781622104843 l -13.308051306542088 -4.578770829809227 a35.0737120863498,35.0737120863498 0 0,0 0.2013346636463436,-0.5692002061456034 l 13.227263562085936 4.807168662381441" fill="#ff9f0e" stroke="none" /><path d="M 80.2630227832202 92.82701384747504 l -23.565461308423682 -8.564367571923695 a46.07347918789556,46.07347918789556 0 0,0 0.27730839814836933,-0.7430486379762092 l 23.414548321773683 8.968739346929246" fill="#d2ff1c" stroke="none" /><path d="M 80.38941819471856 92.48833698450439 l -25.4339696499377 -9.742261145216096 a48.23597738976039,48.23597738976039 0 0,0 0.3036717780327254,-0.7728115520290638 l 25.262504322023286 10.178621702140923" fill="#b8ff1f" stroke="none" /><path d="M 80.65960295795068 91.81776055985345 l -33.59636957881454 -14.213438308213131 a57.479280111012,57.479280111012 0 0,0 0.39334793064320256,-0.9079012562556739 l 33.346730938328655 14.789638709055405" fill="#52ff2b" stroke="none" /><path d="M 80.95270993114464 91.15688171328213 l -18.193226400054957 -8.446600670810946 a41.05837854204074,41.05837854204074 0 0,0 0.3031316746231938,-0.6384726149716873 l 18.04513653159001 8.758515701423166" fill="#ffee16" stroke="none" /><path d="M 81.26839172434947 90.50648371742162 l -22.65553761000922 -11.48223430824014 a46.3991159119342,46.3991159119342 0 0,0 0.3671950178225675,-0.709303898606447 l 22.45453315902654 11.870510929106922" fill="#ceff1d" stroke="none" /><path d="M 81.43458229118936 90.18545643968196 l -45.08200620696923 -23.832445929554762 a71.99385024324368,71.99385024324368 0 0,0 0.5886076663258664,-1.0906006116899953 l 44.665090441424894 24.604927524577228" fill="#3effb2" stroke="none" /><path d="M 81.6062741919709 89.86733742301443 l -9.198609845016593 -5.067293636409694 a31.501994471453237,31.501994471453237 0 0,0 0.26573036212695406,-0.47270466323324595 l 9.110021841597208 5.224881809577725" fill="#ff6e0a" stroke="none" /><line stroke="#e1ed5e" stroke-width="0.3" x1="26.266209847984243" x2="21.928928074336255" y1="57.711370442889674" y2="55.22380399835377" /><path d="M 25.398753493254645 57.213857153982495 a86.0,86.0 0 0,1 29.58750427330803,-30.492523968695096" fill="none" id="id95" stroke="none" /><text fill="#e1ed5e" style="font-size:6.75px; font-family:Arial;" text-anchor="middle"><textPath startOffset="21.46611528233685" xlink:href="#id95">November</textPath></text><path d="M 82.15384107792192 88.93136811851018 l -17.380026084764136 -10.779524695644941 a41.451490394861224,41.451490394861224 0 0,0 0.3812992399410825,-0.6031238283762594 l 17.19189924857709 11.077096171735416" fill="#fff316" stroke="none" /><path d="M 82.54541684631803 88.32363383020206 l -8.51907099289726 -5.698892460722522 a31.249485151016295,31.249485151016295 0 0,0 0.30293479224737646,-0.444519427433018 l 8.419711734981144 5.844689911425956" fill="#ff6a09" stroke="none" /><path d="M 82.7489923806493 88.02491185347247 l -27.22780226779443 -18.900654349449088 a54.14495363055227,54.14495363055227 0 0,0 0.538065167809545,-0.7610550215477749 l 26.89842448018101 19.36653587132865" fill="#76ff27" stroke="none" /><path d="M 83.6137871275137 86.86637796730984 l -15.829474980440974 -12.6873941518308 a41.2865040980529,41.2865040980529 0 0,0 0.44923944968091845,-0.5507144466383527 l 15.608737038683664 12.957992768077235" fill="#fff116" stroke="none" /><path d="M 84.31358615837235 86.03803664274999 l -31.82426611352961 -28.3257372803298 a63.60435783037945,63.60435783037945 0 0,0 0.7349524720035348,-0.8115528761028553 l 31.331970000910033 28.86934294370221" fill="#33ff51" stroke="none" /><path d="M 84.5562425177563 85.77008943001954 l -7.513982972599499 -6.92339968737406 a31.217309006957088,31.217309006957088 0 0,0 0.3675209003174194,-0.3920456718048995 l 7.393694750311624 7.051714776057009" fill="#ff6a09" stroke="none" /><path d="M 85.31137513191541 84.99185889309783 l -7.3732494367390515 -7.53363701209402 a31.541370588607805,31.541370588607805 0 0,0 0.3912883598934515,-0.3764190922001351 l 7.242477833233173 7.659439191056468" fill="#ff6e0a" stroke="none" /><path d="M 85.57189188830299 84.74124197986013 l -6.157461379104704 -6.511956555547633 a29.962137513813644,29.962137513813644 0 0,0 0.3777970380148687,-0.3511211730262048 l 6.044456457294979 6.616982314648486" fill="#ff5808" stroke="none" /><path d="M 86.10567301691215 84.25364557470407 l -29.912008813668603 -33.8990937039202 a66.20925596839822,66.20925596839822 0 0,0 0.8610551615215561,-0.7466985510930307 l 29.324059853500273 34.40895724843291" fill="#36ff70" stroke="none" /><path d="M 86.65592168130627 83.78471172551755 l -12.997530921328108 -15.794175192346007 a41.45462735073407,41.45462735073407 0 0,0 0.5548930886698311,-0.4486849541433004 l 12.723734434093776 16.01556624375344" fill="#fff316" stroke="none" /><path d="M 86.93701828274178 83.55741782278169 l -13.192437621415928 -16.605530376068415 a42.208112821877414,42.208112821877414 0 0,0 0.5727589553520519,-0.4470474496042839 l 12.90464611090445 16.830156214895922" fill="#fffc17" stroke="none" /><path d="M 87.80319425747018 82.90503203632743 l -9.50955730795086 -13.32853707436431 a37.37319702244817,37.37319702244817 0 0,0 0.5269066596453128,-0.3691317874678685 l 9.278719508721887 13.490253704596121" fill="#ffbe11" stroke="none" /><path d="M 88.39885842347998 82.49532879139004 l -22.703888753773658 -34.25732762334582 a62.097823062018534,62.097823062018534 0 0,0 0.89608038165736,-0.5828356063273662 l 22.11084134633201 34.64306215383272" fill="#31ff3f" stroke="none" /><path d="M 88.70189139769569 82.29822771554957 l -8.593199585635467 -13.463745801551962 a36.97233640164687,36.97233640164687 0 0,0 0.5394102745483415,-0.3377786644365792 l 8.360170158714885 13.609668807311472" fill="#ffb911" stroke="none" /><line stroke="#e1ed5e" stroke-width="0.3" x1="56.762969772571076" x2="54.21961505331055" y1="26.818313649435495" y2="22.513508569990535" /><path d="M 56.25429882871897 25.957352633546506 a86.0,86.0 0 0,1 42.265352541879196,-11.944610805530505" fill="none" id="id96" stroke="none" /><text fill="#e1ed5e" style="font-size:6.75px; font-family:Arial;" text-anchor="middle"><textPath startOffset="22.20632615414155" xlink:href="#id96">December</textPath></text><path d="M 89.3179101791058 81.91981866633112 l -4.700382389638431 -7.95572470997371 a30.24051677503533,30.24051677503533 0 0,0 0.4504444028175405,-0.2609264722863305 l 4.56274125435557 8.035455339650088" fill="#ff5c08" stroke="none" /><path d="M 89.63071344664047 81.73862282372117 l -9.875994949855876 -17.3926400666314 a41.00098009440964,41.00098009440964 0 0,0 0.6167248541076463,-0.34320671359707544 l 9.575146006676185 17.56006217778866" fill="#ffed16" stroke="none" /><path d="M 90.26544431104013 81.39251694778311 l -5.201206790286834 -9.942042584552585 a32.220372668872585,32.220372668872585 0 0,0 0.493646047247209,-0.2528646787165175 l 5.0293002554508615 10.030099788581607" fill="#ff780b" stroke="none" /><path d="M 90.58718382345135 81.22770947309562 l -9.928565847150157 -19.800867147768233 a43.15063790469168,43.15063790469168 0 0,0 0.666839135566737,-0.3272150677720274 l 9.586255444572993 19.96883737567509" fill="#f6ff19" stroke="none" /><path d="M 90.91171255644093 81.06846463323043 l -4.343849123839823 -9.048540093674704 a31.037186011902072,31.037186011902072 0 0,0 0.48362112014482705,-0.22706660055923278 l 4.187449792395388 9.121971676873946" fill="#ff6709" stroke="none" /><path d="M 91.23893434514133 80.91482961587045 l -4.191895053693914 -9.131655267047394 a31.047841164020156,31.047841164020156 0 0,0 0.4876253904236764,-0.21878329874414337 l 4.034087544803463 9.202458896308066" fill="#ff6709" stroke="none" /><path d="M 92.23578459929587 80.48803036053334 l -15.56590695522133 -39.11811924917706 a63.10136236431601,63.10136236431601 0 0,0 1.0126772108681106,-0.3929030249324038 l 14.890246579353542 39.380264978000014" fill="#32ff4b" stroke="none" /><path d="M 92.91201910852362 80.23233633223022 l -4.615094286109997 -12.871032391266219 a34.67342568951575,34.67342568951575 0 0,0 0.5635554366002913,-0.19661342612877708 l 4.3928568454464205 12.948566670567205" fill="#ff9a0e" stroke="none" /><path d="M 94.63758080256005 79.69619591428918 l -0.7565926558222319 -2.864697534992416 a23.96292497607276,23.96292497607276 0 0,0 0.39971426762983386,-0.1018960668282673 l 0.7071694995073987 2.8772965979895466" fill="#ff0000" stroke="none" /><path d="M 94.98787191387505 79.60689891045804 l -10.164085673515814 -41.35513360015235 a63.58586282635376,63.58586282635376 0 0,0 1.0651428755409902,-0.2520849052544658 l 9.45071911101229 41.52396441754769" fill="#33ff51" stroke="none" /><path d="M 95.692805502759 79.44645832069477 l -4.129702424470017 -19.70656559828971 a41.13462613992048,41.13462613992048 0 0,0 0.6942615827618572,-0.13926234222815737 l 3.789874432241024 19.77473189659508" fill="#ffef16" stroke="none" /><path d="M 97.11714578562143 79.19881850522333 l -0.41565518900836057 -2.9991523618104217 a24.0278183772318,24.0278183772318 0 0,0 0.41017233306313455,-0.05325214085637808 l 0.3639681274373682 3.0058628258309366" fill="#ff0100" stroke="none" /><path d="M 99.27714615592234 79.0124445844662 l -0.19834131403107214 -5.758701227809596 a26.762115853402058,26.762115853402058 0 0,0 0.46052932644039873,-0.011894113808097795 l 0.09918535239579437 5.761262133760054" fill="#ff2a04" stroke="none" /></svg>