<?xml version="1.0" encoding="utf-8" ?>
<svg baseProfile="full" height="200mm" version="1.1" viewBox="0,0,200,200" width="200mm" xmlns="http://www.w3.org/2000/svg" xmlns:ev="http://www.w3.org/2001/xml-events" xmlns:xlink="http://www.w3.org/1999/xlink"><defs /><rect fill="#1a1a1a" height="200" width="200" x="0" y="0" /><text alignment-baseline="middle" fill="#e1ed5e" style="dominant-baseline: central; font-size:9.0px; font-family:Arial;" text-anchor="middle" x="100.0" y="100.0">2022</text><line stroke="#e1ed5e" stroke-width="0.3" x1="100.0" x2="100.0" y1="15.0" y2="10.0" /><path d="M 100.0 14.0 a86.0,86.0 0 0,1 42.46469731375804,11.215312516191453" fill="none" id="id97" stroke="none" /><text fill="#e1ed5e" style="font-size:6.75px; font-family:Arial;" text-anchor="middle"><textPath startOffset="22.20632615414155" xlink:href="#id97">January</textPath></text><path d="M 100.0 79.0 l 0.0 -37.49144783907038 a58.49144783907038,58.49144783907038 0 0,0 1.0068341237243454,0.00866613917177261 l -0.6453536444518171 37.48589307650717" fill="#45ff2d" stroke="none" /><path d="M 100.72285384407766 79.0124445844662 l 0.373377653670622 -10.84075883601757 a31.84718687093357,31.84718687093357 0 0,0 0.5477096905260846,0.02358553141199204 l -0.5599281765860381 10.832725578081384" fill="#ff790b" stroke="none" /><path d="M 101.44485096284872 79.0497635885617 l 0.7003322517058018 -10.154767942891079 a31.17888880166925,31.17888880166925 0 0,0 0.5351036861382017,0.04153434473722461 l -0.8750261272063447 10.14120833596539" fill="#ff700a" stroke="none" /><path d="M 102.52436894288641 79.15227682838746 l 0.35451034434565326 -2.92775489146231 a23.949139923558995,23.949139923558995 0 0,0 0.40882923464288706,0.05307776813424546 l -0.4048543074963864 2.9212188001639277" fill="#ff0801" stroke="none" /><path d="M 103.2404852339499 79.25152402106235 l 1.843535677269943 -11.803959269866954 a32.94705311941171,32.94705311941171 0 0,0 0.559583409118344,0.09233605720019408 l -2.0464482925271623 11.770476949727135" fill="#ff880c" stroke="none" /><path d="M 103.59715602781102 79.31037775812273 l 1.656711327271595 -9.528842024110576 a30.67179004850528,30.67179004850528 0 0,0 0.5193827707502843,0.0949138815434916 l -1.8204892191247801 9.498912661216346" fill="#ff6909" stroke="none" /><path d="M 105.36241919743992 79.69619591428918 l 6.030598029901747 -22.833739103659557 a44.61668380726317,44.61668380726317 0 0,0 0.7408538961633785,0.20250335573951164 l -6.422749815288837 22.726549207093754" fill="#e0ff1b" stroke="none" /><path d="M 107.08798089147638 80.2323363322302 l 3.2623246197133122 -9.098294259671064 a30.665491211519,30.665491211519 0 0,0 0.49534650513395106,0.1824402982419549 l -3.4184534506198396 9.040790693622785" fill="#ff6909" stroke="none" /><path d="M 107.76421540070413 80.48803036053334 l 5.902629351896695 -14.833684894521108 a36.964937858188364,36.964937858188364 0 0,0 0.5891790933713585,0.2403409455921952 l -6.157092314856441 14.729883062745332" fill="#ffbe11" stroke="none" /><path d="M 108.09893153111575 80.62456947434976 l 4.016804121484216 -9.60957737350338 a31.415310492141877,31.415310492141877 0 0,0 0.4971341871713843,0.21284691457225888 l -4.181622066445915 9.53901093096833" fill="#ff730a" stroke="none" /><path d="M 108.43124777332544 80.76684994638697 l 17.285176217439005 -39.430508606915744 a64.05278534390052,64.05278534390052 0 0,0 1.0059882842108256,0.4513576192707605 l -17.96134662011661 39.127130657128454" fill="#34ff59" stroke="none" /><path d="M 109.73455568895987 81.39251694778311 l 2.6181376006158024 -5.004537709623575 a26.648012232883588,26.648012232883588 0 0,0 0.40461193812519486,0.2161296847476937 l -2.7038945852693086 4.958729298374127" fill="#ff2f04" stroke="none" /><line stroke="#e1ed5e" stroke-width="0.3" x1="143.23703022742887" x2="145.7803849466894" y1="26.81831364943548" y2="22.513508569990506" /><path d="M 143.74570117128098 25.957352633546492 a86.0,86.0 0 0,1 28.547481713284135,27.462654790039103" fill="none" id="id98" stroke="none" /><text fill="#e1ed5e" style="font-size:6.75px; font-family:Arial;" text-anchor="middle"><textPath startOffset="19.985693538727396" xlink:href="#id98">February</textPath></text><path d="M 111.90073688211348 82.69761687909136 l 5.658781449501828 -8.227255640272864 a30.985466582169693,30.985466582169693 0 0,0 0.4368491324024689,0.30604073443683555 l -5.799561721487948 8.128630063072093" fill="#ff6d0a" stroke="none" /><path d="M 113.34407831869373 83.78471172551755 l 6.175329804757296 -7.504059147634359 a30.718312707909675,30.718312707909675 0 0,0 0.4053975640157206,0.3395088012533603 l -6.303584905732134 7.396649188987179" fill="#ff6909" stroke="none" /><path d="M 114.68862486808459 84.99185889309783 l 2.8650757166009138 -2.9273986518734323 a25.09613497444196,25.09613497444196 0 0,0 0.306130063553374,0.30481544377265923 l -2.915041580321608 2.8776473574506545" fill="#ff1902" stroke="none" /><path d="M 115.19652480421416 85.50635884689758 l 7.011295932102281 -6.687003019921836 a30.688874033444637,30.688874033444637 0 0,0 0.36129964347617327,0.38540926877125126 l -7.125362897548918 6.56532433427253" fill="#ff6909" stroke="none" /><path d="M 115.9244219780498 86.31012108654704 l 20.121159635576863 -17.297722918231692 a47.534360426365765,47.534360426365765 0 0,0 0.5280600848642439,0.6250565817545367 l -20.415930333928227 16.948807386848046" fill="#bdff1f" stroke="none" /><path d="M 116.82858285166822 87.43820079747576 l 7.763447242605837 -5.795072956564352 a30.687826570527967,30.687826570527967 0 0,0 0.3123398037533128,0.42603114130498715 l -7.862049658872776 5.660579371587872" fill="#ff6909" stroke="none" /><path d="M 117.04232023915458 87.72973835380427 l 7.9895353034422225 -5.7523674728 a30.844917770457865,30.844917770457865 0 0,0 0.30652119437530995,0.4335524916801958 l -8.087369117621416 5.613988480788011" fill="#ff6b09" stroke="none" /><path d="M 117.2510076193507 88.02491185347247 l 15.965291975964877 -11.082586183706296 a40.43487237923332,40.43487237923332 0 0,0 0.3919786071532856,0.575180238377782 l -16.153695048786897 10.806127922058108" fill="#ffeb16" stroke="none" /><path d="M 117.65298651832404 88.62581576622439 l 6.620197227074653 -4.265529962678881 a28.87538933563784,28.87538933563784 0 0,0 0.2656156365380504,0.42014014927010795 l -6.6926404598586595 4.150942165694568" fill="#ff4f07" stroke="none" /><line stroke="#e1ed5e" stroke-width="0.3" x1="172.23445277983987" x2="176.4835382374775" y1="55.19839476539836" y2="52.563006222186495" /><path d="M 173.08426987136738 54.67131705675599 a86.0,86.0 0 0,1 12.851231095245387,41.99856678651699" fill="none" id="id99" stroke="none" /><text fill="#e1ed5e" style="font-size:6.75px; font-family:Arial;" text-anchor="middle"><textPath startOffset="22.20632615414155" xlink:href="#id99">March</textPath></text><path d="M 118.56541770881063 90.18545643968196 l 30.3373681129219 -16.03774423606817 a55.31566907697515,55.31566907697515 0 0,0 0.4377591618585678,0.8456113647680455 l -30.608936707940586 15.513160149039779" fill="#66ff29" stroke="none" /><path d="M 119.04729006885535 91.15688171328212 l 10.759379458482053 -4.9952757005898425 a32.862420733413096,32.862420733413096 0 0,0 0.233789024597504,0.5151231257910414 l -10.843770800042904 4.8093305659567385" fill="#ff870c" stroke="none" /><path d="M 119.196687751892 91.48605970444005 l 21.748082227586806 -9.645511560209286 a44.79106920329576,44.79106920329576 0 0,0 0.30651870288538086,0.7074874271244703 l -21.910891640314865 9.269724988498213" fill="#deff1b" stroke="none" /><path d="M 119.34039704204932 91.81776055985345 l 8.833369500267677 -3.737086894200558 a30.591362530061346,30.591362530061346 0 0,0 0.20099736179765013,0.4867310545607369 l -8.896388548951524 3.5844812691865178" fill="#ff6709" stroke="none" /><path d="M 119.61058180528143 92.48833698450437 l 9.346149268140088 -3.579961292932277 a31.008327982297985,31.008327982297985 0 0,0 0.18663382739043438,0.5000858689052489 l -9.406387684032149 3.418552286997695" fill="#ff6d0a" stroke="none" /><path d="M 119.7369772167798 92.82701384747503 l 17.9588556998036 -6.526765564707015 a40.10809165728,40.10809165728 0 0,0 0.2302336611372802,0.6509015636333296 l -18.06854244175069 6.21666637464707" fill="#ffe615" stroke="none" /><path d="M 119.85752413597 93.16781622104841 l 11.157628703089367 -3.838895993016908 a32.79956781925529,32.79956781925529 0 0,0 0.17908986710819874,0.5354559076649721 l -11.222055863969336 3.646266982429622" fill="#ff860c" stroke="none" /><path d="M 119.97218684219823 93.5106431181261 l 9.234881802432032 -3.0005949899930107 a30.710129360562682,30.710129360562682 0 0,0 0.15902657908239032,0.5041577136227202 l -9.285163865282628 2.841187109943871" fill="#ff6909" stroke="none" /><path d="M 120.18372546131832 94.20196356495316 l 10.070285069876016 -2.8928197551214496 a31.477549690847987,31.477549690847987 0 0,0 0.1451163447727987,0.5220607025424104 l -10.118588185215179 2.719047749160087" fill="#ff740a" stroke="none" /><path d="M 120.37134235888165 94.90015583598534 l 37.33302259052642 -9.34609973310445 a59.48511603160228,59.48511603160228 0 0,0 0.24011365295996012,0.9954261080932791 l -37.4883690437472 8.702088393351765" fill="#3bff2e" stroke="none" /><path d="M 120.45610955862082 95.25157060432595 l 9.341755361194542 -2.1684800639717805 a30.59013550562504,30.59013550562504 0 0,0 0.11464835079337875,0.5139460763242508 l -9.377698098989958 2.0073558180975657" fill="#ff6709" stroke="none" /><path d="M 120.53481517161879 95.60439243477599 l 10.458287849198753 -2.2386629149097197 a31.695204363792698,31.695204363792698 0 0,0 0.10960609795317564,0.5344782594330788 l -10.495273243066926 2.058308999313229" fill="#ff770a" stroke="none" /><path d="M 120.67395015179393 96.31383870115 l 10.527232214342977 -1.8770034602773173 a31.693257692798465,31.693257692798465 0 0,0 0.09113794449657003,0.53790130744199 l -10.55798202035977 1.69551636451949" fill="#ff770a" stroke="none" /><path d="M 120.96714384426684 98.82574320788733 l 9.770083346183029 -0.5471697439562946 a30.78539336562737,30.78539336562737 0 0,0 0.02507747617134954,0.5293458867890491 l -9.778054430587876 0.3789127505442456" fill="#ff6a09" stroke="none" /><path d="M 120.98425023603335 99.18683210126433 l 11.739539598176382 -0.4549229369549197 a32.74835072917552,32.74835072917552 0 0,0 0.01697971661014104,0.5634741305260673 l -11.74563100924217 0.25277865900385327" fill="#ff850c" stroke="none" /><line stroke="#e1ed5e" stroke-width="0.3" x1="184.98032266829074" x2="189.97916517819016" y1="98.17113171792111" y2="98.06355123074" /><path d="M 185.9800911702706 98.14961562048488 a86.0,86.0 0 0,1 -9.607161424134198,41.387399972396054" fill="none" id="id100" stroke="none" /><text fill="#e1ed5e" style="font-size:6.75px; font-family:Arial;" text-anchor="middle"><textPath startOffset="21.466115282336823" xlink:href="#id100">April</textPath></text><path d="M 120.99513854157772 99.54816195383933 l 10.157993609522983 -0.2186109882699781 a31.160345709438342,31.160345709438342 0 0,0 0.006925005315974834,0.5363492933458661 l -10.160251621956673 0.04372543686364925" fill="#ff6f0a" stroke="none" /><path d="M 120.9904718944345 100.63252640178507 l 3.5733076194030478 0.1076779703829082 a24.57492963401934,24.57492963401934 0 0,0 -0.016380790486096784,0.4227154160398832 l -3.570924696065748 -0.1691706334367976" fill="#ff1101" stroke="none" /><path d="M 120.9764740272857 100.99374915477107 l 8.681621217603393 0.4112871274654477 a29.69135801052748,29.69135801052748 0 0,0 -0.02857955678559755,0.5103071850671507 l -8.673255309930266 -0.5606660288680216" fill="#ff5b08" stroke="none" /><path d="M 120.8583938346157 102.4346265915055 l 9.682662080614238 1.130176501840886 a30.74839699092513,30.74839699092513 0 0,0 -0.06588721227001845,0.5251859087984635 l -9.66177335909737 -1.2966801649267445" fill="#ff6a09" stroke="none" /><path d="M 120.76222939487914 103.15116336523771 l 9.71927376664774 1.4751315404370862 a30.830579617328738,30.830579617328738 0 0,0 -0.084150225509043,0.5240035345724737 l -9.692441786777408 -1.6422143047027649" fill="#ff6b09" stroke="none" /><path d="M 120.64145759157962 103.86396538481128 l 19.19636063554059 3.593451319074527 a40.529801689528,40.529801689528 0 0,0 -0.13426957238207166,0.6846376568580225 l -19.131661130182852 -3.923352703000494" fill="#ffec16" stroke="none" /><path d="M 120.5718875245553 104.21870165774334 l 10.685314721696585 2.191250310703083 a31.907682092262412,31.907682092262412 0 0,0 -0.11496787798028135,0.537091651146521 l -10.64601280499186 -2.3748557812657727" fill="#ff7a0b" stroke="none" /><path d="M 120.41448212921028 104.9243191809786 l 28.675946587831678 6.917124466906081 a50.4984156116705,50.4984156116705 0 0,0 -0.21110426365382542,0.8432565956929888 l -28.55263100988279 -7.409708901996466" fill="#9bff22" stroke="none" /><path d="M 120.32669344350535 105.2749913415812 l 8.527079796468271 2.2128671453799074 a29.809532953479383,29.809532953479383 0 0,0 -0.1331661728437659,0.49556086818390144 l -8.487725547282727 -2.359318946739357" fill="#ff5c08" stroke="none" /><path d="M 120.02730092923936 106.31721596034902 l 21.05060365753113 6.6399965661966895 a43.073003165531574,43.073003165531574 0 0,0 -0.22912324883769525,0.7051688509318887 l -20.93318815767719 -7.001364317106374" fill="#f3ff19" stroke="none" /><path d="M 119.9155931802556 106.66101706037122 l 9.171166078686062 3.06741020268429 a30.670537347757545,30.670537347757545 0 0,0 -0.17176840057116052,0.49923937506583904 l -9.11700684717167 -3.2248222808394296" fill="#ff6909" stroke="none" /><path d="M 119.67450827220406 107.3425965602758 l 3.60511108610681 1.3454402973647765 a24.847991104062384,24.847991104062384 0 0,0 -0.15299939954118677,0.3994331527748167 l -3.5814174069721165 -1.4072970169727372" fill="#ff1502" stroke="none" /><path d="M 119.54520255179757 107.68017299344265 l 22.133377122223184 8.697181048765652 a44.78081876280884,44.78081876280884 0 0,0 -0.28808435934614707,0.7150017542707715 l -21.980390148619648 -9.076882170879237" fill="#deff1b" stroke="none" /><path d="M 119.41010516605496 108.01547362559984 l 8.614134614574015 3.557238264284895 a30.319724203370765,30.319724203370765 0 0,0 -0.2033573049792621,0.4806765981942055 l -8.551626328402442 -3.704989388145264" fill="#ff6409" stroke="none" /><path d="M 119.26925614724726 108.34839909993367 l 9.186737691550904 3.9801511843220054 a31.0118805857552,31.0118805857552 0 0,0 -0.21643178948055142,0.48799654895490135 l -9.11686481733908 -4.137696069769595" fill="#ff6d0a" stroke="none" /><path d="M 118.81262510543309 109.33194174019688 l 13.790074678055676 6.84052187120949 a36.393469365183655,36.393469365183655 0 0,0 -0.28321281784528474,0.5588057580157376 l -13.670283190424122 -7.076881840927921" fill="#ffb610" stroke="none" /><path d="M 118.64920377521936 109.65438752849418 l 21.362131715500126 11.058825915679 a45.054901830264654,45.054901830264654 0 0,0 -0.3624720312569947,0.6856604819867061 l -21.168607176018238 -11.42490141275184" fill="#daff1b" stroke="none" /><line stroke="#e1ed5e" stroke-width="0.3" x1="174.80103733775053" x2="179.2010983576182" y1="140.37084112569926" y2="142.7455964860345" /><path d="M 175.68104954172406 140.8457921977663 a86.0,86.0 0 0,1 -30.038265399797805,32.042727171017184" fill="none" id="id101" stroke="none" /><text fill="#e1ed5e" style="font-size:6.75px; font-family:Arial;" text-anchor="middle"><textPath startOffset="22.206326154141568" xlink:href="#id101">May</textPath></text><path d="M 118.30583269289576 110.29060199501023 l 8.402172157245058 4.723271047774887 a30.638764773078165,30.638764773078165 0 0,0 -0.262396223085468,0.45750993239298626 l -8.31962393800721 -4.8672008260261865" fill="#ff6809" stroke="none" /><path d="M 118.12598468904814 110.60418214915192 l 26.108739653704 15.274305684476559 a51.248482613971376,51.248482613971376 0 0,0 -0.45200947959782883,0.757593887342651 l -25.841949298407943 -15.721461665705315" fill="#93ff23" stroke="none" /><path d="M 117.55443506779139 111.5257021239791 l 10.21555347815026 6.70721820246832 a33.22065091885331,33.22065091885331 0 0,0 -0.31796417480590433,0.47531329938906486 l -10.098586197933635 -6.882068416063191" fill="#ff8c0c" stroke="none" /><path d="M 117.14729908036423 112.12312394758627 l 26.14047558475946 18.48129108133338 a53.013787402155,53.013787402155 0 0,0 -0.533218246763754,0.7405935081690693 l -25.818477545620105 -18.928518194953583" fill="#7fff26" stroke="none" /><path d="M 116.498646956653 112.99209946851258 l 8.13006573732625 6.402138491865554 a31.34820497295414,31.34820497295414 0 0,0 -0.3374889349341849,0.4210693376263925 l -8.018658890337212 -6.541135663070197" fill="#ff720a" stroke="none" /><path d="M 115.32070863581623 114.36230785411682 l 12.1052539966684 11.347998887335212 a37.5925963330281,37.5925963330281 0 0,0 -0.44662411913074634,0.46828360332888996 l -11.90812332615869 -11.554689607246608" fill="#ffc612" stroke="none" /><path d="M 115.07121518719521 114.62390073753431 l 7.09307558335522 6.882552731576997 a30.88338268681973,30.88338268681973 0 0,0 -0.37348212206263964,0.3783354178198732 l -6.973552836237045 -7.003628643377534" fill="#ff6c09" stroke="none" /><path d="M 114.55890576462653 115.13401014063108 l 6.88789655214821 7.15998152286295 a30.93521284728385,30.93521284728385 0 0,0 -0.3869319938321229,0.36586835124561384 l -6.76362872392528 -7.277484510854486" fill="#ff6c0a" stroke="none" /><path d="M 114.29624159901734 115.38237550388516 l 42.88872479705202 46.14712651165547 a84.0,84.0 0 0,0 -1.0676018021325442,0.9752289336536681 l -42.088023445452606 -46.878548211895726" fill="#4dd2ff" stroke="none" /><path d="M 112.92097659922987 116.55440617244103 l 7.068631320059025 9.056358322208371 a32.48839304686048,32.48839304686048 0 0,0 -0.4438088867883811,0.3402937294075467 l -6.91169370477715 -9.17669139344329" fill="#ff820b" stroke="none" /><path d="M 112.63410532772338 116.77436683061366 l 6.122486545604643 8.128856976212601 a31.17659851034864,31.17659851034864 0 0,0 -0.4314470523015959,0.3191742148504521 l -5.981654522884483 -8.233041139802824" fill="#ff700a" stroke="none" /><path d="M 112.04921762599082 117.19931262002967 l 14.171156528486348 20.22821388793437 a45.69822492510104,45.69822492510104 0 0,0 -0.6481381751855381,0.44579534693202755 l -13.820861468677926 -20.46915002423149" fill="#d3ff1c" stroke="none" /><path d="M 111.7513745106137 117.40417183066458 l 1.368906220931295 2.02739509898487 a23.446269635402498,23.446269635402498 0 0,0 -0.3364263933957947,0.22296506877221003 l -1.3338051287955361 -2.050658188848398" fill="#ff0000" stroke="none" /><path d="M 111.45004920935366 117.60387380957326 l 4.483330355356996 6.892894552615542 a29.22266662274122,29.22266662274122 0 0,0 -0.42403230060309605,0.2706374766388211 l -4.3640162527069695 -6.9690464580781715" fill="#ff5407" stroke="none" /><line stroke="#e1ed5e" stroke-width="0.3" x1="143.8653032363475" x2="146.44561519142675" y1="172.8068346515853" y2="177.08958963109032" /><path d="M 144.38136562736335 173.6633856474863 a86.0,86.0 0 0,1 -40.68145358897372,12.25698825130547" fill="none" id="id102" stroke="none" /><text fill="#e1ed5e" style="font-size:6.75px; font-family:Arial;" text-anchor="middle"><textPath startOffset="21.466115282336833" xlink:href="#id102">June</textPath></text><path d="M 110.8373102113329 117.98757091392108 l 4.78264301915016 7.938144132200887 a30.267567453880286,30.267567453880286 0 0,0 -0.44858283130777205,0.26503064364832135 l -4.645292316814006 -8.019293348142957" fill="#ff6309" stroke="none" /><path d="M 110.21172684928248 118.3499491758327 l 9.344240561406224 16.791120827973028 a40.216049810744636,40.216049810744636 0 0,0 -0.607793181270688,0.33141730328781294 l -9.053824568266887 -16.949478783020613" fill="#ffe815" stroke="none" /><path d="M 109.89434966115114 118.52300852407294 l 4.567527773808621 8.550774814476668 a30.69422817414577,30.69422817414577 0 0,0 -0.468173358290783,0.24492617381833579 l -4.419663512991342 -8.628130407239722" fill="#ff6909" stroke="none" /><path d="M 109.2508944713604 118.85261126421891 l 4.263473143686172 8.688630279179128 a30.678300438362182,30.678300438362182 0 0,0 -0.47607949905453056,0.2285470908496874 l -4.113280976631408 -8.760731646528376" fill="#ff6909" stroke="none" /><path d="M 107.59598834532513 119.57807347666477 l 3.272840351644527 8.435493311587923 a30.04815071587544,30.04815071587544 0 0,0 -0.48381783657718824,0.18293850714687462 l -3.1271522943070638 -8.490580068841428" fill="#ff6008" stroke="none" /><path d="M 107.2578585660854 119.70592522655815 l 10.432805057784302 28.326272067718318 a51.18643918431137,51.18643918431137 0 0,0 -0.8294163816874681,0.2973992052517318 l -9.943669115467099 -28.50165881401001" fill="#93ff23" stroke="none" /><path d="M 104.83641907484287 120.43548508189849 l 2.232084799977068 9.431303393191945 a30.691836061795648,30.691836061795648 0 0,0 -0.5151549423771666,0.11724758768454598 l -2.0694097082070395 -9.468327714454176" fill="#ff6909" stroke="none" /><path d="M 104.13013068566511 120.58985236759428 l 1.9376746665581024 9.659848163965293 a30.85227129469569,30.85227129469569 0 0,0 -0.5215978796969877,0.09996547505734425 l -1.7711091722894103 -9.691770837371104" fill="#ff6b09" stroke="none" /><path d="M 102.34483914955558 120.86867818915974 l 2.1543912323329706 19.173723421337904 a40.29437927013758,40.29437927013758 0 0,0 -0.6899307297882096,0.07151414109910592 l -1.8240279059391582 -19.207966930892766" fill="#ffe915" stroke="none" /><path d="M 101.62511606390274 120.93702456842531 l 1.5049459945873274 19.38882518160503 a40.44714386148942,40.44714386148942 0 0,0 -0.6946069665040466,0.047904163210629354 l -1.1709762673043504 -19.411857689331946" fill="#ffeb16" stroke="none" /><path d="M 100.90346689309514 120.98055641714683 l 0.9467391897473619 21.98543757898017 a43.00581242837076,43.00581242837076 0 0,0 -0.7398630852413169,0.025482380614086596 l -0.5681557528313927 -21.998476758020352" fill="#f3ff19" stroke="none" /><line stroke="#e1ed5e" stroke-width="0.3" x1="102.19456741930631" x2="102.32365962044197" y1="184.97166512339345" y2="189.96999836594603" /><path d="M 102.22038585953345 185.97133177190398 a86.0,86.0 0 0,1 -42.740103519485714,-10.115201625700543" fill="none" id="id103" stroke="none" /><text fill="#e1ed5e" style="font-size:6.75px; font-family:Arial;" text-anchor="middle"><textPath startOffset="22.20632615414155" xlink:href="#id103">July</textPath></text><path d="M 100.18074693466247 120.99922214144158 l 0.08487506444561552 9.86080530710543 a30.861170573578132,30.861170573578132 0 0,0 -0.5312439982161351,0.0 l 0.08487506444560873 -9.86080530710543" fill="#ff6b09" stroke="none" /><path d="M 99.09653310690486 120.98055641714683 l -0.49525059761549656 11.500845446921597 a32.51150377441695,32.51150377441695 0 0,0 -0.5589067036373528,-0.02888909251819156 l 0.6931453696663383 -11.490616547641203" fill="#ff820c" stroke="none" /><path d="M 98.73552117531835 120.96189622390904 l -1.3586376721444764 22.522814406604265 a43.56375556325921,43.56375556325921 0 0,0 -0.7481291684016822,-0.05159536761648327 l 1.7461296013250887 -22.496090694471498" fill="#ecff1a" stroke="none" /><path d="M 98.37488393609728 120.93702456842531 l -1.1929917737742224 15.36979335337823 a36.41602338795069,36.41602338795069 0 0,0 -0.6245446546870169,-0.05388834075324993 l 1.4573807462027808 -15.346980760346318" fill="#ffb710" stroke="none" /><path d="M 97.65516085044442 120.86867818915974 l -1.1686149134182786 10.400478241674266 a31.465926068504565,31.465926068504565 0 0,0 -0.5377265702037476,-0.06511119907019698 l 1.3474689066734156 -10.37882151387872" fill="#ff740a" stroke="none" /><path d="M 97.2962882734958 120.8252237178851 l -2.582628286257552 19.8925837078764 a41.05953278219229,41.05953278219229 0 0,0 -0.7001068927871471,-0.09702843595175836 l 2.9246637702315303 -19.845180706432036" fill="#fff216" stroke="none" /><path d="M 96.58105272829116 120.7198165907248 l -1.5732576457561318 9.534399708284978 a30.663328485427513,30.663328485427513 0 0,0 -0.5200369513416856,-0.0904150898616664 l 1.7371435685698673 -9.505906039902305" fill="#ff6809" stroke="none" /><path d="M 95.86986931433489 120.58985236759428 l -1.933007678150074 9.636581926251303 a30.82854159604264,30.82854159604264 0 0,0 -0.5194000594456765,-0.10884533248902915 l 2.0985991990251374 -9.601880613035734" fill="#ff6b09" stroke="none" /><path d="M 95.16358092515715 120.4354850818985 l -8.139140277349842 34.390584675019376 a56.34059873211058,56.34059873211058 0 0,0 -0.9418181962146789,-0.2314759983066981 l 8.72991175830773 -34.24538741839864" fill="#5bff2a" stroke="none" /><path d="M 94.46302465271185 120.25689768951611 l -2.3675037220465445 8.661458227466014 a29.97919442378006,29.97919442378006 0 0,0 -0.4966108259697639,-0.14034717993051854 l 2.5162457161209226 -8.619422254196975" fill="#ff5f08" stroke="none" /><path d="M 93.76903079525671 120.05430185196036 l -3.5057164274881565 11.283107512504559 a32.81518357067283,32.81518357067283 0 0,0 -0.5379793933478626,-0.17224401292068722 l 3.6994171659269592 -11.221090652924167" fill="#ff860c" stroke="none" /><path d="M 93.42475214034765 119.94407469862007 l -3.1147266605840724 9.447604487377701 a30.947801401318408,30.947801401318408 0 0,0 -0.504493767558049,-0.17115167699139058 l 3.2768901610793475 -9.392589823488187" fill="#ff6c0a" stroke="none" /><path d="M 92.40401165467489 119.57807347666478 l -7.102393037378819 18.30586968074177 a40.63539792379334,40.63539792379334 0 0,0 -0.6499320823454582,-0.2586213886347691 l 7.416446195766135 -18.180901447700933" fill="#ffed16" stroke="none" /><path d="M 92.06813273071674 119.44442032107085 l -3.734669510913686 9.15528226395243 a30.887717112073453,30.887717112073453 0 0,0 -0.4905683432307199,-0.20505760725671232 l 3.891709313641868 -9.089639613675743" fill="#ff6c09" stroke="none" /><path d="M 91.7346041902142 119.30500536409082 l -3.3483908520216055 7.820642210844703 a29.507300740419836,29.507300740419836 0 0,0 -0.4652027248480605,-0.20393120352551306 l 3.4825142515274092 -7.761846454024737" fill="#ff5808" stroke="none" /><path d="M 91.40352486487194 119.15986991738527 l -3.3179752321106326 7.3951210044881925 a29.10535466910129,29.10535466910129 0 0,0 -0.4553352620638068,-0.20902208602919015 l 3.444778489941859 -7.336911848124928" fill="#ff5307" stroke="none" /><path d="M 91.07499286063937 119.00905698771935 l -4.90523656874671 10.44748984707601 a32.54172387038116,32.54172387038116 0 0,0 -0.5049969319424454,-0.24242921594539246 l 5.084346168689398 -10.361506354631056" fill="#ff830c" stroke="none" /><path d="M 90.10565033884886 118.52300852407294 l -14.68747686940927 27.496123400346875 a52.17304570998053,52.17304570998053 0 0,0 -0.7885016449372622,-0.42995396601319885 l 15.158601326215173 -27.23922878257391" fill="#88ff25" stroke="none" /><line stroke="#e1ed5e" stroke-width="0.3" x1="58.666819895761336" x2="56.23545636021788" y1="174.27360380694188" y2="178.64263932499728" /><path d="M 58.180547188652646 175.14741091055294 a86.0,86.0 0 0,1 -31.652253787137756,-30.449443065178592" fill="none" id="id104" stroke="none" /><text fill="#e1ed5e" style="font-size:6.75px; font-family:Arial;" text-anchor="middle"><textPath startOffset="22.20632615414155" xlink:href="#id104">August</textPath></text><path d="M 89.1626897886671 117.98757091392108 l -6.491995311364511 10.775296061369257 a33.579865195340474,33.579865195340474 0 0,0 -0.4925379496968568,-0.3025570370146074 l 6.676512460993677 -10.661950557526271" fill="#ff910d" stroke="none" /><path d="M 88.54995079064634 117.60387380957326 l -8.014747537546748 12.3222705585669 a35.69947379361371,35.69947379361371 0 0,0 -0.5122454616993091,-0.33948836012301314 l 8.225667697986019 -12.18248417735257" fill="#ffad10" stroke="none" /><path d="M 88.24862548938628 117.40417183066458 l -5.581875453268101 8.266940981100028 a30.974950965332514,30.974950965332514 0 0,0 -0.43931789972227503,-0.30216685734346616 l 5.723350237613269 -8.169633334391463" fill="#ff6d0a" stroke="none" /><path d="M 87.95078237400918 117.19931262002967 l -13.411150280197344 19.14336460864986 a44.37364670687365,44.37364670687365 0 0,0 -0.6218072185486311,-0.4436429404288327 l 13.73868482659486 -18.909677406376808" fill="#e3ff1b" stroke="none" /><path d="M 87.65650970185807 116.9893568818739 l -5.908064230650102 8.131752792049236 a31.051399227196566,31.051399227196566 0 0,0 -0.4297144430931762,-0.3178924719788993 l 6.047163644161842 -8.028850371330567" fill="#ff6e0a" stroke="none" /><path d="M 87.36589467227662 116.77436683061367 l -11.231799662375405 14.912518363387592 a39.66913301666975,39.66913301666975 0 0,0 -0.5419016489549074,-0.4155070765468768 l 11.486830039823799 -14.716971945013348" fill="#ffe115" stroke="none" /><path d="M 87.07902340077011 116.55440617244103 l -6.092849042425822 7.806182220134749 a30.902489096572495,30.902489096572495 0 0,0 -0.41651038072230395,-0.3309010366973992 l 6.2263169158654845 -7.700147269432219" fill="#ff6c09" stroke="none" /><path d="M 86.24171649860922 115.8653595955263 l -9.64316406938521 11.120011125224273 a35.71887430118871,35.71887430118871 0 0,0 -0.4610416202335983,-0.40681562546613564 l 9.833148042525396 -10.95237235798585" fill="#ffad10" stroke="none" /><path d="M 85.97065885151581 115.62618273729859 l -12.235914240712543 13.628625169183133 a39.31548583325498,39.31548583325498 0 0,0 -0.4996819467535789,-0.45644761101478437 l 12.468695736932979 -13.415984791581769" fill="#ffdc14" stroke="none" /><path d="M 85.44109423537348 115.13401014063109 l -18.572057056241785 19.30568851571605 a47.78863401456205,47.78863401456205 0 0,0 -0.5879140892170402,-0.5753976758120476 l 18.90162109783462 -18.983140736981433" fill="#baff1f" stroke="none" /><path d="M 85.18274418774928 114.88116024355367 l -6.9671169409314855 6.997164991094942 a30.87426130812929,30.87426130812929 0 0,0 -0.3733718144611738,-0.37822367680196284 l 7.086529380448193 -6.876200820312314" fill="#ff6b09" stroke="none" /><path d="M 84.9287848128048 114.62390073753433 l -7.010955072712101 6.802869561955691 a30.7689572272874,30.7689572272874 0 0,0 -0.3655549166242516,-0.3832828686112302 l 7.12701654071531 -6.68117957676196" fill="#ff6a09" stroke="none" /><path d="M 83.95833913139862 113.55231037782056 l -13.743184536439985 11.61051239912774 a38.991084441270964,38.991084441270964 0 0,0 -0.42872368409420775,-0.5164252957269663 l 13.941004220427729 -11.372225846287014" fill="#ffd814" stroke="none" /><path d="M 83.72743513129214 113.27417163493432 l -7.699269572080877 6.280597225331226 a30.93602805201398,30.93602805201398 0 0,0 -0.33305151498708163,-0.4155329739578722 l 7.80623899912282 -6.147136417795094" fill="#ff6c0a" stroke="none" /><path d="M 83.50135304334701 112.99209946851258 l -11.683349163187929 9.200223197229628 a35.870936572650905,35.870936572650905 0 0,0 -0.3778288871368307,-0.48839476847088725 l 11.839984867542828 -8.997750434645488" fill="#ffaf10" stroke="none" /><path d="M 82.6465618267979 111.8261652097733 l -8.127528960632498 5.5388159554505805 a30.835405898806307,30.835405898806307 0 0,0 -0.2951343251933197,-0.4411857718129193 l 8.221666391236548 -5.398093269431838" fill="#ff6b09" stroke="none" /><path d="M 82.24976979558568 111.22182372390057 l -19.910453153580498 12.587532273068495 a44.555723582740235,44.555723582740235 0 0,0 -0.40425908798535076,-0.6517943687282388 l 20.124176881233804 -12.242941572974992" fill="#e0ff1b" stroke="none" /><path d="M 82.05923443525364 110.91462005526583 l -8.424199496507605 5.125028608300757 a30.860682298546088,30.860682298546088 0 0,0 -0.272189930985323,-0.4562059806669811 l 8.51117030319116 -4.979260533747665" fill="#ff6b09" stroke="none" /><line stroke="#e1ed5e" stroke-width="0.3" x1="26.63291911575756" x2="22.317208475507996" y1="142.92168965132927" y2="145.44649492493687" /><path d="M 25.769776987707644 143.4266507060508 a86.0,86.0 0 0,1 -11.730757126820373,-40.83630448921669" fill="none" id="id105" stroke="none" /><text fill="#e1ed5e" style="font-size:6.75px; font-family:Arial;" text-anchor="middle"><textPath startOffset="21.46611528233685" xlink:href="#id105">September</textPath></text><path d="M 81.69416730710424 110.29060199501025 l -17.29848022830548 9.72432000960708 a40.84439008531933,40.84439008531933 0 0,0 -0.3392488177354417,-0.6158351456700847 l 17.463305455492435 -9.425114345539173" fill="#fff016" stroke="none" /><path d="M 81.51974371655577 109.97397251340807 l -16.714300160919585 9.020868965719451 a39.9932595087309,39.9932595087309 0 0,0 -0.3217505181862529,-0.6086307255597336 l 16.867103187330724 -8.73182322507359" fill="#ffe515" stroke="none" /><path d="M 81.02952815118164 109.00673069616217 l -25.739006870278093 12.22027080373873 a49.49265682917148,49.49265682917148 0 0,0 -0.3587637452112189,-0.7727451900638497 l 25.94554523232914 -11.775405546396053" fill="#a6ff21" stroke="none" /><path d="M 80.73074385275274 108.34839909993369 l -19.079866291853726 8.266346005293094 a41.79359935158512,41.79359935158512 0 0,0 -0.28031368862441025,-0.662578756583095 l 19.219330961670444 -7.93669272304384" fill="#fffc17" stroke="none" /><path d="M 80.58989483394504 108.01547362559985 l -9.19037130899259 3.795197306067553 a30.943160834922494,30.943160834922494 0 0,0 -0.1990638159719626,-0.494060066137679 l 9.25433773922194 -3.6364378720870687" fill="#ff6c0a" stroke="none" /><path d="M 80.45479744820244 107.68017299344265 l -14.798579527926465 5.815015246349611 a36.90007416207996,36.90007416207996 0 0,0 -0.22720907964669956,-0.5931712104393764 l 14.896482887166675 -5.559420469077077" fill="#ffbd11" stroke="none" /><path d="M 80.20201598880116 107.00284435728193 l -25.88730712023823 9.156729416976995 a48.45903063753833,48.45903063753833 0 0,0 -0.27139172983702464,-0.788791402559175 l 26.041089681018484 -8.709765311328523" fill="#b2ff20" stroke="none" /><path d="M 80.0844068197444 106.66101706037122 l -9.390003793046981 3.140603189487008 a30.90129080611476,30.90129080611476 0 0,0 -0.16437683984015955,-0.5058998938689545 l 9.44267288390339 -2.97850439564025" fill="#ff6c09" stroke="none" /><path d="M 79.86692584326677 105.97154293290107 l -19.40169385473425 5.754612878421324 a41.23712661949135,41.23712661949135 0 0,0 -0.19598899382310841,-0.6822633988387 l 19.497875485443465 -5.419792004078028" fill="#fff517" stroke="none" /><path d="M 79.67330655649465 105.27499134158121 l -28.481246931729505 7.39118398080199 a50.42466698918129,50.42466698918129 0 0,0 -0.21079596390902172,-0.842025091464915 l 28.604254209933586 -6.899831049939683" fill="#9cff22" stroke="none" /><path d="M 79.50377843672027 104.57218783832718 l -19.45676168946395 4.340310671171441 a40.93499115030846,40.93499115030846 0 0,0 -0.14749454548545718,-0.6890454130455083 l 19.52859027367385 -4.004751438709769" fill="#fff116" stroke="none" /><path d="M 79.35854240842038 103.8639653848113 l -9.6908954332287 1.814081410466711 a30.859226423080756,30.859226423080756 0 0,0 -0.09324417634309458,-0.5229628595644096 l 9.720686051910983 -1.6469998001690875" fill="#ff6b09" stroke="none" /><path d="M 79.29508885075956 103.50808413554451 l -9.804148520176604 1.6611410519100664 a30.943878408348624,30.943878408348624 0 0,0 -0.08445946779162274,-0.5259291865613012 l 9.831289742329517 -1.4921326356555515" fill="#ff6c0a" stroke="none" /><path d="M 79.18660465613746 102.79330883721812 l -14.019517161466856 1.8815210365090318 a35.14521059763656,35.14521059763656 0 0,0 -0.07530863971882497,-0.6002839553905832 l 14.04982731043253 -1.63991932683104" fill="#ffa60f" stroke="none" /><path d="M 79.1416061653843 102.43462659150553 l -36.942882784864416 4.31203502570935 a58.193685411897214,58.193685411897214 0 0,0 -0.10756880642198388,-0.9959535514340837 l 37.01163389278745 -3.6754851523904843" fill="#48ff2c" stroke="none" /><path d="M 79.04373962182676 101.35467743843564 l -24.289478899905685 1.5701469853529793 a45.34017557012637,45.34017557012637 0 0,0 -0.043642399984392614,-0.779264369027411 l 24.31290765077761 -1.1518108999901304" fill="#d7ff1c" stroke="none" /><path d="M 79.0235259727143 100.99374915477108 l -20.751659517197194 0.9830986884872732 a41.77493335125257,41.77493335125257 0 0,0 -0.027845712723846276,-0.7185741157593455 l 20.765507362772244 -0.625747325713931" fill="#fffb17" stroke="none" /><path d="M 79.0095281055655 100.63252640178507 l -62.44601195526158 1.8817467013860834 a83.47435777793038,83.47435777793038 0 0,0 -0.03091706296219061,-1.4365944295867863 l 62.46915108090878 -0.8065624560091682" fill="#4cd7ff" stroke="none" /><line stroke="#e1ed5e" stroke-width="0.3" x1="15.007084014347285" x2="10.007500721073583" y1="101.09737516637583" y2="101.16192664675087" /><path d="M 14.007167355692545 101.11028546245083 a86.0,86.0 0 0,1 10.666146001902534,-42.60595125391555" fill="none" id="id106" stroke="none" /><text fill="#e1ed5e" style="font-size:6.75px; font-family:Arial;" text-anchor="middle"><textPath startOffset="22.20632615414155" xlink:href="#id106">October</textPath></text><path d="M 79.00019446554 99.90962569577889 l -20.54761643701377 -0.08842827310235495 a41.547806715124665,41.547806715124665 0 0,0 0.009233491343524611,-0.7151440802204386 l 20.543049938552528 0.4421086113832655" fill="#fff917" stroke="none" /><path d="M 79.00486145842228 99.54816195383935 l -20.085185931247445 -0.43225488367109455 a41.08983668866519,41.08983668866519 0 0,0 0.021304699839706287,-0.706999268240307 l 20.074769536952093 0.777924299336396" fill="#fff316" stroke="none" /><path d="M 79.01574976396665 99.18683210126434 l -9.835427656561075 -0.38113604015828484 a30.84280965317089,30.84280965317089 0 0,0 0.025124246909846003,-0.5303331431571737 l 9.827409801417732 0.5503802899384677" fill="#ff6b09" stroke="none" /><path d="M 79.03285615573316 98.82574320788736 l -9.789932241134508 -0.5482813736510965 a30.805273364404364,30.805273364404364 0 0,0 0.0342076556574001,-0.5291772923531906 l 9.779043994472696 0.7167177302572989" fill="#ff6a09" stroke="none" /><path d="M 79.05617556472873 98.46500227214037 l -49.118717172712934 -3.5999690261210757 a70.2504634869764,70.2504634869764 0 0,0 0.09877053316059768,-1.2052506811457486 l 49.049472155732836 4.4449336244746025" fill="#3cffa0" stroke="none" /><path d="M 79.08570108090925 98.10471618934814 l -28.3242750826712 -2.5667864947475976 a49.44034022068736,49.44034022068736 0 0,0 0.08410243142530806,-0.8469000070323415 l 28.275895525563662 3.0539620324843693" fill="#a7ff21" stroke="none" /><path d="M 79.21141760316559 97.0276538004421 l -21.136138488203372 -3.0220396807002743 a42.35109069870293,42.35109069870293 0 0,0 0.10939509889629612,-0.7207770193752115 l 21.08098749586777 3.3854158124675777" fill="#fbff18" stroke="none" /><path d="M 79.26566170972629 96.67025291283419 l -5.799915664953429 -0.9314139675364145 a26.87422792369296,26.87422792369296 0 0,0 0.07728021892347904,-0.4561122266687519 l 5.783023584509727 1.0311119825209942" fill="#ff3304" stroke="none" /><path d="M 79.32604984820605 96.31383870115002 l -26.23388935945756 -4.677497380284323 a47.647625272560916,47.647625272560916 0 0,0 0.15091653821040818,-0.8062021817232978 l 26.14948709733729 5.128377639470194" fill="#bcff1f" stroke="none" /><path d="M 79.46518482838121 95.60439243477599 l -30.07759082884205 -6.438299282756489 a51.75895264344328,51.75895264344328 0 0,0 0.19398667123498622,-0.869604210182697 l 29.962309770605028 6.955081662489145" fill="#8dff24" stroke="none" /><path d="M 79.54389044137918 95.25157060432595 l -26.127386237654036 -6.064889733185928 a47.82206552611595,47.82206552611595 0 0,0 0.19303536097107976,-0.8002561942109134 l 26.019118076422142 6.513731159056238" fill="#baff1f" stroke="none" /><path d="M 79.71946130924805 94.55025226153421 l -18.822782877657747 -5.0580223722521085 a40.49052963820246,40.49052963820246 0 0,0 0.18666756836918402,-0.6715425615031528 l 18.732928538722202 5.381276237174204" fill="#ffeb16" stroke="none" /><path d="M 79.91906864156998 93.8553929516997 l -25.770533668800148 -7.88558060347605 a47.95000532520689,47.95000532520689 0 0,0 0.24830000630484153,-0.7871788740817911 l 25.6309781787271 8.328009643984254" fill="#b8ff1f" stroke="none" /><path d="M 80.14247586403 93.16781622104843 l -13.178854096738846 -4.534319211618589 a34.937081689363225,34.937081689363225 0 0,0 0.20055036014994054,-0.5669828745458273 l 13.098850655779096 4.760499712591027" fill="#ffa30f" stroke="none" /><path d="M 80.2630227832202 92.82701384747504 l -23.040432134809418 -8.373556843885513 a45.51485197133648,45.51485197133648 0 0,0 0.2739461163906944,-0.7340393944869589 l 22.892881429917093 8.768919375401813" fill="#d5ff1c" stroke="none" /><path d="M 80.38941819471856 92.48833698450439 l -25.16538087570329 -9.63938054831047 a47.94835898481314,47.94835898481314 0 0,0 0.3018610633514508,-0.7682034806693117 l 24.995726262470146 10.071133033875546" fill="#b8ff1f" stroke="none" /><path d="M 80.65960295795067 91.81776055985345 l -33.230975176717315 -14.05885283194041 a57.082531149377,57.082531149377 0 0,0 0.39063285866000796,-0.9016344957814496 l 32.98405160821463 14.628786472308459" fill="#54ff2b" stroke="none" /><path d="M 80.95270993114464 91.15688171328213 l -17.981008477471395 -8.348073889038638 a40.82440424133212,40.82440424133212 0 0,0 0.3014042556624091,-0.6348342300935156 l 17.834646027967235 8.656350534772686" fill="#fff016" stroke="none" /><path d="M 81.26839172434947 90.50648371742162 l -22.39800184488369 -11.351710546287267 a46.11039264866447,46.11039264866447 0 0,0 0.3649101091186314,-0.7048901822622758 l 22.199282302604946 11.735573450809877" fill="#ceff1d" stroke="none" /><path d="M 81.43458229118936 90.18545643968196 l -43.94082253377363 -23.22916314612529 a70.70301706550512,70.70301706550512 0 0,0 0.5780540662364476,-1.0710463935383758 l 43.534460368318705 23.98209052299614" fill="#3cffa5" stroke="none" /><path d="M 81.6062741919709 89.86733742301443 l -9.088365745810453 -5.00656280514592 a31.376129483169116,31.376129483169116 0 0,0 0.2646686468458422,-0.4708159902175225 l 9.00083945767218 5.162262305298228" fill="#ff720a" stroke="none" /><line stroke="#e1ed5e" stroke-width="0.3" x1="26.266209847984243" x2="21.928928074336255" y1="57.711370442889674" y2="55.22380399835377" /><path d="M 25.398753493254645 57.213857153982495 a86.0,86.0 0 0,1 29.58750427330803,-30.492523968695096" fill="none" id="id107" stroke="none" /><text fill="#e1ed5e" style="font-size:6.75px; font-family:Arial;" text-anchor="middle"><textPath startOffset="21.46611528233685" xlink:href="#id107">November</textPath></text><path d="M 82.15384107792192 88.93136811851018 l -17.007996561964518 -10.548782727309057 a41.01371439987517,41.01371439987517 0 0,0 0.3772722760716886,-0.5967541386123433 l 16.823896689646865 10.839984513635615" fill="#fff216" stroke="none" /><path d="M 82.7489923806493 88.02491185347247 l -27.047235121648082 -18.775310512197287 a53.92514559656706,53.92514559656706 0 0,0 0.53588082672581,-0.7579654259931747 l 26.720041675118395 19.238102438522247" fill="#75ff27" stroke="none" /><path d="M 83.6137871275137 86.86637796730984 l -15.632902182399496 -12.529840185488766 a41.03458324294169,41.03458324294169 0 0,0 0.44649829276328434,-0.5473541123753756 l 15.414905397559819 12.797078467472224" fill="#fff216" stroke="none" /><path d="M 84.31358615837235 86.03803664274999 l -31.46983383219097 -28.010268711500867 a63.12986582836689,63.12986582836689 0 0,0 0.7294696862051931,-0.8054986470837051 l 30.983020505369733 28.54782014585413" fill="#32ff4d" stroke="none" /><path d="M 84.5562425177563 85.77008943001954 l -7.400034822853694 -6.818407622951795 a31.062365422313704,31.062365422313704 0 0,0 0.36569675187099304,-0.39009979742732787 l 7.281570749012243 6.944776837257173" fill="#ff6e0a" stroke="none" /><path d="M 85.31137513191541 84.99185889309783 l -7.28094516584003 -7.439324880436803 a31.40940522722866,31.40940522722866 0 0,0 0.3896512557076416,-0.37484419927046886 l 7.15181066651996 7.563552166469581" fill="#ff730a" stroke="none" /><path d="M 85.57189188830299 84.74124197986013 l -6.237534801738471 -6.596639936788901 a30.078683762447994,30.078683762447994 0 0,0 0.3792665869582811,-0.35248695861187374 l 6.123060330985334 6.703031481475425" fill="#ff6008" stroke="none" /><path d="M 86.10567301691215 84.25364557470407 l -29.554938826757034 -33.49442850672216 a65.66957745541447,65.66957745541447 0 0,0 0.8540366115866537,-0.7406121337514229 l 28.974008416523606 33.998205633893264" fill="#36ff6c" stroke="none" /><path d="M 86.65592168130627 83.78471172551755 l -12.861629789593923 -15.629032574379572 a41.24075542205843,41.24075542205843 0 0,0 0.5520302947511083,-0.4463701072216609 l 12.590696096278315 15.84810877886537" fill="#fff517" stroke="none" /><path d="M 86.93701828274178 83.55741782278169 l -13.019497810713766 -16.387848294692912 a41.930095436310125,41.930095436310125 0 0,0 0.5689862932574631,-0.44410282699848735 l 12.735478962296876 16.60952951091462" fill="#fffd18" stroke="none" /><path d="M 87.80319425747018 82.90503203632743 l -9.397326425328133 -13.171234959083408 a37.17996212268593,37.17996212268593 0 0,0 0.5241823340945856,-0.36722322331940765 l 9.169212951649888 13.331043025166759" fill="#ffc111" stroke="none" /><path d="M 88.39885842347998 82.49532879139004 l -22.451088536234927 -33.87588372316648 a61.640212530046576,61.640212530046576 0 0,0 0.8894769968699364,-0.5785405811765281 l 21.864644513580703 34.25732322850254" fill="#31ff3b" stroke="none" /><path d="M 88.70189139769569 82.29822771554957 l -8.493888010947947 -13.308145342907924 a36.78774417104886,36.78774417104886 0 0,0 0.5367171543542406,-0.3360922328181006 l 8.263551704221463 13.452381917048955" fill="#ffbc11" stroke="none" /><line stroke="#e1ed5e" stroke-width="0.3" x1="56.76296977257108" x2="54.21961505331056" y1="26.818313649435495" y2="22.513508569990535" /><path d="M 56.25429882871898 25.957352633546506 a86.0,86.0 0 0,1 42.26535254187918,-11.944610805530505" fill="none" id="id108" stroke="none" /><text fill="#e1ed5e" style="font-size:6.75px; font-family:Arial;" text-anchor="middle"><textPath startOffset="22.20632615414155" xlink:href="#id108">December</textPath></text><path d="M 89.3179101791058 81.91981866633112 l -4.652168447820286 -7.874119253972214 a30.145732627442733,30.145732627442733 0 0,0 0.4490325556233727,-0.2601086392630396 l 4.515939159731591 7.953032050625302" fill="#ff6109" stroke="none" /><path d="M 89.63071344664047 81.73862282372117 l -9.765356569384355 -17.19779453067613 a40.77691395659525,40.77691395659525 0 0,0 0.613354516231921,-0.34133112421822176 l 9.467877964080389 17.363341052454537" fill="#ffef16" stroke="none" /><path d="M 90.58718382345135 81.22770947309562 l -10.098529587716678 -20.13983145527307 a43.529827138280396,43.529827138280396 0 0,0 0.6726990308781577,-0.33009049295209564 l 9.750359289828095 20.310677108359997" fill="#edff1a" stroke="none" /><path d="M 90.91171255644093 81.06846463323043 l -4.299682871187746 -8.9565387150549 a30.93513253797163,30.93513253797163 0 0,0 0.4820309239408933,-0.22631998211928273 l 4.144873735947244 9.02922367981419" fill="#ff6c0a" stroke="none" /><path d="M 91.23893434514133 80.91482961587045 l -4.149257639715984 -9.0387736082898 a30.94564061801238,30.94564061801238 0 0,0 0.486020268158161,-0.2180631271717976 l 3.993055253091048 9.108857065978126" fill="#ff6c0a" stroke="none" /><path d="M 92.23578459929587 80.48803036053334 l -15.353237873779616 -38.58366825236834 a62.526152831892304,62.526152831892304 0 0,0 1.003446006292895,-0.3893214609725893 l 14.686808702487044 38.84223241723148" fill="#32ff46" stroke="none" /><path d="M 92.91201910852362 80.23233633223022 l -4.578766182943272 -12.76971697632888 a34.56579416818665,34.56579416818665 0 0,0 0.5618060758784023,-0.19600310852250818 l 4.3582781030015845 12.846640938023597" fill="#ff9e0e" stroke="none" /><path d="M 94.63758080256005 79.69619591428918 l -0.7430436385179663 -2.813396698043479 a23.90986508781833,23.90986508781833 0 0,0 0.39882920061921984,-0.10167044354042275 l 0.694505549213747 2.825770137752765" fill="#ff0701" stroke="none" /><path d="M 94.98787191387505 79.60689891045804 l -10.07262849950017 -40.98301713325119 a63.202672169346144,63.202672169346144 0 0,0 1.0587239518975355,-0.25056575341516535 l 9.365680860640099 41.15032879880722" fill="#33ff4e" stroke="none" /><path d="M 95.692805502759 79.44645832069477 l -4.080367406467889 -19.471143364767276 a40.894090130063404,40.894090130063404 0 0,0 0.6902018664939481,-0.13844800133664256 l 3.7445991305068045 19.538495322181127" fill="#fff016" stroke="none" /><path d="M 97.11714578562143 79.19881850522333 l -0.4022275335840893 -2.902265361372976 a23.930005327059757,23.930005327059757 0 0,0 0.408502593165687,-0.05303536069583345 l 0.3522102119105445 2.908759045232946" fill="#ff0701" stroke="none" /><path d="M 99.27714615592234 79.0124445844662 l -0.18288442520249218 -5.309921279415612 a26.313069800649373,26.313069800649373 0 0,0 0.45280202724822277,-0.011694540467717139 l 0.09145576275939042 5.3122826120256885" fill="#ff2a04" stroke="none" /></svg>