<?xml version="1.0" encoding="utf-8" ?>
<svg baseProfile="full" height="200mm" version="1.1" viewBox="0,0,200,200" width="200mm" xmlns="http://www.w3.org/2000/svg" xmlns:ev="http://www.w3.org/2001/xml-events" xmlns:xlink="http://www.w3.org/1999/xlink"><defs /><rect fill="#1a1a1a" height="200" width="200" x="0" y="0" /><text alignment-baseline="middle" fill="#e1ed5e" style="dominant-baseline: central; font-size:9.0px; font-family:Arial;" text-anchor="middle" x="100.0" y="100.0">2021</text><line stroke="#e1ed5e" stroke-width="0.3" x1="100.0" x2="100.0" y1="15.0" y2="10.0" /><path d="M 100.0 14.0 a86.0,86.0 0 0,1 42.46469731375804,11.215312516191453" fill="none" id="id85" stroke="none" /><text fill="#e1ed5e" style="font-size:6.75px; font-family:Arial;" text-anchor="middle"><textPath startOffset="22.20632615414155" xlink:href="#id85">January</textPath></text><path d="M 100.0 79.0 l 0.0 -8.754375 a29.754375,29.754375 0 0,0 0.5121726540692636,0.004408431732251848 l -0.15069217479673525 8.753077944876306" fill="#ff6a09" stroke="none" /><path d="M 100.36148047927253 79.00311137660856 l 0.31787689646027967 -18.46413893319485 a39.466875,39.466875 0 0,0 0.6791560674806454,0.01754059751745285 l -0.6356595991357928 18.455931543535037" fill="#ffe915" stroke="none" /><path d="M 100.72285384407766 79.0124445844662 l 2.1685615322329816 -62.9626662466014 a84.0,84.0 0 0,0 1.4446366704426739,0.062209093903220936 l -3.2520390350649873 62.916009426173986" fill="#4dd2ff" stroke="none" /><path d="M 101.44485096284872 79.0497635885617 l 0.6014192132857785 -8.720535906261192 a29.74125,29.74125 0 0,0 0.5104303943155843,0.039619222425587124 l -0.7514397969637041 8.708891421647142" fill="#ff6909" stroke="none" /><path d="M 102.88285421437855 79.19881850522331 l 3.0630326027772203 -22.10125533820022 a43.3125,43.3125 0 0,0 0.7376139778658974,0.10870512641800154 l -3.4430155610717734 22.045255727621253" fill="#e7ff1a" stroke="none" /><path d="M 104.66035177308747 79.52364482259891 l 2.9156325780378523 -12.810519707861559 a34.138125,34.138125 0 0,0 0.5718563688815478,0.1353399265760004 l -3.1357126338819237 12.75843386914469" fill="#ffa40f" stroke="none" /><path d="M 105.36241919743992 79.69619591428918 l 4.7557955257295355 -18.00693624851479 a39.624375,39.624375 0 0,0 0.6579572952710107,0.1798445832783872 l -5.065050710224257 17.92240512441011" fill="#ffeb16" stroke="none" /><path d="M 105.71112130821622 79.79150937346287 l 4.197674161538919 -14.853240610504786 a36.435,36.435 0 0,0 0.6020619722498539,0.17575839932604945 l -4.4527263515122 14.778783882260033" fill="#ffc212" stroke="none" /><path d="M 106.0581310904928 79.89281104454417 l 1.8969522977105542 -6.296063541677104 a27.575625,27.575625 0 0,0 0.4533099574592381,0.14084561038239016 l -2.0050476278805105 6.262477796412193" fill="#ff4b07" stroke="none" /><path d="M 107.08798089147638 80.2323363322302 l 3.7300499441394432 -10.402733005163848 a32.051249999999996,32.051249999999996 0 0,0 0.5177309752896051,0.1906846875105969 l -3.908563245201625 10.336985049846925" fill="#ff890c" stroke="none" /><path d="M 107.76421540070413 80.48803036053334 l 6.39091980170459 -16.06079000948599 a38.285624999999996,38.285624999999996 0 0,0 0.610229345256671,0.24892787187656196 l -6.666433016549649 15.94840125142585" fill="#ffda14" stroke="none" /><path d="M 108.09893153111575 80.62456947434976 l 4.403794020044189 -10.53539034832232 a32.41875,32.41875 0 0,0 0.5130131989112009,0.21964547870744167 l -4.584490976745705 10.458025341652087" fill="#ff8e0d" stroke="none" /><path d="M 108.76106565485865 80.91482961587045 l 3.471572265737741 -7.562498764711338 a29.32125,29.32125 0 0,0 0.45688342247293634,0.21451289298889592 l -3.6012338995102753 7.50162088908244" fill="#ff6409" stroke="none" /><path d="M 110.05341064243156 81.56283822128135 l 9.74552494150709 -17.872523699245395 a41.356875,41.356875 0 0,0 0.6220781220837609,0.34618580142992067 l -10.051727152662886 17.702122500255292" fill="#feff18" stroke="none" /><path d="M 110.36928655335952 81.73862282372117 l 11.671928176625313 -20.555462684048862 a44.638125,44.638125 0 0,0 0.6649024455533865,0.38515441294777597 l -12.024027354644026 20.351504113711037" fill="#d7ff1c" stroke="none" /><line stroke="#e1ed5e" stroke-width="0.3" x1="143.23703022742887" x2="145.7803849466894" y1="26.81831364943548" y2="22.513508569990506" /><path d="M 143.74570117128098 25.957352633546492 a86.0,86.0 0 0,1 28.547481713284135,27.462654790039103" fill="none" id="id86" stroke="none" /><text fill="#e1ed5e" style="font-size:6.75px; font-family:Arial;" text-anchor="middle"><textPath startOffset="19.985693538727396" xlink:href="#id86">February</textPath></text><path d="M 112.77801427241765 83.33499621200491 l 11.987374639311808 -15.6338566786129 a40.700625,40.700625 0 0,0 0.5523025290316291,0.43108088438673886 l -12.254709723502867 15.425197405002939" fill="#fff817" stroke="none" /><path d="M 113.06298171725822 83.55741782278167 l 8.172527936859673 -10.286890474622213 a34.138125,34.138125 0 0,0 0.4569576627085991,0.36949465063499926 l -8.348388998132764 10.144689726723083" fill="#ffa40f" stroke="none" /><path d="M 113.6212207817346 84.01681056812373 l 8.913386349047585 -10.458999584484033 a34.741875,34.741875 0 0,0 0.4518200718637595,0.39181391401133137 l -9.092100219558109 10.30402067705303" fill="#ffac10" stroke="none" /><path d="M 114.68862486808459 84.99185889309783 l 4.590195271276435 -4.690044095906931 a27.5625,27.5625 0 0,0 0.33621551228038915,0.3347716960217192 l -4.670246583724146 4.610336549235093" fill="#ff4b07" stroke="none" /><path d="M 115.19652480421416 85.50635884689758 l 4.938870561369601 -4.710433374758284 a27.825,27.825 0 0,0 0.32758329838913663,0.3494430226365774 l -5.0192211817292005 4.624720935243651" fill="#ff4f07" stroke="none" /><path d="M 115.4437574822437 85.77008943001954 l 0.9748871910666324 -0.8982631047300161 a22.325625,22.325625 0 0,0 0.25797404207007707,0.2848613805340607 l -0.990204873752745 0.8813489369264065" fill="#ff0000" stroke="none" /><path d="M 115.68641384162765 86.03803664274999 l 10.0393048586417 -8.93565654864001 a34.44,34.44 0 0,0 0.3903333437323289,0.4462184878271656 l -10.191630065951877 8.761522504609896" fill="#ffa80f" stroke="none" /><path d="M 115.9244219780498 86.31012108654704 l 10.191630065951877 -8.761522504609896 a34.44,34.44 0 0,0 0.3825945938811277,0.4528713226082652 l -10.340935273320122 8.584792232372523" fill="#ffa80f" stroke="none" /><path d="M 116.15771136456269 86.58626213691792 l 7.573927202138763 -6.287689623319721 a30.84375,30.84375 0 0,0 0.3356115897627745,0.41142012588810184 l -7.681037283977946 6.156385327823518" fill="#ff780b" stroke="none" /><path d="M 116.60985879189232 87.15038557335679 l 10.630309626811083 -8.223753233051653 a34.44,34.44 0 0,0 0.3587074580324538,0.4720169675551049 l -10.770293025067652 8.039551489615514" fill="#ffa80f" stroke="none" /><path d="M 116.82858285166822 87.43820079747576 l 10.770293025067652 -8.039551489615514 a34.44,34.44 0 0,0 0.3505293154776527,0.4781215923787503 l -10.90708495305893 7.85296745356527" fill="#ffa80f" stroke="none" /><path d="M 117.2510076193507 88.02491185347247 l 11.040644876384444 -7.664056413777618 a34.44,34.44 0 0,0 0.33386387630327724,0.4899040418365334 l -11.170933218356456 7.472874348670678" fill="#ffa80f" stroke="none" /><path d="M 117.45458315368197 88.32363383020206 l 7.0581970627701445 -4.721630569912041 a29.491875,29.491875 0 0,0 0.27863272521921423,0.4243767564013541 l -7.138426423347284 4.599435749533013" fill="#ff6609" stroke="none" /><path d="M 117.65298651832404 88.62581576622439 l 11.297911371727384 -7.27947790961639 a34.44,34.44 0 0,0 0.3168027421566327,0.5011058577487018 l -11.421541710129972 7.083924404153482" fill="#ffa80f" stroke="none" /><line stroke="#e1ed5e" stroke-width="0.3" x1="172.23445277983987" x2="176.4835382374775" y1="55.19839476539836" y2="52.563006222186495" /><path d="M 173.08426987136738 54.67131705675599 a86.0,86.0 0 0,1 12.851231095245387,41.99856678651699" fill="none" id="id87" stroke="none" /><text fill="#e1ed5e" style="font-size:6.75px; font-family:Arial;" text-anchor="middle"><textPath startOffset="22.20632615414155" xlink:href="#id87">March</textPath></text><path d="M 117.84615892207809 88.93136811851018 l 11.421541710129972 -7.083924404153482 a34.44,34.44 0 0,0 0.3081300908105927,0.5064848519403864 l -11.541787599226788 6.886271779006014" fill="#ffa80f" stroke="none" /><path d="M 118.03404312379186 89.2402003453031 l 5.6356384761849565 -3.362437392092781 a27.5625,27.5625 0 0,0 0.23958417725769543,0.4095270212855124 l -5.692682327912979 3.264930958453373" fill="#ff4b07" stroke="none" /><path d="M 118.56541770881063 90.18545643968196 l 6.033760755363456 -3.189726657103365 a27.825,27.825 0 0,0 0.22020250106284583,0.4253611430050431 l -6.087772689586418 3.0853927918379767" fill="#ff4f07" stroke="none" /><path d="M 118.73160827565052 90.50648371742162 l 17.233079613598477 -8.73403497997212 a40.32,40.32 0 0,0 0.30842877512945643,0.6217735900820163 l -17.380868401681344 8.436101801391153" fill="#fff316" stroke="none" /><path d="M 118.89224826269711 90.83032412892265 l 16.613370816009272 -8.063583719128637 a39.466875,39.466875 0 0,0 0.2913816944486495,0.6137241601055595 l -16.74971070429968 7.776417143382538" fill="#ffe915" stroke="none" /><path d="M 119.34039704204932 91.81776055985345 l 6.974630683289039 -2.950720098102849 a28.573125,28.573125 0 0,0 0.18773674228046766,0.45461941257697447 l -7.0243891124557045 2.830226115072571" fill="#ff5908" stroke="none" /><path d="M 119.47837535516314 92.15188598940014 l 6.330471990428016 -2.550637053444951 a27.825,27.825 0 0,0 0.17517354640674693,0.44579756851308566 l -6.373439086716464 2.441290480036081" fill="#ff4f07" stroke="none" /><path d="M 119.85752413597 93.16781622104841 l 20.142976045424557 -6.93039642077401 a42.301874999999995,42.301874999999995 0 0,0 0.23097368885849065,0.6905819308008636 l -20.259287028054818 6.582641387050832" fill="#f3ff19" stroke="none" /><path d="M 120.28053869075195 94.5502522615342 l 6.591175074494384 -1.771168015001384 a27.825,27.825 0 0,0 0.12031486027184894,0.4636222361477732 l -6.620686266636535 1.6574493533047603" fill="#ff4f07" stroke="none" /><path d="M 120.45610955862082 95.25157060432595 l 18.218722575646677 -4.229069930522204 a39.703125,39.703125 0 0,0 0.1488027995742727,0.6670537731945996 l -18.28881976222299 3.914837987777641" fill="#ffec16" stroke="none" /><path d="M 120.53481517161879 95.60439243477599 l 11.396822420248432 -2.4395621986993303 a32.655,32.655 0 0,0 0.11292519485217982,0.5506633546658947 l -11.437126911015607 2.2430231878700235" fill="#ff910d" stroke="none" /><path d="M 120.73433829027371 96.67025291283417 l 6.492439677141955 -1.0426270566688005 a27.575625,27.575625 0 0,0 0.07122929242751933,0.46931204054014714 l -6.509424863008775 0.9307159037365712" fill="#ff4b07" stroke="none" /><path d="M 120.78858239683441 97.02765380044208 l 6.561396319000862 -0.9381467692354662 a27.628125,27.628125 0 0,0 0.06326051373953426,0.471364306221176 l -6.576572831798233 0.8250641209496259" fill="#ff4c07" stroke="none" /><path d="M 120.87857604477298 97.74499172005257 l 6.550653234047526 -0.7075088478335061 a27.58875,27.58875 0 0,0 0.04693092613497208,0.4725880215370486 l -6.561861285864727 0.5946452955920226" fill="#ff4c07" stroke="none" /><path d="M 120.91429891909075 98.10471618934814 l 51.736746951100756 -4.688458326600049 a72.94874999999999,72.94874999999999 0 0,0 0.1025642618320301,1.251543780099513 l -51.80978569675228 3.797200629292767" fill="#3fffc0" stroke="none" /><line stroke="#e1ed5e" stroke-width="0.3" x1="184.98032266829074" x2="189.97916517819016" y1="98.17113171792111" y2="98.06355123074" /><path d="M 185.9800911702706 98.14961562048488 a86.0,86.0 0 0,1 -9.607161424134198,41.387399972396054" fill="none" id="id88" stroke="none" /><text fill="#e1ed5e" style="font-size:6.75px; font-family:Arial;" text-anchor="middle"><textPath startOffset="21.466115282336823" xlink:href="#id88">April</textPath></text><path d="M 120.99513854157772 99.54816195383933 l 6.574102755831519 -0.14148178820405893 a27.575625,27.575625 0 0,0 0.006128345028549766,0.47464707613435486 l -6.575564107977784 0.028298454009241344" fill="#ff4b07" stroke="none" /><path d="M 120.92983693683757 101.71520430193887 l 13.225040714464239 1.0837947182876235 a34.269375,34.269375 0 0,0 -0.05324058070034768,0.5875053715623014 l -13.204425537486815 -1.3112814783984956" fill="#ffa60f" stroke="none" /><path d="M 120.81339534386255 102.79330883721812 l 55.727866033191965 7.479084411651498 a77.22749999999999,77.22749999999999 0 0,0 -0.18816277738644854,1.3160100267920445 l -55.590869204788916 -8.437239910423953" fill="#45ffec" stroke="none" /><path d="M 119.9155931802556 106.66101706037122 l 5.252737701292416 1.7568432496729103 a26.53875,26.53875 0 0,0 -0.1486285873954921,0.43198424647089667 l -5.2217182829536934 -1.8470001992331073" fill="#ff3d05" stroke="none" /><path d="M 119.79798401119884 107.00284435728193 l 6.199243743506634 2.192765639373902 a27.575625,27.575625 0 0,0 -0.16213907976751163,0.4461371115563241 l -6.1605804027338955 -2.299150547936357" fill="#ff4b07" stroke="none" /><path d="M 119.67450827220406 107.3425965602758 l 6.172876970404025 2.30373967078653 a27.58875,27.58875 0 0,0 -0.1698753901840305,0.4434910390729573 l -6.132307300626488 -2.409654276692631" fill="#ff4c07" stroke="none" /><path d="M 119.54520255179757 107.68017299344265 l 3.652509726867172 1.4352323281495953 a24.924375,24.924375 0 0,0 -0.16034370970325734,0.3979599377915607 l -3.627263402906522 -1.4978916337839696" fill="#ff2603" stroke="none" /><path d="M 119.26925614724726 108.34839909993367 l 4.985920028100231 2.1601482671078376 a26.43375,26.43375 0 0,0 -0.18448103459451023,0.41595603143982934 l -4.947997908774448 -2.2456526350403543" fill="#ff3b05" stroke="none" /><path d="M 118.81262510543309 109.33194174019688 l 11.78140647227747 5.844128514798293 a34.15125,34.15125 0 0,0 -0.26576393826007993,0.5243774632184933 l -11.67906386423112 -6.046060189719481" fill="#ffa50f" stroke="none" /><path d="M 118.64920377521936 109.65438752849418 l 11.667408111871612 6.040026197514175 a34.138125,34.138125 0 0,0 -0.2746452663169082,0.5195253411006029 l -11.561710337329812 -6.239966553700912" fill="#ffa40f" stroke="none" /><line stroke="#e1ed5e" stroke-width="0.3" x1="174.80103733775053" x2="179.2010983576182" y1="140.37084112569926" y2="142.7455964860345" /><path d="M 175.68104954172406 140.8457921977663 a86.0,86.0 0 0,1 -30.038265399797805,32.042727171017184" fill="none" id="id89" stroke="none" /><text fill="#e1ed5e" style="font-size:6.75px; font-family:Arial;" text-anchor="middle"><textPath startOffset="22.206326154141568" xlink:href="#id89">May</textPath></text><path d="M 118.48025628344425 109.97397251340804 l 20.09727870824562 10.846695108331252 a43.8375,43.8375 0 0,0 -0.3641092452699738,0.660964042844582 l -19.90759305352414 -11.19102966957364" fill="#e0ff1b" stroke="none" /><path d="M 117.75023020441432 111.22182372390056 l 5.546946938879478 3.5068199137189224 a27.5625,27.5625 0 0,0 -0.2569811168176214,0.398840400103093 l -5.485760958684806 -3.6017819137434683" fill="#ff4b07" stroke="none" /><path d="M 117.55443506779139 111.5257021239791 l 5.496732480602175 3.6089854775709544 a27.575625,27.575625 0 0,0 -0.2639340472075469,0.39454558953349983 l -5.433795327983907 -3.703067981310261" fill="#ff4b07" stroke="none" /><path d="M 117.14729908036423 112.12312394758627 l 6.912504941771832 4.887134341370715 a29.465625,29.465625 0 0,0 -0.2963683538229823,0.41162972235138157 l -6.827356795573247 -5.005397669173228" fill="#ff6609" stroke="none" /><path d="M 116.93607887273984 112.41649034213515 l 18.534421316354663 13.588296618174146 a43.981875,43.981875 0 0,0 -0.4528849970654666,0.6067134629776785 l -18.297775052594105 -13.90532296066114" fill="#dfff1b" stroke="none" /><path d="M 115.32070863581623 114.36230785411682 l 3.1886224848292546 2.989155322138064 a25.370625,25.370625 0 0,0 -0.3014192726152885,0.3160369022787586 l -3.1366966608350015 -3.0435993409993296" fill="#ff2c04" stroke="none" /><path d="M 114.55890576462653 115.13401014063108 l 4.558757367548682 4.7388369252851055 a27.575625,27.575625 0 0,0 -0.3449108824655707,0.32613476762301186 l -4.476510650692304 -4.816606329654039" fill="#ff4b07" stroke="none" /><path d="M 112.92097659922987 116.55440617244103 l 7.510317648302366 9.622248587731349 a33.20625,33.20625 0 0,0 -0.453615198069663,0.3478127907354689 l -7.343573721739209 -9.75010072029419" fill="#ff980e" stroke="none" /><path d="M 112.34349029814194 116.9893568818739 l 7.236371187285712 9.96001047199857 a33.31125,33.31125 0 0,0 -0.46679002619970683,0.3330422896496072 l -7.06385383323712 -10.083097023492398" fill="#ff9a0e" stroke="none" /><path d="M 112.04921762599082 117.19931262002967 l 3.7804420301546213 5.396284334534311 a27.58875,27.58875 0 0,0 -0.3912913928266871,0.2691337879716076 l -3.686993752705051 -5.460558911871013" fill="#ff4c07" stroke="none" /><path d="M 111.45004920935366 117.60387380957326 l 5.016552809848078 7.712697212819288 a30.200625000000002,30.200625000000002 0 0,0 -0.43822285843125813,0.2796945620477599 l -4.883048149369889 -7.797906203690856" fill="#ff700a" stroke="none" /><line stroke="#e1ed5e" stroke-width="0.3" x1="143.8653032363475" x2="146.44561519142675" y1="172.8068346515853" y2="177.08958963109032" /><path d="M 144.38136562736335 173.6633856474863 a86.0,86.0 0 0,1 -40.68145358897372,12.25698825130547" fill="none" id="id90" stroke="none" /><text fill="#e1ed5e" style="font-size:6.75px; font-family:Arial;" text-anchor="middle"><textPath startOffset="21.466115282336833" xlink:href="#id90">June</textPath></text><path d="M 110.8373102113329 117.98757091392108 l 4.131724518070673 6.857761410932411 a29.00625,29.00625 0 0,0 -0.42988937814204725,0.2539862220192585 l -4.013067268900243 -6.92786620524542" fill="#ff5f08" stroke="none" /><path d="M 110.21172684928248 118.3499491758327 l 5.9483308897070515 10.688845394922547 a33.2325,33.2325 0 0,0 -0.5022494002178635,0.2738664185901632 l -5.763458677620539 -10.789652465272482" fill="#ff980e" stroke="none" /><path d="M 109.57404056367764 118.69057910512821 l 1.9387432141447216 3.7848422687884637 a25.2525,25.2525 0 0,0 -0.3885831760114805,0.19484367130656424 l -1.8733061304504806 -3.81765378100433" fill="#ff2a04" stroke="none" /><path d="M 108.2653958097858 119.30500536409082 l 3.435305133442223 8.023642854450244 a29.728125,29.728125 0 0,0 -0.4721513401489066,0.19735929847485045 l -3.2966823337958555 -8.081587195945069" fill="#ff6909" stroke="none" /><path d="M 107.93186726928326 119.44442032107085 l 2.483665938694321 6.0885341130353074 a27.575625,27.575625 0 0,0 -0.44105101202252434,0.17550329993928077 l -2.3784938506299307 -6.1303842573806575" fill="#ff4b07" stroke="none" /><path d="M 107.59598834532513 119.57807347666477 l 2.373746357914103 6.118147961457743 a27.5625,27.5625 0 0,0 -0.4437953352521393,0.16780542173504698 l -2.2680808019016885 -6.15810163329942" fill="#ff4b07" stroke="none" /><path d="M 106.91757812671514 119.82793768551818 l 4.332133301855355 12.417245975555762 a34.15125,34.15125 0 0,0 -0.5567145968108346,0.1888678175569274 l -4.117748972107293 -12.489976780010812" fill="#ffa50f" stroke="none" /><path d="M 106.2309692047433 120.05430185196036 l 1.9900157897648934 6.404842653969839 a27.706875,27.706875 0 0,0 -0.4566687055979006,0.13759053488613332 l -1.8794721097267468 -6.438148557961698" fill="#ff4d07" stroke="none" /><path d="M 105.88484417918355 120.15858648285463 l 1.8390138059948598 6.299558275892072 a27.5625,27.5625 0 0,0 -0.45657784186270495,0.12903345874319377 l -1.730304796027549 -6.330280527973785" fill="#ff4b07" stroke="none" /><path d="M 105.53697534728816 120.25689768951611 l 1.8029775974607056 6.596152310148682 a27.838124999999998,27.838124999999998 0 0,0 -0.4633186067480087,0.12236665507943649 l -1.6891685479011995 -6.626210314531702" fill="#ff4f07" stroke="none" /><path d="M 105.18746579009965 120.34920634021253 l 1.630809557762579 6.397281743204313 a27.601875,27.601875 0 0,0 -0.46140702636564185,0.11340262110349689 l -1.5204492466537258 -6.42440562262184" fill="#ff4c07" stroke="none" /><path d="M 104.48393922423573 120.51570834832081 l 1.404033469588812 6.4239811765679535 a27.575625,27.575625 0 0,0 -0.46459483721054795,0.09736036530846061 l -1.293247170948886 -6.447197522602956" fill="#ff4b07" stroke="none" /><path d="M 103.41894727170886 120.7198165907248 l 1.4957894313726263 9.064919758442098 a30.1875,30.1875 0 0,0 -0.5134234460627566,0.08018618318853546 l -1.3395301217013527 -9.089324248977741" fill="#ff6f0a" stroke="none" /><path d="M 103.06178313531738 120.77559828337769 l 1.2782944589950047 8.673812283310184 a29.7675,29.7675 0 0,0 -0.5075662219926678,0.07034405341423584 l -1.1287996458155065 -8.694530902217023" fill="#ff6a09" stroke="none" /><path d="M 102.34483914955558 120.86867818915974 l 2.013630619680861 17.920977394940923 a39.03375,39.03375 0 0,0 -0.668345911059336,0.06927678638285906 l -1.7048521120159223 -17.952983549779542" fill="#ffe315" stroke="none" /><path d="M 101.98527174616119 120.90594882070398 l 0.6216382155167227 6.5461752244829325 a27.575625,27.575625 0 0,0 -0.47292943026563805,0.040806341226580105 l -0.5088644675095431 -6.555905817988176" fill="#ff4b07" stroke="none" /><path d="M 101.62511606390274 120.93702456842531 l 0.21939066862686896 2.8264983167374185 a23.835,23.835 0 0,0 -0.40932326651591405,0.02822932897401634 l -0.17070464133202454 -2.82985599022772" fill="#ff1602" stroke="none" /><path d="M 101.26447882468166 120.96189622390904 l 0.39752053050929775 6.589896125391402 a27.601875,27.601875 0 0,0 -0.4745050575790328,0.024526491486930885 l -0.2840274045167854 -6.595762423640534" fill="#ff4c07" stroke="none" /><path d="M 100.90346689309514 120.98055641714683 l 1.2422669780058209 28.84826507357689 a49.875,49.875 0 0,0 -0.8580391647727008,0.02955260373802726 l -0.7455074615584677 -28.86537447574101" fill="#9bff22" stroke="none" /><line stroke="#e1ed5e" stroke-width="0.3" x1="102.19456741930631" x2="102.32365962044197" y1="184.97166512339345" y2="189.96999836594603" /><path d="M 102.22038585953345 185.97133177190398 a86.0,86.0 0 0,1 -42.740103519485714,-10.115201625700543" fill="none" id="id91" stroke="none" /><text fill="#e1ed5e" style="font-size:6.75px; font-family:Arial;" text-anchor="middle"><textPath startOffset="22.20632615414155" xlink:href="#id91">July</textPath></text><path d="M 100.18074693466247 120.99922214144158 l 0.05659638391618361 6.575381433038892 a27.575625,27.575625 0 0,0 -0.47468663715727355,0.0 l 0.05659638391617908 -6.575381433038892" fill="#ff4b07" stroke="none" /><path d="M 99.81925306533755 120.99922214144158 l -0.05659638391617908 6.575381433038892 a27.575625,27.575625 0 0,0 -0.4746163072096904,-0.00817095014780347 l 0.1697723810185374 -6.573433005611929" fill="#ff4b07" stroke="none" /><path d="M 99.45781275523022 120.99299961872073 l -0.32226254361003814 12.47771414837714 a33.481875,33.481875 0 0,0 -0.5760152392987411,-0.019839129509396723 l 0.5369981345834223 -12.47031822044165" fill="#ff9c0e" stroke="none" /><path d="M 98.73552117531835 120.96189622390904 l -0.3991011290401453 6.616098495671289 a27.628125,27.628125 0 0,0 -0.47446336785022014,-0.03272177174576234 l 0.5129272576692955 -6.6082483794092415" fill="#ff4c07" stroke="none" /><path d="M 98.37488393609728 120.93702456842531 l -1.0268702128785299 13.229582399173744 a34.269375,34.269375 0 0,0 -0.5877290539855216,-0.05071173581275614 l 1.254443584605593 -13.209946411082324" fill="#ffa60f" stroke="none" /><path d="M 98.01472825383883 120.90594882070398 l -0.6601028555985914 6.951227982884075 a27.9825,27.9825 0 0,0 -0.4791235650230469,-0.04966311653269882 l 0.7796590172272316 -6.9388354978956155" fill="#ff5107" stroke="none" /><path d="M 97.65516085044442 120.86867818915974 l -0.7635382480740366 6.795363335345138 a27.838124999999998,27.838124999999998 0 0,0 -0.47573045981750195,-0.057604333483459766 l 0.8803961309429279 -6.78121347313633" fill="#ff4f07" stroke="none" /><path d="M 96.93821686468263 120.77559828337769 l -0.9682889165441159 6.570282957118195 a27.64125,27.64125 0 0,0 -0.47011729452528933,-0.07342265295437203 l 1.0812420746779223 -6.5526419968167176" fill="#ff4c07" stroke="none" /><path d="M 96.22490169976321 120.6578951692458 l -0.4740107803234829 2.5938569621884278 a23.6368125,23.6368125 0 0,0 -0.3996111393236465,-0.07658642593390234 l 0.5185895342188245 -2.5853133379060576" fill="#ff1302" stroke="none" /><path d="M 95.86986931433489 120.58985236759428 l -1.2932471709488844 6.447197522602956 a27.575625,27.575625 0 0,0 -0.46459483721053646,-0.09736036530846061 l 1.4040334695888077 -6.423981176567954" fill="#ff4b07" stroke="none" /><path d="M 95.16358092515715 120.4354850818985 l -6.112024605832653 25.825344272249232 a47.53875,47.53875 0 0,0 -0.7946820016625571,-0.1953135014916147 l 6.555659892238421 -25.716309512443587" fill="#b5ff1f" stroke="none" /><path d="M 94.81253420990036 120.34920634021253 l -1.7929178637031882 7.033194441335956 a28.258125,28.258125 0 0,0 -0.47030879789178975,-0.12421282809336795 l 1.9137171044064674 -7.001290263939007" fill="#ff5507" stroke="none" /><path d="M 94.11515582081647 120.15858648285463 l -1.8463698612188353 6.324756508995643 a27.58875,27.58875 0 0,0 -0.45472175232912704,-0.13700393383735301 l 1.954966587988208 -6.292037206052564" fill="#ff4c07" stroke="none" /><path d="M 93.42475214034765 119.94407469862007 l -2.058874486053642 6.244988390005408 a27.575625,27.575625 0 0,0 -0.44952243193680536,-0.15250241532940217 l 2.1660666509276734 -6.208622987777882" fill="#ff4b07" stroke="none" /><path d="M 93.08242187328487 119.8279376855182 l -1.7337180180079779 4.969376882432996 a26.263125,26.263125 0 0,0 -0.4255632244874481,-0.15259183148690278 l 1.8190008031251526 -4.938797509906134" fill="#ff3905" stroke="none" /><path d="M 92.40401165467489 119.57807347666478 l -7.937807820864746 20.459086783114696 a42.945,42.945 0 0,0 -0.6868723994944002,-0.27332070318959384 l 8.288801296401004 -20.319419235519035" fill="#ebff1a" stroke="none" /><path d="M 90.10565033884886 118.52300852407294 l -3.8278765251578455 7.166088922750715 a29.124375,29.124375 0 0,0 -0.44016248778967915,-0.24001168359067476 l 3.9506618248161653 -7.099136587400275" fill="#ff6108" stroke="none" /><line stroke="#e1ed5e" stroke-width="0.3" x1="58.666819895761336" x2="56.23545636021788" y1="174.27360380694188" y2="178.64263932499728" /><path d="M 58.180547188652646 175.14741091055294 a86.0,86.0 0 0,1 -31.652253787137756,-30.449443065178592" fill="none" id="id92" stroke="none" /><text fill="#e1ed5e" style="font-size:6.75px; font-family:Arial;" text-anchor="middle"><textPath startOffset="22.20632615414155" xlink:href="#id92">August</textPath></text><path d="M 89.1626897886671 117.98757091392108 l -2.722196858709184 4.51825296894055 a26.2749375,26.2749375 0 0,0 -0.3853917747846945,-0.23673910516016863 l 2.7995678334261873 -4.4707253969520035" fill="#ff3905" stroke="none" /><path d="M 87.65650970185807 116.9893568818739 l -4.474515233076452 6.158641869679289 a28.6125,28.6125 0 0,0 -0.39596297780470613,-0.29292394484206785 l 4.5798631812997215 -6.080707976097455" fill="#ff5a08" stroke="none" /><path d="M 87.36589467227662 116.77436683061367 l -3.158526331930842 4.193591707653416 a26.25,26.25 0 0,0 -0.3585890893831416,-0.2749508227157915 l 3.2302441498074708 -4.1386015431102585" fill="#ff3905" stroke="none" /><path d="M 87.07902340077011 116.55440617244103 l -3.2383197601819886 4.148948046968033 a26.263125,26.263125 0 0,0 -0.353980035670354,-0.28122314879733346 l 3.3092572885697007 -4.092590984165569" fill="#ff3905" stroke="none" /><path d="M 86.79598089348748 116.32954008644616 l -3.334014824394414 4.123208871827658 a26.302500000000002,26.302500000000002 0 0,0 -0.34961016399777733,-0.28770536363138116 l 3.4044951169368796 -4.065208389339096" fill="#ff3905" stroke="none" /><path d="M 86.51685102203217 116.09983520530335 l -3.8426974587208327 4.588453033511453 a26.985,26.985 0 0,0 -0.3535478625984823,-0.3013011585635073 l 3.9211107978963717 -4.521627484724994" fill="#ff4306" stroke="none" /><path d="M 85.70375840098266 115.38237550388516 l -12.12499990616658 13.046177224232602 a38.810625,38.810625 0 0,0 -0.48543621106647145,-0.4590102369639267 l 12.347771951623868 -12.835532350522746" fill="#ffe015" stroke="none" /><path d="M 85.44109423537348 115.13401014063109 l -3.7853154988028956 3.9348426365640843 a26.46,26.46 0 0,0 -0.3255210600064993,-0.3185908703175622 l 3.852486511185189 -3.8691016633239523" fill="#ff3c05" stroke="none" /><path d="M 85.18274418774928 114.88116024355367 l -4.676696365741636 4.696866201871624 a27.628125,27.628125 0 0,0 -0.33411530266131406,-0.33845703760668805 l 4.756852293458483 -4.615668670284272" fill="#ff4c07" stroke="none" /><path d="M 84.9287848128048 114.62390073753433 l -4.709754745998498 4.5699689804794765 a27.5625,27.5625 0 0,0 -0.3274601513151183,-0.34334065948546855 l 4.787721448692573 -4.4882212044115075" fill="#ff4b07" stroke="none" /><path d="M 84.67929136418377 114.36230785411682 l -4.797296891589958 4.49719764682033 a27.575625,27.575625 0 0,0 -0.3216546855006084,-0.34909263353898495 l 4.873997985086295 -4.413953758480001" fill="#ff4b07" stroke="none" /><path d="M 84.19399662182784 113.82643327865904 l -10.659173528154858 9.324200942295686 a35.161875,35.161875 0 0,0 -0.39457901053742733,-0.4589845320914127 l 10.818095048263062 -9.139339311042743" fill="#ffb210" stroke="none" /><path d="M 83.50135304334701 112.99209946851258 l -5.166138828301967 4.068151146078002 a27.575625,27.575625 0 0,0 -0.29045429814052387,-0.37545133398003505 l 5.23539994366056 -3.9786218179847146" fill="#ff4b07" stroke="none" /><path d="M 83.28015986056508 112.70617746262583 l -5.277199544009148 4.01038726164128 a27.628125,27.628125 0 0,0 -0.2844890835042787,-0.3811196178955667 l 5.345449894208512 -3.9189547642364055" fill="#ff4c07" stroke="none" /><path d="M 83.06392112726016 112.41649034213515 l -5.3031096970266605 3.8879135383810666 a27.575625,27.575625 0 0,0 -0.27735853513678044,-0.38522674684197417 l 5.369248024539049 -3.796053186087954" fill="#ff4b07" stroke="none" /><path d="M 82.6465618267979 111.8261652097733 l -5.314490440543141 3.6217630954930713 a27.43125,27.43125 0 0,0 -0.2625521935572334,-0.39247990581864645 l 5.376045739511104 -3.5297462754686038" fill="#ff4906" stroke="none" /><path d="M 82.24976979558568 111.22182372390057 l -5.768824816434654 3.647092710267683 a27.825,27.825 0 0,0 -0.25245935243995843,-0.40704486094102493 l 5.830748808542568 -3.5472515179613944" fill="#ff4f07" stroke="none" /><path d="M 82.05923443525364 110.91462005526583 l -5.404655626379844 3.288029291648832 a27.32625,27.32625 0 0,0 -0.2410163854976758,-0.40395732533069795 l 5.460452887575752 -3.194509872432023" fill="#ff4806" stroke="none" /><line stroke="#e1ed5e" stroke-width="0.3" x1="26.63291911575756" x2="22.317208475507996" y1="142.92168965132927" y2="145.44649492493687" /><path d="M 25.769776987707644 143.4266507060508 a86.0,86.0 0 0,1 -11.730757126820373,-40.83630448921669" fill="none" id="id93" stroke="none" /><text fill="#e1ed5e" style="font-size:6.75px; font-family:Arial;" text-anchor="middle"><textPath startOffset="21.46611528233685" xlink:href="#id93">September</textPath></text><path d="M 81.87401531095188 110.60418214915194 l -6.808572998823704 3.983195919775197 a28.888125,28.888125 0 0,0 -0.2474034102928861,-0.43136869954116647 l 6.876128405268967 -3.8654073743757236" fill="#ff5e08" stroke="none" /><path d="M 81.69416730710424 110.29060199501025 l -11.475468869359027 6.450921125622049 a34.164375,34.164375 0 0,0 -0.283765378873564,-0.5151165878815425 l 11.584810657684107 -6.252434019342684" fill="#ffa50f" stroke="none" /><path d="M 81.51974371655577 109.97397251340807 l -5.786630248753476 3.1231001432609014 a27.575625,27.575625 0 0,0 -0.22184917513719646,-0.41965503331503057 l 5.839531932115559 -3.0230300948597444" fill="#ff4b07" stroke="none" /><path d="M 81.18737489456691 109.33194174019688 l -5.902461126829632 2.9278967209867717 a27.58875,27.58875 0 0,0 -0.20737115912241297,-0.42724600910060717 l 5.951985542566764 -2.82586175592088" fill="#ff4c07" stroke="none" /><path d="M 81.02952815118164 109.00673069616217 l -8.323294523669057 3.951703092941149 a30.213749999999997,30.213749999999997 0 0,0 -0.21901427002169932,-0.47173725320258747 l 8.390083410530583 -3.8078457724597348" fill="#ff700a" stroke="none" /><path d="M 80.87730276802145 108.67885076344099 l -5.987794570763279 2.7175651453024603 a27.575625,27.575625 0 0,0 -0.1924501756122381,-0.43392434064302876 l 6.033685831106797 -2.614092468166736" fill="#ff4b07" stroke="none" /><path d="M 80.73074385275274 108.34839909993369 l -6.045729116198829 2.619310217604195 a27.58875,27.58875 0 0,0 -0.18504039845860723,-0.43738084190608384 l 6.089920495849743 -2.5148548500319525" fill="#ff4c07" stroke="none" /><path d="M 80.58989483394504 108.01547362559985 l -7.096819701338844 2.9306575443599447 a28.678125,28.678125 0 0,0 -0.1844923674047548,-0.45789492578966895 l 7.146214683000986 -2.8080632507274705" fill="#ff5b08" stroke="none" /><path d="M 80.45479744820244 107.68017299344265 l -6.10787579743674 2.400054060450829 a27.5625,27.5625 0 0,0 -0.16971375803351932,-0.4430690685314803 l 6.148283835063768 -2.294561425086191" fill="#ff4b07" stroke="none" /><path d="M 80.32549172779594 107.34259656027581 l -7.4148303050869036 2.7672410786539463 a28.914375,28.914375 0 0,0 -0.17001065812843164,-0.4677963144972025 l 7.46136522422056 -2.6391969671506263" fill="#ff5e08" stroke="none" /><path d="M 80.20201598880116 107.00284435728193 l -9.911365745606417 3.505798956364266 a31.513125000000002,31.513125000000002 0 0,0 -0.17648725931581782,-0.5129545874266239 l 9.970243835865464 -3.334671665848345" fill="#ff810b" stroke="none" /><path d="M 80.0844068197444 106.66101706037122 l -6.248517360305197 2.089894102691472 a27.58875,27.58875 0 0,0 -0.14675605522740248,-0.4516686951541608 l 6.283565666548848 -1.9820265075595078" fill="#ff4c07" stroke="none" /><path d="M 79.86692584326677 105.97154293290107 l -6.329335188023007 1.8773038095307757 a27.601875,27.601875 0 0,0 -0.13118430289282695,-0.4566697681336467 l 6.360712127801938 -1.768076565892533" fill="#ff4c07" stroke="none" /><path d="M 79.67330655649465 105.27499134158121 l -6.36479588449761 1.6517316638326163 a27.575625,27.575625 0 0,0 -0.11527751791630127,-0.4604763808912998 l 6.39228471670897 -1.5419274435439247" fill="#ff4b07" stroke="none" /><path d="M 79.35854240842038 103.8639653848113 l -10.51424246071087 1.9682073678882535 a31.696875,31.696875 0 0,0 -0.09577521359428703,-0.5371582606120556 l 10.546564116644346 -1.7869303565429842" fill="#ff840c" stroke="none" /><path d="M 79.29508885075956 103.50808413554451 l -6.48322530360591 1.0984688449423743 a27.575625,27.575625 0 0,0 -0.07526602130433006,-0.46868158650909875 l 6.501173079271531 -0.9867080287400618" fill="#ff4b07" stroke="none" /><path d="M 79.23777060512086 103.15116336523772 l -6.501173079271531 0.9867080287400618 a27.575625,27.575625 0 0,0 -0.06718728675882842,-0.4699077271057365 l 6.517194417046959 -0.8746548296539248" fill="#ff4b07" stroke="none" /><path d="M 79.1416061653843 102.43462659150553 l -6.531284569464039 0.7623424514651697 a27.575625,27.575625 0 0,0 -0.05097249034143125,-0.4719419548250455 l 6.543439361306523 -0.649804174755342" fill="#ff4b07" stroke="none" /><path d="M 79.07016306316243 101.71520430193888 l -6.592898635103837 0.5402893551107475 a27.615000000000002,27.615000000000002 0 0,0 -0.03474682535639902,-0.4740928255067598 l 6.601222019124571 -0.4267233931072271" fill="#ff4c07" stroke="none" /><path d="M 79.04373962182676 101.35467743843564 l -6.561929030915493 0.42418337291016006 a27.575625,27.575625 0 0,0 -0.026543047990810024,-0.4739439524870285 l 6.5682584297938345 -0.311167704087694" fill="#ff4b07" stroke="none" /><path d="M 79.0095281055655 100.63252640178507 l -6.572641511944803 0.19805982955895174 a27.575625,27.575625 0 0,0 -0.010213403936749585,-0.47457674814058703 l 6.5750769785665595 -0.08489326562823585" fill="#ff4b07" stroke="none" /><line stroke="#e1ed5e" stroke-width="0.3" x1="15.007084014347285" x2="10.007500721073583" y1="101.09737516637583" y2="101.16192664675087" /><path d="M 14.007167355692545 101.11028546245083 a86.0,86.0 0 0,1 10.666146001902534,-42.60595125391555" fill="none" id="id94" stroke="none" /><text fill="#e1ed5e" style="font-size:6.75px; font-family:Arial;" text-anchor="middle"><textPath startOffset="22.20632615414155" xlink:href="#id94">October</textPath></text><path d="M 79.00486145842228 99.54816195383935 l -9.250982919882679 -0.19909113908953566 a30.253125,30.253125 0 0,0 0.015685965174836333,-0.5205408188658674 l 9.246185260252197 0.3583021053803975" fill="#ff700a" stroke="none" /><path d="M 79.01574976396665 99.18683210126434 l -21.28589883317633 -0.8248571872799787 a42.301874999999995,42.301874999999995 0 0,0 0.03445868791464584,-0.727368439596276 l 21.268546537028183 1.1911367334992637" fill="#f3ff19" stroke="none" /><path d="M 79.05617556472873 98.46500227214037 l -11.793991135112133 -0.864395595500956 a32.825625,32.825625 0 0,0 0.04615207247964863,-0.5631721831645915 l 11.777364578812987 1.0672816958733258" fill="#ff930d" stroke="none" /><path d="M 79.12142395522702 97.74499172005258 l -13.101306468095054 -1.4150176956670089 a34.1775,34.1775 0 0,0 0.06820795048665905,-0.5843640658762875 l 13.075008164604807 1.6403254998681582" fill="#ffa50f" stroke="none" /><path d="M 79.16333360222342 97.38593545837743 l -16.656310201722647 -2.089617842959535 a37.786874999999995,37.786874999999995 0 0,0 0.08652114919531019,-0.6446830582474034 l 16.617873053469506 2.376019243271598" fill="#ffd413" stroke="none" /><path d="M 79.21141760316559 97.0276538004421 l -6.509424863008775 -0.9307159037365682 a27.575625,27.575625 0 0,0 0.07122929242751627,-0.4693120405401341 l 6.492439677141956 1.0426270566687943" fill="#ff4b07" stroke="none" /><path d="M 79.3925641242962 95.95851677861259 l -6.465583006002069 -1.2680153607103002 a27.58875,27.58875 0 0,0 0.09540544999167588,-0.46523085671533 l 6.442798260095398 1.3791218735890327" fill="#ff4c07" stroke="none" /><path d="M 79.46518482838121 95.60439243477599 l -6.4299640006131344 -1.3763746188607673 a27.575625,27.575625 0 0,0 0.1033503080679494,-0.4632991661097098 l 6.405319305543147 1.4868519545204362" fill="#ff4b07" stroke="none" /><path d="M 79.71946130924805 94.55025226153421 l -13.296428179124248 -3.5729908610316317 a34.768125,34.768125 0 0,0 0.16028640298106894,-0.5766354732770131 l 13.232955005576818 3.8013376377275874" fill="#ffad10" stroke="none" /><path d="M 79.81627453868168 94.20196356495316 l -7.947341900394087 -2.2829768462996958 a29.26875,29.26875 0 0,0 0.14326928090055843,-0.48303279222201095 l 7.906866722381822 2.419439025268246" fill="#ff6309" stroke="none" /><path d="M 79.91906864156998 93.8553929516997 l -9.45058832056113 -2.8918056921063315 a30.883125,30.883125 0 0,0 0.15992240418338521,-0.5069977239991542 l 9.39941043260954 3.0540535825319" fill="#ff790b" stroke="none" /><path d="M 80.02781315780177 93.51064311812611 l -8.144907446583963 -2.646440853389196 a29.5640625,29.5640625 0 0,0 0.16142359111192667,-0.4826359910421683 l 8.098146561700263 2.7862499473536864" fill="#ff6709" stroke="none" /><path d="M 80.38941819471856 92.48833698450439 l -12.274998548743351 -4.701831568761789 a34.1446875,34.1446875 0 0,0 0.2149594249892379,-0.5470482898522947 l 12.192245573872423 4.912428863509847" fill="#ffa50f" stroke="none" /><path d="M 80.52162464483688 92.15188598940014 l -20.166205484892327 -8.125250536599161 a42.7415625,42.7415625 0 0,0 0.28082898540943163,-0.6800496633242449 l 20.023354812596693 8.471174770376717" fill="#edff19" stroke="none" /><path d="M 80.65960295795068 91.81776055985345 l -6.315848409044235 -2.672012567172856 a27.8578125,27.8578125 0 0,0 0.19063935522431885,-0.44002191600933943 l 6.268918343977235 2.7803336277687944" fill="#ff4f07" stroke="none" /><path d="M 80.95270993114464 91.15688171328213 l -8.589137365424463 -3.9876936524168403 a30.4696875,30.4696875 0 0,0 0.22495597062273365,-0.4738146450565653 l 8.519223200959978 4.134950713113938" fill="#ff730a" stroke="none" /><path d="M 81.10775173730289 90.83032412892265 l -21.472220916071684 -10.421909732221339 a44.8678125,44.8678125 0 0,0 0.343217372324224,-0.6919052791976875 l 21.28964353079405 10.789974599917988" fill="#d4ff1c" stroke="none" /><path d="M 81.43458229118936 90.18545643968196 l -9.96730863241771 -5.269183073945749 a32.274375,32.274375 0 0,0 0.26386899001361114,-0.488909163740906 l 9.875131543185628 5.439973221019128" fill="#ff8c0c" stroke="none" /><path d="M 81.6062741919709 89.86733742301443 l -4.293785368311795 -2.365343420315069 a25.9021875,25.9021875 0 0,0 0.21849402806836754,-0.38867649571481416 l 4.252433698950997 2.438903425964668" fill="#ff3404" stroke="none" /><line stroke="#e1ed5e" stroke-width="0.3" x1="26.266209847984243" x2="21.928928074336255" y1="57.711370442889674" y2="55.22380399835377" /><path d="M 25.398753493254645 57.213857153982495 a86.0,86.0 0 0,1 29.58750427330803,-30.492523968695096" fill="none" id="id95" stroke="none" /><text fill="#e1ed5e" style="font-size:6.75px; font-family:Arial;" text-anchor="middle"><textPath startOffset="21.46611528233685" xlink:href="#id95">November</textPath></text><path d="M 81.78341655067845 89.55222093294921 l -5.721145739552545 -3.2812556132456367 a27.5953125,27.5953125 0 0,0 0.23986939651633857,-0.410014553453714 l 5.6638166685658815 3.3792495790532424" fill="#ff4c07" stroke="none" /><path d="M 82.15384107792192 88.93136811851018 l -11.170580100288252 -6.928271768320036 a34.1446875,34.1446875 0 0,0 0.3140862552288301,-0.49680902779466773 l 11.049666248813459 7.119528443828919" fill="#ffa50f" stroke="none" /><path d="M 82.7489923806493 88.02491185347247 l -28.997865620152325 -20.129374731303603 a56.2996875,56.2996875 0 0,0 0.5594778233445402,-0.791341704266752 l 28.647075177003906 20.625542935902143" fill="#57ff2a" stroke="none" /><path d="M 82.95767976084542 87.72973835380427 l -8.185639439868936 -5.893560046938388 a31.0865625,31.0865625 0 0,0 0.3163981264134121,-0.43156668885253163 l 8.08297870094189 6.033589179462421" fill="#ff7c0b" stroke="none" /><path d="M 83.17141714833178 87.43820079747576 l -5.2589321411463175 -3.9255622507888233 a27.5625,27.5625 0 0,0 0.28707532845585715,-0.37775748165615264 l 5.190580872466351 4.015504508326003" fill="#ff4b07" stroke="none" /><path d="M 83.6137871275137 86.86637796730984 l -10.256745119871894 -8.220826541087 a34.1446875,34.1446875 0 0,0 0.37152917053954054,-0.4554508329778589 l 10.11371745725596 8.39616154367294" fill="#ffa50f" stroke="none" /><path d="M 84.31358615837235 86.03803664274999 l -7.794186877558742 -6.937350543133602 a31.434375,31.434375 0 0,0 0.3632262379528577,-0.4010834840558833 l 7.673616998989839 7.070486814459042" fill="#ff800b" stroke="none" /><path d="M 84.5562425177563 85.77008943001954 l -22.330708084481756 -20.575561314781126 a51.3646875,51.3646875 0 0,0 0.604715678417888,-0.6450685231548443 l 21.97322508409341 20.956899254814022" fill="#8bff24" stroke="none" /><path d="M 85.05521093208273 85.24692304244772 l -4.702938309810219 -4.642608905079737 a27.6084375,27.6084375 0 0,0 0.3367758714675354,-0.33532964884843436 l 4.62232663817537 4.72287440457828" fill="#ff4c07" stroke="none" /><path d="M 85.31137513191541 84.99185889309783 l -4.603965857090263 -4.704114228194652 a27.5821875,27.5821875 0 0,0 0.34217247721780214,-0.32916965198062376 l 4.5223101362600335 4.782666966937589" fill="#ff4b07" stroke="none" /><path d="M 85.57189188830299 84.74124197986013 l -4.5223101362600335 -4.782666966937589 a27.5821875,27.5821875 0 0,0 0.34778789512819364,-0.32323094522758017 l 4.4393143573369835 4.859802498239817" fill="#ff4b07" stroke="none" /><path d="M 86.37877921826538 84.01681056812374 l -15.745279897386359 -18.47556803390946 a45.2746875,45.2746875 0 0,0 0.5975018289122179,-0.5003905984812776 l 15.424920531515031 18.74385978978455" fill="#cfff1d" stroke="none" /><path d="M 86.65592168130627 83.78471172551755 l -3.723831855810468 -4.525078884097757 a26.8603125,26.8603125 0 0,0 0.3595401217735936,-0.2907231074680932 l 3.645388335472374 4.588508088829984" fill="#ff4106" stroke="none" /><path d="M 87.22198572758235 83.33499621200491 l -4.0051088485109085 -5.223437124799712 a27.5821875,27.5821875 0 0,0 0.3792601299229647,-0.2856508669709044 l 3.9146025648295537 5.29160458127647" fill="#ff4b07" stroke="none" /><path d="M 87.51073957382395 83.11751280151077 l -3.9224083525959133 -5.302156135775524 a27.5953125,27.5953125 0 0,0 0.3843037327288587,-0.27921300549872236 l 3.830559303513273 5.368888376090915" fill="#ff4c07" stroke="none" /><path d="M 88.09926311788651 82.69761687909137 l -4.726823930364452 -6.872290295835897 a29.340937500000003,29.340937500000003 0 0,0 0.4185908160338631,-0.2826343875352084 l 4.607828419924049 6.95263659566977" fill="#ff6409" stroke="none" /><path d="M 88.39885842347998 82.49532879139004 l -12.01080688844089 -18.122804910664 a42.7415625,42.7415625 0 0,0 0.616766800333418,-0.4011622834215464 l 11.697073062323184 18.326866118245082" fill="#edff19" stroke="none" /><line stroke="#e1ed5e" stroke-width="0.3" x1="56.762969772571076" x2="54.21961505331055" y1="26.818313649435495" y2="22.513508569990535" /><path d="M 56.25429882871897 25.957352633546506 a86.0,86.0 0 0,1 42.265352541879196,-11.944610805530505" fill="none" id="id96" stroke="none" /><text fill="#e1ed5e" style="font-size:6.75px; font-family:Arial;" text-anchor="middle"><textPath startOffset="22.20632615414155" xlink:href="#id96">December</textPath></text><path d="M 90.26544431104013 81.39251694778311 l -4.791226628159939 -9.158370564763002 a31.3359375,31.3359375 0 0,0 0.4800956786761416,-0.24592365363524613 l 4.632870461895034 9.239486743710755" fill="#ff7f0b" stroke="none" /><path d="M 92.23578459929587 80.48803036053334 l -2.433596264658203 -6.115782983870331 a27.5821875,27.5821875 0 0,0 0.4426505492207376,-0.1717415361087538 l 2.327962550437789 6.156767223869636" fill="#ff4b07" stroke="none" /><path d="M 92.57280143429618 80.3572730644239 l -2.7643104661728883 -7.310777431334733 a28.8159375,28.8159375 0 0,0 0.46547025235395234,-0.17143662220701203 l 2.6380578880463665 7.357277321348068" fill="#ff5d08" stroke="none" /><path d="M 93.59665428221793 80.00007090966166 l -2.0110507644909332 -6.281227729934384 a27.5953125,27.5953125 0 0,0 0.45363359617230803,-0.14094616650593167 l 1.9026317956078966 6.314914031322841" fill="#ff4c07" stroke="none" /><path d="M 93.94186890950719 79.89281104454417 l -2.3153419761477187 -7.684716278913268 a29.025937499999998,29.025937499999998 0 0,0 0.4796325834404086,-0.14001790349768595 l 2.182719174983889 7.723432511329653" fill="#ff6008" stroke="none" /><path d="M 94.63758080256005 79.69619591428918 l -1.6908378031927842 -6.402043225775693 a27.6215625,27.6215625 0 0,0 0.46074227735151174,-0.11745346535164214 l 1.580386637156273 6.430199687296199" fill="#ff4c07" stroke="none" /><path d="M 94.98787191387505 79.60689891045804 l -1.5709888969947887 -6.391962622753308 a27.5821875,27.5821875 0 0,0 0.4620362011551467,-0.10934904102247478 l 1.460729008877108 6.418057575916653" fill="#ff4b07" stroke="none" /><path d="M 96.40284397218896 79.31037775812273 l -2.7057357996691125 -15.562475230062063 a36.7959375,36.7959375 0 0,0 0.6249541066185212,-0.10312278240547232 l 2.4374524869117056 15.606744275407161" fill="#ffc712" stroke="none" /><path d="M 97.47563105711357 79.15227682838746 l -2.0407945172647453 -16.854081201550514 a37.9771875,37.9771875 0 0,0 0.6496509646216444,-0.07299585539551454 l 1.7503768491333829 16.886713010416624" fill="#ffd614" stroke="none" /><path d="M 97.83486435360386 79.11191278185805 l -3.5257880791782212 -34.01494452929302 a55.1971875,55.1971875 0 0,0 0.9459086112637569,-0.08982542033838013 l 2.9397543408242277 34.07059549414658" fill="#62ff29" stroke="none" /><path d="M 98.91598698831166 79.02799685794201 l -1.3560325268088802 -26.234665180518174 a47.2696875,47.2696875 0 0,0 0.8129467138436558,-0.035007195576950596 l 0.9042449805759003 26.254120102619318" fill="#b8ff1f" stroke="none" /><path d="M 99.27714615592234 79.0124445844662 l -0.49402542406182703 -14.343682404303882 a35.3521875,35.3521875 0 0,0 0.6083494738141209,-0.015711872102846438 l 0.24704931505282718 14.350061068549088" fill="#ffb410" stroke="none" /></svg>