<?xml version="1.0" encoding="utf-8" ?>
<svg baseProfile="full" height="200mm" version="1.1" viewBox="0,0,200,200" width="200mm" xmlns="http://www.w3.org/2000/svg" xmlns:ev="http://www.w3.org/2001/xml-events" xmlns:xlink="http://www.w3.org/1999/xlink"><defs /><rect fill="#1a1a1a" height="200" width="200" x="0" y="0" /><text alignment-baseline="middle" fill="#e1ed5e" style="dominant-baseline: central; font-size:9.0px; font-family:Arial;" text-anchor="middle" x="100.0" y="100.0">2022</text><line stroke="#e1ed5e" stroke-width="0.3" x1="100.0" x2="100.0" y1="15.0" y2="10.0" /><path d="M 100.0 14.0 a86.0,86.0 0 0,1 42.46469731375804,11.215312516191453" fill="none" id="id97" stroke="none" /><text fill="#e1ed5e" style="font-size:6.75px; font-family:Arial;" text-anchor="middle"><textPath startOffset="22.20632615414155" xlink:href="#id97">January</textPath></text><path d="M 100.0 79.0 l 0.0 -19.752685071183606 a40.752685071183606,40.752685071183606 0 0,0 0.7014904824368505,0.006037950050783186 l -0.3400100031643222 19.749758497741382" fill="#fffb17" stroke="none" /><path d="M 100.72285384407766 79.0124445844662 l 0.2022108436573814 -5.871050312108715 a26.874531555162886,26.874531555162886 0 0,0 0.4621896879232986,0.01990286020381193 l -0.30324136397001156 5.866699725380709" fill="#ff4606" stroke="none" /><path d="M 101.44485096284872 79.0497635885617 l 0.35042548170977483 -5.081144612962148 a26.093213975091345,26.093213975091345 0 0,0 0.44782144322336115,0.034759562838736845 l -0.43783711429547717 5.074359787934946" fill="#ff3b05" stroke="none" /><path d="M 102.52436894288641 79.15227682838746 l 0.24947674979377873 -2.060325703226014 a23.075374822065026,23.075374822065026 0 0,0 0.3939134289462473,0.051141268468331766 l -0.28490490724787215 2.055726111593546" fill="#ff1001" stroke="none" /><path d="M 103.2404852339499 79.25152402106235 l 0.93361897995994 -5.977861209250784 a27.05032801067898,27.05032801067898 0 0,0 0.4594315221796521,0.07581013772082888 l -1.0363797082784674 5.96090480859033" fill="#ff4806" stroke="none" /><path d="M 103.59715602781102 79.31037775812273 l 0.8389740495587594 -4.82549436885884 a25.897884580073463,25.897884580073463 0 0,0 0.43854352903752736,0.08014102683191453 l -0.9219126996991877 4.810337860676187" fill="#ff3805" stroke="none" /><path d="M 105.36241919743992 79.69619591428918 l 3.755813750210376 -14.220691027493029 a35.70830344484673,35.70830344484673 0 0,0 0.5929314658789663,0.16207056774060558 l -4.000043105313053 14.15393391892613" fill="#ffbc11" stroke="none" /><path d="M 107.08798089147638 80.2323363322302 l 1.6564446125328107 -4.619656921509771 a25.907651049824356,25.907651049824356 0 0,0 0.4184920539912898,0.15413415528471885 l -1.735718992296677 4.590459498418727" fill="#ff3805" stroke="none" /><path d="M 107.76421540070413 80.48803036053334 l 3.526047330543793 -8.861182348786134 a30.536957711748226,30.536957711748226 0 0,0 0.48672439618187696,0.19854710212436272 l -3.6780555963140573 8.799174360478192" fill="#ff780b" stroke="none" /><path d="M 108.09893153111575 80.62456947434976 l 2.0508973601566867 -4.906452062755121 a26.317842779361914,26.317842779361914 0 0,0 0.41646888645251606,0.17831024255469857 l -2.1350500043995178 4.870422292237632" fill="#ff3e05" stroke="none" /><path d="M 108.43124777332544 80.76684994638697 l 8.663715307108786 -19.76344913627006 a42.579014914600826,42.579014914600826 0 0,0 0.6687295474716674,0.3000394549521103 l -9.002626973047235 19.611389350801417" fill="#edff1a" stroke="none" /><path d="M 109.73455568895987 81.39251694778311 l 1.364965784185644 -2.609115249594318 a23.944590629894613,23.944590629894613 0 0,0 0.3635643491044611,0.19420348426084838 l -1.4096751798184162 2.5852330388317157" fill="#ff1c02" stroke="none" /><line stroke="#e1ed5e" stroke-width="0.3" x1="143.23703022742887" x2="145.7803849466894" y1="26.81831364943548" y2="22.513508569990506" /><path d="M 143.74570117128098 25.957352633546492 a86.0,86.0 0 0,1 28.547481713284135,27.462654790039103" fill="none" id="id98" stroke="none" /><text fill="#e1ed5e" style="font-size:6.75px; font-family:Arial;" text-anchor="middle"><textPath startOffset="19.985693538727396" xlink:href="#id98">February</textPath></text><path d="M 111.90073688211348 82.69761687909136 l 2.8265588087962956 -4.1095105209054354 a25.98773610178169,25.98773610178169 0 0,0 0.36638854345025323,0.2566785890362094 l -2.8968784918301997 4.060247089105291" fill="#ff3905" stroke="none" /><path d="M 113.34407831869373 83.78471172551755 l 3.1184799985559852 -3.789475072546112 a25.907651049824356,25.907651049824356 0 0,0 0.34191001064533477,0.286339801109954 l -3.1832475461604375 3.735234114042339" fill="#ff3805" stroke="none" /><path d="M 114.68862486808459 84.99185889309783 l 1.4721319168261962 -1.5041546594131932 a23.10467423131771,23.10467423131771 0 0,0 0.28183763746953255,0.2806273370865321 l -1.4978053544630512 1.4785914716765425" fill="#ff1001" stroke="none" /><path d="M 115.19652480421416 85.50635884689758 l 3.600864557515094 -3.434314056005485 a25.976016338080615,25.976016338080615 0 0,0 0.3058152420858419,0.326222377906056 l -3.659447121571399 3.3718222612213737" fill="#ff3905" stroke="none" /><path d="M 115.9244219780498 86.31012108654704 l 10.668300851594141 -9.17130600231034 a35.06859967616315,35.06859967616315 0 0,0 0.3895777192532372,0.4611371404577174 l -10.824589184334496 8.986309912223517" fill="#ffb410" stroke="none" /><path d="M 116.82858285166822 87.43820079747576 l 3.9328005856688395 -2.9356631925690886 a25.907651049824356,25.907651049824356 0 0,0 0.26368731672847917,0.35966920367987876 l -3.9827505149109452 2.867531545217716" fill="#ff3805" stroke="none" /><path d="M 117.04232023915458 87.72973835380427 l 3.9906763865824115 -2.8732380756559617 a25.917417519575253,25.917417519575253 0 0,0 0.2575541887432908,0.3642921348388154 l -4.0395431951295855 2.804119440485353" fill="#ff3805" stroke="none" /><path d="M 117.2510076193507 88.02491185347247 l 8.042983223669129 -5.583177237510556 a30.790885925271475,30.790885925271475 0 0,0 0.2984890978462008,0.4379959194691674 l -8.137896787184063 5.443903294770982" fill="#ff7c0b" stroke="none" /><path d="M 117.65298651832404 88.62581576622439 l 3.312684252076989 -2.1344309617151436 a24.940770544485826,24.940770544485826 0 0,0 0.229422314169352,0.3628910051279944 l -3.348934162492297 2.0770923088729427" fill="#ff2b04" stroke="none" /><line stroke="#e1ed5e" stroke-width="0.3" x1="172.23445277983987" x2="176.4835382374775" y1="55.19839476539836" y2="52.563006222186495" /><path d="M 173.08426987136738 54.67131705675599 a86.0,86.0 0 0,1 12.851231095245387,41.99856678651699" fill="none" id="id99" stroke="none" /><text fill="#e1ed5e" style="font-size:6.75px; font-family:Arial;" text-anchor="middle"><textPath startOffset="22.20632615414155" xlink:href="#id99">March</textPath></text><path d="M 118.56541770881063 90.18545643968196 l 15.053760117959477 -7.958117977285033 a38.02784001068411,38.02784001068411 0 0,0 0.30094610890819046,0.5813320931880505 l -15.188515660027784 7.697813161836638" fill="#ffda14" stroke="none" /><path d="M 119.04729006885535 91.15688171328212 l 5.434581139874249 -2.52312238039866 a26.991729192173615,26.991729192173615 0 0,0 0.1920238953554061,0.4230991996837506 l -5.477207352193002 2.4292011718728466" fill="#ff4806" stroke="none" /><path d="M 119.196687751892 91.48605970444005 l 10.824961555882668 -4.800988461117893 a32.84184457295927,32.84184457295927 0 0,0 0.22474657957318972,0.5187460922954489 l -10.905998845298537 4.613943224235841" fill="#ff970d" stroke="none" /><path d="M 119.34039704204932 91.81776055985345 l 4.510811068797705 -1.9083649706839378 a25.897884580073463,25.897884580073463 0 0,0 0.17015935369402363,0.41205437188894395 l -4.542992109377926 1.8304360283416907" fill="#ff3805" stroke="none" /><path d="M 119.61058180528143 92.48833698450437 l 4.829195168681963 -1.849781261126532 a26.1713457330985,26.1713457330985 0 0,0 0.15752085778101044,0.42207758440983545 l -4.860320614964599 1.7663805396873633" fill="#ff3c05" stroke="none" /><path d="M 119.7369772167798 92.82701384747503 l 9.192844373724352 -3.340944495744842 a30.78111945552058,30.78111945552058 0 0,0 0.17669376759943994,0.49953707484225374 l -9.248991222133602 3.1822097944759737" fill="#ff7c0b" stroke="none" /><path d="M 119.85752413597 93.16781622104841 l 5.573406093417504 -1.9175872301210692 a26.894064494664676,26.894064494664676 0 0,0 0.1468450579254669,0.4390480324053836 l -5.605588445114741 1.8213660947933716" fill="#ff4606" stroke="none" /><path d="M 119.97218684219823 93.5106431181261 l 4.667453510638205 -1.5165475768577779 a25.907651049824356,25.907651049824356 0 0,0 0.13415785619596546,0.4253170660813978 l -4.6928668506023765 1.435980344349961" fill="#ff3805" stroke="none" /><path d="M 120.18372546131832 94.20196356495316 l 5.167458150960227 -1.4844192512064749 a26.37644159786728,26.37644159786728 0 0,0 0.12159945200272616,0.43745792688415874 l -5.1922443735293164 1.3952500209033645" fill="#ff3f05" stroke="none" /><path d="M 120.37134235888165 94.90015583598534 l 19.13294484740249 -4.789818726790885 a40.72338566193092,40.72338566193092 0 0,0 0.16438130316478952,0.6814666256396246 l -19.2125589508281 4.459766869491854" fill="#fffb17" stroke="none" /><path d="M 120.45610955862082 95.25157060432595 l 5.094491368243845 -1.1825724974562453 a26.229944551603865,26.229944551603865 0 0,0 0.09830685070650222,0.4406903356809442 l -5.114092605952385 1.0947039922253372" fill="#ff3d05" stroke="none" /><path d="M 120.53481517161879 95.60439243477599 l 5.190493615938604 -1.1110581134910757 a26.30807630961102,26.30807630961102 0 0,0 0.09097671546314011,0.4436347743211378 l -5.2088496273167415 1.0215476830065262" fill="#ff3e05" stroke="none" /><path d="M 120.67395015179393 96.31383870115 l 5.129513806615555 -0.9145913159813942 a26.210411612102078,26.210411612102078 0 0,0 0.0753713317163607,0.44484586631641765 l -5.144496999852138 0.8261596613491387" fill="#ff3d05" stroke="none" /><path d="M 120.96714384426684 98.82574320788733 l 4.890221453476991 -0.27387496357786517 a25.897884580073463,25.897884580073463 0 0,0 0.021096159978591777,0.44530659446780974 l -4.89421122168908 0.18965726248705564" fill="#ff3805" stroke="none" /><path d="M 120.98425023603335 99.18683210126433 l 5.948198882591212 -0.2305007008691134 a26.95266331317004,26.95266331317004 0 0,0 0.013974706351805774,0.4637524695929222 l -5.951285283398663 0.12807808385119213" fill="#ff4706" stroke="none" /><line stroke="#e1ed5e" stroke-width="0.3" x1="184.98032266829074" x2="189.97916517819016" y1="98.17113171792111" y2="98.06355123074" /><path d="M 185.9800911702706 98.14961562048488 a86.0,86.0 0 0,1 -9.607161424134198,41.387399972396054" fill="none" id="id100" stroke="none" /><text fill="#e1ed5e" style="font-size:6.75px; font-family:Arial;" text-anchor="middle"><textPath startOffset="21.466115282336823" xlink:href="#id100">April</textPath></text><path d="M 120.99513854157772 99.54816195383933 l 5.082270697307637 -0.10937595183682611 a26.08344750534045,26.08344750534045 0 0,0 0.005796726850136378,0.44896288276018326 l -5.083400431275488 0.021876811016180126" fill="#ff3b05" stroke="none" /><path d="M 120.9904718944345 100.63252640178507 l 2.039289845773455 0.06145191374596609 a23.040215530961806,23.040215530961806 0 0,0 -0.015357803622954677,0.3963166706421274 l -2.0379299092992973 -0.09654583140209964" fill="#ff0f01" stroke="none" /><path d="M 120.9764740272857 100.99374915477107 l 4.941175198947316 0.23408551271021297 a25.946716928827932,25.946716928827932 0 0,0 -0.024975134839044344,0.44594780989773725 l -4.936413713220742 -0.3191050389433735" fill="#ff3905" stroke="none" /><path d="M 120.8583938346157 102.4346265915055 l 4.86485740607922 0.5678342876557926 a25.897884580073463,25.897884580073463 0 0,0 -0.05549360570488716,0.44233863811364743 l -4.854362291127485 -0.6514906800568349" fill="#ff3805" stroke="none" /><path d="M 120.76222939487914 103.15116336523771 l 4.842428723863169 0.7349540217090549 a25.897884580073463,25.897884580073463 0 0,0 -0.07068672904207864,0.4401663292207757 l -4.829060240459802 -0.8181995806230355" fill="#ff3805" stroke="none" /><path d="M 120.64145759157962 103.86396538481128 l 9.623721743356429 1.8015068715183309 a30.790885925271475,30.790885925271475 0 0,0 -0.10200590464570557,0.5201259101622321 l -9.59128590573506 -1.966896508748508" fill="#ff7c0b" stroke="none" /><path d="M 120.5718875245553 104.21870165774334 l 5.372076843960337 1.1016582440521572 a26.483872765127117,26.483872765127117 0 0,0 -0.09542512814632785,0.4457944300387108 l -5.352317677089566 -1.193966493507037" fill="#ff4006" stroke="none" /><path d="M 120.41448212921028 104.9243191809786 l 14.829882546131019 3.5772190845380876 a36.255225750896805,36.255225750896805 0 0,0 -0.15156183898129028,0.6054142070096262 l -14.766109392854668 -3.8319611309451096" fill="#ffc312" stroke="none" /><path d="M 120.32669344350535 105.2749913415812 l 5.100074274932839 1.3235230666740636 a26.269010430607445,26.269010430607445 0 0,0 -0.11734982862348588,0.43670236751576924 l -5.0765363699675765 -1.411116367365381" fill="#ff3d05" stroke="none" /><path d="M 120.02730092923936 106.31721596034902 l 10.2594774110617 3.2361492282455435 a31.757766430610005,31.757766430610005 0 0,0 -0.16893279051024954,0.5199216682424747 l -10.202252369535204 -3.4122697964658135" fill="#ff890c" stroke="none" /><path d="M 119.9155931802556 106.66101706037122 l 4.644965559075721 1.5535663213142135 a25.897884580073463,25.897884580073463 0 0,0 -0.14503946122812172,0.4215525657958 l -4.617535266904368 -1.6332915901993137" fill="#ff3805" stroke="none" /><path d="M 119.67450827220406 107.3425965602758 l 2.786182103610892 1.0398130843848274 a23.973890039147296,23.973890039147296 0 0,0 -0.1476171963075235,0.3853819185023698 l -2.767870627709862 -1.087618569720341" fill="#ff1d02" stroke="none" /><path d="M 119.54520255179757 107.68017299344265 l 10.921499373377335 4.291539282492577 a32.73441340569943,32.73441340569943 0 0,0 -0.21058731785370283,0.5226604527726523 l -10.84600944126624 -4.478899103108043" fill="#ff960d" stroke="none" /><path d="M 119.41010516605496 108.01547362559984 l 4.536096333113846 1.8731975025483079 a25.907651049824356,25.907651049824356 0 0,0 -0.17376510618951466,0.41072938164944245 l -4.503180245732023 -1.9510014098639137" fill="#ff3805" stroke="none" /><path d="M 119.26925614724726 108.34839909993367 l 4.480776363912463 1.941294935187975 a25.883234875447123,25.883234875447123 0 0,0 -0.18063899176148654,0.4072932391210468 l -4.446696287419703 -2.0181365108017095" fill="#ff3805" stroke="none" /><path d="M 118.81262510543309 109.33194174019688 l 7.01247364870197 3.4785148365845835 a28.827825505341735,28.827825505341735 0 0,0 -0.22433721863106035,0.44263861523652814 l -6.951557760284642 -3.598707663523806" fill="#ff6108" stroke="none" /><path d="M 118.64920377521936 109.65438752849418 l 11.027954700189543 5.7089916334005215 a33.418066288262025,33.418066288262025 0 0,0 -0.2688523085417203,0.5085672481230848 l -10.92804988342293 -5.897973896609741" fill="#ff9f0e" stroke="none" /><line stroke="#e1ed5e" stroke-width="0.3" x1="174.80103733775053" x2="179.2010983576182" y1="140.37084112569926" y2="142.7455964860345" /><path d="M 175.68104954172406 140.8457921977663 a86.0,86.0 0 0,1 -30.038265399797805,32.042727171017184" fill="none" id="id101" stroke="none" /><text fill="#e1ed5e" style="font-size:6.75px; font-family:Arial;" text-anchor="middle"><textPath startOffset="22.206326154141568" xlink:href="#id101">May</textPath></text><path d="M 118.30583269289576 110.29060199501025 l 4.278030430152328 2.4048896992446016 a25.907651049824356,25.907651049824356 0 0,0 -0.22187806312817232,0.3868631052215669 l -4.236000370871777 -2.4781726503244834" fill="#ff3805" stroke="none" /><path d="M 118.12598468904814 110.60418214915192 l 13.677434033312354 8.00166194059995 a36.84609717082591,36.84609717082591 0 0,0 -0.32498104056754296,0.5446869168657303 l -13.537672117046583 -8.235910951351785" fill="#ffcb12" stroke="none" /><path d="M 117.55443506779139 111.5257021239791 l 5.114771629328044 3.3582017310245043 a27.11869329893524,27.11869329893524 0 0,0 -0.25956062563833676,0.3880079176811614 l -5.056207898278986 -3.4457465629114723" fill="#ff4906" stroke="none" /><path d="M 117.14729908036423 112.12312394758627 l 12.468434350274691 8.8151710862625 a36.26987545552315,36.26987545552315 0 0,0 -0.36480622020126796,0.5066839330058732 l -12.314848337697821 -9.028488624719506" fill="#ffc312" stroke="none" /><path d="M 116.498646956653 112.99209946851258 l 4.032174923593083 3.175194779268784 a26.132279854094925,26.132279854094925 0 0,0 -0.2813352567705075,0.3510089900944762 l -3.9769217547677216 -3.2441316029415104" fill="#ff3b05" stroke="none" /><path d="M 115.32070863581623 114.36230785411682 l 6.09561012580313 5.71429372273237 a29.355214871890023,29.355214871890023 0 0,0 -0.34875875206663576,0.3656721572227514 l -5.99634482235753 -5.8183729965376285" fill="#ff6809" stroke="none" /><path d="M 115.07121518719521 114.62390073753431 l 3.5150986889682074 3.410770377280679 a25.897884580073463,25.897884580073463 0 0,0 -0.313190980016159,0.3172608092388315 l -3.455867083896513 -3.4707716805001754" fill="#ff3805" stroke="none" /><path d="M 114.55890576462653 115.13401014063108 l 3.391548884745387 3.525521494815403 a25.892024698222926,25.892024698222926 0 0,0 -0.3238527172995869,0.30622295807417665 l -3.3303603330549922 -3.5833790896355007" fill="#ff3805" stroke="none" /><path d="M 114.29624159901734 115.38237550388516 l 21.518688796032105 23.153536481543814 a52.60917934876921,52.60917934876921 0 0,0 -0.6686387462078599,0.6107856413892235 l -21.11695050035738 -23.52051488951962" fill="#7bff26" stroke="none" /><path d="M 112.92097659922987 116.55440617244103 l 3.614508797890341 4.630922925570862 a26.874531555162886,26.874531555162886 0 0,0 -0.3671205256367287,0.28149236423593826 l -3.5342595437601187 -4.692454631634172" fill="#ff4606" stroke="none" /><path d="M 112.63410532772338 116.77436683061366 l 3.0583243433535188 4.060553010416602 a26.08344750534045,26.08344750534045 0 0,0 -0.36096389849287336,0.2670324626769851 l -2.9879754744420812 -4.1125954218333565" fill="#ff3b05" stroke="none" /><path d="M 112.04921762599082 117.19931262002967 l 7.472573286102499 10.66651196892053 a34.02358741281747,34.02358741281747 0 0,0 -0.48255672720662907,0.33190691715988124 l -7.287859674272987 -10.793559675445506" fill="#ffa70f" stroke="none" /><path d="M 111.7513745106137 117.40417183066458 l 0.8771664624827996 1.2991123568871408 a22.567518395018524,22.567518395018524 0 0,0 -0.32381734662239803,0.21460848012110822 l -0.8546744171204376 -1.3140188580995673" fill="#ff0801" stroke="none" /><path d="M 111.45004920935366 117.60387380957326 l 2.75040085011032 4.228602742731633 a26.044381626336875,26.044381626336875 0 0,0 -0.377914144570448,0.2412026874537536 l -2.6772049034929415 -4.275319859009196" fill="#ff3a05" stroke="none" /><line stroke="#e1ed5e" stroke-width="0.3" x1="143.8653032363475" x2="146.44561519142675" y1="172.8068346515853" y2="177.08958963109032" /><path d="M 144.38136562736335 173.6633856474863 a86.0,86.0 0 0,1 -40.68145358897372,12.25698825130547" fill="none" id="id102" stroke="none" /><text fill="#e1ed5e" style="font-size:6.75px; font-family:Arial;" text-anchor="middle"><textPath startOffset="21.466115282336833" xlink:href="#id102">June</textPath></text><path d="M 110.8373102113329 117.98757091392108 l 2.5200538657152425 4.182739695782746 a25.883234875447123,25.883234875447123 0 0,0 -0.3836044902360875,0.22664029440730626 l -2.447681504450773 -4.225498562483802" fill="#ff3805" stroke="none" /><path d="M 110.21172684928248 118.3499491758327 l 4.7610406038741315 8.555345672147965 a30.790885925271475,30.790885925271475 0 0,0 -0.46534879976361243,0.2537452690460351 l -4.61306899224187 -8.63603159295377" fill="#ff7c0b" stroke="none" /><path d="M 109.89434966115114 118.52300852407294 l 2.307684887390822 4.320169420315528 a25.897884580073463,25.897884580073463 0 0,0 -0.3950156207769675,0.20665350319931283 l -2.2329783640873586 -4.359252342459558" fill="#ff3805" stroke="none" /><path d="M 109.2508944713604 118.85261126421891 l 2.1576101611029963 4.397043524054146 a25.897884580073463,25.897884580073463 0 0,0 -0.4018948814399073,0.19293396620288 l -2.0816026116628565 -4.433531766756586" fill="#ff3805" stroke="none" /><path d="M 108.59647513512805 119.15986991738527 l 0.7995925178242155 1.782136095040114 a22.95329395017885,22.95329395017885 0 0,0 -0.3618743369241655,0.15863507480109054 l -0.7687975062422963 -1.795635723135659" fill="#ff0e01" stroke="none" /><path d="M 108.2653958097858 119.30500536409082 l 0.8130033628512279 1.8988847772159585 a23.065608352314133,23.065608352314133 0 0,0 -0.3663351756928811,0.15312813315028675 l -0.7801967276608857 -1.9125979533862185" fill="#ff1001" stroke="none" /><path d="M 107.93186726928326 119.44442032107085 l 1.1121953351761553 2.7264694229122672 a23.944590629894613,23.944590629894613 0 0,0 -0.38297539692319116,0.15239381414715664 l -1.065098862211098 -2.7452100814654927" fill="#ff1c02" stroke="none" /><path d="M 107.59598834532513 119.57807347666477 l 1.8387527621256272 4.739243274967792 a26.08344750534045,26.08344750534045 0 0,0 -0.419980492704368,0.15880068603855285 l -1.7569020486609843 -4.770192211112976" fill="#ff3b05" stroke="none" /><path d="M 107.2578585660854 119.70592522655815 l 5.375343924097249 14.594680300091095 a36.55310307829908,36.55310307829908 0 0,0 -0.592300284563343,0.21237780900967018 l -5.123324078904172 -14.685045650140726" fill="#ffc712" stroke="none" /><path d="M 106.2309692047433 120.05430185196036 l 1.4489183870685491 4.663326962201745 a25.883234875447123,25.883234875447123 0 0,0 -0.4266112063253931,0.12853445692075305 l -1.3684322063029102 -4.687576788228223" fill="#ff3805" stroke="none" /><path d="M 104.83641907484287 120.43548508189849 l 1.1325091376495353 4.78522916013078 a25.917417519575253,25.917417519575253 0 0,0 -0.4350174978772716,0.09900856622148929 l -1.0499714903794017 -4.804014459929954" fill="#ff3805" stroke="none" /><path d="M 104.13013068566511 120.58985236759428 l 0.9690435137254155 4.830951948961882 a25.927183989326146,25.927183989326146 0 0,0 -0.43833285615089407,0.08400753512230913 l -0.8857430430028171 -4.84691668243266" fill="#ff3905" stroke="none" /><path d="M 102.34483914955558 120.86867818915974 l 1.0932406012575877 9.729659407679232 a30.790885925271475,30.790885925271475 0 0,0 -0.5272094714458553,0.05464741734483655 l -0.9255985332061298 -9.747036193479827" fill="#ff7c0b" stroke="none" /><path d="M 101.62511606390274 120.93702456842531 l 0.760327464813197 9.7956048582849 a30.825068569399605,30.825068569399605 0 0,0 -0.5293651251270686,0.03650811836761874 l -0.591599578907198 -9.807241321168805" fill="#ff7c0b" stroke="none" /><path d="M 100.90346689309514 120.98055641714683 l 0.47626874477817066 11.060043645107685 a32.070293462638624,32.070293462638624 0 0,0 -0.5517306830415609,0.0190027202899971 l -0.28581771006195744 -11.066603163823775" fill="#ff8d0d" stroke="none" /><line stroke="#e1ed5e" stroke-width="0.3" x1="102.19456741930631" x2="102.32365962044197" y1="184.97166512339345" y2="189.96999836594603" /><path d="M 102.22038585953345 185.97133177190398 a86.0,86.0 0 0,1 -42.740103519485714,-10.115201625700543" fill="none" id="id103" stroke="none" /><text fill="#e1ed5e" style="font-size:6.75px; font-family:Arial;" text-anchor="middle"><textPath startOffset="22.20632615414155" xlink:href="#id103">July</textPath></text><path d="M 100.18074693466247 120.99922214144158 l 0.04299667708944284 4.995364238022425 a25.995549277582406,25.995549277582406 0 0,0 -0.4474872235037931,0.0 l 0.0429966770894394 -4.995364238022425" fill="#ff3a05" stroke="none" /><path d="M 99.09653310690486 120.98055641714683 l -0.28508896632729325 6.620414303666134 a27.626549725981743,27.626549725981743 0 0,0 -0.47492924188797464,-0.024548416970497984 l 0.3990062766287568 -6.614526079933435" fill="#ff5007" stroke="none" /><path d="M 98.73552117531835 120.96189622390904 l -0.7171527698581708 11.888599195989423 a32.91020986121553,32.91020986121553 0 0,0 -0.565173677454038,-0.03897768578880511 l 0.921689208091139 -11.874493165684333" fill="#ff980e" stroke="none" /><path d="M 98.37488393609728 120.93702456842531 l -0.6057678559122984 7.804351186794583 a28.827825505341735,28.827825505341735 0 0,0 -0.4944050077573399,-0.04265934441708153 l 0.74001718141118 -7.792767590098838" fill="#ff6108" stroke="none" /><path d="M 97.65516085044442 120.86867818915974 l -0.5468929292076601 4.86725605281909 a25.897884580073463,25.897884580073463 0 0,0 -0.4425733607985072,-0.05358947055043047 l 0.6305937130575566 -4.8571210535433105" fill="#ff3805" stroke="none" /><path d="M 97.2962882734958 120.8252237178851 l -1.6365258575162704 12.605270291498735 a33.71106038078885,33.71106038078885 0 0,0 -0.574807946815946,-0.0796631437667466 l 1.8532623955190475 -12.575232582239385" fill="#ffa20f" stroke="none" /><path d="M 96.58105272829116 120.7198165907248 l -0.7974099581993804 4.832536675317205 a25.897884580073463,25.897884580073463 0 0,0 -0.4392170585662524,-0.07636351554747922 l 0.8804759882376829 -4.81809458124872" fill="#ff3805" stroke="none" /><path d="M 95.86986931433489 120.58985236759428 l -0.970964313554404 4.840527671358239 a25.93695045907704,25.93695045907704 0 0,0 -0.4369864065192592,-0.09157475022535974 l 1.05414218150305 -4.823096940406338" fill="#ff3905" stroke="none" /><path d="M 95.16358092515715 120.4354850818985 l -4.576146654514343 19.335747222018014 a40.86988270819433,40.86988270819433 0 0,0 -0.6832018132210419,-0.16791438347219967 l 4.908301752478595 -19.254111580231783" fill="#fffd17" stroke="none" /><path d="M 94.46302465271185 120.25689768951611 l -1.2914031511299782 4.724568896838416 a25.897884580073463,25.897884580073463 0 0,0 -0.4290031836872232,-0.1212405849069868 l 1.3725375029218152 -4.701639518592907" fill="#ff3805" stroke="none" /><path d="M 93.76903079525671 120.05430185196036 l -1.8430241883511898 5.931751895920618 a27.211474761568738,27.211474761568738 0 0,0 -0.44611094900022424,-0.14283063815042676 l 1.9448564824423544 -5.899148411110485" fill="#ff4b06" stroke="none" /><path d="M 93.42475214034765 119.94407469862007 l -1.5335621477120138 4.651608377628786 a25.897884580073463,25.897884580073463 0 0,0 -0.4221728449836881,-0.14322395051366138 l 1.6134047256329278 -4.624521440217002" fill="#ff3805" stroke="none" /><path d="M 92.40401165467489 119.57807347666478 l -14.059369078131398 36.23693828027116 a59.868773518125046,59.868773518125046 0 0,0 -0.957555201331502,-0.38103097629694893 l 14.681045355504757 -35.989560459568146" fill="#32ff2f" stroke="none" /><path d="M 92.06813273071674 119.44442032107085 l -7.356148703905488 18.03308634487071 a40.475757414681794,40.475757414681794 0 0,0 -0.6428485855358852,-0.26871076089056495 l 7.665468748938835 -17.903790540960173" fill="#fff817" stroke="none" /><path d="M 91.7346041902142 119.30500536409082 l -8.481945111433383 19.810787001909947 a42.55018966293366,42.55018966293366 0 0,0 -0.6708327660375781,-0.2940733706731266 l 8.821698552128705 -19.661849077942367" fill="#edff1a" stroke="none" /><path d="M 91.40352486487194 119.15986991738527 l -3.3115290621381988 7.38075374625784 a29.089607567260913,29.089607567260913 0 0,0 -0.45508890840054617,-0.20890899714527134 l 3.438085966306164 -7.322657678778494" fill="#ff6509" stroke="none" /><path d="M 91.07499286063937 119.00905698771935 l -7.303986666650797 15.55650282581775 a38.185837232916185,38.185837232916185 0 0,0 -0.5925847912386702,-0.2844767111130248 l 7.570684125889709 -15.428471838205162" fill="#ffdc14" stroke="none" /><path d="M 90.10565033884886 118.52300852407294 l -29.683048983453403 55.569025572218784 a84.0,84.0 0 0,0 -1.2695087525254378,-0.6922373929609367 l 30.635180547847483 -55.04984752749809" fill="#4dd2ff" stroke="none" /><line stroke="#e1ed5e" stroke-width="0.3" x1="58.666819895761336" x2="56.23545636021788" y1="174.27360380694188" y2="178.64263932499728" /><path d="M 58.180547188652646 175.14741091055294 a86.0,86.0 0 0,1 -31.652253787137756,-30.449443065178592" fill="none" id="id104" stroke="none" /><text fill="#e1ed5e" style="font-size:6.75px; font-family:Arial;" text-anchor="middle"><textPath startOffset="22.20632615414155" xlink:href="#id104">August</textPath></text><path d="M 89.1626897886671 117.98757091392108 l -12.739046810948599 21.14403882691064 a45.685090471080805,45.685090471080805 0 0,0 -0.6700932437174842,-0.41162600052940246 l 13.101119254598393 -20.921624359552858" fill="#c8ff1d" stroke="none" /><path d="M 88.54995079064634 117.60387380957326 l -12.218104402728905 18.784719975013292 a43.408654125931946,43.408654125931946 0 0,0 -0.6228631324661544,-0.4127997205100531 l 12.539642233935021 -18.571622233411922" fill="#e3ff1b" stroke="none" /><path d="M 88.24862548938628 117.40417183066458 l -10.966509043688605 16.241760281446926 a40.5974257912944,40.5974257912944 0 0,0 -0.5757935130461975,-0.39603602863873594 l 11.244459441357694 -16.05058346344309" fill="#fff917" stroke="none" /><path d="M 87.95078237400918 117.19931262002967 l -26.616132775285095 37.992440882708586 a67.38797352911325,67.38797352911325 0 0,0 -0.944306621012411,-0.6737377011965326 l 27.266166724146395 -37.52865891966783" fill="#38ff84" stroke="none" /><path d="M 87.65650970185807 116.9893568818739 l -11.582135578605952 15.941442010839173 a40.704705984768154,40.704705984768154 0 0,0 -0.5633047301841447,-0.4167193726760967 l 11.854825279208661 -15.73971268942331" fill="#fffb17" stroke="none" /><path d="M 87.36589467227662 116.77436683061367 l -22.248072215114938 29.538880271276845 a57.98002386383489,57.98002386383489 0 0,0 -0.7920382460855379,-0.6073011528549572 l 22.75323918969396 -29.15153977659452" fill="#44ff2d" stroke="none" /><path d="M 87.07902340077011 116.55440617244103 l -12.010075416380197 15.387355984860829 a40.51954496682677,40.51954496682677 0 0,0 -0.5461311238744001,-0.43387959442778307 l 12.273164032971955 -15.178342476427915" fill="#fff917" stroke="none" /><path d="M 86.24171649860922 115.8653595955263 l -9.68474771537846 11.16796329141632 a35.78234563217052,35.78234563217052 0 0,0 -0.46186087688282756,-0.40753852420574327 l 9.875550945167877 -10.99960162543829" fill="#ffbd11" stroke="none" /><path d="M 85.97065885151581 115.62618273729859 l -24.080157943620666 26.820999246331972 a57.04469457716985,57.04469457716985 0 0,0 -0.7250121277701099,-0.6622813888463588 l 24.53826962085763 -26.402525090899037" fill="#4eff2c" stroke="none" /><path d="M 85.44109423537348 115.13401014063109 l -36.933068165745645 38.39199436973295 a74.27285195877184,74.27285195877184 0 0,0 -0.9137330876540137,-0.8942801415915561 l 37.58845120577545 -37.75056412521882" fill="#41ffce" stroke="none" /><path d="M 85.18274418774928 114.88116024355367 l -13.738973561150598 13.798227535249193 a40.47178670868455,40.47178670868455 0 0,0 -0.489437602639205,-0.4957977074474328 l 13.974451788845336 -13.559689333821096" fill="#fff817" stroke="none" /><path d="M 84.9287848128048 114.62390073753433 l -13.887139932666898 13.474968898069626 a40.350127707935556,40.350127707935556 0 0,0 -0.47938535781677727,-0.5026336311134866 l 14.117031841862632 -13.23392815037364" fill="#fff617" stroke="none" /><path d="M 83.95833913139862 113.55231037782056 l -27.641627248468403 23.352189956371184 a57.18541602222799,57.18541602222799 0 0,0 -0.6287781574897475,-0.7574037963737654 l 28.039501405851688 -22.87292490288366" fill="#4cff2c" stroke="none" /><path d="M 83.72743513129214 113.27417163493432 l -11.347890985297363 9.25692131810334 a35.64463116994584,35.64463116994584 0 0,0 -0.38374345899694,-0.47877896835288175 l 11.505552356349165 -9.060214516172199" fill="#ffbb11" stroke="none" /><path d="M 83.50135304334701 112.99209946851258 l -22.97997702562722 18.09591708250299 a50.24964203465024,50.24964203465024 0 0,0 -0.5292799169189059,-0.6841656402684864 l 23.288063759764196 -17.69767344812125" fill="#95ff23" stroke="none" /><path d="M 82.6465618267979 111.8261652097733 l -16.06098189928267 10.945371371156197 a40.43595364322552,40.43595364322552 0 0,0 -0.38702386247828535,-0.5785481623178057 l 16.247008867171683 -10.667286294632571" fill="#fff817" stroke="none" /><path d="M 82.24976979558568 111.22182372390057 l -39.39257511889856 24.904270475593922 a67.60469571212332,67.60469571212332 0 0,0 -0.6133850027451244,-0.9889719304618703 l 39.81542476131165 -24.222502213766788" fill="#39ff87" stroke="none" /><path d="M 82.05923443525364 110.91462005526583 l -16.627434571560713 10.115629134521978 a40.462721629276885,40.462721629276885 0 0,0 -0.356879517478137,-0.5981505989648513 l 16.799094964737083 -9.827916441671015" fill="#fff817" stroke="none" /><line stroke="#e1ed5e" stroke-width="0.3" x1="26.63291911575756" x2="22.317208475507996" y1="142.92168965132927" y2="145.44649492493687" /><path d="M 25.769776987707644 143.4266507060508 a86.0,86.0 0 0,1 -11.730757126820373,-40.83630448921669" fill="none" id="id105" stroke="none" /><text fill="#e1ed5e" style="font-size:6.75px; font-family:Arial;" text-anchor="middle"><textPath startOffset="21.46611528233685" xlink:href="#id105">September</textPath></text><path d="M 81.69416730710424 110.29060199501025 l -34.16507596712406 19.205856669028044 a60.19333293087751,60.19333293087751 0 0,0 -0.49995891699447254,-0.9075706572290964 l 34.490611293570055 -18.614915493401124" fill="#2fff30" stroke="none" /><path d="M 81.51974371655577 109.97397251340807 l -32.00476993237929 17.27328294085794 a57.368552376737014,57.368552376737014 0 0,0 -0.4615368109913795,-0.8730537117071562 l 32.29735925159556 -16.719814214064655" fill="#4aff2c" stroke="none" /><path d="M 81.02952815118164 109.00673069616217 l -12.801588417780994 6.07789096027382 a35.17114760854754,35.17114760854754 0 0,0 -0.2549495914711506,-0.549138738648429 l 12.904312626091972 -5.856632154346564" fill="#ffb510" stroke="none" /><path d="M 80.73074385275274 108.34839909993369 l -9.391707258760512 4.068954184154001 a31.235260298937163,31.235260298937163 0 0,0 -0.20949789358610474,-0.49519113576022156 l 9.460356133538925 -3.906688522727621" fill="#ff820b" stroke="none" /><path d="M 80.58989483394504 108.01547362559985 l -4.513528689665519 1.8638781119883698 a25.883234875447123,25.883234875447123 0 0,0 -0.16651225553499588,-0.41326976266716986 l 4.544943559457903 -1.7859089814783946" fill="#ff3805" stroke="none" /><path d="M 80.45479744820244 107.68017299344265 l -7.408258001916378 2.9110316398097815 a28.959672846978805,28.959672846978805 0 0,0 -0.1783167314388042,-0.46552871739817875 l 7.457269012948691 -2.7830793555784448" fill="#ff6309" stroke="none" /><path d="M 80.20201598880116 107.00284435728193 l -13.074576428722237 4.624674093884401 a34.868387046269824,34.868387046269824 0 0,0 -0.1952781917553186,-0.5675698329363138 l 13.152245451420784 -4.39893155785879" fill="#ffb110" stroke="none" /><path d="M 80.0844068197444 106.66101706037122 l -4.640334486733671 1.5520174017515875 a25.893001345198016,25.893001345198016 0 0,0 -0.1377356616526333,-0.4239067783502521 l 4.666362399402554 -1.471911723423532" fill="#ff3805" stroke="none" /><path d="M 79.86692584326677 105.97154293290107 l -9.625460638908782 2.8549465921959176 a31.039930903919277,31.039930903919277 0 0,0 -0.1475244597503672,-0.5135519977819344 l 9.673177735545254 -2.6888371189093876" fill="#ff7f0b" stroke="none" /><path d="M 79.67330655649465 105.27499134158121 l -15.134789460922098 3.927637497210707 a36.63611807118168,36.63611807118168 0 0,0 -0.15315412641905213,-0.6117746038149302 l 15.200154901636209 -3.666535053998385" fill="#ffc812" stroke="none" /><path d="M 79.50377843672027 104.57218783832718 l -9.532177519304657 2.12638734373471 a30.76646975089424,30.76646975089424 0 0,0 -0.11085592898842041,-0.5178819943948446 l 9.567367487017519 -1.9619915299237014" fill="#ff7b0b" stroke="none" /><path d="M 79.35854240842038 103.8639653848113 l -4.799861218631638 0.8985071678395705 a25.883234875447123,25.883234875447123 0 0,0 -0.07820873031511932,-0.43863609345427496 l 4.814616391285946 -0.8157523236520818" fill="#ff3805" stroke="none" /><path d="M 79.29508885075956 103.50808413554451 l -4.833874856851088 0.8190153329466898 a25.90276781494891,25.90276781494891 0 0,0 -0.0707000575399854,-0.4402493257899713 l 4.8472566687523635 -0.7356867774635049" fill="#ff3805" stroke="none" /><path d="M 79.18660465613746 102.79330883721812 l -7.085529804796247 0.9509295669025021 a28.149055857654584,28.149055857654584 0 0,0 -0.06031738236764883,-0.48078888427203437 l 7.100848696410744 -0.828822928343059" fill="#ff5808" stroke="none" /><path d="M 79.1416061653843 102.43462659150553 l -19.45942962431688 2.271337150623192 a40.59153832029385,40.59153832029385 0 0,0 -0.0750319093393174,-0.6947022939365917 l 19.495643835157246 -1.9360385348018185" fill="#fff917" stroke="none" /><path d="M 79.04373962182676 101.35467743843564 l -12.046213918145783 0.7787044977966631 a33.07135661210528,33.07135661210528 0 0,0 -0.03183299039192414,-0.5683994276412303 l 12.057833259425239 -0.5712333538199952" fill="#ff9a0e" stroke="none" /><path d="M 79.0235259727143 100.99374915477108 l -10.272571538976356 0.48665754172528713 a31.284092647691637,31.284092647691637 0 0,0 -0.020852884416814828,-0.5381202890889694 l 10.279426556244372 -0.30976000562232103" fill="#ff820c" stroke="none" /><path d="M 79.0095281055655 100.63252640178507 l -31.06280655457701 0.9360459049289891 a52.076906747345475,52.076906747345475 0 0,0 -0.019288138868550735,-0.8962440219351624 l 31.074316756130568 -0.40121206720369773" fill="#81ff25" stroke="none" /><line stroke="#e1ed5e" stroke-width="0.3" x1="15.007084014347285" x2="10.007500721073583" y1="101.09737516637583" y2="101.16192664675087" /><path d="M 14.007167355692545 101.11028546245083 a86.0,86.0 0 0,1 10.666146001902534,-42.60595125391555" fill="none" id="id106" stroke="none" /><text fill="#e1ed5e" style="font-size:6.75px; font-family:Arial;" text-anchor="middle"><textPath startOffset="22.20632615414155" xlink:href="#id106">October</textPath></text><path d="M 79.00019446554 99.90962569577889 l -10.196100000483401 -0.043879713162131746 a31.196194419933587,31.196194419933587 0 0,0 0.006932972252961518,-0.5369663413953437 l 10.193834021112725 0.21938231261794744" fill="#ff810b" stroke="none" /><path d="M 79.00486145842228 99.54816195383935 l -10.066899306290441 -0.21665054052596155 a31.069230313171964,31.069230313171964 0 0,0 0.016109108222750038,-0.534582876603682 l 10.061678503612047 0.38990356455463787" fill="#ff7f0b" stroke="none" /><path d="M 79.01574976396665 99.18683210126434 l -4.8893316491849035 -0.18946817249454276 a25.893001345198016,25.893001345198016 0 0,0 0.021092182143880936,-0.4452226286641185 l 4.885345858807524 0.2736019077816704" fill="#ff3805" stroke="none" /><path d="M 79.03285615573316 98.82574320788736 l -4.885345858807524 -0.2736019077816704 a25.893001345198016,25.893001345198016 0 0,0 0.02875283278533106,-0.444793596884036 l 4.87991243501778 0.35765456891871816" fill="#ff3805" stroke="none" /><path d="M 79.05617556472873 98.46500227214037 l -24.37034114254388 -1.786131200468329 a45.43570731673739,45.43570731673739 0 0,0 0.06388155769299642,-0.7795168099067237 l 24.335985101031383 2.205361927582831" fill="#cbff1d" stroke="none" /><path d="M 79.08570108090925 98.10471618934814 l -15.309688468834288 -1.38738596083748 a36.37242338790753,36.37242338790753 0 0,0 0.06187273853899938,-0.6230500333432764 l 15.28353860461306 1.6507115248851867" fill="#ffc512" stroke="none" /><path d="M 79.21141760316559 97.0276538004421 l -10.654296637105082 -1.5233486109704204 a31.762649665485455,31.762649665485455 0 0,0 0.0820445977668907,-0.5405713896773106 l 10.626496145898889 1.706519113039823" fill="#ff890c" stroke="none" /><path d="M 79.26566170972629 96.67025291283419 l -2.902518457273652 -0.4661181969373744 a23.939707395019166,23.939707395019166 0 0,0 0.06884163644455991,-0.40630723519740475 l 2.8940649593088694 0.5160112204506071" fill="#ff1c02" stroke="none" /><path d="M 79.32604984820605 96.31383870115002 l -12.941566229999129 -2.307478746599725 a34.145668284703646,34.145668284703646 0 0,0 0.10815116226528858,-0.5777478333926742 l 12.89992934382398 2.5299046574549715" fill="#ffa80f" stroke="none" /><path d="M 79.46518482838121 95.60439243477599 l -14.802695684829503 -3.1686109952367305 a36.13802811388607,36.13802811388607 0 0,0 0.135441221678143,-0.6071564394283961 l 14.745960076149323 3.422945604215086" fill="#ffc212" stroke="none" /><path d="M 79.54389044137918 95.25157060432595 l -13.062066570679368 -3.0320672997337503 a34.40936296797779,34.40936296797779 0 0,0 0.13889454017165223,-0.5758075388637927 l 13.007939230246901 3.2564600702569395" fill="#ffac0f" stroke="none" /><path d="M 79.71946130924805 94.55025226153421 l -9.441301758224968 -2.537048630198483 a30.776236220645135,30.776236220645135 0 0,0 0.14188318182539025,-0.5104292951885344 l 9.396231805833217 2.69918922880596" fill="#ff7b0b" stroke="none" /><path d="M 79.91906864156998 93.8553929516997 l -12.822499872392168 -3.9235841050596885 a34.40936296797779,34.40936296797779 0 0,0 0.17818235856176315,-0.5648867693611163 l 12.753062030062202 4.143721040847219" fill="#ffac0f" stroke="none" /><path d="M 80.14247586403 93.16781622104843 l -6.473832098567804 -2.2273879839517257 a27.846295295376862,27.846295295376862 0 0,0 0.1598469099389512,-0.4519087396138061 l 6.434532107819043 2.338494349992143" fill="#ff5307" stroke="none" /><path d="M 80.2630227832202 92.82701384747504 l -12.153096306351518 -4.416785334364619 a33.930805950183974,33.930805950183974 0 0,0 0.20422372288309174,-0.5472180436797364 l 12.075267994966799 4.625326515073696" fill="#ffa50f" stroke="none" /><path d="M 80.38941819471856 92.48833698450439 l -12.503921768202026 -4.789518619460754 a34.389830028476005,34.389830028476005 0 0,0 0.21650273086842067,-0.5509758349783956 l 12.419625487451915 5.0040434593349135" fill="#ffab0f" stroke="none" /><path d="M 80.65960295795068 91.81776055985345 l -16.433204033286955 -6.95230867684856 a38.84334023488378,38.84334023488378 0 0,0 0.26581661202354223,-0.6135413896678437 l 16.31109671142073 7.234149211103003" fill="#ffe415" stroke="none" /><path d="M 80.95270993114464 91.15688171328213 l -8.867181289346577 -4.116781585621934 a30.776236220645135,30.776236220645135 0 0,0 0.2272192024000823,-0.47858158837572534 l 8.795003893104743 4.268805589638191" fill="#ff7b0b" stroke="none" /><path d="M 81.26839172434947 90.50648371742162 l -11.020058680777261 -5.585164123730046 a33.354584234881216,33.354584234881216 0 0,0 0.263962726700173,-0.5098919703362975 l 10.922286520916973 5.774028816326679" fill="#ff9e0e" stroke="none" /><path d="M 81.43458229118936 90.18545643968196 l -22.44033412479305 -11.863004658998447 a46.38305488257413,46.38305488257413 0 0,0 0.37921880270681396,-0.702634848060973 l 22.232807222867763 12.247520490391892" fill="#c0ff1e" stroke="none" /><path d="M 81.6062741919709 89.86733742301443 l -4.542370386819078 -2.5022829474405905 a26.18599543772484,26.18599543772484 0 0,0 0.22088804747353466,-0.3929351891047427 l 4.498624698053113 2.580101646480118" fill="#ff3c05" stroke="none" /><line stroke="#e1ed5e" stroke-width="0.3" x1="26.266209847984243" x2="21.928928074336255" y1="57.711370442889674" y2="55.22380399835377" /><path d="M 25.398753493254645 57.213857153982495 a86.0,86.0 0 0,1 29.58750427330803,-30.492523968695096" fill="none" id="id107" stroke="none" /><text fill="#e1ed5e" style="font-size:6.75px; font-family:Arial;" text-anchor="middle"><textPath startOffset="21.46611528233685" xlink:href="#id107">November</textPath></text><path d="M 82.15384107792192 88.93136811851018 l -8.507205741151436 -5.276380710272037 a31.010631494666598,31.010631494666598 0 0,0 0.28525705846454297,-0.4512081618601434 l 8.41512108644093 5.4220365198463965" fill="#ff7f0b" stroke="none" /><path d="M 82.7489923806493 88.02491185347247 l -13.390263341948913 -9.295085096663453 a37.30023801424249,37.30023801424249 0 0,0 0.37067090247066936,-0.5242877044343477 l 13.228279819674366 9.524199301429586" fill="#ffd113" stroke="none" /><path d="M 83.6137871275137 86.86637796730984 l -7.620735826231012 -6.108053442949838 a30.76646975089424,30.76646975089424 0 0,0 0.3347707015031138,-0.4103892963095029 l 7.514466632651506 6.238326908867423" fill="#ff7b0b" stroke="none" /><path d="M 84.31358615837235 86.03803664274999 l -15.546242317703294 -13.837201273288656 a41.812347039155625,41.812347039155625 0 0,0 0.483144376658095,-0.5335000879457039 l 15.305754300429154 14.102754148503916" fill="#f6ff19" stroke="none" /><path d="M 84.5562425177563 85.77008943001954 l -3.6630383356259353 -3.375131213391364 a25.980899572956062,25.980899572956062 0 0,0 0.30587273233516976,-0.3262837044956438 l 3.60439828132031 3.437684334765058" fill="#ff3905" stroke="none" /><path d="M 85.31137513191541 84.99185889309783 l -3.5522440684437213 -3.6295147234100247 a26.078564270465005,26.078564270465005 0 0,0 0.32351918928506584,-0.31122520376831225 l 3.489241635546228 3.6901230139406507" fill="#ff3b05" stroke="none" /><path d="M 85.57189188830299 84.74124197986013 l -3.6771238774602555 -3.888821945460532 a26.352025423490044,26.352025423490044 0 0,0 0.332276598960842,-0.3088148859221521 l 3.6096393947045575 3.9515414174573316" fill="#ff3f05" stroke="none" /><path d="M 86.10567301691215 84.25364557470407 l -14.771753633184733 -16.7407365951875 a43.32614985054423,43.32614985054423 0 0,0 0.5634590573782284,-0.48862614214064515 l 14.481400777159731 16.992527730747824" fill="#e4ff1a" stroke="none" /><path d="M 86.65592168130627 83.78471172551755 l -6.348666743328905 -7.714692535750594 a30.99109855516481,30.99109855516481 0 0,0 0.4148329751718785,-0.3354327495559647 l 6.214930369592525 7.822831382570693" fill="#ff7e0b" stroke="none" /><path d="M 86.93701828274178 83.55741782278169 l -6.494389604197857 -8.174591151483938 a31.440356163705943,31.440356163705943 0 0,0 0.4266418076594707,-0.3330006981584326 l 6.35271524137896 8.285170238865591" fill="#ff840c" stroke="none" /><path d="M 87.80319425747018 82.90503203632743 l -4.674031480846066 -6.5510937956192645 a29.047571074736855,29.047571074736855 0 0,0 0.4095276793314273,-0.2869003105615285 l 4.560572661930979 6.630578948944735" fill="#ff6409" stroke="none" /><path d="M 88.39885842347998 82.49532879139004 l -10.974127205117533 -16.558584968555103 a40.86499947331889,40.86499947331889 0 0,0 0.5896877300820649,-0.38354930287672323 l 10.68747244925118 16.74503319559136" fill="#fffd17" stroke="none" /><path d="M 88.70189139769569 82.29822771554957 l -4.208783398156437 -6.59428298410456 a28.822942270466285,28.822942270466285 0 0,0 0.4205141659024471,-0.2633259321100698 l 4.094650079881747 6.665753257537561" fill="#ff6108" stroke="none" /><line stroke="#e1ed5e" stroke-width="0.3" x1="56.762969772571076" x2="54.21961505331055" y1="26.818313649435495" y2="22.513508569990535" /><path d="M 56.25429882871897 25.957352633546506 a86.0,86.0 0 0,1 42.265352541879196,-11.944610805530505" fill="none" id="id108" stroke="none" /><text fill="#e1ed5e" style="font-size:6.75px; font-family:Arial;" text-anchor="middle"><textPath startOffset="22.20632615414155" xlink:href="#id108">December</textPath></text><path d="M 89.3179101791058 81.91981866633112 l -2.4889276125314943 -4.212683408907899 a25.893001345198016,25.893001345198016 0 0,0 0.3856864489075143,-0.22341448554494267 l 2.4160444311586597 4.254902051842889" fill="#ff3805" stroke="none" /><path d="M 89.63071344664047 81.73862282372117 l -4.8320888623173195 -8.509804103685777 a30.78600269039603,30.78600269039603 0 0,0 0.4630741258885382,-0.25770024969725497 l 4.6848906473567355 8.591719750943216" fill="#ff7c0b" stroke="none" /><path d="M 90.58718382345135 81.22770947309562 l -5.016750580476327 -10.005071556836558 a32.1923743345248,32.1923743345248 0 0,0 0.4974928787956864,-0.24411759503719152 l 4.843786434670214 10.08994431200858" fill="#ff8e0d" stroke="none" /><path d="M 90.91171255644093 81.06846463323043 l -2.1175715565181306 -4.411048953155584 a25.893001345198016,25.893001345198016 0 0,0 0.40346448642844474,-0.18943198624627638 l 2.0413288587900773 4.446845922041868" fill="#ff3805" stroke="none" /><path d="M 91.23893434514133 80.91482961587045 l -2.0454033674902568 -4.455721862006023 a25.90276781494891,25.90276781494891 0 0,0 0.4068188574558795,-0.182527762855392 l 1.968402391567603 4.4902699553779435" fill="#ff3805" stroke="none" /><path d="M 92.23578459929587 80.48803036053334 l -7.622617424247772 -19.156124872798294 a41.617017644137746,41.617017644137746 0 0,0 0.6678874080276157,-0.25912993806126966 l 7.29174685122048 19.284497514750115" fill="#f8ff18" stroke="none" /><path d="M 92.91201910852362 80.23233633223022 l -2.238260481412496 -6.242282685980366 a27.63143296085719,27.63143296085719 0 0,0 0.4491002534790218,-0.15668226012419784 l 2.1304782238701887 6.279885799276774" fill="#ff5007" stroke="none" /><path d="M 94.63758080256005 79.69619591428918 l -0.3790728353466 -1.4352888686447145 a22.484503402135925,22.484503402135925 0 0,0 0.3750534135285764,-0.09560946602103526 l 0.3543105331330242 1.441601330834613" fill="#ff0701" stroke="none" /><path d="M 94.98787191387505 79.60689891045804 l -4.948692512114541 -20.134997535275545 a41.73421528114847,41.73421528114847 0 0,0 0.699100399005442,-0.16545447741659713 l 4.601368426146566 20.217197924833012" fill="#f7ff19" stroke="none" /><path d="M 95.692805502759 79.44645832069477 l -2.0271846564640317 -9.673541409604503 a30.88366738790497,30.88366738790497 0 0,0 0.5212480533865649,-0.10455745586225279 l 1.8603701936103303 9.707002821543968" fill="#ff7d0b" stroke="none" /><path d="M 97.11714578562143 79.19881850522333 l -0.2024500752679005 -1.4607747898852972 a22.47473693238503,22.47473693238503 0 0,0 0.3836601033771678,-0.04981009253705266 l 0.1772752433828749 1.4640432055864865" fill="#ff0701" stroke="none" /><path d="M 97.47563105711357 79.15227682838746 l -0.11857483166669126 -0.979260687180366 a21.98641344484032,21.98641344484032 0 0,0 0.3761072276089641,-0.04226002930010446 l 0.1017009005480092 0.981156669951069" fill="#ff0000" stroke="none" /><path d="M 99.27714615592234 79.0124445844662 l -0.10118946623586351 -2.9379653265913936 a23.939707395019166,23.939707395019166 0 0,0 0.41196060065657686,-0.010639726912800183 l 0.05060223038440766 2.9392718456465534" fill="#ff1c02" stroke="none" /></svg>