<?xml version="1.0" encoding="utf-8" ?>
<svg baseProfile="full" height="200mm" version="1.1" viewBox="0,0,200,200" width="200mm" xmlns="http://www.w3.org/2000/svg" xmlns:ev="http://www.w3.org/2001/xml-events" xmlns:xlink="http://www.w3.org/1999/xlink"><defs /><rect fill="#1a1a1a" height="200" width="200" x="0" y="0" /><text alignment-baseline="middle" fill="#e1ed5e" style="dominant-baseline: central; font-size:9.0px; font-family:Arial;" text-anchor="middle" x="100.0" y="100.0">2017</text><line stroke="#e1ed5e" stroke-width="0.3" x1="100.0" x2="100.0" y1="15.0" y2="10.0" /><path d="M 100.0 14.0 a86.0,86.0 0 0,1 42.46469731375804,11.215312516191453" fill="none" id="id37" stroke="none" /><text fill="#e1ed5e" style="font-size:6.75px; font-family:Arial;" text-anchor="middle"><textPath startOffset="22.20632615414155" xlink:href="#id37">January</textPath></text><path d="M 100.0 79.0 l 0.0 -8.289513082957214 a29.289513082957214,29.289513082957214 0 0,0 0.504170820327922,0.00433955742297105 l -0.14269034105539372 8.288284902142802" fill="#ff6008" stroke="none" /><path d="M 100.36148047927253 79.00311137660856 l 1.0028549140231138 -58.25164605718278 a79.26027794604038,79.26027794604038 0 0,0 1.3639311112738393,0.035226316615463944 l -2.005412660491821 58.22575294842496" fill="#47ffff" stroke="none" /><path d="M 101.44485096284872 79.0497635885617 l 0.5726848139941378 -8.303889155987635 a29.323613578915623,29.323613578915623 0 0,0 0.5032627627232791,0.03906287626461648 l -0.715537766079758 8.292801017534554" fill="#ff6108" stroke="none" /><path d="M 101.80526077348638 79.07773832637324 l 0.7173236316442877 -8.313498496371835 a29.34438796088078,29.34438796088078 0 0,0 0.5028718041922161,0.047753737147545744 l -0.860320562926748 8.299919214709112" fill="#ff6109" stroke="none" /><path d="M 102.16513564639614 79.11191278185805 l 0.42837814240714334 -4.132766469315669 a25.154908726168614,25.154908726168614 0 0,0 0.43030860879112043,0.04835018601265997 l -0.499453454707989 4.124780329832408" fill="#ff2603" stroke="none" /><path d="M 102.52436894288641 79.15227682838746 l 1.3479821763859539 -11.132429486091459 a32.2137434521507,32.2137434521507 0 0,0 0.5499120270106114,0.07139436368682883 l -1.5394089319044113 11.107576799240492" fill="#ff880c" stroke="none" /><path d="M 103.2404852339499 79.25152402106235 l 1.4428133047784335 -9.238177320683869 a30.350167401755087,30.350167401755087 0 0,0 0.5154770619524771,0.08505813200006042 l -1.6016195728697857 9.211972925744185" fill="#ff6f0a" stroke="none" /><path d="M 104.307194497241 79.44645832069477 l 2.629422800871925 -12.547367239825073 a33.81991766419662,33.81991766419662 0 0,0 0.5687499996018885,0.1243067209135721 l -2.8450155246273416 12.50024702081563" fill="#ff9e0e" stroke="none" /><path d="M 105.01212808612495 79.60689891045804 l 5.034382889011658 -20.483650340717883 a42.09324399787679,42.09324399787679 0 0,0 0.7021375818508886,0.17899050335919925 l -5.386229359547571 20.393956841189816" fill="#f7ff18" stroke="none" /><path d="M 105.71112130821622 79.79150937346287 l 2.6398172881348887 -9.340849203517724 a30.706703825583304,30.706703825583304 0 0,0 0.50740602899747,0.1481257338538109 l -2.800213534855786 9.29402514074521" fill="#ff740a" stroke="none" /><path d="M 106.40334571778207 80.00007090966166 l 4.568873572506862 -14.270219272887928 a35.98378336128275,35.98378336128275 0 0,0 0.5882786166017071,0.19394621074885984 l -4.813835011350987 14.189459337879832" fill="#ffba11" stroke="none" /><path d="M 107.08798089147638 80.2323363322302 l 7.284733531982768 -20.31638693365119 a42.58293123442289,42.58293123442289 0 0,0 0.6878515664346305,0.2533415369360373 l -7.6333674241899745 20.187982128908832" fill="#f1ff19" stroke="none" /><path d="M 107.4271985657038 80.35727306442388 l 5.017784497567091 -13.270544719567157 a35.1875127636262,35.1875127636262 0 0,0 0.5647040087205296,0.2190963821804112 l -5.245471671287288 13.1822056334962" fill="#ffb010" stroke="none" /><path d="M 107.76421540070413 80.48803036053334 l 6.370933109673582 -16.010562174736965 a38.2315666681545,38.2315666681545 0 0,0 0.6093677168922981,0.24857639203253443 l -6.645584696154267 15.898524896520852" fill="#ffd714" stroke="none" /><path d="M 108.43124777332544 80.76684994638697 l 8.471760313866383 -19.32556624066216 a42.10090598381554,42.10090598381554 0 0,0 0.6612205534386332,0.29667038821141023 l -8.803162985771797 19.176875521934218" fill="#f7ff19" stroke="none" /><path d="M 109.08828744355905 81.06846463323043 l 6.283118823087539 -13.088173866815527 a35.51819125487159,35.51819125487159 0 0,0 0.5488892193345065,0.26933755612773513 l -6.507479309432478 12.978081150552962" fill="#ffb410" stroke="none" /><path d="M 110.05341064243156 81.56283822128135 l 11.30563064293462 -20.733634443863675 a44.615691425114626,44.615691425114626 0 0,0 0.6710962938375725,0.37346436094006974 l -11.660851025844229 20.535954685363425" fill="#d9ff1c" stroke="none" /><path d="M 110.36928655335952 81.73862282372117 l 2.2860533217484345 -4.0259743752580475 a25.629741835147126,25.629741835147126 0 0,0 0.38176509486210114,0.22114298417595152 l -2.3550151490758626 3.986027233692046" fill="#ff2d04" stroke="none" /><line stroke="#e1ed5e" stroke-width="0.3" x1="143.23703022742887" x2="145.7803849466894" y1="26.81831364943548" y2="22.513508569990506" /><path d="M 143.74570117128098 25.957352633546492 a86.0,86.0 0 0,1 28.547481713284135,27.462654790039103" fill="none" id="id38" stroke="none" /><text fill="#e1ed5e" style="font-size:6.75px; font-family:Arial;" text-anchor="middle"><textPath startOffset="19.985693538727396" xlink:href="#id38">February</textPath></text><path d="M 110.68208982089419 81.91981866633111 l 8.623847661946652 -14.596463064460528 a37.95368639820329,37.95368639820329 0 0,0 0.5596143350363534,0.33716137529187074 l -8.873824063200642 14.445855079710043" fill="#ffd413" stroke="none" /><path d="M 112.77801427241765 83.33499621200491 l 6.01636227616172 -7.8465008713138475 a30.887577608370556,30.887577608370556 0 0,0 0.4191406699224834,0.32714594117363727 l -6.150535501243634 7.741776540916984" fill="#ff760a" stroke="none" /><path d="M 114.16331599549186 84.49514656593476 l 6.765519740739154 -7.406344108881317 a31.031260659632576,31.031260659632576 0 0,0 0.391277770408468,0.36365004460276207 l -6.892005394942469 7.288789478203914" fill="#ff780b" stroke="none" /><path d="M 114.68862486808459 84.99185889309783 l 9.77771040940584 -9.990401337407487 a34.97897491709162,34.97897491709162 0 0,0 0.426683862885912,0.4248515467789909 l -9.948230072459072 9.820613939978378" fill="#ffad10" stroke="none" /><path d="M 115.4437574822437 85.77008943001954 l 15.207337282668899 -14.012072501702441 a41.6785222639776,41.6785222639776 0 0,0 0.48159802271810986,0.5317925653027068 l -15.446278946003044 13.748227149130184" fill="#fcff18" stroke="none" /><path d="M 115.68641384162765 86.03803664274999 l 5.163835619135857 -4.596161010741018 a27.913023530851902,27.913023530851902 0 0,0 0.316358414880273,0.36165235628980336 l -5.242185897593978 4.506593098248267" fill="#ff4d07" stroke="none" /><path d="M 116.38621287248628 86.86637796730983 l 11.237271152467395 -9.006722489439145 a35.40129553046686,35.40129553046686 0 0,0 0.377016918432193,0.478773199741376 l -11.390642151493552 8.811956895744732" fill="#ffb310" stroke="none" /><path d="M 117.45458315368197 88.32363383020206 l 5.7925434750933045 -3.8749627002920297 a27.96913881620251,27.96913881620251 0 0,0 0.2642462498702782,0.4024651674455839 l -5.858386360321507 3.7746794688687717" fill="#ff4e07" stroke="none" /><line stroke="#e1ed5e" stroke-width="0.3" x1="172.23445277983987" x2="176.4835382374775" y1="55.19839476539836" y2="52.563006222186495" /><path d="M 173.08426987136738 54.67131705675599 a86.0,86.0 0 0,1 12.851231095245387,41.99856678651699" fill="none" id="id39" stroke="none" /><text fill="#e1ed5e" style="font-size:6.75px; font-family:Arial;" text-anchor="middle"><textPath startOffset="22.20632615414155" xlink:href="#id39">March</textPath></text><path d="M 117.84615892207809 88.93136811851018 l 9.6279994647368 -5.971524869618459 a32.32949614773066,32.32949614773066 0 0,0 0.2892476940726178,0.4754471564950829 l -9.72936295709564 5.8049099399162944" fill="#ff8a0c" stroke="none" /><path d="M 118.3937258080291 89.86733742301442 l 28.19204106443391 -15.530319547208641 a53.18667433297728,53.18667433297728 0 0,0 0.43484386726082663,0.8056996446963567 l -28.4551930309132 15.042738919179826" fill="#78ff26" stroke="none" /><path d="M 118.56541770881063 90.18545643968196 l 8.72753998102248 -4.613783684355893 a30.872028869810627,30.872028869810627 0 0,0 0.2443161893986229,0.47194111363692137 l -8.805665603581218 4.4628698484586256" fill="#ff760a" stroke="none" /><path d="M 118.89224826269711 90.83032412892265 l 6.335535725201685 -3.075060641905655 a28.042372531803757,28.042372531803757 0 0,0 0.2070352422044371,0.4360690206520904 l -6.387529161247878 2.965549205613024" fill="#ff4f07" stroke="none" /><path d="M 119.04729006885535 91.15688171328212 l 9.435094530299525 -4.380447647732896 a31.40237138301727,31.40237138301727 0 0,0 0.22340197745139417,0.49223664425986285 l -9.509098824714266 4.21738899463097" fill="#ff7d0b" stroke="none" /><path d="M 119.47837535516314 92.15188598940014 l 14.44971403483707 -5.821994960986641 a36.578506379442196,36.578506379442196 0 0,0 0.23028164185979177,0.5860416605137726 l -14.547789226578562 5.572404295577083" fill="#ffc212" stroke="none" /><path d="M 119.61058180528143 92.48833698450437 l 19.558403323096964 -7.491676501137138 a41.94412464980623,41.94412464980623 0 0,0 0.25245451881197056,0.6764525979260471 l -19.684462430410562 7.153900766181757" fill="#f9ff18" stroke="none" /><path d="M 119.85752413597 93.16781622104841 l 6.669269139675395 -2.294630091926454 a28.052976543006576,28.052976543006576 0 0,0 0.15317286705610422,0.4579673762872407 l -6.707779300503269 2.1794896127168992" fill="#ff4f07" stroke="none" /><path d="M 120.08093135843002 93.85539295169968 l 13.384831061261407 -4.095653025814931 a34.99743105881844,34.99743105881844 0 0,0 0.17131092995648994,0.5775752925881309 l -13.4533478883296 3.86464834648027" fill="#ffad10" stroke="none" /><path d="M 120.18372546131832 94.20196356495316 l 1.4875581670968963 -0.4273203412625077 a22.54771831240487,22.54771831240487 0 0,0 0.10394844886589853,0.37395787723352963 l -1.4946933865291578 0.40165116061002615" fill="#ff0000" stroke="none" /><path d="M 120.37134235888165 94.90015583598534 l 18.03730434041145 -4.515531654932795 a39.59393379560457,39.59393379560457 0 0,0 0.15982223307199545,0.6625663367845329 l -18.112359373744265 4.2043800864888565" fill="#ffe815" stroke="none" /><path d="M 120.53481517161879 95.60439243477599 l 9.454538706734638 -2.0238040380545566 a30.668716819805482,30.668716819805482 0 0,0 0.10605637184942149,0.5171685342916073 l -9.487974374499057 1.8607598475995373" fill="#ff730a" stroke="none" /><path d="M 120.6074358757038 95.95851677861258 l 11.01456818679007 -2.160151936720246 a32.22439168646409,32.22439168646409 0 0,0 0.10206581359382416,0.5452396574587537 l -11.050119724293754 1.9702342017989296" fill="#ff890c" stroke="none" /><path d="M 120.67395015179393 96.31383870115 l 19.14625491343022 -3.4137735344050295 a40.44821140758849,40.44821140758849 0 0,0 0.11631391389241659,0.6864913039461908 l -19.20218068884286 3.0836964421430015" fill="#fff316" stroke="none" /><path d="M 120.78858239683441 97.02765380044208 l 16.45988000966914 -2.3534294382366974 a37.627275184270715,37.627275184270715 0 0,0 0.08615571121007286,0.6419601207909345 l -16.497951719937046 2.0697509753810985" fill="#ffcf13" stroke="none" /><path d="M 120.83666639777658 97.38593545837742 l 11.697817130199098 -1.4675499617204417 a32.78951349724513,32.78951349724513 0 0,0 0.06543794932636192,0.5606323875460772 l -11.721345432529048 1.2659738358495118" fill="#ff900d" stroke="none" /><path d="M 120.87857604477298 97.74499172005257 l 8.197260045922302 -0.8853520104434892 a29.24493301627554,29.24493301627554 0 0,0 0.049748241265335814,0.5009580004220984 l -8.211285412869868 0.744118479316956" fill="#ff6008" stroke="none" /><path d="M 120.91429891909075 98.10471618934814 l 18.771306666064973 -1.701082774354889 a39.84822635041988,39.84822635041988 0 0,0 0.056025688184464656,0.683655303714807 l -18.797806838068933 1.3777135534323133" fill="#ffeb16" stroke="none" /><line stroke="#e1ed5e" stroke-width="0.3" x1="184.98032266829074" x2="189.97916517819016" y1="98.17113171792111" y2="98.06355123074" /><path d="M 185.9800911702706 98.14961562048488 a86.0,86.0 0 0,1 -9.607161424134198,41.387399972396054" fill="none" id="id40" stroke="none" /><text fill="#e1ed5e" style="font-size:6.75px; font-family:Arial;" text-anchor="middle"><textPath startOffset="21.466115282336823" xlink:href="#id40">April</textPath></text><path d="M 120.99513854157772 99.54816195383933 l 18.34098136395551 -0.3947177184731318 a39.34522824797337,39.34522824797337 0 0,0 0.008743995246911844,0.6772320680941732 l -18.34505836632014 0.0789493923184959" fill="#ffe515" stroke="none" /><path d="M 120.89721153311464 102.0752229133903 l 1.8470134350359362 0.18341990727578247 a22.856098459561967,22.856098459561967 0 0,0 -0.04224862566026424,0.3911698025585678 l -1.84358250787462 -0.2151860317191417" fill="#ff0500" stroke="none" /><path d="M 120.8583938346157 102.4346265915055 l 62.575181503847105 7.303879774516526 a84.0,84.0 0 0,0 -0.1799939630126075,1.4347289828504204 l -62.44018603158764 -8.379926511654341" fill="#4dd2ff" stroke="none" /><path d="M 120.49622156327973 104.57218783832717 l 7.27485487088435 1.6228358414042294 a28.453664170096204,28.453664170096204 0 0,0 -0.11075173364122713,0.4771155698842385 l -7.24584257131257 -1.7478200686370329" fill="#ff5507" stroke="none" /><path d="M 120.41448212921028 104.9243191809786 l 8.25554393308566 1.991377154796229 a29.492325276610156,29.492325276610156 0 0,0 -0.12329011782934102,0.49248273456874647 l -8.220042500961258 -2.1331877287623713" fill="#ff6309" stroke="none" /><path d="M 120.23288151984713 105.62410040840565 l 9.638707965592065 2.679255614313447 a31.004154231757827,31.004154231757827 0 0,0 -0.14735442283087768,0.5129600769584398 l -9.591160905875087 -2.8447731667764686" fill="#ff780b" stroke="none" /><path d="M 120.02730092923936 106.31721596034902 l 13.155518986852321 4.1496482628413 a34.79446485075567,34.79446485075567 0 0,0 -0.18508625455105868,0.5696369185892257 l -13.082140481285016 -4.37548408140832" fill="#ffab0f" stroke="none" /><path d="M 119.67450827220406 107.3425965602758 l 17.097944763950263 6.381013882259663 a39.2498507751895,39.2498507751895 0 0,0 -0.24167763001586837,0.6309440298580874 l -16.985572854340887 -6.674381478950894" fill="#ffe415" stroke="none" /><path d="M 118.97047184881838 109.00673069616215 l 8.904732373913365 4.227756012206413 a30.857392127219462,30.857392127219462 0 0,0 -0.23193994555449265,0.4778649861848539 l -8.830639171744158 -4.3804099543565425" fill="#ff760a" stroke="none" /><path d="M 118.81262510543309 109.33194174019688 l 15.649921539790812 7.763092882013712 a38.46956368362932,38.46956368362932 0 0,0 -0.29936891761526374,0.5906832755914885 l -15.513973952389279 -8.031330369307895" fill="#ffda14" stroke="none" /><line stroke="#e1ed5e" stroke-width="0.3" x1="174.80103733775053" x2="179.2010983576182" y1="140.37084112569926" y2="142.7455964860345" /><path d="M 175.68104954172406 140.8457921977663 a86.0,86.0 0 0,1 -30.038265399797805,32.042727171017184" fill="none" id="id41" stroke="none" /><text fill="#e1ed5e" style="font-size:6.75px; font-family:Arial;" text-anchor="middle"><textPath startOffset="22.206326154141568" xlink:href="#id41">May</textPath></text><path d="M 118.48025628344425 109.97397251340804 l 18.77012394234135 10.130416883985077 a42.3293904988911,42.3293904988911 0 0,0 -0.3515830607878972,0.6382253795333674 l -18.592964472101947 -10.45201278191625" fill="#f4ff19" stroke="none" /><path d="M 117.94076556474637 110.91462005526583 l 10.114034410073705 6.153073145816993 a32.83866551541723,32.83866551541723 0 0,0 -0.2979489031811078,0.48038850092404073 l -10.006620867224633 -6.326257978106307" fill="#ff910d" stroke="none" /><path d="M 117.55443506779139 111.5257021239791 l 7.265113915655331 4.770050335727151 a29.6911023704027,29.6911023704027 0 0,0 -0.28418187492301533,0.4248133447067846 l -7.181928935321594 -4.894400594639742" fill="#ff6609" stroke="none" /><path d="M 117.35343817320211 111.8261652097733 l 11.7275758179266 7.992205795109607 a35.19194800006681,35.19194800006681 0 0,0 -0.34544934456814513,0.4976455456799943 l -11.588265566196318 -8.19289260297662" fill="#ffb010" stroke="none" /><path d="M 116.71984013943494 112.70617746262583 l 9.061626569477777 6.886347855699125 a32.38133836041955,32.38133836041955 0 0,0 -0.3410729187942787,0.4408827246337445 l -8.94174683346543 -7.041308574446123" fill="#ff8b0c" stroke="none" /><path d="M 116.498646956653 112.99209946851258 l 11.081374116405957 8.726189192750226 a35.10472368164023,35.10472368164023 0 0,0 -0.3779309155563161,0.47152692669129337 l -10.929525288794787 -8.915643953019769" fill="#ffaf10" stroke="none" /><path d="M 116.0416608686014 113.55231037782055 l 6.633438564192925 5.604059269829501 a29.683777259043662,29.683777259043662 0 0,0 -0.3331049740631499,0.38747633952819605 l -6.535991080558994 -5.717412708519226" fill="#ff6609" stroke="none" /><path d="M 112.04921762599082 117.19931262002967 l 13.92242592218653 19.87317046613641 a45.26472435316107,45.26472435316107 0 0,0 -0.6419898341919971,0.44156646193310367 l -13.57827920337165 -20.109877717434607" fill="#d1ff1c" stroke="none" /><path d="M 111.45004920935366 117.60387380957326 l 4.243485173211087 6.5241446683895825 a28.782777786198096,28.782777786198096 0 0,0 -0.41764934186161545,0.2665635703707678 l -4.130554029302541 -6.5962226675841595" fill="#ff5908" stroke="none" /><line stroke="#e1ed5e" stroke-width="0.3" x1="143.8653032363475" x2="146.44561519142675" y1="172.8068346515853" y2="177.08958963109032" /><path d="M 144.38136562736335 173.6633856474863 a86.0,86.0 0 0,1 -40.68145358897372,12.25698825130547" fill="none" id="id42" stroke="none" /><text fill="#e1ed5e" style="font-size:6.75px; font-family:Arial;" text-anchor="middle"><textPath startOffset="21.466115282336833" xlink:href="#id42">June</textPath></text><path d="M 109.89434966115114 118.52300852407294 l 4.076439860262873 7.631419230714252 a29.651931657685196,29.651931657685196 0 0,0 -0.45227540321996085,0.23660911510904076 l -3.9444735545164167 -7.70045776476801" fill="#ff6509" stroke="none" /><path d="M 109.57404056367764 118.69057910512821 l 3.169300801122952 6.187154413787093 a27.951643496903714,27.951643496903714 0 0,0 -0.43011735094614356,0.21566976885413208 l -3.062329542494048 -6.240792023550527" fill="#ff4e07" stroke="none" /><path d="M 108.2653958097858 119.30500536409082 l 2.223119454262073 5.192411104950602 a26.64830887883558,26.64830887883558 0 0,0 -0.4232367412961371,0.17691299218730136 l -2.133411253468475 -5.229909140157877" fill="#ff3b05" stroke="none" /><path d="M 107.93186726928326 119.44442032107085 l 2.9700163299613345 7.280788233037445 a28.863261047083043,28.863261047083043 0 0,0 -0.46164576487699854,0.18369837712733525 l -2.8442494890424697 -7.330833454570849" fill="#ff5b08" stroke="none" /><path d="M 107.2578585660854 119.70592522655815 l 3.4073009390151348 9.251216032558814 a30.858737128561987,30.858737128561987 0 0,0 -0.5000297442151709,0.1792928760693966 l -3.2475516341702293 -9.308496449668171" fill="#ff760a" stroke="none" /><path d="M 106.2309692047433 120.05430185196036 l 2.6325586962033407 8.472859518624428 a29.872413071498666,29.872413071498666 0 0,0 -0.49236141609066714,0.1483444557658351 l -2.4863223056724277 -8.516919343495989" fill="#ff6809" stroke="none" /><path d="M 104.83641907484287 120.43548508189849 l 2.1670678598724193 9.156585117331533 a30.40952890001563,30.40952890001563 0 0,0 -0.5104164858909978,0.11616913041538378 l -2.0091312245885593 -9.192530981324602" fill="#ff700a" stroke="none" /><path d="M 104.48393922423573 120.51570834832081 l 1.9507470176902255 8.925401276622058 a30.136093359623356,30.136093359623356 0 0,0 -0.5077336737998174,0.10640052794679374 l -1.79682188246103 -8.957657785295392" fill="#ff6c0a" stroke="none" /><path d="M 103.41894727170886 120.7198165907248 l 1.0210588002131558 6.187913818918834 a27.271589790783466,27.271589790783466 0 0,0 -0.46383018169752177,0.07244073523168054 l -0.9143927549071169 -6.2045728614976206" fill="#ff4406" stroke="none" /><path d="M 102.70371172650421 120.8252237178851 l 0.7886463317671232 6.074514576513305 a27.125495112795566,27.125495112795566 0 0,0 -0.46355220629219684,0.05612971658045756 l -0.683966702423546 -6.087189821819114" fill="#ff4206" stroke="none" /><path d="M 102.34483914955558 120.86867818915974 l 0.97438944590085 8.671903904910666 a29.72647420945526,29.72647420945526 0 0,0 -0.5089843401697309,0.052758307970000355 l -0.8249725091255163 -8.687391581336424" fill="#ff6609" stroke="none" /><path d="M 101.26447882468166 120.96189622390904 l 0.7153867621956457 11.859323206047897 a32.88088065443934,32.88088065443934 0 0,0 -0.565256677967857,0.029217313659086454 l -0.5111420158143091 -11.869880326469184" fill="#ff910d" stroke="none" /><line stroke="#e1ed5e" stroke-width="0.3" x1="102.19456741930631" x2="102.32365962044197" y1="184.97166512339345" y2="189.96999836594603" /><path d="M 102.22038585953345 185.97133177190398 a86.0,86.0 0 0,1 -42.740103519485714,-10.115201625700543" fill="none" id="id43" stroke="none" /><text fill="#e1ed5e" style="font-size:6.75px; font-family:Arial;" text-anchor="middle"><textPath startOffset="22.20632615414155" xlink:href="#id43">July</textPath></text><path d="M 100.54218724476979 120.99299961872073 l 0.268360180013947 10.390663393611561 a31.394128291759557,31.394128291759557 0 0,0 -0.5403382602534734,0.009302413171259542 l -0.08946222986780568 -10.393743284061982" fill="#ff7d0b" stroke="none" /><path d="M 100.18074693466247 120.99922214144158 l 0.0687159190368084 7.983431924873084 a28.983727649200706,28.983727649200706 0 0,0 -0.4989257073985222,0.0 l 0.06871591903680291 -7.983431924873084" fill="#ff5c08" stroke="none" /><path d="M 99.09653310690486 120.98055641714683 l -0.30541737899500915 7.092486287825873 a28.09905919952709,28.09905919952709 0 0,0 -0.48305217320880944,-0.024968279736357336 l 0.4274576206173075 -7.086178201327313" fill="#ff5007" stroke="none" /><path d="M 97.2962882734958 120.8252237178851 l -0.91056246535703 7.013568371317166 a28.072429943269682,28.072429943269682 0 0,0 -0.4786635494569316,-0.06633840636253174 l 1.0311546060007928 -6.99685539946203" fill="#ff4f07" stroke="none" /><path d="M 96.22490169976321 120.6578951692458 l -0.7889885224468454 4.317461663295686 a25.38896093655216,25.38896093655216 0 0,0 -0.4292334935642935,-0.08226362062591949 l 0.8631896305828339 -4.303240844321298" fill="#ff2904" stroke="none" /><path d="M 95.16358092515715 120.4354850818985 l -1.7014481775681436 7.189186526696297 a28.387782401815954,28.387782401815954 0 0,0 -0.474544655503904,-0.11663153070875262 l 1.8249461178152582 -7.158833737673514" fill="#ff5407" stroke="none" /><path d="M 94.81253420990036 120.34920634021253 l -1.3179203257542202 5.1698909899158325 a26.33523071972047,26.33523071972047 0 0,0 -0.4383054679669889,-0.11576045778648872 l 1.4067162365326984 -5.146439182825762" fill="#ff3705" stroke="none" /><path d="M 93.76903079525671 120.05430185196036 l -4.242109498114451 13.653180038106152 a35.29702130329717,35.29702130329717 0 0,0 -0.5786671912664558,-0.18527096093591147 l 4.476498034471847 -13.578136230510534" fill="#ffb110" stroke="none" /><path d="M 92.40401165467489 119.57807347666478 l -1.6018673902922378 4.128689518897938 a25.42855013289218,25.42855013289218 0 0,0 -0.40671019316435675,-0.16183837940188453 l 1.6726986594984528 -4.100504295089986" fill="#ff2a04" stroke="none" /><path d="M 92.06813273071674 119.44442032107085 l -5.525097369565071 13.544391493375807 a35.62796096074247,35.62796096074247 0 0,0 -0.565854372396087,-0.23652717355371364 l 5.75742320145862 -13.447279276802119" fill="#ffb610" stroke="none" /><line stroke="#e1ed5e" stroke-width="0.3" x1="58.666819895761336" x2="56.23545636021788" y1="174.27360380694188" y2="178.64263932499728" /><path d="M 58.180547188652646 175.14741091055294 a86.0,86.0 0 0,1 -31.652253787137756,-30.449443065178592" fill="none" id="id44" stroke="none" /><text fill="#e1ed5e" style="font-size:6.75px; font-family:Arial;" text-anchor="middle"><textPath startOffset="22.20632615414155" xlink:href="#id44">August</textPath></text><path d="M 89.7882731507175 118.34994917583269 l -6.771695428358973 12.168389223350276 a34.925715610531654,34.925715610531654 0 0,0 -0.5228067508728508,-0.29686331756366013 l 6.9801509461530316 -12.050022739991984" fill="#ffac10" stroke="none" /><path d="M 89.4739219176387 118.17145234162733 l -3.454506015775418 5.96360685702287 a27.89189513545866,27.89189513545866 0 0,0 -0.4133739954315196,-0.24422864280672196 l 3.55664788223532 -5.903259641922399" fill="#ff4d07" stroke="none" /><path d="M 89.1626897886671 117.98757091392108 l -3.7592746194516735 6.239575824966064 a28.28453513547395,28.28453513547395 0 0,0 -0.41486786390340047,-0.25484572657283966 l 3.866121683287383 -6.173941631564846" fill="#ff5207" stroke="none" /><path d="M 88.54995079064634 117.60387380957326 l -6.504446338196139 10.000258553055525 a32.929500965859106,32.929500965859106 0 0,0 -0.47249960947048636,-0.3131469765408288 l 6.675620646406587 -9.886813555423377" fill="#ff920d" stroke="none" /><path d="M 88.24862548938628 117.40417183066458 l -9.024873345190212 13.366134004818823 a37.12767426294005,37.12767426294005 0 0,0 -0.5265820080562149,-0.3621879067721731 l 9.25361223786932 -13.208805308681551" fill="#ffc912" stroke="none" /><path d="M 87.36589467227662 116.77436683061367 l -4.416220259283105 5.8634384242031246 a28.34049804392891,28.34049804392891 0 0,0 -0.38714641471379707,-0.2968473620325156 l 4.516495402490389 -5.786551720343242" fill="#ff5307" stroke="none" /><path d="M 84.67929136418377 114.36230785411682 l -7.8490805210646375 7.358074191930229 a31.758685832391706,31.758685832391706 0 0,0 -0.37044781771330604,-0.4020479417952256 l 7.9745747467736745 -7.221874995333661" fill="#ff820c" stroke="none" /><path d="M 84.19399662182784 113.82643327865904 l -5.672506365703263 4.962072252652816 a28.536543604961828,28.536543604961828 0 0,0 -0.32023096435568,-0.37250095775693415 l 5.757079839629724 -4.863694195734352" fill="#ff5608" stroke="none" /><path d="M 83.50135304334701 112.99209946851258 l -7.715917938223513 6.0760117849455995 a30.821064547196357,30.821064547196357 0 0,0 -0.32463854113912927,-0.41963907613806173 l 7.81936329658071 -5.942294714694285" fill="#ff750a" stroke="none" /><path d="M 83.28015986056508 112.70617746262583 l -7.826318827762934 5.947580543554557 a30.829800644767182,30.829800644767182 0 0,0 -0.317457001879405,-0.4252855320992741 l 7.927537096337424 -5.811982131945977" fill="#ff760a" stroke="none" /><path d="M 83.06392112726016 112.41649034213515 l -5.662210487764589 4.151184129735443 a28.02089433667241,28.02089433667241 0 0,0 -0.2818371009339577,-0.3914470830278162 l 5.732827381074154 -4.053103441256486" fill="#ff4f07" stroke="none" /><path d="M 82.6465618267979 111.8261652097733 l -10.224611635301066 6.967953278075306 a33.37315869041428,33.37315869041428 0 0,0 -0.31942386949562696,-0.47749534489622014 l 10.343038610207424 -6.790921018973263" fill="#ff980e" stroke="none" /><path d="M 82.44556493220864 111.52570212397912 l -4.670001537588219 3.066179369082844 a26.586624229753205,26.586624229753205 0 0,0 -0.2478824630194132,-0.3847190873536696 l 4.722088863984678 -2.985338681807726" fill="#ff3a05" stroke="none" /><line stroke="#e1ed5e" stroke-width="0.3" x1="26.63291911575756" x2="22.317208475507996" y1="142.92168965132927" y2="145.44649492493687" /><path d="M 25.769776987707644 143.4266507060508 a86.0,86.0 0 0,1 -11.730757126820373,-40.83630448921669" fill="none" id="id45" stroke="none" /><text fill="#e1ed5e" style="font-size:6.75px; font-family:Arial;" text-anchor="middle"><textPath startOffset="21.46611528233685" xlink:href="#id45">September</textPath></text><path d="M 81.69416730710424 110.29060199501025 l -8.538979855869774 4.800177332237252 a30.795707192432516,30.795707192432516 0 0,0 -0.25578561057065885,-0.4643251811386836 l 8.620341875891949 -4.652481632700745" fill="#ff750a" stroke="none" /><path d="M 81.51974371655577 109.97397251340807 l -4.0389142710745025 2.179840977627437 a25.589611658608277,25.589611658608277 0 0,0 -0.2058714621533848,-0.3894312217080103 l 4.075838241452773 -2.1099947408333004" fill="#ff2c04" stroke="none" /><path d="M 81.35079622478065 109.6543875284942 l -3.627871931170776 1.8780899146916705 a25.08517765545678,25.08517765545678 0 0,0 -0.19521205243345552,-0.3851718992234264 l 3.659662653390498 -1.8153638037655593" fill="#ff2503" stroke="none" /><path d="M 81.18737489456691 109.33194174019688 l -3.792964386786174 1.8814876967865524 a25.233978600865548,25.233978600865548 0 0,0 -0.1896714926095475,-0.39077945361605465 l 3.8247891360104407 -1.8159192872052128" fill="#ff2703" stroke="none" /><path d="M 80.87730276802145 108.67885076344099 l -5.051647250968894 2.2926939682645275 a26.54757474761162,26.54757474761162 0 0,0 -0.18527541704882025,-0.41774715416346475 l 5.090363752748994 -2.205398477608367" fill="#ff3a05" stroke="none" /><path d="M 80.45479744820244 107.68017299344265 l -10.559120381826787 4.149144577862541 a32.34506165544798,32.34506165544798 0 0,0 -0.19916197614047934,-0.5199490735337011 l 10.628976637560775 -3.966771937495682" fill="#ff8a0c" stroke="none" /><path d="M 80.20201598880116 107.00284435728193 l -9.241306796061101 3.268789040040693 a30.802384051199752,30.802384051199752 0 0,0 -0.17250679967757881,-0.5013855085060459 l 9.296204426681909 -3.10923082844535" fill="#ff750a" stroke="none" /><path d="M 80.0844068197444 106.66101706037122 l -13.218325890704252 4.4210329800680155 a34.93806557466679,34.93806557466679 0 0,0 -0.18585012662822376,-0.5719878751056229 l 13.292468268348724 -4.19284620498459" fill="#ffad10" stroke="none" /><path d="M 79.97269907076064 106.31721596034903 l -9.129825756310849 2.8798229570100666 a30.57324911429339,30.57324911429339 0 0,0 -0.15399196351394775,-0.5032546466789628 l 9.178044492330928 -2.722241337779056" fill="#ff720a" stroke="none" /><path d="M 79.76711848015287 105.62410040840567 l -13.47568370498797 3.7458133758369954 a34.986606778038684,34.986606778038684 0 0,0 -0.15629337543437083,-0.5816257925540691 l 13.538165156764114 -3.5132966501073875" fill="#ffad10" stroke="none" /><path d="M 79.58551787078972 104.9243191809786 l -9.737346581763163 2.3488130749985214 a31.01662824081331,31.01662824081331 0 0,0 -0.12072769710221146,-0.5200917593789391 l 9.77633484479593 -2.180852658271008" fill="#ff780b" stroke="none" /><path d="M 79.4281124754447 104.21870165774334 l -9.459659099914452 1.9399036417470727 a30.65651989206556,30.65651989206556 0 0,0 -0.10156076874399123,-0.5178561717894495 l 9.49164980163411 -1.7767837428896682" fill="#ff730a" stroke="none" /><path d="M 79.35854240842038 103.8639653848113 l -6.893090228098707 1.2903479280755645 a28.012823302222777,28.012823302222777 0 0,0 -0.08464349041189101,-0.4747256453468945 l 6.914280160849787 -1.1715035319954563" fill="#ff4f07" stroke="none" /><path d="M 79.29508885075956 103.50808413554451 l -6.901974641769543 1.1694185775634436 a28.000342403424302,28.000342403424302 0 0,0 -0.07642526208797336,-0.47590017997542733 l 6.9210816582188075 -1.0504391678948026" fill="#ff4e07" stroke="none" /><path d="M 79.23777060512086 103.15116336523772 l -11.216311220277857 1.7023426693841393 a32.34476125593381,32.34476125593381 0 0,0 -0.0788071621095902,-0.5511771082451818 l 11.243952433404047 -1.5090200891585568" fill="#ff8a0c" stroke="none" /><line stroke="#e1ed5e" stroke-width="0.3" x1="15.007084014347285" x2="10.007500721073583" y1="101.09737516637583" y2="101.16192664675087" /><path d="M 14.007167355692545 101.11028546245083 a86.0,86.0 0 0,1 10.666146001902534,-42.60595125391555" fill="none" id="id46" stroke="none" /><text fill="#e1ed5e" style="font-size:6.75px; font-family:Arial;" text-anchor="middle"><textPath startOffset="22.20632615414155" xlink:href="#id46">October</textPath></text><path d="M 79.00019446554 99.90962569577889 l -19.167550890005636 -0.08248905317073538 a40.16772838822715,40.16772838822715 0 0,0 0.00892678583263767,-0.6913894004009139 l 19.163291097055282 0.41241471163212123" fill="#ffef16" stroke="none" /><path d="M 79.00486145842228 99.54816195383935 l -12.831174796597498 -0.27614073317778154 a33.834145875957574,33.834145875957574 0 0,0 0.017542691339509645,-0.5821565210171897 l 12.824520410802343 0.4969674016199656" fill="#ff9e0e" stroke="none" /><path d="M 79.08570108090925 98.10471618934814 l -14.006314604776234 -1.2692723490290008 a35.06370865397807,35.06370865397807 0 0,0 0.059646497969571874,-0.6006320946231779 l 13.982390981124434 1.5101799743566091" fill="#ffae10" stroke="none" /><path d="M 80.2630227832202 92.82701384747504 l -13.301279099656139 -4.8340680411582175 a35.1524640792159,35.1524640792159 0 0,0 0.21157667440353567,-0.5669202980970287 l 13.216097836750976 5.062311476284587" fill="#ffaf10" stroke="none" /><path d="M 80.38941819471856 92.48833698450439 l -7.847356864098351 -3.0058618816484057 a29.403345488795424,29.403345488795424 0 0,0 0.18511009184170643,-0.47108499281423266 l 7.794453222374953 3.1404958793584017" fill="#ff6209" stroke="none" /><path d="M 80.95270993114464 91.15688171328213 l -7.641237580349725 -3.54761058059569 a29.424609937018058,29.424609937018058 0 0,0 0.21724022238748694,-0.45756331151200996 l 7.579039164120487 3.678616307748232" fill="#ff6209" stroke="none" /><path d="M 81.43458229118936 90.18545643968196 l -8.962995666807167 -4.738256514480347 a31.13836111608871,31.13836111608871 0 0,0 0.2545811622496618,-0.4717002294708813 l 8.880106405339033 4.8918377272837015" fill="#ff7a0b" stroke="none" /><line stroke="#e1ed5e" stroke-width="0.3" x1="26.266209847984243" x2="21.928928074336255" y1="57.711370442889674" y2="55.22380399835377" /><path d="M 25.398753493254645 57.213857153982495 a86.0,86.0 0 0,1 29.58750427330803,-30.492523968695096" fill="none" id="id47" stroke="none" /><text fill="#e1ed5e" style="font-size:6.75px; font-family:Arial;" text-anchor="middle"><textPath startOffset="21.46611528233685" xlink:href="#id47">November</textPath></text><path d="M 81.78341655067845 89.55222093294921 l -9.305911520648364 -5.3372306533625995 a31.727815261148436,31.727815261148436 0 0,0 0.2757907488626429,-0.47141578869098544 l 9.212661097315397 5.496625854407476" fill="#ff820c" stroke="none" /><path d="M 81.96595687620814 89.24020034530311 l -7.235540563516518 -4.317000149243346 a29.425528917217008,29.425528917217008 0 0,0 0.26326628621986137,-0.4327405533363691 l 7.160158479010438 4.440908475786789" fill="#ff6209" stroke="none" /><path d="M 82.54541684631803 88.32363383020206 l -11.976116084991151 -8.011507090667216 a35.408733544104244,35.408733544104244 0 0,0 0.34325485005877227,-0.5036841370374265 l 11.836436769263639 8.216469250975058" fill="#ffb310" stroke="none" /><path d="M 82.7489923806493 88.02491185347247 l -6.855550112470478 -4.758899810448322 a29.34539961598479,29.34539961598479 0 0,0 0.2916197412699116,-0.41247544303868994 l 6.772617751396688 4.8762017538187985" fill="#ff6109" stroke="none" /><path d="M 84.07557802195018 86.31012108654704 l -5.289515719135702 -4.547281515497862 a27.97543874779015,27.97543874779015 0 0,0 0.31706581152160573,-0.36246103293671983 l 5.210458044036253 4.637658104637525" fill="#ff4e07" stroke="none" /><path d="M 84.5562425177563 85.77008943001954 l -6.662222333102509 -6.138585645777839 a30.05910813194321,30.05910813194321 0 0,0 0.35388541917332833,-0.3775002912268156 l 6.555569591958722 6.252355353882705" fill="#ff6b09" stroke="none" /><path d="M 84.80347519578584 85.50635884689758 l -5.084922599325977 -4.849730079438552 a28.02682856518836,28.02682856518836 0 0,0 0.33596925356782364,-0.3462458483327817 l 5.00068908205504 4.936540123321458" fill="#ff4f07" stroke="none" /><path d="M 85.05521093208273 85.24692304244772 l -5.999367976093216 -5.92240794070389 a29.430144241274007,29.430144241274007 0 0,0 0.3589975881203068,-0.3574559383878604 l 5.896534587805594 6.024799729741861" fill="#ff6209" stroke="none" /><path d="M 85.31137513191541 84.99185889309783 l -6.901783170377662 -7.05191511394204 a30.867325762594064,30.867325762594064 0 0,0 0.38292645647759793,-0.36837494773921825 l 6.779373470287636 7.169673148443567" fill="#ff760a" stroke="none" /><path d="M 85.57189188830299 84.74124197986013 l -10.473329175001965 -11.07629595713013 a36.24384978074386,36.24384978074386 0 0,0 0.45700408013640503,-0.42473548638287484 l 10.281117211070704 11.254936029587654" fill="#ffbe11" stroke="none" /><path d="M 85.83668400450813 84.49514656593479 l -4.708030447686549 -5.153971151793206 a27.980613821854078,27.980613821854078 0 0,0 0.3584036989713829,-0.32177837967722756 l 4.6186157611191945 5.2342485402397125" fill="#ff4e07" stroke="none" /><path d="M 87.22198572758235 83.33499621200491 l -4.014080990085711 -5.235138533965708 a27.596932746722533,27.596932746722533 0 0,0 0.3794628797660558,-0.2858035739492756 l 3.9233719565612653 5.303458697420838" fill="#ff4906" stroke="none" /><path d="M 88.39885842347998 82.49532879139004 l -9.652230290070015 -14.564007907585932 a38.47214571553164,38.47214571553164 0 0,0 0.5551585114589451,-0.3610905385915439 l 9.400104752826783 14.72799737033701" fill="#ffda14" stroke="none" /><path d="M 88.70189139769569 82.29822771554957 l -4.610848228680304 -7.224234449792193 a29.570267485527427,29.570267485527427 0 0,0 0.4314173150854961,-0.2701534831282383 l 4.485811761222566 7.302532274243362" fill="#ff6409" stroke="none" /><line stroke="#e1ed5e" stroke-width="0.3" x1="56.76296977257108" x2="54.21961505331056" y1="26.818313649435495" y2="22.513508569990535" /><path d="M 56.25429882871898 25.957352633546506 a86.0,86.0 0 0,1 42.26535254187918,-11.944610805530505" fill="none" id="id48" stroke="none" /><text fill="#e1ed5e" style="font-size:6.75px; font-family:Arial;" text-anchor="middle"><textPath startOffset="22.20632615414155" xlink:href="#id48">December</textPath></text><path d="M 89.63071344664047 81.73862282372117 l -10.366292476762299 -18.256104300295004 a41.99393636117411,41.99393636117411 0 0,0 0.6316606143588771,-0.3515184480062809 l 10.050507773331375 18.43183814586147" fill="#f8ff18" stroke="none" /><path d="M 90.91171255644093 81.06846463323043 l -5.10516350318964 -10.634410939793877 a32.79632953213444,32.79632953213444 0 0,0 0.5110320767767861,-0.23993641223873843 l 4.921353215113245 10.720712334672623" fill="#ff900d" stroke="none" /><path d="M 92.23578459929587 80.48803036053334 l -21.707157202466504 -54.55147370785782 a79.71170204918008,79.71170204918008 0 0,0 1.2792469303382565,-0.49632793467775116 l 20.76492710712857 54.91704434642612" fill="#48faff" stroke="none" /><path d="M 93.59665428221793 80.00007090966166 l -2.821565498598875 -8.812753891924588 a30.253424394380467,30.253424394380467 0 0,0 0.49732974412048575,-0.1545227723753795 l 2.6694503817676605 8.860016799182493" fill="#ff6e0a" stroke="none" /><path d="M 94.63758080256005 79.69619591428918 l -1.6343022819283233 -6.187981977415036 a27.40016131839889,27.40016131839889 0 0,0 0.4570491884967733,-0.11651201477251583 l 1.5275442047465506 6.215196988356415" fill="#ff4606" stroke="none" /><path d="M 96.75951476605007 79.25152402106235 l -3.768525839096747 -24.12946278208935 a45.42197291686679,45.42197291686679 0 0,0 0.7735384040572082,-0.11399945300047439 l 3.3526184546108904 24.190756719250796" fill="#cfff1d" stroke="none" /><path d="M 97.83486435360386 79.11191278185805 l -1.3178390280998293 -12.713816154770443 a33.78193337962943,33.78193337962943 0 0,0 0.5789175705542973,-0.054975198974918205 l 1.0987963304552957 12.734616898260542" fill="#ff9d0e" stroke="none" /></svg>