<?xml version="1.0" encoding="utf-8" ?>
<svg baseProfile="full" height="200mm" version="1.1" viewBox="0,0,200,200" width="200mm" xmlns="http://www.w3.org/2000/svg" xmlns:ev="http://www.w3.org/2001/xml-events" xmlns:xlink="http://www.w3.org/1999/xlink"><defs /><rect fill="#1a1a1a" height="200" width="200" x="0" y="0" /><text alignment-baseline="middle" fill="#e1ed5e" style="dominant-baseline: central; font-size:9.0px; font-family:Arial;" text-anchor="middle" x="100.0" y="100.0">2023</text><line stroke="#e1ed5e" stroke-width="0.3" x1="100.0" x2="100.0" y1="15.0" y2="10.0" /><path d="M 100.0 14.0 a86.0,86.0 0 0,1 42.46469731375804,11.215312516191453" fill="none" id="id109" stroke="none" /><text fill="#e1ed5e" style="font-size:6.75px; font-family:Arial;" text-anchor="middle"><textPath startOffset="22.20632615414155" xlink:href="#id109">January</textPath></text><path d="M 100.36148047927253 79.00311137660856 l 0.02695881928078896 -1.5659250175722617 a22.566157060641014,22.566157060641014 0 0,0 0.3883241956059493,0.01002926830452958 l -0.05390965008160605 1.5652289571253726" fill="#ff1202" stroke="none" /><path d="M 102.16513564639614 79.11191278185805 l 0.39256419926393876 -3.787252427622244 a24.80754351269612,24.80754351269612 0 0,0 0.42436645875675033,0.04768251622031243 l -0.45769736153041435 3.7799339579313305" fill="#ff3204" stroke="none" /><path d="M 102.52436894288641 79.15227682838746 l 0.380662912340156 -3.1437381768345154 a24.166700803252194,24.166700803252194 0 0,0 0.4125431570725484,0.05355994185590293 l -0.4347207979205505 3.1367199118144757" fill="#ff2903" stroke="none" /><path d="M 103.95276090670814 79.375362276772 l 0.6472492009669605 -3.377204086373563 a24.438668197016202,24.438668197016202 0 0,0 0.4124707103290489,0.08273774416902838 l -0.7052863207631347 3.3655623861273263" fill="#ff2c04" stroke="none" /><path d="M 106.40334571778207 80.00007090966166 l 0.48232054219757425 -1.5064588213591328 a22.581787370627453,22.581787370627453 0 0,0 0.3691769289907446,0.12171182914529219 l -0.5081802934307363 1.4979332679546045" fill="#ff1202" stroke="none" /><path d="M 106.74666289553966 80.11325718540242 l 0.6688697142784006 -1.971588056240647 a23.081957290193447,23.081957290193447 0 0,0 0.3751565430755209,0.1308847514872277 l -0.7027082614171951 1.9597824515812117" fill="#ff1902" stroke="none" /><path d="M 107.08798089147638 80.2323363322302 l 1.5837313819627767 -4.416867056791888 a25.692219057928472,25.692219057928472 0 0,0 0.41501213307485635,0.15285247104293573 l -1.6595258408102096 4.388951317942627" fill="#ff3e05" stroke="none" /><path d="M 108.09893153111575 80.62456947434976 l 1.004271229096144 -2.402562282876968 a23.60400964374045,23.60400964374045 0 0,0 0.3735236088518565,0.15992331590867756 l -1.0454785957383157 2.3849194390055" fill="#ff2103" stroke="none" /><path d="M 110.05341064243156 81.56283822128135 l 1.251117191439617 -2.294450200348053 a23.613387829732314,23.613387829732314 0 0,0 0.35518573289581024,0.1976604758050848 l -1.2904270134074622 2.272574326982788" fill="#ff2103" stroke="none" /><line stroke="#e1ed5e" stroke-width="0.3" x1="143.23703022742887" x2="145.7803849466894" y1="26.81831364943548" y2="22.513508569990506" /><path d="M 143.74570117128098 25.957352633546492 a86.0,86.0 0 0,1 28.547481713284135,27.462654790039103" fill="none" id="id110" stroke="none" /><text fill="#e1ed5e" style="font-size:6.75px; font-family:Arial;" text-anchor="middle"><textPath startOffset="19.985693538727396" xlink:href="#id110">February</textPath></text><path d="M 112.48926042617603 83.11751280151076 l 1.5784204681537277 -2.1336462238859495 a23.65402663569705,23.65402663569705 0 0,0 0.3252471985790086,0.24496944688813915 l -1.6149138204911193 2.1061601874919633" fill="#ff2103" stroke="none" /><path d="M 113.6212207817346 84.01681056812373 l 3.8586297886937375 -4.527730065345792 a26.94889598083803,26.94889598083803 0 0,0 0.35047193390429326,0.3039258074740176 l -3.935995521244795 4.460639264452103" fill="#ff4f07" stroke="none" /><path d="M 113.89432698308785 84.25364557470407 l 1.0362237289246663 -1.1743459125015772 a22.566157060641014,22.566157060641014 0 0,0 0.2890499191188382,0.25951187135297726 l -1.0562846356394946 1.1563350323793025" fill="#ff1202" stroke="none" /><path d="M 114.16331599549186 84.49514656593476 l 1.0562846356394946 -1.1563350323793025 a22.566157060641014,22.566157060641014 0 0,0 0.2845400229859521,0.2644489410734821 l -1.0760325424202934 1.13798150523118" fill="#ff1202" stroke="none" /><path d="M 114.94478906791727 85.2469230424477 l 1.1145660437385367 -1.1002683639643231 a22.566157060641014,22.566157060641014 0 0,0 0.2705099125262738,0.27878424335094615 l -1.1333402199679197 1.0809199250632628" fill="#ff1202" stroke="none" /><path d="M 115.4437574822437 85.77008943001954 l 1.1494796038229964 -1.059132920419406 a22.56303099864373,22.56303099864373 0 0,0 0.26071728375230574,0.28789053651606433 l -1.1675405281913378 1.0391895966337925" fill="#ff1202" stroke="none" /><path d="M 115.68641384162765 86.03803664274999 l 3.9696377958505464 -3.533244628554893 a26.314305395388676,26.314305395388676 0 0,0 0.29823898992380155,0.3409387213052428 l -4.0298686493521965 3.4643903510467022" fill="#ff4706" stroke="none" /><path d="M 115.9244219780498 86.31012108654704 l 2.918099004325033 -2.5086261894932314 a24.84818231866086,24.84818231866086 0 0,0 0.27603891471812636,0.3267430078705939 l -2.9608485325302767 2.4580242319935306" fill="#ff3204" stroke="none" /><path d="M 116.38621287248628 86.86637796730983 l 1.9953091230588613 -1.5992490799771588 a23.55711871378114,23.55711871378114 0 0,0 0.2508787368238437,0.3185905186316696 l -2.022541940476669 1.5646661673924507" fill="#ff2003" stroke="none" /><path d="M 116.82858285166822 87.43820079747576 l 3.7626668746593652 -2.808665837288549 a25.69534511992576,25.69534511992576 0 0,0 0.2615264731663653,0.3567218154895603 l -3.810455960339357 2.743481578127495" fill="#ff3e05" stroke="none" /><path d="M 117.2510076193507 88.02491185347247 l 3.9033396851108697 -2.709571395853398 a25.751614235876936,25.751614235876936 0 0,0 0.24963802990291903,0.3663130051675762 l -3.9494021806825224 2.6419803674154156" fill="#ff3f05" stroke="none" /><path d="M 117.65298651832404 88.62581576622439 l 1.3165404512892303 -0.8482742355599705 a22.566157060641014,22.566157060641014 0 0,0 0.20757899061406304,0.32834011294902554 l -1.330947038149249 0.8254864748967388" fill="#ff1202" stroke="none" /><line stroke="#e1ed5e" stroke-width="0.3" x1="172.23445277983987" x2="176.4835382374775" y1="55.19839476539836" y2="52.563006222186495" /><path d="M 173.08426987136738 54.67131705675599 a86.0,86.0 0 0,1 12.851231095245387,41.99856678651699" fill="none" id="id111" stroke="none" /><text fill="#e1ed5e" style="font-size:6.75px; font-family:Arial;" text-anchor="middle"><textPath startOffset="22.20632615414155" xlink:href="#id111">March</textPath></text><path d="M 118.56541770881063 90.18545643968196 l 5.48308129420707 -2.898611873473858 a27.202107002618312,27.202107002618312 0 0,0 0.21527302771449075,0.4158389695158747 l -5.532163755081677 2.8038001816976386" fill="#ff5307" stroke="none" /><path d="M 118.89224826269711 90.83032412892265 l 3.377574549721059 -1.6393635855662085 a24.754400458742236,24.754400458742236 0 0,0 0.1827603313089455,0.3849398674320745 l -3.4052930748717607 1.5809813024935937" fill="#ff3104" stroke="none" /><path d="M 119.04729006885535 91.15688171328212 l 1.4205260870197756 -0.6595101020393753 a22.566157060641014,22.566157060641014 0 0,0 0.1605395990429036,0.3537277261607767 l -1.4316680030260263 0.6349603670365358" fill="#ff1202" stroke="none" /><path d="M 119.196687751892 91.48605970444005 l 1.4316680030260263 -0.6349603670365358 a22.566157060641014,22.566157060641014 0 0,0 0.15442697203634753,0.356438742876557 l -1.4423856849050545 0.610222479573376" fill="#ff1202" stroke="none" /><path d="M 119.47837535516314 92.15188598940014 l 6.4428063392359105 -2.595898157652862 a27.946109757972728,27.946109757972728 0 0,0 0.17593599836752125,0.44773792558864545 l -6.4865358874851315 2.484611227168432" fill="#ff5d08" stroke="none" /><path d="M 119.7369772167798 92.82701384747503 l 3.0967029141577966 -1.1254310565273935 a24.29486934514098,24.29486934514098 0 0,0 0.13946055484214023,0.3942737684990156 l -3.115616549809747 1.0719596616017635" fill="#ff2a04" stroke="none" /><path d="M 120.08093135843002 93.85539295169968 l 2.9952278505955015 -0.9165161631961993 a24.132314121282032,24.132314121282032 0 0,0 0.11812664670075167,0.3982643287732424 l -3.0105603944079555 0.864822447676427" fill="#ff2803" stroke="none" /><path d="M 120.18372546131832 94.20196356495316 l 4.272471936974165 -1.2273228748461873 a25.445260160142766,25.445260160142766 0 0,0 0.11730656237535629,0.42201411882579976 l -4.292965269915885 1.1535974526014356" fill="#ff3b05" stroke="none" /><path d="M 120.45610955862082 95.25157060432595 l 6.458653737058879 -1.4992323527425495 a27.630377496246695,27.630377496246695 0 0,0 0.10355551420034295,0.464219064964345 l -6.48350363826126 1.3878351182282407" fill="#ff5908" stroke="none" /><path d="M 120.6074358757038 95.95851677861258 l 1.684126050560196 -0.33028695161755806 a22.716208036510814,22.716208036510814 0 0,0 0.07195010157435969,0.38436031963301925 l -1.6895618760444149 0.301248554521976" fill="#ff1402" stroke="none" /><path d="M 120.67395015179393 96.31383870115 l 1.5449181453083722 -0.2754586054098943 a22.569283122638303,22.569283122638303 0 0,0 0.06490080926662739,0.3830482501157998 l -1.5494308160952226 0.24882456697825664" fill="#ff1202" stroke="none" /><path d="M 120.83666639777658 97.38593545837742 l 9.30834617331971 -1.1677788187567144 a30.38131205385966,30.38131205385966 0 0,0 0.06063190778405083,0.5194571586116637 l -9.327068434107352 1.007377921820198" fill="#ff7e0b" stroke="none" /><path d="M 120.96714384426684 98.82574320788733 l 1.5637066844368719 -0.08757478885585351 a22.566157060641014,22.566157060641014 0 0,0 0.018382167778274994,0.3880185086094497 l -1.5649824604486433 0.06064517362340401" fill="#ff1202" stroke="none" /><line stroke="#e1ed5e" stroke-width="0.3" x1="184.98032266829074" x2="189.97916517819016" y1="98.17113171792111" y2="98.06355123074" /><path d="M 185.9800911702706 98.14961562048488 a86.0,86.0 0 0,1 -9.607161424134198,41.387399972396054" fill="none" id="id112" stroke="none" /><text fill="#e1ed5e" style="font-size:6.75px; font-family:Arial;" text-anchor="middle"><textPath startOffset="21.466115282336823" xlink:href="#id112">April</textPath></text><path d="M 120.99980553446 99.90962569577887 l 13.32002682233729 -0.057323776370221416 a34.320150170441856,34.320150170441856 0 0,0 -0.0025424738402295244,0.5907813806305202 l -13.319040051207558 -0.17196708246398357" fill="#ffb110" stroke="none" /><path d="M 120.9904718944345 100.63252640178507 l 4.443243259758388 0.1338925911473157 a25.445260160142766,25.445260160142766 0 0,0 -0.016960922442297646,0.43768604407102857 l -4.440280204464887 -0.21035588223235044" fill="#ff3b05" stroke="none" /><path d="M 120.92983693683757 101.71520430193887 l 2.6171187143068497 0.21447339943500254 a23.625892077721463,23.625892077721463 0 0,0 -0.03670496511190048,0.4050362314344099 l -2.613039152917874 -0.259491019417983" fill="#ff2103" stroke="none" /><path d="M 120.89721153311464 102.0752229133903 l 2.0188838217186897 0.20048770428841775 a23.02881423623956,23.02881423623956 0 0,0 -0.04256788418145863,0.394125739958875 l -2.0151336360361793 -0.23520976613208416" fill="#ff1902" stroke="none" /><path d="M 120.49622156327973 104.57218783832717 l 17.397198239298238 3.880874236507715 a38.824805508533075,38.824805508533075 0 0,0 -0.15111988714875468,0.6510205186619326 l -17.32781778621893 -4.179763412518213" fill="#ffea16" stroke="none" /><path d="M 120.32669344350535 105.2749913415812 l 0.6051667038500407 0.1570471425613087 a21.625212399457492,21.625212399457492 0 0,0 -0.09660489403384566,0.35950274860262704 l -0.6023737334744178 -0.16744082433948398" fill="#ff0400" stroke="none" /><path d="M 120.02730092923936 106.31721596034902 l 1.4936142264719319 0.4711310657092725 a22.566157060641014,22.566157060641014 0 0,0 -0.12003879087895392,0.3694414105105821 l -1.485283184576731 -0.4967713761976498" fill="#ff1202" stroke="none" /><path d="M 119.79798401119884 107.00284435728193 l 4.603416720846166 1.6282976483645906 a25.882908839763008,25.882908839763008 0 0,0 -0.1521862522059089,0.4187512046761412 l -4.574706207635031 -1.707296650046863" fill="#ff4106" stroke="none" /><path d="M 119.54520255179757 107.68017299344265 l 1.457659856102692 0.5727789124106971 a22.566157060641014,22.566157060641014 0 0,0 -0.1451728011976041,0.36030698703768044 l -1.4475844406476956 -0.5977852672911911" fill="#ff1202" stroke="none" /><path d="M 119.26925614724726 108.34839909993367 l 1.4514221911952923 0.6288282029158416 a22.581787370627453,22.581787370627453 0 0,0 -0.1575982029461048,0.3553423429329646 l -1.4403829035179145 -0.6537188823414939" fill="#ff1202" stroke="none" /><path d="M 118.97047184881838 109.00673069616215 l 2.823946243676317 1.3407427880511864 a24.126061997287458,24.126061997287458 0 0,0 -0.18134382461825366,0.373621990980207 l -2.8004491624433494 -1.389153734996669" fill="#ff2803" stroke="none" /><path d="M 118.81262510543309 109.33194174019688 l 2.803249611605791 1.3905428887316647 a24.129188059284743,24.129188059284743 0 0,0 -0.18777257188693267,0.3704930983214288 l -2.7788983699325893 -1.4385901987557879" fill="#ff2803" stroke="none" /><path d="M 118.64920377521936 109.65438752849418 l 3.3396750639649406 1.728895113989224 a24.76065258273681,24.76065258273681 0 0,0 -0.1992023880270575,0.37681584676721014 l -3.30942016771299 -1.7861259758425683" fill="#ff3104" stroke="none" /><line stroke="#e1ed5e" stroke-width="0.3" x1="174.80103733775053" x2="179.2010983576182" y1="140.37084112569926" y2="142.7455964860345" /><path d="M 175.68104954172406 140.8457921977663 a86.0,86.0 0 0,1 -30.038265399797805,32.042727171017184" fill="none" id="id113" stroke="none" /><text fill="#e1ed5e" style="font-size:6.75px; font-family:Arial;" text-anchor="middle"><textPath startOffset="22.206326154141568" xlink:href="#id113">May</textPath></text><path d="M 118.48025628344425 109.97397251340804 l 1.1056159313415208 0.5967115791281193 a22.256364316709828,22.256364316709828 0 0,0 -0.18485880841313468,0.3355724331404487 l -1.0951807134768765 -0.6156545306663731" fill="#ff0e01" stroke="none" /><path d="M 118.30583269289576 110.29060199501025 l 1.177203454147825 0.6617635164167038 a22.35045878282818,22.35045878282818 0 0,0 -0.19141359034143643,0.3337457290598398 l -1.1656378676540091 -0.6819290913348588" fill="#ff0f01" stroke="none" /><path d="M 118.12598468904814 110.60418214915192 l 3.5778606771046677 2.093143460902831 a25.145158208403167,25.145158208403167 0 0,0 -0.22177924684714137,0.3717147744342534 l -3.541300554559299 -2.1544203292231887" fill="#ff3605" stroke="none" /><path d="M 117.94076556474637 110.91462005526583 l 1.4421585968793529 0.8773657449325204 a22.688073478535227,22.688073478535227 0 0,0 -0.20585144073678305,0.3318980669933458 l -1.426842516474607 -0.9020601432911397" fill="#ff1402" stroke="none" /><path d="M 117.35343817320211 111.8261652097733 l 5.424792359552456 3.6969325635915338 a27.56473019430366,27.56473019430366 0 0,0 -0.27057945126543953,0.38978988031694123 l -5.36035200112488 -3.7897637060954943" fill="#ff5808" stroke="none" /><path d="M 116.93607887273984 112.41649034213515 l 2.1202504081971694 1.554437063862666 a23.629018139718752,23.629018139718752 0 0,0 -0.24330995008435596,0.3259534392817756 l -2.0931791914177214 -1.5907033826537564" fill="#ff2103" stroke="none" /><path d="M 116.71984013943494 112.70617746262583 l 1.2469474136745269 0.947612835564246 a22.566157060641014,22.566157060641014 0 0,0 -0.23768952873334015,0.3072457567587555 l -1.2304510677231182 -0.9689365864362541" fill="#ff1202" stroke="none" /><path d="M 116.27256486870786 113.27417163493432 l 2.2624614074565734 1.845578818232014 a23.919741905466484,23.919741905466484 0 0,0 -0.26300781368982135,0.3168098544642625 l -2.2303575938732085 -1.884249929810047" fill="#ff2503" stroke="none" /><path d="M 115.80600337817218 113.82643327865902 l 2.0234795229033824 1.7700555886754314 a23.688413317667212,23.688413317667212 0 0,0 -0.2711095479416077,0.3045944511249812 l -1.9927111253134362 -1.804624209541279" fill="#ff2203" stroke="none" /><path d="M 115.07121518719521 114.62390073753431 l 0.5025445658627464 0.4876290170422403 a21.70023788739239,21.70023788739239 0 0,0 -0.2624275642870646,0.26583773711488723 l -0.49407637652014624 -0.4962072481377922" fill="#ff0600" stroke="none" /><path d="M 114.81725581225074 114.88116024355365 l 1.1050547528419334 1.1098206755224718 a22.566157060641014,22.566157060641014 0 0,0 -0.27761751196723394,0.2717071662007693 l -1.0857872884989053 -1.1286779446458133" fill="#ff1202" stroke="none" /><path d="M 114.29624159901734 115.38237550388516 l 4.728726822536665 5.087984218492255 a27.946109757972728,27.946109757972728 0 0,0 -0.35518234690720907,0.3244506526075728 l -4.640444926162592 -5.16862763768641" fill="#ff5d08" stroke="none" /><path d="M 114.0293411484842 115.62618273729858 l 1.1548902088964506 1.286341621800443 a22.728712284499963,22.728712284499963 0 0,0 -0.2933710130142712,0.2588658093222993 l -1.1325768429755916 -1.3060305728950312" fill="#ff1402" stroke="none" /><path d="M 113.48314897796784 116.09983520530334 l 2.0492519988519073 2.446952082897387 a24.191709299230492,24.191709299230492 0 0,0 -0.3215537479513527,0.2646168432962587 l -2.0068281223558637 -2.4818640450508243" fill="#ff2904" stroke="none" /><path d="M 113.20401910651253 116.32954008644616 l 2.967982825423462 3.670533504433639 a25.72035361590406,25.72035361590406 0 0,0 -0.34666444645913475,0.27541120228630717 l -2.9043608862469763 -3.7210786207250726" fill="#ff3e05" stroke="none" /><path d="M 112.04921762599082 117.19931262002967 l 0.8968238408965742 1.2801456562128892 a22.56303099864373,22.56303099864373 0 0,0 -0.320011592618405,0.2201068914244317 l -0.8746553636552858 -1.295393337002415" fill="#ff1202" stroke="none" /><path d="M 111.7513745106137 117.40417183066458 l 0.8764046743825953 1.2979841236764182 a22.566157060641014,22.566157060641014 0 0,0 -0.32379781307518757,0.21459553435114895 l -0.8539321625674436 -1.3128776791188856" fill="#ff1202" stroke="none" /><path d="M 111.45004920935366 117.60387380957326 l 0.8522277071531384 1.3102571647893086 a22.56303099864373,22.56303099864373 0 0,0 -0.32739838791742687,0.208961141487492 l -0.8295475171887811 -1.3247327351006095" fill="#ff1202" stroke="none" /><line stroke="#e1ed5e" stroke-width="0.3" x1="143.8653032363475" x2="146.44561519142675" y1="172.8068346515853" y2="177.08958963109032" /><path d="M 144.38136562736335 173.6633856474863 a86.0,86.0 0 0,1 -40.68145358897372,12.25698825130547" fill="none" id="id114" stroke="none" /><text fill="#e1ed5e" style="font-size:6.75px; font-family:Arial;" text-anchor="middle"><textPath startOffset="21.466115282336833" xlink:href="#id114">June</textPath></text><path d="M 110.8373102113329 117.98757091392108 l 0.9372941997234798 1.5557039113914397 a22.816242020424014,22.816242020424014 0 0,0 -0.33814988472134544,0.19978491226699585 l -0.9103764439737523 -1.571607395952185" fill="#ff1602" stroke="none" /><path d="M 109.89434966115114 118.52300852407294 l 0.7762045092531653 1.4531164991845946 a22.64743467257049,22.64743467257049 0 0,0 -0.3454371123838669,0.1807163708330574 l -0.7510764943428028 -1.4662622889623687" fill="#ff1302" stroke="none" /><path d="M 109.2508944713604 118.85261126421891 l 1.1030483137103309 2.2479276061804416 a23.503975659827255,23.503975659827255 0 0,0 -0.3647451390080273,0.17509983224944786 l -1.064190506702071 -2.2665817149294494" fill="#ff1f03" stroke="none" /><path d="M 108.92500713936063 119.00905698771935 l 1.363120424315011 2.9032619719321016 a24.20733960921693,24.20733960921693 0 0,0 -0.3787088475692748,0.17384665742304803 l -1.3129435809783168 -2.926295699689224" fill="#ff2904" stroke="none" /><path d="M 108.59647513512805 119.15986991738527 l 0.6411157252145576 1.4289221691464913 a22.566157060641014,22.566157060641014 0 0,0 -0.35577085977162826,0.15595948978207771 l -0.6164241907851756 -1.4397462122230236" fill="#ff1202" stroke="none" /><path d="M 107.59598834532513 119.57807347666477 l 0.7395036640855328 1.9060135973799588 a23.044444546225996,23.044444546225996 0 0,0 -0.3710482355770231,0.14029869335979525 l -0.706585207748235 -1.9184605408463848" fill="#ff1902" stroke="none" /><path d="M 106.91757812671514 119.82793768551818 l 1.0307810892041112 2.9545402783697847 a24.129188059284743,24.129188059284743 0 0,0 -0.39334054249251527,0.13344246808470503 l -0.9797708137743689 -2.971845733352613" fill="#ff2803" stroke="none" /><path d="M 105.88484417918355 120.15858648285463 l 0.43976126903566704 1.506406168751829 a22.569283122638303,22.569283122638303 0 0,0 -0.37386429317088676,0.10565778367957947 l -0.4137658077601745 -1.5137527457699276" fill="#ff1202" stroke="none" /><path d="M 105.18746579009965 120.34920634021253 l 0.6942137791487952 2.7232371272844924 a23.810329735561425,23.810329735561425 0 0,0 -0.39802562108808975,0.09782501374820361 l -0.6472348733174943 -2.7347833993467257" fill="#ff2403" stroke="none" /><path d="M 104.48393922423573 120.51570834832081 l 0.45455362079939843 2.079753771547421 a23.128848220152758,23.128848220152758 0 0,0 -0.3896754279806656,0.08166027467656713 l -0.41868673138935475 -2.087270026950529" fill="#ff1a02" stroke="none" /><path d="M 104.13013068566511 120.58985236759428 l 0.3080206349868819 1.535568698241137 a22.566157060641014,22.566157060641014 0 0,0 -0.38151031291375975,0.07311735947211961 l -0.28154270750141774 -1.5406432560617247" fill="#ff1202" stroke="none" /><path d="M 103.06178313531738 120.77559828337769 l 0.5806603167972448 3.9400457013843684 a24.98260298454422,24.98260298454422 0 0,0 -0.42597884983313533,0.059036787058752885 l -0.512752875777279 -3.949457053935724" fill="#ff3405" stroke="none" /><path d="M 102.70371172650421 120.8252237178851 l 0.4427222632299899 3.410049261639951 a24.438668197016202,24.438668197016202 0 0,0 -0.4176365634788325,0.05056997167418669 l -0.3839582766997771 -3.417164762039489" fill="#ff2c04" stroke="none" /><path d="M 102.34483914955558 120.86867818915974 l 0.3759300581869635 3.3457149533786623 a24.36676877107859,24.36676877107859 0 0,0 -0.4172140845775438,0.04324594575193346 l -0.3182833770038171 -3.351690267586354" fill="#ff2b04" stroke="none" /><path d="M 101.98527174616119 120.90594882070398 l 0.53431415563872 5.626607245864559 a26.65192009109572,26.65192009109572 0 0,0 -0.4570876411384044,0.03943944500191013 l -0.43738219675877393 -5.634970943145133" fill="#ff4b07" stroke="none" /><path d="M 101.62511606390274 120.93702456842531 l 0.338680904569847 4.363362455975213 a25.37648679620244,25.37648679620244 0 0,0 -0.4357955304434464,0.03005501128486598 l -0.2635226133474703 -4.368545811776364" fill="#ff3a05" stroke="none" /><path d="M 101.26447882468166 120.96189622390904 l 0.192747968619864 3.195279222327855 a24.201087485222356,24.201087485222356 0 0,0 -0.41604196854926134,0.02150461757329079 l -0.13771793165712307 -3.198123646663348" fill="#ff2904" stroke="none" /><line stroke="#e1ed5e" stroke-width="0.3" x1="102.19456741930631" x2="102.32365962044197" y1="184.97166512339345" y2="189.96999836594603" /><path d="M 102.22038585953345 185.97133177190398 a86.0,86.0 0 0,1 -42.740103519485714,-10.115201625700543" fill="none" id="id115" stroke="none" /><text fill="#e1ed5e" style="font-size:6.75px; font-family:Arial;" text-anchor="middle"><textPath startOffset="22.20632615414155" xlink:href="#id115">July</textPath></text><path d="M 100.18074693466247 120.99922214144158 l 0.03554283377342599 4.129374937053969 a25.129527898416733,25.129527898416733 0 0,0 -0.43257953687176004,0.0 l 0.03554283377342315 -4.129374937053969" fill="#ff3605" stroke="none" /><path d="M 99.45781275523022 120.99299961872073 l -0.05488283047982784 2.1250135455078083 a23.12572215815547,23.12572215815547 0 0,0 -0.3978501318365868,-0.013702762969337047 l 0.09145331399105767 -2.1237539841123776" fill="#ff1a02" stroke="none" /><path d="M 99.09653310690486 120.98055641714683 l -0.06751406415222205 1.5678301470947273 a22.569283122638303,22.569283122638303 0 0,0 -0.3879895473631666,-0.02005462782414315 l 0.09449167992887757 -1.5664357125083823" fill="#ff1202" stroke="none" /><path d="M 98.73552117531835 120.96189622390904 l -0.11463233680614823 1.9003174281227178 a22.90377175634806,22.90377175634806 0 0,0 -0.39333109590280385,-0.027126415257215583 l 0.14732619348788212 -1.898062668349217" fill="#ff1702" stroke="none" /><path d="M 98.01472825383883 120.90594882070398 l -0.24381038628425938 2.567450762078685 a23.579001147762153,23.579001147762153 0 0,0 -0.40372572463497963,-0.041847822093306564 l 0.28796870752483233 -2.5628735715296176" fill="#ff2003" stroke="none" /><path d="M 97.65516085044442 120.86867818915974 l -0.35743025030960995 3.181069742116761 a24.201087485222356,24.201087485222356 0 0,0 -0.41357650622764375,-0.05007835528294859 l 0.41213417958864307 -3.174445858108464" fill="#ff2904" stroke="none" /><path d="M 97.2962882734958 120.8252237178851 l -0.21693390898269374 1.6709241382035747 a22.684947416537938,22.684947416537938 0 0,0 -0.38680148001392367,-0.05360716058681452 l 0.24566398018344845 -1.6669424121241552" fill="#ff1402" stroke="none" /><path d="M 96.93821686468263 120.77559828337769 l -0.47537575386147884 3.2256418104740194 a24.26048266317082,24.26048266317082 0 0,0 -0.4126178256586642,-0.0644424184537078 l 0.5308294431286602 -3.216981084673206" fill="#ff2a04" stroke="none" /><path d="M 96.22490169976321 120.6578951692458 l -0.28379055346949233 1.5529438010203043 a22.578661308630167,22.578661308630167 0 0,0 -0.3817217135324163,-0.07315787490382093 l 0.3104798815736037 -1.5478287277680154" fill="#ff1202" stroke="none" /><path d="M 95.51606077576429 120.51570834832081 l -0.3524292390338935 1.612496316265841 a22.650560734567776,22.650560734567776 0 0,0 -0.3801841078042067,-0.08652866516304848 l 0.3801334962309629 -1.6061909175251057" fill="#ff1302" stroke="none" /><path d="M 95.16358092515715 120.4354850818985 l -1.4406195567389342 6.087098534029809 a27.2552500565722,27.2552500565722 0 0,0 -0.4556126669458141,-0.11197850853416731 l 1.5451855084279589 -6.061398767181611" fill="#ff5407" stroke="none" /><path d="M 94.11515582081647 120.15858648285463 l -0.43888525057145106 1.5034053596507286 a22.566157060641014,22.566157060641014 0 0,0 -0.37193865187618086,-0.11206206475100823 l 0.46469887688787775 -1.4956279257939948" fill="#ff1202" stroke="none" /><path d="M 93.76903079525671 120.05430185196036 l -0.7967591521889972 2.5643600564012843 a23.685287255669927,23.685287255669927 0 0,0 -0.3883018494055588,-0.1243219900114108 l 0.8407823466854963 -2.550265219730167" fill="#ff2203" stroke="none" /><path d="M 93.08242187328487 119.8279376855182 l -2.167523591074655 6.212799032907655 a27.580047898090367,27.580047898090367 0 0,0 -0.44690241983882734,-0.16024330772770234 l 2.274145571543209 -6.174568184139995" fill="#ff5808" stroke="none" /><path d="M 92.40401165467489 119.57807347666478 l -0.6852281658040255 1.7661226911502395 a22.8943935703562,22.8943935703562 0 0,0 -0.36617829890883064,-0.14570990219464602 l 0.7155275407547141 -1.7540659445495268" fill="#ff1702" stroke="none" /><path d="M 92.06813273071674 119.44442032107085 l -0.9457715513936071 2.318493104924374 a23.503975659827255,23.503975659827255 0 0,0 -0.3732974618013979,-0.15603836930830545 l 0.9855404726924673 -2.3018696925960955" fill="#ff1f03" stroke="none" /><path d="M 90.42595943632237 118.69057910512821 l -2.139214075917544 4.176204356228681 a25.692219057928472,25.692219057928472 0 0,0 -0.391878642787459,-0.20501238457793788 l 2.210783621231499 -4.138762552706026" fill="#ff3e05" stroke="none" /><path d="M 90.10565033884886 118.52300852407294 l -1.5376802801903298 2.8786596302632184 a24.263608725168105,24.263608725168105 0 0,0 -0.36670075767206534,-0.1999544910444596 l 1.5870038497310357 -2.8517644874589934" fill="#ff2a04" stroke="none" /><line stroke="#e1ed5e" stroke-width="0.3" x1="58.666819895761336" x2="56.23545636021788" y1="174.27360380694188" y2="178.64263932499728" /><path d="M 58.180547188652646 175.14741091055294 a86.0,86.0 0 0,1 -31.652253787137756,-30.449443065178592" fill="none" id="id116" stroke="none" /><text fill="#e1ed5e" style="font-size:6.75px; font-family:Arial;" text-anchor="middle"><textPath startOffset="22.20632615414155" xlink:href="#id116">August</textPath></text><path d="M 88.54995079064634 117.60387380957326 l -1.1948232454286996 1.8369805450346095 a23.191369460098507,23.191369460098507 0 0,0 -0.3327688756760491,-0.22054106546590638 l 1.2262668198447106 -1.8161414584773847" fill="#ff1b02" stroke="none" /><path d="M 88.24862548938628 117.40417183066458 l -3.635067691351367 5.383654708582033 a27.495956830363333,27.495956830363333 0 0,0 -0.3899753067919016,-0.2682285719961661 l 3.727199882766159 -5.320285347220765" fill="#ff5708" stroke="none" /><path d="M 86.24171649860922 115.8653595955263 l -5.576865720474746 6.4309606690654135 a29.512266818613746,29.512266818613746 0 0,0 -0.38092979067840127,-0.3361262503263793 l 5.686737864059736 -6.334011276966746" fill="#ff720a" stroke="none" /><path d="M 84.19399662182784 113.82643327865904 l -1.9246584299243794 1.68361101341454 a23.55711871378114,23.55711871378114 0 0,0 -0.26435292751585276,-0.3075021770103755 l 1.9533538670110109 -1.650231737242634" fill="#ff2003" stroke="none" /><path d="M 83.72743513129214 113.27417163493432 l -0.806637739489334 0.6580061525388223 a22.040978645096722,22.040978645096722 0 0,0 -0.23728907011608044,-0.2960545998322737 l 0.8178447216602754 -0.644023719128289" fill="#ff0a01" stroke="none" /><path d="M 83.28015986056508 112.70617746262583 l -2.6457187639441577 2.0106036810474968 a24.323003903116568,24.323003903116568 0 0,0 -0.25045597877049663,-0.33552671249417626 l 2.6799360094097393 -1.9647640890440123" fill="#ff2b04" stroke="none" /><line stroke="#e1ed5e" stroke-width="0.3" x1="26.63291911575756" x2="22.317208475507996" y1="142.92168965132927" y2="145.44649492493687" /><path d="M 25.769776987707644 143.4266507060508 a86.0,86.0 0 0,1 -11.730757126820373,-40.83630448921669" fill="none" id="id117" stroke="none" /><text fill="#e1ed5e" style="font-size:6.75px; font-family:Arial;" text-anchor="middle"><textPath startOffset="21.46611528233685" xlink:href="#id117">September</textPath></text><path d="M 81.69416730710424 110.29060199501025 l -15.728746151252889 8.84189587212319 a39.0436298483432,39.0436298483432 0 0,0 -0.32429190981876005,-0.5886840132737243 l 15.878614470523164 -8.569841340451644" fill="#ffec16" stroke="none" /><path d="M 80.45479744820244 107.68017299344265 l -0.7942936940439821 0.31211306005612865 a21.853414925259475,21.853414925259475 0 0,0 -0.13456055048822083,-0.3512951363325774 l 0.799548524125712 -0.29839435689039334" fill="#ff0801" stroke="none" /><path d="M 79.97269907076064 106.31721596034903 l -1.4936142264719316 0.4711310657092732 a22.566157060641014,22.566157060641014 0 0,0 -0.11366167925893213,-0.37145294423894104 l 1.5015026782369942 -0.44535114891828437" fill="#ff1202" stroke="none" /><path d="M 79.76711848015287 105.62410040840567 l -5.849048952036586 1.6258504043363908 a27.07081239873224,27.07081239873224 0 0,0 -0.12093166600552394,-0.4500317168905459 l 5.876168694383885 -1.5249277542703061" fill="#ff5107" stroke="none" /><path d="M 79.67330655649465 105.27499134158121 l -0.7564583798125483 0.19630892820163537 a21.781515499321863,21.781515499321863 0 0,0 -0.09105574373082277,-0.36372243339744736 l 0.7597254378384295 -0.18325865540679614" fill="#ff0701" stroke="none" /><path d="M 79.58551787078972 104.9243191809786 l -1.145665960260355 0.27635405235344934 a22.178525372977372,22.178525372977372 0 0,0 -0.08632667202295206,-0.3718930436959636 l 1.1502531982138622 -0.2565923513089115" fill="#ff0c01" stroke="none" /><path d="M 79.4281124754447 104.21870165774334 l -2.1497578596997595 0.4408534236655177 a23.194495522095796,23.194495522095796 0 0,0 -0.07684012419370519,-0.3918061378117749 l 2.157027916869131 -0.4037835587857879" fill="#ff1b02" stroke="none" /><path d="M 79.23777060512086 103.15116336523772 l -1.6473257467965663 0.2500209609088769 a22.666191044554214,22.666191044554214 0 0,0 -0.05522557974446101,-0.3862475761071914 l 1.6513853775576264 -0.22162791282128488" fill="#ff1302" stroke="none" /><path d="M 79.18660465613746 102.79330883721812 l -3.494864363761733 0.46903618323153756 a24.526197932940253,24.526197932940253 0 0,0 -0.05255437575692308,-0.41891008349421555 l 3.502420248765504 -0.4088083454499134" fill="#ff2e04" stroke="none" /><path d="M 79.07016306316243 101.71520430193888 l -3.190392337440731 0.26145328693029035 a24.201087485222356,24.201087485222356 0 0,0 -0.030451238829764807,-0.4154829602102245 l 3.1944201349348313 -0.2064971902233052" fill="#ff2904" stroke="none" /><path d="M 79.0235259727143 100.99374915477108 l -10.641684203105715 0.5041440553079187 a31.653619286755653,31.653619286755653 0 0,0 -0.02109919797879389,-0.5444765476539393 l 10.648785533935708 -0.32089026063998266" fill="#ff8f0d" stroke="none" /><line stroke="#e1ed5e" stroke-width="0.3" x1="15.007084014347285" x2="10.007500721073583" y1="101.09737516637583" y2="101.16192664675087" /><path d="M 14.007167355692545 101.11028546245083 a86.0,86.0 0 0,1 10.666146001902534,-42.60595125391555" fill="none" id="id118" stroke="none" /><text fill="#e1ed5e" style="font-size:6.75px; font-family:Arial;" text-anchor="middle"><textPath startOffset="22.20632615414155" xlink:href="#id118">October</textPath></text><path d="M 79.00175016825051 100.2711162175752 l -3.7509617604902745 0.048430063120580784 a24.751274396744947,24.751274396744947 0 0,0 -0.001833601174631942,-0.42606433794301624 l 3.7512396589544097 0.016143753026110815" fill="#ff3104" stroke="none" /><path d="M 79.00019446554 99.90962569577889 l -3.2510743710938237 -0.013991252622629381 a24.251104477178956,24.251104477178956 0 0,0 0.005389511046787177,-0.4174235700232165 l 3.2503518529293207 0.06995108070631786" fill="#ff2a04" stroke="none" /><path d="M 79.00486145842228 99.54816195383935 l -3.844166133752946 -0.08273060506612592 a24.84505625666357,24.84505625666357 0 0,0 0.012881931609011443,-0.42748859592561755 l 3.8421725076882893 0.14888934841673787" fill="#ff3204" stroke="none" /><path d="M 79.05617556472873 98.46500227214037 l -1.5619675483869475 -0.1144784537883466 a22.566157060641014,22.566157060641014 0 0,0 0.03172749692503459,-0.3871558252882088 l 1.5597655676424158 0.1413481962843338" fill="#ff1202" stroke="none" /><path d="M 79.12142395522702 97.74499172005258 l -2.7598922923983107 -0.2980845033576588 a23.775943053591263,23.775943053591263 0 0,0 0.04744958954203724,-0.4065191062201643 l 2.7543523498526845 0.3455473479026848" fill="#ff2303" stroke="none" /><path d="M 79.16333360222342 97.38593545837743 l -2.484500261522524 -0.3116930469257327 a23.503975659827255,23.503975659827255 0 0,0 0.05381738989389446,-0.4010020651178476 l 2.4787668725707954 0.35441345410823966" fill="#ff1f03" stroke="none" /><path d="M 79.32604984820605 96.31383870115002 l -8.312398228043653 -1.482098990462396 a29.443493454673423,29.443493454673423 0 0,0 0.09325774536677764,-0.4981866047872723 l 8.285654758767015 1.624963672712241" fill="#ff710a" stroke="none" /><path d="M 79.46518482838121 95.60439243477599 l -1.5345208988246835 -0.3284739412308229 a22.569283122638303,22.569283122638303 0 0,0 0.08458710776627691,-0.3791874182511647 l 1.5286394040563689 0.3548395290319468" fill="#ff1202" stroke="none" /><path d="M 79.62865764111835 94.90015583598534 l -1.5829545396626845 -0.39628323596847276 a22.631804362584052,22.631804362584052 0 0,0 0.09785956440553394,-0.3770928210831894 l 1.5758986433868432 0.423472482600526" fill="#ff1302" stroke="none" /><path d="M 79.71946130924805 94.55025226153421 l -2.1162930057742853 -0.5686862266340397 a23.191369460098507,23.191369460098507 0 0,0 0.10691577963908623,-0.38463294481845 l 2.106190455568838 0.6050304748714322" fill="#ff1b02" stroke="none" /><path d="M 79.81627453868168 94.20196356495316 l -2.1602723788216758 -0.6205662074644219 a23.24763857604968,23.24763857604968 0 0,0 0.11379619769982388,-0.3836642075236357 l 2.1492702840101447 0.6576598017345969" fill="#ff1c02" stroke="none" /><path d="M 79.91906864156998 93.8553929516997 l -2.0924745463242043 -0.6402807527318751 a23.18824339810122,23.18824339810122 0 0,0 0.12007591955198373,-0.38067347868377094 l 2.0811431430040166 0.6762043978420605" fill="#ff1b02" stroke="none" /><path d="M 80.14247586403 93.16781622104843 l -3.026936761864497 -1.0414484757876692 a24.201087485222356,24.201087485222356 0 0,0 0.13892221606646804,-0.39275181228671513 l 3.0085614649882193 1.0933979145009953" fill="#ff2904" stroke="none" /><path d="M 80.2630227832202 92.82701384747504 l -11.619981048855868 -4.223035890479919 a33.36357519927189,33.36357519927189 0 0,0 0.20080965792232683,-0.5380700469511938 l 11.545566802431914 4.422429074460454" fill="#ffa50f" stroke="none" /><path d="M 80.52162464483688 92.15188598940014 l -1.507767460127216 -0.6075009189826684 a22.625552238589478,22.625552238589478 0 0,0 0.14865883481660683,-0.35998916002141684 l 1.4970869384244094 0.6333646494573966" fill="#ff1302" stroke="none" /><path d="M 80.65960295795068 91.81776055985345 l -1.9289389398929888 -0.8160659906470301 a23.094461538182596,23.094461538182596 0 0,0 0.158042317819892,-0.36478345940604995 l 1.9146059122304162 0.8491485946396793" fill="#ff1902" stroke="none" /><path d="M 80.803312248108 91.48605970444005 l -8.572862293569028 -3.802157886446325 a30.37818599186237,30.37818599186237 0 0,0 0.21611574295431454,-0.4761823923725331 l 8.50614423365136 3.949162287660929" fill="#ff7e0b" stroke="none" /><path d="M 80.95270993114464 91.15688171328213 l -1.4176907056085606 -0.6581937146101551 a22.56303099864373,22.56303099864373 0 0,0 0.16658157516353678,-0.35086328089261365 l 1.4061509366032723 0.6824994111433009" fill="#ff1202" stroke="none" /><path d="M 81.26839172434947 90.50648371742162 l -5.072079571821359 -2.57062123513508 a26.686306773065883,26.686306773065883 0 0,0 0.21119106902280513,-0.40795392458490054 l 5.0270790696384395 2.657547881980316" fill="#ff4c07" stroke="none" /><path d="M 81.6062741919709 89.86733742301443 l -1.3717839783685541 -0.7556829065732823 a22.566157060641014,22.566157060641014 0 0,0 0.19035344231844853,-0.33861753367664643 l 1.358572894757675 0.7791839501847133" fill="#ff1202" stroke="none" /><line stroke="#e1ed5e" stroke-width="0.3" x1="26.266209847984243" x2="21.928928074336255" y1="57.711370442889674" y2="55.22380399835377" /><path d="M 25.398753493254645 57.213857153982495 a86.0,86.0 0 0,1 29.58750427330803,-30.492523968695096" fill="none" id="id119" stroke="none" /><text fill="#e1ed5e" style="font-size:6.75px; font-family:Arial;" text-anchor="middle"><textPath startOffset="21.46611528233685" xlink:href="#id119">November</textPath></text><path d="M 81.78341655067845 89.55222093294921 l -1.431789398067969 -0.8211758995958656 a22.650560734567776,22.650560734567776 0 0,0 0.19688765380560366,-0.336544822424462 l 1.4174420697920405 0.8457001343742194" fill="#ff1302" stroke="none" /><path d="M 82.34701348167596 88.62581576622439 l -3.1533903024891767 -2.0317945761915457 a24.751274396744947,24.751274396744947 0 0,0 0.23384457711874096,-0.35616133410611384 l 3.1179490900125155 2.0857739742753267" fill="#ff3104" stroke="none" /><path d="M 82.7489923806493 88.02491185347247 l -1.2865613041056212 -0.8930889929753617 a22.566157060641014,22.566157060641014 0 0,0 0.22425105705139947,-0.31718721684057055 l 1.2709976272503434 0.9151027101477185" fill="#ff1202" stroke="none" /><path d="M 82.95767976084542 87.72973835380427 l -1.4257498333626615 -1.0265224014032297 a22.75684684247555,22.75684684247555 0 0,0 0.23161852340657596,-0.31592740562844035 l 1.4078686974424521 1.0509122507031707" fill="#ff1502" stroke="none" /><path d="M 83.84228863543731 86.58626213691792 l -48.47313409368807 -40.241213589246236 a84.0,84.0 0 0,0 0.9331575460515031,-1.1045642014835364 l 47.77326593414944 41.06963674035889" fill="#4dd2ff" stroke="none" /><path d="M 84.80347519578584 85.50635884689758 l -1.6332767241853074 -1.5577329059793947 a23.257016762041545,23.257016762041545 0 0,0 0.27879153517435457,-0.2873191834649765 l 1.6062209253078346 1.5856162849944948" fill="#ff1c02" stroke="none" /><path d="M 85.57189188830299 84.74124197986013 l -2.1950204757555722 -2.3213914138648026 a24.19483536122778,24.19483536122778 0 0,0 0.3050762693587881,-0.28353514395605267 l 2.154736322601928 2.358831143895503" fill="#ff2904" stroke="none" /><path d="M 86.37877921826538 84.01681056812374 l -1.3504190432317558 -1.584586559916078 a23.081957290193447,23.081957290193447 0 0,0 0.3046185950099443,-0.25510931295901684 l 1.3229429112627011 1.6075970302689073" fill="#ff1902" stroke="none" /><path d="M 87.51073957382395 83.11751280151077 l -0.18963355447783223 -0.25633912230431755 a21.31885832372332,21.31885832372332 0 0,0 0.29689523651252625,-0.21570701568856096 l 0.1851930016115243 0.25956537280954634" fill="#ff0000" stroke="none" /><path d="M 88.09926311788651 82.69761687909137 l -0.9902935566929882 -1.439779627917156 a22.74746865648369,22.74746865648369 0 0,0 0.3245254677912807,-0.21912104450314912 l 0.9653633944951681 1.4566125847189704" fill="#ff1502" stroke="none" /><line stroke="#e1ed5e" stroke-width="0.3" x1="56.762969772571076" x2="54.21961505331055" y1="26.818313649435495" y2="22.513508569990535" /><path d="M 56.25429882871897 25.957352633546506 a86.0,86.0 0 0,1 42.265352541879196,-11.944610805530505" fill="none" id="id120" stroke="none" /><text fill="#e1ed5e" style="font-size:6.75px; font-family:Arial;" text-anchor="middle"><textPath startOffset="22.20632615414155" xlink:href="#id120">December</textPath></text><path d="M 89.94658935756843 81.56283822128135 l -3.1816688385174987 -5.834929576483203 a27.646007806233133,27.646007806233133 0 0,0 0.41976507298736065,-0.22422396460477156 l 3.0807587190018326 5.888832267589724" fill="#ff5908" stroke="none" /><path d="M 90.58718382345135 81.22770947309562 l -0.32647790172914226 -0.6511056741066413 a21.728372445367977,21.728372445367977 0 0,0 0.33578481807718297,-0.16476815193301922 l 0.31522181664153337 0.6566289861744902" fill="#ff0601" stroke="none" /><path d="M 91.23893434514133 80.91482961587045 l -0.6533907063855431 -1.4233511595543467 a22.566157060641014,22.566157060641014 0 0,0 0.3544153388612696,-0.15901583158789306 l 0.6287932490574991 1.4343873216587686" fill="#ff1202" stroke="none" /><path d="M 91.90106846888425 80.62456947434976 l -0.25679444393454864 -0.6143406557656597 a21.66585120542223,21.66585120542223 0 0,0 0.345329041788231,-0.1408683868412777 l 0.24618153255793718 0.6186699287905144" fill="#ff0500" stroke="none" /><path d="M 92.23578459929587 80.48803036053334 l -1.0402036586955083 -2.6140982906641432 a23.81345579755871,23.81345579755871 0 0,0 0.3821683573006354,-0.14827538529098325 l 0.9950521363951966 2.6316163798456778" fill="#ff2403" stroke="none" /><path d="M 92.57280143429618 80.3572730644239 l -1.1155640062475047 -2.95033436362699 a24.154196555263045,24.154196555263045 0 0,0 0.39016811325278783,-0.1437022088751595 l 1.0646135672221473 2.969099840308472" fill="#ff2803" stroke="none" /><path d="M 92.91201910852362 80.23233633223022 l -1.4791692367579066 -4.125253782089638 a25.382426313997286,25.382426313997286 0 0,0 0.41254661340499454,-0.14392941285190705 l 1.4079406192896267 4.150104048113755" fill="#ff3a05" stroke="none" /><path d="M 93.59665428221793 80.00007090966166 l -0.47755452893475264 -1.4915728646263342 a22.566157060641014,22.566157060641014 0 0,0 0.3709603570971593,-0.11525918869257648 l 0.4518087991268646 1.499572188201436" fill="#ff1202" stroke="none" /><path d="M 94.63758080256005 79.69619591428918 l -1.6938869917625599 -6.4135884118310225 a27.633503558243984,27.633503558243984 0 0,0 0.46094146052115753,-0.11750424157658312 l 1.5832366425564028 6.441795649576469" fill="#ff5908" stroke="none" /><path d="M 97.11714578562143 79.19881850522333 l -2.2220970302395036 -16.033500200765406 a37.186749021954455,37.186749021954455 0 0,0 0.6348048485259761,-0.08241588835981714 l 1.9457774532056695 16.06937441228936" fill="#ffd513" stroke="none" /><path d="M 98.19473922651362 79.07773832637324 l -0.35338164692543983 -4.095554169358355 a25.110771526433005,25.110771526433005 0 0,0 0.4309604005146386,-0.033450821414161544 l 0.28283105704846706 4.101030252960978" fill="#ff3605" stroke="none" /><path d="M 98.55514903715128 79.0497635885617 l -0.1292634717004782 -1.8743111650414823 a22.878763260369762,22.878763260369762 0 0,0 0.393120288569292,-0.023714089371438627 l 0.09698113429156319 1.8762585237932274" fill="#ff1602" stroke="none" /><path d="M 99.63851952072746 79.00311137660856 l -0.16482008674063778 -9.573709239169345 a30.57512789769148,30.57512789769148 0 0,0 0.5263005660131711,-0.004530035130693951 l 2.3452299462668795e-15 9.57512789769148" fill="#ff800b" stroke="none" /></svg>