<?xml version="1.0" encoding="utf-8" ?>
<svg baseProfile="full" height="200mm" version="1.1" viewBox="0,0,200,200" width="200mm" xmlns="http://www.w3.org/2000/svg" xmlns:ev="http://www.w3.org/2001/xml-events" xmlns:xlink="http://www.w3.org/1999/xlink"><defs /><rect fill="#1a1a1a" height="200" width="200" x="0" y="0" /><text alignment-baseline="middle" fill="#e1ed5e" style="dominant-baseline: central; font-size:9.0px; font-family:Arial;" text-anchor="middle" x="100.0" y="100.0">2024</text><line stroke="#e1ed5e" stroke-width="0.3" x1="100.0" x2="100.0" y1="15.0" y2="10.0" /><path d="M 100.0 14.0 a86.0,86.0 0 0,1 42.35913384403234,11.155469271406648" fill="none" id="id121" stroke="none" /><text fill="#e1ed5e" style="font-size:6.75px; font-family:Arial;" text-anchor="middle"><textPath startOffset="22.145653131862478" xlink:href="#id121">January</textPath></text><path d="M 101.44090949804482 79.04949213459386 l 0.16146367953483493 -2.3476464640298773 a23.353192393299135,23.353192393299135 0 0,0 0.39970768653004185,0.030939902865509964 l -0.2017403608401103 2.3445287941693134" fill="#ff1b02" stroke="none" /><path d="M 102.15924093988457 79.11130261209362 l 1.976993192979631 -19.125615758429436 a40.227524027398125,40.227524027398125 0 0,0 0.686289410786099,0.07690015994130736 l -2.3050185053665264 19.08885983798116" fill="#fffa17" stroke="none" /><path d="M 104.29559338865022 79.4440306129975 l 0.22265919043392135 -1.0655048297605865 a22.088520857552957,22.088520857552957 0 0,0 0.37049558130106214,0.08074778753415622 l -0.24091718835411763 1.0615255840927116" fill="#ff0901" stroke="none" /><path d="M 104.9986988182912 79.60360301121754 l 0.5601380969331535 -2.285554583081537 a23.353192393299135,23.353192393299135 0 0,0 0.388546752786081,0.09876706515796443 l -0.5992901429446289 2.2756022860883047" fill="#ff1b02" stroke="none" /><path d="M 106.72888874123014 80.10723608172694 l 20.186666223690402 -59.67829175481916 a84.0,84.0 0 0,0 1.3619769118199267,0.4737662697256382 l -21.208148907555344 59.32296705252493" fill="#4dd2ff" stroke="none" /><path d="M 107.74402155503746 80.48000691201159 l 0.8330876378370051 -2.099925060473086 a23.259141490017775,23.259141490017775 0 0,0 0.36987078748246593,0.15042322930331858 l -0.8690128865099108 2.0853145745904733" fill="#ff1a02" stroke="none" /><path d="M 108.73861861582097 80.90454125486305 l 1.4369915010058953 -3.1400857653738683 a24.453271374778815,24.453271374778815 0 0,0 0.3802032898394353,0.1779543372343856 l -1.4906835047168359 3.114955196568949" fill="#ff2b04" stroke="none" /><path d="M 109.06512990194946 81.05736502329252 l 2.2518561498484297 -4.705513272066792 a26.216580419509214,26.216580419509214 0 0,0 0.40428432705975414,0.19775572331090835 l -2.3323007261702506 4.666163798658663" fill="#ff4406" stroke="none" /><path d="M 110.02825361518725 81.54914285379988 l 2.1585222914169253 -3.9714378967746677 a25.52012582241709,25.52012582241709 0 0,0 0.3831127611668842,0.2125061904926363 l -2.22637924073991 3.9337987908488854" fill="#ff3a05" stroke="none" /><path d="M 110.34350942703115 81.72400993836675 l 3.006693890537255 -5.312540008735162 a27.104366428697237,27.104366428697237 0 0,0 0.40296130251957424,0.23264981648267843 l -3.0974476609172266 5.260143294976312" fill="#ff5007" stroke="none" /><line stroke="#e1ed5e" stroke-width="0.3" x1="143.13028292997686" x2="145.6673583964461" y1="26.7553504044142" y2="22.446841604673864" /><path d="M 143.63769802327073 25.89364864446614 a86.0,86.0 0 0,1 29.32050498858742,28.57503671076993" fill="none" id="id122" stroke="none" /><text fill="#e1ed5e" style="font-size:6.75px; font-family:Arial;" text-anchor="middle"><textPath startOffset="20.669276256404974" xlink:href="#id122">February</textPath></text><path d="M 110.65571695917076 81.90426304109057 l 2.488126976786122 -4.225383563096452 a25.903533634828715,25.903533634828715 0 0,0 0.38123493980658557,0.2289206275843368 l -2.5602946731501417 4.182048934976194" fill="#ff3f05" stroke="none" /><path d="M 111.8722381534696 82.67804972795209 l 3.62673024997404 -5.291507820858765 a27.41507812300725,27.41507812300725 0 0,0 0.3859062699531326,0.26939254741857155 l -3.7170316111009334 5.228470457635067" fill="#ff5407" stroke="none" /><path d="M 112.16784306229584 82.88440491214696 l 3.07962775098951 -4.3318821041160485 a26.31500796317612,26.31500796317612 0 0,0 0.3659277160670324,0.2649034468917537 l -3.15353647743051 4.27837788585122" fill="#ff4506" stroke="none" /><path d="M 115.16444852881244 85.47280134310134 l 7.421424789676176 -7.109557069089225 a31.27732200660545,31.27732200660545 0 0,0 0.3680956033469063,0.39090477479521857 l -7.542376226759343 6.981110834349511" fill="#ff880c" stroke="none" /><path d="M 115.6541949942343 86.00192230759917 l 4.135006680540561 -3.6975484714558733 a26.547084364500034,26.547084364500034 0 0,0 0.300852969662329,0.3423154526578226 l -4.197870714161481 3.626020740986753" fill="#ff4806" stroke="none" /><path d="M 116.35404254752997 86.82634096563983 l 3.8729971812853106 -3.1198123741580175 a25.973262150359,25.973262150359 0 0,0 0.276718602322967,0.3496249143515356 l -3.925982214249837 3.0528675158918035" fill="#ff4006" stroke="none" /><path d="M 116.7966241395341 87.39550010848427 l 11.56245439897602 -8.676681338277017 a35.45597284081582,35.45597284081582 0 0,0 0.3611409992543442,0.4899571246256606 l -11.709697417814189 8.476917904382482" fill="#ffbe11" stroke="none" /><path d="M 117.42321728460499 88.27688183743584 l 6.0442459597035425 -4.0668384278152026 a28.28505895784976,28.28505895784976 0 0,0 0.26759761707672347,0.40517689889939346 l -6.11316801570099 3.9624816505767506" fill="#ff6008" stroke="none" /><path d="M 117.62189284568427 88.57770195909679 l 1.8980505150857718 -1.230293412282845 a23.261905753590085,23.261905753590085 0 0,0 0.21432224868502867,0.33695017291217266 l -1.9188904553966903 1.1975295646920006" fill="#ff1a02" stroke="none" /><path d="M 117.81537515405839 88.88188828441811 l 4.599663656472251 -2.8705303112918545 a26.42188620506895,26.42188620506895 0 0,0 0.2368307344432311,0.38684520619234974 l -4.648262355370885 2.79114798897495" fill="#ff4606" stroke="none" /><line stroke="#e1ed5e" stroke-width="0.3" x1="172.87174338648825" x2="177.1583165268699" y1="56.24261187166439" y2="53.66864786411523" /><path d="M 173.72905801456457 55.72781907015455 a86.0,86.0 0 0,1 12.242430191666344,42.057860355516425" fill="none" id="id123" stroke="none" /><text fill="#e1ed5e" style="font-size:6.75px; font-family:Arial;" text-anchor="middle"><textPath startOffset="22.145653131862474" xlink:href="#id123">March</textPath></text><path d="M 118.18653347947321 89.5 l 3.3456733987518277 -1.9316254373899384 a24.863250874779876,24.863250874779876 0 0,0 0.21023256154590442,0.3714607921566365 l -3.378339325319108 1.8739078751341838" fill="#ff3104" stroke="none" /><path d="M 118.53625476483649 90.13048839642627 l 1.9967754983132562 -1.0631704840245932 a23.2621767987417,23.2621767987417 0 0,0 0.18464843668707123,0.35408772415643625 l -2.014732003975272 1.0287365167636586" fill="#ff1a02" stroke="none" /><path d="M 118.70294669586156 90.45014215332178 l 2.853941814840054 -1.4572430257978601 a24.204456446689367,24.204456446689367 0 0,0 0.1857750662257202,0.3716745782347269 l -2.8785367942775113 1.4080365913993829" fill="#ff2703" stroke="none" /><path d="M 118.8641267826498 90.77261029715802 l 2.031157498787549 -0.9935409152572388 a23.261133418259764,23.261133418259764 0 0,0 0.17237689729728922,0.3602014178768428 l -2.0479136540447502 0.9585269953152925" fill="#ff1a02" stroke="none" /><path d="M 119.16976305983485 91.42560881287824 l 4.129641453899929 -1.8471360954107325 a25.523919792916086,25.523919792916086 0 0,0 0.17546615315302427,0.401500896933292 l -4.160741489069923 1.7759731287015912" fill="#ff3a05" stroke="none" /><path d="M 119.31412917781788 91.75594674310238 l 4.158917788243369 -1.7751946992626897 a25.521936906863857,25.521936906863857 0 0,0 0.16853490696916693,0.40442242374738674 l -4.188778539749019 1.703539766074025" fill="#ff3a05" stroke="none" /><path d="M 119.71291397450082 92.76114493625339 l 2.1237656607207667 -0.7798761678362662 a23.262429538972583,23.262429538972583 0 0,0 0.13443449967687926,0.3760372218158656 l -2.136840330441589 0.7433039896394839" fill="#ff1a02" stroke="none" /><path d="M 119.83427380445688 93.10060997987247 l 2.1357057268734847 -0.7429093156215815 a23.26122825098165,23.26122825098165 0 0,0 0.1279529035771971,0.378270023684979 l -2.1481440520230466 0.7061376174624409" fill="#ff1a02" stroke="none" /><path d="M 119.94978838288452 93.4421083053983 l 2.1482169621748977 -0.7061615844775337 a23.26130499932401,23.26130499932401 0 0,0 0.12144094214251412,0.38041202159605786 l -2.1600226200946686 0.6691805291900889" fill="#ff1a02" stroke="none" /><path d="M 120.16314734710363 94.1308016681162 l 5.648899192276857 -1.6443122269328452 a26.883351492486828,26.883351492486828 0 0,0 0.12517593557259035,0.4442052355630016 l -5.67629361992403 1.5470990674668303" fill="#ff4d07" stroke="none" /><path d="M 120.26092885502905 94.47779374421319 l 2.179345893650988 -0.5939904144352975 a23.258843318296876,23.258843318296876 0 0,0 0.10168602290163173,0.386118391737941 l -2.18922139735735 0.556491518324558" fill="#ff1a02" stroke="none" /><path d="M 120.43855184770803 95.1765574152323 l 2.2019244674070864 -0.5196481787785913 a23.26241145459306,23.26241145459306 0 0,0 0.08838513181205011,0.38944119891516354 l -2.2105204607768028 0.48177264592440144" fill="#ff1a02" stroke="none" /><path d="M 120.51834098615036 95.52812308129327 l 4.43674291432418 -0.966967468090821 a25.540893499318365,25.540893499318365 0 0,0 0.08968780734432309,0.4291886254943338 l -4.452688432492869 0.8906623913110827" fill="#ff3a05" stroke="none" /><path d="M 120.592083275326 95.88100663000786 l 4.42894924830267 -0.8859138896184144 a25.516684056236347,25.516684056236347 0 0,0 0.08222898184525168,0.4302567796746957 l -4.443504522430079 0.8097545449104042" fill="#ff3a05" stroke="none" /><path d="M 120.65975698304385 96.23510406497455 l 2.224325067690966 -0.405346123499809 a23.26095720583003,23.26095720583003 0 0,0 0.06821572832506523,0.3934501933546081 l -2.2309556135082658 0.36710289722460815" fill="#ff1a02" stroke="none" /><path d="M 120.7213421655516 96.59031103205396 l 7.187370050193549 -1.182679006644277 a28.284024840098798,28.284024840098798 0 0,0 0.07472169021204399,0.47976685288513665 l -7.206613232543859 1.0591239718276992" fill="#ff6008" stroke="none" /><path d="M 120.86939407059847 97.66154086499901 l 2.7270987798217874 -0.30557710646274727 a23.744165651504957,23.744165651504957 0 0,0 0.04191140062953769,0.4054547821330777 l -2.7319425729329914 0.2587178020467382" fill="#ff2103" stroke="none" /><path d="M 120.93736805541906 98.37931529534042 l 3.2513199054897433 -0.2516727234691095 a24.26104588860264,24.26104588860264 0 0,0 0.028577246346504225,0.4155068900347331 l -3.255161113001314 0.19582240928004224" fill="#ff2803" stroke="none" /><path d="M 120.98066250479742 99.09900007780936 l 2.3488368771757395 -0.10086916192898769 a23.351001757423617,23.351001757423617 0 0,0 0.013760759794536503,0.40062950711199785 l -2.3502223239671243 0.060533390252869884" fill="#ff1b02" stroke="none" /><path d="M 120.99303781780057 99.45929381324524 l 18.438346634252973 -0.47490640398007644 a39.44446157244524,39.44446157244524 0 0,0 0.0116240356426127,0.6770418010346446 l -18.44378210149425 0.1583176869763654" fill="#fff016" stroke="none" /><line stroke="#e1ed5e" stroke-width="0.3" x1="184.99686870605535" x2="189.99668451229388" y1="99.2704041080226" y2="99.22748670261217" /><path d="M 185.99683186730306 99.26182062694052 a86.0,86.0 0 0,1 -10.086455211305974,41.156179273409016" fill="none" id="id124" stroke="none" /><text fill="#e1ed5e" style="font-size:6.75px; font-family:Arial;" text-anchor="middle"><textPath startOffset="21.40746469413373" xlink:href="#id124">April</textPath></text><path d="M 120.99922638620191 100.18025310272382 l 2.2627753512828446 0.019423204947384646 a23.26285871217441,23.26285871217441 0 0,0 -0.006855418683371667,0.3992937698180491 l -2.2621085010008044 -0.058263890734504754" fill="#ff1a02" stroke="none" /><path d="M 120.82617615685814 102.69636545807757 l 2.2606704194462757 0.29268904599586687 a23.279538905788925,23.279538905788925 0 0,0 -0.05471299509842882,0.39587597728420115 l -2.2553129077926366 -0.33145333148015305" fill="#ff1a02" stroke="none" /><path d="M 120.77682067341334 103.0534771498775 l 2.2463799065333605 0.33014048791983247 a23.270509948500727,23.270509948500727 0 0,0 -0.0614768175773534,0.394725269339891 l -2.24038159681774 -0.368653939191174" fill="#ff1a02" stroke="none" /><path d="M 120.7213421655516 103.40968896794604 l 4.365386894734003 0.7183227523039412 a25.4240920330835,25.4240920330835 0 0,0 -0.07455939752150852,0.430038791515211 l -4.352412679720261 -0.7931545767397402" fill="#ff3905" stroke="none" /><path d="M 120.592083275326 104.11899336999214 l 7.032883351597669 1.4067736377052045 a28.17220052040669,28.17220052040669 0 0,0 -0.09892774083284855,0.4734050521304837 l -7.007697899940457 -1.527295141121097" fill="#ff5e08" stroke="none" /><path d="M 120.43855184770803 104.8234425847677 l 4.502440921004312 1.0625637978459959 a25.626123222702468,25.626123222702468 0 0,0 -0.10471623902563287,0.4272779897287802 l -4.4835371554623835 -1.1396976121828757" fill="#ff3b05" stroke="none" /><path d="M 120.35273937422433 105.17358676015961 l 3.713325387507383 0.943912792658404 a24.831417073831958,24.831417073831958 0 0,0 -0.10856120447156177,0.41222457599942186 l -3.6965747022310906 -1.0075178730306291" fill="#ff3004" stroke="none" /><path d="M 120.16314734710363 105.8691983318838 l 2.259417379151139 0.6576834699691869 a23.353192393299135,23.353192393299135 0 0,0 -0.1153466216522014,0.3839513890246356 l -2.247794437495308 -0.696372462584546" fill="#ff1b02" stroke="none" /><path d="M 119.83427380445688 106.89939002012753 l 18.809356718809504 6.542870654614647 a40.91484513066676,40.91484513066676 0 0,0 -0.2364485070350531,0.6613885565214113 l -18.694268041730506 -6.86479416751698" fill="#fcff18" stroke="none" /><path d="M 119.58574465831526 107.57618678355244 l 0.4219709221560036 0.163227417657795 a21.452440768521605,21.452440768521605 0 0,0 -0.1358055190941902,0.3423186228484693 l -0.419106728095689 -0.17044705771982846" fill="#ff0000" stroke="none" /><path d="M 119.31412917781788 108.2440532568976 l 2.07867594615255 0.887263155700285 a23.26011716434711,23.26011716434711 0 0,0 -0.1599034675641589,0.3658904267067511 l -2.0631385965714255 -0.9228156521828809" fill="#ff1a02" stroke="none" /><path d="M 119.0197475246899 108.90220220490707 l 6.9841652896034825 3.268942006713481 a28.711325867563765,28.711325867563765 0 0,0 -0.21276561126024035,0.44459829625078723 l -6.9270204203833305 -3.388352805029372" fill="#ff6609" stroke="none" /><path d="M 118.8641267826498 109.22738970284198 l 2.843055527197514 1.3906809256815886 a24.164957846130488,24.164957846130488 0 0,0 -0.18547190489876866,0.3710680525010965 l -2.8187637090870132 -1.439280834346431" fill="#ff2703" stroke="none" /><line stroke="#e1ed5e" stroke-width="0.3" x1="174.33088141563837" x2="178.70328620479359" y1="141.23008692659167" y2="143.65538615756765" /><path d="M 175.20536237346943 141.71514677278685 a86.0,86.0 0 0,1 -30.301960400862466,31.631185727798858" fill="none" id="id125" stroke="none" /><text fill="#e1ed5e" style="font-size:6.75px; font-family:Arial;" text-anchor="middle"><textPath startOffset="22.145653131862474" xlink:href="#id125">May</textPath></text><path d="M 118.36410011445183 110.18625677009912 l 4.740708292656752 2.6295909758811136 a26.421168122877198,26.421168122877198 0 0,0 -0.2234056150373205,0.39473631545836146 l -4.694869312598053 -2.7105840614385976" fill="#ff4606" stroke="none" /><path d="M 118.18653347947321 110.5 l 7.042123861278182 4.065772106975643 a29.13154421395129,29.13154421395129 0 0,0 -0.25375834767851474,0.4309371512318465 l -6.971291803469902 -4.186060426501039" fill="#ff6c09" stroke="none" /><path d="M 118.00360718960297 110.81064883170644 l 8.132732978041274 4.883472480915711 a30.48628742786034,30.48628742786034 0 0,0 -0.2732617113687503,0.446352469105981 l -8.04770330221712 -5.022362066146249" fill="#ff7e0b" stroke="none" /><path d="M 117.21940702142032 112.02048342749411 l 1.854743153545064 1.2947547677868667 a23.261959786187436,23.261959786187436 0 0,0 -0.23138438942560857,0.3254711207880755 l -1.8322436655894947 -1.3264031152844462" fill="#ff1a02" stroke="none" /><path d="M 117.01052211995028 112.31430620078461 l 1.829547393714406 1.3244512223774398 a23.25863115764931,23.25863115764931 0 0,0 -0.23690353485075422,0.3214051436662923 l -1.8065418392798236 -1.3556626753126093" fill="#ff1a02" stroke="none" /><path d="M 116.79662413953412 112.60449989151573 l 3.6162337854322786 2.713689249549461 a25.52120074029258,25.52120074029258 0 0,0 -0.2659649675027092,0.3481566800512031 l -3.569116840575265 -2.7753668428415414" fill="#ff3a05" stroke="none" /><path d="M 116.1254893667686 113.45245675266167 l 6.089777953649271 5.080309359392536 a28.93063293261541,28.93063293261541 0 0,0 -0.3214130449694898,0.3786237587924529 l -6.001670345172666 -5.184099900634545" fill="#ff6909" stroke="none" /><path d="M 115.89218393027572 113.72728997021213 l 4.185247466075954 3.6151170799420385 a26.5304039503443,26.5304039503443 0 0,0 -0.30066393375673234,0.3421003644980954 l -4.122572468360636 -3.686429722251427" fill="#ff4806" stroke="none" /><path d="M 115.41159269507618 114.26474011684316 l 1.6608347586149603 1.5372438577507601 a23.263071093363187,23.263071093363187 0 0,0 -0.2737777290525408,0.2907424607795939 l -1.6342011958261597 -1.5655277784748511" fill="#ff1a02" stroke="none" /><path d="M 115.16444852881244 114.52719865689866 l 1.6960177096993347 1.6247466004192368 a23.3486757092429,23.3486757092429 0 0,0 -0.2797540468616692,0.2870522970664641 l -1.6678768616868582 -1.6536215895534383" fill="#ff1b02" stroke="none" /><path d="M 114.65682725009322 115.03919595460226 l 5.780054609577804 5.930845224445816 a29.28154311502593,29.28154311502593 0 0,0 -0.36299006329344696,0.3477362694676963 l -5.677392060419045 -6.0291936242190936" fill="#ff6e0a" stroke="none" /><path d="M 113.86319453409587 115.77377054828091 l 1.5521291536534252 1.7660380564387215 a23.35116892766359,23.35116892766359 0 0,0 -0.3033656216662201,0.2620399986481663 l -1.5215840522243496 -1.7924221875516053" fill="#ff1b02" stroke="none" /><path d="M 113.31354834802062 116.24036423190432 l 1.4416335445032307 1.7585585179584802 a23.273947083315985,23.273947083315985 0 0,0 -0.3111496530682657,0.25064013538352137 l -1.4112331210797124 -1.7830469471354051" fill="#ff1a02" stroke="none" /><path d="M 112.45986205192187 116.90419585922612 l 10.16388257007882 13.789258736479002 a38.13032881762386,38.13032881762386 0 0,0 -0.5302276235919474,0.3838439094922198 l -9.925673936112904 -13.9617034173443" fill="#ffe015" stroke="none" /><path d="M 111.27062007382361 117.71928675628689 l 1.2120435712222948 1.9055338090476388 a23.25834202811817,23.25834202811817 0 0,0 -0.33872549033696714,0.21138975799921508 l -1.1791539520956127 -1.9260593638884014" fill="#ff1a02" stroke="none" /><line stroke="#e1ed5e" stroke-width="0.3" x1="143.1302829299769" x2="145.66735839644613" y1="173.24464959558577" y2="177.55315839532614" /><path d="M 143.63769802327073 174.10635135553383 a86.0,86.0 0 0,1 -40.68552437913181,11.842963189579606" fill="none" id="id126" stroke="none" /><text fill="#e1ed5e" style="font-size:6.75px; font-family:Arial;" text-anchor="middle"><textPath startOffset="21.407464694133747" xlink:href="#id126">June</textPath></text><path d="M 110.65571695917076 118.09573695890943 l 1.5792590449175974 2.6819271172750185 a24.112361192620344,24.112361192620344 0 0,0 -0.35847908485746166,0.20696799614130698 l -1.532987492199737 -2.7086420106924973" fill="#ff2603" stroke="none" /><path d="M 109.71004243097381 118.62028667847754 l 2.7165729970329457 5.209386915386674 a26.87515794531606,26.87515794531606 0 0,0 -0.41089912516137717,0.20980802107957927 l -2.6267466501579864 -5.25525288813909" fill="#ff4d07" stroke="none" /><path d="M 109.06512990194946 118.94263497670748 l 1.247827129778179 2.607478777368371 a23.890677795991262,23.890677795991262 0 0,0 -0.3714559968405027,0.1738601624341697 l -1.20288241906617 -2.628515171373074" fill="#ff2303" stroke="none" /><path d="M 108.4095320186766 119.2426549942271 l 0.42047038521219854 0.9621185269238536 a22.04998447830938,22.04998447830938 0 0,0 -0.34814292600208613,0.1486015132522591 l -0.40389238403968125 -0.9691946898355166" fill="#ff0901" stroke="none" /><path d="M 108.07796709384702 119.3841803445677 l 1.7387259970484488 4.172309431942044 a25.520103327213292,25.520103327213292 0 0,0 -0.40582498362294595,0.16504548786899015 l -1.666846552235062 -4.201542176390326" fill="#ff3a05" stroke="none" /><path d="M 107.407793817531 119.65005319985036 l 1.3474552796722299 3.574285216648146 a24.819836454701438,24.819836454701438 0 0,0 -0.39996675764006373,0.1468733335222915 l -1.285899370378039 -3.596889399179159" fill="#ff3004" stroke="none" /><path d="M 107.06938296918513 119.77432235084164 l 1.6729675918933056 4.679588103913799 a25.969644392289737,25.969644392289737 0 0,0 -0.4210720960770487,0.14647073273614816 l -1.592389723771235 -4.707617269218538" fill="#ff4006" stroke="none" /><path d="M 106.72888874123015 119.89276391827305 l 1.4544869436271881 4.299932203440868 a25.539267476517526,25.539267476517526 0 0,0 -0.4165056384685706,0.13691367621779624 l -1.3804585675108834 -4.324266801060683" fill="#ff3a05" stroke="none" /><path d="M 106.0420521117495 120.11202640906438 l 1.6648653139207077 5.541795161944269 a26.786473030304833,26.786473030304833 0 0,0 -0.4415175925261971,0.1285193364380354 l -1.5694877090129038 -5.5695581926848226" fill="#ff4b07" stroke="none" /><path d="M 105.69591212413111 120.21278271476187 l 0.6394036775361073 2.2690180816349113 a23.357388410430676,23.357388410430676 0 0,0 -0.3868635292733422,0.10544137520915102 l -0.6003587473280699 -2.2796599509882043" fill="#ff1b02" stroke="none" /><path d="M 105.3480935250658 120.30758222061773 l 1.1512754737422377 4.371580495371656 a25.520636154785553,25.520636154785553 0 0,0 -0.424608342190601,0.1079337801668431 l -1.0760618383262393 -4.390699507373769" fill="#ff3a05" stroke="none" /><path d="M 104.9986988182912 120.39639698878246 l 0.5382411137389921 2.196207419285519 a23.261201124412366,23.261201124412366 0 0,0 -0.38864797809266993,0.09171986459629083 l -0.500460981906443 -2.205123427528035" fill="#ff1a02" stroke="none" /><path d="M 104.29559338865022 120.5559693870025 l 1.8700479404690924 8.948856360119498 a30.14216109318272,30.14216109318272 0 0,0 -0.5073980895300997,0.10149382841829396 l -1.716153365408034 -8.979639585200653" fill="#ff790b" stroke="none" /><path d="M 102.875027216393 120.80226474461374 l 0.30972053281490797 2.240983488337822 a23.262285084477618,23.262285084477618 0 0,0 -0.3960372776761984,0.05127495453770645 l -0.2712054332479342 -2.245970039075923" fill="#ff1a02" stroke="none" /><path d="M 102.51750503828377 120.84855314841334 l 0.5111991893351888 4.233462617237149 a25.264215091047983,25.264215091047983 0 0,0 -0.4310124400646565,0.048295842915163395 l -0.4384508476697331 -4.241614220659283" fill="#ff3605" stroke="none" /><path d="M 102.15924093988457 120.88869738790638 l 0.29065655083685804 2.8118384669792045 a23.826820969734083,23.826820969734083 0 0,0 -0.40721221186593504,0.03856341984064467 l -0.24234477558590772 -2.8164136423250326" fill="#ff2203" stroke="none" /><path d="M 101.08105385017728 120.97215588758144 l 0.42926436588795347 8.327614019329035 a29.338670346688772,29.338670346688772 0 0,0 -0.5031920608143631,0.021609232193548187 l -0.2862465444727608 -8.333755819948413" fill="#ff6e0a" stroke="none" /><line stroke="#e1ed5e" stroke-width="0.3" x1="101.45913802915013" x2="101.54496967792366" y1="184.9874750549273" y2="189.98673829345242" /><path d="M 101.47630435890484 185.9873277026323 a86.0,86.0 0 0,1 -42.54439059252881,-10.42667462771756" fill="none" id="id127" stroke="none" /><text fill="#e1ed5e" style="font-size:6.75px; font-family:Arial;" text-anchor="middle"><textPath startOffset="22.145653131862474" xlink:href="#id127">July</textPath></text><path d="M 100.36049292484886 120.99690560180557 l 0.052489335962175934 3.0572406733401314 a24.057691231160362,24.057691231160362 0 0,0 -0.4129822608110278,0.0035449560146654864 l -3.744591779021467e-16 -3.057691231160362" fill="#ff2503" stroke="none" /><path d="M 100.0 121.0 l 6.656180096880804e-16 5.435183517006777 a26.435183517006777,26.435183517006777 0 0,0 -0.45379507737914,-0.0038952849592657755 l 0.09330215253028716 -5.434382630241946" fill="#ff4706" stroke="none" /><path d="M 99.27912038922189 120.98762331915562 l -0.09657717817654875 2.8117391676656673 a23.813397287680814,23.813397287680814 0 0,0 -0.40842725026668986,-0.017539623480750572 l 0.14483018904407735 -2.809666975759088" fill="#ff2203" stroke="none" /><path d="M 98.91894614982273 120.97215588758144 l -0.12098130965914855 2.3470050869708103 a23.35012113635738,23.35012113635738 0 0,0 -0.40012728425284494,-0.024070663816952314 l 0.16125294604443982 -2.3445824453291664" fill="#ff1b02" stroke="none" /><path d="M 98.55909050195518 120.95050786540614 l -0.15536463527445535 2.258967699040168 a23.26430413928889,23.26430413928889 0 0,0 -0.3981862963161543,-0.03082213764101111 l 0.1941199263658458 -2.2559677944041034" fill="#ff1a02" stroke="none" /><path d="M 97.48249496171623 120.84855314841334 l -0.27127258765679946 2.246526173916202 a23.262845259160375,23.262845259160375 0 0,0 -0.3960468145748778,-0.05127618928017596 l 0.30979722412247124 -2.2415383884356292" fill="#ff1a02" stroke="none" /><path d="M 97.12497278360702 120.80226474461374 l -0.5224615859372265 3.78027177189386 a24.81620502307693,24.81620502307693 0 0,0 -0.42149130027733345,-0.061944706290694075 l 0.5872779918222448 -3.7707459923042834" fill="#ff3004" stroke="none" /><path d="M 96.76829788921471 120.74984581791261 l -0.695800802489989 4.467540285802773 a25.521399668467325,25.521399668467325 0 0,0 -0.4323112388403768,-0.07113664983746264 l 0.7723895443834293 -4.454937637469642" fill="#ff3a05" stroke="none" /><path d="M 96.05791012581884 120.62667999033965 l -1.1907880282309213 6.2307061428295425 a27.343475007160656,27.343475007160656 0 0,0 -0.46028640537274773,-0.09207017214715706 l 1.2975709191346272 -6.209346574019524" fill="#ff5307" stroke="none" /><path d="M 95.35216902796893 120.47920084513623 l -1.995450080492305 8.792321239898126 a30.015915583527857,30.015915583527857 0 0,0 -0.501505697824655,-0.11835397915740013 l 2.146087932056848 -8.756771117094498" fill="#ff770b" stroke="none" /><path d="M 94.30408787586889 120.21278271476187 l -0.8955319301681329 3.1779268928558175 a24.30169604510877,24.30169604510877 0 0,0 -0.4005613699123764,-0.11659757693753899 l 0.9499533124621161 -3.1620856216157627" fill="#ff2904" stroke="none" /><path d="M 93.95794788825049 120.11202640906438 l -0.6504138995568679 2.1650163359684376 a23.260604780970564,23.260604780970564 0 0,0 -0.38142891149514646,-0.11816765179594825 l 0.687483443923648 -2.1535320963658404" fill="#ff1a02" stroke="none" /><path d="M 93.61358852112213 120.00534299687104 l -1.9220035083784663 6.020648615183912 a27.319992660892503,27.319992660892503 0 0,0 -0.4455464901898192,-0.1464599810031815 l 2.0250727362160292 -5.986767712778709" fill="#ff5307" stroke="none" /><path d="M 93.27111125876986 119.89276391827306 l -1.7037976403036363 5.03697497855713 a26.31733423189805,26.31733423189805 0 0,0 -0.4267095429106308,-0.14843172938296648 l 1.790012955259289 -5.0069848166055735" fill="#ff4506" stroke="none" /><path d="M 92.59220618246901 119.65005319985036 l -0.7974187388175393 2.1152479437588885 a23.260564201387247,23.260564201387247 0 0,0 -0.3724212797407841,-0.14406055152403402 l 0.8336122810518516 -2.101247504096814" fill="#ff1a02" stroke="none" /><path d="M 91.92203290615298 119.3841803445677 l -1.391766772388023 3.3397335988278103 a24.618125932007167,24.618125932007167 0 0,0 -0.3886908130519436,-0.16590899510743945 l 1.4488926606103976 -3.315349954060967" fill="#ff2d04" stroke="none" /><path d="M 91.59046798132341 119.24265499422711 l -0.9053765547631603 2.0716787384217765 a23.26087582612218,23.26087582612218 0 0,0 -0.3645163082007698,-0.16304350819794353 l 0.9408062658195652 -2.0558314793139782" fill="#ff1a02" stroke="none" /><path d="M 91.26138138417905 119.09545874513695 l -0.9406559422262399 2.055502995133473 a23.260514579614167,23.260514579614167 0 0,0 -0.36165812054289437,-0.1692742616031117 l 0.9758027766406242 -2.039052501959835" fill="#ff1a02" stroke="none" /><path d="M 89.97174638481275 118.45085714620012 l -1.3352999221933022 2.4568014588710327 a23.796229477442843,23.796229477442843 0 0,0 -0.35723331632071076,-0.19815129868591452 l 1.3772774266701155 -2.43351724475197" fill="#ff2203" stroke="none" /><line stroke="#e1ed5e" stroke-width="0.3" x1="58.13341422392154" x2="55.67067388415222" y1="173.97424548756322" y2="178.32567169271397" /><path d="M 57.64086615596768 174.84453072859336 a86.0,86.0 0 0,1 -31.369924170532247,-30.572349798747897" fill="none" id="id128" stroke="none" /><text fill="#e1ed5e" style="font-size:6.75px; font-family:Arial;" text-anchor="middle"><textPath startOffset="22.145653131862474" xlink:href="#id128">August</textPath></text><path d="M 89.65649057296885 118.27599006163327 l -1.1145666867340747 1.969332539741893 a23.26285871217441,23.26285871217441 0 0,0 -0.3458495099542939,-0.19967630767121328 l 1.1482086645487684 -1.9499093347945082" fill="#ff1a02" stroke="none" /><path d="M 89.03521579738668 117.91015095944536 l -2.4143437412119755 3.943649056293559 a25.62400514488625,25.62400514488625 0 0,0 -0.37317809225634163,-0.23289072970032365 l 2.48168596225803 -3.9016225297516876" fill="#ff3b05" stroke="none" /><path d="M 87.83215693770417 117.11559508785305 l -3.4022905430994754 4.785747729387216 a26.871878938551017,26.871878938551017 0 0,0 -0.3736713779518617,-0.27050926092219313 l 3.483942931425291 -4.726637697091958" fill="#ff4d07" stroke="none" /><path d="M 87.54013794807813 116.9041958592261 l -1.3426146379372728 1.8215146129691613 a23.26285871217441,23.26285871217441 0 0,0 -0.31941789424031575,-0.2396971427028612 l 1.373685521088355 -1.7981984430022853" fill="#ff1a02" stroke="none" /><path d="M 87.2517909369889 116.68781488649013 l -1.3747055620596522 1.7995337093774684 a23.264539015681464,23.264539015681464 0 0,0 -0.31527887840517516,-0.2451627627951112 l 1.4053943851000557 -1.775669894961564" fill="#ff1a02" stroke="none" /><path d="M 86.96720088162412 116.46651593811092 l -3.28210420168752 4.146831440947071 a26.288517655294537,26.288517655294537 0 0,0 -0.35145148001076376,-0.2831044343517576 l 3.3528064520535454 -4.0898787128019025" fill="#ff4506" stroke="none" /><path d="M 86.40962598614128 116.0094264158162 l -2.925399503673024 3.4461132595144015 a25.520360478268447,25.520360478268447 0 0,0 -0.33154657249145136,-0.2863820327771126 l 2.9841255559273376 -3.3953870942725666" fill="#ff3a05" stroke="none" /><path d="M 85.86807049272751 115.53346607816431 l -2.4328416096937864 2.674119100175073 a24.61519449819489,24.61519449819489 0 0,0 -0.3101165541685046,-0.2870392527670415 l 2.4783879351762583 -2.631962101275654" fill="#ff2d04" stroke="none" /><path d="M 85.60350026404147 115.28858382429668 l -3.1738119925519053 3.3704783510321232 a25.629601157642256,25.629601157642256 0 0,0 -0.31771858845868894,-0.3043672206581895 l 3.2312030668759086 -3.315499000068351" fill="#ff3b05" stroke="none" /><path d="M 84.83555147118756 114.52719865689866 l -3.4773679029826217 3.3312397898130297 a25.81552137051922,25.81552137051922 0 0,0 -0.3038169288467103,-0.32264304998468046 l 3.534040665565585 -3.2710552798838592" fill="#ff3e05" stroke="none" /><path d="M 84.3458050057657 113.99807769240083 l -1.8625495998062604 1.6655033371975299 a23.498598082516388,23.498598082516388 0 0,0 -0.266305064577273,-0.30300627854249346 l 1.890865728342126 -1.633284780843736" fill="#ff1d03" stroke="none" /><path d="M 84.1078160697243 113.72728997021213 l -2.5759405541428944 2.225036098744356 a24.403858895311835,24.403858895311835 0 0,0 -0.27112156912769386,-0.31938052670693406 l 2.6137566867777005 -2.1804887895878675" fill="#ff2a04" stroke="none" /><path d="M 83.8745106332314 113.45245675266167 l -0.7491470474251807 0.6249651113001194 a21.975603756147052,21.975603756147052 0 0,0 -0.2391711494104248,-0.2917499135957989 l 0.7597650160742354 -0.6120129160058254" fill="#ff0801" stroke="none" /><path d="M 83.4222238831116 112.89097897827486 l -5.434506378230683 4.225905030030146 a27.884194426210236,27.884194426210236 0 0,0 -0.2905905149164046,-0.3803923121064154 l 5.506248870501383 -4.131991804682861" fill="#ff5b08" stroke="none" /><path d="M 83.20337586046588 112.60449989151573 l -6.261510718680989 4.698754375802099 a28.828461481305013,28.828461481305013 0 0,0 -0.29363569949316565,-0.39837322073142106 l 6.341248437757985 -4.590574845801798" fill="#ff6709" stroke="none" /><path d="M 82.78059297857968 112.02048342749411 l -7.347975785069215 5.129457770536342 a29.961254664257634,29.961254664257634 0 0,0 -0.2907814856412104,-0.4242588776605067 l 7.434947007525751 -5.002564157805784" fill="#ff770a" stroke="none" /><path d="M 81.99639281039703 110.81064883170644 l -2.2685822252961505 1.3622184446287444 a23.646148976119143,23.646148976119143 0 0,0 -0.20597630009143866,-0.349792788275613 l 2.291632235517359 -1.3230744880595726" fill="#ff1f03" stroke="none" /><line stroke="#e1ed5e" stroke-width="0.3" x1="26.387840678322732" x2="22.057713659400548" y1="142.50000000000003" y2="145.00000000000006" /><path d="M 25.521815274538298 143.00000000000003 a86.0,86.0 0 0,1 -11.493303480769221,-40.785679425670985" fill="none" id="id129" stroke="none" /><text fill="#e1ed5e" style="font-size:6.75px; font-family:Arial;" text-anchor="middle"><textPath startOffset="21.40746469413373" xlink:href="#id129">September</textPath></text><path d="M 81.81346652052679 110.50000000000001 l -3.3515369235663073 1.93501074501998 a24.870021490039957,24.870021490039957 0 0,0 -0.21028981084916198,-0.3715619461899711 l 3.3842600994368475 -1.8771920287308874" fill="#ff3104" stroke="none" /><path d="M 81.4637452351635 109.86951160357371 l -1.9992072791452702 1.0644652703470396 a23.26493179958303,23.26493179958303 0 0,0 -0.1846703050875526,-0.35412965969782073 l 2.017185653207772 -1.029989367544716" fill="#ff1a02" stroke="none" /><path d="M 81.1358732173502 109.22738970284198 l -6.7026596530225495 3.278606710851788 a28.461562060902445,28.461562060902445 0 0,0 -0.2109147336922693,-0.44073067399540994 l 6.75795364467473 -3.1630635347912737" fill="#ff6209" stroke="none" /><path d="M 80.83023694016515 108.57439118712176 l -3.3683845986994445 1.5066355868758472 a24.689981788084644,24.689981788084644 0 0,0 -0.1697331820865495,-0.3883827371975169 l 3.3937516628029623 -1.448590779902481" fill="#ff2e04" stroke="none" /><path d="M 80.68587082218212 108.24405325689762 l -1.0772294094022377 0.4598051788536171 a22.171257445219325,22.171257445219325 0 0,0 -0.14640859056094988,-0.3513273191703306 l 1.084963844499673 -0.4412453502420052" fill="#ff0a01" stroke="none" /><path d="M 80.5471966667186 107.91128576633889 l -0.9123983856870953 0.37106448043749884 a21.98496683337398,21.98496683337398 0 0,0 -0.13917669626926402,-0.3508161915455774 l 0.9186337569224837 -0.3553472716783561" fill="#ff0801" stroke="none" /><path d="M 80.41425534168474 107.57618678355246 l -2.111362592191166 0.8167204078939391 a23.263820712948498,23.263820712948498 0 0,0 -0.1408782939013915,-0.37369641192161857 l 2.1250715699069938 -0.7803557157781756" fill="#ff1a02" stroke="none" /><path d="M 80.16572619554312 106.89939002012753 l -7.4161401095902635 2.579718499624475 a28.852011313184555,28.852011313184555 0 0,0 -0.15870609160151442,-0.46918635959547955 l 7.459331622764145 -2.452030465554834" fill="#ff6809" stroke="none" /><path d="M 79.83685265289637 105.86919833188381 l -4.443527904084524 1.293446212209441 a25.62795239152876,25.62795239152876 0 0,0 -0.11933046808974679,-0.42346173364055956 l 4.465076864248846 -1.2169765546658857" fill="#ff3b05" stroke="none" /><path d="M 79.73907114497094 105.5222062557868 l -3.7369491898695735 1.0185221191738685 a24.873264328045956,24.873264328045956 0 0,0 -0.10874415771614394,-0.41291927926882577 l 3.75388282839045 -0.9542223355322401" fill="#ff3104" stroke="none" /><path d="M 79.48165901384964 104.47187691870673 l -4.414474297220642 0.9621141266387001 a25.51810213624033,25.51810213624033 0 0,0 -0.08960777461637988,-0.4288056399189462 l 4.430339782661389 -0.8861920354343449" fill="#ff3a05" stroke="none" /><path d="M 79.34024301695615 103.76489593502545 l -4.945451732365141 0.9012260473018845 a26.026897773526805,26.026897773526805 0 0,0 -0.0763272023568385,-0.440235020029535 l 4.960193752214214 -0.8161979943517568" fill="#ff4106" stroke="none" /><path d="M 79.0935383218832 101.97986365728391 l -5.996863004200871 0.5679091614127798 a27.023693775979126,27.023693775979126 0 0,0 -0.03977164171148212,-0.462206763166525 l 6.005728268610094 -0.46488135087059285" fill="#ff4f07" stroke="none" /><path d="M 79.03789590574601 101.26102812881392 l -5.415682017712955 0.32579398186080794 a26.42547264628587,26.42547264628587 0 0,0 -0.023353084293994388,-0.4530435964768837 l 5.420476691463522 -0.23277859200719347" fill="#ff4606" stroke="none" /><line stroke="#e1ed5e" stroke-width="0.3" x1="15.003131293944662" x2="10.003315487706104" y1="100.72959589197737" y2="100.7725132973878" /><path d="M 14.003168132696942 100.73817937305945 a86.0,86.0 0 0,1 10.791469493833604,-42.45332614584628" fill="none" id="id130" stroke="none" /><text fill="#e1ed5e" style="font-size:6.75px; font-family:Arial;" text-anchor="middle"><textPath startOffset="22.145653131862435" xlink:href="#id130">October</textPath></text><path d="M 79.00077361379809 99.81974689727619 l -8.132256463821601 -0.0698056410646069 a29.13255605703967,29.13255605703967 0 0,0 0.008585181707842206,-0.500043794117353 l 8.129859850515093 0.2093963511510123" fill="#ff6c09" stroke="none" /><path d="M 79.00696218219943 99.45929381324524 l -4.077290248653735 -0.10501653366110639 a25.078642451123784,25.078642451123784 0 0,0 0.014778859525082386,-0.4302703699226551 l 4.074886702131802 0.1749931681479" fill="#ff3404" stroke="none" /><path d="M 79.03789590574601 98.7389718711861 l -1.3586149487854267 -0.08173090158039621 a22.36107109268266,22.36107109268266 0 0,0 0.026339253473303265,-0.3829669648302835 l 1.3570117341470596 0.10504129056500465" fill="#ff0d01" stroke="none" /><path d="M 79.0935383218832 98.0201363427161 l -12.065756469859547 -1.1426396824153977 a33.11974028739015,33.11974028739015 0 0,0 0.05846045400391465,-0.5655518614391681 l 12.04436362337397 1.3495960661374786" fill="#ffa00e" stroke="none" /><path d="M 79.22317932658666 96.9465228501225 l -2.3728704624935886 -0.34873024370446504 a23.3983592338615,23.3983592338615 0 0,0 0.061814574128925034,-0.3968939086911833 l 2.366534396226396 0.3894123343270983" fill="#ff1c02" stroke="none" /><path d="M 79.34024301695615 96.23510406497455 l -0.5371441376577972 -0.09788555509391289 a21.54599029892131,21.54599029892131 0 0,0 0.06943319285622063,-0.3633038046983393 l 0.5353846525194174 0.10709192482556669" fill="#ff0100" stroke="none" /><path d="M 79.407916724674 95.88100663000787 l -14.904206587239942 -2.981258734097776 a36.199449912242244,36.199449912242244 0 0,0 0.12711572873463892,-0.6082947784070538 l 14.850833147680937 3.2366699637902387" fill="#ffc812" stroke="none" /><path d="M 79.56144815229197 95.17655741523228 l -7.421051422264775 -1.7513479291790903 a28.6249081162292,28.6249081162292 0 0,0 0.11697019850939613,-0.4772783260964511 l 7.3898936972390805 1.8784820798836592" fill="#ff6509" stroke="none" /><path d="M 79.64726062577567 94.8264132398404 l -4.410463953178209 -1.1211226899127706 a25.55072613635688,25.55072613635688 0 0,0 0.11170597297119962,-0.42416577421742124 l 4.390568499402284 1.1966689685029765" fill="#ff3a05" stroke="none" /><path d="M 79.73907114497095 94.47779374421319 l -2.2442281131850024 -0.6116743518877078 a23.326092288961718,23.326092288961718 0 0,0 0.10861240371534003,-0.3854271043131782 l 2.2333972173950802 0.6501093801038992" fill="#ff1b02" stroke="none" /><path d="M 79.94057633289273 93.78553927170692 l -9.111208651663164 -2.82267573050418 a30.538428663764225,30.538428663764225 0 0,0 0.15943282410798795,-0.49942105074014526 l 9.061411111777918 2.978665814935717" fill="#ff7e0b" stroke="none" /><path d="M 80.28708602549916 92.7611449362534 l -13.79690736577311 -5.066415491791769 a35.69772835492587,35.69772835492587 0 0,0 0.21617408115590206,-0.5734274332918753 l 13.707902600802774 5.302511205277789" fill="#ffc112" stroke="none" /><path d="M 80.5471966667186 92.08871423366112 l -5.496899682722437 -2.2355412468758544 a26.934100672249947,26.934100672249947 0 0,0 0.17786017447112987,-0.4267996710076659 l 5.457713663714828 2.3295734273247843" fill="#ff4e07" stroke="none" /><path d="M 80.9802524753101 91.09779779509293 l -11.327594101031808 -5.301886003039455 a33.50697338715312,33.50697338715312 0 0,0 0.24830381247745162,-0.5188594685304777 l 11.234911030594452 5.4955579736350195" fill="#ffa50f" stroke="none" /><line stroke="#e1ed5e" stroke-width="0.3" x1="26.387840678322718" x2="22.05771365940052" y1="57.49999999999999" y2="54.99999999999999" /><path d="M 25.521815274538284 56.99999999999999 a86.0,86.0 0 0,1 29.574782752854787,-30.34633250058573" fill="none" id="id131" stroke="none" /><text fill="#e1ed5e" style="font-size:6.75px; font-family:Arial;" text-anchor="middle"><textPath startOffset="21.40746469413373" xlink:href="#id131">November</textPath></text><line stroke="#e1ed5e" stroke-width="0.3" x1="56.869717070023135" x2="54.33264160355391" y1="26.7553504044142" y2="22.446841604673864" /><path d="M 56.362301976729285 25.89364864446614 a86.0,86.0 0 0,1 42.16139366436587,-11.88097634709845" fill="none" id="id132" stroke="none" /><text fill="#e1ed5e" style="font-size:6.75px; font-family:Arial;" text-anchor="middle"><textPath startOffset="22.145653131862474" xlink:href="#id132">December</textPath></text></svg>