<?xml version="1.0" encoding="utf-8" ?>
<svg baseProfile="full" height="200mm" version="1.1" viewBox="0,0,200,200" width="200mm" xmlns="http://www.w3.org/2000/svg" xmlns:ev="http://www.w3.org/2001/xml-events" xmlns:xlink="http://www.w3.org/1999/xlink"><defs /><rect fill="#1a1a1a" height="200" width="200" x="0" y="0" /><text alignment-baseline="middle" fill="#e1ed5e" style="dominant-baseline: central; font-size:9.0px; font-family:Arial;" text-anchor="middle" x="100.0" y="100.0">2024</text><line stroke="#e1ed5e" stroke-width="0.3" x1="100.0" x2="100.0" y1="15.0" y2="10.0" /><path d="M 100.0 14.0 a86.0,86.0 0 0,1 42.35913384403234,11.155469271406648" fill="none" id="id121" stroke="none" /><text fill="#e1ed5e" style="font-size:6.75px; font-family:Arial;" text-anchor="middle"><textPath startOffset="22.145653131862478" xlink:href="#id121">January</textPath></text><path d="M 101.44090949804482 79.04949213459386 l 0.16146367953483493 -2.3476464640298773 a23.353192393299135,23.353192393299135 0 0,0 0.39970768653004185,0.030939902865509964 l -0.2017403608401103 2.3445287941693134" fill="#ff1202" stroke="none" /><path d="M 102.15924093988457 79.11130261209362 l 1.976993192979631 -19.125615758429436 a40.227524027398125,40.227524027398125 0 0,0 0.686289410786099,0.07690015994130736 l -2.3050185053665264 19.08885983798116" fill="#fff417" stroke="none" /><path d="M 104.29559338865022 79.4440306129975 l 0.22265919043392135 -1.0655048297605865 a22.088520857552957,22.088520857552957 0 0,0 0.37049558130106214,0.08074778753415622 l -0.24091718835411763 1.0615255840927116" fill="#ff0000" stroke="none" /><path d="M 104.9986988182912 79.60360301121754 l 0.5601380969331535 -2.285554583081537 a23.353192393299135,23.353192393299135 0 0,0 0.388546752786081,0.09876706515796443 l -0.5992901429446289 2.2756022860883047" fill="#ff1202" stroke="none" /><path d="M 106.72888874123014 80.10723608172694 l 20.186666223690402 -59.67829175481916 a84.0,84.0 0 0,0 1.3619769118199267,0.4737662697256382 l -21.208148907555344 59.32296705252493" fill="#4dd2ff" stroke="none" /><path d="M 107.74402155503746 80.48000691201159 l 0.8330876378370051 -2.099925060473086 a23.259141490017775,23.259141490017775 0 0,0 0.36987078748246593,0.15042322930331858 l -0.8690128865099108 2.0853145745904733" fill="#ff1101" stroke="none" /><path d="M 108.73861861582097 80.90454125486305 l 1.4369915010058953 -3.1400857653738683 a24.453271374778815,24.453271374778815 0 0,0 0.3802032898394353,0.1779543372343856 l -1.4906835047168359 3.114955196568949" fill="#ff2203" stroke="none" /><path d="M 109.06512990194946 81.05736502329252 l 2.2518561498484297 -4.705513272066792 a26.216580419509214,26.216580419509214 0 0,0 0.40428432705975414,0.19775572331090835 l -2.3323007261702506 4.666163798658663" fill="#ff3b05" stroke="none" /><path d="M 110.02825361518725 81.54914285379988 l 2.1585222914169253 -3.9714378967746677 a25.52012582241709,25.52012582241709 0 0,0 0.3831127611668842,0.2125061904926363 l -2.22637924073991 3.9337987908488854" fill="#ff3104" stroke="none" /><path d="M 110.34350942703115 81.72400993836675 l 3.006693890537255 -5.312540008735162 a27.104366428697237,27.104366428697237 0 0,0 0.40296130251957424,0.23264981648267843 l -3.0974476609172266 5.260143294976312" fill="#ff4806" stroke="none" /><line stroke="#e1ed5e" stroke-width="0.3" x1="143.13028292997686" x2="145.6673583964461" y1="26.7553504044142" y2="22.446841604673864" /><path d="M 143.63769802327073 25.89364864446614 a86.0,86.0 0 0,1 29.32050498858742,28.57503671076993" fill="none" id="id122" stroke="none" /><text fill="#e1ed5e" style="font-size:6.75px; font-family:Arial;" text-anchor="middle"><textPath startOffset="20.669276256404974" xlink:href="#id122">February</textPath></text><path d="M 110.65571695917076 81.90426304109057 l 2.488126976786122 -4.225383563096452 a25.903533634828715,25.903533634828715 0 0,0 0.38123493980658557,0.2289206275843368 l -2.5602946731501417 4.182048934976194" fill="#ff3705" stroke="none" /><path d="M 111.8722381534696 82.67804972795209 l 3.62673024997404 -5.291507820858765 a27.41507812300725,27.41507812300725 0 0,0 0.3859062699531326,0.26939254741857155 l -3.7170316111009334 5.228470457635067" fill="#ff4c07" stroke="none" /><path d="M 112.16784306229584 82.88440491214696 l 3.07962775098951 -4.3318821041160485 a26.31500796317612,26.31500796317612 0 0,0 0.3659277160670324,0.2649034468917537 l -3.15353647743051 4.27837788585122" fill="#ff3d05" stroke="none" /><path d="M 115.16444852881244 85.47280134310134 l 7.421424789676176 -7.109557069089225 a31.27732200660545,31.27732200660545 0 0,0 0.3680956033469063,0.39090477479521857 l -7.542376226759343 6.981110834349511" fill="#ff810b" stroke="none" /><path d="M 115.6541949942343 86.00192230759917 l 4.135006680540561 -3.6975484714558733 a26.547084364500034,26.547084364500034 0 0,0 0.300852969662329,0.3423154526578226 l -4.197870714161481 3.626020740986753" fill="#ff4006" stroke="none" /><path d="M 116.35404254752997 86.82634096563983 l 3.8729971812853106 -3.1198123741580175 a25.973262150359,25.973262150359 0 0,0 0.276718602322967,0.3496249143515356 l -3.925982214249837 3.0528675158918035" fill="#ff3805" stroke="none" /><path d="M 116.7966241395341 87.39550010848427 l 11.56245439897602 -8.676681338277017 a35.45597284081582,35.45597284081582 0 0,0 0.3611409992543442,0.4899571246256606 l -11.709697417814189 8.476917904382482" fill="#ffb811" stroke="none" /><path d="M 117.42321728460499 88.27688183743584 l 6.0442459597035425 -4.0668384278152026 a28.28505895784976,28.28505895784976 0 0,0 0.26759761707672347,0.40517689889939346 l -6.11316801570099 3.9624816505767506" fill="#ff5808" stroke="none" /><path d="M 117.62189284568427 88.57770195909679 l 1.8980505150857718 -1.230293412282845 a23.261905753590085,23.261905753590085 0 0,0 0.21432224868502867,0.33695017291217266 l -1.9188904553966903 1.1975295646920006" fill="#ff1101" stroke="none" /><path d="M 117.81537515405839 88.88188828441811 l 4.599663656472251 -2.8705303112918545 a26.42188620506895,26.42188620506895 0 0,0 0.2368307344432311,0.38684520619234974 l -4.648262355370885 2.79114798897495" fill="#ff3e05" stroke="none" /><line stroke="#e1ed5e" stroke-width="0.3" x1="172.87174338648825" x2="177.1583165268699" y1="56.24261187166439" y2="53.66864786411523" /><path d="M 173.72905801456457 55.72781907015455 a86.0,86.0 0 0,1 12.242430191666344,42.057860355516425" fill="none" id="id123" stroke="none" /><text fill="#e1ed5e" style="font-size:6.75px; font-family:Arial;" text-anchor="middle"><textPath startOffset="22.145653131862474" xlink:href="#id123">March</textPath></text><path d="M 118.18653347947321 89.5 l 3.3456733987518277 -1.9316254373899384 a24.863250874779876,24.863250874779876 0 0,0 0.21023256154590442,0.3714607921566365 l -3.378339325319108 1.8739078751341838" fill="#ff2803" stroke="none" /><path d="M 118.53625476483649 90.13048839642627 l 1.9967754983132562 -1.0631704840245932 a23.2621767987417,23.2621767987417 0 0,0 0.18464843668707123,0.35408772415643625 l -2.014732003975272 1.0287365167636586" fill="#ff1101" stroke="none" /><path d="M 118.70294669586156 90.45014215332178 l 2.853941814840054 -1.4572430257978601 a24.204456446689367,24.204456446689367 0 0,0 0.1857750662257202,0.3716745782347269 l -2.8785367942775113 1.4080365913993829" fill="#ff1f03" stroke="none" /><path d="M 118.8641267826498 90.77261029715802 l 2.031157498787549 -0.9935409152572388 a23.261133418259764,23.261133418259764 0 0,0 0.17237689729728922,0.3602014178768428 l -2.0479136540447502 0.9585269953152925" fill="#ff1101" stroke="none" /><path d="M 119.16976305983485 91.42560881287824 l 4.129641453899929 -1.8471360954107325 a25.523919792916086,25.523919792916086 0 0,0 0.17546615315302427,0.401500896933292 l -4.160741489069923 1.7759731287015912" fill="#ff3204" stroke="none" /><path d="M 119.31412917781788 91.75594674310238 l 4.158917788243369 -1.7751946992626897 a25.521936906863857,25.521936906863857 0 0,0 0.16853490696916693,0.40442242374738674 l -4.188778539749019 1.703539766074025" fill="#ff3104" stroke="none" /><path d="M 119.71291397450082 92.76114493625339 l 2.1237656607207667 -0.7798761678362662 a23.262429538972583,23.262429538972583 0 0,0 0.13443449967687926,0.3760372218158656 l -2.136840330441589 0.7433039896394839" fill="#ff1101" stroke="none" /><path d="M 119.83427380445688 93.10060997987247 l 2.1357057268734847 -0.7429093156215815 a23.26122825098165,23.26122825098165 0 0,0 0.1279529035771971,0.378270023684979 l -2.1481440520230466 0.7061376174624409" fill="#ff1101" stroke="none" /><path d="M 119.94978838288452 93.4421083053983 l 2.1482169621748977 -0.7061615844775337 a23.26130499932401,23.26130499932401 0 0,0 0.12144094214251412,0.38041202159605786 l -2.1600226200946686 0.6691805291900889" fill="#ff1101" stroke="none" /><path d="M 120.16314734710363 94.1308016681162 l 5.648899192276857 -1.6443122269328452 a26.883351492486828,26.883351492486828 0 0,0 0.12517593557259035,0.4442052355630016 l -5.67629361992403 1.5470990674668303" fill="#ff4506" stroke="none" /><path d="M 120.26092885502905 94.47779374421319 l 2.179345893650988 -0.5939904144352975 a23.258843318296876,23.258843318296876 0 0,0 0.10168602290163173,0.386118391737941 l -2.18922139735735 0.556491518324558" fill="#ff1101" stroke="none" /><path d="M 120.43855184770803 95.1765574152323 l 2.2019244674070864 -0.5196481787785913 a23.26241145459306,23.26241145459306 0 0,0 0.08838513181205011,0.38944119891516354 l -2.2105204607768028 0.48177264592440144" fill="#ff1101" stroke="none" /><path d="M 120.51834098615036 95.52812308129327 l 4.43674291432418 -0.966967468090821 a25.540893499318365,25.540893499318365 0 0,0 0.08968780734432309,0.4291886254943338 l -4.452688432492869 0.8906623913110827" fill="#ff3204" stroke="none" /><path d="M 120.592083275326 95.88100663000786 l 4.42894924830267 -0.8859138896184144 a25.516684056236347,25.516684056236347 0 0,0 0.08222898184525168,0.4302567796746957 l -4.443504522430079 0.8097545449104042" fill="#ff3104" stroke="none" /><path d="M 120.65975698304385 96.23510406497455 l 2.224325067690966 -0.405346123499809 a23.26095720583003,23.26095720583003 0 0,0 0.06821572832506523,0.3934501933546081 l -2.2309556135082658 0.36710289722460815" fill="#ff1101" stroke="none" /><path d="M 120.7213421655516 96.59031103205396 l 7.187370050193549 -1.182679006644277 a28.284024840098798,28.284024840098798 0 0,0 0.07472169021204399,0.47976685288513665 l -7.206613232543859 1.0591239718276992" fill="#ff5808" stroke="none" /><path d="M 120.86939407059847 97.66154086499901 l 2.7270987798217874 -0.30557710646274727 a23.744165651504957,23.744165651504957 0 0,0 0.04191140062953769,0.4054547821330777 l -2.7319425729329914 0.2587178020467382" fill="#ff1802" stroke="none" /><path d="M 120.93736805541906 98.37931529534042 l 3.2513199054897433 -0.2516727234691095 a24.26104588860264,24.26104588860264 0 0,0 0.028577246346504225,0.4155068900347331 l -3.255161113001314 0.19582240928004224" fill="#ff2003" stroke="none" /><path d="M 120.98066250479742 99.09900007780936 l 2.3488368771757395 -0.10086916192898769 a23.351001757423617,23.351001757423617 0 0,0 0.013760759794536503,0.40062950711199785 l -2.3502223239671243 0.060533390252869884" fill="#ff1202" stroke="none" /><path d="M 120.99303781780057 99.45929381324524 l 18.438346634252973 -0.47490640398007644 a39.44446157244524,39.44446157244524 0 0,0 0.0116240356426127,0.6770418010346446 l -18.44378210149425 0.1583176869763654" fill="#ffea16" stroke="none" /><line stroke="#e1ed5e" stroke-width="0.3" x1="184.99686870605535" x2="189.99668451229388" y1="99.2704041080226" y2="99.22748670261217" /><path d="M 185.99683186730306 99.26182062694052 a86.0,86.0 0 0,1 -10.086455211305974,41.156179273409016" fill="none" id="id124" stroke="none" /><text fill="#e1ed5e" style="font-size:6.75px; font-family:Arial;" text-anchor="middle"><textPath startOffset="21.40746469413373" xlink:href="#id124">April</textPath></text><path d="M 120.99922638620191 100.18025310272382 l 2.2627753512828446 0.019423204947384646 a23.26285871217441,23.26285871217441 0 0,0 -0.006855418683371667,0.3992937698180491 l -2.2621085010008044 -0.058263890734504754" fill="#ff1101" stroke="none" /><path d="M 120.82617615685814 102.69636545807757 l 2.2606704194462757 0.29268904599586687 a23.279538905788925,23.279538905788925 0 0,0 -0.05471299509842882,0.39587597728420115 l -2.2553129077926366 -0.33145333148015305" fill="#ff1101" stroke="none" /><path d="M 120.77682067341334 103.0534771498775 l 2.2463799065333605 0.33014048791983247 a23.270509948500727,23.270509948500727 0 0,0 -0.0614768175773534,0.394725269339891 l -2.24038159681774 -0.368653939191174" fill="#ff1101" stroke="none" /><path d="M 120.7213421655516 103.40968896794604 l 4.365386894734003 0.7183227523039412 a25.4240920330835,25.4240920330835 0 0,0 -0.07455939752150852,0.430038791515211 l -4.352412679720261 -0.7931545767397402" fill="#ff3004" stroke="none" /><line stroke="#e1ed5e" stroke-width="0.3" x1="174.33088141563837" x2="178.70328620479359" y1="141.23008692659167" y2="143.65538615756765" /><path d="M 175.20536237346943 141.71514677278685 a86.0,86.0 0 0,1 -30.301960400862466,31.631185727798858" fill="none" id="id125" stroke="none" /><text fill="#e1ed5e" style="font-size:6.75px; font-family:Arial;" text-anchor="middle"><textPath startOffset="22.145653131862474" xlink:href="#id125">May</textPath></text><line stroke="#e1ed5e" stroke-width="0.3" x1="143.1302829299769" x2="145.66735839644613" y1="173.24464959558577" y2="177.55315839532614" /><path d="M 143.63769802327073 174.10635135553383 a86.0,86.0 0 0,1 -40.68552437913181,11.842963189579606" fill="none" id="id126" stroke="none" /><text fill="#e1ed5e" style="font-size:6.75px; font-family:Arial;" text-anchor="middle"><textPath startOffset="21.407464694133747" xlink:href="#id126">June</textPath></text><line stroke="#e1ed5e" stroke-width="0.3" x1="101.45913802915013" x2="101.54496967792366" y1="184.9874750549273" y2="189.98673829345242" /><path d="M 101.47630435890484 185.9873277026323 a86.0,86.0 0 0,1 -42.54439059252881,-10.42667462771756" fill="none" id="id127" stroke="none" /><text fill="#e1ed5e" style="font-size:6.75px; font-family:Arial;" text-anchor="middle"><textPath startOffset="22.145653131862474" xlink:href="#id127">July</textPath></text><line stroke="#e1ed5e" stroke-width="0.3" x1="58.13341422392154" x2="55.67067388415222" y1="173.97424548756322" y2="178.32567169271397" /><path d="M 57.64086615596768 174.84453072859336 a86.0,86.0 0 0,1 -31.369924170532247,-30.572349798747897" fill="none" id="id128" stroke="none" /><text fill="#e1ed5e" style="font-size:6.75px; font-family:Arial;" text-anchor="middle"><textPath startOffset="22.145653131862474" xlink:href="#id128">August</textPath></text><line stroke="#e1ed5e" stroke-width="0.3" x1="26.387840678322732" x2="22.057713659400548" y1="142.50000000000003" y2="145.00000000000006" /><path d="M 25.521815274538298 143.00000000000003 a86.0,86.0 0 0,1 -11.493303480769221,-40.785679425670985" fill="none" id="id129" stroke="none" /><text fill="#e1ed5e" style="font-size:6.75px; font-family:Arial;" text-anchor="middle"><textPath startOffset="21.40746469413373" xlink:href="#id129">September</textPath></text><line stroke="#e1ed5e" stroke-width="0.3" x1="15.003131293944662" x2="10.003315487706104" y1="100.72959589197737" y2="100.7725132973878" /><path d="M 14.003168132696942 100.73817937305945 a86.0,86.0 0 0,1 10.791469493833604,-42.45332614584628" fill="none" id="id130" stroke="none" /><text fill="#e1ed5e" style="font-size:6.75px; font-family:Arial;" text-anchor="middle"><textPath startOffset="22.145653131862435" xlink:href="#id130">October</textPath></text><line stroke="#e1ed5e" stroke-width="0.3" x1="26.387840678322718" x2="22.05771365940052" y1="57.49999999999999" y2="54.99999999999999" /><path d="M 25.521815274538284 56.99999999999999 a86.0,86.0 0 0,1 29.574782752854787,-30.34633250058573" fill="none" id="id131" stroke="none" /><text fill="#e1ed5e" style="font-size:6.75px; font-family:Arial;" text-anchor="middle"><textPath startOffset="21.40746469413373" xlink:href="#id131">November</textPath></text><line stroke="#e1ed5e" stroke-width="0.3" x1="56.869717070023135" x2="54.33264160355391" y1="26.7553504044142" y2="22.446841604673864" /><path d="M 56.362301976729285 25.89364864446614 a86.0,86.0 0 0,1 42.16139366436587,-11.88097634709845" fill="none" id="id132" stroke="none" /><text fill="#e1ed5e" style="font-size:6.75px; font-family:Arial;" text-anchor="middle"><textPath startOffset="22.145653131862474" xlink:href="#id132">December</textPath></text></svg>