<?xml version="1.0" encoding="utf-8" ?>
<svg baseProfile="full" height="200mm" version="1.1" viewBox="0,0,200,200" width="200mm" xmlns="http://www.w3.org/2000/svg" xmlns:ev="http://www.w3.org/2001/xml-events" xmlns:xlink="http://www.w3.org/1999/xlink"><defs /><rect fill="#1a1a1a" height="200" width="200" x="0" y="0" /><text alignment-baseline="middle" fill="#e1ed5e" style="dominant-baseline: central; font-size:9.0px; font-family:Arial;" text-anchor="middle" x="100.0" y="100.0">2018</text><line stroke="#e1ed5e" stroke-width="0.3" x1="100.0" x2="100.0" y1="15.0" y2="10.0" /><path d="M 100.0 14.0 a86.0,86.0 0 0,1 42.46469731375804,11.215312516191453" fill="none" id="id49" stroke="none" /><text fill="#e1ed5e" style="font-size:6.75px; font-family:Arial;" text-anchor="middle"><textPath startOffset="22.20632615414155" xlink:href="#id49">January</textPath></text><path d="M 102.16513564639614 79.11191278185805 l 6.312406923279057 -60.898773981818245 a82.22505331687057,82.22505331687057 0 0,0 1.4065703312908577,0.15804456561735675 l -7.3597439580796395 60.78109346273028" fill="#4be2ff" stroke="none" /><path d="M 106.0581310904928 79.89281104454417 l 1.485122718782832 -4.929184047448145 a26.148052531148277,26.148052531148277 0 0,0 0.4298423908990911,0.13355412321789192 l -1.5697504823926414 4.902889789347732" fill="#ff3404" stroke="none" /><path d="M 106.74666289553966 80.11325718540242 l 2.276856736079192 -6.7113571608900084 a28.0870580312044,28.0870580312044 0 0,0 0.45650563614139145,0.1592658527265961 l -2.392044376283857 6.671170454991205" fill="#ff4f07" stroke="none" /><path d="M 109.08828744355905 81.06846463323043 l 2.5523510140065957 -5.3167248274393835 a26.897631608485803,26.897631608485803 0 0,0 0.4156692526820028,0.20396709705931446 l -2.6434915336990303 5.272002570245236" fill="#ff3e05" stroke="none" /><line stroke="#e1ed5e" stroke-width="0.3" x1="143.23703022742887" x2="145.7803849466894" y1="26.81831364943548" y2="22.513508569990506" /><path d="M 143.74570117128098 25.957352633546492 a86.0,86.0 0 0,1 28.547481713284135,27.462654790039103" fill="none" id="id50" stroke="none" /><text fill="#e1ed5e" style="font-size:6.75px; font-family:Arial;" text-anchor="middle"><textPath startOffset="19.985693538727396" xlink:href="#id50">February</textPath></text><path d="M 116.60985879189232 87.15038557335679 l 5.604359134406592 -4.335609043269671 a28.085643731058482,28.085643731058482 0 0,0 0.29252409610839464,0.3849274211895258 l -5.678159170739101 4.238496846199112" fill="#ff4f07" stroke="none" /><path d="M 117.45458315368197 88.32363383020206 l 14.106296857841528 -9.436506501576513 a37.97160175103828,37.97160175103828 0 0,0 0.35874731182166214,0.5463967681427377 l -14.266640805021114 9.192291669456102" fill="#ffd313" stroke="none" /><line stroke="#e1ed5e" stroke-width="0.3" x1="172.23445277983987" x2="176.4835382374775" y1="55.19839476539836" y2="52.563006222186495" /><path d="M 173.08426987136738 54.67131705675599 a86.0,86.0 0 0,1 12.851231095245387,41.99856678651699" fill="none" id="id51" stroke="none" /><text fill="#e1ed5e" style="font-size:6.75px; font-family:Arial;" text-anchor="middle"><textPath startOffset="22.20632615414155" xlink:href="#id51">March</textPath></text><path d="M 118.21658344932153 89.55222093294921 l 10.771687238862482 -6.177898768124772 a33.41755528117634,33.41755528117634 0 0,0 0.2818887887975281,0.5014487012744895 l -10.876433668952444 5.991566556915489" fill="#ff980e" stroke="none" /><path d="M 119.7369772167798 92.82701384747503 l 8.852728808873284 -3.217336700582531 a30.419238971826243,30.419238971826243 0 0,0 0.1746164543887538,0.49366423066163867 l -8.906798344071849 3.064474843494278" fill="#ff6f0a" stroke="none" /><path d="M 120.18372546131832 94.20196356495316 l 32.84131600485692 -9.434093182449105 a55.16949152542373,55.16949152542373 0 0,0 0.2543398400375207,0.9149957283061434 l -32.9988426154608 8.867386150724009" fill="#64ff29" stroke="none" /><path d="M 120.78858239683441 97.02765380044208 l 5.600246689011405 -0.8007218407160165 a26.657200583679426,26.657200583679426 0 0,0 0.06103737418957577,0.454799334335022 l -5.613200062258816 0.7042041643163302" fill="#ff3b05" stroke="none" /><path d="M 120.83666639777658 97.38593545837742 l 5.949992065994343 -0.7464564141753097 a26.99663261870019,26.99663261870019 0 0,0 0.05387711157816771,0.4615861898041825 l -5.9619595305761 0.6439264860462746" fill="#ff4006" stroke="none" /><path d="M 120.87857604477298 97.74499172005257 l 9.856918940881716 -1.0646048743359402 a30.914244022898195,30.914244022898195 0 0,0 0.05258788827899551,0.5295528583243165 l -9.87378395484294 0.8947764853071887" fill="#ff760a" stroke="none" /><path d="M 120.91429891909075 98.10471618934814 l 13.48806778196519 -1.2223080775038 a34.543338197328545,34.543338197328545 0 0,0 0.04856713766066138,0.5926420955087026 l -13.507109403445346 0.9899520647873284" fill="#ffa70f" stroke="none" /><path d="M 120.94382443527127 98.46500227214037 l 7.073742027806852 -0.5184429411976246 a28.09271523178808,28.09271523178808 0 0,0 0.031195500775550115,0.4825805895422972 l -7.0816181195868175 0.39660328740229206" fill="#ff4f07" stroke="none" /><line stroke="#e1ed5e" stroke-width="0.3" x1="184.98032266829074" x2="189.97916517819016" y1="98.17113171792111" y2="98.06355123074" /><path d="M 185.9800911702706 98.14961562048488 a86.0,86.0 0 0,1 -9.607161424134198,41.387399972396054" fill="none" id="id52" stroke="none" /><text fill="#e1ed5e" style="font-size:6.75px; font-family:Arial;" text-anchor="middle"><textPath startOffset="21.466115282336823" xlink:href="#id52">April</textPath></text><path d="M 120.8583938346157 102.4346265915055 l 7.544983721117135 0.8806631107627851 a28.59620608373555,28.59620608373555 0 0,0 -0.06127552928734283,0.48842625795117744 l -7.5287066825829445 -1.0104071230013574" fill="#ff5608" stroke="none" /><path d="M 120.76222939487914 103.15116336523771 l 8.405102316261212 1.27567468773895 a29.501358177124256,29.501358177124256 0 0,0 -0.08052219498438193,0.5014117850321836 l -8.381898366915543 -1.4201657024643386" fill="#ff6309" stroke="none" /><path d="M 120.49622156327973 104.57218783832717 l 59.8322184528248 13.347052319157555 a82.30283982489618,82.30283982489618 0 0,0 -0.3203517880759701,1.3800671186460332 l -59.59360609881828 -14.374988095152153" fill="#4be2ff" stroke="none" /><path d="M 119.9155931802556 106.66101706037122 l 16.343349617336255 5.46623591069413 a38.233247278033446,38.233247278033446 0 0,0 -0.214122878224357,0.6223413128175493 l -16.246835908168666 -5.74674992660098" fill="#ffd714" stroke="none" /><path d="M 119.79798401119884 107.00284435728193 l 13.370805948881035 4.729454925232223 a35.18260186328432,35.18260186328432 0 0,0 -0.20686656022990085,0.5692079281003354 l -13.287415127645907 -4.95891065033869" fill="#ffaf10" stroke="none" /><path d="M 119.67450827220406 107.3425965602758 l 4.576658541173609 1.7080252678769274 a25.884992704007182,25.884992704007182 0 0,0 -0.15938464901468904,0.4161030242651828 l -4.546579612565413 -1.786551858975254" fill="#ff3004" stroke="none" /><path d="M 119.26925614724726 108.34839909993367 l 11.697816247252456 5.06807517028637 a33.748501515321585,33.748501515321585 0 0,0 -0.23553065590621547,0.5310594507912889 l -11.608844506614968 -5.268682957570347" fill="#ff9c0e" stroke="none" /><path d="M 119.12269723197855 108.67885076344098 l 13.670721592824265 6.204467450034307 a36.01279604893928,36.01279604893928 0 0,0 -0.26105055605803756,0.562279673601305 l -13.561896419926395 -6.438867190914443" fill="#ffba11" stroke="none" /><path d="M 118.81262510543309 109.33194174019688 l 6.3349281980356125 3.1424206106847725 a28.071500729599283,28.071500729599283 0 0,0 -0.21845152334889684,0.43102558006876346 l -6.2798980049004465 -3.25100040245623" fill="#ff4f07" stroke="none" /><line stroke="#e1ed5e" stroke-width="0.3" x1="174.80103733775053" x2="179.2010983576182" y1="140.37084112569926" y2="142.7455964860345" /><path d="M 175.68104954172406 140.8457921977663 a86.0,86.0 0 0,1 -30.038265399797805,32.042727171017184" fill="none" id="id53" stroke="none" /><text fill="#e1ed5e" style="font-size:6.75px; font-family:Arial;" text-anchor="middle"><textPath startOffset="22.206326154141568" xlink:href="#id53">May</textPath></text><path d="M 118.48025628344425 109.97397251340804 l 6.223006942455131 3.3586168526461053 a28.071500729599283,28.071500729599283 0 0,0 -0.23315866425434648,0.42325070113374563 l -6.164271868749275 -3.4652380721776557" fill="#ff4f07" stroke="none" /><path d="M 118.12598468904814 110.60418214915192 l 2.511066371447212 1.4690404768754417 a23.909215400157144,23.909215400157144 0 0,0 -0.2108782828171222,0.35344413169766176 l -2.4854072129318627 -1.5120467024592077" fill="#ff1302" stroke="none" /><path d="M 117.75023020441432 111.22182372390056 l 8.38717802991386 5.302434521060924 a30.922729823773714,30.922729823773714 0 0,0 -0.2883104814571588,0.44746426975759657 l -8.29466268507965 -5.446020390739974" fill="#ff760a" stroke="none" /><path d="M 117.55443506779139 111.5257021239791 l 7.093497165119428 4.6573720559349825 a29.48580087551914,29.48580087551914 0 0,0 -0.2822168766884376,0.4218759389605525 l -7.012277183020268 -4.778784909101342" fill="#ff6309" stroke="none" /><path d="M 117.14729908036423 112.12312394758627 l 16.751962316293433 11.84362123585272 a41.51583791671344,41.51583791671344 0 0,0 -0.41757066211757304,0.5799691279191163 l -16.545611861800257 -12.130223969222968" fill="#feff18" stroke="none" /><path d="M 116.27256486870786 113.27417163493432 l 6.11084218484106 4.984854486680466 a28.88613761364912,28.88613761364912 0 0,0 -0.31761546298176935,0.38258828584280935 l -6.024130721965746 -5.089304029637046" fill="#ff5a08" stroke="none" /><path d="M 116.0416608686014 113.55231037782055 l 7.096935924066174 5.995630948831734 a30.290537658547535,30.290537658547535 0 0,0 -0.33991390896976814,0.3953966690913347 l -6.9926795055256274 -6.116904717084597" fill="#ff6e0a" stroke="none" /><path d="M 115.56566222782051 114.09645910891815 l 10.49987694739142 9.508820368274167 a35.16563026153328,35.16563026153328 0 0,0 -0.41018797369794835,0.4451780323404205 l -10.33464256569775 -9.688149655415923" fill="#ffaf10" stroke="none" /><path d="M 115.32070863581623 114.36230785411682 l 7.2237252997653725 6.771838631945577 a30.901515321584917,30.901515321584917 0 0,0 -0.36712979167609466,0.3849341188068206 l -7.106088956710313 -6.895179867334904" fill="#ff760a" stroke="none" /><path d="M 115.07121518719521 114.62390073753431 l 5.086217934877213 4.93525872235612 a28.0870580312044,28.0870580312044 0 0,0 -0.33966531912540804,0.34407917498304996 l -5.000511990696269 -5.022078391319835" fill="#ff4f07" stroke="none" /><path d="M 114.29624159901734 115.38237550388516 l 4.824680659064489 5.191227993038625 a28.0870580312044,28.0870580312044 0 0,0 -0.35697373536565674,0.3260870434909543 l -4.734607374231968 -5.273507803116162" fill="#ff4f07" stroke="none" /><path d="M 113.48314897796784 116.09983520530334 l 6.773205178583148 8.087686887171913 a31.54926478841621,31.54926478841621 0 0,0 -0.4193496297571485,0.345096196112693 l -6.632985420281309 -8.203078202141784" fill="#ff7f0b" stroke="none" /><path d="M 113.20401910651253 116.32954008644616 l 11.560371425614292 14.296824859611634 a39.38590189695813,39.38590189695813 0 0,0 -0.5308516392620699,0.42174064775938375 l -11.31256229363487 -14.493699421376144" fill="#ffe515" stroke="none" /><line stroke="#e1ed5e" stroke-width="0.3" x1="143.8653032363475" x2="146.44561519142675" y1="172.8068346515853" y2="177.08958963109032" /><path d="M 144.38136562736335 173.6633856474863 a86.0,86.0 0 0,1 -40.68145358897372,12.25698825130547" fill="none" id="id54" stroke="none" /><text fill="#e1ed5e" style="font-size:6.75px; font-family:Arial;" text-anchor="middle"><textPath startOffset="21.466115282336833" xlink:href="#id54">June</textPath></text><path d="M 110.8373102113329 117.98757091392108 l 3.656634245736529 6.069215194437846 a28.085643731058482,28.085643731058482 0 0,0 -0.4162454615217002,0.24592515558648273 l -3.5516209131864467 -6.131258922318078" fill="#ff4f07" stroke="none" /><path d="M 110.21172684928248 118.3499491758327 l 3.633994702319588 6.530102016731394 a28.473161971040522,28.473161971040522 0 0,0 -0.4303205754084459,0.23464508824032196 l -3.521051315042494 -6.591687756731487" fill="#ff5407" stroke="none" /><path d="M 109.89434966115114 118.52300852407294 l 3.3344702461151856 6.24239317461854 a28.077157930182963,28.077157930182963 0 0,0 -0.4282556722018072,0.2240431270829387 l -3.226523671386883 -6.298865720646195" fill="#ff4f07" stroke="none" /><path d="M 109.57404056367764 118.69057910512821 l 8.92129926405054 17.416288191618854 a40.568256818947134,40.568256818947134 0 0,0 -0.6242606506269034,0.3130172496628539 l -8.620184705740876 -17.56727328219101" fill="#fff417" stroke="none" /><path d="M 101.98527174616119 120.90594882070398 l 0.8022200343675259 8.44779613363277 a29.48580087551914,29.48580087551914 0 0,0 -0.5056894633933163,0.043633014731866586 l -0.6566862532326678 -8.4603534006433" fill="#ff6309" stroke="none" /><path d="M 101.26447882468166 120.96189622390904 l 3.7934364740449884 62.885688671727095 a84.0,84.0 0 0,0 -1.4440477263460816,0.07464077295119242 l -2.7104006792854274 -62.94166925144049" fill="#4dd2ff" stroke="none" /><line stroke="#e1ed5e" stroke-width="0.3" x1="102.19456741930631" x2="102.32365962044197" y1="184.97166512339345" y2="189.96999836594603" /><path d="M 102.22038585953345 185.97133177190398 a86.0,86.0 0 0,1 -42.740103519485714,-10.115201625700543" fill="none" id="id55" stroke="none" /><text fill="#e1ed5e" style="font-size:6.75px; font-family:Arial;" text-anchor="middle"><textPath startOffset="22.20632615414155" xlink:href="#id55">July</textPath></text><path d="M 97.2962882734958 120.8252237178851 l -0.915905487775245 7.05472277254206 a28.113929733976878,28.113929733976878 0 0,0 -0.4793711631961686,-0.06643647517899891 l 1.0372052421582447 -7.037911731870455" fill="#ff4f07" stroke="none" /><path d="M 96.93821686468263 120.77559828337769 l -1.0310191273938814 6.995936115179379 a28.071500729599283,28.071500729599283 0 0,0 -0.47743491977620045,-0.07456551552400016 l 1.151289910778599 -6.977152292308274" fill="#ff4f07" stroke="none" /><path d="M 96.58105272829116 120.7198165907248 l -1.6394368329487248 9.935464864246981 a31.069817038949378,31.069817038949378 0 0,0 -0.5269308235522404,-0.09161367791161944 l 1.8102166279730152 -9.905772607814354" fill="#ff780b" stroke="none" /><path d="M 96.22490169976321 120.6578951692458 l -1.2712195421158816 6.956300988633677 a28.071500729599283,28.071500729599283 0 0,0 -0.474585326980097,-0.09095540743833125 l 1.3907724836676736 -6.933388382846878" fill="#ff4f07" stroke="none" /><path d="M 95.16358092515715 120.4354850818985 l -2.074844954994879 8.766912558425869 a30.009091929509484,30.009091929509484 0 0,0 -0.5016472928425397,-0.12329269956269892 l 2.225445532580629 -8.729898600549141" fill="#ff6a09" stroke="none" /><path d="M 94.81253420990036 120.34920634021253 l -1.7468175294981394 6.852353689599013 a28.071500729599283,28.071500729599283 0 0,0 -0.46720275188662863,-0.12339249311299207 l 1.8645107241962573 -6.821269847182439" fill="#ff4f07" stroke="none" /><path d="M 92.40401165467489 119.57807347666478 l -3.581002475066279 9.229757391625554 a30.900101021438992,30.900101021438992 0 0,0 -0.4942234610132767,-0.19666171474698318 l 3.7393470121214136 -9.166748832472505" fill="#ff760a" stroke="none" /><path d="M 91.7346041902142 119.30500536409082 l -5.1768895070832555 12.091360414370497 a34.15299135705466,34.15299135705466 0 0,0 -0.5384452065196943,-0.2360385550922305 l 5.384255388260693 -12.000457305983813" fill="#ffa20e" stroke="none" /><path d="M 90.7491055286396 118.85261126421891 l -0.7040191325156971 1.4347368320956813 a22.598159164889438,22.598159164889438 0 0,0 -0.34773842036652547,-0.17436326290296564 l 0.7286114605649832 -1.4224057282834135" fill="#ff0000" stroke="none" /><path d="M 90.42595943632237 118.69057910512821 l -3.2239445157742614 6.293830656121298 a28.071500729599283,28.071500729599283 0 0,0 -0.4281693839726079,-0.22399798515965516 l 3.331804802273365 -6.237403252016926" fill="#ff4f07" stroke="none" /><line stroke="#e1ed5e" stroke-width="0.3" x1="58.666819895761336" x2="56.23545636021788" y1="174.27360380694188" y2="178.64263932499728" /><path d="M 58.180547188652646 175.14741091055294 a86.0,86.0 0 0,1 -31.652253787137756,-30.449443065178592" fill="none" id="id56" stroke="none" /><text fill="#e1ed5e" style="font-size:6.75px; font-family:Arial;" text-anchor="middle"><textPath startOffset="22.20632615414155" xlink:href="#id56">August</textPath></text><path d="M 89.4739219176387 118.17145234162733 l -1.427737428973552 2.464741610688344 a23.84840049388259,23.84840049388259 0 0,0 -0.35344706944185056,-0.20882275863455144 l 1.4699523694437848 -2.439800279760043" fill="#ff1202" stroke="none" /><path d="M 89.1626897886671 117.98757091392108 l -6.670985430345678 11.072380614203972 a33.926703333707486,33.926703333707486 0 0,0 -0.49762525259560897,-0.30568207396331276 l 6.860589882873596 -10.955910073412282" fill="#ff9f0e" stroke="none" /><path d="M 86.24171649860922 115.8653595955263 l -4.679268044585706 5.3958962368890635 a28.142215736895274,28.142215736895274 0 0,0 -0.36324584674466825,-0.32052222588176493 l 4.771456244236962 -5.31455086923501" fill="#ff5007" stroke="none" /><path d="M 85.70375840098266 115.38237550388516 l -4.81408966180851 5.179832361842573 a28.071500729599283,28.071500729599283 0 0,0 -0.35111320554941755,-0.33199945122827595 l 4.902538701748744 -5.096198273868366" fill="#ff4f07" stroke="none" /><path d="M 84.67929136418377 114.36230785411682 l -5.551155850983815 5.203898277369976 a28.608934785048827,28.608934785048827 0 0,0 -0.3337076828101737,-0.36217378162263847 l 5.639909941789718 -5.107573240945993" fill="#ff5608" stroke="none" /><path d="M 83.72743513129214 113.27417163493432 l -6.707021910191406 5.471181753673683 a29.65551689302952,29.65551689302952 0 0,0 -0.31926577039373605,-0.39833313792254077 l 6.800205592640003 -5.354920782172883" fill="#ff6509" stroke="none" /><path d="M 82.05923443525364 110.91462005526583 l -12.997338546187674 7.907188321999856 a36.213626669659895,36.213626669659895 0 0,0 -0.3194026771212172,-0.5353372588628239 l 13.131522099007123 -7.682288969250921" fill="#ffbd11" stroke="none" /><line stroke="#e1ed5e" stroke-width="0.3" x1="26.63291911575756" x2="22.317208475507996" y1="142.92168965132927" y2="145.44649492493687" /><path d="M 25.769776987707644 143.4266507060508 a86.0,86.0 0 0,1 -11.730757126820373,-40.83630448921669" fill="none" id="id57" stroke="none" /><text fill="#e1ed5e" style="font-size:6.75px; font-family:Arial;" text-anchor="middle"><textPath startOffset="21.46611528233685" xlink:href="#id57">September</textPath></text><path d="M 81.69416730710424 110.29060199501025 l -8.182454478577785 4.5997570170086215 a30.386710068470087,30.386710068470087 0 0,0 -0.2523885273856336,-0.45815848840835 l 8.260419415414935 -4.458228010202449" fill="#ff6f0a" stroke="none" /><path d="M 81.51974371655577 109.97397251340807 l -7.4676083309461525 4.030340223175335 a29.48580087551914,29.48580087551914 0 0,0 -0.23721676670949604,-0.44872472514172723 l 7.535877605880534 -3.9012004829474813" fill="#ff6309" stroke="none" /><path d="M 81.35079622478065 109.6543875284942 l -8.957646514189994 4.637226974063572 a31.086788640700416,31.086788640700416 0 0,0 -0.24191639770173504,-0.4773240032801268 l 9.036141581677995 -4.482348759080761" fill="#ff790b" stroke="none" /><path d="M 81.18737489456691 109.33194174019688 l -8.905642060798462 4.417614894500654 a30.94111572567067,30.94111572567067 0 0,0 -0.232569254952582,-0.479161549940205 l 8.980364572365763 -4.263664388595164" fill="#ff770a" stroke="none" /><path d="M 81.02952815118164 109.00673069616217 l -12.836210393876632 6.094328654462317 a35.2094735660568,35.2094735660568 0 0,0 -0.25522740973623764,-0.5497371344755533 l 12.939212420452696 -5.872471452707937" fill="#ffb010" stroke="none" /><path d="M 80.87730276802145 108.67885076344099 l -10.336430664532028 4.691196962220949 a32.351172971152764,32.351172971152764 0 0,0 -0.22577870563442315,-0.5090713773680936 l 10.415650454897731 -4.512577248360159" fill="#ff8a0c" stroke="none" /><path d="M 80.58989483394504 108.01547362559985 l -6.728284518331003 2.7784695982239813 a28.2794028510495,28.2794028510495 0 0,0 -0.18192730454947437,-0.45152865014213667 l 6.775114437137866 -2.6622415802390393" fill="#ff5207" stroke="none" /><path d="M 80.45479744820244 107.68017299344265 l -7.911101178783479 3.1086209242736786 a29.499943876978335,29.499943876978335 0 0,0 -0.18164340452208258,-0.4742136110767796 l 7.96343886289907 -2.9719837463637413" fill="#ff6309" stroke="none" /><path d="M 80.32549172779594 107.34259656027581 l -10.054338451194369 3.7523149197018424 a31.73170950723987,31.73170950723987 0 0,0 -0.1865760133797138,-0.5133770576117468 l 10.117438725579307 -3.578690065083978" fill="#ff810b" stroke="none" /><path d="M 80.20201598880116 107.00284435728193 l -9.033427433552953 3.1952589866821235 a30.581883488607026,30.581883488607026 0 0,0 -0.17127190025171782,-0.49779631273088587 l 9.087090164747899 -3.0392899708619407" fill="#ff720a" stroke="none" /><path d="M 79.67330655649465 105.27499134158121 l -13.722400386869298 3.561107635515326 a35.17694466270064,35.17694466270064 0 0,0 -0.14705417805018786,-0.5874083422984581 l 13.781665879214543 -3.324371453819476" fill="#ffaf10" stroke="none" /><path d="M 79.58551787078972 104.9243191809786 l -7.630511335758252 1.8406086959994108 a28.849365809855204,28.849365809855204 0 0,0 -0.11229194450285503,-0.48375075796506906 l 7.661063846191662 -1.7089892806857674" fill="#ff5a08" stroke="none" /><path d="M 79.4281124754447 104.21870165774334 l -7.9678252432630465 1.633971482793711 a29.133640139185093,29.133640139185093 0 0,0 -0.09651568081647244,-0.49213137713894994 l 7.994770857055186 -1.4965763785868063" fill="#ff5e08" stroke="none" /><path d="M 79.23777060512086 103.15116336523772 l -14.00104633051464 2.1249926215821295 a35.16138736109552,35.16138736109552 0 0,0 -0.08566979770968637,-0.5991743656485308 l 14.035550179240925 -1.8836727839531981" fill="#ffaf10" stroke="none" /><path d="M 79.18660465613746 102.79330883721812 l -22.848244074865384 3.066400317431053 a44.05309237849366,44.05309237849366 0 0,0 -0.09439631762101869,-0.7524315288048737 l 22.89764190173325 -2.6726510343387706" fill="#e0ff1b" stroke="none" /><line stroke="#e1ed5e" stroke-width="0.3" x1="15.007084014347285" x2="10.007500721073583" y1="101.09737516637583" y2="101.16192664675087" /><path d="M 14.007167355692545 101.11028546245083 a86.0,86.0 0 0,1 10.666146001902534,-42.60595125391555" fill="none" id="id58" stroke="none" /><text fill="#e1ed5e" style="font-size:6.75px; font-family:Arial;" text-anchor="middle"><textPath startOffset="22.20632615414155" xlink:href="#id58">October</textPath></text><path d="M 79.00175016825051 100.2711162175752 l -38.752836915889425 0.5003522983643501 a59.756066898641826,59.756066898641826 0 0,0 -0.004426794059183636,-1.0286310382707673 l 38.75570800723811 0.1667882181100926" fill="#35ff2f" stroke="none" /><path d="M 79.03285615573316 98.82574320788736 l -10.189622402978758 -0.5706658667786403 a31.205589852957683,31.205589852957683 0 0,0 0.03465218632045972,-0.536053984956794 l 10.178289625653886 0.7459789159884461" fill="#ff7a0b" stroke="none" /><path d="M 79.08570108090925 98.10471618934814 l -14.085283815753126 -1.2764286523640285 a35.143001459198565,35.143001459198565 0 0,0 0.05978138210839069,-0.6019903594935064 l 14.061225307962506 1.5186945425619651" fill="#ffaf10" stroke="none" /><path d="M 79.12142395522702 97.74499172005258 l -9.364776055103027 -1.0114505653462686 a30.419238971826243,30.419238971826243 0 0,0 0.060707598438509945,-0.5201056299155526 l 9.345978103660928 1.172499933586683" fill="#ff6f0a" stroke="none" /><path d="M 79.26566170972629 96.67025291283419 l -8.432910692667841 -1.3542491408279942 a29.540958581210013,29.540958581210013 0 0,0 0.0849487379822603,-0.5013722602436544 l 8.408350093165357 1.4992071893874768" fill="#ff6309" stroke="none" /><path d="M 79.46518482838121 95.60439243477599 l -19.371275526469713 -4.146544516742127 a40.81010214389943,40.81010214389943 0 0,0 0.15295162408309831,-0.6856521399649396 l 19.29702951538458 4.479374826257025" fill="#fff717" stroke="none" /><path d="M 80.02781315780177 93.51064311812611 l -33.629674403096196 -10.926943591465553 a56.360332248288245,56.360332248288245 0 0,0 0.3077346771195608,-0.9200875153784591 l 33.436602432204864 11.504204209766336" fill="#57ff2a" stroke="none" /><path d="M 80.14247586403 93.16781622104843 l -4.937522445392384 -1.6988049733004287 a26.22159613873611,26.22159613873611 0 0,0 0.1505206014654301,-0.42554200966495603 l 4.907548763117145 1.7835446093919958" fill="#ff3505" stroke="none" /><path d="M 80.2630227832202 92.82701384747504 l -7.103450864056884 -2.581598697884839 a28.558019979795713,28.558019979795713 0 0,0 0.17188584223452477,-0.4605686009243144 l 7.057960433320732 2.7034904358384946" fill="#ff5607" stroke="none" /><path d="M 80.38941819471856 92.48833698450439 l -4.073119381804105 -1.5601729985265562 a25.361701650016837,25.361701650016837 0 0,0 0.1596657401956373,-0.4063318932230916 l 4.045660091726776 1.6300538966454112" fill="#ff2803" stroke="none" /><path d="M 81.26839172434947 90.50648371742162 l -8.866028260945464 -4.493462729866036 a30.939701425524753,30.939701425524753 0 0,0 0.24485173894118034,-0.47297562489115375 l 8.78736708884417 4.645411077017525" fill="#ff770a" stroke="none" /><line stroke="#e1ed5e" stroke-width="0.3" x1="26.266209847984243" x2="21.928928074336255" y1="57.711370442889674" y2="55.22380399835377" /><path d="M 25.398753493254645 57.213857153982495 a86.0,86.0 0 0,1 29.58750427330803,-30.492523968695096" fill="none" id="id59" stroke="none" /><text fill="#e1ed5e" style="font-size:6.75px; font-family:Arial;" text-anchor="middle"><textPath startOffset="21.46611528233685" xlink:href="#id59">November</textPath></text><path d="M 82.34701348167596 88.62581576622439 l -51.976939112893184 -33.48981662474592 a82.8317880794702,82.8317880794702 0 0,0 0.7825764502041238,-1.1919176231450432 l 51.392766027331135 34.37955231186863" fill="#4cddff" stroke="none" /><path d="M 83.84228863543731 86.58626213691792 l -9.800180618425292 -8.135870907728174 a33.737187114154224,33.737187114154224 0 0,0 0.3747870325967208,-0.443629632679124 l 9.658682972341449 8.303359490036414" fill="#ff9c0e" stroke="none" /><path d="M 84.31358615837235 86.03803664274999 l -5.30122963232378 -4.718450923336891 a28.09695813222584,28.09695813222584 0 0,0 0.3246621700061586,-0.35850007703494735 l 5.2192238217015765 4.8090037876413945" fill="#ff4f07" stroke="none" /><path d="M 85.31137513191541 84.99185889309783 l -6.5913328653753025 -6.734711697965375 a30.423481872264002,30.423481872264002 0 0,0 0.3774203245418251,-0.36307805317950065 l 6.474429297221049 6.8471728379071894" fill="#ff6f0a" stroke="none" /><path d="M 86.37877921826538 84.01681056812374 l -1.84847411888171 -2.1690061761295767 a23.84981479402851,23.84981479402851 0 0,0 0.3147522102421957,-0.2635959242888547 l 1.810864371680404 2.200503257812244" fill="#ff1202" stroke="none" /><path d="M 86.93701828274178 83.55741782278169 l -4.911704585977284 -6.18244042847075 a28.89603771467056,28.89603771467056 0 0,0 0.39211571588412086,-0.306052535883979 l 4.804556314933738 6.266071353577951" fill="#ff5a08" stroke="none" /><line stroke="#e1ed5e" stroke-width="0.3" x1="56.762969772571076" x2="54.21961505331055" y1="26.818313649435495" y2="22.513508569990535" /><path d="M 56.25429882871897 25.957352633546506 a86.0,86.0 0 0,1 42.265352541879196,-11.944610805530505" fill="none" id="id60" stroke="none" /><text fill="#e1ed5e" style="font-size:6.75px; font-family:Arial;" text-anchor="middle"><textPath startOffset="22.20632615414155" xlink:href="#id60">December</textPath></text><path d="M 89.3179101791058 81.91981866633112 l -6.956727482414206 -11.774745998198092 a34.67628241104501,34.67628241104501 0 0,0 0.5165168782919155,-0.29919991476428504 l 6.753013871656971 11.892750070352424" fill="#ffa90f" stroke="none" /><path d="M 89.63071344664047 81.73862282372117 l -3.6314035297431486 -6.395274081265005 a28.35436075878325,28.35436075878325 0 0,0 0.42649807302192877,-0.2373457158770389 l 3.520781367649174 6.456835194702228" fill="#ff5307" stroke="none" /><path d="M 90.26544431104013 81.39251694778311 l -3.295697257721493 -6.299684631507083 a28.10968683353912,28.10968683353912 0 0,0 0.4306665207550202,-0.22060411910913827 l 3.186770249377709 6.355481275928727" fill="#ff4f07" stroke="none" /><path d="M 91.56875222667455 80.76684994638697 l -5.788403174404285 -13.2043595227207 a35.41737568750702,35.41737568750702 0 0,0 0.5604651998762491,-0.23996194910180188 l 5.560254216737729 13.302040999785289" fill="#ffb210" stroke="none" /><path d="M 92.57280143429618 80.3572730644239 l -2.5020213643944644 -6.6171009180661144 a28.07432932989112,28.07432932989112 0 0,0 0.4534908905133621,-0.16702452214312932 l 2.3877481481085328 6.6591887080155665" fill="#ff4f07" stroke="none" /><path d="M 94.28887869178378 79.79150937346287 l -10.936197922764306 -38.69713866770658 a61.212796048939275,61.212796048939275 0 0,0 1.0164300566087097,-0.27782873033899264 l 10.268469976931874 38.87965393887187" fill="#30ff3a" stroke="none" /><path d="M 95.33964822691252 79.52364482259891 l -2.211796988098383 -9.718051965550261 a30.966573128297227,30.966573128297227 0 0,0 0.5207652670614396,-0.11381911693960715 l 2.044188996883423 9.754684580585737" fill="#ff770a" stroke="none" /><path d="M 97.83486435360386 79.11191278185805 l -1.4591881746651396 -14.077478199031075 a35.15290156022,35.15290156022 0 0,0 0.6024117133996956,-0.05720625093009423 l 1.2166513341752079 14.100509994476349" fill="#ffaf10" stroke="none" /><path d="M 98.19473922651362 79.07773832637324 l -0.7308175446914335 -8.4698876363343 a29.501358177124256,29.501358177124256 0 0,0 0.5063132816272051,-0.03929965524234848 l 0.5849140737018941 8.481212553765111" fill="#ff6309" stroke="none" /><path d="M 99.27714615592234 79.0124445844662 l -0.982607385039636 -28.529317668007693 a49.54623414524638,49.54623414524638 0 0,0 0.8526042545947649,-0.022020252468614405 l 0.4913764952499921 28.542004712618667" fill="#a0ff22" stroke="none" /></svg>